<?xml version="1.0" encoding="utf-8"?>
<!DOCTYPE svg PUBLIC "-//W3C//DTD SVG 1.1//EN" "http://www.w3.org/Graphics/SVG/1.1/DTD/svg11.dtd">
<svg version="1.1" id="Layer_1" xmlns="http://www.w3.org/2000/svg" xmlns:xlink="http://www.w3.org/1999/xlink" x="0px" y="0px"
	 width="776.667px" height="128.5px" viewBox="0 0 776.667 128.5" enable-background="new 0 0 776.667 128.5" xml:space="preserve">
<g id="ROT">
	<g>
		<path fill="#F2231A" d="M182.092,24.905h10.842c4.984,0,7.726,3.53,7.726,7.643c0,5.275-2.783,8.018-7.809,8.018h-8.474v13.416
			h-2.285V24.905z M192.85,38.28c3.572,0,5.441-2.035,5.441-5.732c0-2.907-1.869-5.316-5.357-5.316h-8.557V38.28H192.85z"/>
		<path fill="#F2231A" d="M227.489,53.981l-3.904-11.008h-9.512l-3.739,11.008h-2.45l10.177-29.076h1.661l10.219,29.076H227.489z
			 M218.934,29.641l-3.946,10.965h7.809L218.934,29.641z"/>
		<path fill="#F2231A" d="M242.398,24.905h10.842c4.984,0,7.726,3.53,7.726,7.643c0,5.275-2.783,8.018-7.809,8.018h-0.333
			c1.205,1.909,2.45,3.737,3.655,5.606l5.108,7.81h-2.824l-8.681-13.416h-5.359v13.416h-2.325V24.905L242.398,24.905z
			 M253.156,38.28c3.572,0,5.482-2.035,5.482-5.732c0-2.907-1.869-5.316-5.399-5.316h-8.516V38.28H253.156z"/>
		<path fill="#F2231A" d="M276.373,24.905v26.75h12.378v2.326h-14.703V24.905H276.373L276.373,24.905z"/>
		<path fill="#F2231A" d="M320.815,53.981l-3.905-11.008h-9.512l-3.737,11.008h-2.45l10.176-29.076h1.661l10.22,29.076H320.815z
			 M312.259,29.641l-3.946,10.965h7.809L312.259,29.641z"/>
		<path fill="#F2231A" d="M356.077,53.981V32.133l-4.111,10.966c-1.329,3.53-2.824,7.352-4.111,10.883h-1.662l-8.141-21.849v21.849
			h-2.326V24.905h2.035l9.347,24.881l4.817-13.001c1.454-3.864,3.074-8.06,4.486-11.881h1.994V53.98L356.077,53.981L356.077,53.981z
			"/>
		<path fill="#F2231A" d="M370.861,53.981V24.905h18.069v2.326h-15.743v11.091h14.372v2.283h-14.372v11.05h15.743v2.326H370.861
			L370.861,53.981z"/>
		<path fill="#F2231A" d="M417.421,53.981l-13.706-23.718v23.718h-2.326V24.905h2.035l13.706,23.843V24.905h2.326v29.076H417.421z"
			/>
		<path fill="#F2231A" d="M439.641,53.981v-26.75h-7.727v-2.326h18.069v2.326h-7.976v26.75H439.641z"/>
		<path fill="#F2231A" d="M478.06,32.881c-0.082-3.987-3.406-6.023-7.27-6.023c-3.945,0-7.31,1.827-7.31,5.316
			c0,2.825,3.613,3.987,7.353,5.193c4.693,1.536,9.761,3.28,9.761,8.474c0,4.983-2.907,8.598-10.177,8.598
			c-6.563,0-9.927-4.818-10.053-9.014h2.326c0.125,3.156,2.7,6.646,7.727,6.646c5.606,0,7.85-2.617,7.85-6.23
			c0-3.489-4.195-4.859-8.183-6.148c-4.652-1.495-8.972-2.949-8.972-7.519c0-5.067,4.527-7.685,9.678-7.685
			c5.025,0,9.512,2.825,9.595,8.392H478.06L478.06,32.881z"/>
		<path fill="#F2231A" d="M493.052,53.981V24.905h18.068v2.326h-15.742v11.091h14.372v2.283h-14.372v13.376H493.052L493.052,53.981z
			"/>
		<path fill="#F2231A" d="M523.578,24.905h10.841c4.984,0,7.726,3.53,7.726,7.643c0,5.275-2.782,8.018-7.809,8.018h-0.333
			c1.204,1.909,2.45,3.737,3.655,5.606l5.109,7.81h-2.825l-8.682-13.416h-5.357v13.416h-2.326L523.578,24.905L523.578,24.905z
			 M534.337,38.28c3.571,0,5.482-2.035,5.482-5.732c0-2.907-1.869-5.316-5.399-5.316h-8.517V38.28H534.337z"/>
		<path fill="#F2231A" d="M574.832,53.981l-3.904-11.008h-9.513l-3.738,11.008h-2.451l10.178-29.076h1.661l10.219,29.076H574.832z
			 M566.274,29.641l-3.946,10.965h7.81L566.274,29.641z"/>
		<path fill="#F2231A" d="M599.378,38.322h8.058v15.659h-2.284v-2.326c-1.952,1.869-4.86,2.783-7.436,2.783
			c-4.652,0-9.804-2.409-9.804-9.262V33.961c0-6.646,3.904-9.762,9.845-9.762c3.738,0,6.646,1.62,8.473,4.445l-1.909,1.328
			c-1.454-2.118-3.696-3.447-6.563-3.447c-4.569,0-7.519,2.45-7.519,7.436v11.216c0,5.191,3.987,6.895,7.477,6.895
			c3.531,0,7.436-1.704,7.436-6.895v-4.57h-5.773L599.378,38.322L599.378,38.322z"/>
		<path fill="#F2231A" d="M619.894,53.981V24.905h18.069v2.326H622.22v11.091h14.373v2.283H622.22v11.05h15.743v2.326H619.894
			L619.894,53.981z"/>
		<path fill="#F2231A" d="M666.454,53.981l-13.707-23.718v23.718h-2.326V24.905h2.035l13.707,23.843V24.905h2.326v29.076H666.454z"
			/>
		<path fill="#F2231A" d="M201.614,74.704v20.312c0,6.854-5.026,9.263-9.721,9.263c-4.651,0-9.802-2.409-9.802-9.263V74.704h2.325
			v20.312c0,5.192,3.988,6.896,7.477,6.896c3.531,0,7.437-1.703,7.437-6.896V74.704H201.614z"/>
		<path fill="#F2231A" d="M230.106,103.821l-13.707-23.718v23.718h-2.326V74.745h2.035l13.707,23.844V74.745h2.326v29.076H230.106z"
			/>
		<path fill="#F2231A" d="M244.599,103.821V74.745h9.637c6.688,0,9.886,4.029,9.886,9.678v10.759c0,6.688-4.195,8.64-9.055,8.64
			H244.599z M255.066,101.496c3.697,0,6.771-1.455,6.771-6.314V84.423c0-4.237-2.575-7.353-7.602-7.353h-7.311v24.425
			L255.066,101.496L255.066,101.496z"/>
		<path fill="#F2231A" d="M297.346,103.821v-1.786l17.196-24.965H298.26v-2.325h19.563v1.785l-17.238,24.966h17.238v2.325H297.346z"
			/>
		<path fill="#F2231A" d="M330.281,103.821V74.745h2.326v29.076H330.281z"/>
		<path fill="#F2231A" d="M354.537,103.821l-9.471-29.076h2.493l8.016,24.425c2.575-7.852,5.233-15.702,7.976-24.425h2.534
			l-9.429,29.076H354.537z"/>
		<path fill="#F2231A" d="M378.541,103.821V74.745h2.326v29.076H378.541z"/>
		<path fill="#F2231A" d="M395.653,74.745v26.751h12.378v2.325h-14.703V74.745H395.653z"/>
		<path fill="#F2231A" d="M429.463,88.162h8.059v15.659h-2.285v-2.325c-1.952,1.87-4.859,2.782-7.436,2.782
			c-4.652,0-9.803-2.409-9.803-9.263V83.801c0-6.646,3.904-9.761,9.845-9.761c3.737,0,6.646,1.62,8.473,4.443l-1.91,1.33
			c-1.454-2.119-3.696-3.448-6.562-3.448c-4.569,0-7.519,2.451-7.519,7.436v11.215c0,5.192,3.987,6.896,7.477,6.896
			c3.531,0,7.436-1.703,7.436-6.896v-4.568h-5.774L429.463,88.162L429.463,88.162z"/>
		<path fill="#F2231A" d="M449.979,103.821V74.745h18.069v2.325h-15.743v11.091h14.372v2.285h-14.372v11.05h15.743v2.325H449.979z"
			/>
		<path fill="#F2231A" d="M497.37,82.721c-0.082-3.986-3.405-6.023-7.269-6.023c-3.946,0-7.31,1.828-7.31,5.317
			c0,2.824,3.613,3.987,7.352,5.192c4.693,1.537,9.761,3.281,9.761,8.473c0,4.985-2.906,8.599-10.176,8.599
			c-6.563,0-9.928-4.818-10.053-9.014h2.326c0.124,3.157,2.7,6.646,7.726,6.646c5.607,0,7.851-2.616,7.851-6.231
			c0-3.489-4.195-4.859-8.183-6.147c-4.652-1.495-8.972-2.949-8.972-7.518c0-5.068,4.526-7.685,9.677-7.685
			c5.026,0,9.513,2.825,9.596,8.391H497.37L497.37,82.721z"/>
		<path fill="#F2231A" d="M512.361,103.821V74.745h18.069v2.325h-15.743v11.091h14.373v2.285h-14.373v11.05h15.743v2.325H512.361z"
			/>
		<path fill="#F2231A" d="M545.215,74.745v26.751h12.378v2.325h-14.704V74.745H545.215z"/>
		<path fill="#F2231A" d="M572.378,74.745v26.751h12.378v2.325h-14.704V74.745H572.378z"/>
		<path fill="#F2231A" d="M614.908,82.721c-0.082-3.986-3.406-6.023-7.269-6.023c-3.946,0-7.311,1.828-7.311,5.317
			c0,2.824,3.614,3.987,7.353,5.192c4.693,1.537,9.761,3.281,9.761,8.473c0,4.985-2.907,8.599-10.176,8.599
			c-6.563,0-9.928-4.818-10.053-9.014h2.326c0.124,3.157,2.699,6.646,7.726,6.646c5.607,0,7.851-2.616,7.851-6.231
			c0-3.489-4.195-4.859-8.183-6.147c-4.652-1.495-8.973-2.949-8.973-7.518c0-5.068,4.527-7.685,9.678-7.685
			c5.026,0,9.513,2.825,9.596,8.391H614.908L614.908,82.721z"/>
		<path fill="#F2231A" d="M632.186,94.476c0,5.025,2.99,7.436,7.56,7.436c2.866,0,5.067-1.246,6.521-3.407l1.995,1.288
			c-1.869,2.825-4.777,4.486-8.516,4.486c-5.939,0-9.845-3.156-9.845-9.803V83.8c0-6.645,3.905-9.761,9.845-9.761
			c3.696,0,6.604,1.62,8.516,4.443l-1.995,1.33c-1.453-2.119-3.654-3.448-6.521-3.448c-4.569,0-7.56,2.451-7.56,7.436V94.476z"/>
		<path fill="#F2231A" d="M677.957,103.821V90.446h-14.913v13.375h-2.325V74.745h2.325v13.417h14.913V74.745h2.284v29.076H677.957z"
			/>
		<path fill="#F2231A" d="M712.304,103.821l-3.904-11.007h-9.512l-3.739,11.007h-2.45l10.177-29.076h1.662l10.218,29.076H712.304z
			 M703.748,79.48l-3.946,10.966h7.809L703.748,79.48z"/>
		<path fill="#F2231A" d="M727.213,103.821V74.745h18.068v2.325h-15.742v11.091h14.372v2.285h-14.372v13.375H727.213z"/>
		<path fill="#F2231A" d="M765.465,103.821V77.07h-7.726v-2.325h18.069v2.325h-7.976v26.751H765.465z"/>
	</g>
	<path fill="#F2231A" d="M106.74,108.654c0-0.241,0.008-0.482,0.016-0.723l-0.001,0.002c11.729-11.424,19.016-27.385,19.016-45.049
		C125.771,28.153,97.616,0,62.885,0C28.154,0,0,28.153,0,62.885s28.154,62.884,62.885,62.884c10.855,0,21.068-2.751,29.979-7.592
		c3.99,5.899,10.743,9.777,18.402,9.777c1.92,0,3.782-0.243,5.559-0.701C110.756,123.292,106.74,116.444,106.74,108.654z"/>
</g>
</svg>
