<?xml version="1.0" encoding="utf-8"?>
<!DOCTYPE svg PUBLIC "-//W3C//DTD SVG 1.1//EN" "http://www.w3.org/Graphics/SVG/1.1/DTD/svg11.dtd">
<svg version="1.1" id="Layer_1" xmlns="http://www.w3.org/2000/svg" xmlns:xlink="http://www.w3.org/1999/xlink" x="0px" y="0px"
	 width="944.42px" height="166.68px" viewBox="0 0 944.42 166.68" enable-background="new 0 0 944.42 166.68" xml:space="preserve">
<g>
	<path fill="#6D7FBC" d="M263.71,70.319v-28.46l-5.357,14.284c-1.729,4.604-3.679,9.577-5.354,14.176h-2.165l-10.605-28.46v28.46
		H237.2V32.443h2.648l12.174,32.411l6.276-16.936c1.894-5.032,4.004-10.497,5.844-15.479h2.597v37.875L263.71,70.319L263.71,70.319z
		"/>
	<path fill="#6D7FBC" d="M308.506,70.319L303.42,55.98H291.03l-4.865,14.338h-3.192l13.256-37.875h2.164L311.7,70.318
		L308.506,70.319L308.506,70.319z M297.36,38.612l-5.14,14.284h10.172L297.36,38.612z"/>
	<path fill="#6D7FBC" d="M349.354,42.832c-0.108-5.194-4.438-7.851-9.469-7.851c-5.146,0-9.523,2.386-9.523,6.931
		c0,3.68,4.707,5.189,9.577,6.764c6.114,2.002,12.715,4.274,12.715,11.038c0,6.493-3.788,11.2-13.256,11.2
		c-8.549,0-12.932-6.276-13.094-11.741h3.03c0.158,4.112,3.517,8.657,10.062,8.657c7.305,0,10.227-3.409,10.227-8.116
		c0-4.545-5.465-6.331-10.654-8.008c-6.062-1.948-11.688-3.846-11.688-9.793c0-6.604,5.898-10.015,12.607-10.015
		c6.547,0,12.391,3.684,12.499,10.935L349.354,42.832L349.354,42.832z"/>
	<path fill="#6D7FBC" d="M376.24,70.319V35.474h-10.062v-3.03h23.537v3.03h-10.394v34.845H376.24z"/>
	<path fill="#6D7FBC" d="M405.942,70.319V32.443h23.537v3.03h-20.507V49.92h18.721v2.976h-18.721V67.29h20.507v3.025L405.942,70.319
		L405.942,70.319z"/>
	<path fill="#6D7FBC" d="M445.707,32.443h14.117c6.493,0,10.064,4.604,10.064,9.956c0,6.872-3.625,10.443-10.172,10.443h-0.438
		c1.569,2.489,3.192,4.87,4.767,7.304l6.65,10.172h-3.68l-11.309-17.477h-6.979v17.477h-3.03V32.443H445.707z M459.722,49.866
		c4.647,0,7.142-2.651,7.142-7.472c0-3.788-2.435-6.926-7.034-6.926h-11.092v14.396h10.984V49.866z"/>
	<path fill="#6D7FBC" d="M237.197,97.367h14.122c6.493,0,10.064,4.599,10.064,9.95c0,6.872-3.625,10.443-10.172,10.443h-11.038
		v17.479h-2.979L237.197,97.367L237.197,97.367z M251.211,114.789c4.648,0,7.088-2.65,7.088-7.472c0-3.782-2.438-6.926-6.979-6.926
		h-11.146v14.396L251.211,114.789L251.211,114.789z"/>
	<path fill="#6D7FBC" d="M303.042,123.771c0,8.928-6.547,12.065-12.661,12.065c-6.062,0-12.771-3.143-12.771-12.065v-14.604
		c0-8.657,5.086-12.72,12.823-12.72c8.17,0,12.607,4.929,12.607,12.771L303.042,123.771L303.042,123.771z M300.066,109.216
		c0-6.007-3.354-9.74-9.631-9.74c-5.952,0-9.793,3.192-9.793,9.688v14.604c0,6.769,5.194,8.981,9.739,8.981
		c4.599,0,9.686-2.219,9.686-8.981L300.066,109.216L300.066,109.216z"/>
	<path fill="#6D7FBC" d="M322.3,97.367v34.845h16.124v3.03H319.27V97.367H322.3z"/>
	<path fill="#6D7FBC" d="M354.653,135.242V97.367h3.03v37.875H354.653z"/>
	<path fill="#6D7FBC" d="M383.978,135.242v-34.851h-10.064v-3.024h23.537v3.024h-10.389v34.851H383.978z"/>
	<path fill="#6D7FBC" d="M414.219,135.242V97.367h3.025v37.875H414.219z"/>
	<path fill="#6D7FBC" d="M437.91,120.47v14.771h-3.025V97.367h3.025v18.283c5.146-5.947,10.394-12.277,15.479-18.283h3.95
		l-13.258,15.902l16.342,21.973h-3.896L441.973,115.6L437.91,120.47z"/>
	<path fill="#6D7FBC" d="M500.781,135.242l-6.649-29.326l-6.549,29.326h-2.763l-9.848-37.875h3.246l7.896,30.354
		c1.244-5.844,2.601-11.634,6.709-30.354h2.705l6.709,30.517c2.603-10.064,5.195-20.507,7.738-30.517h3.246l-9.74,37.875H500.781z"
		/>
	<path fill="#6D7FBC" d="M527.828,135.242V97.367h3.031v37.875H527.828z"/>
	<path fill="#6D7FBC" d="M570.143,107.755c-0.107-5.194-4.438-7.846-9.469-7.846c-5.146,0-9.523,2.381-9.523,6.926
		c0,3.679,4.707,5.189,9.578,6.763c6.113,2.003,12.715,4.275,12.715,11.038c0,6.493-3.787,11.2-13.256,11.2
		c-8.551,0-12.932-6.276-13.096-11.741h3.031c0.157,4.112,3.516,8.657,10.062,8.657c7.303,0,10.225-3.408,10.225-8.116
		c0-4.545-5.465-6.33-10.653-8.008c-6.062-1.947-11.688-3.842-11.688-9.793c0-6.604,5.898-10.01,12.607-10.01
		c6.547,0,12.391,3.679,12.498,10.93H570.143z"/>
	<path fill="#6D7FBC" d="M612.721,107.755c-0.107-5.194-4.438-7.846-9.469-7.846c-5.146,0-9.523,2.381-9.523,6.926
		c0,3.679,4.707,5.189,9.578,6.763c6.113,2.003,12.715,4.275,12.715,11.038c0,6.493-3.787,11.2-13.256,11.2
		c-8.551,0-12.932-6.276-13.096-11.741h3.026c0.162,4.112,3.521,8.657,10.064,8.657c7.303,0,10.225-3.408,10.225-8.116
		c0-4.545-5.465-6.33-10.653-8.008c-6.062-1.947-11.688-3.842-11.688-9.793c0-6.604,5.898-10.01,12.607-10.01
		c6.547,0,12.391,3.679,12.497,10.93H612.721z"/>
	<path fill="#6D7FBC" d="M632.244,135.242V97.367h23.537v3.024H635.28v14.447H654v2.976H635.28v14.396h20.506v3.029h-23.541V135.242
		z"/>
	<path fill="#6D7FBC" d="M692.899,135.242l-17.854-30.896v30.896h-3.029V97.367h2.646l17.855,31.058V97.367h3.031v37.875H692.899z"
		/>
	<path fill="#6D7FBC" d="M734.824,107.755c-0.104-5.194-4.438-7.846-9.469-7.846c-5.141,0-9.521,2.381-9.521,6.926
		c0,3.679,4.704,5.189,9.575,6.763c6.111,2.003,12.718,4.275,12.718,11.038c0,6.493-3.787,11.2-13.259,11.2
		c-8.553,0-12.934-6.276-13.098-11.741h3.031c0.162,4.112,3.516,8.657,10.062,8.657c7.307,0,10.229-3.408,10.229-8.116
		c0-4.545-5.465-6.33-10.658-8.008c-6.062-1.947-11.688-3.842-11.688-9.793c0-6.604,5.896-10.01,12.604-10.01
		c6.547,0,12.394,3.679,12.498,10.93H734.824z"/>
	<path fill="#6D7FBC" d="M757.328,123.068c0,6.547,3.896,9.688,9.853,9.688c3.729,0,6.602-1.623,8.494-4.438l2.598,1.683
		c-2.434,3.679-6.223,5.843-11.092,5.843c-7.738,0-12.824-4.111-12.824-12.771V109.17c0-8.657,5.086-12.718,12.824-12.718
		c4.812,0,8.604,2.108,11.092,5.787l-2.598,1.731c-1.896-2.76-4.765-4.491-8.494-4.491c-5.951,0-9.853,3.192-9.853,9.688V123.068z"
		/>
	<path fill="#6D7FBC" d="M816.951,135.242v-17.428H797.53v17.428H794.5V97.367h3.027v17.477h19.424V97.367h2.979v37.875H816.951z"/>
	<path fill="#6D7FBC" d="M861.698,135.242l-5.086-14.344h-12.391l-4.869,14.344h-3.193l13.258-37.875h2.164l13.312,37.875H861.698z
		 M850.551,103.535l-5.144,14.279h10.177L850.551,103.535z"/>
	<path fill="#6D7FBC" d="M881.115,135.242V97.367h23.537v3.024h-20.506v14.447h18.721v2.976h-18.721v17.428H881.115z"/>
	<path fill="#6D7FBC" d="M930.948,135.242v-34.851h-10.062v-3.024h23.536v3.024H934.03v34.851H930.948z"/>
</g>
<path fill="#6D7FBC" d="M139.042,141.538c0-0.315,0.01-0.629,0.02-0.941l-0.001,0.001c15.277-14.88,24.771-35.671,24.771-58.682
	C163.831,36.675,127.156,0,81.916,0C36.676,0,0,36.675,0,81.916c0,45.242,36.675,81.916,81.916,81.916
	c14.14,0,27.438-3.583,39.051-9.896c5.198,7.688,13.995,12.739,23.972,12.739c2.501,0,4.932-0.318,7.241-0.914
	C144.273,160.605,139.042,151.684,139.042,141.538z"/>
</svg>
