<?xml version="1.0" encoding="utf-8"?>
<!-- Generator: Adobe Illustrator 16.0.0, SVG Export Plug-In . SVG Version: 6.00 Build 0)  -->
<!DOCTYPE svg PUBLIC "-//W3C//DTD SVG 1.1//EN" "http://www.w3.org/Graphics/SVG/1.1/DTD/svg11.dtd">
<svg version="1.1" id="Layer_1" xmlns="http://www.w3.org/2000/svg" xmlns:xlink="http://www.w3.org/1999/xlink" x="0px" y="0px"
	 width="844.295px" height="166.678px" viewBox="0 0 844.295 166.678" enable-background="new 0 0 844.295 166.678"
	 xml:space="preserve">
<metadata><?xpacket begin="﻿" id="W5M0MpCehiHzreSzNTczkc9d"?>
<x:xmpmeta xmlns:x="adobe:ns:meta/" x:xmptk="Adobe XMP Core 5.3-c011 66.145661, 2012/02/06-14:56:27        ">
   <rdf:RDF xmlns:rdf="http://www.w3.org/1999/02/22-rdf-syntax-ns#">
      <rdf:Description rdf:about=""
            xmlns:dc="http://purl.org/dc/elements/1.1/">
         <dc:format>image/svg+xml</dc:format>
         <dc:title>
            <rdf:Alt>
               <rdf:li xml:lang="x-default">Print</rdf:li>
            </rdf:Alt>
         </dc:title>
      </rdf:Description>
      <rdf:Description rdf:about=""
            xmlns:xmp="http://ns.adobe.com/xap/1.0/"
            xmlns:xmpGImg="http://ns.adobe.com/xap/1.0/g/img/">
         <xmp:MetadataDate>2015-01-30T15:24:47+01:00</xmp:MetadataDate>
         <xmp:ModifyDate>2015-01-30T15:24:47+01:00</xmp:ModifyDate>
         <xmp:CreateDate>2015-01-30T15:24:46+01:00</xmp:CreateDate>
         <xmp:CreatorTool>Adobe Illustrator CS6 (Macintosh)</xmp:CreatorTool>
         <xmp:Thumbnails>
            <rdf:Alt>
               <rdf:li rdf:parseType="Resource">
                  <xmpGImg:width>256</xmpGImg:width>
                  <xmpGImg:height>56</xmpGImg:height>
                  <xmpGImg:format>JPEG</xmpGImg:format>
                  <xmpGImg:image>/9j/4AAQSkZJRgABAgEASABIAAD/7QAsUGhvdG9zaG9wIDMuMAA4QklNA+0AAAAAABAASAAAAAEA&#xA;AQBIAAAAAQAB/+4ADkFkb2JlAGTAAAAAAf/bAIQABgQEBAUEBgUFBgkGBQYJCwgGBggLDAoKCwoK&#xA;DBAMDAwMDAwQDA4PEA8ODBMTFBQTExwbGxscHx8fHx8fHx8fHwEHBwcNDA0YEBAYGhURFRofHx8f&#xA;Hx8fHx8fHx8fHx8fHx8fHx8fHx8fHx8fHx8fHx8fHx8fHx8fHx8fHx8fHx8f/8AAEQgAOAEAAwER&#xA;AAIRAQMRAf/EAaIAAAAHAQEBAQEAAAAAAAAAAAQFAwIGAQAHCAkKCwEAAgIDAQEBAQEAAAAAAAAA&#xA;AQACAwQFBgcICQoLEAACAQMDAgQCBgcDBAIGAnMBAgMRBAAFIRIxQVEGE2EicYEUMpGhBxWxQiPB&#xA;UtHhMxZi8CRygvElQzRTkqKyY3PCNUQnk6OzNhdUZHTD0uIIJoMJChgZhJRFRqS0VtNVKBry4/PE&#xA;1OT0ZXWFlaW1xdXl9WZ2hpamtsbW5vY3R1dnd4eXp7fH1+f3OEhYaHiImKi4yNjo+Ck5SVlpeYmZ&#xA;qbnJ2en5KjpKWmp6ipqqusra6voRAAICAQIDBQUEBQYECAMDbQEAAhEDBCESMUEFURNhIgZxgZEy&#xA;obHwFMHR4SNCFVJicvEzJDRDghaSUyWiY7LCB3PSNeJEgxdUkwgJChgZJjZFGidkdFU38qOzwygp&#xA;0+PzhJSktMTU5PRldYWVpbXF1eX1RlZmdoaWprbG1ub2R1dnd4eXp7fH1+f3OEhYaHiImKi4yNjo&#xA;+DlJWWl5iZmpucnZ6fkqOkpaanqKmqq6ytrq+v/aAAwDAQACEQMRAD8A9UMyopdyFVQSzE0AA6kn&#xA;FXkPnb88PRlksfLCrIVqr6lIOS1/4pQ7H/Wbb275qtR2hW0Pm1SydzyrVPMevatIX1HUJ7ot+zJI&#xA;xQf6qV4j6BmsnllLmbaySUvjkkjcPGxR16MpII+kZAFDLPLv5pecdFkQC9a9tR9q1uyZVI/yWJ5r&#xA;7UNPbMrFrMkOtjzZCZD3LyT5/wBG812pa2P1e/iFbixcguvbkp25pXv99M3Gn1Mco259zdGVsmzJ&#xA;ZOxV2KuxV2KuxV2KuxV2KuxV2KuxV2KuxV2KuxV2KuxV2KuxV2KuxV2KuxV2KuxV5B+eHnaWHj5Y&#xA;sZOJkUSak6nfi26Q/SPib2p75qu0NRXoHxaskujxjNQ1OxV2KuxVHaLrF/o2p2+pWEhiubduSHsR&#xA;3Vh3VhsRk8eQwlY5qDT6l8s6/a6/odpq1tslylXjrUo4PF0P+qwIzpcOUTiJByQbCZ5Yl2Ktcl5c&#xA;ajkRUDvQYq4soIUkBj0Hc0xVssqirEAeJxV2KqbXFusqwtKizPukZYBjTwHXBYVdJLFGvKR1RSaV&#xA;YgCv04kq1HcQSEiORXI3IVgf1YghWnurZGKvMisOqlgDjYVd6sXp+pzX06V51FKfPG1ajnhlr6ci&#xA;vTrxINPuxBCtySRxoXkYIiirMxAAHuThJV0ckcqCSNw6NurqQQfkRiCqw3loDQzxgjqOS/1wcQVU&#xA;LKKVIHI0X3PXbCriyghSQGPQdzTFVj3FujcXlRW/lZgD+OCwqphVr1E4B+Q4GlGrsa9N/fG1cWUU&#xA;BIHI0Fe564q7kvLjUcqVp3piruS8uNRyIqB3oMVbxV2KvkvzHqkmra9qGoueRup5JF9kLHgv0LQZ&#xA;y+WfFInvcYmyluVodirsVdirsVe1f84/apI9lqulu1UgeO4hUn/fgKvT/gFzcdmT2MW3GXrmbRtd&#xA;irB/N99cad520PUEalrbW0/18f8AFE09vASfZHlVz8sw88jHJE9K3+YDCR3dJfXF7+aFpxb/AECw&#xA;hubRPBrj00lmP+xV41+dcTInMO4WPivVX/Mu7tpLCz0OedreLVZT9ZmRXdlt7ceo5AQM28npp074&#xA;dXIUIn+JZ9yc+UNYbV/LljfSH/SGj9O6B2IniJjlqO3xqcuwZOOALKJsMTudHsdOiv08x6G10lxL&#xA;NM3mW3RbiRVdmZJHH9/D6KkAcAVFMxTjEb443/S5/tFMK72aHS9K1HS7WC9ji1W2VI3jkukSYOQl&#xA;BL8QK8mBO48cy+CMogH1BnSS/l1pGlW3luxvLayghu5ois1xHEiSOOZ2ZwAx6d8q0sIiAIG6IjZK&#xA;IotEfXfMJv8Ay2+sTfpD4bpbSC4Cr9VgpHzkIYUNTT3yoCPFK48W/cO4I2vknHm+O1j/AC+vUgtP&#xA;qtv9WQpZBFTgGZT6fpr8IIrQgZbnA8I0K2TLklGnx6TeeZbNNA0F9Hu9Mn56rOYIbUC3khakTrG1&#xA;ZPUJXjttSvbKo8JmOCPCRz6IHPZO/N+k3l5c6bdpYJq9lZGU3OlSOqiRnCiOVRJ+7do6NRXp9rLs&#xA;8CSDXEB0TINeUl0IXuotpcMumyt6X13RpYxAIpPipKsY+H96v7SEq3Hxrjg4bPDt5LGkHL5X8sv5&#xA;4WJ9IsmifTpJnjNvEVaT6wg5kFaFqHrkDhh4nIfT3eaKFpn5mVVvvLSqAFGqAADYACzucszc4/1v&#xA;0FJ6O1b/AJS/y/8A8Y77/iEeM/7yPxU80FFoei6n5v106lYW16Y4rIRm4iSUqGSSvEuDStO2QGOM&#xA;skrAPJa3VPK8Yt9K1qwjLfVbG8uYLSNiW9OIIrhATvxUuae2HCKjIdASoQEv/krtC/4x6J/1EW2Q&#xA;P9zH/N+8I6Jx5o/3v8t/9tUf9QdzlubnH+t+gpPRJtcvrjT/AMydPuw3+hPZx2l6OwFzO6xP9EwR&#xA;f9llWSRjmB6VXzP60Hm7S764v/zRubjl/oMFhc2VqPFree3M7/8AIyQp/scYSMsxPSiPkQo5s4zM&#xA;ZuxV8dyRvHI0bji6Eqw8CDQ5yhDircCuxV2KuxV2KvWv+cfInOp6xMB8CQxIx93diP8AiJzadmDe&#xA;TZje2ZuG52KpNq3lyHU9QM9w4NtJp9zp8sNNyLl4m5Bu3ERZTPFxGzyoj5oIQmjeUG039Ds11682&#xA;nrdNdzMp5TzXdGeQkk0+Id65HHg4eHflfxtAimcWksPME+ryyB+VtHa20QFPTUOzyGtdy7Ff+BGW&#xA;CHr4vKk1u1pekNYXupSpLytr+ZblIKf3chQJLv3DlQ3zrjCHCT5qAlP+GvMdvbTaZp+rxRaTKX9P&#xA;1rdpbqFJSSyRy+qqkCp4l0NPemVeFMCgfT7t0UWQ6fZQWFhbWMAIgtYkgiB3PCNQq/gMvjERAA6M&#xA;ghvL+lNpOjWunNIJWt1KmQDiDVielT45HFDhiAgCksXRvNFnqGozaZe2KW+oXH1ox3NtLI6t6UcR&#xA;HJJ4hSkQPTK/DmCTEjc937UUUbquk3uqeXZtNup4lu7hAsk8SMsfIMDVUZmam382TnAyhR5pI2bv&#xA;NFaTW7PV7SUQXEKtBeKRyWe3apCGhFGR/iVu2474yx+oSH4C1u1rOkX9zd2uoaZeLZ39qskdJYzN&#xA;BLFLxLJIgaNvtIpDKwIxyQJIMTRCkLdG0W/t7+71PU7tLvULpI4f3MRhhjhhLsqIpeRj8UjElmxx&#xA;4yCZSNkqAiDpTHzAmreoOK2jWvpU3q0iycq1/wAmmHg9fF5Utbrdf0d9UtYVhuDa3lpMlzZ3PEOE&#xA;lQEfEhI5KysykVGxxy4+IdxCkWhbDRNWbVotU1m9huZrWJ4rSC1haCJPVK+o7c5JWZiEAG9BkY45&#xA;cXFI8lAU7jRfMMet3uoaXe2kMV8kKSpc28kzL6IZQVKTQj9rvgOOfETEjfy/aiii9H0N9P065t5b&#xA;k3V1eSSz3VyVCBpZRQlUBPFQAABXJQx8IIuyUgKP+GVfyla6BJcFWtre2iS7jABEtrwaOQK1R9uM&#xA;NQ4PB/diF8gPsWtqUrfQtduNQs7rW9QguItOYy20FrbtAGmMbRepKXklJokjUVaCpwDHIkGR5dwR&#xA;RXa15WTVbq9lkm4x3dgLJVA+JHWRpElBr+yxBHyxyYeInzFKRbWjeVRplzpsqz+oLGxmtJar8Ust&#xA;xLFNJMTXbk8bEj3xx4eEjyFKAn+XsnYq+Z/zS8uyaL5xvQEpa3rG7tW7FZSSy/7F6inhTOe1mLgy&#xA;HuO7jzFFiOYjF2KuxV2KuxV9D/kt5dk0ryn9cnXjcaq/1ih6iECkQPz3b6c32gxcMLP8TfjFBn+Z&#xA;zN2KvO/OOha9rvnC5sNNvGseGmWkkV561xGbeQ3cxaWKOFlR5OKDZ9ulajbFLvM8lqPMl4LmaZNa&#xA;WbTf0BEryqTEZk9b0EU8Wq3MTbH4Kc/hpihP9E12wPmnzBo814p1AXkclvZM1XEH6PtSSin9nnyO&#xA;3euKpMmnLqHljyTNeG4e4lSyjunE00bMr2jM/qcGWtXAJJxVE+aJ9XX/ABGLCVkuFTTfqRYv6ayN&#xA;MQdlNeJ258e2KoP63qFt+X11dVuX17QZxeazDI5eaSe1lW5ukQgKGjng5eiFULwZQFFKBVJvLjeb&#xA;18oeahrE9ydQ0fTJrNJSzAvdSwy37yx0JPwx3UEanqChxSiPOatD+YNpei9nmmE2nwwaSJ7i1mRW&#xA;lIeeyCM8FzG3OlxHJF9lT8Y2xVvWojD+Z8V2L6e6mlvLOBdNWe4t57eP0V5vBEC8F1Zty5T1ReLc&#xA;vjqAAqmPli/sn86ajbz3Vu2oLeXYjga6uDdBATxH1c/uuATp7YoQXkq98xw6vZafqUl1cW7aTqF9&#xA;Z3nxMXWW4tf3Lctmmt35hK/sMo/mxSlPlJb+00TzRa6Ve3Wq3y6O0kGp289xI0l36cgT1ba5MrW1&#xA;/wAqclWQg7VVaAYqyuaXSU8rl/KM0kifpDTFRmlunhLNe24ZVeQv8JU0l4f5XL4q4oWT6j5lh0fz&#xA;WhKLrdxqEVjpQjeRoY5bqytI4nVmXkEjeQyPRdqMcVQiDXZ/KmlaLdVfVdO1NdNvec8wWVIY3aJ5&#xA;LiNY5H9SAxuzcRVj0xSnHmHRuHk2O2lRopreaEhba4uDQyXKhqSFlkYFXP2sUMrggjggjgiBEcSh&#xA;EBJY8VFBVmJJ+ZxV5Xrt35ph0XQ9Q02W5mkttG1SXULNWYtcRl7WMkV39aIOZY+54lR9o4pej8pf&#xA;8P8AOrer9Ury35cvT6161rihi3l7Utbt5rK61xkS0h0L6w5heWSvAxMzyB1X4+PhXviqVaZdebbX&#xA;yp5utdcZ01O4sLjWdPZJXkaJLuGStujFImVreWP7IrxDLQnFLIdb83aHJYaXq9rqcR0qPUkjuryO&#xA;T90B6UlVdh2qV64oSfzrrGlHXdIuJ761TS7qwlmgkubqe2hk5SRFWQwfbbgdq9sUp/5/8k2vmvRj&#xA;bMRFf29Xsbg/suRurU34PTf7+2Y2p04yxrr0YSjb5t1jRdT0a/ksNSt2t7mI7o3QjsynoynsRnP5&#xA;McoGjzccikDkFdirsVZl+VvlGz8y+Y/RvZKWtmn1maAVrKFYLwr2WrfFmXo8AyTo8gyhGy+k1VVU&#xA;KoCqooANgAM6FyG8VdirsVdirsVdirsVdirsVdirsVdirsVdirsVdirsVdirsVdirsVdirsVdirs&#xA;VdiqWa/5Z0PX7X6tq1olygr6bmodCe6OtGX6DleXDGYqQQQC821T/nH6yeRn0vVXgQ1Kw3EYk+jm&#xA;pT/iOa+fZg/hLWcaXxf84+amXAm1iFE7skTufuLL+vKx2Yf5yPDZRpH5HeUrOFxfPNqE8iMnqO3p&#xA;qhYU5Iidx25E5kw7OxjnuyGMJHpX5WecPKvmeHVNBuLe+tVYoyTMYXaF/tJIOLD6Qeu9O2Uw0eTH&#xA;PiiQQgQIOz19CxRS68WIBZa1oe4rm1bW8VdirsVdirsVdirsVdirsVdirsVdirsVdirsVdirsVdi&#xA;rsVdirsVdirsVdirsVf/2Q==</xmpGImg:image>
               </rdf:li>
            </rdf:Alt>
         </xmp:Thumbnails>
      </rdf:Description>
      <rdf:Description rdf:about=""
            xmlns:xmpMM="http://ns.adobe.com/xap/1.0/mm/"
            xmlns:stRef="http://ns.adobe.com/xap/1.0/sType/ResourceRef#"
            xmlns:stEvt="http://ns.adobe.com/xap/1.0/sType/ResourceEvent#">
         <xmpMM:InstanceID>xmp.iid:0980117407206811822AE3A2ADA8BAEF</xmpMM:InstanceID>
         <xmpMM:DocumentID>xmp.did:0980117407206811822AE3A2ADA8BAEF</xmpMM:DocumentID>
         <xmpMM:OriginalDocumentID>uuid:5D20892493BFDB11914A8590D31508C8</xmpMM:OriginalDocumentID>
         <xmpMM:RenditionClass>proof:pdf</xmpMM:RenditionClass>
         <xmpMM:DerivedFrom rdf:parseType="Resource">
            <stRef:instanceID>xmp.iid:0880117407206811822AE3A2ADA8BAEF</stRef:instanceID>
            <stRef:documentID>xmp.did:0880117407206811822AE3A2ADA8BAEF</stRef:documentID>
            <stRef:originalDocumentID>uuid:5D20892493BFDB11914A8590D31508C8</stRef:originalDocumentID>
            <stRef:renditionClass>proof:pdf</stRef:renditionClass>
         </xmpMM:DerivedFrom>
         <xmpMM:History>
            <rdf:Seq>
               <rdf:li rdf:parseType="Resource">
                  <stEvt:action>saved</stEvt:action>
                  <stEvt:instanceID>xmp.iid:0580117407206811822AE3A2ADA8BAEF</stEvt:instanceID>
                  <stEvt:when>2015-01-30T15:14:15+01:00</stEvt:when>
                  <stEvt:softwareAgent>Adobe Illustrator CS6 (Macintosh)</stEvt:softwareAgent>
                  <stEvt:changed>/</stEvt:changed>
               </rdf:li>
               <rdf:li rdf:parseType="Resource">
                  <stEvt:action>saved</stEvt:action>
                  <stEvt:instanceID>xmp.iid:0980117407206811822AE3A2ADA8BAEF</stEvt:instanceID>
                  <stEvt:when>2015-01-30T15:24:47+01:00</stEvt:when>
                  <stEvt:softwareAgent>Adobe Illustrator CS6 (Macintosh)</stEvt:softwareAgent>
                  <stEvt:changed>/</stEvt:changed>
               </rdf:li>
            </rdf:Seq>
         </xmpMM:History>
      </rdf:Description>
      <rdf:Description rdf:about=""
            xmlns:illustrator="http://ns.adobe.com/illustrator/1.0/">
         <illustrator:StartupProfile>Print</illustrator:StartupProfile>
      </rdf:Description>
      <rdf:Description rdf:about=""
            xmlns:xmpTPg="http://ns.adobe.com/xap/1.0/t/pg/"
            xmlns:stDim="http://ns.adobe.com/xap/1.0/sType/Dimensions#"
            xmlns:xmpG="http://ns.adobe.com/xap/1.0/g/">
         <xmpTPg:HasVisibleOverprint>False</xmpTPg:HasVisibleOverprint>
         <xmpTPg:HasVisibleTransparency>False</xmpTPg:HasVisibleTransparency>
         <xmpTPg:NPages>1</xmpTPg:NPages>
         <xmpTPg:MaxPageSize rdf:parseType="Resource">
            <stDim:w>844.294922</stDim:w>
            <stDim:h>166.677734</stDim:h>
            <stDim:unit>Pixels</stDim:unit>
         </xmpTPg:MaxPageSize>
         <xmpTPg:PlateNames>
            <rdf:Seq>
               <rdf:li>Cyan</rdf:li>
               <rdf:li>Magenta</rdf:li>
               <rdf:li>Yellow</rdf:li>
               <rdf:li>Black</rdf:li>
            </rdf:Seq>
         </xmpTPg:PlateNames>
         <xmpTPg:SwatchGroups>
            <rdf:Seq>
               <rdf:li rdf:parseType="Resource">
                  <xmpG:groupName>Default Swatch Group</xmpG:groupName>
                  <xmpG:groupType>0</xmpG:groupType>
               </rdf:li>
            </rdf:Seq>
         </xmpTPg:SwatchGroups>
      </rdf:Description>
      <rdf:Description rdf:about=""
            xmlns:pdf="http://ns.adobe.com/pdf/1.3/">
         <pdf:Producer>Adobe PDF library 10.01</pdf:Producer>
      </rdf:Description>
   </rdf:RDF>
</x:xmpmeta>
                                                                                                    
                                                                                                    
                                                                                                    
                                                                                                    
                                                                                                    
                                                                                                    
                                                                                                    
                                                                                                    
                                                                                                    
                                                                                                    
                                                                                                    
                                                                                                    
                                                                                                    
                                                                                                    
                                                                                                    
                                                                                                    
                                                                                                    
                                                                                                    
                                                                                                    
                                                                                                    
                           
<?xpacket end="w"?>
	</metadata>
<g>
	<path fill="#5F7E06" d="M263.71,87.539v-28.46l-5.356,14.283c-1.731,4.6-3.68,9.577-5.356,14.177h-2.165l-10.604-28.46v28.46h-3.03
		V49.664h2.651l12.174,32.411l6.275-16.937c1.895-5.032,4.005-10.497,5.845-15.475h2.597v37.875H263.71z"/>
	<path fill="#5F7E06" d="M308.507,87.539l-5.087-14.338h-12.39l-4.87,14.338h-3.191l13.256-37.875h2.164l13.311,37.875H308.507z
		 M297.36,55.832l-5.14,14.283h10.172L297.36,55.832z"/>
	<path fill="#5F7E06" d="M349.354,60.052c-0.108-5.194-4.438-7.846-9.469-7.846c-5.142,0-9.523,2.381-9.523,6.926
		c0,3.68,4.707,5.194,9.577,6.764c6.114,2.002,12.716,4.274,12.716,11.038c0,6.493-3.788,11.2-13.257,11.2
		c-8.549,0-12.932-6.276-13.094-11.741h3.03c0.162,4.112,3.517,8.657,10.063,8.657c7.305,0,10.228-3.409,10.228-8.116
		c0-4.545-5.466-6.331-10.659-8.008c-6.061-1.948-11.688-3.841-11.688-9.793c0-6.602,5.898-10.01,12.607-10.01
		c6.547,0,12.391,3.679,12.499,10.93L349.354,60.052L349.354,60.052z"/>
	<path fill="#5F7E06" d="M376.242,87.539V52.694h-10.062v-3.029h23.536v3.029h-10.39v34.846H376.242z"/>
	<path fill="#5F7E06" d="M405.943,87.539V49.664h23.537v3.029h-20.507v14.447h18.722v2.977h-18.722V84.51h20.507v3.029H405.943z"/>
	<path fill="#5F7E06" d="M445.708,49.664h14.121c6.494,0,10.064,4.599,10.064,9.956c0,6.872-3.625,10.442-10.172,10.442h-0.435
		c1.57,2.489,3.193,4.87,4.763,7.305l6.655,10.172h-3.68l-11.309-17.477h-6.98v17.477h-3.028V49.664L445.708,49.664z
		 M459.722,67.086c4.651,0,7.143-2.651,7.143-7.467c0-3.788-2.436-6.927-7.035-6.927h-11.092v14.394H459.722z"/>
	<path fill="#5F7E06" d="M509.983,60.052c-0.107-5.194-4.438-7.846-9.469-7.846c-5.141,0-9.523,2.381-9.523,6.926
		c0,3.68,4.707,5.194,9.578,6.764c6.113,2.002,12.715,4.274,12.715,11.038c0,6.493-3.787,11.2-13.256,11.2
		c-8.551,0-12.932-6.276-13.096-11.741h3.031c0.162,4.112,3.516,8.657,10.063,8.657c7.303,0,10.226-3.409,10.226-8.116
		c0-4.545-5.466-6.331-10.658-8.008c-6.062-1.948-11.688-3.841-11.688-9.793c0-6.602,5.898-10.01,12.607-10.01
		c6.547,0,12.391,3.679,12.498,10.93L509.983,60.052L509.983,60.052z"/>
	<path fill="#5F7E06" d="M536.872,87.539V52.694h-10.063v-3.029h23.537v3.029h-10.39v34.846H536.872z"/>
	<path fill="#5F7E06" d="M592.004,49.609v26.459c0,8.928-6.548,12.066-12.662,12.066c-6.06,0-12.771-3.139-12.771-12.066V49.609
		h3.031v26.459c0,6.764,5.193,8.982,9.738,8.982c4.6,0,9.686-2.219,9.686-8.982V49.609H592.004z"/>
	<path fill="#5F7E06" d="M608.231,87.539V49.664h12.553c8.711,0,12.877,5.249,12.877,12.606v14.015
		c0,8.711-5.465,11.254-11.795,11.254H608.231z M621.866,84.509c4.816,0,8.82-1.895,8.82-8.225V62.271
		c0-5.519-3.355-9.577-9.902-9.577h-9.522v31.815H621.866z"/>
	<path fill="#5F7E06" d="M649.89,87.539V49.664h3.029v37.875H649.89z"/>
	<path fill="#5F7E06" d="M694.579,49.609v26.459c0,8.928-6.547,12.066-12.659,12.066c-6.062,0-12.771-3.139-12.771-12.066V49.609
		h3.029v26.459c0,6.764,5.194,8.982,9.74,8.982c4.6,0,9.686-2.219,9.686-8.982V49.609H694.579z"/>
	<path fill="#5F7E06" d="M737.321,87.539v-28.46l-5.356,14.283c-1.73,4.6-3.679,9.577-5.355,14.177h-2.164l-10.604-28.46v28.46
		h-3.031V49.664h2.652l12.174,32.411l6.276-16.937c1.894-5.032,4.005-10.497,5.845-15.475h2.596v37.875H737.321z"/>
	<path fill="#231F20" d="M235.992,102.541h7.83c3.6,0,5.58,2.549,5.58,5.52c0,3.81-2.01,5.789-5.64,5.789h-6.12v9.689h-1.65V102.541
		z M243.761,112.198c2.579,0,3.93-1.469,3.93-4.139c0-2.1-1.351-3.84-3.87-3.84h-6.18v7.979H243.761z"/>
	<path fill="#231F20" d="M272.501,117.179c0,4.949-3.63,6.689-7.02,6.689c-3.36,0-7.08-1.74-7.08-6.689v-8.1
		c0-4.801,2.82-7.051,7.11-7.051c4.529,0,6.989,2.729,6.989,7.08V117.179z M270.851,109.11c0-3.33-1.86-5.398-5.339-5.398
		c-3.301,0-5.431,1.77-5.431,5.369v8.1c0,3.75,2.88,4.98,5.4,4.98c2.55,0,5.37-1.23,5.37-4.98L270.851,109.11L270.851,109.11z"/>
	<path fill="#231F20" d="M283.181,102.541v19.317h8.939v1.681h-10.62v-20.998H283.181z"/>
	<path fill="#231F20" d="M301.121,123.539v-20.998h1.68v20.998H301.121z"/>
	<path fill="#231F20" d="M317.381,123.539V104.22h-5.58v-1.68h13.049v1.68h-5.76v19.318L317.381,123.539L317.381,123.539z"/>
	<path fill="#231F20" d="M334.15,123.539v-20.998h1.68v20.998H334.15z"/>
	<path fill="#231F20" d="M347.29,115.349v8.189h-1.68V102.54h1.68v10.139c2.851-3.299,5.761-6.81,8.581-10.139h2.189l-7.35,8.817
		l9.06,12.181h-2.16l-8.07-10.89L347.29,115.349z"/>
	<path fill="#231F20" d="M382.15,123.539l-3.689-16.26l-3.631,16.26h-1.529l-5.46-20.998h1.8l4.38,16.828
		c0.689-3.24,1.439-6.449,3.72-16.828h1.5l3.721,16.918c1.438-5.578,2.88-11.369,4.29-16.918h1.8l-5.4,20.998H382.15z"/>
	<path fill="#231F20" d="M397.15,123.539v-20.998h1.68v20.998H397.15z"/>
	<path fill="#231F20" d="M420.61,108.3c-0.061-2.881-2.46-4.352-5.25-4.352c-2.851,0-5.28,1.32-5.28,3.841
		c0,2.04,2.61,2.88,5.312,3.749c3.39,1.11,7.049,2.371,7.049,6.121c0,3.6-2.1,6.209-7.35,6.209c-4.739,0-7.17-3.479-7.261-6.511
		h1.681c0.091,2.281,1.949,4.802,5.58,4.802c4.05,0,5.67-1.892,5.67-4.5c0-2.521-3.029-3.511-5.909-4.439
		c-3.36-1.08-6.48-2.131-6.48-5.431c0-3.659,3.271-5.551,6.99-5.551c3.63,0,6.869,2.04,6.93,6.062H420.61z"/>
	<path fill="#231F20" d="M444.22,108.3c-0.062-2.881-2.461-4.352-5.25-4.352c-2.851,0-5.279,1.32-5.279,3.841
		c0,2.04,2.609,2.88,5.31,3.749c3.391,1.11,7.051,2.371,7.051,6.121c0,3.6-2.101,6.209-7.351,6.209c-4.739,0-7.17-3.479-7.26-6.511
		h1.68c0.091,2.281,1.949,4.802,5.58,4.802c4.05,0,5.67-1.892,5.67-4.5c0-2.521-3.03-3.511-5.909-4.439
		c-3.359-1.08-6.48-2.131-6.48-5.431c0-3.659,3.27-5.551,6.99-5.551c3.629,0,6.869,2.04,6.93,6.062H444.22z"/>
	<path fill="#231F20" d="M455.051,123.539v-20.998h13.049v1.68H456.73v8.01h10.379v1.65H456.73v7.979h11.369v1.681L455.051,123.539
		L455.051,123.539z"/>
	<path fill="#231F20" d="M488.679,123.539l-9.9-17.129v17.129h-1.68v-20.998h1.471l9.898,17.219v-17.219h1.682v20.998H488.679z"/>
	<path fill="#231F20" d="M511.929,108.3c-0.062-2.881-2.461-4.352-5.25-4.352c-2.851,0-5.279,1.32-5.279,3.841
		c0,2.04,2.609,2.88,5.31,3.749c3.391,1.11,7.051,2.371,7.051,6.121c0,3.6-2.101,6.209-7.351,6.209c-4.739,0-7.17-3.479-7.26-6.511
		h1.68c0.091,2.281,1.949,4.802,5.58,4.802c4.05,0,5.67-1.892,5.67-4.5c0-2.521-3.03-3.511-5.909-4.439
		c-3.359-1.08-6.48-2.131-6.48-5.431c0-3.659,3.27-5.551,6.99-5.551c3.629,0,6.869,2.04,6.93,6.062H511.929z"/>
	<path fill="#231F20" d="M524.407,116.789c0,3.631,2.16,5.371,5.461,5.371c2.07,0,3.66-0.9,4.709-2.462l1.441,0.931
		c-1.353,2.041-3.451,3.24-6.15,3.24c-4.291,0-7.108-2.279-7.108-7.08v-7.709c0-4.801,2.817-7.051,7.108-7.051
		c2.67,0,4.771,1.171,6.15,3.21l-1.441,0.961c-1.049-1.53-2.639-2.489-4.709-2.489c-3.301,0-5.461,1.77-5.461,5.369V116.789z"/>
	<path fill="#231F20" d="M557.469,123.539v-9.658h-10.771v9.658h-1.68v-20.998h1.68v9.688h10.771v-9.688h1.649v20.998H557.469z"/>
	<path fill="#231F20" d="M582.276,123.539l-2.818-7.949h-6.87l-2.699,7.949h-1.771l7.351-20.998h1.198l7.382,20.998H582.276z
		 M576.097,105.96l-2.851,7.92h5.642L576.097,105.96z"/>
	<path fill="#231F20" d="M593.049,123.539v-20.998h13.051v1.68h-11.371v8.01h10.381v1.65h-10.381v9.658H593.049z"/>
	<path fill="#231F20" d="M620.677,123.539V104.22h-5.58v-1.68h13.051v1.68h-5.76v19.318L620.677,123.539L620.677,123.539z"/>
	<path fill="#231F20" d="M652.245,123.539v-20.998h1.681v20.998H652.245z"/>
	<path fill="#231F20" d="M674.506,123.539l-9.898-17.129v17.129h-1.68v-20.998h1.469l9.9,17.219v-17.219h1.68v20.998H674.506z"/>
	<path fill="#231F20" d="M712.426,123.539v-9.658h-10.771v9.658h-1.68v-20.998h1.68v9.688h10.771v-9.688h1.649v20.998H712.426z"/>
	<path fill="#231F20" d="M737.233,123.539l-2.818-7.949h-6.87l-2.699,7.949h-1.771l7.351-20.998h1.198l7.382,20.998H737.233z
		 M731.054,105.96l-2.851,7.92h5.642L731.054,105.96z"/>
	<path fill="#231F20" d="M749.685,102.541v19.317h8.938v1.681h-10.618v-20.998H749.685z"/>
	<path fill="#231F20" d="M769.304,102.541v19.317h8.938v1.681h-10.619v-20.998H769.304z"/>
	<path fill="#231F20" d="M787.245,123.539v-20.998h13.05v1.68h-11.369v8.01h10.379v1.65h-10.379v7.979h11.369v1.681L787.245,123.539
		L787.245,123.539z"/>
</g>
<path fill="#5F7E06" d="M139.042,141.537c0-0.314,0.011-0.629,0.021-0.941l-0.001,0.002c15.276-14.881,24.77-35.672,24.77-58.682
	C163.831,36.673,127.156,0,81.916,0S0,36.673,0,81.916s36.675,81.915,81.916,81.915c14.141,0,27.443-3.584,39.051-9.891
	c5.198,7.686,13.995,12.737,23.973,12.737c2.501,0,4.927-0.318,7.241-0.914C144.273,160.604,139.042,151.683,139.042,141.537z"/>
</svg>
