<?xml version="1.0" encoding="utf-8"?>
<!DOCTYPE svg PUBLIC "-//W3C//DTD SVG 1.1//EN" "http://www.w3.org/Graphics/SVG/1.1/DTD/svg11.dtd">
<svg version="1.1" id="Layer_1" xmlns="http://www.w3.org/2000/svg" xmlns:xlink="http://www.w3.org/1999/xlink" x="0px" y="0px"
	 width="1137.666px" height="140.576px" viewBox="0 0 1137.666 140.576" enable-background="new 0 0 1137.666 140.576"
	 xml:space="preserve">
<g transform="matrix(1,0,0,1,0,0)">
	<path vector-effect="none" fill="#6D7FBC" d="M1.498,0.5h99v140h-99V0.5"/>
</g>
<g transform="matrix(1,0,0,1,0,0)">
	<g enable-background="new    ">
		<path fill="#FFFFFF" d="M12.387,46.907c0-1.891,0.36-3.586,1.082-5.086c0.721-1.5,1.527-2.503,2.418-3.008h0.047l0.203,0.57
			c-0.755,0.536-1.414,1.489-1.977,2.859s-0.844,2.917-0.844,4.641v0.156c0,1.724,0.281,3.271,0.844,4.641s1.221,2.333,1.977,2.891
			l-0.203,0.547h-0.047c-0.901-0.521-1.71-1.516-2.426-2.984c-0.716-1.469-1.074-3.172-1.074-5.109V46.907z"/>
		<path fill="#FFFFFF" d="M17.255,51.501v-0.719l3.727-4.227c0.692-0.781,1.181-1.433,1.465-1.953
			c0.284-0.521,0.426-1.021,0.426-1.5c0-0.703-0.201-1.27-0.602-1.699c-0.401-0.43-0.964-0.645-1.688-0.645
			c-0.865,0-1.521,0.239-1.969,0.719c-0.448,0.479-0.672,1.12-0.672,1.922h-0.867l-0.016-0.047c-0.026-0.948,0.28-1.75,0.918-2.406
			c0.638-0.656,1.506-0.984,2.605-0.984c0.979,0,1.762,0.281,2.348,0.844s0.879,1.317,0.879,2.266c0,0.625-0.197,1.259-0.59,1.902
			c-0.394,0.644-0.939,1.36-1.637,2.152l-3.141,3.547l0.016,0.039h4.961l0.078-1.602h0.828v2.391H17.255z"/>
		<path fill="#FFFFFF" d="M35.669,51.501c-0.062-0.286-0.107-0.534-0.133-0.742c-0.026-0.208-0.039-0.419-0.039-0.633
			c-0.312,0.442-0.729,0.81-1.25,1.102c-0.521,0.292-1.107,0.438-1.758,0.438c-0.828,0-1.469-0.214-1.922-0.641
			s-0.68-1.005-0.68-1.734c0-0.781,0.336-1.401,1.008-1.859s1.583-0.688,2.734-0.688h1.867v-1.117c0-0.604-0.194-1.078-0.582-1.422
			c-0.388-0.344-0.931-0.516-1.629-0.516c-0.469,0-0.897,0.063-1.285,0.191c-0.388,0.128-0.712,0.301-0.973,0.52l-0.078,1.133
			h-0.773l0.008-1.625c0.391-0.302,0.858-0.547,1.402-0.734c0.544-0.188,1.124-0.281,1.738-0.281c0.932,0,1.682,0.237,2.25,0.711
			c0.567,0.474,0.852,1.153,0.852,2.039v4.156c0,0.172,0.004,0.337,0.012,0.496s0.024,0.313,0.051,0.465l0.844,0.055v0.688H35.669z
			 M32.591,50.837c0.677,0,1.273-0.156,1.789-0.469s0.888-0.716,1.117-1.211v-1.695h-1.883c-0.849,0-1.527,0.176-2.035,0.527
			s-0.762,0.796-0.762,1.332c0,0.453,0.157,0.819,0.473,1.098C31.605,50.697,32.038,50.837,32.591,50.837z"/>
		<path fill="#FFFFFF" d="M44.872,50.11c-0.266,0.495-0.629,0.878-1.09,1.148s-1.004,0.406-1.629,0.406
			c-0.891,0-1.587-0.302-2.09-0.906c-0.503-0.604-0.754-1.542-0.754-2.812v-4.102l-1.047-0.102v-0.695h1.047h0.93v4.914
			c0,1.031,0.176,1.771,0.527,2.219s0.85,0.672,1.496,0.672c0.708,0,1.272-0.156,1.691-0.469c0.419-0.312,0.715-0.745,0.887-1.297
			v-5.242l-1.203-0.102v-0.695h1.203h0.938v7.664l1.133,0.102v0.688h-1.953L44.872,50.11z"/>
		<path fill="#FFFFFF" d="M54.419,45.657h-0.766l-0.109-1.195c-0.234-0.245-0.53-0.435-0.887-0.57
			c-0.357-0.136-0.767-0.203-1.23-0.203c-0.683,0-1.194,0.147-1.535,0.441c-0.341,0.294-0.512,0.64-0.512,1.035
			c0,0.391,0.147,0.714,0.441,0.969c0.294,0.255,0.881,0.479,1.762,0.672c1.005,0.224,1.758,0.53,2.258,0.918s0.75,0.915,0.75,1.582
			c0,0.703-0.285,1.272-0.855,1.707s-1.324,0.652-2.262,0.652c-0.625,0-1.194-0.087-1.707-0.262
			c-0.513-0.175-0.957-0.421-1.332-0.738v-1.703h0.758l0.133,1.203c0.25,0.25,0.566,0.431,0.949,0.543s0.782,0.168,1.199,0.168
			c0.677,0,1.211-0.148,1.602-0.445s0.586-0.656,0.586-1.078c0-0.396-0.163-0.742-0.488-1.039c-0.326-0.297-0.913-0.539-1.762-0.727
			c-1.005-0.219-1.751-0.509-2.238-0.871c-0.487-0.362-0.73-0.868-0.73-1.52c0-0.646,0.273-1.191,0.82-1.637
			s1.268-0.668,2.164-0.668c0.62,0,1.186,0.095,1.699,0.285c0.513,0.19,0.931,0.446,1.254,0.77L54.419,45.657z"/>
		<path fill="#FFFFFF" d="M66.177,47.837h1.781v0.789h-1.781v2.086l1.273,0.102v0.688h-3.477v-0.688l1.273-0.102v-2.086h-5.328
			v-0.531l5.234-7.969h1.023V47.837z M61.028,47.837h4.219v-6.484L65.2,41.337l-0.398,0.852L61.028,47.837z"/>
		<path fill="#FFFFFF" d="M72.466,47.024c0,1.938-0.361,3.641-1.082,5.109c-0.722,1.469-1.53,2.464-2.426,2.984l-0.047-0.008
			l-0.195-0.539c0.75-0.531,1.407-1.487,1.973-2.867c0.565-1.38,0.848-2.935,0.848-4.664v-0.156c0-1.714-0.288-3.265-0.863-4.652
			c-0.576-1.388-1.228-2.348-1.957-2.879l0.195-0.539l0.047-0.008c0.885,0.511,1.691,1.516,2.418,3.016s1.09,3.195,1.09,5.086
			V47.024z"/>
	</g>
</g>
<g transform="matrix(1,0,0,1,249,1706)">
	<path vector-effect="none" fill="#FFFFFF" d="M-148.502-1705.5H24.497v140h-172.999V-1705.5"/>
</g>
<g transform="matrix(1,0,0,1,249,1706)">
	<path vector-effect="none" fill="#2980B9" d="M-148.502-1705.5H24.497v6h-172.999V-1705.5"/>
</g>
<g transform="matrix(1,0,0,1,249,1706)">
	<g enable-background="new    ">
		<path d="M-139.99-1687.031c0.895,0,1.587,0.228,2.077,0.683s0.735,1.058,0.735,1.808c0,0.758-0.245,1.363-0.735,1.816
			s-1.183,0.68-2.077,0.68h-1.945v2.953l0.955,0.076v0.516h-2.607v-0.516l0.955-0.076v-7.342l-0.955-0.076v-0.521h0.955H-139.99z
			 M-141.935-1682.643h1.945c0.703,0,1.231-0.179,1.585-0.536s0.53-0.808,0.53-1.351c0-0.547-0.176-1.001-0.527-1.362
			s-0.881-0.542-1.588-0.542h-1.945V-1682.643z"/>
		<path d="M-131.646-1678.5c-0.047-0.215-0.08-0.4-0.1-0.557s-0.029-0.314-0.029-0.475c-0.234,0.332-0.547,0.607-0.938,0.826
			s-0.83,0.328-1.318,0.328c-0.621,0-1.102-0.16-1.441-0.48s-0.51-0.754-0.51-1.301c0-0.586,0.252-1.051,0.756-1.395
			s1.188-0.516,2.051-0.516h1.4v-0.838c0-0.453-0.146-0.809-0.437-1.066s-0.698-0.387-1.222-0.387c-0.352,0-0.673,0.048-0.964,0.144
			s-0.534,0.226-0.729,0.39l-0.059,0.85h-0.58l0.006-1.219c0.293-0.227,0.644-0.41,1.052-0.551s0.843-0.211,1.304-0.211
			c0.699,0,1.262,0.178,1.688,0.533s0.639,0.865,0.639,1.529v3.117c0,0.129,0.003,0.253,0.009,0.372s0.019,0.235,0.038,0.349
			l0.633,0.041v0.516H-131.646z M-133.954-1678.998c0.508,0,0.955-0.117,1.342-0.352s0.666-0.537,0.838-0.908v-1.271h-1.412
			c-0.637,0-1.146,0.132-1.526,0.396s-0.571,0.597-0.571,0.999c0,0.34,0.118,0.614,0.354,0.823S-134.368-1678.998-133.954-1678.998z
			"/>
		<path d="M-127.884-1684.84l0.088,1.055v0.076c0.18-0.391,0.425-0.696,0.735-0.917s0.679-0.331,1.104-0.331
			c0.09,0,0.177,0.007,0.261,0.021s0.153,0.028,0.208,0.044l-0.094,0.656l-0.521-0.035c-0.441,0-0.804,0.124-1.087,0.372
			s-0.485,0.589-0.606,1.022v3.785l0.955,0.076v0.516h-2.607v-0.516l0.955-0.076v-5.15l-0.955-0.076v-0.521h0.955H-127.884z"/>
		<path d="M-124.837-1687.119v-0.521h1.652v8.549l0.955,0.076v0.516h-2.607v-0.516l0.955-0.076v-7.951L-124.837-1687.119z"/>
		<path d="M-116.745-1678.5c-0.047-0.215-0.08-0.4-0.1-0.557s-0.029-0.314-0.029-0.475c-0.234,0.332-0.547,0.607-0.938,0.826
			s-0.83,0.328-1.318,0.328c-0.621,0-1.102-0.16-1.441-0.48s-0.51-0.754-0.51-1.301c0-0.586,0.252-1.051,0.756-1.395
			s1.188-0.516,2.051-0.516h1.4v-0.838c0-0.453-0.146-0.809-0.437-1.066s-0.698-0.387-1.222-0.387c-0.352,0-0.673,0.048-0.964,0.144
			s-0.534,0.226-0.729,0.39l-0.059,0.85h-0.58l0.006-1.219c0.293-0.227,0.644-0.41,1.052-0.551s0.843-0.211,1.304-0.211
			c0.699,0,1.262,0.178,1.688,0.533s0.639,0.865,0.639,1.529v3.117c0,0.129,0.003,0.253,0.009,0.372s0.019,0.235,0.038,0.349
			l0.633,0.041v0.516H-116.745z M-119.054-1678.998c0.508,0,0.955-0.117,1.342-0.352s0.666-0.537,0.838-0.908v-1.271h-1.412
			c-0.637,0-1.146,0.132-1.526,0.396s-0.571,0.597-0.571,0.999c0,0.34,0.118,0.614,0.354,0.823S-119.468-1678.998-119.054-1678.998z
			"/>
		<path d="M-114.654-1684.318v-0.521h1.576l0.064,1.049c0.203-0.371,0.475-0.658,0.814-0.861s0.744-0.305,1.213-0.305
			c0.484,0,0.889,0.118,1.213,0.354s0.557,0.597,0.697,1.081c0.191-0.445,0.464-0.796,0.817-1.052s0.784-0.384,1.292-0.384
			c0.676,0,1.198,0.225,1.567,0.674s0.554,1.145,0.554,2.086v3.1l0.955,0.082v0.516h-2.619v-0.516l0.955-0.082v-3.111
			c0-0.781-0.138-1.333-0.413-1.655s-0.659-0.483-1.151-0.483c-0.547,0-0.968,0.174-1.263,0.521s-0.478,0.791-0.548,1.33
			c0,0.031,0.001,0.061,0.003,0.088s0.003,0.062,0.003,0.105v3.211l0.955,0.076v0.516h-2.613v-0.516l0.955-0.076v-3.117
			c0-0.766-0.14-1.313-0.419-1.644s-0.663-0.495-1.151-0.495c-0.5,0-0.896,0.126-1.187,0.378s-0.495,0.591-0.612,1.017v3.861
			l0.955,0.076v0.516h-2.613v-0.516l0.955-0.076v-5.15L-114.654-1684.318z"/>
		<path d="M-100.286-1678.377c-0.797,0-1.457-0.292-1.98-0.876s-0.785-1.327-0.785-2.229v-0.322c0-0.906,0.261-1.658,0.782-2.256
			s1.151-0.896,1.89-0.896c0.777,0,1.389,0.246,1.834,0.738s0.668,1.148,0.668,1.969v0.598h-4.477v0.17
			c0,0.711,0.19,1.308,0.571,1.79s0.88,0.724,1.497,0.724c0.434,0,0.805-0.061,1.113-0.182s0.572-0.295,0.791-0.521l0.299,0.48
			c-0.238,0.25-0.539,0.448-0.902,0.595S-99.782-1678.377-100.286-1678.377z M-100.38-1684.359c-0.516,0-0.95,0.198-1.304,0.595
			s-0.56,0.894-0.618,1.491l0.012,0.029h3.715v-0.176c0-0.551-0.162-1.012-0.486-1.383S-99.825-1684.359-100.38-1684.359z"/>
		<path d="M-96.753-1679.016l0.955-0.076v-5.15l-0.955-0.076v-0.521h1.576l0.064,1.107c0.203-0.391,0.478-0.692,0.823-0.905
			s0.755-0.319,1.228-0.319c0.688,0,1.211,0.21,1.57,0.63s0.539,1.075,0.539,1.966v3.27l0.955,0.076v0.516h-2.613v-0.516
			l0.955-0.076v-3.264c0-0.727-0.136-1.24-0.407-1.541s-0.657-0.451-1.157-0.451c-0.492,0-0.894,0.13-1.204,0.39
			s-0.534,0.604-0.671,1.034v3.832l0.955,0.076v0.516h-2.613V-1679.016z"/>
		<path d="M-87.284-1686.463v1.623h1.395v0.574h-1.395v4.131c0,0.414,0.075,0.708,0.226,0.882s0.351,0.261,0.601,0.261
			c0.113,0,0.224-0.005,0.331-0.015s0.231-0.026,0.372-0.05l0.105,0.521c-0.117,0.051-0.26,0.09-0.428,0.117
			s-0.336,0.041-0.504,0.041c-0.445,0-0.792-0.141-1.04-0.422s-0.372-0.727-0.372-1.336v-4.131h-1.09v-0.574h1.09v-1.623H-87.284z"
			/>
		<path d="M-80.224-1678.5c-0.047-0.215-0.08-0.4-0.1-0.557s-0.029-0.314-0.029-0.475c-0.234,0.332-0.547,0.607-0.938,0.826
			s-0.83,0.328-1.318,0.328c-0.621,0-1.102-0.16-1.441-0.48s-0.51-0.754-0.51-1.301c0-0.586,0.252-1.051,0.756-1.395
			s1.188-0.516,2.051-0.516h1.4v-0.838c0-0.453-0.146-0.809-0.437-1.066s-0.698-0.387-1.222-0.387c-0.352,0-0.673,0.048-0.964,0.144
			s-0.534,0.226-0.729,0.39l-0.059,0.85h-0.58l0.006-1.219c0.293-0.227,0.644-0.41,1.052-0.551s0.843-0.211,1.304-0.211
			c0.699,0,1.262,0.178,1.688,0.533s0.639,0.865,0.639,1.529v3.117c0,0.129,0.003,0.253,0.009,0.372s0.019,0.235,0.038,0.349
			l0.633,0.041v0.516H-80.224z M-82.532-1678.998c0.508,0,0.955-0.117,1.342-0.352s0.666-0.537,0.838-0.908v-1.271h-1.412
			c-0.637,0-1.146,0.132-1.526,0.396s-0.571,0.597-0.571,0.999c0,0.34,0.118,0.614,0.354,0.823S-82.947-1678.998-82.532-1678.998z"
			/>
		<path d="M-76.462-1684.84l0.088,1.055v0.076c0.18-0.391,0.425-0.696,0.735-0.917s0.679-0.331,1.104-0.331
			c0.09,0,0.177,0.007,0.261,0.021s0.153,0.028,0.208,0.044l-0.094,0.656l-0.521-0.035c-0.441,0-0.804,0.124-1.087,0.372
			s-0.485,0.589-0.606,1.022v3.785l0.955,0.076v0.516h-2.607v-0.516l0.955-0.076v-5.15l-0.955-0.076v-0.521h0.955H-76.462z"/>
		<path d="M-73.204-1679.016l0.955-0.076v-5.15l-0.955-0.076v-0.521h1.652v5.748l0.955,0.076v0.516h-2.607V-1679.016z
			 M-71.552-1686.656h-0.697v-0.984h0.697V-1686.656z"/>
		<path d="M-64.82-1682.883h-0.574l-0.082-0.896c-0.176-0.184-0.397-0.326-0.665-0.428s-0.575-0.152-0.923-0.152
			c-0.512,0-0.896,0.11-1.151,0.331s-0.384,0.479-0.384,0.776c0,0.293,0.11,0.535,0.331,0.727s0.661,0.359,1.321,0.504
			c0.754,0.168,1.318,0.397,1.693,0.688s0.562,0.687,0.562,1.187c0,0.527-0.214,0.954-0.642,1.28s-0.993,0.489-1.696,0.489
			c-0.469,0-0.896-0.065-1.28-0.196s-0.718-0.315-0.999-0.554v-1.277h0.568l0.1,0.902c0.188,0.188,0.425,0.323,0.712,0.407
			s0.587,0.126,0.899,0.126c0.508,0,0.908-0.111,1.201-0.334s0.439-0.492,0.439-0.809c0-0.297-0.122-0.557-0.366-0.779
			s-0.685-0.404-1.321-0.545c-0.754-0.164-1.313-0.382-1.679-0.653s-0.548-0.651-0.548-1.14c0-0.484,0.205-0.894,0.615-1.228
			s0.951-0.501,1.623-0.501c0.465,0,0.89,0.071,1.274,0.214s0.698,0.335,0.94,0.577L-64.82-1682.883z"/>
		<path d="M-63.566-1684.318v-0.521h1.576l0.064,1.049c0.203-0.371,0.475-0.658,0.814-0.861s0.744-0.305,1.213-0.305
			c0.484,0,0.889,0.118,1.213,0.354s0.557,0.597,0.697,1.081c0.191-0.445,0.464-0.796,0.817-1.052s0.784-0.384,1.292-0.384
			c0.676,0,1.198,0.225,1.567,0.674s0.554,1.145,0.554,2.086v3.1l0.955,0.082v0.516h-2.619v-0.516l0.955-0.082v-3.111
			c0-0.781-0.138-1.333-0.413-1.655s-0.659-0.483-1.151-0.483c-0.547,0-0.968,0.174-1.263,0.521s-0.478,0.791-0.548,1.33
			c0,0.031,0.001,0.061,0.003,0.088s0.003,0.062,0.003,0.105v3.211l0.955,0.076v0.516h-2.613v-0.516l0.955-0.076v-3.117
			c0-0.766-0.14-1.313-0.419-1.644s-0.663-0.495-1.151-0.495c-0.5,0-0.896,0.126-1.187,0.378s-0.495,0.591-0.612,1.017v3.861
			l0.955,0.076v0.516h-2.613v-0.516l0.955-0.076v-5.15L-63.566-1684.318z"/>
		<path d="M-47.277-1679.543c-0.199,0.371-0.472,0.658-0.817,0.861s-0.753,0.305-1.222,0.305c-0.668,0-1.19-0.227-1.567-0.68
			s-0.565-1.156-0.565-2.109v-3.076l-0.785-0.076v-0.521h0.785h0.697v3.686c0,0.773,0.132,1.328,0.396,1.664
			s0.638,0.504,1.122,0.504c0.531,0,0.954-0.117,1.269-0.352s0.536-0.559,0.665-0.973v-3.932l-0.902-0.076v-0.521h0.902h0.703v5.748
			l0.85,0.076v0.516h-1.465L-47.277-1679.543z"/>
		<path d="M-40.116-1682.883h-0.574l-0.082-0.896c-0.176-0.184-0.397-0.326-0.665-0.428s-0.575-0.152-0.923-0.152
			c-0.512,0-0.896,0.11-1.151,0.331s-0.384,0.479-0.384,0.776c0,0.293,0.11,0.535,0.331,0.727s0.661,0.359,1.321,0.504
			c0.754,0.168,1.318,0.397,1.693,0.688s0.562,0.687,0.562,1.187c0,0.527-0.214,0.954-0.642,1.28s-0.993,0.489-1.696,0.489
			c-0.469,0-0.896-0.065-1.28-0.196s-0.718-0.315-0.999-0.554v-1.277h0.568l0.1,0.902c0.188,0.188,0.425,0.323,0.712,0.407
			s0.587,0.126,0.899,0.126c0.508,0,0.908-0.111,1.201-0.334s0.439-0.492,0.439-0.809c0-0.297-0.122-0.557-0.366-0.779
			s-0.685-0.404-1.321-0.545c-0.754-0.164-1.313-0.382-1.679-0.653s-0.548-0.651-0.548-1.14c0-0.484,0.205-0.894,0.615-1.228
			s0.951-0.501,1.623-0.501c0.465,0,0.89,0.071,1.274,0.214s0.698,0.335,0.94,0.577L-40.116-1682.883z"/>
		<path d="M-35.839-1679.016l0.955-0.076v-5.15l-0.955-0.076v-0.521h1.652v5.748l0.955,0.076v0.516h-2.607V-1679.016z
			 M-34.187-1686.656h-0.697v-0.984h0.697V-1686.656z"/>
		<path d="M-32.183-1679.016l0.955-0.076v-5.15l-0.955-0.076v-0.521h1.576l0.064,1.107c0.203-0.391,0.478-0.692,0.823-0.905
			s0.755-0.319,1.228-0.319c0.688,0,1.211,0.21,1.57,0.63s0.539,1.075,0.539,1.966v3.27l0.955,0.076v0.516h-2.613v-0.516
			l0.955-0.076v-3.264c0-0.727-0.136-1.24-0.407-1.541s-0.657-0.451-1.157-0.451c-0.492,0-0.894,0.13-1.204,0.39
			s-0.534,0.604-0.671,1.034v3.832l0.955,0.076v0.516h-2.613V-1679.016z"/>
		<path d="M-14.839-1687.031v1.799h-0.621l-0.053-1.201h-2.367v7.342l0.955,0.076v0.516h-2.613v-0.516l0.955-0.076v-7.342h-2.367
			l-0.047,1.201h-0.627v-1.799H-14.839z"/>
		<path d="M-14.113-1687.119v-0.521h1.652v3.885c0.211-0.379,0.492-0.674,0.844-0.885s0.762-0.316,1.23-0.316
			c0.668,0,1.181,0.207,1.538,0.621s0.536,1.057,0.536,1.928v3.316l0.955,0.076v0.516H-9.97v-0.516l0.955-0.076v-3.328
			c0-0.688-0.136-1.181-0.407-1.479s-0.646-0.448-1.122-0.448c-0.48,0-0.882,0.126-1.204,0.378s-0.56,0.587-0.712,1.005v3.873
			l0.955,0.076v0.516h-2.607v-0.516l0.955-0.076v-7.951L-14.113-1687.119z"/>
		<path d="M-3.566-1678.377c-0.797,0-1.457-0.292-1.98-0.876s-0.785-1.327-0.785-2.229v-0.322c0-0.906,0.261-1.658,0.782-2.256
			s1.151-0.896,1.89-0.896c0.777,0,1.389,0.246,1.834,0.738s0.668,1.148,0.668,1.969v0.598h-4.477v0.17
			c0,0.711,0.19,1.308,0.571,1.79s0.88,0.724,1.497,0.724c0.434,0,0.805-0.061,1.113-0.182s0.572-0.295,0.791-0.521l0.299,0.48
			c-0.238,0.25-0.539,0.448-0.902,0.595S-3.062-1678.377-3.566-1678.377z M-3.659-1684.359c-0.516,0-0.95,0.198-1.304,0.595
			s-0.56,0.894-0.618,1.491l0.012,0.029h3.715v-0.176c0-0.551-0.162-1.012-0.486-1.383S-3.105-1684.359-3.659-1684.359z"/>
		<path d="M0.096-1681.764c0-0.934,0.256-1.699,0.768-2.297s1.189-0.896,2.033-0.896c0.848,0,1.527,0.299,2.039,0.896
			s0.768,1.363,0.768,2.297v0.193c0,0.938-0.255,1.704-0.765,2.3s-1.187,0.894-2.03,0.894c-0.852,0-1.533-0.298-2.045-0.894
			s-0.768-1.362-0.768-2.3V-1681.764z M0.8-1681.57c0,0.734,0.186,1.352,0.557,1.852s0.889,0.75,1.553,0.75
			c0.652,0,1.164-0.25,1.535-0.75s0.557-1.117,0.557-1.852v-0.193c0-0.723-0.187-1.336-0.56-1.84s-0.888-0.756-1.544-0.756
			s-1.17,0.252-1.541,0.756s-0.557,1.117-0.557,1.84V-1681.57z"/>
		<path d="M8.364-1684.84l0.088,1.055v0.076c0.18-0.391,0.425-0.696,0.735-0.917s0.679-0.331,1.104-0.331
			c0.09,0,0.177,0.007,0.261,0.021s0.153,0.028,0.208,0.044l-0.094,0.656l-0.521-0.035c-0.441,0-0.804,0.124-1.087,0.372
			s-0.485,0.589-0.606,1.022v3.785l0.955,0.076v0.516H6.8v-0.516l0.955-0.076v-5.15l-0.955-0.076v-0.521h0.955H8.364z"/>
		<path d="M11.622-1679.016l0.955-0.076v-5.15l-0.955-0.076v-0.521h1.652v5.748l0.955,0.076v0.516h-2.607V-1679.016z
			 M13.274-1686.656h-0.697v-0.984h0.697V-1686.656z"/>
		<path d="M18.202-1678.377c-0.797,0-1.457-0.292-1.98-0.876s-0.785-1.327-0.785-2.229v-0.322c0-0.906,0.261-1.658,0.782-2.256
			s1.151-0.896,1.89-0.896c0.777,0,1.389,0.246,1.834,0.738s0.668,1.148,0.668,1.969v0.598h-4.477v0.17
			c0,0.711,0.19,1.308,0.571,1.79s0.88,0.724,1.497,0.724c0.434,0,0.805-0.061,1.113-0.182s0.572-0.295,0.791-0.521l0.299,0.48
			c-0.238,0.25-0.539,0.448-0.902,0.595S18.706-1678.377,18.202-1678.377z M18.108-1684.359c-0.516,0-0.95,0.198-1.304,0.595
			s-0.56,0.894-0.618,1.491l0.012,0.029h3.715v-0.176c0-0.551-0.162-1.012-0.486-1.383S18.663-1684.359,18.108-1684.359z"/>
	</g>
</g>
<g transform="matrix(1,0,0,1,249,1706)">
	<g enable-background="new    ">
		<path d="M-82.277-1665.543c-0.199,0.371-0.472,0.658-0.817,0.861s-0.753,0.305-1.222,0.305c-0.668,0-1.19-0.227-1.567-0.68
			s-0.565-1.156-0.565-2.109v-3.076l-0.785-0.076v-0.521h0.785h0.697v3.686c0,0.773,0.132,1.328,0.396,1.664
			s0.638,0.504,1.122,0.504c0.531,0,0.954-0.117,1.269-0.352s0.536-0.559,0.665-0.973v-3.932l-0.902-0.076v-0.521h0.902h0.703v5.748
			l0.85,0.076v0.516h-1.465L-82.277-1665.543z"/>
		<path d="M-79.845-1665.016l0.955-0.076v-5.15l-0.955-0.076v-0.521h1.576l0.064,1.107c0.203-0.391,0.478-0.692,0.823-0.905
			s0.755-0.319,1.228-0.319c0.688,0,1.211,0.21,1.57,0.63s0.539,1.075,0.539,1.966v3.27l0.955,0.076v0.516h-2.613v-0.516
			l0.955-0.076v-3.264c0-0.727-0.136-1.24-0.407-1.541s-0.657-0.451-1.157-0.451c-0.492,0-0.894,0.13-1.204,0.39
			s-0.534,0.604-0.671,1.034v3.832l0.955,0.076v0.516h-2.613V-1665.016z"/>
		<path d="M-67.64-1665.414c-0.211,0.332-0.482,0.588-0.814,0.768s-0.723,0.27-1.172,0.27c-0.758,0-1.351-0.283-1.778-0.85
			s-0.642-1.322-0.642-2.268v-0.123c0-1.012,0.214-1.821,0.642-2.429s1.024-0.911,1.79-0.911c0.441,0,0.824,0.093,1.148,0.278
			s0.594,0.45,0.809,0.794v-3.158l-0.955-0.076v-0.521h0.955h0.703v8.549l0.955,0.076v0.516h-1.582L-67.64-1665.414z
			 M-71.337-1667.494c0,0.766,0.153,1.375,0.46,1.828s0.769,0.68,1.386,0.68c0.449,0,0.825-0.102,1.128-0.305
			s0.538-0.482,0.706-0.838v-3c-0.156-0.359-0.382-0.652-0.677-0.879s-0.677-0.34-1.146-0.34c-0.617,0-1.081,0.253-1.392,0.759
			s-0.466,1.163-0.466,1.972V-1667.494z"/>
		<path d="M-58.558-1673.031c0.895,0,1.587,0.228,2.077,0.683s0.735,1.058,0.735,1.808c0,0.758-0.245,1.363-0.735,1.816
			s-1.183,0.68-2.077,0.68h-1.945v2.953l0.955,0.076v0.516h-2.607v-0.516l0.955-0.076v-7.342l-0.955-0.076v-0.521h0.955H-58.558z
			 M-60.503-1668.643h1.945c0.703,0,1.231-0.179,1.585-0.536s0.53-0.808,0.53-1.351c0-0.547-0.176-1.001-0.527-1.362
			s-0.881-0.542-1.588-0.542h-1.945V-1668.643z"/>
		<path d="M-53.009-1670.84l0.088,1.055v0.076c0.18-0.391,0.425-0.696,0.735-0.917s0.679-0.331,1.104-0.331
			c0.09,0,0.177,0.007,0.261,0.021s0.153,0.028,0.208,0.044l-0.094,0.656l-0.521-0.035c-0.441,0-0.804,0.124-1.087,0.372
			s-0.485,0.589-0.606,1.022v3.785l0.955,0.076v0.516h-2.607v-0.516l0.955-0.076v-5.15l-0.955-0.076v-0.521h0.955H-53.009z"/>
		<path d="M-45.327-1664.5c-0.047-0.215-0.08-0.4-0.1-0.557s-0.029-0.314-0.029-0.475c-0.234,0.332-0.547,0.607-0.938,0.826
			s-0.83,0.328-1.318,0.328c-0.621,0-1.102-0.16-1.441-0.48s-0.51-0.754-0.51-1.301c0-0.586,0.252-1.051,0.756-1.395
			s1.188-0.516,2.051-0.516h1.4v-0.838c0-0.453-0.146-0.809-0.437-1.066s-0.698-0.387-1.222-0.387c-0.352,0-0.673,0.048-0.964,0.144
			s-0.534,0.226-0.729,0.39l-0.059,0.85h-0.58l0.006-1.219c0.293-0.227,0.644-0.41,1.052-0.551s0.843-0.211,1.304-0.211
			c0.699,0,1.262,0.178,1.688,0.533s0.639,0.865,0.639,1.529v3.117c0,0.129,0.003,0.253,0.009,0.372s0.019,0.235,0.038,0.349
			l0.633,0.041v0.516H-45.327z M-47.636-1664.998c0.508,0,0.955-0.117,1.342-0.352s0.666-0.537,0.838-0.908v-1.271h-1.412
			c-0.637,0-1.146,0.132-1.526,0.396s-0.571,0.597-0.571,0.999c0,0.34,0.118,0.614,0.354,0.823S-48.05-1664.998-47.636-1664.998z"/>
		<path d="M-43.224-1665.016l0.709-0.064l2.004-2.648l-1.91-2.525l-0.715-0.064v-0.521h2.15v0.521l-0.656,0.035l1.512,2.033
			l1.518-2.039l-0.65-0.029v-0.521h2.15v0.521l-0.709,0.064l-1.91,2.525l1.998,2.648l0.715,0.064v0.516h-2.145v-0.516l0.65-0.029
			l-1.611-2.156l-1.605,2.156l0.65,0.029v0.516h-2.145V-1665.016z"/>
		<path d="M-36.146-1665.016l0.955-0.076v-5.15l-0.955-0.076v-0.521h1.652v5.748l0.955,0.076v0.516h-2.607V-1665.016z
			 M-34.493-1672.656h-0.697v-0.984h0.697V-1672.656z"/>
		<path d="M-27.761-1668.883h-0.574l-0.082-0.896c-0.176-0.184-0.397-0.326-0.665-0.428s-0.575-0.152-0.923-0.152
			c-0.512,0-0.896,0.11-1.151,0.331s-0.384,0.479-0.384,0.776c0,0.293,0.11,0.535,0.331,0.727s0.661,0.359,1.321,0.504
			c0.754,0.168,1.318,0.397,1.693,0.688s0.562,0.687,0.562,1.187c0,0.527-0.214,0.954-0.642,1.28s-0.993,0.489-1.696,0.489
			c-0.469,0-0.896-0.065-1.28-0.196s-0.718-0.315-0.999-0.554v-1.277h0.568l0.1,0.902c0.188,0.188,0.425,0.323,0.712,0.407
			s0.587,0.126,0.899,0.126c0.508,0,0.908-0.111,1.201-0.334s0.439-0.492,0.439-0.809c0-0.297-0.122-0.557-0.366-0.779
			s-0.685-0.404-1.321-0.545c-0.754-0.164-1.313-0.382-1.679-0.653s-0.548-0.651-0.548-1.14c0-0.484,0.205-0.894,0.615-1.228
			s0.951-0.501,1.623-0.501c0.465,0,0.89,0.071,1.274,0.214s0.698,0.335,0.94,0.577L-27.761-1668.883z"/>
	</g>
</g>
<g transform="matrix(1,0,0,1,249,1706)">
	<g enable-background="new    ">
		<path fill="#6D7FBC" d="M-68.042-1604.022l-0.094-0.984h-4.062l-0.422,4.055c0.286-0.261,0.602-0.461,0.945-0.602
			s0.81-0.219,1.398-0.234c0.969-0.016,1.75,0.31,2.344,0.977s0.891,1.562,0.891,2.688c0,1.151-0.289,2.07-0.867,2.758
			s-1.445,1.031-2.602,1.031c-0.938,0-1.718-0.262-2.34-0.785c-0.623-0.523-0.921-1.298-0.895-2.324l0.016-0.047h0.836
			c0,0.766,0.216,1.352,0.648,1.758c0.432,0.406,1.01,0.609,1.734,0.609c0.849,0,1.483-0.255,1.902-0.766
			c0.419-0.511,0.629-1.25,0.629-2.219c0-0.849-0.21-1.53-0.629-2.043c-0.419-0.513-1.007-0.77-1.762-0.77
			c-0.729,0-1.285,0.116-1.668,0.348s-0.66,0.582-0.832,1.051l-0.758-0.125l0.625-6.227h5.719v1.852H-68.042z"/>
		<path fill="#6D7FBC" d="M-61.698-1594.499v-0.688l1.273-0.102v-9.789l-1.273-0.102v-0.695h1.273h0.938h1.273v0.695l-1.273,0.102
			v9.789h4.727l0.07-1.602h0.828v2.391H-61.698z"/>
		<path fill="#6D7FBC" d="M-47.698-1605.874c1.192,0,2.116,0.304,2.77,0.91c0.653,0.606,0.98,1.41,0.98,2.41
			c0,1.011-0.327,1.817-0.98,2.422c-0.654,0.604-1.577,0.906-2.77,0.906h-2.594v3.938l1.273,0.102v0.688h-3.477v-0.688l1.273-0.102
			v-9.789l-1.273-0.102v-0.695h1.273H-47.698z M-50.292-1600.022h2.594c0.938,0,1.642-0.238,2.113-0.715
			c0.471-0.477,0.707-1.077,0.707-1.801c0-0.729-0.234-1.335-0.703-1.816s-1.175-0.723-2.117-0.723h-2.594V-1600.022z"/>
	</g>
</g>
<g transform="matrix(1,0,0,1,249,1706)">
	<g enable-background="new    ">
		<path fill="#6D7FBC" d="M-78.613-1580.093c0-1.891,0.36-3.586,1.082-5.086c0.721-1.5,1.527-2.503,2.418-3.008h0.047l0.203,0.57
			c-0.755,0.536-1.414,1.489-1.977,2.859s-0.844,2.917-0.844,4.641v0.156c0,1.724,0.281,3.271,0.844,4.641s1.221,2.333,1.977,2.891
			l-0.203,0.547h-0.047c-0.901-0.521-1.71-1.516-2.426-2.984c-0.716-1.469-1.074-3.172-1.074-5.109V-1580.093z"/>
		<path fill="#6D7FBC" d="M-71.089-1586.179l-1.156,0.086l1.797,7.375l0.344,1.734h0.047l0.422-1.734l2.5-8.156h0.883l2.492,8.156
			l0.414,1.758l0.047-0.008l0.367-1.75l1.773-7.375l-1.156-0.086v-0.695h2.969v0.695l-0.852,0.062l-2.648,10.617h-0.883
			l-2.648-8.727l-0.297-1.195h-0.047l-0.281,1.195l-2.672,8.727h-0.883l-2.648-10.617l-0.852-0.062v-0.695h2.969V-1586.179z"/>
		<path fill="#6D7FBC" d="M-58.566-1576.187l1.273-0.102v-6.867l-1.273-0.102v-0.695h2.203v7.664l1.273,0.102v0.688h-3.477
			V-1576.187z M-56.363-1586.374h-0.93v-1.312h0.93V-1586.374z"/>
		<path fill="#6D7FBC" d="M-45.691-1583.499h-0.766l-0.133-1.609c-0.281-0.354-0.664-0.632-1.148-0.832s-1.052-0.301-1.703-0.301
			c-0.938,0-1.668,0.203-2.191,0.609s-0.785,0.911-0.785,1.516c0,0.573,0.235,1.051,0.707,1.434c0.471,0.383,1.288,0.72,2.449,1.012
			c1.224,0.312,2.155,0.734,2.793,1.266c0.638,0.531,0.957,1.231,0.957,2.102c0,0.906-0.37,1.628-1.109,2.164
			c-0.74,0.536-1.685,0.805-2.836,0.805c-0.812,0-1.566-0.144-2.262-0.43s-1.265-0.695-1.707-1.227v-1.992h0.766l0.133,1.664
			c0.344,0.391,0.784,0.688,1.32,0.891c0.536,0.203,1.12,0.305,1.75,0.305c0.896,0,1.621-0.198,2.176-0.594s0.832-0.919,0.832-1.57
			c0-0.62-0.232-1.126-0.695-1.52c-0.464-0.394-1.271-0.741-2.422-1.043c-1.245-0.312-2.188-0.719-2.828-1.219
			s-0.961-1.175-0.961-2.023c0-0.87,0.364-1.578,1.094-2.125c0.729-0.547,1.669-0.82,2.82-0.82c0.828,0,1.566,0.144,2.215,0.43
			s1.16,0.675,1.535,1.164V-1583.499z"/>
		<path fill="#6D7FBC" d="M-40.261-1575.335c-1.062,0-1.943-0.39-2.641-1.168c-0.698-0.778-1.047-1.77-1.047-2.973v-0.43
			c0-1.208,0.348-2.211,1.043-3.008s1.535-1.195,2.52-1.195c1.036,0,1.852,0.328,2.445,0.984s0.891,1.531,0.891,2.625v0.797h-5.969
			v0.227c0,0.948,0.254,1.743,0.762,2.387s1.173,0.965,1.996,0.965c0.578,0,1.073-0.081,1.484-0.242
			c0.411-0.161,0.763-0.394,1.055-0.695l0.398,0.641c-0.318,0.333-0.719,0.598-1.203,0.793S-39.589-1575.335-40.261-1575.335z
			 M-40.386-1583.312c-0.688,0-1.267,0.265-1.738,0.793c-0.472,0.528-0.746,1.191-0.824,1.988l0.016,0.039h4.953v-0.234
			c0-0.734-0.216-1.349-0.648-1.844C-39.061-1583.064-39.647-1583.312-40.386-1583.312z"/>
		<path fill="#6D7FBC" d="M-32.3-1579.976c0,1.938-0.361,3.641-1.082,5.109c-0.722,1.469-1.53,2.464-2.426,2.984l-0.047-0.008
			l-0.195-0.539c0.75-0.531,1.407-1.487,1.973-2.867c0.565-1.38,0.848-2.935,0.848-4.664v-0.156c0-1.714-0.288-3.265-0.863-4.652
			c-0.576-1.388-1.228-2.348-1.957-2.879l0.195-0.539l0.047-0.008c0.885,0.511,1.691,1.516,2.418,3.016s1.09,3.195,1.09,5.086
			V-1579.976z"/>
	</g>
</g>
<g transform="matrix(1,0,0,1,423,1706)">
	<path vector-effect="none" fill="#FFFFFF" d="M-148.503-1705.5h172v140h-172V-1705.5"/>
</g>
<g transform="matrix(1,0,0,1,423,1706)">
	<path vector-effect="none" fill="#2980B9" d="M-148.503-1705.5h172v6h-172V-1705.5"/>
</g>
<g transform="matrix(1,0,0,1,423,1706)">
	<g enable-background="new    ">
		<path d="M-118.542-1687.025c0.914,0,1.616,0.199,2.106,0.598s0.735,0.975,0.735,1.729c0,0.445-0.131,0.846-0.393,1.201
			s-0.631,0.613-1.107,0.773c0.527,0.133,0.907,0.37,1.14,0.712s0.349,0.772,0.349,1.292v0.779c0,0.301,0.047,0.523,0.141,0.668
			s0.236,0.223,0.428,0.234l0.287,0.018v0.521h-0.445c-0.414,0-0.703-0.141-0.867-0.422s-0.246-0.625-0.246-1.031v-0.756
			c0-0.516-0.165-0.925-0.495-1.228s-0.79-0.46-1.38-0.472h-2.145v3.316l0.955,0.082v0.51h-2.607v-0.51l0.955-0.082v-7.336
			l-0.955-0.082v-0.516H-118.542z M-120.435-1683.006h1.811c0.77,0,1.332-0.154,1.688-0.463s0.533-0.721,0.533-1.236
			c0-0.547-0.178-0.971-0.533-1.271s-0.891-0.451-1.605-0.451h-1.893V-1683.006z"/>
		<path d="M-111.089-1678.377c-0.797,0-1.457-0.292-1.98-0.876s-0.785-1.327-0.785-2.229v-0.322c0-0.906,0.261-1.658,0.782-2.256
			s1.151-0.896,1.89-0.896c0.777,0,1.389,0.246,1.834,0.738s0.668,1.148,0.668,1.969v0.598h-4.477v0.17
			c0,0.711,0.19,1.308,0.571,1.79s0.88,0.724,1.497,0.724c0.434,0,0.805-0.061,1.113-0.182s0.572-0.295,0.791-0.521l0.299,0.48
			c-0.238,0.25-0.539,0.448-0.902,0.595S-110.585-1678.377-111.089-1678.377z M-111.183-1684.359c-0.516,0-0.95,0.198-1.304,0.595
			s-0.56,0.894-0.618,1.491l0.012,0.029h3.715v-0.176c0-0.551-0.162-1.012-0.486-1.383S-110.628-1684.359-111.183-1684.359z"/>
		<path d="M-107.615-1684.318v-0.521h1.541l0.088,0.984c0.215-0.352,0.489-0.623,0.823-0.814s0.726-0.287,1.175-0.287
			c0.762,0,1.357,0.304,1.787,0.911s0.645,1.417,0.645,2.429v0.123c0,0.949-0.215,1.706-0.645,2.271s-1.021,0.847-1.775,0.847
			c-0.445,0-0.835-0.085-1.169-0.255s-0.606-0.411-0.817-0.724v2.695l0.955,0.076v0.521h-2.607v-0.521l0.955-0.076v-7.582
			L-107.615-1684.318z M-102.259-1681.617c0-0.805-0.16-1.461-0.48-1.969s-0.789-0.762-1.406-0.762
			c-0.473,0-0.856,0.112-1.151,0.337s-0.517,0.517-0.665,0.876v3.047c0.16,0.348,0.392,0.621,0.694,0.82s0.681,0.299,1.134,0.299
			c0.613,0,1.079-0.23,1.397-0.691s0.478-1.072,0.478-1.834V-1681.617z"/>
		<path d="M-98.896-1684.84l0.088,1.055v0.076c0.18-0.391,0.425-0.696,0.735-0.917s0.679-0.331,1.104-0.331
			c0.09,0,0.177,0.007,0.261,0.021s0.153,0.028,0.208,0.044l-0.094,0.656l-0.521-0.035c-0.441,0-0.804,0.124-1.087,0.372
			s-0.485,0.589-0.606,1.022v3.785l0.955,0.076v0.516h-2.607v-0.516l0.955-0.076v-5.15l-0.955-0.076v-0.521h0.955H-98.896z"/>
		<path d="M-91.214-1678.5c-0.047-0.215-0.08-0.4-0.1-0.557s-0.029-0.314-0.029-0.475c-0.234,0.332-0.547,0.607-0.938,0.826
			s-0.83,0.328-1.318,0.328c-0.621,0-1.102-0.16-1.441-0.48s-0.51-0.754-0.51-1.301c0-0.586,0.252-1.051,0.756-1.395
			s1.188-0.516,2.051-0.516h1.4v-0.838c0-0.453-0.146-0.809-0.437-1.066s-0.698-0.387-1.222-0.387c-0.352,0-0.673,0.048-0.964,0.144
			s-0.534,0.226-0.729,0.39l-0.059,0.85h-0.58l0.006-1.219c0.293-0.227,0.644-0.41,1.052-0.551s0.843-0.211,1.304-0.211
			c0.699,0,1.262,0.178,1.688,0.533s0.639,0.865,0.639,1.529v3.117c0,0.129,0.003,0.253,0.009,0.372s0.019,0.235,0.038,0.349
			l0.633,0.041v0.516H-91.214z M-93.874-1686.223h-1.02v-0.92h1.02V-1686.223z M-93.523-1678.998c0.508,0,0.955-0.117,1.342-0.352
			s0.666-0.537,0.838-0.908v-1.271h-1.412c-0.637,0-1.146,0.132-1.526,0.396s-0.571,0.597-0.571,0.999
			c0,0.34,0.118,0.614,0.354,0.823S-93.937-1678.998-93.523-1678.998z M-91.126-1686.223h-1.014v-0.92h1.014V-1686.223z"/>
		<path d="M-84.37-1682.883h-0.574l-0.082-0.896c-0.176-0.184-0.397-0.326-0.665-0.428s-0.575-0.152-0.923-0.152
			c-0.512,0-0.896,0.11-1.151,0.331s-0.384,0.479-0.384,0.776c0,0.293,0.11,0.535,0.331,0.727s0.661,0.359,1.321,0.504
			c0.754,0.168,1.318,0.397,1.693,0.688s0.562,0.687,0.562,1.187c0,0.527-0.214,0.954-0.642,1.28s-0.993,0.489-1.696,0.489
			c-0.469,0-0.896-0.065-1.28-0.196s-0.718-0.315-0.999-0.554v-1.277h0.568l0.1,0.902c0.188,0.188,0.425,0.323,0.712,0.407
			s0.587,0.126,0.899,0.126c0.508,0,0.908-0.111,1.201-0.334s0.439-0.492,0.439-0.809c0-0.297-0.122-0.557-0.366-0.779
			s-0.685-0.404-1.321-0.545c-0.754-0.164-1.313-0.382-1.679-0.653s-0.548-0.651-0.548-1.14c0-0.484,0.205-0.894,0.615-1.228
			s0.951-0.501,1.623-0.501c0.465,0,0.89,0.071,1.274,0.214s0.698,0.335,0.94,0.577L-84.37-1682.883z"/>
		<path d="M-80.169-1678.377c-0.797,0-1.457-0.292-1.98-0.876s-0.785-1.327-0.785-2.229v-0.322c0-0.906,0.261-1.658,0.782-2.256
			s1.151-0.896,1.89-0.896c0.777,0,1.389,0.246,1.834,0.738s0.668,1.148,0.668,1.969v0.598h-4.477v0.17
			c0,0.711,0.19,1.308,0.571,1.79s0.88,0.724,1.497,0.724c0.434,0,0.805-0.061,1.113-0.182s0.572-0.295,0.791-0.521l0.299,0.48
			c-0.238,0.25-0.539,0.448-0.902,0.595S-79.665-1678.377-80.169-1678.377z M-80.263-1684.359c-0.516,0-0.95,0.198-1.304,0.595
			s-0.56,0.894-0.618,1.491l0.012,0.029h3.715v-0.176c0-0.551-0.162-1.012-0.486-1.383S-79.708-1684.359-80.263-1684.359z"/>
		<path d="M-76.636-1679.016l0.955-0.076v-5.15l-0.955-0.076v-0.521h1.576l0.064,1.107c0.203-0.391,0.478-0.692,0.823-0.905
			s0.755-0.319,1.228-0.319c0.688,0,1.211,0.21,1.57,0.63s0.539,1.075,0.539,1.966v3.27l0.955,0.076v0.516h-2.613v-0.516
			l0.955-0.076v-3.264c0-0.727-0.136-1.24-0.407-1.541s-0.657-0.451-1.157-0.451c-0.492,0-0.894,0.13-1.204,0.39
			s-0.534,0.604-0.671,1.034v3.832l0.955,0.076v0.516h-2.613V-1679.016z"/>
		<path d="M-67.167-1686.463v1.623h1.395v0.574h-1.395v4.131c0,0.414,0.075,0.708,0.226,0.882s0.351,0.261,0.601,0.261
			c0.113,0,0.224-0.005,0.331-0.015s0.231-0.026,0.372-0.05l0.105,0.521c-0.117,0.051-0.26,0.09-0.428,0.117
			s-0.336,0.041-0.504,0.041c-0.445,0-0.792-0.141-1.04-0.422s-0.372-0.727-0.372-1.336v-4.131h-1.09v-0.574h1.09v-1.623H-67.167z"
			/>
		<path d="M-60.107-1678.5c-0.047-0.215-0.08-0.4-0.1-0.557s-0.029-0.314-0.029-0.475c-0.234,0.332-0.547,0.607-0.938,0.826
			s-0.83,0.328-1.318,0.328c-0.621,0-1.102-0.16-1.441-0.48s-0.51-0.754-0.51-1.301c0-0.586,0.252-1.051,0.756-1.395
			s1.188-0.516,2.051-0.516h1.4v-0.838c0-0.453-0.146-0.809-0.437-1.066s-0.698-0.387-1.222-0.387c-0.352,0-0.673,0.048-0.964,0.144
			s-0.534,0.226-0.729,0.39l-0.059,0.85h-0.58l0.006-1.219c0.293-0.227,0.644-0.41,1.052-0.551s0.843-0.211,1.304-0.211
			c0.699,0,1.262,0.178,1.688,0.533s0.639,0.865,0.639,1.529v3.117c0,0.129,0.003,0.253,0.009,0.372s0.019,0.235,0.038,0.349
			l0.633,0.041v0.516H-60.107z M-62.415-1678.998c0.508,0,0.955-0.117,1.342-0.352s0.666-0.537,0.838-0.908v-1.271h-1.412
			c-0.637,0-1.146,0.132-1.526,0.396s-0.571,0.597-0.571,0.999c0,0.34,0.118,0.614,0.354,0.823S-62.829-1678.998-62.415-1678.998z"
			/>
		<path d="M-57.991-1679.016l0.955-0.076v-5.15l-0.955-0.076v-0.521h1.576l0.064,1.107c0.203-0.391,0.478-0.692,0.823-0.905
			s0.755-0.319,1.228-0.319c0.688,0,1.211,0.21,1.57,0.63s0.539,1.075,0.539,1.966v3.27l0.955,0.076v0.516h-2.613v-0.516
			l0.955-0.076v-3.264c0-0.727-0.136-1.24-0.407-1.541s-0.657-0.451-1.157-0.451c-0.492,0-0.894,0.13-1.204,0.39
			s-0.534,0.604-0.671,1.034v3.832l0.955,0.076v0.516h-2.613V-1679.016z"/>
		<path d="M-48.523-1686.463v1.623h1.395v0.574h-1.395v4.131c0,0.414,0.075,0.708,0.226,0.882s0.351,0.261,0.601,0.261
			c0.113,0,0.224-0.005,0.331-0.015s0.231-0.026,0.372-0.05l0.105,0.521c-0.117,0.051-0.26,0.09-0.428,0.117
			s-0.336,0.041-0.504,0.041c-0.445,0-0.792-0.141-1.04-0.422s-0.372-0.727-0.372-1.336v-4.131h-1.09v-0.574h1.09v-1.623H-48.523z"
			/>
		<path d="M-43.044-1678.377c-0.797,0-1.457-0.292-1.98-0.876s-0.785-1.327-0.785-2.229v-0.322c0-0.906,0.261-1.658,0.782-2.256
			s1.151-0.896,1.89-0.896c0.777,0,1.389,0.246,1.834,0.738s0.668,1.148,0.668,1.969v0.598h-4.477v0.17
			c0,0.711,0.19,1.308,0.571,1.79s0.88,0.724,1.497,0.724c0.434,0,0.805-0.061,1.113-0.182s0.572-0.295,0.791-0.521l0.299,0.48
			c-0.238,0.25-0.539,0.448-0.902,0.595S-42.54-1678.377-43.044-1678.377z M-43.138-1684.359c-0.516,0-0.95,0.198-1.304,0.595
			s-0.56,0.894-0.618,1.491l0.012,0.029h3.715v-0.176c0-0.551-0.162-1.012-0.486-1.383S-42.583-1684.359-43.138-1684.359z"/>
		<path d="M-39.511-1679.016l0.955-0.076v-5.15l-0.955-0.076v-0.521h1.576l0.064,1.107c0.203-0.391,0.478-0.692,0.823-0.905
			s0.755-0.319,1.228-0.319c0.688,0,1.211,0.21,1.57,0.63s0.539,1.075,0.539,1.966v3.27l0.955,0.076v0.516h-2.613v-0.516
			l0.955-0.076v-3.264c0-0.727-0.136-1.24-0.407-1.541s-0.657-0.451-1.157-0.451c-0.492,0-0.894,0.13-1.204,0.39
			s-0.534,0.604-0.671,1.034v3.832l0.955,0.076v0.516h-2.613V-1679.016z"/>
		<path d="M-24.077-1679.543c-0.199,0.371-0.472,0.658-0.817,0.861s-0.753,0.305-1.222,0.305c-0.668,0-1.19-0.227-1.567-0.68
			s-0.565-1.156-0.565-2.109v-3.076l-0.785-0.076v-0.521h0.785h0.697v3.686c0,0.773,0.132,1.328,0.396,1.664
			s0.638,0.504,1.122,0.504c0.531,0,0.954-0.117,1.269-0.352s0.536-0.559,0.665-0.973v-3.932l-0.902-0.076v-0.521h0.902h0.703v5.748
			l0.85,0.076v0.516h-1.465L-24.077-1679.543z"/>
		<path d="M-21.646-1679.016l0.955-0.076v-5.15l-0.955-0.076v-0.521h1.576l0.064,1.107c0.203-0.391,0.478-0.692,0.823-0.905
			s0.755-0.319,1.228-0.319c0.688,0,1.211,0.21,1.57,0.63s0.539,1.075,0.539,1.966v3.27l0.955,0.076v0.516h-2.613v-0.516
			l0.955-0.076v-3.264c0-0.727-0.136-1.24-0.407-1.541s-0.657-0.451-1.157-0.451c-0.492,0-0.894,0.13-1.204,0.39
			s-0.534,0.604-0.671,1.034v3.832l0.955,0.076v0.516h-2.613V-1679.016z"/>
		<path d="M-9.441-1679.414c-0.211,0.332-0.482,0.588-0.814,0.768s-0.723,0.27-1.172,0.27c-0.758,0-1.351-0.283-1.778-0.85
			s-0.642-1.322-0.642-2.268v-0.123c0-1.012,0.214-1.821,0.642-2.429s1.024-0.911,1.79-0.911c0.441,0,0.824,0.093,1.148,0.278
			s0.594,0.45,0.809,0.794v-3.158l-0.955-0.076v-0.521h0.955h0.703v8.549l0.955,0.076v0.516h-1.582L-9.441-1679.414z
			 M-13.138-1681.494c0,0.766,0.153,1.375,0.46,1.828s0.769,0.68,1.386,0.68c0.449,0,0.825-0.102,1.128-0.305
			s0.538-0.482,0.706-0.838v-3c-0.156-0.359-0.382-0.652-0.677-0.879s-0.677-0.34-1.146-0.34c-0.617,0-1.081,0.253-1.392,0.759
			s-0.466,1.163-0.466,1.972V-1681.494z"/>
	</g>
</g>
<g transform="matrix(1,0,0,1,423,1706)">
	<g enable-background="new    ">
		<path d="M-103.542-1673.025c0.914,0,1.616,0.199,2.106,0.598s0.735,0.975,0.735,1.729c0,0.445-0.131,0.846-0.393,1.201
			s-0.631,0.613-1.107,0.773c0.527,0.133,0.907,0.37,1.14,0.712s0.349,0.772,0.349,1.292v0.779c0,0.301,0.047,0.523,0.141,0.668
			s0.236,0.223,0.428,0.234l0.287,0.018v0.521h-0.445c-0.414,0-0.703-0.141-0.867-0.422s-0.246-0.625-0.246-1.031v-0.756
			c0-0.516-0.165-0.925-0.495-1.228s-0.79-0.46-1.38-0.472h-2.145v3.316l0.955,0.082v0.51h-2.607v-0.51l0.955-0.082v-7.336
			l-0.955-0.082v-0.516H-103.542z M-105.435-1669.006h1.811c0.77,0,1.332-0.154,1.688-0.463s0.533-0.721,0.533-1.236
			c0-0.547-0.178-0.971-0.533-1.271s-0.891-0.451-1.605-0.451h-1.893V-1669.006z"/>
		<path d="M-96.089-1664.377c-0.797,0-1.457-0.292-1.98-0.876s-0.785-1.327-0.785-2.229v-0.322c0-0.906,0.261-1.658,0.782-2.256
			s1.151-0.896,1.89-0.896c0.777,0,1.389,0.246,1.834,0.738s0.668,1.148,0.668,1.969v0.598h-4.477v0.17
			c0,0.711,0.19,1.308,0.571,1.79s0.88,0.724,1.497,0.724c0.434,0,0.805-0.061,1.113-0.182s0.572-0.295,0.791-0.521l0.299,0.48
			c-0.238,0.25-0.539,0.448-0.902,0.595S-95.585-1664.377-96.089-1664.377z M-96.183-1670.359c-0.516,0-0.95,0.198-1.304,0.595
			s-0.56,0.894-0.618,1.491l0.012,0.029h3.715v-0.176c0-0.551-0.162-1.012-0.486-1.383S-95.628-1670.359-96.183-1670.359z"/>
		<path d="M-92.615-1670.318v-0.521h1.541l0.088,0.984c0.215-0.352,0.489-0.623,0.823-0.814s0.726-0.287,1.175-0.287
			c0.762,0,1.357,0.304,1.787,0.911s0.645,1.417,0.645,2.429v0.123c0,0.949-0.215,1.706-0.645,2.271s-1.021,0.847-1.775,0.847
			c-0.445,0-0.835-0.085-1.169-0.255s-0.606-0.411-0.817-0.724v2.695l0.955,0.076v0.521h-2.607v-0.521l0.955-0.076v-7.582
			L-92.615-1670.318z M-87.259-1667.617c0-0.805-0.16-1.461-0.48-1.969s-0.789-0.762-1.406-0.762c-0.473,0-0.856,0.112-1.151,0.337
			s-0.517,0.517-0.665,0.876v3.047c0.16,0.348,0.392,0.621,0.694,0.82s0.681,0.299,1.134,0.299c0.613,0,1.079-0.23,1.397-0.691
			s0.478-1.072,0.478-1.834V-1667.617z"/>
		<path d="M-83.896-1670.84l0.088,1.055v0.076c0.18-0.391,0.425-0.696,0.735-0.917s0.679-0.331,1.104-0.331
			c0.09,0,0.177,0.007,0.261,0.021s0.153,0.028,0.208,0.044l-0.094,0.656l-0.521-0.035c-0.441,0-0.804,0.124-1.087,0.372
			s-0.485,0.589-0.606,1.022v3.785l0.955,0.076v0.516h-2.607v-0.516l0.955-0.076v-5.15l-0.955-0.076v-0.521h0.955H-83.896z"/>
		<path d="M-76.214-1664.5c-0.047-0.215-0.08-0.4-0.1-0.557s-0.029-0.314-0.029-0.475c-0.234,0.332-0.547,0.607-0.938,0.826
			s-0.83,0.328-1.318,0.328c-0.621,0-1.102-0.16-1.441-0.48s-0.51-0.754-0.51-1.301c0-0.586,0.252-1.051,0.756-1.395
			s1.188-0.516,2.051-0.516h1.4v-0.838c0-0.453-0.146-0.809-0.437-1.066s-0.698-0.387-1.222-0.387c-0.352,0-0.673,0.048-0.964,0.144
			s-0.534,0.226-0.729,0.39l-0.059,0.85h-0.58l0.006-1.219c0.293-0.227,0.644-0.41,1.052-0.551s0.843-0.211,1.304-0.211
			c0.699,0,1.262,0.178,1.688,0.533s0.639,0.865,0.639,1.529v3.117c0,0.129,0.003,0.253,0.009,0.372s0.019,0.235,0.038,0.349
			l0.633,0.041v0.516H-76.214z M-78.874-1672.223h-1.02v-0.92h1.02V-1672.223z M-78.523-1664.998c0.508,0,0.955-0.117,1.342-0.352
			s0.666-0.537,0.838-0.908v-1.271h-1.412c-0.637,0-1.146,0.132-1.526,0.396s-0.571,0.597-0.571,0.999
			c0,0.34,0.118,0.614,0.354,0.823S-78.937-1664.998-78.523-1664.998z M-76.126-1672.223h-1.014v-0.92h1.014V-1672.223z"/>
		<path d="M-69.37-1668.883h-0.574l-0.082-0.896c-0.176-0.184-0.397-0.326-0.665-0.428s-0.575-0.152-0.923-0.152
			c-0.512,0-0.896,0.11-1.151,0.331s-0.384,0.479-0.384,0.776c0,0.293,0.11,0.535,0.331,0.727s0.661,0.359,1.321,0.504
			c0.754,0.168,1.318,0.397,1.693,0.688s0.562,0.687,0.562,1.187c0,0.527-0.214,0.954-0.642,1.28s-0.993,0.489-1.696,0.489
			c-0.469,0-0.896-0.065-1.28-0.196s-0.718-0.315-0.999-0.554v-1.277h0.568l0.1,0.902c0.188,0.188,0.425,0.323,0.712,0.407
			s0.587,0.126,0.899,0.126c0.508,0,0.908-0.111,1.201-0.334s0.439-0.492,0.439-0.809c0-0.297-0.122-0.557-0.366-0.779
			s-0.685-0.404-1.321-0.545c-0.754-0.164-1.313-0.382-1.679-0.653s-0.548-0.651-0.548-1.14c0-0.484,0.205-0.894,0.615-1.228
			s0.951-0.501,1.623-0.501c0.465,0,0.89,0.071,1.274,0.214s0.698,0.335,0.94,0.577L-69.37-1668.883z"/>
		<path d="M-65.169-1664.377c-0.797,0-1.457-0.292-1.98-0.876s-0.785-1.327-0.785-2.229v-0.322c0-0.906,0.261-1.658,0.782-2.256
			s1.151-0.896,1.89-0.896c0.777,0,1.389,0.246,1.834,0.738s0.668,1.148,0.668,1.969v0.598h-4.477v0.17
			c0,0.711,0.19,1.308,0.571,1.79s0.88,0.724,1.497,0.724c0.434,0,0.805-0.061,1.113-0.182s0.572-0.295,0.791-0.521l0.299,0.48
			c-0.238,0.25-0.539,0.448-0.902,0.595S-64.665-1664.377-65.169-1664.377z M-65.263-1670.359c-0.516,0-0.95,0.198-1.304,0.595
			s-0.56,0.894-0.618,1.491l0.012,0.029h3.715v-0.176c0-0.551-0.162-1.012-0.486-1.383S-64.708-1670.359-65.263-1670.359z"/>
		<path d="M-61.636-1665.016l0.955-0.076v-5.15l-0.955-0.076v-0.521h1.576l0.064,1.107c0.203-0.391,0.478-0.692,0.823-0.905
			s0.755-0.319,1.228-0.319c0.688,0,1.211,0.21,1.57,0.63s0.539,1.075,0.539,1.966v3.27l0.955,0.076v0.516h-2.613v-0.516
			l0.955-0.076v-3.264c0-0.727-0.136-1.24-0.407-1.541s-0.657-0.451-1.157-0.451c-0.492,0-0.894,0.13-1.204,0.39
			s-0.534,0.604-0.671,1.034v3.832l0.955,0.076v0.516h-2.613V-1665.016z"/>
		<path d="M-52.167-1672.463v1.623h1.395v0.574h-1.395v4.131c0,0.414,0.075,0.708,0.226,0.882s0.351,0.261,0.601,0.261
			c0.113,0,0.224-0.005,0.331-0.015s0.231-0.026,0.372-0.05l0.105,0.521c-0.117,0.051-0.26,0.09-0.428,0.117
			s-0.336,0.041-0.504,0.041c-0.445,0-0.792-0.141-1.04-0.422s-0.372-0.727-0.372-1.336v-4.131h-1.09v-0.574h1.09v-1.623H-52.167z"
			/>
		<path d="M-49.531-1665.016l0.955-0.076v-5.15l-0.955-0.076v-0.521h1.652v5.748l0.955,0.076v0.516h-2.607V-1665.016z
			 M-47.878-1672.656h-0.697v-0.984h0.697V-1672.656z"/>
		<path d="M-42.95-1664.377c-0.797,0-1.457-0.292-1.98-0.876s-0.785-1.327-0.785-2.229v-0.322c0-0.906,0.261-1.658,0.782-2.256
			s1.151-0.896,1.89-0.896c0.777,0,1.389,0.246,1.834,0.738s0.668,1.148,0.668,1.969v0.598h-4.477v0.17
			c0,0.711,0.19,1.308,0.571,1.79s0.88,0.724,1.497,0.724c0.434,0,0.805-0.061,1.113-0.182s0.572-0.295,0.791-0.521l0.299,0.48
			c-0.238,0.25-0.539,0.448-0.902,0.595S-42.447-1664.377-42.95-1664.377z M-43.044-1670.359c-0.516,0-0.95,0.198-1.304,0.595
			s-0.56,0.894-0.618,1.491l0.012,0.029h3.715v-0.176c0-0.551-0.162-1.012-0.486-1.383S-42.49-1670.359-43.044-1670.359z"/>
		<path d="M-37.771-1670.84l0.088,1.055v0.076c0.18-0.391,0.425-0.696,0.735-0.917s0.679-0.331,1.104-0.331
			c0.09,0,0.177,0.007,0.261,0.021s0.153,0.028,0.208,0.044l-0.094,0.656l-0.521-0.035c-0.441,0-0.804,0.124-1.087,0.372
			s-0.485,0.589-0.606,1.022v3.785l0.955,0.076v0.516h-2.607v-0.516l0.955-0.076v-5.15l-0.955-0.076v-0.521h0.955H-37.771z"/>
		<path d="M-32.667-1672.463v1.623h1.395v0.574h-1.395v4.131c0,0.414,0.075,0.708,0.226,0.882s0.351,0.261,0.601,0.261
			c0.113,0,0.224-0.005,0.331-0.015s0.231-0.026,0.372-0.05l0.105,0.521c-0.117,0.051-0.26,0.09-0.428,0.117
			s-0.336,0.041-0.504,0.041c-0.445,0-0.792-0.141-1.04-0.422s-0.372-0.727-0.372-1.336v-4.131h-1.09v-0.574h1.09v-1.623H-32.667z"
			/>
		<path d="M-27.189-1664.377c-0.797,0-1.457-0.292-1.98-0.876s-0.785-1.327-0.785-2.229v-0.322c0-0.906,0.261-1.658,0.782-2.256
			s1.151-0.896,1.89-0.896c0.777,0,1.389,0.246,1.834,0.738s0.668,1.148,0.668,1.969v0.598h-4.477v0.17
			c0,0.711,0.19,1.308,0.571,1.79s0.88,0.724,1.497,0.724c0.434,0,0.805-0.061,1.113-0.182s0.572-0.295,0.791-0.521l0.299,0.48
			c-0.238,0.25-0.539,0.448-0.902,0.595S-26.685-1664.377-27.189-1664.377z M-27.282-1670.359c-0.516,0-0.95,0.198-1.304,0.595
			s-0.56,0.894-0.618,1.491l0.012,0.029h3.715v-0.176c0-0.551-0.162-1.012-0.486-1.383S-26.728-1670.359-27.282-1670.359z"/>
	</g>
</g>
<g transform="matrix(1,0,0,1,423,1706)">
	<g enable-background="new    ">
		<path fill="#6D7FBC" d="M-68.042-1604.022l-0.094-0.984h-4.062l-0.422,4.055c0.286-0.261,0.602-0.461,0.945-0.602
			s0.81-0.219,1.398-0.234c0.969-0.016,1.75,0.31,2.344,0.977s0.891,1.562,0.891,2.688c0,1.151-0.289,2.07-0.867,2.758
			s-1.445,1.031-2.602,1.031c-0.938,0-1.718-0.262-2.34-0.785c-0.623-0.523-0.921-1.298-0.895-2.324l0.016-0.047h0.836
			c0,0.766,0.216,1.352,0.648,1.758c0.432,0.406,1.01,0.609,1.734,0.609c0.849,0,1.483-0.255,1.902-0.766
			c0.419-0.511,0.629-1.25,0.629-2.219c0-0.849-0.21-1.53-0.629-2.043c-0.419-0.513-1.007-0.77-1.762-0.77
			c-0.729,0-1.285,0.116-1.668,0.348s-0.66,0.582-0.832,1.051l-0.758-0.125l0.625-6.227h5.719v1.852H-68.042z"/>
		<path fill="#6D7FBC" d="M-61.698-1594.499v-0.688l1.273-0.102v-9.789l-1.273-0.102v-0.695h1.273h0.938h1.273v0.695l-1.273,0.102
			v9.789h4.727l0.07-1.602h0.828v2.391H-61.698z"/>
		<path fill="#6D7FBC" d="M-47.698-1605.874c1.192,0,2.116,0.304,2.77,0.91c0.653,0.606,0.98,1.41,0.98,2.41
			c0,1.011-0.327,1.817-0.98,2.422c-0.654,0.604-1.577,0.906-2.77,0.906h-2.594v3.938l1.273,0.102v0.688h-3.477v-0.688l1.273-0.102
			v-9.789l-1.273-0.102v-0.695h1.273H-47.698z M-50.292-1600.022h2.594c0.938,0,1.642-0.238,2.113-0.715
			c0.471-0.477,0.707-1.077,0.707-1.801c0-0.729-0.234-1.335-0.703-1.816s-1.175-0.723-2.117-0.723h-2.594V-1600.022z"/>
	</g>
</g>
<g transform="matrix(1,0,0,1,423,1706)">
	<g enable-background="new    ">
		<path fill="#6D7FBC" d="M-78.613-1580.093c0-1.891,0.36-3.586,1.082-5.086c0.721-1.5,1.527-2.503,2.418-3.008h0.047l0.203,0.57
			c-0.755,0.536-1.414,1.489-1.977,2.859s-0.844,2.917-0.844,4.641v0.156c0,1.724,0.281,3.271,0.844,4.641s1.221,2.333,1.977,2.891
			l-0.203,0.547h-0.047c-0.901-0.521-1.71-1.516-2.426-2.984c-0.716-1.469-1.074-3.172-1.074-5.109V-1580.093z"/>
		<path fill="#6D7FBC" d="M-65.948-1583.499h-0.766l-0.133-1.609c-0.281-0.354-0.664-0.632-1.148-0.832s-1.052-0.301-1.703-0.301
			c-0.938,0-1.668,0.203-2.191,0.609s-0.785,0.911-0.785,1.516c0,0.573,0.235,1.051,0.707,1.434c0.471,0.383,1.288,0.72,2.449,1.012
			c1.224,0.312,2.155,0.734,2.793,1.266c0.638,0.531,0.957,1.231,0.957,2.102c0,0.906-0.37,1.628-1.109,2.164
			c-0.74,0.536-1.685,0.805-2.836,0.805c-0.812,0-1.566-0.144-2.262-0.43s-1.265-0.695-1.707-1.227v-1.992h0.766l0.133,1.664
			c0.344,0.391,0.784,0.688,1.32,0.891c0.536,0.203,1.12,0.305,1.75,0.305c0.896,0,1.621-0.198,2.176-0.594s0.832-0.919,0.832-1.57
			c0-0.62-0.232-1.126-0.695-1.52c-0.464-0.394-1.271-0.741-2.422-1.043c-1.245-0.312-2.188-0.719-2.828-1.219
			s-0.961-1.175-0.961-2.023c0-0.87,0.364-1.578,1.094-2.125c0.729-0.547,1.669-0.82,2.82-0.82c0.828,0,1.566,0.144,2.215,0.43
			s1.16,0.675,1.535,1.164V-1583.499z"/>
		<path fill="#6D7FBC" d="M-64.245-1579.851c0-1.245,0.341-2.266,1.023-3.062c0.682-0.797,1.586-1.195,2.711-1.195
			c1.13,0,2.036,0.398,2.719,1.195c0.682,0.797,1.023,1.817,1.023,3.062v0.258c0,1.25-0.34,2.272-1.02,3.066
			s-1.582,1.191-2.707,1.191c-1.136,0-2.044-0.397-2.727-1.191c-0.683-0.794-1.023-1.816-1.023-3.066V-1579.851z M-63.308-1579.593
			c0,0.979,0.247,1.802,0.742,2.469c0.495,0.667,1.185,1,2.07,1c0.87,0,1.552-0.333,2.047-1c0.495-0.667,0.742-1.489,0.742-2.469
			v-0.258c0-0.964-0.249-1.781-0.746-2.453c-0.498-0.672-1.184-1.008-2.059-1.008s-1.56,0.336-2.055,1.008
			c-0.495,0.672-0.742,1.489-0.742,2.453V-1579.593z"/>
		<path fill="#6D7FBC" d="M-47.417-1583.499h-0.766l-0.133-1.609c-0.281-0.354-0.664-0.632-1.148-0.832s-1.052-0.301-1.703-0.301
			c-0.938,0-1.668,0.203-2.191,0.609s-0.785,0.911-0.785,1.516c0,0.573,0.235,1.051,0.707,1.434c0.471,0.383,1.288,0.72,2.449,1.012
			c1.224,0.312,2.155,0.734,2.793,1.266c0.638,0.531,0.957,1.231,0.957,2.102c0,0.906-0.37,1.628-1.109,2.164
			c-0.74,0.536-1.685,0.805-2.836,0.805c-0.812,0-1.566-0.144-2.262-0.43s-1.265-0.695-1.707-1.227v-1.992h0.766l0.133,1.664
			c0.344,0.391,0.784,0.688,1.32,0.891c0.536,0.203,1.12,0.305,1.75,0.305c0.896,0,1.621-0.198,2.176-0.594s0.832-0.919,0.832-1.57
			c0-0.62-0.232-1.126-0.695-1.52c-0.464-0.394-1.271-0.741-2.422-1.043c-1.245-0.312-2.188-0.719-2.828-1.219
			s-0.961-1.175-0.961-2.023c0-0.87,0.364-1.578,1.094-2.125c0.729-0.547,1.669-0.82,2.82-0.82c0.828,0,1.566,0.144,2.215,0.43
			s1.16,0.675,1.535,1.164V-1583.499z"/>
		<path fill="#6D7FBC" d="M-41.988-1575.335c-1.062,0-1.943-0.39-2.641-1.168c-0.698-0.778-1.047-1.77-1.047-2.973v-0.43
			c0-1.208,0.348-2.211,1.043-3.008s1.535-1.195,2.52-1.195c1.036,0,1.852,0.328,2.445,0.984s0.891,1.531,0.891,2.625v0.797h-5.969
			v0.227c0,0.948,0.254,1.743,0.762,2.387s1.173,0.965,1.996,0.965c0.578,0,1.073-0.081,1.484-0.242
			c0.411-0.161,0.763-0.394,1.055-0.695l0.398,0.641c-0.318,0.333-0.719,0.598-1.203,0.793S-41.316-1575.335-41.988-1575.335z
			 M-42.113-1583.312c-0.688,0-1.267,0.265-1.738,0.793c-0.472,0.528-0.746,1.191-0.824,1.988l0.016,0.039h4.953v-0.234
			c0-0.734-0.216-1.349-0.648-1.844C-40.787-1583.064-41.373-1583.312-42.113-1583.312z"/>
		<path fill="#6D7FBC" d="M-34.027-1579.976c0,1.938-0.361,3.641-1.082,5.109c-0.722,1.469-1.53,2.464-2.426,2.984l-0.047-0.008
			l-0.195-0.539c0.75-0.531,1.407-1.487,1.973-2.867c0.565-1.38,0.848-2.935,0.848-4.664v-0.156c0-1.714-0.288-3.265-0.863-4.652
			c-0.576-1.388-1.228-2.348-1.957-2.879l0.195-0.539l0.047-0.008c0.885,0.511,1.691,1.516,2.418,3.016s1.09,3.195,1.09,5.086
			V-1579.976z"/>
	</g>
</g>
<g transform="matrix(1,0,0,1,596,1706)">
	<path vector-effect="none" fill="#FFFFFF" d="M-148.503-1705.5h173v140h-173V-1705.5"/>
</g>
<g transform="matrix(1,0,0,1,596,1706)">
	<path vector-effect="none" fill="#2980B9" d="M-148.503-1705.5h173v6h-173V-1705.5"/>
</g>
<g transform="matrix(1,0,0,1,596,1706)">
	<g enable-background="new    ">
		<path d="M-122.141-1687.031c0.887,0,1.577,0.187,2.071,0.56s0.741,0.935,0.741,1.685c0,0.438-0.124,0.818-0.372,1.143
			s-0.585,0.549-1.011,0.674c0.52,0.094,0.941,0.338,1.266,0.732s0.486,0.85,0.486,1.365c0,0.762-0.247,1.348-0.741,1.758
			s-1.155,0.615-1.983,0.615h-3.902v-0.516l0.955-0.076v-7.342l-0.955-0.076v-0.521h0.955H-122.141z M-123.934-1683.205h1.963
			c0.617,0,1.095-0.136,1.433-0.407s0.507-0.671,0.507-1.198c0-0.539-0.18-0.944-0.539-1.216s-0.883-0.407-1.57-0.407h-1.793
			V-1683.205z M-123.934-1682.613v3.521h2.25c0.629,0,1.123-0.155,1.482-0.466s0.539-0.745,0.539-1.304
			c0-0.512-0.163-0.932-0.489-1.26s-0.8-0.492-1.421-0.492H-123.934z"/>
		<path d="M-117.735-1679.016l0.955-0.076v-5.15l-0.955-0.076v-0.521h1.652v5.748l0.955,0.076v0.516h-2.607V-1679.016z
			 M-116.082-1686.656h-0.697v-0.984h0.697V-1686.656z"/>
		<path d="M-114.078-1679.016l0.955-0.076v-5.15l-0.955-0.076v-0.521h1.576l0.064,1.107c0.203-0.391,0.478-0.692,0.823-0.905
			s0.755-0.319,1.228-0.319c0.688,0,1.211,0.21,1.57,0.63s0.539,1.075,0.539,1.966v3.27l0.955,0.076v0.516h-2.613v-0.516
			l0.955-0.076v-3.264c0-0.727-0.136-1.24-0.407-1.541s-0.657-0.451-1.157-0.451c-0.492,0-0.894,0.13-1.204,0.39
			s-0.534,0.604-0.671,1.034v3.832l0.955,0.076v0.516h-2.613V-1679.016z"/>
		<path d="M-106.35-1679.016l0.955-0.076v-5.15l-0.955-0.076v-0.521h1.576l0.064,1.107c0.203-0.391,0.478-0.692,0.823-0.905
			s0.755-0.319,1.228-0.319c0.688,0,1.211,0.21,1.57,0.63s0.539,1.075,0.539,1.966v3.27l0.955,0.076v0.516h-2.613v-0.516
			l0.955-0.076v-3.264c0-0.727-0.136-1.24-0.407-1.541s-0.657-0.451-1.157-0.451c-0.492,0-0.894,0.13-1.204,0.39
			s-0.534,0.604-0.671,1.034v3.832l0.955,0.076v0.516h-2.613V-1679.016z"/>
		<path d="M-95.756-1678.377c-0.797,0-1.457-0.292-1.98-0.876s-0.785-1.327-0.785-2.229v-0.322c0-0.906,0.261-1.658,0.782-2.256
			s1.151-0.896,1.89-0.896c0.777,0,1.389,0.246,1.834,0.738s0.668,1.148,0.668,1.969v0.598h-4.477v0.17
			c0,0.711,0.19,1.308,0.571,1.79s0.88,0.724,1.497,0.724c0.434,0,0.805-0.061,1.113-0.182s0.572-0.295,0.791-0.521l0.299,0.48
			c-0.238,0.25-0.539,0.448-0.902,0.595S-95.252-1678.377-95.756-1678.377z M-95.85-1684.359c-0.516,0-0.95,0.198-1.304,0.595
			s-0.56,0.894-0.618,1.491l0.012,0.029h3.715v-0.176c0-0.551-0.162-1.012-0.486-1.383S-95.295-1684.359-95.85-1684.359z"/>
		<path d="M-92.223-1679.016l0.955-0.076v-5.15l-0.955-0.076v-0.521h1.576l0.064,1.107c0.203-0.391,0.478-0.692,0.823-0.905
			s0.755-0.319,1.228-0.319c0.688,0,1.211,0.21,1.57,0.63s0.539,1.075,0.539,1.966v3.27l0.955,0.076v0.516h-2.613v-0.516
			l0.955-0.076v-3.264c0-0.727-0.136-1.24-0.407-1.541s-0.657-0.451-1.157-0.451c-0.492,0-0.894,0.13-1.204,0.39
			s-0.534,0.604-0.671,1.034v3.832l0.955,0.076v0.516h-2.613V-1679.016z"/>
		<path d="M-84.424-1681.764c0-0.934,0.256-1.699,0.768-2.297s1.189-0.896,2.033-0.896c0.848,0,1.527,0.299,2.039,0.896
			s0.768,1.363,0.768,2.297v0.193c0,0.938-0.255,1.704-0.765,2.3s-1.187,0.894-2.03,0.894c-0.852,0-1.533-0.298-2.045-0.894
			s-0.768-1.362-0.768-2.3V-1681.764z M-83.721-1681.57c0,0.734,0.186,1.352,0.557,1.852s0.889,0.75,1.553,0.75
			c0.652,0,1.164-0.25,1.535-0.75s0.557-1.117,0.557-1.852v-0.193c0-0.723-0.187-1.336-0.56-1.84s-0.888-0.756-1.544-0.756
			s-1.17,0.252-1.541,0.756s-0.557,1.117-0.557,1.84V-1681.57z"/>
		<path d="M-76.156-1684.84l0.088,1.055v0.076c0.18-0.391,0.425-0.696,0.735-0.917s0.679-0.331,1.104-0.331
			c0.09,0,0.177,0.007,0.261,0.021s0.153,0.028,0.208,0.044l-0.094,0.656l-0.521-0.035c-0.441,0-0.804,0.124-1.087,0.372
			s-0.485,0.589-0.606,1.022v3.785l0.955,0.076v0.516h-2.607v-0.516l0.955-0.076v-5.15l-0.955-0.076v-0.521h0.955H-76.156z"/>
		<path d="M-72.934-1681.617c0-1.012,0.216-1.821,0.647-2.429s1.03-0.911,1.796-0.911c0.449,0,0.839,0.099,1.169,0.296
			s0.603,0.476,0.817,0.835l0.082-1.014h0.592v6.258c0,0.816-0.221,1.461-0.662,1.934s-1.057,0.709-1.846,0.709
			c-0.305,0-0.63-0.037-0.976-0.111s-0.647-0.176-0.905-0.305l0.188-0.592c0.254,0.121,0.521,0.215,0.8,0.281s0.573,0.1,0.882,0.1
			c0.602,0,1.055-0.178,1.359-0.533s0.457-0.85,0.457-1.482v-0.803c-0.215,0.324-0.486,0.573-0.814,0.747s-0.713,0.261-1.154,0.261
			c-0.762,0-1.357-0.283-1.787-0.85s-0.645-1.322-0.645-2.268V-1681.617z M-72.231-1681.494c0,0.762,0.155,1.37,0.466,1.825
			s0.774,0.683,1.392,0.683c0.457,0,0.837-0.104,1.14-0.311s0.536-0.492,0.7-0.855v-2.941c-0.156-0.371-0.381-0.673-0.674-0.905
			s-0.678-0.349-1.154-0.349c-0.617,0-1.083,0.254-1.397,0.762s-0.472,1.164-0.472,1.969V-1681.494z"/>
		<path d="M-61.86-1678.5c-0.047-0.215-0.08-0.4-0.1-0.557s-0.029-0.314-0.029-0.475c-0.234,0.332-0.547,0.607-0.938,0.826
			s-0.83,0.328-1.318,0.328c-0.621,0-1.102-0.16-1.441-0.48s-0.51-0.754-0.51-1.301c0-0.586,0.252-1.051,0.756-1.395
			s1.188-0.516,2.051-0.516h1.4v-0.838c0-0.453-0.146-0.809-0.437-1.066s-0.698-0.387-1.222-0.387c-0.352,0-0.673,0.048-0.964,0.144
			s-0.534,0.226-0.729,0.39l-0.059,0.85h-0.58l0.006-1.219c0.293-0.227,0.644-0.41,1.052-0.551s0.843-0.211,1.304-0.211
			c0.699,0,1.262,0.178,1.688,0.533s0.639,0.865,0.639,1.529v3.117c0,0.129,0.003,0.253,0.009,0.372s0.019,0.235,0.038,0.349
			l0.633,0.041v0.516H-61.86z M-64.168-1678.998c0.508,0,0.955-0.117,1.342-0.352s0.666-0.537,0.838-0.908v-1.271h-1.412
			c-0.637,0-1.146,0.132-1.526,0.396s-0.571,0.597-0.571,0.999c0,0.34,0.118,0.614,0.354,0.823S-64.582-1678.998-64.168-1678.998z"
			/>
		<path d="M-59.744-1679.016l0.955-0.076v-5.15l-0.955-0.076v-0.521h1.576l0.064,1.107c0.203-0.391,0.478-0.692,0.823-0.905
			s0.755-0.319,1.228-0.319c0.688,0,1.211,0.21,1.57,0.63s0.539,1.075,0.539,1.966v3.27l0.955,0.076v0.516h-2.613v-0.516
			l0.955-0.076v-3.264c0-0.727-0.136-1.24-0.407-1.541s-0.657-0.451-1.157-0.451c-0.492,0-0.894,0.13-1.204,0.39
			s-0.534,0.604-0.671,1.034v3.832l0.955,0.076v0.516h-2.613V-1679.016z"/>
		<path d="M-51.934-1679.016l0.955-0.076v-5.15l-0.955-0.076v-0.521h1.652v5.748l0.955,0.076v0.516h-2.607V-1679.016z
			 M-50.281-1686.656h-0.697v-0.984h0.697V-1686.656z"/>
		<path d="M-43.549-1682.883h-0.574l-0.082-0.896c-0.176-0.184-0.397-0.326-0.665-0.428s-0.575-0.152-0.923-0.152
			c-0.512,0-0.896,0.11-1.151,0.331s-0.384,0.479-0.384,0.776c0,0.293,0.11,0.535,0.331,0.727s0.661,0.359,1.321,0.504
			c0.754,0.168,1.318,0.397,1.693,0.688s0.562,0.687,0.562,1.187c0,0.527-0.214,0.954-0.642,1.28s-0.993,0.489-1.696,0.489
			c-0.469,0-0.896-0.065-1.28-0.196s-0.718-0.315-0.999-0.554v-1.277h0.568l0.1,0.902c0.188,0.188,0.425,0.323,0.712,0.407
			s0.587,0.126,0.899,0.126c0.508,0,0.908-0.111,1.201-0.334s0.439-0.492,0.439-0.809c0-0.297-0.122-0.557-0.366-0.779
			s-0.685-0.404-1.321-0.545c-0.754-0.164-1.313-0.382-1.679-0.653s-0.548-0.651-0.548-1.14c0-0.484,0.205-0.894,0.615-1.228
			s0.951-0.501,1.623-0.501c0.465,0,0.89,0.071,1.274,0.214s0.698,0.335,0.94,0.577L-43.549-1682.883z"/>
		<path d="M-37.766-1678.5c-0.047-0.215-0.08-0.4-0.1-0.557s-0.029-0.314-0.029-0.475c-0.234,0.332-0.547,0.607-0.938,0.826
			s-0.83,0.328-1.318,0.328c-0.621,0-1.102-0.16-1.441-0.48s-0.51-0.754-0.51-1.301c0-0.586,0.252-1.051,0.756-1.395
			s1.188-0.516,2.051-0.516h1.4v-0.838c0-0.453-0.146-0.809-0.437-1.066s-0.698-0.387-1.222-0.387c-0.352,0-0.673,0.048-0.964,0.144
			s-0.534,0.226-0.729,0.39l-0.059,0.85h-0.58l0.006-1.219c0.293-0.227,0.644-0.41,1.052-0.551s0.843-0.211,1.304-0.211
			c0.699,0,1.262,0.178,1.688,0.533s0.639,0.865,0.639,1.529v3.117c0,0.129,0.003,0.253,0.009,0.372s0.019,0.235,0.038,0.349
			l0.633,0.041v0.516H-37.766z M-40.074-1678.998c0.508,0,0.955-0.117,1.342-0.352s0.666-0.537,0.838-0.908v-1.271h-1.412
			c-0.637,0-1.146,0.132-1.526,0.396s-0.571,0.597-0.571,0.999c0,0.34,0.118,0.614,0.354,0.823S-40.489-1678.998-40.074-1678.998z"
			/>
		<path d="M-33.91-1686.463v1.623h1.395v0.574h-1.395v4.131c0,0.414,0.075,0.708,0.226,0.882s0.351,0.261,0.601,0.261
			c0.113,0,0.224-0.005,0.331-0.015s0.231-0.026,0.372-0.05l0.105,0.521c-0.117,0.051-0.26,0.09-0.428,0.117
			s-0.336,0.041-0.504,0.041c-0.445,0-0.792-0.141-1.04-0.422s-0.372-0.727-0.372-1.336v-4.131h-1.09v-0.574h1.09v-1.623H-33.91z"/>
		<path d="M-31.274-1679.016l0.955-0.076v-5.15l-0.955-0.076v-0.521h1.652v5.748l0.955,0.076v0.516h-2.607V-1679.016z
			 M-29.621-1686.656h-0.697v-0.984h0.697V-1686.656z"/>
		<path d="M-27.489-1681.764c0-0.934,0.256-1.699,0.768-2.297s1.189-0.896,2.033-0.896c0.848,0,1.527,0.299,2.039,0.896
			s0.768,1.363,0.768,2.297v0.193c0,0.938-0.255,1.704-0.765,2.3s-1.187,0.894-2.03,0.894c-0.852,0-1.533-0.298-2.045-0.894
			s-0.768-1.362-0.768-2.3V-1681.764z M-26.785-1681.57c0,0.734,0.186,1.352,0.557,1.852s0.889,0.75,1.553,0.75
			c0.652,0,1.164-0.25,1.535-0.75s0.557-1.117,0.557-1.852v-0.193c0-0.723-0.187-1.336-0.56-1.84s-0.888-0.756-1.544-0.756
			s-1.17,0.252-1.541,0.756s-0.557,1.117-0.557,1.84V-1681.57z"/>
		<path d="M-20.867-1679.016l0.955-0.076v-5.15l-0.955-0.076v-0.521h1.576l0.064,1.107c0.203-0.391,0.478-0.692,0.823-0.905
			s0.755-0.319,1.228-0.319c0.688,0,1.211,0.21,1.57,0.63s0.539,1.075,0.539,1.966v3.27l0.955,0.076v0.516h-2.613v-0.516
			l0.955-0.076v-3.264c0-0.727-0.136-1.24-0.407-1.541s-0.657-0.451-1.157-0.451c-0.492,0-0.894,0.13-1.204,0.39
			s-0.534,0.604-0.671,1.034v3.832l0.955,0.076v0.516h-2.613V-1679.016z"/>
		<path d="M-8.252-1684.318l-0.791,0.059l1.582,4.172l0.205,0.744h0.035l0.223-0.744l1.559-4.172l-0.791-0.059v-0.521h2.133v0.521
			l-0.621,0.053l-2.238,5.766H-7.52l-2.244-5.766l-0.621-0.053v-0.521h2.133V-1684.318z"/>
		<path d="M-3.412-1681.764c0-0.934,0.256-1.699,0.768-2.297s1.189-0.896,2.033-0.896c0.848,0,1.527,0.299,2.039,0.896
			s0.768,1.363,0.768,2.297v0.193c0,0.938-0.255,1.704-0.765,2.3s-1.187,0.894-2.03,0.894c-0.852,0-1.533-0.298-2.045-0.894
			s-0.768-1.362-0.768-2.3V-1681.764z M-2.709-1681.57c0,0.734,0.186,1.352,0.557,1.852s0.889,0.75,1.553,0.75
			c0.652,0,1.164-0.25,1.535-0.75s0.557-1.117,0.557-1.852v-0.193c0-0.723-0.187-1.336-0.56-1.84s-0.888-0.756-1.544-0.756
			s-1.17,0.252-1.541,0.756s-0.557,1.117-0.557,1.84V-1681.57z"/>
		<path d="M3.209-1679.016l0.955-0.076v-5.15l-0.955-0.076v-0.521h1.576l0.064,1.107c0.203-0.391,0.478-0.692,0.823-0.905
			s0.755-0.319,1.228-0.319c0.688,0,1.211,0.21,1.57,0.63s0.539,1.075,0.539,1.966v3.27l0.955,0.076v0.516H7.351v-0.516l0.955-0.076
			v-3.264c0-0.727-0.136-1.24-0.407-1.541s-0.657-0.451-1.157-0.451c-0.492,0-0.894,0.13-1.204,0.39s-0.534,0.604-0.671,1.034v3.832
			l0.955,0.076v0.516H3.209V-1679.016z"/>
	</g>
</g>
<g transform="matrix(1,0,0,1,596,1706)">
	<g enable-background="new    ">
		<path d="M-94.989-1673.031c0.895,0,1.587,0.228,2.077,0.683s0.735,1.058,0.735,1.808c0,0.758-0.245,1.363-0.735,1.816
			s-1.183,0.68-2.077,0.68h-1.945v2.953l0.955,0.076v0.516h-2.607v-0.516l0.955-0.076v-7.342l-0.955-0.076v-0.521h0.955H-94.989z
			 M-96.934-1668.643h1.945c0.703,0,1.231-0.179,1.585-0.536s0.53-0.808,0.53-1.351c0-0.547-0.176-1.001-0.527-1.362
			s-0.881-0.542-1.588-0.542h-1.945V-1668.643z"/>
		<path d="M-86.645-1664.5c-0.047-0.215-0.08-0.4-0.1-0.557s-0.029-0.314-0.029-0.475c-0.234,0.332-0.547,0.607-0.938,0.826
			s-0.83,0.328-1.318,0.328c-0.621,0-1.102-0.16-1.441-0.48s-0.51-0.754-0.51-1.301c0-0.586,0.252-1.051,0.756-1.395
			s1.188-0.516,2.051-0.516h1.4v-0.838c0-0.453-0.146-0.809-0.437-1.066s-0.698-0.387-1.222-0.387c-0.352,0-0.673,0.048-0.964,0.144
			s-0.534,0.226-0.729,0.39l-0.059,0.85h-0.58l0.006-1.219c0.293-0.227,0.644-0.41,1.052-0.551s0.843-0.211,1.304-0.211
			c0.699,0,1.262,0.178,1.688,0.533s0.639,0.865,0.639,1.529v3.117c0,0.129,0.003,0.253,0.009,0.372s0.019,0.235,0.038,0.349
			l0.633,0.041v0.516H-86.645z M-88.953-1664.998c0.508,0,0.955-0.117,1.342-0.352s0.666-0.537,0.838-0.908v-1.271h-1.412
			c-0.637,0-1.146,0.132-1.526,0.396s-0.571,0.597-0.571,0.999c0,0.34,0.118,0.614,0.354,0.823S-89.367-1664.998-88.953-1664.998z"
			/>
		<path d="M-82.883-1670.84l0.088,1.055v0.076c0.18-0.391,0.425-0.696,0.735-0.917s0.679-0.331,1.104-0.331
			c0.09,0,0.177,0.007,0.261,0.021s0.153,0.028,0.208,0.044l-0.094,0.656l-0.521-0.035c-0.441,0-0.804,0.124-1.087,0.372
			s-0.485,0.589-0.606,1.022v3.785l0.955,0.076v0.516h-2.607v-0.516l0.955-0.076v-5.15l-0.955-0.076v-0.521h0.955H-82.883z"/>
		<path d="M-79.836-1673.119v-0.521h1.652v8.549l0.955,0.076v0.516h-2.607v-0.516l0.955-0.076v-7.951L-79.836-1673.119z"/>
		<path d="M-71.744-1664.5c-0.047-0.215-0.08-0.4-0.1-0.557s-0.029-0.314-0.029-0.475c-0.234,0.332-0.547,0.607-0.938,0.826
			s-0.83,0.328-1.318,0.328c-0.621,0-1.102-0.16-1.441-0.48s-0.51-0.754-0.51-1.301c0-0.586,0.252-1.051,0.756-1.395
			s1.188-0.516,2.051-0.516h1.4v-0.838c0-0.453-0.146-0.809-0.437-1.066s-0.698-0.387-1.222-0.387c-0.352,0-0.673,0.048-0.964,0.144
			s-0.534,0.226-0.729,0.39l-0.059,0.85h-0.58l0.006-1.219c0.293-0.227,0.644-0.41,1.052-0.551s0.843-0.211,1.304-0.211
			c0.699,0,1.262,0.178,1.688,0.533s0.639,0.865,0.639,1.529v3.117c0,0.129,0.003,0.253,0.009,0.372s0.019,0.235,0.038,0.349
			l0.633,0.041v0.516H-71.744z M-74.053-1664.998c0.508,0,0.955-0.117,1.342-0.352s0.666-0.537,0.838-0.908v-1.271h-1.412
			c-0.637,0-1.146,0.132-1.526,0.396s-0.571,0.597-0.571,0.999c0,0.34,0.118,0.614,0.354,0.823S-74.467-1664.998-74.053-1664.998z"
			/>
		<path d="M-69.653-1670.318v-0.521h1.576l0.064,1.049c0.203-0.371,0.475-0.658,0.814-0.861s0.744-0.305,1.213-0.305
			c0.484,0,0.889,0.118,1.213,0.354s0.557,0.597,0.697,1.081c0.191-0.445,0.464-0.796,0.817-1.052s0.784-0.384,1.292-0.384
			c0.676,0,1.198,0.225,1.567,0.674s0.554,1.145,0.554,2.086v3.1l0.955,0.082v0.516h-2.619v-0.516l0.955-0.082v-3.111
			c0-0.781-0.138-1.333-0.413-1.655s-0.659-0.483-1.151-0.483c-0.547,0-0.968,0.174-1.263,0.521s-0.478,0.791-0.548,1.33
			c0,0.031,0.001,0.061,0.003,0.088s0.003,0.062,0.003,0.105v3.211l0.955,0.076v0.516h-2.613v-0.516l0.955-0.076v-3.117
			c0-0.766-0.14-1.313-0.419-1.644s-0.663-0.495-1.151-0.495c-0.5,0-0.896,0.126-1.187,0.378s-0.495,0.591-0.612,1.017v3.861
			l0.955,0.076v0.516h-2.613v-0.516l0.955-0.076v-5.15L-69.653-1670.318z"/>
		<path d="M-55.285-1664.377c-0.797,0-1.457-0.292-1.98-0.876s-0.785-1.327-0.785-2.229v-0.322c0-0.906,0.261-1.658,0.782-2.256
			s1.151-0.896,1.89-0.896c0.777,0,1.389,0.246,1.834,0.738s0.668,1.148,0.668,1.969v0.598h-4.477v0.17
			c0,0.711,0.19,1.308,0.571,1.79s0.88,0.724,1.497,0.724c0.434,0,0.805-0.061,1.113-0.182s0.572-0.295,0.791-0.521l0.299,0.48
			c-0.238,0.25-0.539,0.448-0.902,0.595S-54.781-1664.377-55.285-1664.377z M-55.379-1670.359c-0.516,0-0.95,0.198-1.304,0.595
			s-0.56,0.894-0.618,1.491l0.012,0.029h3.715v-0.176c0-0.551-0.162-1.012-0.486-1.383S-54.824-1670.359-55.379-1670.359z"/>
		<path d="M-51.752-1665.016l0.955-0.076v-5.15l-0.955-0.076v-0.521h1.576l0.064,1.107c0.203-0.391,0.478-0.692,0.823-0.905
			s0.755-0.319,1.228-0.319c0.688,0,1.211,0.21,1.57,0.63s0.539,1.075,0.539,1.966v3.27l0.955,0.076v0.516h-2.613v-0.516
			l0.955-0.076v-3.264c0-0.727-0.136-1.24-0.407-1.541s-0.657-0.451-1.157-0.451c-0.492,0-0.894,0.13-1.204,0.39
			s-0.534,0.604-0.671,1.034v3.832l0.955,0.076v0.516h-2.613V-1665.016z"/>
		<path d="M-42.283-1672.463v1.623h1.395v0.574h-1.395v4.131c0,0.414,0.075,0.708,0.226,0.882s0.351,0.261,0.601,0.261
			c0.113,0,0.224-0.005,0.331-0.015s0.231-0.026,0.372-0.05l0.105,0.521c-0.117,0.051-0.26,0.09-0.428,0.117
			s-0.336,0.041-0.504,0.041c-0.445,0-0.792-0.141-1.04-0.422s-0.372-0.727-0.372-1.336v-4.131h-1.09v-0.574h1.09v-1.623H-42.283z"
			/>
		<path d="M-36.805-1664.377c-0.797,0-1.457-0.292-1.98-0.876s-0.785-1.327-0.785-2.229v-0.322c0-0.906,0.261-1.658,0.782-2.256
			s1.151-0.896,1.89-0.896c0.777,0,1.389,0.246,1.834,0.738s0.668,1.148,0.668,1.969v0.598h-4.477v0.17
			c0,0.711,0.19,1.308,0.571,1.79s0.88,0.724,1.497,0.724c0.434,0,0.805-0.061,1.113-0.182s0.572-0.295,0.791-0.521l0.299,0.48
			c-0.238,0.25-0.539,0.448-0.902,0.595S-36.301-1664.377-36.805-1664.377z M-36.899-1670.359c-0.516,0-0.95,0.198-1.304,0.595
			s-0.56,0.894-0.618,1.491l0.012,0.029h3.715v-0.176c0-0.551-0.162-1.012-0.486-1.383S-36.344-1670.359-36.899-1670.359z"/>
		<path d="M-33.272-1665.016l0.955-0.076v-5.15l-0.955-0.076v-0.521h1.576l0.064,1.107c0.203-0.391,0.478-0.692,0.823-0.905
			s0.755-0.319,1.228-0.319c0.688,0,1.211,0.21,1.57,0.63s0.539,1.075,0.539,1.966v3.27l0.955,0.076v0.516h-2.613v-0.516
			l0.955-0.076v-3.264c0-0.727-0.136-1.24-0.407-1.541s-0.657-0.451-1.157-0.451c-0.492,0-0.894,0.13-1.204,0.39
			s-0.534,0.604-0.671,1.034v3.832l0.955,0.076v0.516h-2.613V-1665.016z"/>
	</g>
</g>
<g transform="matrix(1,0,0,1,596,1706)">
	<g enable-background="new    ">
		<path fill="#6D7FBC" d="M-66.541-1604.022l-0.094-0.984h-4.062l-0.422,4.055c0.286-0.261,0.602-0.461,0.945-0.602
			s0.81-0.219,1.398-0.234c0.969-0.016,1.75,0.31,2.344,0.977s0.891,1.562,0.891,2.688c0,1.151-0.289,2.07-0.867,2.758
			s-1.445,1.031-2.602,1.031c-0.938,0-1.718-0.262-2.34-0.785c-0.623-0.523-0.921-1.298-0.895-2.324l0.016-0.047h0.836
			c0,0.766,0.216,1.352,0.648,1.758c0.432,0.406,1.01,0.609,1.734,0.609c0.849,0,1.482-0.255,1.902-0.766
			c0.419-0.511,0.629-1.25,0.629-2.219c0-0.849-0.21-1.53-0.629-2.043c-0.42-0.513-1.007-0.77-1.762-0.77
			c-0.729,0-1.285,0.116-1.668,0.348s-0.66,0.582-0.832,1.051l-0.758-0.125l0.625-6.227h5.719v1.852H-66.541z"/>
		<path fill="#6D7FBC" d="M-60.198-1594.499v-0.688l1.273-0.102v-9.789l-1.273-0.102v-0.695h1.273h0.938h1.273v0.695l-1.273,0.102
			v9.789h4.727l0.07-1.602h0.828v2.391H-60.198z"/>
		<path fill="#6D7FBC" d="M-46.198-1605.874c1.192,0,2.115,0.304,2.77,0.91c0.653,0.606,0.98,1.41,0.98,2.41
			c0,1.011-0.327,1.817-0.98,2.422c-0.654,0.604-1.577,0.906-2.77,0.906h-2.594v3.938l1.273,0.102v0.688h-3.477v-0.688l1.273-0.102
			v-9.789l-1.273-0.102v-0.695h1.273H-46.198z M-48.791-1600.022h2.594c0.938,0,1.642-0.238,2.113-0.715
			c0.471-0.477,0.707-1.077,0.707-1.801c0-0.729-0.234-1.335-0.703-1.816s-1.175-0.723-2.117-0.723h-2.594V-1600.022z"/>
	</g>
</g>
<g transform="matrix(1,0,0,1,596,1706)">
	<g enable-background="new    ">
		<path fill="#6D7FBC" d="M-78.612-1580.093c0-1.891,0.36-3.586,1.082-5.086c0.721-1.5,1.527-2.503,2.418-3.008h0.047l0.203,0.57
			c-0.756,0.536-1.414,1.489-1.977,2.859s-0.844,2.917-0.844,4.641v0.156c0,1.724,0.281,3.271,0.844,4.641s1.221,2.333,1.977,2.891
			l-0.203,0.547h-0.047c-0.901-0.521-1.71-1.516-2.426-2.984c-0.717-1.469-1.074-3.172-1.074-5.109V-1580.093z"/>
		<path fill="#6D7FBC" d="M-65.948-1583.499h-0.766l-0.133-1.609c-0.281-0.354-0.664-0.632-1.148-0.832s-1.053-0.301-1.703-0.301
			c-0.938,0-1.668,0.203-2.191,0.609s-0.785,0.911-0.785,1.516c0,0.573,0.235,1.051,0.707,1.434c0.471,0.383,1.287,0.72,2.449,1.012
			c1.224,0.312,2.154,0.734,2.793,1.266c0.638,0.531,0.957,1.231,0.957,2.102c0,0.906-0.37,1.628-1.109,2.164
			c-0.74,0.536-1.686,0.805-2.836,0.805c-0.812,0-1.566-0.144-2.262-0.43s-1.265-0.695-1.707-1.227v-1.992h0.766l0.133,1.664
			c0.344,0.391,0.783,0.688,1.32,0.891c0.536,0.203,1.119,0.305,1.75,0.305c0.896,0,1.621-0.198,2.176-0.594s0.832-0.919,0.832-1.57
			c0-0.62-0.232-1.126-0.695-1.52c-0.464-0.394-1.271-0.741-2.422-1.043c-1.245-0.312-2.188-0.719-2.828-1.219
			s-0.961-1.175-0.961-2.023c0-0.87,0.364-1.578,1.094-2.125c0.729-0.547,1.669-0.82,2.82-0.82c0.828,0,1.566,0.144,2.215,0.43
			s1.16,0.675,1.535,1.164V-1583.499z"/>
		<path fill="#6D7FBC" d="M-64.244-1579.851c0-1.245,0.341-2.266,1.023-3.062c0.682-0.797,1.586-1.195,2.711-1.195
			c1.13,0,2.036,0.398,2.719,1.195c0.682,0.797,1.023,1.817,1.023,3.062v0.258c0,1.25-0.34,2.272-1.02,3.066
			s-1.582,1.191-2.707,1.191c-1.136,0-2.045-0.397-2.727-1.191c-0.683-0.794-1.023-1.816-1.023-3.066V-1579.851z M-63.307-1579.593
			c0,0.979,0.247,1.802,0.742,2.469c0.494,0.667,1.185,1,2.07,1c0.869,0,1.552-0.333,2.047-1c0.494-0.667,0.742-1.489,0.742-2.469
			v-0.258c0-0.964-0.249-1.781-0.746-2.453c-0.498-0.672-1.184-1.008-2.059-1.008s-1.561,0.336-2.055,1.008
			c-0.495,0.672-0.742,1.489-0.742,2.453V-1579.593z"/>
		<path fill="#6D7FBC" d="M-47.416-1583.499h-0.766l-0.133-1.609c-0.281-0.354-0.664-0.632-1.148-0.832s-1.053-0.301-1.703-0.301
			c-0.938,0-1.668,0.203-2.191,0.609s-0.785,0.911-0.785,1.516c0,0.573,0.235,1.051,0.707,1.434c0.471,0.383,1.287,0.72,2.449,1.012
			c1.224,0.312,2.154,0.734,2.793,1.266c0.638,0.531,0.957,1.231,0.957,2.102c0,0.906-0.37,1.628-1.109,2.164
			c-0.74,0.536-1.686,0.805-2.836,0.805c-0.812,0-1.566-0.144-2.262-0.43s-1.265-0.695-1.707-1.227v-1.992h0.766l0.133,1.664
			c0.344,0.391,0.783,0.688,1.32,0.891c0.536,0.203,1.119,0.305,1.75,0.305c0.896,0,1.621-0.198,2.176-0.594s0.832-0.919,0.832-1.57
			c0-0.62-0.232-1.126-0.695-1.52c-0.464-0.394-1.271-0.741-2.422-1.043c-1.245-0.312-2.188-0.719-2.828-1.219
			s-0.961-1.175-0.961-2.023c0-0.87,0.364-1.578,1.094-2.125c0.729-0.547,1.669-0.82,2.82-0.82c0.828,0,1.566,0.144,2.215,0.43
			s1.16,0.675,1.535,1.164V-1583.499z"/>
		<path fill="#6D7FBC" d="M-41.987-1575.335c-1.062,0-1.943-0.39-2.641-1.168c-0.698-0.778-1.047-1.77-1.047-2.973v-0.43
			c0-1.208,0.348-2.211,1.043-3.008s1.535-1.195,2.52-1.195c1.036,0,1.852,0.328,2.445,0.984s0.891,1.531,0.891,2.625v0.797h-5.969
			v0.227c0,0.948,0.254,1.743,0.762,2.387s1.173,0.965,1.996,0.965c0.578,0,1.072-0.081,1.484-0.242
			c0.411-0.161,0.763-0.394,1.055-0.695l0.398,0.641c-0.318,0.333-0.719,0.598-1.203,0.793S-41.315-1575.335-41.987-1575.335z
			 M-42.112-1583.312c-0.688,0-1.268,0.265-1.738,0.793c-0.472,0.528-0.746,1.191-0.824,1.988l0.016,0.039h4.953v-0.234
			c0-0.734-0.217-1.349-0.648-1.844C-40.786-1583.064-41.372-1583.312-42.112-1583.312z"/>
		<path fill="#6D7FBC" d="M-34.026-1579.976c0,1.938-0.361,3.641-1.082,5.109c-0.722,1.469-1.53,2.464-2.426,2.984l-0.047-0.008
			l-0.195-0.539c0.75-0.531,1.407-1.487,1.973-2.867c0.564-1.38,0.848-2.935,0.848-4.664v-0.156c0-1.714-0.288-3.265-0.863-4.652
			c-0.576-1.388-1.229-2.348-1.957-2.879l0.195-0.539l0.047-0.008c0.885,0.511,1.691,1.516,2.418,3.016s1.09,3.195,1.09,5.086
			V-1579.976z"/>
	</g>
</g>
<g transform="matrix(1,0,0,1,770,1706)">
	<path vector-effect="none" fill="#FFFFFF" d="M-148.503-1705.5H23.498v140h-172.001V-1705.5"/>
</g>
<g transform="matrix(1,0,0,1,770,1706)">
	<path vector-effect="none" fill="none" d="M23.497-1705.5h172.001v140H23.497V-1705.5"/>
</g>
<g transform="matrix(1,0,0,1,770,1706)">
	<path vector-effect="none" fill="none" d="M196.497-1705.5h172.001v140H196.497V-1705.5"/>
</g>
<g transform="matrix(1,0,0,1,770,1706)">
	<path vector-effect="none" fill="#2980B9" d="M-148.503-1705.5H23.498v6h-172.001V-1705.5"/>
</g>
<g transform="matrix(1,0,0,1,770,1706)">
	<g enable-background="new    ">
		<path d="M-120.489-1687.031c0.895,0,1.587,0.228,2.077,0.683s0.735,1.058,0.735,1.808c0,0.758-0.245,1.363-0.735,1.816
			s-1.183,0.68-2.077,0.68h-1.945v2.953l0.955,0.076v0.516h-2.607v-0.516l0.955-0.076v-7.342l-0.955-0.076v-0.521h0.955H-120.489z
			 M-122.434-1682.643h1.945c0.703,0,1.231-0.179,1.585-0.536s0.53-0.808,0.53-1.351c0-0.547-0.176-1.001-0.527-1.362
			s-0.881-0.542-1.588-0.542h-1.945V-1682.643z"/>
		<path d="M-112.145-1678.5c-0.047-0.215-0.08-0.4-0.1-0.557s-0.029-0.314-0.029-0.475c-0.234,0.332-0.547,0.607-0.938,0.826
			s-0.83,0.328-1.318,0.328c-0.621,0-1.102-0.16-1.441-0.48s-0.51-0.754-0.51-1.301c0-0.586,0.252-1.051,0.756-1.395
			s1.188-0.516,2.051-0.516h1.4v-0.838c0-0.453-0.146-0.809-0.437-1.066s-0.698-0.387-1.222-0.387c-0.352,0-0.673,0.048-0.964,0.144
			s-0.534,0.226-0.729,0.39l-0.059,0.85h-0.58l0.006-1.219c0.293-0.227,0.644-0.41,1.052-0.551s0.843-0.211,1.304-0.211
			c0.699,0,1.262,0.178,1.688,0.533s0.639,0.865,0.639,1.529v3.117c0,0.129,0.003,0.253,0.009,0.372s0.019,0.235,0.038,0.349
			l0.633,0.041v0.516H-112.145z M-114.453-1678.998c0.508,0,0.955-0.117,1.342-0.352s0.666-0.537,0.838-0.908v-1.271h-1.412
			c-0.637,0-1.146,0.132-1.526,0.396s-0.571,0.597-0.571,0.999c0,0.34,0.118,0.614,0.354,0.823S-114.867-1678.998-114.453-1678.998z
			"/>
		<path d="M-108.383-1684.84l0.088,1.055v0.076c0.18-0.391,0.425-0.696,0.735-0.917s0.679-0.331,1.104-0.331
			c0.09,0,0.177,0.007,0.261,0.021s0.153,0.028,0.208,0.044l-0.094,0.656l-0.521-0.035c-0.441,0-0.804,0.124-1.087,0.372
			s-0.485,0.589-0.606,1.022v3.785l0.955,0.076v0.516h-2.607v-0.516l0.955-0.076v-5.15l-0.955-0.076v-0.521h0.955H-108.383z"/>
		<path d="M-105.336-1687.119v-0.521h1.652v8.549l0.955,0.076v0.516h-2.607v-0.516l0.955-0.076v-7.951L-105.336-1687.119z"/>
		<path d="M-97.244-1678.5c-0.047-0.215-0.08-0.4-0.1-0.557s-0.029-0.314-0.029-0.475c-0.234,0.332-0.547,0.607-0.938,0.826
			s-0.83,0.328-1.318,0.328c-0.621,0-1.102-0.16-1.441-0.48s-0.51-0.754-0.51-1.301c0-0.586,0.252-1.051,0.756-1.395
			s1.188-0.516,2.051-0.516h1.4v-0.838c0-0.453-0.146-0.809-0.437-1.066s-0.698-0.387-1.222-0.387c-0.352,0-0.673,0.048-0.964,0.144
			s-0.534,0.226-0.729,0.39l-0.059,0.85h-0.58l0.006-1.219c0.293-0.227,0.644-0.41,1.052-0.551s0.843-0.211,1.304-0.211
			c0.699,0,1.262,0.178,1.688,0.533s0.639,0.865,0.639,1.529v3.117c0,0.129,0.003,0.253,0.009,0.372s0.019,0.235,0.038,0.349
			l0.633,0.041v0.516H-97.244z M-99.553-1678.998c0.508,0,0.955-0.117,1.342-0.352s0.666-0.537,0.838-0.908v-1.271h-1.412
			c-0.637,0-1.146,0.132-1.526,0.396s-0.571,0.597-0.571,0.999c0,0.34,0.118,0.614,0.354,0.823S-99.967-1678.998-99.553-1678.998z"
			/>
		<path d="M-95.153-1684.318v-0.521h1.576l0.064,1.049c0.203-0.371,0.475-0.658,0.814-0.861s0.744-0.305,1.213-0.305
			c0.484,0,0.889,0.118,1.213,0.354s0.557,0.597,0.697,1.081c0.191-0.445,0.464-0.796,0.817-1.052s0.784-0.384,1.292-0.384
			c0.676,0,1.198,0.225,1.567,0.674s0.554,1.145,0.554,2.086v3.1l0.955,0.082v0.516h-2.619v-0.516l0.955-0.082v-3.111
			c0-0.781-0.138-1.333-0.413-1.655s-0.659-0.483-1.151-0.483c-0.547,0-0.968,0.174-1.263,0.521s-0.478,0.791-0.548,1.33
			c0,0.031,0.001,0.061,0.003,0.088s0.003,0.062,0.003,0.105v3.211l0.955,0.076v0.516h-2.613v-0.516l0.955-0.076v-3.117
			c0-0.766-0.14-1.313-0.419-1.644s-0.663-0.495-1.151-0.495c-0.5,0-0.896,0.126-1.187,0.378s-0.495,0.591-0.612,1.017v3.861
			l0.955,0.076v0.516h-2.613v-0.516l0.955-0.076v-5.15L-95.153-1684.318z"/>
		<path d="M-80.785-1678.377c-0.797,0-1.457-0.292-1.98-0.876s-0.785-1.327-0.785-2.229v-0.322c0-0.906,0.261-1.658,0.782-2.256
			s1.151-0.896,1.89-0.896c0.777,0,1.389,0.246,1.834,0.738s0.668,1.148,0.668,1.969v0.598h-4.477v0.17
			c0,0.711,0.19,1.308,0.571,1.79s0.88,0.724,1.497,0.724c0.434,0,0.805-0.061,1.113-0.182s0.572-0.295,0.791-0.521l0.299,0.48
			c-0.238,0.25-0.539,0.448-0.902,0.595S-80.281-1678.377-80.785-1678.377z M-80.879-1684.359c-0.516,0-0.95,0.198-1.304,0.595
			s-0.56,0.894-0.618,1.491l0.012,0.029h3.715v-0.176c0-0.551-0.162-1.012-0.486-1.383S-80.324-1684.359-80.879-1684.359z"/>
		<path d="M-77.252-1679.016l0.955-0.076v-5.15l-0.955-0.076v-0.521h1.576l0.064,1.107c0.203-0.391,0.478-0.692,0.823-0.905
			s0.755-0.319,1.228-0.319c0.688,0,1.211,0.21,1.57,0.63s0.539,1.075,0.539,1.966v3.27l0.955,0.076v0.516h-2.613v-0.516
			l0.955-0.076v-3.264c0-0.727-0.136-1.24-0.407-1.541s-0.657-0.451-1.157-0.451c-0.492,0-0.894,0.13-1.204,0.39
			s-0.534,0.604-0.671,1.034v3.832l0.955,0.076v0.516h-2.613V-1679.016z"/>
		<path d="M-67.783-1686.463v1.623h1.395v0.574h-1.395v4.131c0,0.414,0.075,0.708,0.226,0.882s0.351,0.261,0.601,0.261
			c0.113,0,0.224-0.005,0.331-0.015s0.231-0.026,0.372-0.05l0.105,0.521c-0.117,0.051-0.26,0.09-0.428,0.117
			s-0.336,0.041-0.504,0.041c-0.445,0-0.792-0.141-1.04-0.422s-0.372-0.727-0.372-1.336v-4.131h-1.09v-0.574h1.09v-1.623H-67.783z"
			/>
		<path d="M-60.723-1678.5c-0.047-0.215-0.08-0.4-0.1-0.557s-0.029-0.314-0.029-0.475c-0.234,0.332-0.547,0.607-0.938,0.826
			s-0.83,0.328-1.318,0.328c-0.621,0-1.102-0.16-1.441-0.48s-0.51-0.754-0.51-1.301c0-0.586,0.252-1.051,0.756-1.395
			s1.188-0.516,2.051-0.516h1.4v-0.838c0-0.453-0.146-0.809-0.437-1.066s-0.698-0.387-1.222-0.387c-0.352,0-0.673,0.048-0.964,0.144
			s-0.534,0.226-0.729,0.39l-0.059,0.85h-0.58l0.006-1.219c0.293-0.227,0.644-0.41,1.052-0.551s0.843-0.211,1.304-0.211
			c0.699,0,1.262,0.178,1.688,0.533s0.639,0.865,0.639,1.529v3.117c0,0.129,0.003,0.253,0.009,0.372s0.019,0.235,0.038,0.349
			l0.633,0.041v0.516H-60.723z M-63.031-1678.998c0.508,0,0.955-0.117,1.342-0.352s0.666-0.537,0.838-0.908v-1.271h-1.412
			c-0.637,0-1.146,0.132-1.526,0.396s-0.571,0.597-0.571,0.999c0,0.34,0.118,0.614,0.354,0.823S-63.446-1678.998-63.031-1678.998z"
			/>
		<path d="M-56.961-1684.84l0.088,1.055v0.076c0.18-0.391,0.425-0.696,0.735-0.917s0.679-0.331,1.104-0.331
			c0.09,0,0.177,0.007,0.261,0.021s0.153,0.028,0.208,0.044l-0.094,0.656l-0.521-0.035c-0.441,0-0.804,0.124-1.087,0.372
			s-0.485,0.589-0.606,1.022v3.785l0.955,0.076v0.516h-2.607v-0.516l0.955-0.076v-5.15l-0.955-0.076v-0.521h0.955H-56.961z"/>
		<path d="M-53.703-1679.016l0.955-0.076v-5.15l-0.955-0.076v-0.521h1.652v5.748l0.955,0.076v0.516h-2.607V-1679.016z
			 M-52.051-1686.656h-0.697v-0.984h0.697V-1686.656z"/>
		<path d="M-45.319-1682.883h-0.574l-0.082-0.896c-0.176-0.184-0.397-0.326-0.665-0.428s-0.575-0.152-0.923-0.152
			c-0.512,0-0.896,0.11-1.151,0.331s-0.384,0.479-0.384,0.776c0,0.293,0.11,0.535,0.331,0.727s0.661,0.359,1.321,0.504
			c0.754,0.168,1.318,0.397,1.693,0.688s0.562,0.687,0.562,1.187c0,0.527-0.214,0.954-0.642,1.28s-0.993,0.489-1.696,0.489
			c-0.469,0-0.896-0.065-1.28-0.196s-0.718-0.315-0.999-0.554v-1.277h0.568l0.1,0.902c0.188,0.188,0.425,0.323,0.712,0.407
			s0.587,0.126,0.899,0.126c0.508,0,0.908-0.111,1.201-0.334s0.439-0.492,0.439-0.809c0-0.297-0.122-0.557-0.366-0.779
			s-0.685-0.404-1.321-0.545c-0.754-0.164-1.313-0.382-1.679-0.653s-0.548-0.651-0.548-1.14c0-0.484,0.205-0.894,0.615-1.228
			s0.951-0.501,1.623-0.501c0.465,0,0.89,0.071,1.274,0.214s0.698,0.335,0.94,0.577L-45.319-1682.883z"/>
		<path d="M-44.065-1684.318v-0.521h1.576l0.064,1.049c0.203-0.371,0.475-0.658,0.814-0.861s0.744-0.305,1.213-0.305
			c0.484,0,0.889,0.118,1.213,0.354s0.557,0.597,0.697,1.081c0.191-0.445,0.464-0.796,0.817-1.052s0.784-0.384,1.292-0.384
			c0.676,0,1.198,0.225,1.567,0.674s0.554,1.145,0.554,2.086v3.1l0.955,0.082v0.516h-2.619v-0.516l0.955-0.082v-3.111
			c0-0.781-0.138-1.333-0.413-1.655s-0.659-0.483-1.151-0.483c-0.547,0-0.968,0.174-1.263,0.521s-0.478,0.791-0.548,1.33
			c0,0.031,0.001,0.061,0.003,0.088s0.003,0.062,0.003,0.105v3.211l0.955,0.076v0.516h-2.613v-0.516l0.955-0.076v-3.117
			c0-0.766-0.14-1.313-0.419-1.644s-0.663-0.495-1.151-0.495c-0.5,0-0.896,0.126-1.187,0.378s-0.495,0.591-0.612,1.017v3.861
			l0.955,0.076v0.516h-2.613v-0.516l0.955-0.076v-5.15L-44.065-1684.318z"/>
		<path d="M-27.776-1679.543c-0.199,0.371-0.472,0.658-0.817,0.861s-0.753,0.305-1.222,0.305c-0.668,0-1.19-0.227-1.567-0.68
			s-0.565-1.156-0.565-2.109v-3.076l-0.785-0.076v-0.521h0.785h0.697v3.686c0,0.773,0.132,1.328,0.396,1.664
			s0.638,0.504,1.122,0.504c0.531,0,0.954-0.117,1.269-0.352s0.536-0.559,0.665-0.973v-3.932l-0.902-0.076v-0.521h0.902h0.703v5.748
			l0.85,0.076v0.516h-1.465L-27.776-1679.543z"/>
		<path d="M-20.615-1682.883h-0.574l-0.082-0.896c-0.176-0.184-0.397-0.326-0.665-0.428s-0.575-0.152-0.923-0.152
			c-0.512,0-0.896,0.11-1.151,0.331s-0.384,0.479-0.384,0.776c0,0.293,0.11,0.535,0.331,0.727s0.661,0.359,1.321,0.504
			c0.754,0.168,1.318,0.397,1.693,0.688s0.562,0.687,0.562,1.187c0,0.527-0.214,0.954-0.642,1.28s-0.993,0.489-1.696,0.489
			c-0.469,0-0.896-0.065-1.28-0.196s-0.718-0.315-0.999-0.554v-1.277h0.568l0.1,0.902c0.188,0.188,0.425,0.323,0.712,0.407
			s0.587,0.126,0.899,0.126c0.508,0,0.908-0.111,1.201-0.334s0.439-0.492,0.439-0.809c0-0.297-0.122-0.557-0.366-0.779
			s-0.685-0.404-1.321-0.545c-0.754-0.164-1.313-0.382-1.679-0.653s-0.548-0.651-0.548-1.14c0-0.484,0.205-0.894,0.615-1.228
			s0.951-0.501,1.623-0.501c0.465,0,0.89,0.071,1.274,0.214s0.698,0.335,0.94,0.577L-20.615-1682.883z"/>
		<path d="M-11.633-1679.543c-0.199,0.371-0.472,0.658-0.817,0.861s-0.753,0.305-1.222,0.305c-0.668,0-1.19-0.227-1.567-0.68
			s-0.565-1.156-0.565-2.109v-3.076l-0.785-0.076v-0.521h0.785h0.697v3.686c0,0.773,0.132,1.328,0.396,1.664
			s0.638,0.504,1.122,0.504c0.531,0,0.954-0.117,1.269-0.352s0.536-0.559,0.665-0.973v-3.932l-0.902-0.076v-0.521h0.902h0.703v5.748
			l0.85,0.076v0.516h-1.465L-11.633-1679.543z"/>
		<path d="M-9.201-1679.016l0.955-0.076v-5.15l-0.955-0.076v-0.521h1.576l0.064,1.107c0.203-0.391,0.478-0.692,0.823-0.905
			s0.755-0.319,1.228-0.319c0.688,0,1.211,0.21,1.57,0.63s0.539,1.075,0.539,1.966v3.27l0.955,0.076v0.516h-2.613v-0.516
			l0.955-0.076v-3.264c0-0.727-0.136-1.24-0.407-1.541s-0.657-0.451-1.157-0.451c-0.492,0-0.894,0.13-1.204,0.39
			s-0.534,0.604-0.671,1.034v3.832l0.955,0.076v0.516h-2.613V-1679.016z"/>
		<path d="M3.004-1679.414c-0.211,0.332-0.482,0.588-0.814,0.768s-0.723,0.27-1.172,0.27c-0.758,0-1.351-0.283-1.778-0.85
			s-0.642-1.322-0.642-2.268v-0.123c0-1.012,0.214-1.821,0.642-2.429s1.024-0.911,1.79-0.911c0.441,0,0.824,0.093,1.148,0.278
			s0.594,0.45,0.809,0.794v-3.158l-0.955-0.076v-0.521h0.955h0.703v8.549l0.955,0.076v0.516H3.062L3.004-1679.414z M-0.694-1681.494
			c0,0.766,0.153,1.375,0.46,1.828s0.769,0.68,1.386,0.68c0.449,0,0.825-0.102,1.128-0.305s0.538-0.482,0.706-0.838v-3
			c-0.156-0.359-0.382-0.652-0.677-0.879s-0.677-0.34-1.146-0.34c-0.617,0-1.081,0.253-1.392,0.759s-0.466,1.163-0.466,1.972
			V-1681.494z"/>
	</g>
</g>
<g transform="matrix(1,0,0,1,770,1706)">
	<g enable-background="new    ">
		<path d="M-106.489-1673.031c0.895,0,1.587,0.228,2.077,0.683s0.735,1.058,0.735,1.808c0,0.758-0.245,1.363-0.735,1.816
			s-1.183,0.68-2.077,0.68h-1.945v2.953l0.955,0.076v0.516h-2.607v-0.516l0.955-0.076v-7.342l-0.955-0.076v-0.521h0.955H-106.489z
			 M-108.434-1668.643h1.945c0.703,0,1.231-0.179,1.585-0.536s0.53-0.808,0.53-1.351c0-0.547-0.176-1.001-0.527-1.362
			s-0.881-0.542-1.588-0.542h-1.945V-1668.643z"/>
		<path d="M-100.94-1670.84l0.088,1.055v0.076c0.18-0.391,0.425-0.696,0.735-0.917s0.679-0.331,1.104-0.331
			c0.09,0,0.177,0.007,0.261,0.021s0.153,0.028,0.208,0.044l-0.094,0.656l-0.521-0.035c-0.441,0-0.804,0.124-1.087,0.372
			s-0.485,0.589-0.606,1.022v3.785l0.955,0.076v0.516h-2.607v-0.516l0.955-0.076v-5.15l-0.955-0.076v-0.521h0.955H-100.94z"/>
		<path d="M-93.258-1664.5c-0.047-0.215-0.08-0.4-0.1-0.557s-0.029-0.314-0.029-0.475c-0.234,0.332-0.547,0.607-0.938,0.826
			s-0.83,0.328-1.318,0.328c-0.621,0-1.102-0.16-1.441-0.48s-0.51-0.754-0.51-1.301c0-0.586,0.252-1.051,0.756-1.395
			s1.188-0.516,2.051-0.516h1.4v-0.838c0-0.453-0.146-0.809-0.437-1.066s-0.698-0.387-1.222-0.387c-0.352,0-0.673,0.048-0.964,0.144
			s-0.534,0.226-0.729,0.39l-0.059,0.85h-0.58l0.006-1.219c0.293-0.227,0.644-0.41,1.052-0.551s0.843-0.211,1.304-0.211
			c0.699,0,1.262,0.178,1.688,0.533s0.639,0.865,0.639,1.529v3.117c0,0.129,0.003,0.253,0.009,0.372s0.019,0.235,0.038,0.349
			l0.633,0.041v0.516H-93.258z M-95.918-1672.223h-1.02v-0.92h1.02V-1672.223z M-95.567-1664.998c0.508,0,0.955-0.117,1.342-0.352
			s0.666-0.537,0.838-0.908v-1.271h-1.412c-0.637,0-1.146,0.132-1.526,0.396s-0.571,0.597-0.571,0.999
			c0,0.34,0.118,0.614,0.354,0.823S-95.981-1664.998-95.567-1664.998z M-93.17-1672.223h-1.014v-0.92h1.014V-1672.223z"/>
		<path d="M-86.414-1668.883h-0.574l-0.082-0.896c-0.176-0.184-0.397-0.326-0.665-0.428s-0.575-0.152-0.923-0.152
			c-0.512,0-0.896,0.11-1.151,0.331s-0.384,0.479-0.384,0.776c0,0.293,0.11,0.535,0.331,0.727s0.661,0.359,1.321,0.504
			c0.754,0.168,1.318,0.397,1.693,0.688s0.562,0.687,0.562,1.187c0,0.527-0.214,0.954-0.642,1.28s-0.993,0.489-1.696,0.489
			c-0.469,0-0.896-0.065-1.28-0.196s-0.718-0.315-0.999-0.554v-1.277h0.568l0.1,0.902c0.188,0.188,0.425,0.323,0.712,0.407
			s0.587,0.126,0.899,0.126c0.508,0,0.908-0.111,1.201-0.334s0.439-0.492,0.439-0.809c0-0.297-0.122-0.557-0.366-0.779
			s-0.685-0.404-1.321-0.545c-0.754-0.164-1.313-0.382-1.679-0.653s-0.548-0.651-0.548-1.14c0-0.484,0.205-0.894,0.615-1.228
			s0.951-0.501,1.623-0.501c0.465,0,0.89,0.071,1.274,0.214s0.698,0.335,0.94,0.577L-86.414-1668.883z"/>
		<path d="M-85.055-1665.016l0.955-0.076v-5.15l-0.955-0.076v-0.521h1.652v5.748l0.955,0.076v0.516h-2.607V-1665.016z
			 M-83.403-1672.656H-84.1v-0.984h0.697V-1672.656z"/>
		<path d="M-76.864-1665.414c-0.211,0.332-0.482,0.588-0.814,0.768s-0.723,0.27-1.172,0.27c-0.758,0-1.351-0.283-1.778-0.85
			s-0.642-1.322-0.642-2.268v-0.123c0-1.012,0.214-1.821,0.642-2.429s1.024-0.911,1.79-0.911c0.441,0,0.824,0.093,1.148,0.278
			s0.594,0.45,0.809,0.794v-3.158l-0.955-0.076v-0.521h0.955h0.703v8.549l0.955,0.076v0.516h-1.582L-76.864-1665.414z
			 M-80.561-1667.494c0,0.766,0.153,1.375,0.46,1.828s0.769,0.68,1.386,0.68c0.449,0,0.825-0.102,1.128-0.305
			s0.538-0.482,0.706-0.838v-3c-0.156-0.359-0.382-0.652-0.677-0.879s-0.677-0.34-1.146-0.34c-0.617,0-1.081,0.253-1.392,0.759
			s-0.466,1.163-0.466,1.972V-1667.494z"/>
		<path d="M-71.35-1664.377c-0.797,0-1.457-0.292-1.98-0.876s-0.785-1.327-0.785-2.229v-0.322c0-0.906,0.261-1.658,0.782-2.256
			s1.151-0.896,1.89-0.896c0.777,0,1.389,0.246,1.834,0.738s0.668,1.148,0.668,1.969v0.598h-4.477v0.17
			c0,0.711,0.19,1.308,0.571,1.79s0.88,0.724,1.497,0.724c0.434,0,0.805-0.061,1.113-0.182s0.572-0.295,0.791-0.521l0.299,0.48
			c-0.238,0.25-0.539,0.448-0.902,0.595S-70.846-1664.377-71.35-1664.377z M-71.444-1670.359c-0.516,0-0.95,0.198-1.304,0.595
			s-0.56,0.894-0.618,1.491l0.012,0.029h3.715v-0.176c0-0.551-0.162-1.012-0.486-1.383S-70.889-1670.359-71.444-1670.359z"/>
		<path d="M-67.817-1665.016l0.955-0.076v-5.15l-0.955-0.076v-0.521h1.576l0.064,1.107c0.203-0.391,0.478-0.692,0.823-0.905
			s0.755-0.319,1.228-0.319c0.688,0,1.211,0.21,1.57,0.63s0.539,1.075,0.539,1.966v3.27l0.955,0.076v0.516h-2.613v-0.516
			l0.955-0.076v-3.264c0-0.727-0.136-1.24-0.407-1.541s-0.657-0.451-1.157-0.451c-0.492,0-0.894,0.13-1.204,0.39
			s-0.534,0.604-0.671,1.034v3.832l0.955,0.076v0.516h-2.613V-1665.016z"/>
		<path d="M-58.348-1672.463v1.623h1.395v0.574h-1.395v4.131c0,0.414,0.075,0.708,0.226,0.882s0.351,0.261,0.601,0.261
			c0.113,0,0.224-0.005,0.331-0.015s0.231-0.026,0.372-0.05l0.105,0.521c-0.117,0.051-0.26,0.09-0.428,0.117
			s-0.336,0.041-0.504,0.041c-0.445,0-0.792-0.141-1.04-0.422s-0.372-0.727-0.372-1.336v-4.131h-1.09v-0.574h1.09v-1.623H-58.348z"
			/>
		<path d="M-55.711-1665.016l0.955-0.076v-5.15l-0.955-0.076v-0.521h1.652v5.748l0.955,0.076v0.516h-2.607V-1665.016z
			 M-54.059-1672.656h-0.697v-0.984h0.697V-1672.656z"/>
		<path d="M-47.549-1664.5c-0.047-0.215-0.08-0.4-0.1-0.557s-0.029-0.314-0.029-0.475c-0.234,0.332-0.547,0.607-0.938,0.826
			s-0.83,0.328-1.318,0.328c-0.621,0-1.102-0.16-1.441-0.48s-0.51-0.754-0.51-1.301c0-0.586,0.252-1.051,0.756-1.395
			s1.188-0.516,2.051-0.516h1.4v-0.838c0-0.453-0.146-0.809-0.437-1.066s-0.698-0.387-1.222-0.387c-0.352,0-0.673,0.048-0.964,0.144
			s-0.534,0.226-0.729,0.39l-0.059,0.85h-0.58l0.006-1.219c0.293-0.227,0.644-0.41,1.052-0.551s0.843-0.211,1.304-0.211
			c0.699,0,1.262,0.178,1.688,0.533s0.639,0.865,0.639,1.529v3.117c0,0.129,0.003,0.253,0.009,0.372s0.019,0.235,0.038,0.349
			l0.633,0.041v0.516H-47.549z M-49.858-1664.998c0.508,0,0.955-0.117,1.342-0.352s0.666-0.537,0.838-0.908v-1.271h-1.412
			c-0.637,0-1.146,0.132-1.526,0.396s-0.571,0.597-0.571,0.999c0,0.34,0.118,0.614,0.354,0.823S-50.272-1664.998-49.858-1664.998z"
			/>
		<path d="M-45.446-1673.119v-0.521h1.652v8.549l0.955,0.076v0.516h-2.607v-0.516l0.955-0.076v-7.951L-45.446-1673.119z"/>
		<path d="M-41.778-1665.016l0.955-0.076v-5.15l-0.955-0.076v-0.521h1.652v5.748l0.955,0.076v0.516h-2.607V-1665.016z
			 M-40.125-1672.656h-0.697v-0.984h0.697V-1672.656z"/>
		<path d="M-33.393-1668.883h-0.574l-0.082-0.896c-0.176-0.184-0.397-0.326-0.665-0.428s-0.575-0.152-0.923-0.152
			c-0.512,0-0.896,0.11-1.151,0.331s-0.384,0.479-0.384,0.776c0,0.293,0.11,0.535,0.331,0.727s0.661,0.359,1.321,0.504
			c0.754,0.168,1.318,0.397,1.693,0.688s0.562,0.687,0.562,1.187c0,0.527-0.214,0.954-0.642,1.28s-0.993,0.489-1.696,0.489
			c-0.469,0-0.896-0.065-1.28-0.196s-0.718-0.315-0.999-0.554v-1.277h0.568l0.1,0.902c0.188,0.188,0.425,0.323,0.712,0.407
			s0.587,0.126,0.899,0.126c0.508,0,0.908-0.111,1.201-0.334s0.439-0.492,0.439-0.809c0-0.297-0.122-0.557-0.366-0.779
			s-0.685-0.404-1.321-0.545c-0.754-0.164-1.313-0.382-1.679-0.653s-0.548-0.651-0.548-1.14c0-0.484,0.205-0.894,0.615-1.228
			s0.951-0.501,1.623-0.501c0.465,0,0.89,0.071,1.274,0.214s0.698,0.335,0.94,0.577L-33.393-1668.883z"/>
		<path d="M-32.139-1670.318v-0.521h1.576l0.064,1.049c0.203-0.371,0.475-0.658,0.814-0.861s0.744-0.305,1.213-0.305
			c0.484,0,0.889,0.118,1.213,0.354s0.557,0.597,0.697,1.081c0.191-0.445,0.464-0.796,0.817-1.052s0.784-0.384,1.292-0.384
			c0.676,0,1.198,0.225,1.567,0.674s0.554,1.145,0.554,2.086v3.1l0.955,0.082v0.516h-2.619v-0.516l0.955-0.082v-3.111
			c0-0.781-0.138-1.333-0.413-1.655s-0.659-0.483-1.151-0.483c-0.547,0-0.968,0.174-1.263,0.521s-0.478,0.791-0.548,1.33
			c0,0.031,0.001,0.061,0.003,0.088s0.003,0.062,0.003,0.105v3.211l0.955,0.076v0.516h-2.613v-0.516l0.955-0.076v-3.117
			c0-0.766-0.14-1.313-0.419-1.644s-0.663-0.495-1.151-0.495c-0.5,0-0.896,0.126-1.187,0.378s-0.495,0.591-0.612,1.017v3.861
			l0.955,0.076v0.516h-2.613v-0.516l0.955-0.076v-5.15L-32.139-1670.318z"/>
		<path d="M-15.85-1665.543c-0.199,0.371-0.472,0.658-0.817,0.861s-0.753,0.305-1.222,0.305c-0.668,0-1.19-0.227-1.567-0.68
			s-0.565-1.156-0.565-2.109v-3.076l-0.785-0.076v-0.521h0.785h0.697v3.686c0,0.773,0.132,1.328,0.396,1.664
			s0.638,0.504,1.122,0.504c0.531,0,0.954-0.117,1.269-0.352s0.536-0.559,0.665-0.973v-3.932l-0.902-0.076v-0.521h0.902h0.703v5.748
			l0.85,0.076v0.516h-1.465L-15.85-1665.543z"/>
		<path d="M-8.69-1668.883h-0.574l-0.082-0.896c-0.176-0.184-0.397-0.326-0.665-0.428s-0.575-0.152-0.923-0.152
			c-0.512,0-0.896,0.11-1.151,0.331s-0.384,0.479-0.384,0.776c0,0.293,0.11,0.535,0.331,0.727s0.661,0.359,1.321,0.504
			c0.754,0.168,1.318,0.397,1.693,0.688s0.562,0.687,0.562,1.187c0,0.527-0.214,0.954-0.642,1.28s-0.993,0.489-1.696,0.489
			c-0.469,0-0.896-0.065-1.28-0.196s-0.718-0.315-0.999-0.554v-1.277h0.568l0.1,0.902c0.188,0.188,0.425,0.323,0.712,0.407
			s0.587,0.126,0.899,0.126c0.508,0,0.908-0.111,1.201-0.334s0.439-0.492,0.439-0.809c0-0.297-0.122-0.557-0.366-0.779
			s-0.685-0.404-1.321-0.545c-0.754-0.164-1.313-0.382-1.679-0.653s-0.548-0.651-0.548-1.14c0-0.484,0.205-0.894,0.615-1.228
			s0.951-0.501,1.623-0.501c0.465,0,0.89,0.071,1.274,0.214s0.698,0.335,0.94,0.577L-8.69-1668.883z"/>
	</g>
</g>
<g transform="matrix(1,0,0,1,770,1706)">
	<g enable-background="new    ">
		<path fill="#6D7FBC" d="M-66.541-1604.022l-0.094-0.984h-4.062l-0.422,4.055c0.286-0.261,0.602-0.461,0.945-0.602
			s0.81-0.219,1.398-0.234c0.969-0.016,1.75,0.31,2.344,0.977s0.891,1.562,0.891,2.688c0,1.151-0.289,2.07-0.867,2.758
			s-1.445,1.031-2.602,1.031c-0.938,0-1.718-0.262-2.34-0.785c-0.623-0.523-0.921-1.298-0.895-2.324l0.016-0.047h0.836
			c0,0.766,0.216,1.352,0.648,1.758c0.432,0.406,1.01,0.609,1.734,0.609c0.849,0,1.482-0.255,1.902-0.766
			c0.419-0.511,0.629-1.25,0.629-2.219c0-0.849-0.21-1.53-0.629-2.043c-0.42-0.513-1.007-0.77-1.762-0.77
			c-0.729,0-1.285,0.116-1.668,0.348s-0.66,0.582-0.832,1.051l-0.758-0.125l0.625-6.227h5.719v1.852H-66.541z"/>
		<path fill="#6D7FBC" d="M-60.198-1594.499v-0.688l1.273-0.102v-9.789l-1.273-0.102v-0.695h1.273h0.938h1.273v0.695l-1.273,0.102
			v9.789h4.727l0.07-1.602h0.828v2.391H-60.198z"/>
		<path fill="#6D7FBC" d="M-46.198-1605.874c1.192,0,2.115,0.304,2.77,0.91c0.653,0.606,0.98,1.41,0.98,2.41
			c0,1.011-0.327,1.817-0.98,2.422c-0.654,0.604-1.577,0.906-2.77,0.906h-2.594v3.938l1.273,0.102v0.688h-3.477v-0.688l1.273-0.102
			v-9.789l-1.273-0.102v-0.695h1.273H-46.198z M-48.791-1600.022h2.594c0.938,0,1.642-0.238,2.113-0.715
			c0.471-0.477,0.707-1.077,0.707-1.801c0-0.729-0.234-1.335-0.703-1.816s-1.175-0.723-2.117-0.723h-2.594V-1600.022z"/>
	</g>
</g>
<g transform="matrix(1,0,0,1,770,1706)">
	<g enable-background="new    ">
		<path fill="#6D7FBC" d="M-78.612-1580.093c0-1.891,0.36-3.586,1.082-5.086c0.721-1.5,1.527-2.503,2.418-3.008h0.047l0.203,0.57
			c-0.756,0.536-1.414,1.489-1.977,2.859s-0.844,2.917-0.844,4.641v0.156c0,1.724,0.281,3.271,0.844,4.641s1.221,2.333,1.977,2.891
			l-0.203,0.547h-0.047c-0.901-0.521-1.71-1.516-2.426-2.984c-0.717-1.469-1.074-3.172-1.074-5.109V-1580.093z"/>
		<path fill="#6D7FBC" d="M-65.948-1583.499h-0.766l-0.133-1.609c-0.281-0.354-0.664-0.632-1.148-0.832s-1.053-0.301-1.703-0.301
			c-0.938,0-1.668,0.203-2.191,0.609s-0.785,0.911-0.785,1.516c0,0.573,0.235,1.051,0.707,1.434c0.471,0.383,1.287,0.72,2.449,1.012
			c1.224,0.312,2.154,0.734,2.793,1.266c0.638,0.531,0.957,1.231,0.957,2.102c0,0.906-0.37,1.628-1.109,2.164
			c-0.74,0.536-1.686,0.805-2.836,0.805c-0.812,0-1.566-0.144-2.262-0.43s-1.265-0.695-1.707-1.227v-1.992h0.766l0.133,1.664
			c0.344,0.391,0.783,0.688,1.32,0.891c0.536,0.203,1.119,0.305,1.75,0.305c0.896,0,1.621-0.198,2.176-0.594s0.832-0.919,0.832-1.57
			c0-0.62-0.232-1.126-0.695-1.52c-0.464-0.394-1.271-0.741-2.422-1.043c-1.245-0.312-2.188-0.719-2.828-1.219
			s-0.961-1.175-0.961-2.023c0-0.87,0.364-1.578,1.094-2.125c0.729-0.547,1.669-0.82,2.82-0.82c0.828,0,1.566,0.144,2.215,0.43
			s1.16,0.675,1.535,1.164V-1583.499z"/>
		<path fill="#6D7FBC" d="M-64.244-1579.851c0-1.245,0.341-2.266,1.023-3.062c0.682-0.797,1.586-1.195,2.711-1.195
			c1.13,0,2.036,0.398,2.719,1.195c0.682,0.797,1.023,1.817,1.023,3.062v0.258c0,1.25-0.34,2.272-1.02,3.066
			s-1.582,1.191-2.707,1.191c-1.136,0-2.045-0.397-2.727-1.191c-0.683-0.794-1.023-1.816-1.023-3.066V-1579.851z M-63.307-1579.593
			c0,0.979,0.247,1.802,0.742,2.469c0.494,0.667,1.185,1,2.07,1c0.869,0,1.552-0.333,2.047-1c0.494-0.667,0.742-1.489,0.742-2.469
			v-0.258c0-0.964-0.249-1.781-0.746-2.453c-0.498-0.672-1.184-1.008-2.059-1.008s-1.561,0.336-2.055,1.008
			c-0.495,0.672-0.742,1.489-0.742,2.453V-1579.593z"/>
		<path fill="#6D7FBC" d="M-47.416-1583.499h-0.766l-0.133-1.609c-0.281-0.354-0.664-0.632-1.148-0.832s-1.053-0.301-1.703-0.301
			c-0.938,0-1.668,0.203-2.191,0.609s-0.785,0.911-0.785,1.516c0,0.573,0.235,1.051,0.707,1.434c0.471,0.383,1.287,0.72,2.449,1.012
			c1.224,0.312,2.154,0.734,2.793,1.266c0.638,0.531,0.957,1.231,0.957,2.102c0,0.906-0.37,1.628-1.109,2.164
			c-0.74,0.536-1.686,0.805-2.836,0.805c-0.812,0-1.566-0.144-2.262-0.43s-1.265-0.695-1.707-1.227v-1.992h0.766l0.133,1.664
			c0.344,0.391,0.783,0.688,1.32,0.891c0.536,0.203,1.119,0.305,1.75,0.305c0.896,0,1.621-0.198,2.176-0.594s0.832-0.919,0.832-1.57
			c0-0.62-0.232-1.126-0.695-1.52c-0.464-0.394-1.271-0.741-2.422-1.043c-1.245-0.312-2.188-0.719-2.828-1.219
			s-0.961-1.175-0.961-2.023c0-0.87,0.364-1.578,1.094-2.125c0.729-0.547,1.669-0.82,2.82-0.82c0.828,0,1.566,0.144,2.215,0.43
			s1.16,0.675,1.535,1.164V-1583.499z"/>
		<path fill="#6D7FBC" d="M-41.987-1575.335c-1.062,0-1.943-0.39-2.641-1.168c-0.698-0.778-1.047-1.77-1.047-2.973v-0.43
			c0-1.208,0.348-2.211,1.043-3.008s1.535-1.195,2.52-1.195c1.036,0,1.852,0.328,2.445,0.984s0.891,1.531,0.891,2.625v0.797h-5.969
			v0.227c0,0.948,0.254,1.743,0.762,2.387s1.173,0.965,1.996,0.965c0.578,0,1.072-0.081,1.484-0.242
			c0.411-0.161,0.763-0.394,1.055-0.695l0.398,0.641c-0.318,0.333-0.719,0.598-1.203,0.793S-41.315-1575.335-41.987-1575.335z
			 M-42.112-1583.312c-0.688,0-1.268,0.265-1.738,0.793c-0.472,0.528-0.746,1.191-0.824,1.988l0.016,0.039h4.953v-0.234
			c0-0.734-0.217-1.349-0.648-1.844C-40.786-1583.064-41.372-1583.312-42.112-1583.312z"/>
		<path fill="#6D7FBC" d="M-34.026-1579.976c0,1.938-0.361,3.641-1.082,5.109c-0.722,1.469-1.53,2.464-2.426,2.984l-0.047-0.008
			l-0.195-0.539c0.75-0.531,1.407-1.487,1.973-2.867c0.564-1.38,0.848-2.935,0.848-4.664v-0.156c0-1.714-0.288-3.265-0.863-4.652
			c-0.576-1.388-1.229-2.348-1.957-2.879l0.195-0.539l0.047-0.008c0.885,0.511,1.691,1.516,2.418,3.016s1.09,3.195,1.09,5.086
			V-1579.976z"/>
	</g>
</g>
</svg>
