<?xml version="1.0" encoding="utf-8"?>
<!DOCTYPE svg PUBLIC "-//W3C//DTD SVG 1.1//EN" "http://www.w3.org/Graphics/SVG/1.1/DTD/svg11.dtd">
<svg version="1.1" id="Layer_1" xmlns="http://www.w3.org/2000/svg" xmlns:xlink="http://www.w3.org/1999/xlink" x="0px" y="0px"
	 width="1138.5px" height="139px" viewBox="0 0 1138.5 139" enable-background="new 0 0 1138.5 139" xml:space="preserve">
<g transform="matrix(1,0,0,1,0,0)">
	<path vector-effect="none" fill="#6D7FBC" d="M0.498-0.5h99v140h-99V-0.5"/>
</g>
<g transform="matrix(1,0,0,1,0,0)">
	<g enable-background="new    ">
		<path fill="#FFFFFF" d="M11.387,45.908c0-1.891,0.36-3.586,1.082-5.086c0.721-1.5,1.527-2.503,2.418-3.008h0.047l0.203,0.57
			c-0.755,0.536-1.414,1.489-1.977,2.859s-0.844,2.917-0.844,4.641v0.156c0,1.724,0.281,3.271,0.844,4.641s1.221,2.333,1.977,2.891
			l-0.203,0.547h-0.047c-0.901-0.521-1.71-1.516-2.426-2.984c-0.716-1.469-1.074-3.172-1.074-5.109V45.908z"/>
		<path fill="#FFFFFF" d="M16.255,50.502v-0.719l3.727-4.227c0.692-0.781,1.181-1.433,1.465-1.953
			c0.284-0.521,0.426-1.021,0.426-1.5c0-0.703-0.201-1.27-0.602-1.699c-0.401-0.43-0.964-0.645-1.688-0.645
			c-0.865,0-1.521,0.239-1.969,0.719c-0.448,0.479-0.672,1.12-0.672,1.922h-0.867l-0.016-0.047c-0.026-0.948,0.28-1.75,0.918-2.406
			c0.638-0.656,1.506-0.984,2.605-0.984c0.979,0,1.762,0.281,2.348,0.844s0.879,1.317,0.879,2.266c0,0.625-0.197,1.259-0.59,1.902
			c-0.394,0.644-0.939,1.36-1.637,2.152l-3.141,3.547l0.016,0.039h4.961l0.078-1.602h0.828v2.391H16.255z"/>
		<path fill="#FFFFFF" d="M34.669,50.502c-0.062-0.286-0.107-0.534-0.133-0.742c-0.026-0.208-0.039-0.419-0.039-0.633
			c-0.312,0.442-0.729,0.81-1.25,1.102c-0.521,0.292-1.107,0.438-1.758,0.438c-0.828,0-1.469-0.214-1.922-0.641
			s-0.68-1.005-0.68-1.734c0-0.781,0.336-1.401,1.008-1.859s1.583-0.688,2.734-0.688h1.867v-1.117c0-0.604-0.194-1.078-0.582-1.422
			c-0.388-0.344-0.931-0.516-1.629-0.516c-0.469,0-0.897,0.063-1.285,0.191c-0.388,0.128-0.712,0.301-0.973,0.52l-0.078,1.133
			h-0.773l0.008-1.625c0.391-0.302,0.858-0.547,1.402-0.734c0.544-0.188,1.124-0.281,1.738-0.281c0.932,0,1.682,0.237,2.25,0.711
			c0.567,0.474,0.852,1.153,0.852,2.039v4.156c0,0.172,0.004,0.337,0.012,0.496s0.024,0.313,0.051,0.465l0.844,0.055v0.688H34.669z
			 M31.591,49.838c0.677,0,1.273-0.156,1.789-0.469s0.888-0.716,1.117-1.211v-1.695h-1.883c-0.849,0-1.527,0.176-2.035,0.527
			s-0.762,0.796-0.762,1.332c0,0.453,0.157,0.819,0.473,1.098C30.605,49.698,31.038,49.838,31.591,49.838z"/>
		<path fill="#FFFFFF" d="M43.872,49.111c-0.266,0.495-0.629,0.878-1.09,1.148s-1.004,0.406-1.629,0.406
			c-0.891,0-1.587-0.302-2.09-0.906c-0.503-0.604-0.754-1.542-0.754-2.812v-4.102l-1.047-0.102v-0.695h1.047h0.93v4.914
			c0,1.031,0.176,1.771,0.527,2.219s0.85,0.672,1.496,0.672c0.708,0,1.272-0.156,1.691-0.469c0.419-0.312,0.715-0.745,0.887-1.297
			v-5.242l-1.203-0.102v-0.695h1.203h0.938v7.664l1.133,0.102v0.688h-1.953L43.872,49.111z"/>
		<path fill="#FFFFFF" d="M53.419,44.658h-0.766l-0.109-1.195c-0.234-0.245-0.53-0.435-0.887-0.57
			c-0.357-0.136-0.767-0.203-1.23-0.203c-0.683,0-1.194,0.147-1.535,0.441c-0.341,0.294-0.512,0.64-0.512,1.035
			c0,0.391,0.147,0.714,0.441,0.969c0.294,0.255,0.881,0.479,1.762,0.672c1.005,0.224,1.758,0.53,2.258,0.918s0.75,0.915,0.75,1.582
			c0,0.703-0.285,1.272-0.855,1.707s-1.324,0.652-2.262,0.652c-0.625,0-1.194-0.087-1.707-0.262
			c-0.513-0.175-0.957-0.421-1.332-0.738v-1.703h0.758l0.133,1.203c0.25,0.25,0.566,0.431,0.949,0.543s0.782,0.168,1.199,0.168
			c0.677,0,1.211-0.148,1.602-0.445s0.586-0.656,0.586-1.078c0-0.396-0.163-0.742-0.488-1.039c-0.326-0.297-0.913-0.539-1.762-0.727
			c-1.005-0.219-1.751-0.509-2.238-0.871c-0.487-0.362-0.73-0.868-0.73-1.52c0-0.646,0.273-1.191,0.82-1.637
			s1.268-0.668,2.164-0.668c0.62,0,1.186,0.095,1.699,0.285c0.513,0.19,0.931,0.446,1.254,0.77L53.419,44.658z"/>
		<path fill="#FFFFFF" d="M65.177,46.838h1.781v0.789h-1.781v2.086l1.273,0.102v0.688h-3.477v-0.688l1.273-0.102v-2.086h-5.328
			v-0.531l5.234-7.969h1.023V46.838z M60.028,46.838h4.219v-6.484L64.2,40.338l-0.398,0.852L60.028,46.838z"/>
		<path fill="#FFFFFF" d="M71.466,46.025c0,1.938-0.361,3.641-1.082,5.109c-0.722,1.469-1.53,2.464-2.426,2.984l-0.047-0.008
			l-0.195-0.539c0.75-0.531,1.407-1.487,1.973-2.867c0.565-1.38,0.848-2.935,0.848-4.664v-0.156c0-1.714-0.288-3.265-0.863-4.652
			c-0.576-1.388-1.228-2.348-1.957-2.879l0.195-0.539l0.047-0.008c0.885,0.511,1.691,1.516,2.418,3.016s1.09,3.195,1.09,5.086
			V46.025z"/>
	</g>
</g>
<g transform="matrix(1,0,0,1,249,2170)">
	<path vector-effect="none" fill="#FFFFFF" d="M-149.502-2170.5H23.497v140h-172.999V-2170.5"/>
</g>
<g transform="matrix(1,0,0,1,249,2170)">
	<path vector-effect="none" fill="#90C695" d="M-149.502-2170.5H23.497v6h-172.999V-2170.5"/>
</g>
<g transform="matrix(1,0,0,1,249,2170)">
	<g enable-background="new    ">
		<path d="M-99.564-2149.498h-0.574l-0.1-1.207c-0.211-0.266-0.498-0.474-0.861-0.624s-0.789-0.226-1.277-0.226
			c-0.703,0-1.251,0.152-1.644,0.457s-0.589,0.684-0.589,1.137c0,0.43,0.177,0.788,0.53,1.075s0.966,0.54,1.837,0.759
			c0.918,0.234,1.616,0.551,2.095,0.949s0.718,0.924,0.718,1.576c0,0.68-0.277,1.221-0.832,1.623s-1.264,0.604-2.127,0.604
			c-0.609,0-1.175-0.107-1.696-0.322s-0.948-0.521-1.28-0.92v-1.494h0.574l0.1,1.248c0.258,0.293,0.588,0.516,0.99,0.668
			s0.84,0.229,1.312,0.229c0.672,0,1.216-0.148,1.632-0.445s0.624-0.689,0.624-1.178c0-0.465-0.174-0.845-0.521-1.14
			s-0.953-0.556-1.816-0.782c-0.934-0.234-1.641-0.539-2.121-0.914s-0.721-0.881-0.721-1.518c0-0.652,0.273-1.184,0.82-1.594
			s1.252-0.615,2.115-0.615c0.621,0,1.175,0.107,1.661,0.322s0.87,0.506,1.151,0.873V-2149.498z"/>
		<path d="M-96.675-2151.461v1.623h1.395v0.574h-1.395v4.131c0,0.414,0.075,0.708,0.226,0.882s0.351,0.261,0.601,0.261
			c0.113,0,0.224-0.005,0.331-0.015s0.231-0.026,0.372-0.05l0.105,0.521c-0.117,0.051-0.26,0.09-0.428,0.117
			s-0.336,0.041-0.504,0.041c-0.445,0-0.792-0.141-1.04-0.422s-0.372-0.727-0.372-1.336v-4.131h-1.09v-0.574h1.09v-1.623H-96.675z"
			/>
		<path d="M-89.615-2143.498c-0.047-0.215-0.08-0.4-0.1-0.557s-0.029-0.314-0.029-0.475c-0.234,0.332-0.547,0.607-0.938,0.826
			s-0.83,0.328-1.318,0.328c-0.621,0-1.102-0.16-1.441-0.48s-0.51-0.754-0.51-1.301c0-0.586,0.252-1.051,0.756-1.395
			s1.188-0.516,2.051-0.516h1.4v-0.838c0-0.453-0.146-0.809-0.437-1.066s-0.698-0.387-1.222-0.387c-0.352,0-0.673,0.048-0.964,0.144
			s-0.534,0.226-0.729,0.39l-0.059,0.85h-0.58l0.006-1.219c0.293-0.227,0.644-0.41,1.052-0.551s0.843-0.211,1.304-0.211
			c0.699,0,1.262,0.178,1.688,0.533s0.639,0.865,0.639,1.529v3.117c0,0.129,0.003,0.253,0.009,0.372s0.019,0.235,0.038,0.349
			l0.633,0.041v0.516H-89.615z M-91.923-2143.996c0.508,0,0.955-0.117,1.342-0.352s0.666-0.537,0.838-0.908v-1.271h-1.412
			c-0.637,0-1.146,0.132-1.526,0.396s-0.571,0.597-0.571,0.999c0,0.34,0.118,0.614,0.354,0.823S-92.337-2143.996-91.923-2143.996z"
			/>
		<path d="M-82.993-2143.498c-0.047-0.215-0.08-0.4-0.1-0.557s-0.029-0.314-0.029-0.475c-0.234,0.332-0.547,0.607-0.938,0.826
			s-0.83,0.328-1.318,0.328c-0.621,0-1.102-0.16-1.441-0.48s-0.51-0.754-0.51-1.301c0-0.586,0.252-1.051,0.756-1.395
			s1.188-0.516,2.051-0.516h1.4v-0.838c0-0.453-0.146-0.809-0.437-1.066s-0.698-0.387-1.222-0.387c-0.352,0-0.673,0.048-0.964,0.144
			s-0.534,0.226-0.729,0.39l-0.059,0.85h-0.58l0.006-1.219c0.293-0.227,0.644-0.41,1.052-0.551s0.843-0.211,1.304-0.211
			c0.699,0,1.262,0.178,1.688,0.533s0.639,0.865,0.639,1.529v3.117c0,0.129,0.003,0.253,0.009,0.372s0.019,0.235,0.038,0.349
			l0.633,0.041v0.516H-82.993z M-85.302-2143.996c0.508,0,0.955-0.117,1.342-0.352s0.666-0.537,0.838-0.908v-1.271h-1.412
			c-0.637,0-1.146,0.132-1.526,0.396s-0.571,0.597-0.571,0.999c0,0.34,0.118,0.614,0.354,0.823S-85.716-2143.996-85.302-2143.996z"
			/>
		<path d="M-79.138-2151.461v1.623h1.395v0.574h-1.395v4.131c0,0.414,0.075,0.708,0.226,0.882s0.351,0.261,0.601,0.261
			c0.113,0,0.224-0.005,0.331-0.015s0.231-0.026,0.372-0.05l0.105,0.521c-0.117,0.051-0.26,0.09-0.428,0.117
			s-0.336,0.041-0.504,0.041c-0.445,0-0.792-0.141-1.04-0.422s-0.372-0.727-0.372-1.336v-4.131h-1.09v-0.574h1.09v-1.623H-79.138z"
			/>
		<path d="M-75.435-2143.779c0,0.359-0.073,0.711-0.22,1.055s-0.347,0.635-0.601,0.873l-0.416-0.305
			c0.184-0.258,0.319-0.514,0.407-0.768s0.132-0.535,0.132-0.844v-0.832h0.697V-2143.779z"/>
		<path d="M-69.288-2151.508l-0.797,0.064l2.355,6.504l0.17,0.568h0.035l0.17-0.568l2.35-6.504l-0.797-0.064v-0.521h2.215v0.521
			l-0.662,0.053l-2.965,7.957h-0.662l-2.971-7.957l-0.656-0.053v-0.521h2.215V-2151.508z"/>
		<path d="M-60.177-2143.375c-0.797,0-1.457-0.292-1.98-0.876s-0.785-1.327-0.785-2.229v-0.322c0-0.906,0.261-1.658,0.782-2.256
			s1.151-0.896,1.89-0.896c0.777,0,1.389,0.246,1.834,0.738s0.668,1.148,0.668,1.969v0.598h-4.477v0.17
			c0,0.711,0.19,1.308,0.571,1.79s0.88,0.724,1.497,0.724c0.434,0,0.805-0.061,1.113-0.182s0.572-0.295,0.791-0.521l0.299,0.48
			c-0.238,0.25-0.539,0.448-0.902,0.595S-59.673-2143.375-60.177-2143.375z M-60.271-2149.357c-0.516,0-0.95,0.198-1.304,0.595
			s-0.56,0.894-0.618,1.491l0.012,0.029h3.715v-0.176c0-0.551-0.162-1.012-0.486-1.383S-59.716-2149.357-60.271-2149.357z"/>
		<path d="M-54.997-2149.838l0.088,1.055v0.076c0.18-0.391,0.425-0.696,0.735-0.917s0.679-0.331,1.104-0.331
			c0.09,0,0.177,0.007,0.261,0.021s0.153,0.028,0.208,0.044l-0.094,0.656l-0.521-0.035c-0.441,0-0.804,0.124-1.087,0.372
			s-0.485,0.589-0.606,1.022v3.785l0.955,0.076v0.516h-2.607v-0.516l0.955-0.076v-5.15l-0.955-0.076v-0.521h0.955H-54.997z"/>
		<path d="M-51.704-2149.264v-0.574h1.049v-0.926c0-0.637,0.16-1.129,0.48-1.477s0.768-0.521,1.342-0.521
			c0.125,0,0.254,0.01,0.387,0.029s0.268,0.047,0.404,0.082l-0.088,0.58c-0.094-0.023-0.189-0.042-0.287-0.056
			s-0.213-0.021-0.346-0.021c-0.383,0-0.677,0.121-0.882,0.363s-0.308,0.582-0.308,1.02v0.926h1.512v0.574h-1.512v5.174l0.955,0.076
			v0.516h-2.613v-0.516l0.955-0.076v-5.174H-51.704z"/>
		<path d="M-42.98-2143.498c-0.047-0.215-0.08-0.4-0.1-0.557s-0.029-0.314-0.029-0.475c-0.234,0.332-0.547,0.607-0.938,0.826
			s-0.83,0.328-1.318,0.328c-0.621,0-1.102-0.16-1.441-0.48s-0.51-0.754-0.51-1.301c0-0.586,0.252-1.051,0.756-1.395
			s1.188-0.516,2.051-0.516h1.4v-0.838c0-0.453-0.146-0.809-0.437-1.066s-0.698-0.387-1.222-0.387c-0.352,0-0.673,0.048-0.964,0.144
			s-0.534,0.226-0.729,0.39l-0.059,0.85h-0.58l0.006-1.219c0.293-0.227,0.644-0.41,1.052-0.551s0.843-0.211,1.304-0.211
			c0.699,0,1.262,0.178,1.688,0.533s0.639,0.865,0.639,1.529v3.117c0,0.129,0.003,0.253,0.009,0.372s0.019,0.235,0.038,0.349
			l0.633,0.041v0.516H-42.98z M-45.288-2143.996c0.508,0,0.955-0.117,1.342-0.352s0.666-0.537,0.838-0.908v-1.271h-1.412
			c-0.637,0-1.146,0.132-1.526,0.396s-0.571,0.597-0.571,0.999c0,0.34,0.118,0.614,0.354,0.823S-45.702-2143.996-45.288-2143.996z"
			/>
		<path d="M-36.136-2147.881h-0.574l-0.082-0.896c-0.176-0.184-0.397-0.326-0.665-0.428s-0.575-0.152-0.923-0.152
			c-0.512,0-0.896,0.11-1.151,0.331s-0.384,0.479-0.384,0.776c0,0.293,0.11,0.535,0.331,0.727s0.661,0.359,1.321,0.504
			c0.754,0.168,1.318,0.397,1.693,0.688s0.562,0.687,0.562,1.187c0,0.527-0.214,0.954-0.642,1.28s-0.993,0.489-1.696,0.489
			c-0.469,0-0.896-0.065-1.28-0.196s-0.718-0.315-0.999-0.554v-1.277h0.568l0.1,0.902c0.188,0.188,0.425,0.323,0.712,0.407
			s0.587,0.126,0.899,0.126c0.508,0,0.908-0.111,1.201-0.334s0.439-0.492,0.439-0.809c0-0.297-0.122-0.557-0.366-0.779
			s-0.685-0.404-1.321-0.545c-0.754-0.164-1.313-0.382-1.679-0.653s-0.548-0.651-0.548-1.14c0-0.484,0.205-0.894,0.615-1.228
			s0.951-0.501,1.623-0.501c0.465,0,0.89,0.071,1.274,0.214s0.698,0.335,0.94,0.577L-36.136-2147.881z"/>
		<path d="M-30.13-2147.881h-0.574l-0.082-0.896c-0.176-0.184-0.397-0.326-0.665-0.428s-0.575-0.152-0.923-0.152
			c-0.512,0-0.896,0.11-1.151,0.331s-0.384,0.479-0.384,0.776c0,0.293,0.11,0.535,0.331,0.727s0.661,0.359,1.321,0.504
			c0.754,0.168,1.318,0.397,1.693,0.688s0.562,0.687,0.562,1.187c0,0.527-0.214,0.954-0.642,1.28s-0.993,0.489-1.696,0.489
			c-0.469,0-0.896-0.065-1.28-0.196s-0.718-0.315-0.999-0.554v-1.277h0.568l0.1,0.902c0.188,0.188,0.425,0.323,0.712,0.407
			s0.587,0.126,0.899,0.126c0.508,0,0.908-0.111,1.201-0.334s0.439-0.492,0.439-0.809c0-0.297-0.122-0.557-0.366-0.779
			s-0.685-0.404-1.321-0.545c-0.754-0.164-1.313-0.382-1.679-0.653s-0.548-0.651-0.548-1.14c0-0.484,0.205-0.894,0.615-1.228
			s0.951-0.501,1.623-0.501c0.465,0,0.89,0.071,1.274,0.214s0.698,0.335,0.94,0.577L-30.13-2147.881z"/>
		<path d="M-24.066-2144.541c-0.199,0.371-0.472,0.658-0.817,0.861s-0.753,0.305-1.222,0.305c-0.668,0-1.19-0.227-1.567-0.68
			s-0.565-1.156-0.565-2.109v-3.076l-0.785-0.076v-0.521h0.785h0.697v3.686c0,0.773,0.132,1.328,0.396,1.664
			s0.638,0.504,1.122,0.504c0.531,0,0.954-0.117,1.269-0.352s0.536-0.559,0.665-0.973v-3.932l-0.902-0.076v-0.521h0.902h0.703v5.748
			l0.85,0.076v0.516h-1.465L-24.066-2144.541z"/>
		<path d="M-21.634-2144.014l0.955-0.076v-5.15l-0.955-0.076v-0.521h1.576l0.064,1.107c0.203-0.391,0.478-0.692,0.823-0.905
			s0.755-0.319,1.228-0.319c0.688,0,1.211,0.21,1.57,0.63s0.539,1.075,0.539,1.966v3.27l0.955,0.076v0.516h-2.613v-0.516
			l0.955-0.076v-3.264c0-0.727-0.136-1.24-0.407-1.541s-0.657-0.451-1.157-0.451c-0.492,0-0.894,0.13-1.204,0.39
			s-0.534,0.604-0.671,1.034v3.832l0.955,0.076v0.516h-2.613V-2144.014z"/>
		<path d="M-13.806-2146.615c0-1.012,0.216-1.821,0.647-2.429s1.03-0.911,1.796-0.911c0.449,0,0.839,0.099,1.169,0.296
			s0.603,0.476,0.817,0.835l0.082-1.014h0.592v6.258c0,0.816-0.221,1.461-0.662,1.934s-1.057,0.709-1.846,0.709
			c-0.305,0-0.63-0.037-0.976-0.111s-0.647-0.176-0.905-0.305l0.188-0.592c0.254,0.121,0.521,0.215,0.8,0.281s0.573,0.1,0.882,0.1
			c0.602,0,1.055-0.178,1.359-0.533s0.457-0.85,0.457-1.482v-0.803c-0.215,0.324-0.486,0.573-0.814,0.747s-0.713,0.261-1.154,0.261
			c-0.762,0-1.357-0.283-1.787-0.85s-0.645-1.322-0.645-2.268V-2146.615z M-13.103-2146.492c0,0.762,0.155,1.37,0.466,1.825
			s0.774,0.683,1.392,0.683c0.457,0,0.837-0.104,1.14-0.311s0.536-0.492,0.7-0.855v-2.941c-0.156-0.371-0.381-0.673-0.674-0.905
			s-0.678-0.349-1.154-0.349c-0.617,0-1.083,0.254-1.397,0.762s-0.472,1.164-0.472,1.969V-2146.492z"/>
		<path d="M-6.089-2143.779c0,0.359-0.073,0.711-0.22,1.055s-0.347,0.635-0.601,0.873l-0.416-0.305
			c0.184-0.258,0.319-0.514,0.407-0.768s0.132-0.535,0.132-0.844v-0.832h0.697V-2143.779z"/>
		<path d="M-87.564-2137.629c1.043,0,1.904,0.348,2.584,1.043s1.02,1.588,1.02,2.678v1.096c0,1.094-0.34,1.986-1.02,2.678
			s-1.541,1.037-2.584,1.037h-3.434v-0.516l0.955-0.076v-7.342l-0.955-0.076v-0.521h0.955H-87.564z M-89.345-2137.031v7.342h1.781
			c0.844,0,1.538-0.295,2.083-0.885s0.817-1.336,0.817-2.238v-1.113c0-0.891-0.273-1.631-0.82-2.221s-1.24-0.885-2.08-0.885H-89.345
			z"/>
		<path d="M-79.841-2128.975c-0.797,0-1.457-0.292-1.98-0.876s-0.785-1.327-0.785-2.229v-0.322c0-0.906,0.261-1.658,0.782-2.256
			s1.151-0.896,1.89-0.896c0.777,0,1.389,0.246,1.834,0.738s0.668,1.148,0.668,1.969v0.598h-4.477v0.17
			c0,0.711,0.19,1.308,0.571,1.79s0.88,0.724,1.497,0.724c0.434,0,0.805-0.061,1.113-0.182s0.572-0.295,0.791-0.521l0.299,0.48
			c-0.238,0.25-0.539,0.448-0.902,0.595S-79.337-2128.975-79.841-2128.975z M-79.935-2134.957c-0.516,0-0.95,0.198-1.304,0.595
			s-0.56,0.894-0.618,1.491l0.012,0.029h3.715v-0.176c0-0.551-0.162-1.012-0.486-1.383S-79.38-2134.957-79.935-2134.957z"/>
		<path d="M-76.331-2134.916v-0.521h1.576l0.064,1.049c0.203-0.371,0.475-0.658,0.814-0.861s0.744-0.305,1.213-0.305
			c0.484,0,0.889,0.118,1.213,0.354s0.557,0.597,0.697,1.081c0.191-0.445,0.464-0.796,0.817-1.052s0.784-0.384,1.292-0.384
			c0.676,0,1.198,0.225,1.567,0.674s0.554,1.145,0.554,2.086v3.1l0.955,0.082v0.516h-2.619v-0.516l0.955-0.082v-3.111
			c0-0.781-0.138-1.333-0.413-1.655s-0.659-0.483-1.151-0.483c-0.547,0-0.968,0.174-1.263,0.521s-0.478,0.791-0.548,1.33
			c0,0.031,0.001,0.061,0.003,0.088s0.003,0.062,0.003,0.105v3.211l0.955,0.076v0.516h-2.613v-0.516l0.955-0.076v-3.117
			c0-0.766-0.14-1.313-0.419-1.644s-0.663-0.495-1.151-0.495c-0.5,0-0.896,0.126-1.187,0.378s-0.495,0.591-0.612,1.017v3.861
			l0.955,0.076v0.516h-2.613v-0.516l0.955-0.076v-5.15L-76.331-2134.916z"/>
		<path d="M-64.759-2132.361c0-0.934,0.256-1.699,0.768-2.297s1.189-0.896,2.033-0.896c0.848,0,1.527,0.299,2.039,0.896
			s0.768,1.363,0.768,2.297v0.193c0,0.938-0.255,1.704-0.765,2.3s-1.187,0.894-2.03,0.894c-0.852,0-1.533-0.298-2.045-0.894
			s-0.768-1.362-0.768-2.3V-2132.361z M-64.056-2132.168c0,0.734,0.186,1.352,0.557,1.852s0.889,0.75,1.553,0.75
			c0.652,0,1.164-0.25,1.535-0.75s0.557-1.117,0.557-1.852v-0.193c0-0.723-0.187-1.336-0.56-1.84s-0.888-0.756-1.544-0.756
			s-1.17,0.252-1.541,0.756s-0.557,1.117-0.557,1.84V-2132.168z"/>
		<path d="M-58.331-2137.717v-0.521h1.652v5.449h0.744l1.928-2.057l-0.012-0.029l-0.58-0.041v-0.521h2.232v0.521l-0.738,0.07
			l-2.168,2.303l2.467,2.865l0.703,0.064v0.516h-2.227v-0.516l0.668-0.041l-2.203-2.531h-0.814v2.496l0.955,0.076v0.516h-2.607
			v-0.516l0.955-0.076v-7.951L-58.331-2137.717z"/>
		<path d="M-49.613-2135.438l0.088,1.055v0.076c0.18-0.391,0.425-0.696,0.735-0.917s0.679-0.331,1.104-0.331
			c0.09,0,0.177,0.007,0.261,0.021s0.153,0.028,0.208,0.044l-0.094,0.656l-0.521-0.035c-0.441,0-0.804,0.124-1.087,0.372
			s-0.485,0.589-0.606,1.022v3.785l0.955,0.076v0.516h-2.607v-0.516l0.955-0.076v-5.15l-0.955-0.076v-0.521h0.955H-49.613z"/>
		<path d="M-41.931-2129.098c-0.047-0.215-0.08-0.4-0.1-0.557s-0.029-0.314-0.029-0.475c-0.234,0.332-0.547,0.607-0.938,0.826
			s-0.83,0.328-1.318,0.328c-0.621,0-1.102-0.16-1.441-0.48s-0.51-0.754-0.51-1.301c0-0.586,0.252-1.051,0.756-1.395
			s1.188-0.516,2.051-0.516h1.4v-0.838c0-0.453-0.146-0.809-0.437-1.066s-0.698-0.387-1.222-0.387c-0.352,0-0.673,0.048-0.964,0.144
			s-0.534,0.226-0.729,0.39l-0.059,0.85h-0.58l0.006-1.219c0.293-0.227,0.644-0.41,1.052-0.551s0.843-0.211,1.304-0.211
			c0.699,0,1.262,0.178,1.688,0.533s0.639,0.865,0.639,1.529v3.117c0,0.129,0.003,0.253,0.009,0.372s0.019,0.235,0.038,0.349
			l0.633,0.041v0.516H-41.931z M-44.24-2129.596c0.508,0,0.955-0.117,1.342-0.352s0.666-0.537,0.838-0.908v-1.271h-1.412
			c-0.637,0-1.146,0.132-1.526,0.396s-0.571,0.597-0.571,0.999c0,0.34,0.118,0.614,0.354,0.823S-44.654-2129.596-44.24-2129.596z"/>
		<path d="M-38.075-2137.061v1.623h1.395v0.574h-1.395v4.131c0,0.414,0.075,0.708,0.226,0.882s0.351,0.261,0.601,0.261
			c0.113,0,0.224-0.005,0.331-0.015s0.231-0.026,0.372-0.05l0.105,0.521c-0.117,0.051-0.26,0.09-0.428,0.117
			s-0.336,0.041-0.504,0.041c-0.445,0-0.792-0.141-1.04-0.422s-0.372-0.727-0.372-1.336v-4.131h-1.09v-0.574h1.09v-1.623H-38.075z"
			/>
		<path d="M-35.439-2129.613l0.955-0.076v-5.15l-0.955-0.076v-0.521h1.652v5.748l0.955,0.076v0.516h-2.607V-2129.613z
			 M-33.786-2137.254h-0.697v-0.984h0.697V-2137.254z"/>
		<path d="M-28.859-2128.975c-0.797,0-1.457-0.292-1.98-0.876s-0.785-1.327-0.785-2.229v-0.322c0-0.906,0.261-1.658,0.782-2.256
			s1.151-0.896,1.89-0.896c0.777,0,1.389,0.246,1.834,0.738s0.668,1.148,0.668,1.969v0.598h-4.477v0.17
			c0,0.711,0.19,1.308,0.571,1.79s0.88,0.724,1.497,0.724c0.434,0,0.805-0.061,1.113-0.182s0.572-0.295,0.791-0.521l0.299,0.48
			c-0.238,0.25-0.539,0.448-0.902,0.595S-28.355-2128.975-28.859-2128.975z M-28.952-2134.957c-0.516,0-0.95,0.198-1.304,0.595
			s-0.56,0.894-0.618,1.491l0.012,0.029h3.715v-0.176c0-0.551-0.162-1.012-0.486-1.383S-28.398-2134.957-28.952-2134.957z"/>
	</g>
</g>
<g transform="matrix(1,0,0,1,249,2170)">
	<g enable-background="new    ">
		<path fill="#6D7FBC" d="M-69.042-2069.021l-0.094-0.984h-4.062l-0.422,4.055c0.286-0.261,0.602-0.461,0.945-0.602
			s0.81-0.219,1.398-0.234c0.969-0.016,1.75,0.31,2.344,0.977s0.891,1.562,0.891,2.688c0,1.151-0.289,2.07-0.867,2.758
			s-1.445,1.031-2.602,1.031c-0.938,0-1.718-0.262-2.34-0.785c-0.623-0.523-0.921-1.298-0.895-2.324l0.016-0.047h0.836
			c0,0.766,0.216,1.352,0.648,1.758c0.432,0.406,1.01,0.609,1.734,0.609c0.849,0,1.483-0.255,1.902-0.766
			c0.419-0.511,0.629-1.25,0.629-2.219c0-0.849-0.21-1.53-0.629-2.043c-0.419-0.513-1.007-0.77-1.762-0.77
			c-0.729,0-1.285,0.116-1.668,0.348s-0.66,0.582-0.832,1.051l-0.758-0.125l0.625-6.227h5.719v1.852H-69.042z"/>
		<path fill="#6D7FBC" d="M-62.698-2059.498v-0.688l1.273-0.102v-9.789l-1.273-0.102v-0.695h1.273h0.938h1.273v0.695l-1.273,0.102
			v9.789h4.727l0.07-1.602h0.828v2.391H-62.698z"/>
		<path fill="#6D7FBC" d="M-48.698-2070.873c1.192,0,2.116,0.304,2.77,0.91c0.653,0.606,0.98,1.41,0.98,2.41
			c0,1.011-0.327,1.817-0.98,2.422c-0.654,0.604-1.577,0.906-2.77,0.906h-2.594v3.938l1.273,0.102v0.688h-3.477v-0.688l1.273-0.102
			v-9.789l-1.273-0.102v-0.695h1.273H-48.698z M-51.292-2065.021h2.594c0.938,0,1.642-0.238,2.113-0.715
			c0.471-0.477,0.707-1.077,0.707-1.801c0-0.729-0.234-1.335-0.703-1.816s-1.175-0.723-2.117-0.723h-2.594V-2065.021z"/>
	</g>
</g>
<g transform="matrix(1,0,0,1,249,2170)">
	<g enable-background="new    ">
		<path fill="#6D7FBC" d="M-79.612-2045.092c0-1.891,0.36-3.586,1.082-5.086c0.721-1.5,1.527-2.503,2.418-3.008h0.047l0.203,0.57
			c-0.755,0.536-1.414,1.489-1.977,2.859s-0.844,2.917-0.844,4.641v0.156c0,1.724,0.281,3.271,0.844,4.641s1.221,2.333,1.977,2.891
			l-0.203,0.547h-0.047c-0.901-0.521-1.71-1.516-2.426-2.984c-0.716-1.469-1.074-3.172-1.074-5.109V-2045.092z"/>
		<path fill="#6D7FBC" d="M-72.089-2051.178l-1.156,0.086l1.797,7.375l0.344,1.734h0.047l0.422-1.734l2.5-8.156h0.883l2.492,8.156
			l0.414,1.758l0.047-0.008l0.367-1.75l1.773-7.375l-1.156-0.086v-0.695h2.969v0.695l-0.852,0.062l-2.648,10.617h-0.883
			l-2.648-8.727l-0.297-1.195h-0.047l-0.281,1.195l-2.672,8.727h-0.883l-2.648-10.617l-0.852-0.062v-0.695h2.969V-2051.178z"/>
		<path fill="#6D7FBC" d="M-59.565-2041.186l1.273-0.102v-6.867l-1.273-0.102v-0.695h2.203v7.664l1.273,0.102v0.688h-3.477
			V-2041.186z M-57.362-2051.373h-0.93v-1.312h0.93V-2051.373z"/>
		<path fill="#6D7FBC" d="M-46.69-2048.498h-0.766l-0.133-1.609c-0.281-0.354-0.664-0.632-1.148-0.832s-1.052-0.301-1.703-0.301
			c-0.938,0-1.668,0.203-2.191,0.609s-0.785,0.911-0.785,1.516c0,0.573,0.235,1.051,0.707,1.434c0.471,0.383,1.288,0.72,2.449,1.012
			c1.224,0.312,2.155,0.734,2.793,1.266c0.638,0.531,0.957,1.231,0.957,2.102c0,0.906-0.37,1.628-1.109,2.164
			c-0.74,0.536-1.685,0.805-2.836,0.805c-0.812,0-1.566-0.144-2.262-0.43s-1.265-0.695-1.707-1.227v-1.992h0.766l0.133,1.664
			c0.344,0.391,0.784,0.688,1.32,0.891c0.536,0.203,1.12,0.305,1.75,0.305c0.896,0,1.621-0.198,2.176-0.594s0.832-0.919,0.832-1.57
			c0-0.62-0.232-1.126-0.695-1.52c-0.464-0.394-1.271-0.741-2.422-1.043c-1.245-0.312-2.188-0.719-2.828-1.219
			s-0.961-1.175-0.961-2.023c0-0.87,0.364-1.578,1.094-2.125c0.729-0.547,1.669-0.82,2.82-0.82c0.828,0,1.566,0.144,2.215,0.43
			s1.16,0.675,1.535,1.164V-2048.498z"/>
		<path fill="#6D7FBC" d="M-41.26-2040.334c-1.062,0-1.943-0.39-2.641-1.168c-0.698-0.778-1.047-1.77-1.047-2.973v-0.43
			c0-1.208,0.348-2.211,1.043-3.008s1.535-1.195,2.52-1.195c1.036,0,1.852,0.328,2.445,0.984s0.891,1.531,0.891,2.625v0.797h-5.969
			v0.227c0,0.948,0.254,1.743,0.762,2.387s1.173,0.965,1.996,0.965c0.578,0,1.073-0.081,1.484-0.242
			c0.411-0.161,0.763-0.394,1.055-0.695l0.398,0.641c-0.318,0.333-0.719,0.598-1.203,0.793S-40.589-2040.334-41.26-2040.334z
			 M-41.385-2048.311c-0.688,0-1.267,0.265-1.738,0.793c-0.472,0.528-0.746,1.191-0.824,1.988l0.016,0.039h4.953v-0.234
			c0-0.734-0.216-1.349-0.648-1.844C-40.06-2048.063-40.646-2048.311-41.385-2048.311z"/>
		<path fill="#6D7FBC" d="M-33.3-2044.975c0,1.938-0.361,3.641-1.082,5.109c-0.722,1.469-1.53,2.464-2.426,2.984l-0.047-0.008
			l-0.195-0.539c0.75-0.531,1.407-1.487,1.973-2.867c0.565-1.38,0.848-2.935,0.848-4.664v-0.156c0-1.714-0.288-3.265-0.863-4.652
			c-0.576-1.388-1.228-2.348-1.957-2.879l0.195-0.539l0.047-0.008c0.885,0.511,1.691,1.516,2.418,3.016s1.09,3.195,1.09,5.086
			V-2044.975z"/>
	</g>
</g>
<g transform="matrix(1,0,0,1,423,2170)">
	<path vector-effect="none" fill="#FFFFFF" d="M-149.503-2170.5H22.496v140h-171.999V-2170.5"/>
</g>
<g transform="matrix(1,0,0,1,423,2170)">
	<path vector-effect="none" fill="#90C695" d="M-149.503-2170.5H22.496v6h-171.999V-2170.5"/>
</g>
<g transform="matrix(1,0,0,1,423,2170)">
	<g enable-background="new    ">
		<path d="M-134.626-2151.396c0.8,0,1.414,0.175,1.843,0.523c0.429,0.349,0.643,0.853,0.643,1.513c0,0.389-0.114,0.739-0.343,1.051
			c-0.229,0.311-0.552,0.536-0.969,0.677c0.462,0.116,0.794,0.323,0.998,0.623c0.203,0.299,0.305,0.676,0.305,1.13v0.682
			c0,0.264,0.041,0.459,0.123,0.585c0.082,0.127,0.207,0.194,0.374,0.205l0.251,0.016v0.456h-0.39c-0.362,0-0.615-0.123-0.759-0.369
			s-0.215-0.547-0.215-0.902v-0.661c0-0.451-0.145-0.81-0.434-1.074c-0.289-0.265-0.691-0.402-1.207-0.413h-1.877v2.902l0.836,0.071
			v0.446h-2.281v-0.446l0.835-0.071v-6.419l-0.835-0.072v-0.451H-134.626z M-136.282-2147.878h1.584
			c0.673,0,1.166-0.135,1.477-0.405c0.311-0.27,0.466-0.631,0.466-1.082c0-0.479-0.155-0.849-0.466-1.112
			c-0.311-0.263-0.779-0.395-1.405-0.395h-1.656V-2147.878z"/>
		<path d="M-128.105-2143.828c-0.697,0-1.275-0.255-1.733-0.767c-0.458-0.511-0.687-1.161-0.687-1.95v-0.282
			c0-0.793,0.228-1.451,0.685-1.974c0.456-0.523,1.007-0.785,1.653-0.785c0.68,0,1.215,0.216,1.605,0.646s0.584,1.005,0.584,1.723
			v0.523h-3.917v0.148c0,0.622,0.167,1.144,0.5,1.566c0.333,0.422,0.77,0.633,1.31,0.633c0.379,0,0.704-0.053,0.974-0.159
			c0.27-0.105,0.5-0.258,0.692-0.456l0.261,0.42c-0.208,0.22-0.472,0.393-0.79,0.521
			C-127.284-2143.892-127.664-2143.828-128.105-2143.828z M-128.187-2149.062c-0.451,0-0.832,0.174-1.141,0.521
			c-0.31,0.347-0.49,0.782-0.541,1.305l0.01,0.025h3.25v-0.153c0-0.482-0.142-0.886-0.425-1.21
			C-127.317-2148.9-127.701-2149.062-128.187-2149.062z"/>
		<path d="M-124.875-2146.663c0-0.885,0.189-1.594,0.566-2.125c0.378-0.531,0.901-0.798,1.572-0.798c0.393,0,0.734,0.087,1.022,0.26
			c0.289,0.172,0.527,0.416,0.715,0.73l0.072-0.887h0.518v5.475c0,0.715-0.193,1.278-0.579,1.692
			c-0.386,0.413-0.925,0.62-1.615,0.62c-0.267,0-0.551-0.032-0.854-0.098c-0.302-0.064-0.566-0.153-0.792-0.266l0.164-0.519
			c0.222,0.106,0.456,0.188,0.7,0.246c0.245,0.059,0.501,0.087,0.772,0.087c0.526,0,0.923-0.155,1.189-0.466
			c0.267-0.312,0.399-0.743,0.399-1.298v-0.702c-0.188,0.284-0.425,0.502-0.712,0.654c-0.287,0.151-0.624,0.228-1.01,0.228
			c-0.666,0-1.188-0.247-1.563-0.743c-0.376-0.495-0.564-1.157-0.564-1.984V-2146.663z M-124.26-2146.556
			c0,0.667,0.136,1.199,0.408,1.598c0.271,0.397,0.677,0.597,1.218,0.597c0.399,0,0.732-0.09,0.997-0.271
			c0.265-0.181,0.469-0.431,0.612-0.748v-2.574c-0.137-0.324-0.333-0.589-0.589-0.792s-0.593-0.306-1.01-0.306
			c-0.54,0-0.947,0.223-1.223,0.667c-0.275,0.444-0.413,1.019-0.413,1.723V-2146.556z"/>
		<path d="M-119.056-2144.387l0.836-0.066v-4.507l-0.836-0.066v-0.456h1.446v5.029l0.835,0.066v0.451h-2.282V-2144.387z
			 M-117.61-2151.072h-0.61v-0.861h0.61V-2151.072z"/>
		<path d="M-113.298-2143.828c-0.697,0-1.275-0.255-1.733-0.767c-0.458-0.511-0.687-1.161-0.687-1.95v-0.282
			c0-0.793,0.228-1.451,0.685-1.974c0.456-0.523,1.007-0.785,1.653-0.785c0.68,0,1.215,0.216,1.605,0.646s0.584,1.005,0.584,1.723
			v0.523h-3.917v0.148c0,0.622,0.167,1.144,0.5,1.566c0.333,0.422,0.77,0.633,1.31,0.633c0.379,0,0.704-0.053,0.974-0.159
			c0.27-0.105,0.5-0.258,0.692-0.456l0.261,0.42c-0.208,0.22-0.472,0.393-0.79,0.521
			C-112.478-2143.892-112.857-2143.828-113.298-2143.828z M-113.38-2149.062c-0.451,0-0.832,0.174-1.141,0.521
			c-0.31,0.347-0.49,0.782-0.541,1.305l0.01,0.025h3.25v-0.153c0-0.482-0.142-0.886-0.425-1.21
			C-112.51-2148.9-112.895-2149.062-113.38-2149.062z"/>
		<path d="M-108.766-2149.482l0.077,0.922v0.067c0.157-0.342,0.372-0.609,0.643-0.803c0.272-0.193,0.594-0.29,0.966-0.29
			c0.079,0,0.155,0.007,0.229,0.019c0.073,0.012,0.134,0.024,0.182,0.038l-0.082,0.574l-0.456-0.03
			c-0.386,0-0.703,0.108-0.951,0.325c-0.248,0.217-0.425,0.516-0.53,0.895v3.312l0.835,0.066v0.451h-2.282v-0.451l0.836-0.066
			v-4.507l-0.836-0.066v-0.456h0.836H-108.766z"/>
		<path d="M-103.526-2143.828c-0.697,0-1.275-0.255-1.733-0.767c-0.458-0.511-0.687-1.161-0.687-1.95v-0.282
			c0-0.793,0.228-1.451,0.685-1.974c0.456-0.523,1.007-0.785,1.653-0.785c0.68,0,1.215,0.216,1.605,0.646s0.584,1.005,0.584,1.723
			v0.523h-3.917v0.148c0,0.622,0.167,1.144,0.5,1.566c0.333,0.422,0.77,0.633,1.31,0.633c0.379,0,0.704-0.053,0.974-0.159
			c0.27-0.105,0.5-0.258,0.692-0.456l0.261,0.42c-0.208,0.22-0.472,0.393-0.79,0.521
			C-102.706-2143.892-103.085-2143.828-103.526-2143.828z M-103.608-2149.062c-0.451,0-0.832,0.174-1.141,0.521
			c-0.31,0.347-0.49,0.782-0.541,1.305l0.01,0.025h3.25v-0.153c0-0.482-0.142-0.886-0.425-1.21
			C-102.739-2148.9-103.123-2149.062-103.608-2149.062z"/>
		<path d="M-100.434-2144.387l0.835-0.066v-4.507l-0.835-0.066v-0.456h1.379l0.057,0.969c0.177-0.342,0.417-0.606,0.72-0.792
			c0.302-0.187,0.66-0.28,1.074-0.28c0.602,0,1.06,0.185,1.374,0.552s0.472,0.94,0.472,1.72v2.861l0.836,0.066v0.451h-2.287v-0.451
			l0.835-0.066v-2.855c0-0.637-0.119-1.086-0.356-1.349c-0.238-0.264-0.575-0.396-1.013-0.396c-0.431,0-0.782,0.114-1.054,0.342
			c-0.271,0.227-0.467,0.528-0.587,0.904v3.354l0.835,0.066v0.451h-2.286V-2144.387z"/>
		<path d="M-92.667-2144.182c0,0.314-0.064,0.622-0.192,0.923c-0.128,0.301-0.304,0.556-0.525,0.764l-0.364-0.267
			c0.161-0.226,0.279-0.449,0.356-0.672c0.077-0.222,0.115-0.468,0.115-0.738v-0.728h0.61V-2144.182z"/>
		<path d="M-85.982-2151.4c0.783,0,1.389,0.199,1.818,0.598c0.429,0.397,0.643,0.925,0.643,1.581c0,0.663-0.214,1.193-0.643,1.59
			c-0.429,0.396-1.035,0.595-1.818,0.595h-1.702v2.584l0.836,0.066v0.451h-2.281v-0.451l0.835-0.066v-6.424l-0.835-0.067v-0.456
			h0.835H-85.982z M-87.684-2147.561h1.702c0.615,0,1.078-0.156,1.387-0.469c0.309-0.312,0.464-0.707,0.464-1.182
			c0-0.479-0.154-0.876-0.461-1.192s-0.771-0.474-1.39-0.474h-1.702V-2147.561z"/>
		<path d="M-82.521-2146.791c0-0.817,0.224-1.487,0.672-2.01c0.448-0.523,1.041-0.785,1.779-0.785c0.741,0,1.336,0.262,1.784,0.785
			c0.447,0.522,0.671,1.192,0.671,2.01v0.169c0,0.82-0.223,1.491-0.669,2.013c-0.446,0.521-1.039,0.781-1.777,0.781
			c-0.745,0-1.341-0.261-1.789-0.781c-0.448-0.521-0.672-1.192-0.672-2.013V-2146.791z M-81.906-2146.622
			c0,0.643,0.163,1.183,0.487,1.62s0.777,0.656,1.358,0.656c0.571,0,1.019-0.219,1.344-0.656c0.324-0.438,0.487-0.978,0.487-1.62
			v-0.169c0-0.633-0.163-1.169-0.49-1.61c-0.326-0.44-0.776-0.661-1.351-0.661s-1.024,0.221-1.349,0.661
			c-0.325,0.441-0.487,0.978-0.487,1.61V-2146.622z"/>
		<path d="M-76.841-2151.478v-0.456h1.446v7.48l0.835,0.066v0.451h-2.282v-0.451l0.836-0.066v-6.957L-76.841-2151.478z"/>
		<path d="M-73.631-2144.387l0.836-0.066v-4.507l-0.836-0.066v-0.456h1.446v5.029l0.835,0.066v0.451h-2.282V-2144.387z
			 M-72.185-2151.072h-0.61v-0.861h0.61V-2151.072z"/>
		<path d="M-68.909-2150.903v1.421h1.22v0.502h-1.22v3.614c0,0.362,0.066,0.62,0.197,0.771c0.132,0.152,0.307,0.229,0.525,0.229
			c0.099,0,0.196-0.004,0.29-0.013c0.094-0.009,0.202-0.023,0.325-0.044l0.093,0.456c-0.103,0.045-0.228,0.079-0.375,0.104
			c-0.147,0.023-0.294,0.035-0.441,0.035c-0.39,0-0.693-0.123-0.91-0.369c-0.217-0.246-0.325-0.636-0.325-1.169v-3.614h-0.954
			v-0.502h0.954v-1.421H-68.909z"/>
		<path d="M-66.602-2144.387l0.836-0.066v-4.507l-0.836-0.066v-0.456h1.446v5.029l0.835,0.066v0.451h-2.282V-2144.387z
			 M-65.156-2151.072h-0.61v-0.861h0.61V-2151.072z"/>
		<path d="M-59.265-2147.771h-0.502l-0.072-0.784c-0.154-0.161-0.348-0.285-0.582-0.375c-0.234-0.088-0.503-0.133-0.807-0.133
			c-0.448,0-0.784,0.097-1.008,0.29c-0.224,0.192-0.336,0.419-0.336,0.679c0,0.257,0.097,0.469,0.29,0.636
			c0.193,0.168,0.578,0.314,1.156,0.441c0.659,0.146,1.153,0.348,1.481,0.603c0.328,0.254,0.492,0.601,0.492,1.038
			c0,0.461-0.187,0.835-0.562,1.12c-0.374,0.285-0.869,0.428-1.484,0.428c-0.41,0-0.783-0.057-1.12-0.172
			c-0.336-0.114-0.628-0.275-0.874-0.484v-1.117h0.497l0.087,0.789c0.164,0.164,0.372,0.283,0.623,0.356
			c0.251,0.073,0.513,0.11,0.787,0.11c0.444,0,0.795-0.098,1.051-0.292c0.256-0.195,0.384-0.431,0.384-0.708
			c0-0.26-0.106-0.486-0.32-0.682c-0.213-0.195-0.599-0.354-1.156-0.477c-0.66-0.144-1.149-0.334-1.469-0.572
			c-0.319-0.237-0.479-0.569-0.479-0.997c0-0.424,0.18-0.781,0.539-1.074c0.359-0.292,0.832-0.438,1.42-0.438
			c0.406,0,0.778,0.062,1.115,0.188c0.337,0.125,0.611,0.293,0.823,0.505L-59.265-2147.771z"/>
		<path d="M-55.666-2144.346c0.406,0,0.765-0.116,1.076-0.349s0.467-0.556,0.467-0.969h0.543l0.01,0.03
			c0.017,0.513-0.187,0.942-0.613,1.287c-0.425,0.346-0.92,0.518-1.484,0.518c-0.752,0-1.335-0.259-1.749-0.776
			s-0.621-1.184-0.621-1.997v-0.215c0-0.807,0.207-1.47,0.621-1.99c0.414-0.519,0.995-0.779,1.743-0.779
			c0.427,0,0.818,0.081,1.174,0.241c0.355,0.161,0.644,0.38,0.866,0.656l0.025,1.21h-0.522l-0.098-0.984
			c-0.164-0.185-0.368-0.33-0.613-0.438c-0.244-0.107-0.522-0.161-0.833-0.161c-0.595,0-1.035,0.213-1.32,0.639
			c-0.285,0.425-0.428,0.961-0.428,1.607v0.215c0,0.656,0.142,1.196,0.426,1.62S-56.268-2144.346-55.666-2144.346z"/>
		<path d="M-52.605-2151.478v-0.456h1.446v3.399c0.185-0.332,0.431-0.59,0.738-0.774s0.667-0.277,1.077-0.277
			c0.584,0,1.033,0.182,1.346,0.544c0.313,0.362,0.469,0.925,0.469,1.687v2.902l0.836,0.066v0.451h-2.287v-0.451l0.836-0.066v-2.912
			c0-0.602-0.119-1.033-0.356-1.295c-0.237-0.262-0.565-0.393-0.981-0.393c-0.421,0-0.772,0.11-1.054,0.331
			c-0.282,0.221-0.49,0.514-0.623,0.88v3.389l0.836,0.066v0.451h-2.282v-0.451l0.835-0.066v-6.957L-52.605-2151.478z"/>
		<path d="M-43.377-2143.828c-0.697,0-1.275-0.255-1.733-0.767c-0.458-0.511-0.687-1.161-0.687-1.95v-0.282
			c0-0.793,0.228-1.451,0.685-1.974c0.456-0.523,1.007-0.785,1.653-0.785c0.68,0,1.215,0.216,1.605,0.646s0.584,1.005,0.584,1.723
			v0.523h-3.917v0.148c0,0.622,0.167,1.144,0.5,1.566c0.333,0.422,0.77,0.633,1.31,0.633c0.379,0,0.704-0.053,0.974-0.159
			c0.27-0.105,0.5-0.258,0.692-0.456l0.261,0.42c-0.208,0.22-0.472,0.393-0.79,0.521
			C-42.556-2143.892-42.936-2143.828-43.377-2143.828z M-43.459-2149.062c-0.451,0-0.832,0.174-1.141,0.521
			c-0.31,0.347-0.49,0.782-0.541,1.305l0.01,0.025h3.25v-0.153c0-0.482-0.142-0.886-0.425-1.21
			C-42.589-2148.9-42.973-2149.062-43.459-2149.062z"/>
		<path d="M-32.482-2149.186h-0.503l-0.087-1.057c-0.185-0.231-0.436-0.414-0.754-0.546c-0.317-0.131-0.69-0.197-1.117-0.197
			c-0.615,0-1.095,0.134-1.438,0.4c-0.343,0.267-0.515,0.598-0.515,0.994c0,0.376,0.155,0.689,0.464,0.941
			c0.31,0.251,0.845,0.473,1.607,0.663c0.803,0.205,1.414,0.482,1.833,0.831c0.418,0.349,0.628,0.809,0.628,1.379
			c0,0.595-0.243,1.068-0.728,1.421c-0.485,0.352-1.106,0.527-1.861,0.527c-0.533,0-1.028-0.094-1.484-0.281
			c-0.457-0.188-0.83-0.457-1.121-0.806v-1.308h0.503l0.087,1.093c0.226,0.256,0.514,0.451,0.866,0.584
			c0.352,0.134,0.735,0.2,1.148,0.2c0.588,0,1.064-0.13,1.428-0.39c0.364-0.26,0.546-0.604,0.546-1.03
			c0-0.407-0.152-0.739-0.457-0.997c-0.304-0.259-0.834-0.486-1.589-0.685c-0.817-0.205-1.436-0.472-1.856-0.8
			c-0.42-0.328-0.63-0.771-0.63-1.328c0-0.57,0.239-1.036,0.718-1.395s1.095-0.538,1.851-0.538c0.543,0,1.028,0.094,1.453,0.281
			c0.426,0.188,0.762,0.443,1.008,0.765V-2149.186z"/>
		<path d="M-29.954-2150.903v1.421h1.22v0.502h-1.22v3.614c0,0.362,0.066,0.62,0.197,0.771c0.132,0.152,0.307,0.229,0.525,0.229
			c0.099,0,0.196-0.004,0.29-0.013c0.094-0.009,0.202-0.023,0.325-0.044l0.093,0.456c-0.103,0.045-0.228,0.079-0.375,0.104
			c-0.147,0.023-0.294,0.035-0.441,0.035c-0.39,0-0.693-0.123-0.91-0.369c-0.217-0.246-0.325-0.636-0.325-1.169v-3.614h-0.954
			v-0.502h0.954v-1.421H-29.954z"/>
		<path d="M-25.161-2143.828c-0.697,0-1.274-0.255-1.733-0.767c-0.458-0.511-0.687-1.161-0.687-1.95v-0.282
			c0-0.793,0.228-1.451,0.685-1.974c0.456-0.523,1.008-0.785,1.653-0.785c0.681,0,1.216,0.216,1.604,0.646
			c0.391,0.431,0.584,1.005,0.584,1.723v0.523h-3.917v0.148c0,0.622,0.167,1.144,0.5,1.566c0.333,0.422,0.77,0.633,1.31,0.633
			c0.38,0,0.704-0.053,0.974-0.159c0.271-0.105,0.501-0.258,0.693-0.456l0.261,0.42c-0.208,0.22-0.472,0.393-0.79,0.521
			C-24.341-2143.892-24.72-2143.828-25.161-2143.828z M-25.243-2149.062c-0.451,0-0.831,0.174-1.141,0.521s-0.49,0.782-0.541,1.305
			l0.01,0.025h3.25v-0.153c0-0.482-0.143-0.886-0.426-1.21C-24.373-2148.9-24.758-2149.062-25.243-2149.062z"/>
		<path d="M-17.881-2144.848c-0.174,0.324-0.412,0.575-0.715,0.753s-0.658,0.267-1.068,0.267c-0.585,0-1.042-0.198-1.372-0.595
			c-0.329-0.396-0.495-1.012-0.495-1.846v-2.691l-0.687-0.066v-0.456h0.687h0.611v3.225c0,0.677,0.115,1.162,0.346,1.456
			s0.558,0.44,0.981,0.44c0.465,0,0.835-0.103,1.11-0.308s0.469-0.488,0.582-0.851v-3.44l-0.79-0.066v-0.456h0.79h0.615v5.029
			l0.742,0.066v0.451h-1.281L-17.881-2144.848z"/>
		<path d="M-13.194-2143.828c-0.697,0-1.274-0.255-1.733-0.767c-0.457-0.511-0.687-1.161-0.687-1.95v-0.282
			c0-0.793,0.228-1.451,0.685-1.974c0.456-0.523,1.008-0.785,1.653-0.785c0.681,0,1.216,0.216,1.604,0.646
			c0.391,0.431,0.584,1.005,0.584,1.723v0.523h-3.916v0.148c0,0.622,0.166,1.144,0.5,1.566c0.333,0.422,0.77,0.633,1.31,0.633
			c0.38,0,0.704-0.053,0.974-0.159c0.271-0.105,0.501-0.258,0.693-0.456l0.261,0.42c-0.208,0.22-0.472,0.393-0.79,0.521
			C-12.374-2143.892-12.754-2143.828-13.194-2143.828z M-13.276-2149.062c-0.451,0-0.831,0.174-1.141,0.521
			s-0.489,0.782-0.541,1.305l0.011,0.025h3.25v-0.153c0-0.482-0.143-0.886-0.426-1.21
			C-12.406-2148.9-12.791-2149.062-13.276-2149.062z"/>
		<path d="M-8.662-2149.482l0.076,0.922v0.067c0.157-0.342,0.372-0.609,0.644-0.803c0.272-0.193,0.594-0.29,0.966-0.29
			c0.079,0,0.155,0.007,0.229,0.019c0.074,0.012,0.135,0.024,0.182,0.038l-0.082,0.574l-0.455-0.03
			c-0.387,0-0.703,0.108-0.951,0.325s-0.426,0.516-0.531,0.895v3.312l0.836,0.066v0.451h-2.281v-0.451l0.836-0.066v-4.507
			l-0.836-0.066v-0.456h0.836H-8.662z"/>
		<path d="M-1.695-2144.848c-0.174,0.324-0.412,0.575-0.715,0.753s-0.658,0.267-1.068,0.267c-0.585,0-1.042-0.198-1.372-0.595
			c-0.329-0.396-0.495-1.012-0.495-1.846v-2.691l-0.687-0.066v-0.456h0.687h0.611v3.225c0,0.677,0.115,1.162,0.346,1.456
			s0.558,0.44,0.981,0.44c0.465,0,0.835-0.103,1.11-0.308s0.469-0.488,0.582-0.851v-3.44l-0.79-0.066v-0.456h0.79h0.615v5.029
			l0.742,0.066v0.451h-1.281L-1.695-2144.848z"/>
		<path d="M0.434-2144.387l0.835-0.066v-4.507l-0.835-0.066v-0.456h1.379l0.057,0.969c0.177-0.342,0.417-0.606,0.72-0.792
			c0.302-0.187,0.66-0.28,1.073-0.28c0.602,0,1.061,0.185,1.375,0.552s0.471,0.94,0.471,1.72v2.861l0.836,0.066v0.451H4.058v-0.451
			l0.835-0.066v-2.855c0-0.637-0.118-1.086-0.355-1.349c-0.238-0.264-0.575-0.396-1.013-0.396c-0.431,0-0.782,0.114-1.054,0.342
			c-0.271,0.227-0.467,0.528-0.587,0.904v3.354l0.835,0.066v0.451H0.434V-2144.387z"/>
		<path d="M7.282-2146.663c0-0.885,0.188-1.594,0.566-2.125s0.901-0.798,1.571-0.798c0.393,0,0.734,0.087,1.023,0.26
			c0.289,0.172,0.527,0.416,0.715,0.73l0.072-0.887h0.518v5.475c0,0.715-0.193,1.278-0.58,1.692c-0.386,0.413-0.924,0.62-1.615,0.62
			c-0.266,0-0.551-0.032-0.854-0.098c-0.302-0.064-0.566-0.153-0.791-0.266l0.164-0.519c0.222,0.106,0.455,0.188,0.699,0.246
			c0.244,0.059,0.502,0.087,0.771,0.087c0.526,0,0.924-0.155,1.189-0.466c0.268-0.312,0.4-0.743,0.4-1.298v-0.702
			c-0.188,0.284-0.426,0.502-0.713,0.654c-0.287,0.151-0.624,0.228-1.01,0.228c-0.666,0-1.188-0.247-1.564-0.743
			c-0.375-0.495-0.563-1.157-0.563-1.984V-2146.663z M7.898-2146.556c0,0.667,0.136,1.199,0.407,1.598
			c0.271,0.397,0.678,0.597,1.219,0.597c0.398,0,0.731-0.09,0.996-0.271c0.266-0.181,0.469-0.431,0.613-0.748v-2.574
			c-0.137-0.324-0.334-0.589-0.59-0.792s-0.594-0.306-1.01-0.306c-0.541,0-0.947,0.223-1.223,0.667s-0.413,1.019-0.413,1.723
			V-2146.556z"/>
		<path d="M14.035-2144.182c0,0.314-0.064,0.622-0.193,0.923c-0.128,0.301-0.303,0.556-0.525,0.764l-0.363-0.267
			c0.16-0.226,0.279-0.449,0.355-0.672c0.077-0.222,0.115-0.468,0.115-0.738v-0.728h0.611V-2144.182z"/>
	</g>
</g>
<g transform="matrix(1,0,0,1,423,2170)">
	<g enable-background="new    ">
		<path d="M-84.743-2130.436c-0.203,0.25-0.557,0.489-1.061,0.718s-1.135,0.343-1.893,0.343c-1.109,0-2.012-0.4-2.707-1.201
			s-1.043-1.844-1.043-3.129v-0.182c0-1.266,0.348-2.293,1.043-3.082s1.607-1.184,2.736-1.184c0.641,0,1.207,0.106,1.699,0.319
			s0.893,0.505,1.201,0.876v1.482h-0.545l-0.123-1.248c-0.23-0.254-0.529-0.456-0.896-0.606s-0.795-0.226-1.283-0.226
			c-0.969,0-1.732,0.34-2.291,1.02s-0.838,1.559-0.838,2.637v0.193c0,1.109,0.274,2.01,0.823,2.701s1.29,1.037,2.224,1.037
			c0.555,0,1.029-0.072,1.424-0.217s0.672-0.299,0.832-0.463v-2.068l-1.641-0.029v-0.568h2.338V-2130.436z"/>
		<path d="M-83.114-2132.762c0-0.934,0.256-1.699,0.768-2.297s1.189-0.896,2.033-0.896c0.848,0,1.527,0.299,2.039,0.896
			s0.768,1.363,0.768,2.297v0.193c0,0.938-0.255,1.704-0.765,2.3s-1.187,0.894-2.03,0.894c-0.852,0-1.533-0.298-2.045-0.894
			s-0.768-1.362-0.768-2.3V-2132.762z M-82.411-2132.568c0,0.734,0.186,1.352,0.557,1.852s0.889,0.75,1.553,0.75
			c0.652,0,1.164-0.25,1.535-0.75s0.557-1.117,0.557-1.852v-0.193c0-0.723-0.187-1.336-0.56-1.84s-0.888-0.756-1.544-0.756
			s-1.17,0.252-1.541,0.756s-0.557,1.117-0.557,1.84V-2132.568z"/>
		<path d="M-74.612-2135.316l-0.791,0.059l1.582,4.172l0.205,0.744h0.035l0.223-0.744l1.559-4.172l-0.791-0.059v-0.521h2.133v0.521
			l-0.621,0.053l-2.238,5.766h-0.562l-2.244-5.766l-0.621-0.053v-0.521h2.133V-2135.316z"/>
		<path d="M-66.966-2129.375c-0.797,0-1.457-0.292-1.98-0.876s-0.785-1.327-0.785-2.229v-0.322c0-0.906,0.261-1.658,0.782-2.256
			s1.151-0.896,1.89-0.896c0.777,0,1.389,0.246,1.834,0.738s0.668,1.148,0.668,1.969v0.598h-4.477v0.17
			c0,0.711,0.19,1.308,0.571,1.79s0.88,0.724,1.497,0.724c0.434,0,0.805-0.061,1.113-0.182s0.572-0.295,0.791-0.521l0.299,0.48
			c-0.238,0.25-0.539,0.448-0.902,0.595S-66.462-2129.375-66.966-2129.375z M-67.059-2135.357c-0.516,0-0.95,0.198-1.304,0.595
			s-0.56,0.894-0.618,1.491l0.012,0.029h3.715v-0.176c0-0.551-0.162-1.012-0.486-1.383S-66.505-2135.357-67.059-2135.357z"/>
		<path d="M-61.786-2135.838l0.088,1.055v0.076c0.18-0.391,0.425-0.696,0.735-0.917s0.679-0.331,1.104-0.331
			c0.09,0,0.177,0.007,0.261,0.021s0.153,0.028,0.208,0.044l-0.094,0.656l-0.521-0.035c-0.441,0-0.804,0.124-1.087,0.372
			s-0.485,0.589-0.606,1.022v3.785l0.955,0.076v0.516h-2.607v-0.516l0.955-0.076v-5.15l-0.955-0.076v-0.521h0.955H-61.786z"/>
		<path d="M-58.61-2130.014l0.955-0.076v-5.15l-0.955-0.076v-0.521h1.576l0.064,1.107c0.203-0.391,0.478-0.692,0.823-0.905
			s0.755-0.319,1.228-0.319c0.688,0,1.211,0.21,1.57,0.63s0.539,1.075,0.539,1.966v3.27l0.955,0.076v0.516h-2.613v-0.516
			l0.955-0.076v-3.264c0-0.727-0.136-1.24-0.407-1.541s-0.657-0.451-1.157-0.451c-0.492,0-0.894,0.13-1.204,0.39
			s-0.534,0.604-0.671,1.034v3.832l0.955,0.076v0.516h-2.613V-2130.014z"/>
		<path d="M-46.376-2129.498c-0.047-0.215-0.08-0.4-0.1-0.557s-0.029-0.314-0.029-0.475c-0.234,0.332-0.547,0.607-0.938,0.826
			s-0.83,0.328-1.318,0.328c-0.621,0-1.102-0.16-1.441-0.48s-0.51-0.754-0.51-1.301c0-0.586,0.252-1.051,0.756-1.395
			s1.188-0.516,2.051-0.516h1.4v-0.838c0-0.453-0.146-0.809-0.437-1.066s-0.698-0.387-1.222-0.387c-0.352,0-0.673,0.048-0.964,0.144
			s-0.534,0.226-0.729,0.39l-0.059,0.85h-0.58l0.006-1.219c0.293-0.227,0.644-0.41,1.052-0.551s0.843-0.211,1.304-0.211
			c0.699,0,1.262,0.178,1.688,0.533s0.639,0.865,0.639,1.529v3.117c0,0.129,0.003,0.253,0.009,0.372s0.019,0.235,0.038,0.349
			l0.633,0.041v0.516H-46.376z M-48.684-2129.996c0.508,0,0.955-0.117,1.342-0.352s0.666-0.537,0.838-0.908v-1.271h-1.412
			c-0.637,0-1.146,0.132-1.526,0.396s-0.571,0.597-0.571,0.999c0,0.34,0.118,0.614,0.354,0.823S-49.098-2129.996-48.684-2129.996z"
			/>
		<path d="M-44.26-2130.014l0.955-0.076v-5.15l-0.955-0.076v-0.521h1.576l0.064,1.107c0.203-0.391,0.478-0.692,0.823-0.905
			s0.755-0.319,1.228-0.319c0.688,0,1.211,0.21,1.57,0.63s0.539,1.075,0.539,1.966v3.27l0.955,0.076v0.516h-2.613v-0.516
			l0.955-0.076v-3.264c0-0.727-0.136-1.24-0.407-1.541s-0.657-0.451-1.157-0.451c-0.492,0-0.894,0.13-1.204,0.39
			s-0.534,0.604-0.671,1.034v3.832l0.955,0.076v0.516h-2.613V-2130.014z"/>
		<path d="M-33.755-2129.967c0.465,0,0.875-0.133,1.23-0.398s0.533-0.635,0.533-1.107h0.621l0.012,0.035
			c0.02,0.586-0.214,1.076-0.7,1.471s-1.052,0.592-1.696,0.592c-0.859,0-1.525-0.296-1.998-0.888s-0.709-1.353-0.709-2.282v-0.246
			c0-0.922,0.236-1.68,0.709-2.273s1.137-0.891,1.992-0.891c0.488,0,0.936,0.092,1.342,0.275s0.736,0.434,0.99,0.75l0.029,1.383
			h-0.598l-0.111-1.125c-0.188-0.211-0.421-0.378-0.7-0.501s-0.597-0.185-0.952-0.185c-0.68,0-1.183,0.243-1.509,0.729
			s-0.489,1.099-0.489,1.837v0.246c0,0.75,0.162,1.367,0.486,1.852S-34.442-2129.967-33.755-2129.967z"/>
		<path d="M-27.257-2129.375c-0.797,0-1.457-0.292-1.98-0.876s-0.785-1.327-0.785-2.229v-0.322c0-0.906,0.261-1.658,0.782-2.256
			s1.151-0.896,1.89-0.896c0.777,0,1.389,0.246,1.834,0.738s0.668,1.148,0.668,1.969v0.598h-4.477v0.17
			c0,0.711,0.19,1.308,0.571,1.79s0.88,0.724,1.497,0.724c0.434,0,0.805-0.061,1.113-0.182s0.572-0.295,0.791-0.521l0.299,0.48
			c-0.238,0.25-0.539,0.448-0.902,0.595S-26.753-2129.375-27.257-2129.375z M-27.35-2135.357c-0.516,0-0.95,0.198-1.304,0.595
			s-0.56,0.894-0.618,1.491l0.012,0.029h3.715v-0.176c0-0.551-0.162-1.012-0.486-1.383S-26.796-2135.357-27.35-2135.357z"/>
	</g>
</g>
<g transform="matrix(1,0,0,1,423,2170)">
	<g enable-background="new    ">
		<path fill="#6D7FBC" d="M-69.042-2069.021l-0.094-0.984h-4.062l-0.422,4.055c0.286-0.261,0.602-0.461,0.945-0.602
			s0.81-0.219,1.398-0.234c0.969-0.016,1.75,0.31,2.344,0.977s0.891,1.562,0.891,2.688c0,1.151-0.289,2.07-0.867,2.758
			s-1.445,1.031-2.602,1.031c-0.938,0-1.718-0.262-2.34-0.785c-0.623-0.523-0.921-1.298-0.895-2.324l0.016-0.047h0.836
			c0,0.766,0.216,1.352,0.648,1.758c0.432,0.406,1.01,0.609,1.734,0.609c0.849,0,1.483-0.255,1.902-0.766
			c0.419-0.511,0.629-1.25,0.629-2.219c0-0.849-0.21-1.53-0.629-2.043c-0.419-0.513-1.007-0.77-1.762-0.77
			c-0.729,0-1.285,0.116-1.668,0.348s-0.66,0.582-0.832,1.051l-0.758-0.125l0.625-6.227h5.719v1.852H-69.042z"/>
		<path fill="#6D7FBC" d="M-62.698-2059.498v-0.688l1.273-0.102v-9.789l-1.273-0.102v-0.695h1.273h0.938h1.273v0.695l-1.273,0.102
			v9.789h4.727l0.07-1.602h0.828v2.391H-62.698z"/>
		<path fill="#6D7FBC" d="M-48.698-2070.873c1.192,0,2.116,0.304,2.77,0.91c0.653,0.606,0.98,1.41,0.98,2.41
			c0,1.011-0.327,1.817-0.98,2.422c-0.654,0.604-1.577,0.906-2.77,0.906h-2.594v3.938l1.273,0.102v0.688h-3.477v-0.688l1.273-0.102
			v-9.789l-1.273-0.102v-0.695h1.273H-48.698z M-51.292-2065.021h2.594c0.938,0,1.642-0.238,2.113-0.715
			c0.471-0.477,0.707-1.077,0.707-1.801c0-0.729-0.234-1.335-0.703-1.816s-1.175-0.723-2.117-0.723h-2.594V-2065.021z"/>
	</g>
</g>
<g transform="matrix(1,0,0,1,423,2170)">
	<g enable-background="new    ">
		<path fill="#6D7FBC" d="M-79.612-2045.092c0-1.891,0.36-3.586,1.082-5.086c0.721-1.5,1.527-2.503,2.418-3.008h0.047l0.203,0.57
			c-0.755,0.536-1.414,1.489-1.977,2.859s-0.844,2.917-0.844,4.641v0.156c0,1.724,0.281,3.271,0.844,4.641s1.221,2.333,1.977,2.891
			l-0.203,0.547h-0.047c-0.901-0.521-1.71-1.516-2.426-2.984c-0.716-1.469-1.074-3.172-1.074-5.109V-2045.092z"/>
		<path fill="#6D7FBC" d="M-66.948-2048.498h-0.766l-0.133-1.609c-0.281-0.354-0.664-0.632-1.148-0.832s-1.052-0.301-1.703-0.301
			c-0.938,0-1.668,0.203-2.191,0.609s-0.785,0.911-0.785,1.516c0,0.573,0.235,1.051,0.707,1.434c0.471,0.383,1.288,0.72,2.449,1.012
			c1.224,0.312,2.155,0.734,2.793,1.266c0.638,0.531,0.957,1.231,0.957,2.102c0,0.906-0.37,1.628-1.109,2.164
			c-0.74,0.536-1.685,0.805-2.836,0.805c-0.812,0-1.566-0.144-2.262-0.43s-1.265-0.695-1.707-1.227v-1.992h0.766l0.133,1.664
			c0.344,0.391,0.784,0.688,1.32,0.891c0.536,0.203,1.12,0.305,1.75,0.305c0.896,0,1.621-0.198,2.176-0.594s0.832-0.919,0.832-1.57
			c0-0.62-0.232-1.126-0.695-1.52c-0.464-0.394-1.271-0.741-2.422-1.043c-1.245-0.312-2.188-0.719-2.828-1.219
			s-0.961-1.175-0.961-2.023c0-0.87,0.364-1.578,1.094-2.125c0.729-0.547,1.669-0.82,2.82-0.82c0.828,0,1.566,0.144,2.215,0.43
			s1.16,0.675,1.535,1.164V-2048.498z"/>
		<path fill="#6D7FBC" d="M-65.245-2044.85c0-1.245,0.341-2.266,1.023-3.062c0.682-0.797,1.586-1.195,2.711-1.195
			c1.13,0,2.036,0.398,2.719,1.195c0.682,0.797,1.023,1.817,1.023,3.062v0.258c0,1.25-0.34,2.272-1.02,3.066
			s-1.582,1.191-2.707,1.191c-1.136,0-2.044-0.397-2.727-1.191c-0.683-0.794-1.023-1.816-1.023-3.066V-2044.85z M-64.307-2044.592
			c0,0.979,0.247,1.802,0.742,2.469c0.495,0.667,1.185,1,2.07,1c0.87,0,1.552-0.333,2.047-1c0.495-0.667,0.742-1.489,0.742-2.469
			v-0.258c0-0.964-0.249-1.781-0.746-2.453c-0.498-0.672-1.184-1.008-2.059-1.008s-1.56,0.336-2.055,1.008
			c-0.495,0.672-0.742,1.489-0.742,2.453V-2044.592z"/>
		<path fill="#6D7FBC" d="M-48.417-2048.498h-0.766l-0.133-1.609c-0.281-0.354-0.664-0.632-1.148-0.832s-1.052-0.301-1.703-0.301
			c-0.938,0-1.668,0.203-2.191,0.609s-0.785,0.911-0.785,1.516c0,0.573,0.235,1.051,0.707,1.434c0.471,0.383,1.288,0.72,2.449,1.012
			c1.224,0.312,2.155,0.734,2.793,1.266c0.638,0.531,0.957,1.231,0.957,2.102c0,0.906-0.37,1.628-1.109,2.164
			c-0.74,0.536-1.685,0.805-2.836,0.805c-0.812,0-1.566-0.144-2.262-0.43s-1.265-0.695-1.707-1.227v-1.992h0.766l0.133,1.664
			c0.344,0.391,0.784,0.688,1.32,0.891c0.536,0.203,1.12,0.305,1.75,0.305c0.896,0,1.621-0.198,2.176-0.594s0.832-0.919,0.832-1.57
			c0-0.62-0.232-1.126-0.695-1.52c-0.464-0.394-1.271-0.741-2.422-1.043c-1.245-0.312-2.188-0.719-2.828-1.219
			s-0.961-1.175-0.961-2.023c0-0.87,0.364-1.578,1.094-2.125c0.729-0.547,1.669-0.82,2.82-0.82c0.828,0,1.566,0.144,2.215,0.43
			s1.16,0.675,1.535,1.164V-2048.498z"/>
		<path fill="#6D7FBC" d="M-42.987-2040.334c-1.062,0-1.943-0.39-2.641-1.168c-0.698-0.778-1.047-1.77-1.047-2.973v-0.43
			c0-1.208,0.348-2.211,1.043-3.008s1.535-1.195,2.52-1.195c1.036,0,1.852,0.328,2.445,0.984s0.891,1.531,0.891,2.625v0.797h-5.969
			v0.227c0,0.948,0.254,1.743,0.762,2.387s1.173,0.965,1.996,0.965c0.578,0,1.073-0.081,1.484-0.242
			c0.411-0.161,0.763-0.394,1.055-0.695l0.398,0.641c-0.318,0.333-0.719,0.598-1.203,0.793S-42.315-2040.334-42.987-2040.334z
			 M-43.112-2048.311c-0.688,0-1.267,0.265-1.738,0.793c-0.472,0.528-0.746,1.191-0.824,1.988l0.016,0.039h4.953v-0.234
			c0-0.734-0.216-1.349-0.648-1.844C-41.787-2048.063-42.373-2048.311-43.112-2048.311z"/>
		<path fill="#6D7FBC" d="M-35.026-2044.975c0,1.938-0.361,3.641-1.082,5.109c-0.722,1.469-1.53,2.464-2.426,2.984l-0.047-0.008
			l-0.195-0.539c0.75-0.531,1.407-1.487,1.973-2.867c0.565-1.38,0.848-2.935,0.848-4.664v-0.156c0-1.714-0.288-3.265-0.863-4.652
			c-0.576-1.388-1.228-2.348-1.957-2.879l0.195-0.539l0.047-0.008c0.885,0.511,1.691,1.516,2.418,3.016s1.09,3.195,1.09,5.086
			V-2044.975z"/>
	</g>
</g>
<g transform="matrix(1,0,0,1,596,2170)">
	<path vector-effect="none" fill="#FFFFFF" d="M-149.504-2170.5h173v140h-173V-2170.5"/>
</g>
<g transform="matrix(1,0,0,1,596,2170)">
	<path vector-effect="none" fill="#90C695" d="M-149.504-2170.5h173v6h-173V-2170.5"/>
</g>
<g transform="matrix(1,0,0,1,596,2170)">
	<g enable-background="new    ">
		<path d="M-101.242-2144.436c-0.203,0.25-0.557,0.489-1.061,0.718s-1.135,0.343-1.893,0.343c-1.109,0-2.012-0.4-2.707-1.201
			s-1.043-1.844-1.043-3.129v-0.182c0-1.266,0.348-2.293,1.043-3.082s1.607-1.184,2.736-1.184c0.641,0,1.207,0.106,1.699,0.319
			s0.893,0.505,1.201,0.876v1.482h-0.545l-0.123-1.248c-0.23-0.254-0.529-0.456-0.896-0.606s-0.795-0.226-1.283-0.226
			c-0.969,0-1.732,0.34-2.291,1.02s-0.838,1.559-0.838,2.637v0.193c0,1.109,0.274,2.01,0.823,2.701s1.29,1.037,2.224,1.037
			c0.555,0,1.029-0.072,1.424-0.217s0.672-0.299,0.832-0.463v-2.068l-1.641-0.029v-0.568h2.338V-2144.436z"/>
		<path d="M-96.818-2143.375c-0.797,0-1.457-0.292-1.98-0.876s-0.785-1.327-0.785-2.229v-0.322c0-0.906,0.261-1.658,0.782-2.256
			s1.151-0.896,1.89-0.896c0.777,0,1.389,0.246,1.834,0.738s0.668,1.148,0.668,1.969v0.598h-4.477v0.17
			c0,0.711,0.19,1.308,0.571,1.79s0.88,0.724,1.497,0.724c0.434,0,0.805-0.061,1.113-0.182s0.572-0.295,0.791-0.521l0.299,0.48
			c-0.238,0.25-0.539,0.448-0.902,0.595S-96.314-2143.375-96.818-2143.375z M-96.912-2149.357c-0.516,0-0.95,0.198-1.304,0.595
			s-0.56,0.894-0.618,1.491l0.012,0.029h3.715v-0.176c0-0.551-0.162-1.012-0.486-1.383S-96.357-2149.357-96.912-2149.357z"/>
		<path d="M-91.269-2149.316l-0.797,0.064l1.025,3.697l0.24,1.131h0.035l0.299-1.131l1.354-4.283h0.598l1.354,4.283l0.305,1.16
			h0.035l0.264-1.16l0.996-3.697l-0.797-0.064v-0.521h2.133v0.521l-0.615,0.047l-1.682,5.771h-0.598l-1.412-4.336l-0.275-1.096
			h-0.035l-0.275,1.096l-1.389,4.336h-0.598l-1.676-5.771l-0.615-0.047v-0.521h2.127V-2149.316z"/>
		<path d="M-78.877-2143.498c-0.047-0.215-0.08-0.4-0.1-0.557s-0.029-0.314-0.029-0.475c-0.234,0.332-0.547,0.607-0.938,0.826
			s-0.83,0.328-1.318,0.328c-0.621,0-1.102-0.16-1.441-0.48s-0.51-0.754-0.51-1.301c0-0.586,0.252-1.051,0.756-1.395
			s1.188-0.516,2.051-0.516h1.4v-0.838c0-0.453-0.146-0.809-0.437-1.066s-0.698-0.387-1.222-0.387c-0.352,0-0.673,0.048-0.964,0.144
			s-0.534,0.226-0.729,0.39l-0.059,0.85h-0.58l0.006-1.219c0.293-0.227,0.644-0.41,1.052-0.551s0.843-0.211,1.304-0.211
			c0.699,0,1.262,0.178,1.688,0.533s0.639,0.865,0.639,1.529v3.117c0,0.129,0.003,0.253,0.009,0.372s0.019,0.235,0.038,0.349
			l0.633,0.041v0.516H-78.877z M-81.185-2143.996c0.508,0,0.955-0.117,1.342-0.352s0.666-0.537,0.838-0.908v-1.271h-1.412
			c-0.637,0-1.146,0.132-1.526,0.396s-0.571,0.597-0.571,0.999c0,0.34,0.118,0.614,0.354,0.823S-81.599-2143.996-81.185-2143.996z"
			/>
		<path d="M-76.773-2152.117v-0.521h1.652v8.549l0.955,0.076v0.516h-2.607v-0.516l0.955-0.076v-7.951L-76.773-2152.117z"/>
		<path d="M-71.447-2151.461v1.623h1.395v0.574h-1.395v4.131c0,0.414,0.075,0.708,0.226,0.882s0.351,0.261,0.601,0.261
			c0.113,0,0.224-0.005,0.331-0.015s0.231-0.026,0.372-0.05l0.105,0.521c-0.117,0.051-0.26,0.09-0.428,0.117
			s-0.336,0.041-0.504,0.041c-0.445,0-0.792-0.141-1.04-0.422s-0.372-0.727-0.372-1.336v-4.131h-1.09v-0.574h1.09v-1.623H-71.447z"
			/>
		<path d="M-65.969-2143.375c-0.797,0-1.457-0.292-1.98-0.876s-0.785-1.327-0.785-2.229v-0.322c0-0.906,0.261-1.658,0.782-2.256
			s1.151-0.896,1.89-0.896c0.777,0,1.389,0.246,1.834,0.738s0.668,1.148,0.668,1.969v0.598h-4.477v0.17
			c0,0.711,0.19,1.308,0.571,1.79s0.88,0.724,1.497,0.724c0.434,0,0.805-0.061,1.113-0.182s0.572-0.295,0.791-0.521l0.299,0.48
			c-0.238,0.25-0.539,0.448-0.902,0.595S-65.465-2143.375-65.969-2143.375z M-66.062-2149.357c-0.516,0-0.95,0.198-1.304,0.595
			s-0.56,0.894-0.618,1.491l0.012,0.029h3.715v-0.176c0-0.551-0.162-1.012-0.486-1.383S-65.508-2149.357-66.062-2149.357z"/>
		<path d="M-62.435-2144.014l0.955-0.076v-5.15l-0.955-0.076v-0.521h1.576l0.064,1.107c0.203-0.391,0.478-0.692,0.823-0.905
			s0.755-0.319,1.228-0.319c0.688,0,1.211,0.21,1.57,0.63s0.539,1.075,0.539,1.966v3.27l0.955,0.076v0.516h-2.613v-0.516
			l0.955-0.076v-3.264c0-0.727-0.136-1.24-0.407-1.541s-0.657-0.451-1.157-0.451c-0.492,0-0.894,0.13-1.204,0.39
			s-0.534,0.604-0.671,1.034v3.832l0.955,0.076v0.516h-2.613V-2144.014z"/>
		<path d="M-52.967-2151.461v1.623h1.395v0.574h-1.395v4.131c0,0.414,0.075,0.708,0.226,0.882s0.351,0.261,0.601,0.261
			c0.113,0,0.224-0.005,0.331-0.015s0.231-0.026,0.372-0.05l0.105,0.521c-0.117,0.051-0.26,0.09-0.428,0.117
			s-0.336,0.041-0.504,0.041c-0.445,0-0.792-0.141-1.04-0.422s-0.372-0.727-0.372-1.336v-4.131h-1.09v-0.574h1.09v-1.623H-52.967z"
			/>
		<path d="M-47.488-2143.375c-0.797,0-1.457-0.292-1.98-0.876s-0.785-1.327-0.785-2.229v-0.322c0-0.906,0.261-1.658,0.782-2.256
			s1.151-0.896,1.89-0.896c0.777,0,1.389,0.246,1.834,0.738s0.668,1.148,0.668,1.969v0.598h-4.477v0.17
			c0,0.711,0.19,1.308,0.571,1.79s0.88,0.724,1.497,0.724c0.434,0,0.805-0.061,1.113-0.182s0.572-0.295,0.791-0.521l0.299,0.48
			c-0.238,0.25-0.539,0.448-0.902,0.595S-46.984-2143.375-47.488-2143.375z M-47.582-2149.357c-0.516,0-0.95,0.198-1.304,0.595
			s-0.56,0.894-0.618,1.491l0.012,0.029h3.715v-0.176c0-0.551-0.162-1.012-0.486-1.383S-47.027-2149.357-47.582-2149.357z"/>
		<path d="M-43.873-2144.014l0.955-0.076v-5.15l-0.955-0.076v-0.521h1.652v5.748l0.955,0.076v0.516h-2.607V-2144.014z
			 M-42.22-2151.654h-0.697v-0.984h0.697V-2151.654z"/>
		<path d="M-40.228-2152.117v-0.521h1.652v8.549l0.955,0.076v0.516h-2.607v-0.516l0.955-0.076v-7.951L-40.228-2152.117z"/>
		<path d="M-31.855-2144.541c-0.199,0.371-0.472,0.658-0.817,0.861s-0.753,0.305-1.222,0.305c-0.668,0-1.19-0.227-1.567-0.68
			s-0.565-1.156-0.565-2.109v-3.076l-0.785-0.076v-0.521h0.785h0.697v3.686c0,0.773,0.132,1.328,0.396,1.664
			s0.638,0.504,1.122,0.504c0.531,0,0.954-0.117,1.269-0.352s0.536-0.559,0.665-0.973v-3.932l-0.902-0.076v-0.521h0.902h0.703v5.748
			l0.85,0.076v0.516h-1.465L-31.855-2144.541z"/>
		<path d="M-29.424-2144.014l0.955-0.076v-5.15l-0.955-0.076v-0.521h1.576l0.064,1.107c0.203-0.391,0.478-0.692,0.823-0.905
			s0.755-0.319,1.228-0.319c0.688,0,1.211,0.21,1.57,0.63s0.539,1.075,0.539,1.966v3.27l0.955,0.076v0.516h-2.613v-0.516
			l0.955-0.076v-3.264c0-0.727-0.136-1.24-0.407-1.541s-0.657-0.451-1.157-0.451c-0.492,0-0.894,0.13-1.204,0.39
			s-0.534,0.604-0.671,1.034v3.832l0.955,0.076v0.516h-2.613V-2144.014z"/>
		<path d="M-21.595-2146.615c0-1.012,0.216-1.821,0.647-2.429s1.03-0.911,1.796-0.911c0.449,0,0.839,0.099,1.169,0.296
			s0.603,0.476,0.817,0.835l0.082-1.014h0.592v6.258c0,0.816-0.221,1.461-0.662,1.934s-1.057,0.709-1.846,0.709
			c-0.305,0-0.63-0.037-0.976-0.111s-0.647-0.176-0.905-0.305l0.188-0.592c0.254,0.121,0.521,0.215,0.8,0.281s0.573,0.1,0.882,0.1
			c0.602,0,1.055-0.178,1.359-0.533s0.457-0.85,0.457-1.482v-0.803c-0.215,0.324-0.486,0.573-0.814,0.747s-0.713,0.261-1.154,0.261
			c-0.762,0-1.357-0.283-1.787-0.85s-0.645-1.322-0.645-2.268V-2146.615z M-20.892-2146.492c0,0.762,0.155,1.37,0.466,1.825
			s0.774,0.683,1.392,0.683c0.457,0,0.837-0.104,1.14-0.311s0.536-0.492,0.7-0.855v-2.941c-0.156-0.371-0.381-0.673-0.674-0.905
			s-0.678-0.349-1.154-0.349c-0.617,0-1.083,0.254-1.397,0.762s-0.472,1.164-0.472,1.969V-2146.492z"/>
	</g>
</g>
<g transform="matrix(1,0,0,1,596,2170)">
	<g enable-background="new    ">
		<path fill="#6D7FBC" d="M-69.041-2069.021l-0.094-0.984h-4.062l-0.422,4.055c0.286-0.261,0.602-0.461,0.945-0.602
			s0.81-0.219,1.398-0.234c0.969-0.016,1.75,0.31,2.344,0.977s0.891,1.562,0.891,2.688c0,1.151-0.289,2.07-0.867,2.758
			s-1.445,1.031-2.602,1.031c-0.938,0-1.718-0.262-2.34-0.785c-0.623-0.523-0.921-1.298-0.895-2.324l0.016-0.047h0.836
			c0,0.766,0.216,1.352,0.648,1.758c0.432,0.406,1.01,0.609,1.734,0.609c0.849,0,1.482-0.255,1.902-0.766
			c0.419-0.511,0.629-1.25,0.629-2.219c0-0.849-0.21-1.53-0.629-2.043c-0.42-0.513-1.007-0.77-1.762-0.77
			c-0.729,0-1.285,0.116-1.668,0.348s-0.66,0.582-0.832,1.051l-0.758-0.125l0.625-6.227h5.719v1.852H-69.041z"/>
		<path fill="#6D7FBC" d="M-62.697-2059.498v-0.688l1.273-0.102v-9.789l-1.273-0.102v-0.695h1.273h0.938h1.273v0.695l-1.273,0.102
			v9.789h4.727l0.07-1.602h0.828v2.391H-62.697z"/>
		<path fill="#6D7FBC" d="M-48.697-2070.873c1.192,0,2.115,0.304,2.77,0.91c0.653,0.606,0.98,1.41,0.98,2.41
			c0,1.011-0.327,1.817-0.98,2.422c-0.654,0.604-1.577,0.906-2.77,0.906h-2.594v3.938l1.273,0.102v0.688h-3.477v-0.688l1.273-0.102
			v-9.789l-1.273-0.102v-0.695h1.273H-48.697z M-51.291-2065.021h2.594c0.938,0,1.642-0.238,2.113-0.715
			c0.471-0.477,0.707-1.077,0.707-1.801c0-0.729-0.234-1.335-0.703-1.816s-1.175-0.723-2.117-0.723h-2.594V-2065.021z"/>
	</g>
</g>
<g transform="matrix(1,0,0,1,596,2170)">
	<g enable-background="new    ">
		<path fill="#6D7FBC" d="M-79.611-2045.092c0-1.891,0.36-3.586,1.082-5.086c0.721-1.5,1.527-2.503,2.418-3.008h0.047l0.203,0.57
			c-0.756,0.536-1.414,1.489-1.977,2.859s-0.844,2.917-0.844,4.641v0.156c0,1.724,0.281,3.271,0.844,4.641s1.221,2.333,1.977,2.891
			l-0.203,0.547h-0.047c-0.901-0.521-1.71-1.516-2.426-2.984c-0.717-1.469-1.074-3.172-1.074-5.109V-2045.092z"/>
		<path fill="#6D7FBC" d="M-72.088-2051.178l-1.156,0.086l1.797,7.375l0.344,1.734h0.047l0.422-1.734l2.5-8.156h0.883l2.492,8.156
			l0.414,1.758l0.047-0.008l0.367-1.75l1.773-7.375l-1.156-0.086v-0.695h2.969v0.695l-0.852,0.062l-2.648,10.617h-0.883
			l-2.648-8.727l-0.297-1.195h-0.047l-0.281,1.195l-2.672,8.727h-0.883l-2.648-10.617l-0.852-0.062v-0.695h2.969V-2051.178z"/>
		<path fill="#6D7FBC" d="M-59.564-2041.186l1.273-0.102v-6.867l-1.273-0.102v-0.695h2.203v7.664l1.273,0.102v0.688h-3.477
			V-2041.186z M-57.361-2051.373h-0.93v-1.312h0.93V-2051.373z"/>
		<path fill="#6D7FBC" d="M-46.689-2048.498h-0.766l-0.133-1.609c-0.281-0.354-0.664-0.632-1.148-0.832s-1.053-0.301-1.703-0.301
			c-0.938,0-1.668,0.203-2.191,0.609s-0.785,0.911-0.785,1.516c0,0.573,0.235,1.051,0.707,1.434c0.471,0.383,1.287,0.72,2.449,1.012
			c1.224,0.312,2.154,0.734,2.793,1.266c0.638,0.531,0.957,1.231,0.957,2.102c0,0.906-0.37,1.628-1.109,2.164
			c-0.74,0.536-1.686,0.805-2.836,0.805c-0.812,0-1.566-0.144-2.262-0.43s-1.265-0.695-1.707-1.227v-1.992h0.766l0.133,1.664
			c0.344,0.391,0.783,0.688,1.32,0.891c0.536,0.203,1.119,0.305,1.75,0.305c0.896,0,1.621-0.198,2.176-0.594s0.832-0.919,0.832-1.57
			c0-0.62-0.232-1.126-0.695-1.52c-0.464-0.394-1.271-0.741-2.422-1.043c-1.245-0.312-2.188-0.719-2.828-1.219
			s-0.961-1.175-0.961-2.023c0-0.87,0.364-1.578,1.094-2.125c0.729-0.547,1.669-0.82,2.82-0.82c0.828,0,1.566,0.144,2.215,0.43
			s1.16,0.675,1.535,1.164V-2048.498z"/>
		<path fill="#6D7FBC" d="M-41.26-2040.334c-1.062,0-1.943-0.39-2.641-1.168c-0.698-0.778-1.047-1.77-1.047-2.973v-0.43
			c0-1.208,0.348-2.211,1.043-3.008s1.535-1.195,2.52-1.195c1.036,0,1.852,0.328,2.445,0.984s0.891,1.531,0.891,2.625v0.797h-5.969
			v0.227c0,0.948,0.254,1.743,0.762,2.387s1.173,0.965,1.996,0.965c0.578,0,1.072-0.081,1.484-0.242
			c0.411-0.161,0.763-0.394,1.055-0.695l0.398,0.641c-0.318,0.333-0.719,0.598-1.203,0.793S-40.588-2040.334-41.26-2040.334z
			 M-41.385-2048.311c-0.688,0-1.268,0.265-1.738,0.793c-0.472,0.528-0.746,1.191-0.824,1.988l0.016,0.039h4.953v-0.234
			c0-0.734-0.217-1.349-0.648-1.844C-40.059-2048.063-40.645-2048.311-41.385-2048.311z"/>
		<path fill="#6D7FBC" d="M-33.299-2044.975c0,1.938-0.361,3.641-1.082,5.109c-0.722,1.469-1.53,2.464-2.426,2.984l-0.047-0.008
			l-0.195-0.539c0.75-0.531,1.407-1.487,1.973-2.867c0.564-1.38,0.848-2.935,0.848-4.664v-0.156c0-1.714-0.288-3.265-0.863-4.652
			c-0.576-1.388-1.229-2.348-1.957-2.879l0.195-0.539l0.047-0.008c0.885,0.511,1.691,1.516,2.418,3.016s1.09,3.195,1.09,5.086
			V-2044.975z"/>
	</g>
</g>
<g transform="matrix(1,0,0,1,770,2170)">
	<path vector-effect="none" fill="#FFFFFF" d="M-149.504-2170.5H22.497v140h-172.001V-2170.5"/>
</g>
<g transform="matrix(1,0,0,1,770,2170)">
	<path vector-effect="none" fill="none" d="M23.496-2170.5h172.001v140H23.496V-2170.5"/>
</g>
<g transform="matrix(1,0,0,1,770,2170)">
	<path vector-effect="none" fill="none" d="M196.496-2170.5h172.001v140H196.496V-2170.5"/>
</g>
<g transform="matrix(1,0,0,1,770,2170)">
	<path vector-effect="none" fill="#90C695" d="M-149.504-2170.5H22.497v6h-172.001V-2170.5"/>
</g>
<g transform="matrix(1,0,0,1,770,2170)">
	<g enable-background="new    ">
		<path d="M-125.988-2152.029c0.895,0,1.587,0.228,2.077,0.683s0.735,1.058,0.735,1.808c0,0.758-0.245,1.363-0.735,1.816
			s-1.183,0.68-2.077,0.68h-1.945v2.953l0.955,0.076v0.516h-2.607v-0.516l0.955-0.076v-7.342l-0.955-0.076v-0.521h0.955H-125.988z
			 M-127.933-2147.641h1.945c0.703,0,1.231-0.179,1.585-0.536s0.53-0.808,0.53-1.351c0-0.547-0.176-1.001-0.527-1.362
			s-0.881-0.542-1.588-0.542h-1.945V-2147.641z"/>
		<path d="M-122.033-2146.762c0-0.934,0.256-1.699,0.768-2.297s1.189-0.896,2.033-0.896c0.848,0,1.527,0.299,2.039,0.896
			s0.768,1.363,0.768,2.297v0.193c0,0.938-0.255,1.704-0.765,2.3s-1.187,0.894-2.03,0.894c-0.852,0-1.533-0.298-2.045-0.894
			s-0.768-1.362-0.768-2.3V-2146.762z M-121.33-2146.568c0,0.734,0.186,1.352,0.557,1.852s0.889,0.75,1.553,0.75
			c0.652,0,1.164-0.25,1.535-0.75s0.557-1.117,0.557-1.852v-0.193c0-0.723-0.187-1.336-0.56-1.84s-0.888-0.756-1.544-0.756
			s-1.17,0.252-1.541,0.756s-0.557,1.117-0.557,1.84V-2146.568z"/>
		<path d="M-115.541-2152.117v-0.521h1.652v8.549l0.955,0.076v0.516h-2.607v-0.516l0.955-0.076v-7.951L-115.541-2152.117z"/>
		<path d="M-111.873-2144.014l0.955-0.076v-5.15l-0.955-0.076v-0.521h1.652v5.748l0.955,0.076v0.516h-2.607V-2144.014z
			 M-110.22-2151.654h-0.697v-0.984h0.697V-2151.654z"/>
		<path d="M-106.476-2151.461v1.623h1.395v0.574h-1.395v4.131c0,0.414,0.075,0.708,0.226,0.882s0.351,0.261,0.601,0.261
			c0.113,0,0.224-0.005,0.331-0.015s0.231-0.026,0.372-0.05l0.105,0.521c-0.117,0.051-0.26,0.09-0.428,0.117
			s-0.336,0.041-0.504,0.041c-0.445,0-0.792-0.141-1.04-0.422s-0.372-0.727-0.372-1.336v-4.131h-1.09v-0.574h1.09v-1.623H-106.476z"
			/>
		<path d="M-103.84-2144.014l0.955-0.076v-5.15l-0.955-0.076v-0.521h1.652v5.748l0.955,0.076v0.516h-2.607V-2144.014z
			 M-102.187-2151.654h-0.697v-0.984h0.697V-2151.654z"/>
		<path d="M-95.455-2147.881h-0.574l-0.082-0.896c-0.176-0.184-0.397-0.326-0.665-0.428s-0.575-0.152-0.923-0.152
			c-0.512,0-0.896,0.11-1.151,0.331s-0.384,0.479-0.384,0.776c0,0.293,0.11,0.535,0.331,0.727s0.661,0.359,1.321,0.504
			c0.754,0.168,1.318,0.397,1.693,0.688s0.562,0.687,0.562,1.187c0,0.527-0.214,0.954-0.642,1.28s-0.993,0.489-1.696,0.489
			c-0.469,0-0.896-0.065-1.28-0.196s-0.718-0.315-0.999-0.554v-1.277h0.568l0.1,0.902c0.188,0.188,0.425,0.323,0.712,0.407
			s0.587,0.126,0.899,0.126c0.508,0,0.908-0.111,1.201-0.334s0.439-0.492,0.439-0.809c0-0.297-0.122-0.557-0.366-0.779
			s-0.685-0.404-1.321-0.545c-0.754-0.164-1.313-0.382-1.679-0.653s-0.548-0.651-0.548-1.14c0-0.484,0.205-0.894,0.615-1.228
			s0.951-0.501,1.623-0.501c0.465,0,0.89,0.071,1.274,0.214s0.698,0.335,0.94,0.577L-95.455-2147.881z"/>
		<path d="M-91.342-2143.967c0.465,0,0.875-0.133,1.23-0.398s0.533-0.635,0.533-1.107h0.621l0.012,0.035
			c0.02,0.586-0.214,1.076-0.7,1.471s-1.052,0.592-1.696,0.592c-0.859,0-1.525-0.296-1.998-0.888s-0.709-1.353-0.709-2.282v-0.246
			c0-0.922,0.236-1.68,0.709-2.273s1.137-0.891,1.992-0.891c0.488,0,0.936,0.092,1.342,0.275s0.736,0.434,0.99,0.75l0.029,1.383
			h-0.598l-0.111-1.125c-0.188-0.211-0.421-0.378-0.7-0.501s-0.597-0.185-0.952-0.185c-0.68,0-1.183,0.243-1.509,0.729
			s-0.489,1.099-0.489,1.837v0.246c0,0.75,0.162,1.367,0.486,1.852S-92.029-2143.967-91.342-2143.967z"/>
		<path d="M-87.844-2152.117v-0.521h1.652v3.885c0.211-0.379,0.492-0.674,0.844-0.885s0.762-0.316,1.23-0.316
			c0.668,0,1.181,0.207,1.538,0.621s0.536,1.057,0.536,1.928v3.316l0.955,0.076v0.516h-2.613v-0.516l0.955-0.076v-3.328
			c0-0.688-0.136-1.181-0.407-1.479s-0.646-0.448-1.122-0.448c-0.48,0-0.882,0.126-1.204,0.378s-0.56,0.587-0.712,1.005v3.873
			l0.955,0.076v0.516h-2.607v-0.516l0.955-0.076v-7.951L-87.844-2152.117z"/>
		<path d="M-77.297-2143.375c-0.797,0-1.457-0.292-1.98-0.876s-0.785-1.327-0.785-2.229v-0.322c0-0.906,0.261-1.658,0.782-2.256
			s1.151-0.896,1.89-0.896c0.777,0,1.389,0.246,1.834,0.738s0.668,1.148,0.668,1.969v0.598h-4.477v0.17
			c0,0.711,0.19,1.308,0.571,1.79s0.88,0.724,1.497,0.724c0.434,0,0.805-0.061,1.113-0.182s0.572-0.295,0.791-0.521l0.299,0.48
			c-0.238,0.25-0.539,0.448-0.902,0.595S-76.793-2143.375-77.297-2143.375z M-77.39-2149.357c-0.516,0-0.95,0.198-1.304,0.595
			s-0.56,0.894-0.618,1.491l0.012,0.029h3.715v-0.176c0-0.551-0.162-1.012-0.486-1.383S-76.836-2149.357-77.39-2149.357z"/>
		<path d="M-67.271-2152.029c0.895,0,1.587,0.228,2.077,0.683s0.735,1.058,0.735,1.808c0,0.758-0.245,1.363-0.735,1.816
			s-1.183,0.68-2.077,0.68h-1.945v2.953l0.955,0.076v0.516h-2.607v-0.516l0.955-0.076v-7.342l-0.955-0.076v-0.521h0.955H-67.271z
			 M-69.217-2147.641h1.945c0.703,0,1.231-0.179,1.585-0.536s0.53-0.808,0.53-1.351c0-0.547-0.176-1.001-0.527-1.362
			s-0.881-0.542-1.588-0.542h-1.945V-2147.641z"/>
		<path d="M-58.927-2143.498c-0.047-0.215-0.08-0.4-0.1-0.557s-0.029-0.314-0.029-0.475c-0.234,0.332-0.547,0.607-0.938,0.826
			s-0.83,0.328-1.318,0.328c-0.621,0-1.102-0.16-1.441-0.48s-0.51-0.754-0.51-1.301c0-0.586,0.252-1.051,0.756-1.395
			s1.188-0.516,2.051-0.516h1.4v-0.838c0-0.453-0.146-0.809-0.437-1.066s-0.698-0.387-1.222-0.387c-0.352,0-0.673,0.048-0.964,0.144
			s-0.534,0.226-0.729,0.39l-0.059,0.85h-0.58l0.006-1.219c0.293-0.227,0.644-0.41,1.052-0.551s0.843-0.211,1.304-0.211
			c0.699,0,1.262,0.178,1.688,0.533s0.639,0.865,0.639,1.529v3.117c0,0.129,0.003,0.253,0.009,0.372s0.019,0.235,0.038,0.349
			l0.633,0.041v0.516H-58.927z M-61.236-2143.996c0.508,0,0.955-0.117,1.342-0.352s0.666-0.537,0.838-0.908v-1.271h-1.412
			c-0.637,0-1.146,0.132-1.526,0.396s-0.571,0.597-0.571,0.999c0,0.34,0.118,0.614,0.354,0.823S-61.65-2143.996-61.236-2143.996z"/>
		<path d="M-55.166-2149.838l0.088,1.055v0.076c0.18-0.391,0.425-0.696,0.735-0.917s0.679-0.331,1.104-0.331
			c0.09,0,0.177,0.007,0.261,0.021s0.153,0.028,0.208,0.044l-0.094,0.656l-0.521-0.035c-0.441,0-0.804,0.124-1.087,0.372
			s-0.485,0.589-0.606,1.022v3.785l0.955,0.076v0.516h-2.607v-0.516l0.955-0.076v-5.15l-0.955-0.076v-0.521h0.955H-55.166z"/>
		<path d="M-50.062-2151.461v1.623h1.395v0.574h-1.395v4.131c0,0.414,0.075,0.708,0.226,0.882s0.351,0.261,0.601,0.261
			c0.113,0,0.224-0.005,0.331-0.015s0.231-0.026,0.372-0.05l0.105,0.521c-0.117,0.051-0.26,0.09-0.428,0.117
			s-0.336,0.041-0.504,0.041c-0.445,0-0.792-0.141-1.04-0.422s-0.372-0.727-0.372-1.336v-4.131h-1.09v-0.574h1.09v-1.623H-50.062z"
			/>
		<path d="M-47.426-2144.014l0.955-0.076v-5.15l-0.955-0.076v-0.521h1.652v5.748l0.955,0.076v0.516h-2.607V-2144.014z
			 M-45.773-2151.654h-0.697v-0.984h0.697V-2151.654z"/>
		<path d="M-42.668-2144.09h3.445l0.053-1.201h0.627v1.793h-4.986v-0.516l3.82-5.221h-3.129l-0.047,1.195h-0.627v-1.799h4.688v0.521
			L-42.668-2144.09z"/>
		<path d="M-37.359-2144.014l0.955-0.076v-5.15l-0.955-0.076v-0.521h1.652v5.748l0.955,0.076v0.516h-2.607V-2144.014z
			 M-35.707-2151.654h-0.697v-0.984h0.697V-2151.654z"/>
		<path d="M-33.761-2149.316v-0.521h1.541l0.088,0.984c0.215-0.352,0.489-0.623,0.823-0.814s0.726-0.287,1.175-0.287
			c0.762,0,1.357,0.304,1.787,0.911s0.645,1.417,0.645,2.429v0.123c0,0.949-0.215,1.706-0.645,2.271s-1.021,0.847-1.775,0.847
			c-0.445,0-0.835-0.085-1.169-0.255s-0.606-0.411-0.817-0.724v2.695l0.955,0.076v0.521h-2.607v-0.521l0.955-0.076v-7.582
			L-33.761-2149.316z M-28.406-2146.615c0-0.805-0.16-1.461-0.48-1.969s-0.789-0.762-1.406-0.762c-0.473,0-0.856,0.112-1.151,0.337
			s-0.517,0.517-0.665,0.876v3.047c0.16,0.348,0.392,0.621,0.694,0.82s0.681,0.299,1.134,0.299c0.613,0,1.079-0.23,1.397-0.691
			s0.478-1.072,0.478-1.834V-2146.615z"/>
		<path d="M-22.183-2143.498c-0.047-0.215-0.08-0.4-0.1-0.557s-0.029-0.314-0.029-0.475c-0.234,0.332-0.547,0.607-0.938,0.826
			s-0.83,0.328-1.318,0.328c-0.621,0-1.102-0.16-1.441-0.48s-0.51-0.754-0.51-1.301c0-0.586,0.252-1.051,0.756-1.395
			s1.188-0.516,2.051-0.516h1.4v-0.838c0-0.453-0.146-0.809-0.437-1.066s-0.698-0.387-1.222-0.387c-0.352,0-0.673,0.048-0.964,0.144
			s-0.534,0.226-0.729,0.39l-0.059,0.85h-0.58l0.006-1.219c0.293-0.227,0.644-0.41,1.052-0.551s0.843-0.211,1.304-0.211
			c0.699,0,1.262,0.178,1.688,0.533s0.639,0.865,0.639,1.529v3.117c0,0.129,0.003,0.253,0.009,0.372s0.019,0.235,0.038,0.349
			l0.633,0.041v0.516H-22.183z M-24.492-2143.996c0.508,0,0.955-0.117,1.342-0.352s0.666-0.537,0.838-0.908v-1.271h-1.412
			c-0.637,0-1.146,0.132-1.526,0.396s-0.571,0.597-0.571,0.999c0,0.34,0.118,0.614,0.354,0.823S-24.906-2143.996-24.492-2143.996z"
			/>
		<path d="M-18.328-2151.461v1.623h1.395v0.574h-1.395v4.131c0,0.414,0.075,0.708,0.226,0.882s0.351,0.261,0.601,0.261
			c0.113,0,0.224-0.005,0.331-0.015s0.231-0.026,0.372-0.05l0.105,0.521c-0.117,0.051-0.26,0.09-0.428,0.117
			s-0.336,0.041-0.504,0.041c-0.445,0-0.792-0.141-1.04-0.422s-0.372-0.727-0.372-1.336v-4.131h-1.09v-0.574h1.09v-1.623H-18.328z"
			/>
		<path d="M-15.691-2144.014l0.955-0.076v-5.15l-0.955-0.076v-0.521h1.652v5.748l0.955,0.076v0.516h-2.607V-2144.014z
			 M-14.039-2151.654h-0.697v-0.984h0.697V-2151.654z"/>
		<path d="M-11.906-2146.762c0-0.934,0.256-1.699,0.768-2.297s1.189-0.896,2.033-0.896c0.848,0,1.527,0.299,2.039,0.896
			s0.768,1.363,0.768,2.297v0.193c0,0.938-0.255,1.704-0.765,2.3s-1.187,0.894-2.03,0.894c-0.852,0-1.533-0.298-2.045-0.894
			s-0.768-1.362-0.768-2.3V-2146.762z M-11.203-2146.568c0,0.734,0.186,1.352,0.557,1.852s0.889,0.75,1.553,0.75
			c0.652,0,1.164-0.25,1.535-0.75s0.557-1.117,0.557-1.852v-0.193c0-0.723-0.187-1.336-0.56-1.84s-0.888-0.756-1.544-0.756
			s-1.17,0.252-1.541,0.756s-0.557,1.117-0.557,1.84V-2146.568z"/>
		<path d="M-5.285-2144.014l0.955-0.076v-5.15l-0.955-0.076v-0.521h1.576l0.064,1.107c0.203-0.391,0.478-0.692,0.823-0.905
			s0.755-0.319,1.228-0.319c0.688,0,1.211,0.21,1.57,0.63s0.539,1.075,0.539,1.966v3.27l0.955,0.076v0.516h-2.613v-0.516
			l0.955-0.076v-3.264c0-0.727-0.136-1.24-0.407-1.541s-0.657-0.451-1.157-0.451c-0.492,0-0.894,0.13-1.204,0.39
			s-0.534,0.604-0.671,1.034v3.832l0.955,0.076v0.516h-2.613V-2144.014z"/>
	</g>
</g>
<g transform="matrix(1,0,0,1,770,2170)">
	<g enable-background="new    ">
		<path fill="#6D7FBC" d="M-69.041-2069.021l-0.094-0.984h-4.062l-0.422,4.055c0.286-0.261,0.602-0.461,0.945-0.602
			s0.81-0.219,1.398-0.234c0.969-0.016,1.75,0.31,2.344,0.977s0.891,1.562,0.891,2.688c0,1.151-0.289,2.07-0.867,2.758
			s-1.445,1.031-2.602,1.031c-0.938,0-1.718-0.262-2.34-0.785c-0.623-0.523-0.921-1.298-0.895-2.324l0.016-0.047h0.836
			c0,0.766,0.216,1.352,0.648,1.758c0.432,0.406,1.01,0.609,1.734,0.609c0.849,0,1.482-0.255,1.902-0.766
			c0.419-0.511,0.629-1.25,0.629-2.219c0-0.849-0.21-1.53-0.629-2.043c-0.42-0.513-1.007-0.77-1.762-0.77
			c-0.729,0-1.285,0.116-1.668,0.348s-0.66,0.582-0.832,1.051l-0.758-0.125l0.625-6.227h5.719v1.852H-69.041z"/>
		<path fill="#6D7FBC" d="M-62.697-2059.498v-0.688l1.273-0.102v-9.789l-1.273-0.102v-0.695h1.273h0.938h1.273v0.695l-1.273,0.102
			v9.789h4.727l0.07-1.602h0.828v2.391H-62.697z"/>
		<path fill="#6D7FBC" d="M-48.697-2070.873c1.192,0,2.115,0.304,2.77,0.91c0.653,0.606,0.98,1.41,0.98,2.41
			c0,1.011-0.327,1.817-0.98,2.422c-0.654,0.604-1.577,0.906-2.77,0.906h-2.594v3.938l1.273,0.102v0.688h-3.477v-0.688l1.273-0.102
			v-9.789l-1.273-0.102v-0.695h1.273H-48.697z M-51.291-2065.021h2.594c0.938,0,1.642-0.238,2.113-0.715
			c0.471-0.477,0.707-1.077,0.707-1.801c0-0.729-0.234-1.335-0.703-1.816s-1.175-0.723-2.117-0.723h-2.594V-2065.021z"/>
	</g>
</g>
<g transform="matrix(1,0,0,1,770,2170)">
	<g enable-background="new    ">
		<path fill="#6D7FBC" d="M-79.611-2045.092c0-1.891,0.36-3.586,1.082-5.086c0.721-1.5,1.527-2.503,2.418-3.008h0.047l0.203,0.57
			c-0.756,0.536-1.414,1.489-1.977,2.859s-0.844,2.917-0.844,4.641v0.156c0,1.724,0.281,3.271,0.844,4.641s1.221,2.333,1.977,2.891
			l-0.203,0.547h-0.047c-0.901-0.521-1.71-1.516-2.426-2.984c-0.717-1.469-1.074-3.172-1.074-5.109V-2045.092z"/>
		<path fill="#6D7FBC" d="M-72.088-2051.178l-1.156,0.086l1.797,7.375l0.344,1.734h0.047l0.422-1.734l2.5-8.156h0.883l2.492,8.156
			l0.414,1.758l0.047-0.008l0.367-1.75l1.773-7.375l-1.156-0.086v-0.695h2.969v0.695l-0.852,0.062l-2.648,10.617h-0.883
			l-2.648-8.727l-0.297-1.195h-0.047l-0.281,1.195l-2.672,8.727h-0.883l-2.648-10.617l-0.852-0.062v-0.695h2.969V-2051.178z"/>
		<path fill="#6D7FBC" d="M-59.564-2041.186l1.273-0.102v-6.867l-1.273-0.102v-0.695h2.203v7.664l1.273,0.102v0.688h-3.477
			V-2041.186z M-57.361-2051.373h-0.93v-1.312h0.93V-2051.373z"/>
		<path fill="#6D7FBC" d="M-46.689-2048.498h-0.766l-0.133-1.609c-0.281-0.354-0.664-0.632-1.148-0.832s-1.053-0.301-1.703-0.301
			c-0.938,0-1.668,0.203-2.191,0.609s-0.785,0.911-0.785,1.516c0,0.573,0.235,1.051,0.707,1.434c0.471,0.383,1.287,0.72,2.449,1.012
			c1.224,0.312,2.154,0.734,2.793,1.266c0.638,0.531,0.957,1.231,0.957,2.102c0,0.906-0.37,1.628-1.109,2.164
			c-0.74,0.536-1.686,0.805-2.836,0.805c-0.812,0-1.566-0.144-2.262-0.43s-1.265-0.695-1.707-1.227v-1.992h0.766l0.133,1.664
			c0.344,0.391,0.783,0.688,1.32,0.891c0.536,0.203,1.119,0.305,1.75,0.305c0.896,0,1.621-0.198,2.176-0.594s0.832-0.919,0.832-1.57
			c0-0.62-0.232-1.126-0.695-1.52c-0.464-0.394-1.271-0.741-2.422-1.043c-1.245-0.312-2.188-0.719-2.828-1.219
			s-0.961-1.175-0.961-2.023c0-0.87,0.364-1.578,1.094-2.125c0.729-0.547,1.669-0.82,2.82-0.82c0.828,0,1.566,0.144,2.215,0.43
			s1.16,0.675,1.535,1.164V-2048.498z"/>
		<path fill="#6D7FBC" d="M-41.26-2040.334c-1.062,0-1.943-0.39-2.641-1.168c-0.698-0.778-1.047-1.77-1.047-2.973v-0.43
			c0-1.208,0.348-2.211,1.043-3.008s1.535-1.195,2.52-1.195c1.036,0,1.852,0.328,2.445,0.984s0.891,1.531,0.891,2.625v0.797h-5.969
			v0.227c0,0.948,0.254,1.743,0.762,2.387s1.173,0.965,1.996,0.965c0.578,0,1.072-0.081,1.484-0.242
			c0.411-0.161,0.763-0.394,1.055-0.695l0.398,0.641c-0.318,0.333-0.719,0.598-1.203,0.793S-40.588-2040.334-41.26-2040.334z
			 M-41.385-2048.311c-0.688,0-1.268,0.265-1.738,0.793c-0.472,0.528-0.746,1.191-0.824,1.988l0.016,0.039h4.953v-0.234
			c0-0.734-0.217-1.349-0.648-1.844C-40.059-2048.063-40.645-2048.311-41.385-2048.311z"/>
		<path fill="#6D7FBC" d="M-33.299-2044.975c0,1.938-0.361,3.641-1.082,5.109c-0.722,1.469-1.53,2.464-2.426,2.984l-0.047-0.008
			l-0.195-0.539c0.75-0.531,1.407-1.487,1.973-2.867c0.564-1.38,0.848-2.935,0.848-4.664v-0.156c0-1.714-0.288-3.265-0.863-4.652
			c-0.576-1.388-1.229-2.348-1.957-2.879l0.195-0.539l0.047-0.008c0.885,0.511,1.691,1.516,2.418,3.016s1.09,3.195,1.09,5.086
			V-2044.975z"/>
	</g>
</g>
</svg>
