<?xml version="1.0" encoding="utf-8"?>
<!DOCTYPE svg PUBLIC "-//W3C//DTD SVG 1.1//EN" "http://www.w3.org/Graphics/SVG/1.1/DTD/svg11.dtd">
<svg version="1.1" id="Layer_1" xmlns="http://www.w3.org/2000/svg" xmlns:xlink="http://www.w3.org/1999/xlink" x="0px" y="0px"
	 width="1140.549px" height="140px" viewBox="0 0 1140.549 140" enable-background="new 0 0 1140.549 140" xml:space="preserve">
<rect x="98.42" y="0.536" fill="#969696" width="522" height="139.521"/>
<g transform="matrix(1,0,0,1,0,0)">
	<path vector-effect="none" fill="#F2231A" d="M0-0.334h99v140H0V-0.334"/>
</g>
<g transform="matrix(1,0,0,1,0,0)">
	<g enable-background="new    ">
		<path fill="#FFFFFF" d="M10.889,46.074c0-1.891,0.36-3.586,1.082-5.086c0.721-1.5,1.527-2.503,2.418-3.008h0.047l0.203,0.57
			c-0.755,0.536-1.414,1.489-1.977,2.859s-0.844,2.917-0.844,4.641v0.156c0,1.724,0.281,3.271,0.844,4.641s1.221,2.333,1.977,2.891
			l-0.203,0.547h-0.047c-0.901-0.521-1.71-1.516-2.426-2.984c-0.716-1.469-1.074-3.172-1.074-5.109V46.074z"/>
		<path fill="#FFFFFF" d="M15.858,49.98l2.039-0.102v-9.594l-2.242,0.32v-0.656l3.18-0.688v10.617l2.039,0.102v0.688h-5.016V49.98z"
			/>
		<path fill="#FFFFFF" d="M31.944,50.668c-0.062-0.286-0.107-0.534-0.133-0.742c-0.026-0.208-0.039-0.419-0.039-0.633
			c-0.312,0.442-0.729,0.81-1.25,1.102c-0.521,0.292-1.107,0.438-1.758,0.438c-0.828,0-1.469-0.214-1.922-0.641
			s-0.68-1.005-0.68-1.734c0-0.781,0.336-1.401,1.008-1.859s1.583-0.688,2.734-0.688h1.867v-1.117c0-0.604-0.194-1.078-0.582-1.422
			c-0.388-0.344-0.931-0.516-1.629-0.516c-0.469,0-0.897,0.063-1.285,0.191c-0.388,0.128-0.712,0.301-0.973,0.52l-0.078,1.133
			h-0.773l0.008-1.625c0.391-0.302,0.858-0.547,1.402-0.734c0.544-0.188,1.124-0.281,1.738-0.281c0.932,0,1.682,0.237,2.25,0.711
			c0.567,0.474,0.852,1.153,0.852,2.039v4.156c0,0.172,0.004,0.337,0.012,0.496s0.024,0.313,0.051,0.465l0.844,0.055v0.688H31.944z
			 M28.866,50.004c0.677,0,1.273-0.156,1.789-0.469s0.888-0.716,1.117-1.211v-1.695h-1.883c-0.849,0-1.527,0.176-2.035,0.527
			s-0.762,0.796-0.762,1.332c0,0.453,0.157,0.819,0.473,1.098C27.88,49.864,28.314,50.004,28.866,50.004z"/>
		<path fill="#FFFFFF" d="M41.147,49.277c-0.266,0.495-0.629,0.878-1.09,1.148s-1.004,0.406-1.629,0.406
			c-0.891,0-1.587-0.302-2.09-0.906c-0.503-0.604-0.754-1.542-0.754-2.812v-4.102l-1.047-0.102v-0.695h1.047h0.93v4.914
			c0,1.031,0.176,1.771,0.527,2.219s0.85,0.672,1.496,0.672c0.708,0,1.272-0.156,1.691-0.469c0.419-0.312,0.715-0.745,0.887-1.297
			v-5.242l-1.203-0.102v-0.695h1.203h0.938v7.664l1.133,0.102v0.688h-1.953L41.147,49.277z"/>
		<path fill="#FFFFFF" d="M50.694,44.824h-0.766l-0.109-1.195c-0.234-0.245-0.53-0.435-0.887-0.57
			c-0.357-0.136-0.767-0.203-1.23-0.203c-0.683,0-1.194,0.147-1.535,0.441c-0.341,0.294-0.512,0.64-0.512,1.035
			c0,0.391,0.147,0.714,0.441,0.969c0.294,0.255,0.881,0.479,1.762,0.672c1.005,0.224,1.758,0.53,2.258,0.918s0.75,0.915,0.75,1.582
			c0,0.703-0.285,1.272-0.855,1.707s-1.324,0.652-2.262,0.652c-0.625,0-1.194-0.087-1.707-0.262
			c-0.513-0.175-0.957-0.421-1.332-0.738v-1.703h0.758l0.133,1.203c0.25,0.25,0.566,0.431,0.949,0.543s0.782,0.168,1.199,0.168
			c0.677,0,1.211-0.148,1.602-0.445s0.586-0.656,0.586-1.078c0-0.396-0.163-0.742-0.488-1.039c-0.326-0.297-0.913-0.539-1.762-0.727
			c-1.005-0.219-1.751-0.509-2.238-0.871c-0.487-0.362-0.73-0.868-0.73-1.52c0-0.646,0.273-1.191,0.82-1.637
			s1.268-0.668,2.164-0.668c0.62,0,1.186,0.095,1.699,0.285c0.513,0.19,0.931,0.446,1.254,0.77L50.694,44.824z"/>
		<path fill="#FFFFFF" d="M58.624,44.473h1.078c0.828,0,1.456-0.207,1.883-0.621c0.427-0.414,0.641-0.946,0.641-1.598
			c0-0.708-0.201-1.273-0.602-1.695c-0.401-0.422-0.995-0.633-1.781-0.633c-0.734,0-1.335,0.215-1.801,0.645
			c-0.466,0.43-0.699,0.996-0.699,1.699h-0.875l-0.016-0.047c-0.026-0.886,0.285-1.622,0.934-2.211s1.467-0.883,2.457-0.883
			c1.01,0,1.816,0.278,2.418,0.836s0.902,1.331,0.902,2.32c0,0.536-0.167,1.04-0.5,1.512c-0.333,0.472-0.802,0.821-1.406,1.051
			c0.708,0.203,1.238,0.546,1.59,1.027s0.527,1.051,0.527,1.707c0,1.011-0.327,1.805-0.98,2.383
			c-0.654,0.578-1.494,0.867-2.52,0.867c-0.995,0-1.848-0.282-2.559-0.848s-1.054-1.351-1.027-2.355l0.016-0.047h0.867
			c0,0.724,0.251,1.315,0.754,1.773c0.502,0.458,1.152,0.688,1.949,0.688c0.807,0,1.438-0.21,1.891-0.629s0.68-1.02,0.68-1.801
			c0-0.797-0.237-1.387-0.711-1.77c-0.474-0.383-1.151-0.574-2.031-0.574h-1.078V44.473z"/>
		<path fill="#FFFFFF" d="M68.147,46.191c0,1.938-0.361,3.641-1.082,5.109c-0.722,1.469-1.53,2.464-2.426,2.984l-0.047-0.008
			l-0.195-0.539c0.75-0.531,1.407-1.487,1.973-2.867c0.565-1.38,0.848-2.935,0.848-4.664v-0.156c0-1.714-0.288-3.265-0.863-4.652
			c-0.576-1.388-1.228-2.348-1.957-2.879l0.195-0.539l0.047-0.008c0.885,0.511,1.691,1.516,2.418,3.016s1.09,3.195,1.09,5.086
			V46.191z"/>
	</g>
</g>
<g transform="matrix(1,0,0,1,249,1263)">
	<path vector-effect="none" fill="#FFFFFF" d="M-150-1263.333H23v140h-173V-1263.333"/>
</g>
<g transform="matrix(1,0,0,1,249,1263)">
	<path vector-effect="none" fill="#D35400" d="M-150-1263.333H23v6h-173V-1263.333"/>
</g>
<g transform="matrix(1,0,0,1,249,1263)">
	<g enable-background="new    ">
		<path d="M-143.858-1243.982c0.848,0,1.499,0.185,1.953,0.555c0.455,0.369,0.682,0.903,0.682,1.603
			c0,0.413-0.122,0.784-0.364,1.114c-0.243,0.329-0.585,0.568-1.027,0.717c0.489,0.123,0.841,0.344,1.057,0.66
			c0.215,0.317,0.323,0.717,0.323,1.198v0.723c0,0.279,0.043,0.485,0.13,0.62c0.087,0.134,0.219,0.206,0.396,0.217l0.267,0.017
			v0.483h-0.413c-0.384,0-0.652-0.131-0.804-0.392c-0.152-0.261-0.229-0.579-0.229-0.956v-0.701c0-0.478-0.153-0.857-0.459-1.138
			c-0.306-0.281-0.733-0.427-1.28-0.438h-1.989v3.075l0.886,0.076v0.473h-2.418v-0.473l0.886-0.076v-6.803l-0.886-0.076v-0.479
			H-143.858z M-145.613-1240.255h1.679c0.713,0,1.235-0.143,1.565-0.429s0.495-0.669,0.495-1.146c0-0.508-0.165-0.9-0.495-1.18
			s-0.826-0.418-1.489-0.418h-1.755V-1240.255z"/>
		<path d="M-136.946-1235.962c-0.739,0-1.352-0.271-1.837-0.812s-0.728-1.23-0.728-2.067v-0.299c0-0.841,0.242-1.538,0.726-2.092
			c0.483-0.555,1.067-0.832,1.752-0.832c0.721,0,1.288,0.229,1.701,0.685c0.413,0.457,0.619,1.065,0.619,1.826v0.554h-4.151v0.158
			c0,0.659,0.177,1.213,0.53,1.66c0.354,0.447,0.816,0.671,1.389,0.671c0.402,0,0.746-0.057,1.032-0.169s0.531-0.273,0.733-0.483
			l0.277,0.445c-0.221,0.232-0.5,0.416-0.837,0.552S-136.479-1235.962-136.946-1235.962z M-137.033-1241.51
			c-0.479,0-0.881,0.184-1.209,0.552c-0.328,0.367-0.519,0.828-0.573,1.383l0.011,0.026h3.445v-0.162
			c0-0.511-0.15-0.938-0.451-1.283C-136.111-1241.338-136.519-1241.51-137.033-1241.51z"/>
		<path d="M-133.523-1238.967c0-0.938,0.2-1.689,0.601-2.253c0.4-0.562,0.955-0.845,1.666-0.845c0.417,0,0.778,0.092,1.084,0.274
			c0.306,0.184,0.559,0.441,0.758,0.774l0.076-0.939h0.549v5.803c0,0.757-0.205,1.354-0.614,1.793
			c-0.409,0.438-0.98,0.658-1.711,0.658c-0.283,0-0.584-0.035-0.905-0.104c-0.32-0.069-0.601-0.163-0.839-0.283l0.174-0.548
			c0.235,0.111,0.482,0.198,0.742,0.261c0.259,0.062,0.532,0.092,0.818,0.092c0.558,0,0.978-0.165,1.261-0.494
			c0.282-0.33,0.424-0.788,0.424-1.375v-0.744c-0.2,0.301-0.451,0.531-0.755,0.692c-0.305,0.161-0.661,0.242-1.071,0.242
			c-0.706,0-1.259-0.263-1.657-0.788s-0.598-1.227-0.598-2.103V-1238.967z M-132.87-1238.853c0,0.706,0.144,1.271,0.432,1.692
			s0.718,0.633,1.291,0.633c0.424,0,0.776-0.096,1.057-0.288c0.281-0.191,0.497-0.456,0.649-0.793v-2.728
			c-0.145-0.345-0.354-0.624-0.625-0.84c-0.272-0.216-0.628-0.323-1.071-0.323c-0.572,0-1.004,0.235-1.296,0.706
			c-0.292,0.472-0.437,1.08-0.437,1.826V-1238.853z"/>
		<path d="M-127.356-1236.555l0.886-0.07v-4.776l-0.886-0.07v-0.483h1.533v5.33l0.886,0.07v0.479h-2.418V-1236.555z
			 M-125.823-1243.64h-0.647v-0.913h0.647V-1243.64z"/>
		<path d="M-121.253-1235.962c-0.739,0-1.352-0.271-1.837-0.812s-0.728-1.23-0.728-2.067v-0.299c0-0.841,0.242-1.538,0.726-2.092
			c0.483-0.555,1.067-0.832,1.752-0.832c0.721,0,1.288,0.229,1.701,0.685c0.413,0.457,0.619,1.065,0.619,1.826v0.554h-4.151v0.158
			c0,0.659,0.177,1.213,0.53,1.66c0.354,0.447,0.816,0.671,1.389,0.671c0.402,0,0.746-0.057,1.032-0.169s0.531-0.273,0.733-0.483
			l0.277,0.445c-0.221,0.232-0.5,0.416-0.837,0.552S-120.786-1235.962-121.253-1235.962z M-121.34-1241.51
			c-0.479,0-0.881,0.184-1.209,0.552c-0.328,0.367-0.519,0.828-0.573,1.383l0.011,0.026h3.445v-0.162
			c0-0.511-0.15-0.938-0.451-1.283C-120.418-1241.338-120.826-1241.51-121.34-1241.51z"/>
		<path d="M-116.449-1241.955l0.082,0.978v0.07c0.167-0.361,0.394-0.646,0.682-0.85c0.288-0.205,0.629-0.308,1.024-0.308
			c0.083,0,0.164,0.007,0.242,0.02c0.078,0.013,0.142,0.026,0.193,0.04l-0.087,0.609l-0.483-0.033c-0.41,0-0.746,0.115-1.008,0.346
			c-0.263,0.229-0.45,0.546-0.562,0.948v3.51l0.886,0.07v0.479h-2.418v-0.479l0.886-0.07v-4.776l-0.886-0.07v-0.483h0.886H-116.449z
			"/>
		<path d="M-110.896-1235.962c-0.739,0-1.352-0.271-1.837-0.812s-0.728-1.23-0.728-2.067v-0.299c0-0.841,0.242-1.538,0.726-2.092
			c0.483-0.555,1.067-0.832,1.752-0.832c0.721,0,1.288,0.229,1.701,0.685c0.413,0.457,0.619,1.065,0.619,1.826v0.554h-4.151v0.158
			c0,0.659,0.177,1.213,0.53,1.66c0.354,0.447,0.816,0.671,1.389,0.671c0.402,0,0.746-0.057,1.032-0.169s0.531-0.273,0.733-0.483
			l0.277,0.445c-0.221,0.232-0.5,0.416-0.837,0.552S-110.429-1235.962-110.896-1235.962z M-110.983-1241.51
			c-0.479,0-0.881,0.184-1.209,0.552c-0.328,0.367-0.519,0.828-0.573,1.383l0.011,0.026h3.445v-0.162
			c0-0.511-0.15-0.938-0.451-1.283C-110.061-1241.338-110.469-1241.51-110.983-1241.51z"/>
		<path d="M-107.62-1236.555l0.886-0.07v-4.776l-0.886-0.07v-0.483h1.461l0.06,1.026c0.188-0.362,0.443-0.642,0.763-0.839
			c0.321-0.198,0.7-0.297,1.139-0.297c0.637,0,1.123,0.195,1.456,0.584c0.333,0.39,0.5,0.997,0.5,1.823v3.032l0.886,0.07v0.479
			h-2.424v-0.479l0.886-0.07v-3.026c0-0.674-0.126-1.15-0.377-1.43c-0.252-0.278-0.609-0.418-1.073-0.418
			c-0.457,0-0.829,0.12-1.117,0.361s-0.495,0.561-0.622,0.959v3.554l0.886,0.07v0.479h-2.423V-1236.555z"/>
		<path d="M-97.671-1236.555l0.886-0.07v-4.776l-0.886-0.07v-0.483h1.533v5.33l0.886,0.07v0.479h-2.418V-1236.555z M-96.138-1243.64
			h-0.647v-0.913h0.647V-1243.64z"/>
		<path d="M-94.28-1236.555l0.886-0.07v-4.776l-0.886-0.07v-0.483h1.461l0.06,1.026c0.188-0.362,0.443-0.642,0.763-0.839
			c0.321-0.198,0.7-0.297,1.139-0.297c0.637,0,1.123,0.195,1.456,0.584c0.333,0.39,0.5,0.997,0.5,1.823v3.032l0.886,0.07v0.479
			h-2.424v-0.479l0.886-0.07v-3.026c0-0.674-0.126-1.15-0.377-1.43c-0.252-0.278-0.609-0.418-1.073-0.418
			c-0.457,0-0.829,0.12-1.117,0.361s-0.495,0.561-0.622,0.959v3.554l0.886,0.07v0.479h-2.423V-1236.555z"/>
		<path d="M-80.201-1236.924c-0.196,0.308-0.447,0.545-0.755,0.712c-0.308,0.166-0.67,0.25-1.087,0.25
			c-0.703,0-1.252-0.263-1.649-0.788s-0.595-1.227-0.595-2.103v-0.114c0-0.938,0.199-1.689,0.595-2.253
			c0.396-0.562,0.95-0.845,1.66-0.845c0.409,0,0.764,0.086,1.065,0.259c0.301,0.172,0.551,0.417,0.75,0.736v-2.93l-0.886-0.07
			v-0.483h0.886h0.652v7.928l0.886,0.07v0.479h-1.467L-80.201-1236.924z M-83.63-1238.853c0,0.71,0.142,1.274,0.427,1.695
			c0.284,0.42,0.712,0.63,1.285,0.63c0.417,0,0.766-0.094,1.046-0.282s0.499-0.447,0.655-0.777v-2.782
			c-0.145-0.333-0.354-0.604-0.628-0.814s-0.627-0.315-1.062-0.315c-0.573,0-1.002,0.234-1.291,0.703
			c-0.288,0.47-0.432,1.079-0.432,1.829V-1238.853z"/>
		<path d="M-75.088-1235.962c-0.739,0-1.352-0.271-1.837-0.812s-0.728-1.23-0.728-2.067v-0.299c0-0.841,0.242-1.538,0.726-2.092
			c0.483-0.555,1.067-0.832,1.752-0.832c0.721,0,1.288,0.229,1.701,0.685c0.413,0.457,0.619,1.065,0.619,1.826v0.554h-4.151v0.158
			c0,0.659,0.177,1.213,0.53,1.66c0.354,0.447,0.816,0.671,1.389,0.671c0.402,0,0.746-0.057,1.032-0.169s0.531-0.273,0.733-0.483
			l0.277,0.445c-0.221,0.232-0.5,0.416-0.837,0.552S-74.62-1235.962-75.088-1235.962z M-75.175-1241.51
			c-0.479,0-0.881,0.184-1.209,0.552c-0.328,0.367-0.519,0.828-0.573,1.383l0.011,0.026h3.445v-0.162
			c0-0.511-0.15-0.938-0.451-1.283C-74.253-1241.338-74.66-1241.51-75.175-1241.51z"/>
		<path d="M-71.811-1236.555l0.886-0.07v-4.776l-0.886-0.07v-0.483h1.461l0.06,1.026c0.188-0.362,0.443-0.642,0.763-0.839
			c0.321-0.198,0.7-0.297,1.139-0.297c0.637,0,1.123,0.195,1.456,0.584c0.333,0.39,0.5,0.997,0.5,1.823v3.032l0.886,0.07v0.479
			h-2.424v-0.479l0.886-0.07v-3.026c0-0.674-0.126-1.15-0.377-1.43c-0.252-0.278-0.609-0.418-1.073-0.418
			c-0.457,0-0.829,0.12-1.117,0.361s-0.495,0.561-0.622,0.959v3.554l0.886,0.07v0.479h-2.423V-1236.555z"/>
		<path d="M-61.851-1243.504v-0.483h2.423v0.483l-0.886,0.07v6.809l0.886,0.07v0.479h-2.423v-0.479l0.886-0.07v-6.809
			L-61.851-1243.504z"/>
		<path d="M-58.531-1236.555l0.886-0.07v-4.776l-0.886-0.07v-0.483h1.461l0.06,1.026c0.188-0.362,0.443-0.642,0.763-0.839
			c0.321-0.198,0.7-0.297,1.139-0.297c0.637,0,1.123,0.195,1.456,0.584c0.333,0.39,0.5,0.997,0.5,1.823v3.032l0.886,0.07v0.479
			h-2.424v-0.479l0.886-0.07v-3.026c0-0.674-0.126-1.15-0.377-1.43c-0.252-0.278-0.609-0.418-1.073-0.418
			c-0.457,0-0.829,0.12-1.117,0.361s-0.495,0.561-0.622,0.959v3.554l0.886,0.07v0.479h-2.423V-1236.555z"/>
		<path d="M-49.75-1243.461v1.506h1.293v0.532h-1.293v3.831c0,0.384,0.07,0.656,0.209,0.817c0.14,0.161,0.325,0.242,0.557,0.242
			c0.105,0,0.207-0.005,0.307-0.014c0.1-0.01,0.214-0.024,0.345-0.047l0.098,0.484c-0.109,0.047-0.241,0.083-0.397,0.108
			s-0.312,0.038-0.467,0.038c-0.413,0-0.734-0.131-0.964-0.392s-0.345-0.674-0.345-1.238v-3.831h-1.011v-0.532h1.011v-1.506H-49.75z
			"/>
		<path d="M-44.669-1235.962c-0.739,0-1.352-0.271-1.837-0.812s-0.728-1.23-0.728-2.067v-0.299c0-0.841,0.242-1.538,0.726-2.092
			c0.483-0.555,1.067-0.832,1.752-0.832c0.721,0,1.288,0.229,1.701,0.685c0.413,0.457,0.619,1.065,0.619,1.826v0.554h-4.151v0.158
			c0,0.659,0.177,1.213,0.53,1.66c0.354,0.447,0.816,0.671,1.389,0.671c0.402,0,0.746-0.057,1.032-0.169s0.531-0.273,0.733-0.483
			l0.277,0.445c-0.221,0.232-0.5,0.416-0.837,0.552S-44.202-1235.962-44.669-1235.962z M-44.756-1241.51
			c-0.479,0-0.881,0.184-1.209,0.552c-0.328,0.367-0.519,0.828-0.573,1.383l0.011,0.026h3.445v-0.162
			c0-0.511-0.15-0.938-0.451-1.283C-43.834-1241.338-44.242-1241.51-44.756-1241.51z"/>
		<path d="M-39.866-1241.955l0.082,0.978v0.07c0.167-0.361,0.394-0.646,0.682-0.85c0.288-0.205,0.629-0.308,1.024-0.308
			c0.083,0,0.164,0.007,0.242,0.02c0.078,0.013,0.142,0.026,0.193,0.04l-0.087,0.609l-0.483-0.033c-0.41,0-0.746,0.115-1.008,0.346
			c-0.263,0.229-0.45,0.546-0.562,0.948v3.51l0.886,0.07v0.479h-2.418v-0.479l0.886-0.07v-4.776l-0.886-0.07v-0.483h0.886H-39.866z"
			/>
		<path d="M-36.921-1236.555l0.886-0.07v-4.776l-0.886-0.07v-0.483h1.461l0.06,1.026c0.188-0.362,0.443-0.642,0.763-0.839
			c0.321-0.198,0.7-0.297,1.139-0.297c0.637,0,1.123,0.195,1.456,0.584c0.333,0.39,0.5,0.997,0.5,1.823v3.032l0.886,0.07v0.479
			h-2.424v-0.479l0.886-0.07v-3.026c0-0.674-0.126-1.15-0.377-1.43c-0.252-0.278-0.609-0.418-1.073-0.418
			c-0.457,0-0.829,0.12-1.117,0.361s-0.495,0.561-0.622,0.959v3.554l0.886,0.07v0.479h-2.423V-1236.555z"/>
		<path d="M-25.575-1236.076c-0.043-0.199-0.074-0.371-0.092-0.517c-0.018-0.145-0.027-0.291-0.027-0.439
			c-0.218,0.308-0.507,0.563-0.87,0.766c-0.362,0.203-0.77,0.305-1.223,0.305c-0.576,0-1.021-0.148-1.336-0.445
			c-0.315-0.298-0.473-0.699-0.473-1.207c0-0.543,0.234-0.974,0.701-1.293c0.467-0.318,1.101-0.479,1.902-0.479h1.299v-0.776
			c0-0.421-0.135-0.75-0.405-0.989c-0.27-0.239-0.647-0.358-1.133-0.358c-0.326,0-0.624,0.044-0.894,0.133
			c-0.27,0.089-0.496,0.209-0.677,0.361l-0.054,0.788h-0.538l0.005-1.13c0.272-0.21,0.597-0.381,0.976-0.511
			c0.378-0.131,0.781-0.196,1.209-0.196c0.648,0,1.17,0.165,1.565,0.495c0.395,0.329,0.592,0.802,0.592,1.418v2.891
			c0,0.119,0.002,0.234,0.008,0.345c0.005,0.111,0.017,0.219,0.035,0.323l0.587,0.038v0.479H-25.575z M-27.716-1236.538
			c0.471,0,0.886-0.108,1.244-0.326c0.359-0.217,0.618-0.498,0.777-0.842v-1.18h-1.31c-0.591,0-1.062,0.123-1.416,0.367
			c-0.354,0.244-0.53,0.554-0.53,0.927c0,0.314,0.109,0.569,0.329,0.763C-28.402-1236.635-28.1-1236.538-27.716-1236.538z"/>
		<path d="M-22-1243.461v1.506h1.293v0.532H-22v3.831c0,0.384,0.07,0.656,0.209,0.817c0.14,0.161,0.325,0.242,0.557,0.242
			c0.105,0,0.207-0.005,0.307-0.014c0.1-0.01,0.214-0.024,0.345-0.047l0.098,0.484c-0.109,0.047-0.241,0.083-0.397,0.108
			s-0.312,0.038-0.467,0.038c-0.413,0-0.734-0.131-0.964-0.392s-0.345-0.674-0.345-1.238v-3.831h-1.011v-0.532h1.011v-1.506H-22z"/>
		<path d="M-19.555-1236.555l0.886-0.07v-4.776l-0.886-0.07v-0.483h1.533v5.33l0.886,0.07v0.479h-2.418V-1236.555z M-18.022-1243.64
			h-0.647v-0.913h0.647V-1243.64z"/>
		<path d="M-16.045-1239.103c0-0.866,0.237-1.576,0.712-2.13c0.475-0.555,1.103-0.832,1.886-0.832c0.786,0,1.417,0.277,1.891,0.832
			c0.474,0.554,0.711,1.264,0.711,2.13v0.179c0,0.87-0.236,1.581-0.709,2.133c-0.473,0.553-1.1,0.829-1.883,0.829
			c-0.79,0-1.422-0.276-1.896-0.829c-0.475-0.552-0.712-1.263-0.712-2.133V-1239.103z M-15.392-1238.924
			c0,0.682,0.172,1.254,0.516,1.718s0.824,0.695,1.44,0.695c0.605,0,1.08-0.231,1.424-0.695c0.344-0.464,0.516-1.036,0.516-1.718
			v-0.179c0-0.67-0.173-1.239-0.519-1.706c-0.346-0.468-0.823-0.701-1.432-0.701c-0.609,0-1.085,0.233-1.429,0.701
			c-0.344,0.467-0.516,1.036-0.516,1.706V-1238.924z"/>
		<path d="M-9.904-1236.555l0.886-0.07v-4.776l-0.886-0.07v-0.483h1.461l0.06,1.026c0.188-0.362,0.443-0.642,0.763-0.839
			c0.321-0.198,0.7-0.297,1.139-0.297c0.637,0,1.123,0.195,1.456,0.584c0.333,0.39,0.5,0.997,0.5,1.823v3.032l0.886,0.07v0.479
			h-2.424v-0.479l0.886-0.07v-3.026c0-0.674-0.126-1.15-0.377-1.43c-0.252-0.278-0.609-0.418-1.073-0.418
			c-0.457,0-0.829,0.12-1.117,0.361s-0.495,0.561-0.622,0.959v3.554l0.886,0.07v0.479h-2.423V-1236.555z"/>
		<path d="M1.442-1236.076c-0.043-0.199-0.074-0.371-0.092-0.517c-0.018-0.145-0.027-0.291-0.027-0.439
			c-0.218,0.308-0.507,0.563-0.87,0.766c-0.362,0.203-0.77,0.305-1.223,0.305c-0.576,0-1.021-0.148-1.336-0.445
			c-0.315-0.298-0.473-0.699-0.473-1.207c0-0.543,0.234-0.974,0.701-1.293c0.467-0.318,1.101-0.479,1.902-0.479h1.299v-0.776
			c0-0.421-0.135-0.75-0.405-0.989c-0.27-0.239-0.647-0.358-1.133-0.358c-0.326,0-0.624,0.044-0.894,0.133
			c-0.27,0.089-0.496,0.209-0.677,0.361l-0.054,0.788h-0.538l0.005-1.13c0.272-0.21,0.597-0.381,0.976-0.511
			c0.378-0.131,0.781-0.196,1.209-0.196c0.648,0,1.17,0.165,1.565,0.495c0.395,0.329,0.592,0.802,0.592,1.418v2.891
			c0,0.119,0.002,0.234,0.008,0.345c0.005,0.111,0.017,0.219,0.035,0.323l0.587,0.038v0.479H1.442z M-0.699-1236.538
			c0.471,0,0.886-0.108,1.244-0.326c0.359-0.217,0.618-0.498,0.777-0.842v-1.18h-1.31c-0.591,0-1.062,0.123-1.416,0.367
			c-0.354,0.244-0.53,0.554-0.53,0.927c0,0.314,0.109,0.569,0.329,0.763C-1.385-1236.635-1.083-1236.538-0.699-1236.538z"/>
		<path d="M3.392-1244.069v-0.483h1.533v7.928l0.886,0.07v0.479H3.392v-0.479l0.886-0.07v-7.374L3.392-1244.069z"/>
		<path d="M9.429-1235.962c-0.739,0-1.352-0.271-1.837-0.812s-0.728-1.23-0.728-2.067v-0.299c0-0.841,0.242-1.538,0.726-2.092
			c0.483-0.555,1.067-0.832,1.752-0.832c0.721,0,1.288,0.229,1.701,0.685c0.413,0.457,0.619,1.065,0.619,1.826v0.554H7.511v0.158
			c0,0.659,0.177,1.213,0.53,1.66c0.354,0.447,0.816,0.671,1.389,0.671c0.402,0,0.746-0.057,1.032-0.169s0.531-0.273,0.733-0.483
			l0.277,0.445c-0.221,0.232-0.5,0.416-0.837,0.552S9.897-1235.962,9.429-1235.962z M9.343-1241.51
			c-0.479,0-0.881,0.184-1.209,0.552c-0.328,0.367-0.519,0.828-0.573,1.383l0.011,0.026h3.445v-0.162
			c0-0.511-0.15-0.938-0.451-1.283C10.264-1241.338,9.857-1241.51,9.343-1241.51z"/>
		<path d="M12.706-1236.555l0.886-0.07v-4.776l-0.886-0.07v-0.483h1.461l0.06,1.026c0.188-0.362,0.443-0.642,0.763-0.839
			c0.321-0.198,0.7-0.297,1.139-0.297c0.637,0,1.123,0.195,1.456,0.584c0.333,0.39,0.5,0.997,0.5,1.823v3.032l0.886,0.07v0.479
			h-2.424v-0.479l0.886-0.07v-3.026c0-0.674-0.126-1.15-0.377-1.43c-0.252-0.278-0.609-0.418-1.073-0.418
			c-0.457,0-0.829,0.12-1.117,0.361s-0.495,0.561-0.622,0.959v3.554l0.886,0.07v0.479h-2.423V-1236.555z"/>
	</g>
</g>
<g transform="matrix(1,0,0,1,249,1263)">
	<g enable-background="new    ">
		<path d="M-95.609-1231.005c0.822,0,1.462,0.173,1.921,0.519c0.458,0.346,0.687,0.866,0.687,1.562c0,0.405-0.115,0.759-0.345,1.06
			c-0.23,0.301-0.543,0.509-0.938,0.625c0.482,0.087,0.873,0.312,1.174,0.679c0.3,0.366,0.451,0.788,0.451,1.266
			c0,0.707-0.229,1.25-0.687,1.631c-0.458,0.38-1.072,0.57-1.839,0.57h-3.619v-0.479l0.886-0.07v-6.809l-0.886-0.07v-0.483h0.886
			H-95.609z M-97.272-1227.457h1.82c0.572,0,1.015-0.126,1.329-0.378s0.47-0.622,0.47-1.111c0-0.5-0.167-0.875-0.5-1.127
			s-0.819-0.378-1.456-0.378h-1.663V-1227.457z M-97.272-1226.908v3.266h2.087c0.583,0,1.041-0.144,1.375-0.432s0.5-0.691,0.5-1.209
			c0-0.475-0.151-0.864-0.454-1.169c-0.303-0.304-0.742-0.456-1.318-0.456H-97.272z"/>
		<path d="M-88.887-1222.979c-0.739,0-1.352-0.271-1.837-0.812s-0.728-1.23-0.728-2.067v-0.299c0-0.841,0.242-1.538,0.726-2.092
			c0.483-0.555,1.067-0.832,1.752-0.832c0.721,0,1.288,0.229,1.701,0.685c0.413,0.457,0.619,1.065,0.619,1.826v0.554h-4.151v0.158
			c0,0.659,0.177,1.213,0.53,1.66c0.354,0.447,0.816,0.671,1.389,0.671c0.402,0,0.746-0.057,1.032-0.169s0.531-0.273,0.733-0.483
			l0.277,0.445c-0.221,0.232-0.5,0.416-0.837,0.552S-88.42-1222.979-88.887-1222.979z M-88.974-1228.527
			c-0.479,0-0.881,0.184-1.209,0.552c-0.328,0.367-0.519,0.828-0.573,1.383l0.011,0.026h3.445v-0.162
			c0-0.511-0.15-0.938-0.451-1.283C-88.052-1228.355-88.46-1228.527-88.974-1228.527z"/>
		<path d="M-84.59-1223.643h3.195l0.049-1.114h0.582v1.663h-4.624v-0.479l3.543-4.841h-2.902l-0.043,1.108h-0.582v-1.668h4.347
			v0.483L-84.59-1223.643z"/>
		<path d="M-79.667-1223.572l0.886-0.07v-4.776l-0.886-0.07v-0.483h1.533v5.33l0.886,0.07v0.479h-2.418V-1223.572z
			 M-78.134-1230.657h-0.647v-0.913h0.647V-1230.657z"/>
		<path d="M-73.564-1222.979c-0.739,0-1.352-0.271-1.837-0.812s-0.728-1.23-0.728-2.067v-0.299c0-0.841,0.242-1.538,0.726-2.092
			c0.483-0.555,1.067-0.832,1.752-0.832c0.721,0,1.288,0.229,1.701,0.685c0.413,0.457,0.619,1.065,0.619,1.826v0.554h-4.151v0.158
			c0,0.659,0.177,1.213,0.53,1.66c0.354,0.447,0.816,0.671,1.389,0.671c0.402,0,0.746-0.057,1.032-0.169s0.531-0.273,0.733-0.483
			l0.277,0.445c-0.221,0.232-0.5,0.416-0.837,0.552S-73.097-1222.979-73.564-1222.979z M-73.651-1228.527
			c-0.479,0-0.881,0.184-1.209,0.552c-0.328,0.367-0.519,0.828-0.573,1.383l0.011,0.026h3.445v-0.162
			c0-0.511-0.15-0.938-0.451-1.283C-72.729-1228.355-73.137-1228.527-73.651-1228.527z"/>
		<path d="M-70.359-1231.087v-0.483h1.532v3.603c0.196-0.352,0.457-0.625,0.783-0.82c0.326-0.196,0.706-0.294,1.141-0.294
			c0.619,0,1.095,0.192,1.426,0.576s0.497,0.98,0.497,1.788v3.075l0.886,0.07v0.479h-2.423v-0.479l0.886-0.07v-3.086
			c0-0.638-0.126-1.096-0.378-1.372c-0.251-0.277-0.599-0.416-1.041-0.416c-0.445,0-0.818,0.117-1.117,0.351
			s-0.519,0.544-0.66,0.932v3.592l0.886,0.07v0.479h-2.418v-0.479l0.886-0.07v-7.374L-70.359-1231.087z"/>
		<path d="M-58.795-1224.061c-0.185,0.344-0.438,0.61-0.758,0.799c-0.32,0.188-0.698,0.282-1.133,0.282
			c-0.62,0-1.104-0.21-1.454-0.631c-0.35-0.42-0.524-1.072-0.524-1.956v-2.853l-0.728-0.07v-0.483h0.728h0.646v3.417
			c0,0.718,0.123,1.232,0.367,1.544c0.244,0.312,0.591,0.467,1.041,0.467c0.493,0,0.885-0.108,1.176-0.326
			c0.292-0.217,0.497-0.518,0.617-0.901v-3.646l-0.837-0.07v-0.483h0.837h0.652v5.33l0.788,0.07v0.479h-1.358L-58.795-1224.061z"/>
		<path d="M-56.54-1223.572l0.886-0.07v-4.776l-0.886-0.07v-0.483h1.461l0.06,1.026c0.188-0.362,0.443-0.642,0.763-0.839
			c0.321-0.198,0.7-0.297,1.139-0.297c0.637,0,1.123,0.195,1.456,0.584c0.333,0.39,0.5,0.997,0.5,1.823v3.032l0.886,0.07v0.479
			h-2.424v-0.479l0.886-0.07v-3.026c0-0.674-0.126-1.15-0.377-1.43c-0.252-0.278-0.609-0.418-1.073-0.418
			c-0.457,0-0.829,0.12-1.117,0.361s-0.495,0.561-0.622,0.959v3.554l0.886,0.07v0.479h-2.423V-1223.572z"/>
		<path d="M-49.281-1225.984c0-0.938,0.2-1.689,0.601-2.253c0.4-0.562,0.955-0.845,1.666-0.845c0.417,0,0.778,0.092,1.084,0.274
			c0.306,0.184,0.559,0.441,0.758,0.774l0.076-0.939h0.549v5.803c0,0.757-0.205,1.354-0.614,1.793
			c-0.409,0.438-0.98,0.658-1.711,0.658c-0.283,0-0.584-0.035-0.905-0.104c-0.32-0.069-0.601-0.163-0.839-0.283l0.174-0.548
			c0.235,0.111,0.482,0.198,0.742,0.261c0.259,0.062,0.532,0.092,0.818,0.092c0.558,0,0.978-0.165,1.261-0.494
			c0.282-0.33,0.424-0.788,0.424-1.375v-0.744c-0.2,0.301-0.451,0.531-0.755,0.692c-0.305,0.161-0.661,0.242-1.071,0.242
			c-0.706,0-1.259-0.263-1.657-0.788s-0.598-1.227-0.598-2.103V-1225.984z M-48.629-1225.87c0,0.706,0.144,1.271,0.432,1.692
			s0.718,0.633,1.291,0.633c0.424,0,0.776-0.096,1.057-0.288c0.281-0.191,0.497-0.456,0.649-0.793v-2.728
			c-0.145-0.345-0.354-0.624-0.625-0.84c-0.272-0.216-0.628-0.323-1.071-0.323c-0.572,0-1.004,0.235-1.296,0.706
			c-0.292,0.472-0.437,1.08-0.437,1.826V-1225.87z"/>
		<path d="M-40.478-1222.979c-0.739,0-1.352-0.271-1.837-0.812s-0.728-1.23-0.728-2.067v-0.299c0-0.841,0.242-1.538,0.726-2.092
			c0.483-0.555,1.067-0.832,1.752-0.832c0.721,0,1.288,0.229,1.701,0.685c0.413,0.457,0.619,1.065,0.619,1.826v0.554h-4.151v0.158
			c0,0.659,0.177,1.213,0.53,1.66c0.354,0.447,0.816,0.671,1.389,0.671c0.402,0,0.746-0.057,1.032-0.169s0.531-0.273,0.733-0.483
			l0.277,0.445c-0.221,0.232-0.5,0.416-0.837,0.552S-40.01-1222.979-40.478-1222.979z M-40.565-1228.527
			c-0.479,0-0.881,0.184-1.209,0.552c-0.328,0.367-0.519,0.828-0.573,1.383l0.011,0.026h3.445v-0.162
			c0-0.511-0.15-0.938-0.451-1.283C-39.643-1228.355-40.051-1228.527-40.565-1228.527z"/>
		<path d="M-37.201-1223.572l0.886-0.07v-4.776l-0.886-0.07v-0.483h1.461l0.06,1.026c0.188-0.362,0.443-0.642,0.763-0.839
			c0.321-0.198,0.7-0.297,1.139-0.297c0.637,0,1.123,0.195,1.456,0.584c0.333,0.39,0.5,0.997,0.5,1.823v3.032l0.886,0.07v0.479
			h-2.424v-0.479l0.886-0.07v-3.026c0-0.674-0.126-1.15-0.377-1.43c-0.252-0.278-0.609-0.418-1.073-0.418
			c-0.457,0-0.829,0.12-1.117,0.361s-0.495,0.561-0.622,0.959v3.554l0.886,0.07v0.479h-2.423V-1223.572z"/>
	</g>
</g>
<g transform="matrix(1,0,0,1,249,1263)">
	<g enable-background="new    ">
		<path fill="#F2231A" d="M-69.54-1161.855l-0.094-0.984h-4.062l-0.422,4.055c0.286-0.261,0.602-0.461,0.945-0.602
			s0.81-0.219,1.398-0.234c0.969-0.016,1.75,0.31,2.344,0.977s0.891,1.562,0.891,2.688c0,1.151-0.289,2.07-0.867,2.758
			s-1.445,1.031-2.602,1.031c-0.938,0-1.718-0.262-2.34-0.785c-0.623-0.523-0.921-1.298-0.895-2.324l0.016-0.047h0.836
			c0,0.766,0.216,1.352,0.648,1.758c0.432,0.406,1.01,0.609,1.734,0.609c0.849,0,1.483-0.255,1.902-0.766
			c0.419-0.511,0.629-1.25,0.629-2.219c0-0.849-0.21-1.53-0.629-2.043c-0.419-0.513-1.007-0.77-1.762-0.77
			c-0.729,0-1.285,0.116-1.668,0.348s-0.66,0.582-0.832,1.051l-0.758-0.125l0.625-6.227h5.719v1.852H-69.54z"/>
		<path fill="#F2231A" d="M-63.196-1152.332v-0.688l1.273-0.102v-9.789l-1.273-0.102v-0.695h1.273h0.938h1.273v0.695l-1.273,0.102
			v9.789h4.727l0.07-1.602h0.828v2.391H-63.196z"/>
		<path fill="#F2231A" d="M-49.196-1163.707c1.192,0,2.116,0.304,2.77,0.91c0.653,0.606,0.98,1.41,0.98,2.41
			c0,1.011-0.327,1.817-0.98,2.422c-0.654,0.604-1.577,0.906-2.77,0.906h-2.594v3.938l1.273,0.102v0.688h-3.477v-0.688l1.273-0.102
			v-9.789l-1.273-0.102v-0.695h1.273H-49.196z M-51.79-1157.855h2.594c0.938,0,1.642-0.238,2.113-0.715
			c0.471-0.477,0.707-1.077,0.707-1.801c0-0.729-0.234-1.335-0.703-1.816s-1.175-0.723-2.117-0.723h-2.594V-1157.855z"/>
	</g>
</g>
<g transform="matrix(1,0,0,1,249,1263)">
	<g enable-background="new    ">
		<path fill="#F2231A" d="M-80.11-1137.926c0-1.891,0.36-3.586,1.082-5.086c0.721-1.5,1.527-2.503,2.418-3.008h0.047l0.203,0.57
			c-0.755,0.536-1.414,1.489-1.977,2.859s-0.844,2.917-0.844,4.641v0.156c0,1.724,0.281,3.271,0.844,4.641s1.221,2.333,1.977,2.891
			l-0.203,0.547h-0.047c-0.901-0.521-1.71-1.516-2.426-2.984c-0.716-1.469-1.074-3.172-1.074-5.109V-1137.926z"/>
		<path fill="#F2231A" d="M-72.587-1144.012l-1.156,0.086l1.797,7.375l0.344,1.734h0.047l0.422-1.734l2.5-8.156h0.883l2.492,8.156
			l0.414,1.758l0.047-0.008l0.367-1.75l1.773-7.375l-1.156-0.086v-0.695h2.969v0.695l-0.852,0.062l-2.648,10.617h-0.883
			l-2.648-8.727l-0.297-1.195h-0.047l-0.281,1.195l-2.672,8.727h-0.883l-2.648-10.617l-0.852-0.062v-0.695h2.969V-1144.012z"/>
		<path fill="#F2231A" d="M-60.063-1134.02l1.273-0.102v-6.867l-1.273-0.102v-0.695h2.203v7.664l1.273,0.102v0.688h-3.477V-1134.02z
			 M-57.86-1144.207h-0.93v-1.312h0.93V-1144.207z"/>
		<path fill="#F2231A" d="M-47.188-1141.332h-0.766l-0.133-1.609c-0.281-0.354-0.664-0.632-1.148-0.832s-1.052-0.301-1.703-0.301
			c-0.938,0-1.668,0.203-2.191,0.609s-0.785,0.911-0.785,1.516c0,0.573,0.235,1.051,0.707,1.434c0.471,0.383,1.288,0.72,2.449,1.012
			c1.224,0.312,2.155,0.734,2.793,1.266c0.638,0.531,0.957,1.231,0.957,2.102c0,0.906-0.37,1.628-1.109,2.164
			c-0.74,0.536-1.685,0.805-2.836,0.805c-0.812,0-1.566-0.144-2.262-0.43s-1.265-0.695-1.707-1.227v-1.992h0.766l0.133,1.664
			c0.344,0.391,0.784,0.688,1.32,0.891c0.536,0.203,1.12,0.305,1.75,0.305c0.896,0,1.621-0.198,2.176-0.594s0.832-0.919,0.832-1.57
			c0-0.62-0.232-1.126-0.695-1.52c-0.464-0.394-1.271-0.741-2.422-1.043c-1.245-0.312-2.188-0.719-2.828-1.219
			s-0.961-1.175-0.961-2.023c0-0.87,0.364-1.578,1.094-2.125c0.729-0.547,1.669-0.82,2.82-0.82c0.828,0,1.566,0.144,2.215,0.43
			s1.16,0.675,1.535,1.164V-1141.332z"/>
		<path fill="#F2231A" d="M-41.759-1133.168c-1.062,0-1.943-0.39-2.641-1.168c-0.698-0.778-1.047-1.77-1.047-2.973v-0.43
			c0-1.208,0.348-2.211,1.043-3.008s1.535-1.195,2.52-1.195c1.036,0,1.852,0.328,2.445,0.984s0.891,1.531,0.891,2.625v0.797h-5.969
			v0.227c0,0.948,0.254,1.743,0.762,2.387s1.173,0.965,1.996,0.965c0.578,0,1.073-0.081,1.484-0.242
			c0.411-0.161,0.763-0.394,1.055-0.695l0.398,0.641c-0.318,0.333-0.719,0.598-1.203,0.793S-41.087-1133.168-41.759-1133.168z
			 M-41.884-1141.145c-0.688,0-1.267,0.265-1.738,0.793c-0.472,0.528-0.746,1.191-0.824,1.988l0.016,0.039h4.953v-0.234
			c0-0.734-0.216-1.349-0.648-1.844C-40.558-1140.897-41.144-1141.145-41.884-1141.145z"/>
		<path fill="#F2231A" d="M-33.798-1137.809c0,1.938-0.361,3.641-1.082,5.109c-0.722,1.469-1.53,2.464-2.426,2.984l-0.047-0.008
			l-0.195-0.539c0.75-0.531,1.407-1.487,1.973-2.867c0.565-1.38,0.848-2.935,0.848-4.664v-0.156c0-1.714-0.288-3.265-0.863-4.652
			c-0.576-1.388-1.228-2.348-1.957-2.879l0.195-0.539l0.047-0.008c0.885,0.511,1.691,1.516,2.418,3.016s1.09,3.195,1.09,5.086
			V-1137.809z"/>
	</g>
</g>
<g transform="matrix(1,0,0,1,423,1263)">
	<path vector-effect="none" fill="#FFFFFF" d="M-150-1263.333H23v140h-173V-1263.333"/>
</g>
<g transform="matrix(1,0,0,1,423,1263)">
	<path vector-effect="none" fill="#D35400" d="M-150-1263.333H23v6h-173V-1263.333"/>
</g>
<g transform="matrix(1,0,0,1,423,1263)">
	<g enable-background="new    ">
		<path d="M-135.98-1239.907h-3.244v3.282h3.739l0.049-1.185h0.576v1.733h-5.896v-0.479l0.886-0.07v-6.809l-0.886-0.07v-0.483h0.886
			h4.983v1.738h-0.576l-0.049-1.185h-3.711v2.973h3.244V-1239.907z"/>
		<path d="M-129.399-1237.043c-0.185,0.344-0.438,0.61-0.758,0.799c-0.32,0.188-0.698,0.282-1.133,0.282
			c-0.62,0-1.104-0.21-1.454-0.631c-0.35-0.42-0.524-1.072-0.524-1.956v-2.853l-0.728-0.07v-0.483h0.728h0.646v3.417
			c0,0.718,0.123,1.232,0.367,1.544c0.244,0.312,0.591,0.467,1.041,0.467c0.493,0,0.885-0.108,1.176-0.326
			c0.292-0.217,0.497-0.518,0.617-0.901v-3.646l-0.837-0.07v-0.483h0.837h0.652v5.33l0.788,0.07v0.479h-1.358L-129.399-1237.043z"/>
		<path d="M-125.617-1241.955l0.082,0.978v0.07c0.167-0.361,0.394-0.646,0.682-0.85c0.288-0.205,0.629-0.308,1.024-0.308
			c0.083,0,0.164,0.007,0.242,0.02c0.078,0.013,0.142,0.026,0.193,0.04l-0.087,0.609l-0.483-0.033c-0.41,0-0.746,0.115-1.008,0.346
			c-0.263,0.229-0.45,0.546-0.562,0.948v3.51l0.886,0.07v0.479h-2.418v-0.479l0.886-0.07v-4.776l-0.886-0.07v-0.483h0.886H-125.617z
			"/>
		<path d="M-122.662-1239.103c0-0.866,0.237-1.576,0.712-2.13c0.475-0.555,1.103-0.832,1.886-0.832c0.786,0,1.417,0.277,1.891,0.832
			c0.474,0.554,0.711,1.264,0.711,2.13v0.179c0,0.87-0.236,1.581-0.709,2.133c-0.473,0.553-1.1,0.829-1.883,0.829
			c-0.79,0-1.422-0.276-1.896-0.829c-0.475-0.552-0.712-1.263-0.712-2.133V-1239.103z M-122.01-1238.924
			c0,0.682,0.172,1.254,0.516,1.718s0.824,0.695,1.44,0.695c0.605,0,1.08-0.231,1.424-0.695c0.344-0.464,0.516-1.036,0.516-1.718
			v-0.179c0-0.67-0.173-1.239-0.519-1.706c-0.346-0.468-0.823-0.701-1.432-0.701c-0.609,0-1.085,0.233-1.429,0.701
			c-0.344,0.467-0.516,1.036-0.516,1.706V-1238.924z"/>
		<path d="M-116.576-1241.472v-0.483h1.429l0.082,0.912c0.199-0.326,0.454-0.577,0.764-0.755c0.31-0.178,0.673-0.267,1.089-0.267
			c0.707,0,1.259,0.282,1.658,0.845c0.398,0.563,0.598,1.314,0.598,2.253v0.114c0,0.88-0.199,1.582-0.598,2.105
			s-0.948,0.785-1.647,0.785c-0.413,0-0.774-0.079-1.084-0.236c-0.31-0.158-0.562-0.382-0.758-0.671v2.499l0.885,0.07v0.484h-2.418
			v-0.484l0.886-0.07v-7.031L-116.576-1241.472z M-111.609-1238.967c0-0.746-0.148-1.354-0.445-1.826
			c-0.297-0.471-0.732-0.706-1.305-0.706c-0.438,0-0.794,0.104-1.067,0.312c-0.274,0.208-0.479,0.479-0.617,0.812v2.825
			c0.148,0.322,0.363,0.576,0.644,0.761s0.631,0.277,1.052,0.277c0.568,0,1-0.214,1.295-0.642c0.295-0.427,0.443-0.994,0.443-1.7
			V-1238.967z"/>
		<path d="M-105.839-1236.076c-0.044-0.199-0.074-0.371-0.093-0.517c-0.018-0.145-0.026-0.291-0.026-0.439
			c-0.218,0.308-0.507,0.563-0.87,0.766c-0.361,0.203-0.77,0.305-1.223,0.305c-0.575,0-1.021-0.148-1.336-0.445
			c-0.315-0.298-0.473-0.699-0.473-1.207c0-0.543,0.233-0.974,0.701-1.293c0.467-0.318,1.101-0.479,1.901-0.479h1.299v-0.776
			c0-0.421-0.136-0.75-0.405-0.989s-0.647-0.358-1.133-0.358c-0.326,0-0.624,0.044-0.894,0.133
			c-0.271,0.089-0.495,0.209-0.677,0.361l-0.055,0.788h-0.537l0.005-1.13c0.272-0.21,0.597-0.381,0.976-0.511
			c0.379-0.131,0.781-0.196,1.209-0.196c0.648,0,1.17,0.165,1.564,0.495c0.395,0.329,0.593,0.802,0.593,1.418v2.891
			c0,0.119,0.003,0.234,0.009,0.345c0.005,0.111,0.017,0.219,0.035,0.323l0.586,0.038v0.479H-105.839z M-108.305-1243.238h-0.945
			v-0.853h0.945V-1243.238z M-107.979-1236.538c0.471,0,0.886-0.108,1.244-0.326c0.358-0.217,0.618-0.498,0.777-0.842v-1.18h-1.31
			c-0.591,0-1.062,0.123-1.416,0.367s-0.529,0.554-0.529,0.927c0,0.314,0.109,0.569,0.328,0.763
			C-108.665-1236.635-108.363-1236.538-107.979-1236.538z M-105.758-1243.238h-0.939v-0.853h0.939V-1243.238z"/>
		<path d="M-103.801-1236.555l0.885-0.07v-4.776l-0.885-0.07v-0.483h1.532v5.33l0.886,0.07v0.479h-2.418V-1236.555z
			 M-102.268-1243.64h-0.647v-0.913h0.647V-1243.64z"/>
		<path d="M-96.025-1240.141h-0.532l-0.076-0.831c-0.163-0.171-0.368-0.303-0.616-0.397c-0.248-0.094-0.534-0.141-0.856-0.141
			c-0.475,0-0.831,0.103-1.067,0.307c-0.238,0.205-0.356,0.445-0.356,0.72c0,0.272,0.103,0.497,0.308,0.674
			c0.204,0.178,0.613,0.334,1.225,0.468c0.699,0.155,1.223,0.368,1.57,0.639c0.348,0.27,0.521,0.637,0.521,1.1
			c0,0.489-0.197,0.886-0.594,1.188c-0.397,0.303-0.922,0.454-1.574,0.454c-0.434,0-0.83-0.061-1.188-0.183
			c-0.356-0.121-0.665-0.292-0.926-0.513v-1.185h0.527l0.092,0.837c0.174,0.174,0.395,0.3,0.66,0.377
			c0.267,0.078,0.545,0.117,0.834,0.117c0.471,0,0.843-0.104,1.114-0.31c0.272-0.207,0.407-0.457,0.407-0.75
			c0-0.275-0.113-0.517-0.34-0.723c-0.226-0.207-0.635-0.375-1.225-0.506c-0.699-0.151-1.219-0.354-1.557-0.605
			c-0.339-0.252-0.508-0.604-0.508-1.057c0-0.449,0.189-0.829,0.57-1.139c0.38-0.31,0.882-0.465,1.505-0.465
			c0.431,0,0.825,0.066,1.182,0.198c0.356,0.133,0.647,0.311,0.872,0.535L-96.025-1240.141z"/>
		<path d="M-92.211-1236.511c0.432,0,0.812-0.123,1.141-0.37c0.33-0.246,0.494-0.588,0.494-1.026H-90l0.012,0.032
			c0.018,0.544-0.199,0.998-0.65,1.364c-0.45,0.366-0.975,0.549-1.572,0.549c-0.797,0-1.414-0.274-1.854-0.823
			c-0.438-0.549-0.657-1.255-0.657-2.116v-0.229c0-0.854,0.22-1.558,0.657-2.108c0.439-0.551,1.055-0.826,1.848-0.826
			c0.453,0,0.867,0.085,1.244,0.256c0.377,0.17,0.684,0.402,0.919,0.695l0.026,1.282h-0.554l-0.103-1.043
			c-0.174-0.195-0.391-0.351-0.65-0.465c-0.258-0.114-0.553-0.171-0.883-0.171c-0.63,0-1.097,0.226-1.398,0.677
			c-0.303,0.45-0.454,1.019-0.454,1.703v0.229c0,0.695,0.15,1.268,0.451,1.717C-93.318-1236.735-92.848-1236.511-92.211-1236.511z"
			/>
		<path d="M-88.967-1244.069v-0.483h1.532v3.603c0.196-0.352,0.456-0.625,0.782-0.82c0.326-0.196,0.707-0.294,1.142-0.294
			c0.619,0,1.095,0.192,1.427,0.576c0.331,0.384,0.496,0.98,0.496,1.788v3.075l0.887,0.07v0.479h-2.424v-0.479l0.886-0.07v-3.086
			c0-0.638-0.126-1.096-0.378-1.372c-0.252-0.277-0.599-0.416-1.041-0.416c-0.445,0-0.817,0.117-1.116,0.351
			s-0.519,0.544-0.66,0.932v3.592l0.886,0.07v0.479h-2.418v-0.479l0.886-0.07v-7.374L-88.967-1244.069z"/>
		<path d="M-79.185-1235.962c-0.74,0-1.352-0.271-1.838-0.812c-0.484-0.542-0.728-1.23-0.728-2.067v-0.299
			c0-0.841,0.241-1.538,0.726-2.092c0.483-0.555,1.067-0.832,1.752-0.832c0.721,0,1.288,0.229,1.701,0.685
			c0.413,0.457,0.619,1.065,0.619,1.826v0.554h-4.151v0.158c0,0.659,0.177,1.213,0.53,1.66s0.815,0.671,1.389,0.671
			c0.401,0,0.746-0.057,1.031-0.169c0.287-0.112,0.531-0.273,0.734-0.483l0.277,0.445c-0.222,0.232-0.5,0.416-0.838,0.552
			C-78.316-1236.03-78.719-1235.962-79.185-1235.962z M-79.273-1241.51c-0.479,0-0.881,0.184-1.209,0.552
			c-0.328,0.367-0.519,0.828-0.572,1.383l0.01,0.026h3.445v-0.162c0-0.511-0.15-0.938-0.451-1.283
			C-78.351-1241.338-78.759-1241.51-79.273-1241.51z"/>
		<path d="M-73.116-1243.504v-0.483h2.423v0.483l-0.885,0.07v6.809l0.885,0.07v0.479h-2.423v-0.479l0.886-0.07v-6.809
			L-73.116-1243.504z"/>
		<path d="M-69.797-1236.555l0.887-0.07v-4.776l-0.887-0.07v-0.483h1.462l0.06,1.026c0.188-0.362,0.443-0.642,0.764-0.839
			c0.32-0.198,0.7-0.297,1.139-0.297c0.637,0,1.123,0.195,1.456,0.584c0.333,0.39,0.5,0.997,0.5,1.823v3.032l0.886,0.07v0.479
			h-2.424v-0.479l0.886-0.07v-3.026c0-0.674-0.126-1.15-0.378-1.43c-0.252-0.278-0.609-0.418-1.072-0.418
			c-0.457,0-0.829,0.12-1.117,0.361s-0.495,0.561-0.622,0.959v3.554l0.886,0.07v0.479h-2.424V-1236.555z"/>
		<path d="M-61.015-1243.461v1.506h1.293v0.532h-1.293v3.831c0,0.384,0.07,0.656,0.209,0.817c0.141,0.161,0.326,0.242,0.558,0.242
			c0.104,0,0.207-0.005,0.308-0.014c0.1-0.01,0.214-0.024,0.344-0.047l0.099,0.484c-0.108,0.047-0.241,0.083-0.397,0.108
			c-0.155,0.025-0.311,0.038-0.467,0.038c-0.413,0-0.734-0.131-0.965-0.392c-0.229-0.261-0.345-0.674-0.345-1.238v-3.831h-1.011
			v-0.532h1.011v-1.506H-61.015z"/>
		<path d="M-55.934-1235.962c-0.739,0-1.352-0.271-1.837-0.812s-0.729-1.23-0.729-2.067v-0.299c0-0.841,0.242-1.538,0.727-2.092
			c0.482-0.555,1.066-0.832,1.752-0.832c0.721,0,1.287,0.229,1.701,0.685c0.412,0.457,0.619,1.065,0.619,1.826v0.554h-4.152v0.158
			c0,0.659,0.178,1.213,0.53,1.66c0.354,0.447,0.815,0.671,1.389,0.671c0.401,0,0.746-0.057,1.032-0.169s0.531-0.273,0.733-0.483
			l0.277,0.445c-0.222,0.232-0.5,0.416-0.837,0.552S-55.467-1235.962-55.934-1235.962z M-56.021-1241.51
			c-0.479,0-0.881,0.184-1.209,0.552c-0.328,0.367-0.52,0.828-0.573,1.383l0.011,0.026h3.445v-0.162c0-0.511-0.15-0.938-0.451-1.283
			C-55.099-1241.338-55.508-1241.51-56.021-1241.51z"/>
		<path d="M-52.511-1238.967c0-0.938,0.2-1.689,0.601-2.253c0.399-0.562,0.955-0.845,1.665-0.845c0.417,0,0.778,0.092,1.084,0.274
			c0.307,0.184,0.559,0.441,0.758,0.774l0.076-0.939h0.549v5.803c0,0.757-0.204,1.354-0.613,1.793
			c-0.41,0.438-0.98,0.658-1.712,0.658c-0.282,0-0.584-0.035-0.905-0.104c-0.32-0.069-0.6-0.163-0.839-0.283l0.174-0.548
			c0.235,0.111,0.482,0.198,0.741,0.261c0.26,0.062,0.532,0.092,0.818,0.092c0.558,0,0.979-0.165,1.261-0.494
			c0.282-0.33,0.424-0.788,0.424-1.375v-0.744c-0.2,0.301-0.451,0.531-0.755,0.692c-0.305,0.161-0.662,0.242-1.071,0.242
			c-0.706,0-1.259-0.263-1.657-0.788s-0.598-1.227-0.598-2.103V-1238.967z M-51.859-1238.853c0,0.706,0.144,1.271,0.432,1.692
			s0.719,0.633,1.291,0.633c0.424,0,0.775-0.096,1.057-0.288c0.281-0.191,0.497-0.456,0.649-0.793v-2.728
			c-0.146-0.345-0.354-0.624-0.625-0.84c-0.272-0.216-0.628-0.323-1.071-0.323c-0.572,0-1.004,0.235-1.295,0.706
			c-0.292,0.472-0.438,1.08-0.438,1.826V-1238.853z"/>
		<path d="M-44.892-1241.955l0.081,0.978v0.07c0.167-0.361,0.394-0.646,0.682-0.85c0.288-0.205,0.63-0.308,1.024-0.308
			c0.084,0,0.164,0.007,0.242,0.02s0.142,0.026,0.192,0.04l-0.087,0.609l-0.483-0.033c-0.409,0-0.745,0.115-1.009,0.346
			c-0.262,0.229-0.449,0.546-0.562,0.948v3.51l0.886,0.07v0.479h-2.418v-0.479l0.885-0.07v-4.776l-0.885-0.07v-0.483h0.885H-44.892z
			"/>
		<path d="M-37.769-1236.076c-0.044-0.199-0.074-0.371-0.093-0.517c-0.019-0.145-0.026-0.291-0.026-0.439
			c-0.219,0.308-0.508,0.563-0.87,0.766c-0.362,0.203-0.771,0.305-1.223,0.305c-0.575,0-1.021-0.148-1.337-0.445
			c-0.314-0.298-0.473-0.699-0.473-1.207c0-0.543,0.234-0.974,0.701-1.293c0.467-0.318,1.102-0.479,1.902-0.479h1.299v-0.776
			c0-0.421-0.136-0.75-0.406-0.989c-0.27-0.239-0.646-0.358-1.133-0.358c-0.325,0-0.623,0.044-0.893,0.133
			c-0.271,0.089-0.496,0.209-0.678,0.361l-0.054,0.788h-0.538l0.006-1.13c0.271-0.21,0.596-0.381,0.975-0.511
			c0.379-0.131,0.781-0.196,1.209-0.196c0.648,0,1.17,0.165,1.565,0.495c0.395,0.329,0.593,0.802,0.593,1.418v2.891
			c0,0.119,0.002,0.234,0.008,0.345c0.006,0.111,0.018,0.219,0.035,0.323l0.587,0.038v0.479H-37.769z M-39.91-1236.538
			c0.471,0,0.885-0.108,1.244-0.326c0.358-0.217,0.617-0.498,0.777-0.842v-1.18h-1.311c-0.59,0-1.062,0.123-1.415,0.367
			c-0.354,0.244-0.53,0.554-0.53,0.927c0,0.314,0.109,0.569,0.329,0.763C-40.595-1236.635-40.295-1236.538-39.91-1236.538z"/>
		<path d="M-34.194-1243.461v1.506h1.293v0.532h-1.293v3.831c0,0.384,0.069,0.656,0.209,0.817s0.325,0.242,0.558,0.242
			c0.104,0,0.207-0.005,0.307-0.014c0.1-0.01,0.215-0.024,0.345-0.047l0.099,0.484c-0.109,0.047-0.242,0.083-0.397,0.108
			s-0.312,0.038-0.468,0.038c-0.412,0-0.734-0.131-0.964-0.392s-0.345-0.674-0.345-1.238v-3.831h-1.012v-0.532h1.012v-1.506H-34.194
			z"/>
		<path d="M-31.75-1236.555l0.887-0.07v-4.776l-0.887-0.07v-0.483h1.533v5.33l0.886,0.07v0.479h-2.419V-1236.555z M-30.217-1243.64
			h-0.646v-0.913h0.646V-1243.64z"/>
		<path d="M-28.239-1239.103c0-0.866,0.237-1.576,0.712-2.13c0.475-0.555,1.104-0.832,1.886-0.832c0.786,0,1.417,0.277,1.892,0.832
			c0.474,0.554,0.711,1.264,0.711,2.13v0.179c0,0.87-0.236,1.581-0.709,2.133c-0.473,0.553-1.1,0.829-1.883,0.829
			c-0.789,0-1.422-0.276-1.896-0.829c-0.475-0.552-0.712-1.263-0.712-2.133V-1239.103z M-27.587-1238.924
			c0,0.682,0.172,1.254,0.517,1.718c0.344,0.464,0.824,0.695,1.439,0.695c0.605,0,1.08-0.231,1.424-0.695s0.516-1.036,0.516-1.718
			v-0.179c0-0.67-0.172-1.239-0.519-1.706c-0.346-0.468-0.823-0.701-1.432-0.701s-1.085,0.233-1.429,0.701
			c-0.345,0.467-0.517,1.036-0.517,1.706V-1238.924z"/>
		<path d="M-22.098-1236.555l0.886-0.07v-4.776l-0.886-0.07v-0.483h1.462l0.06,1.026c0.188-0.362,0.442-0.642,0.763-0.839
			c0.321-0.198,0.701-0.297,1.139-0.297c0.638,0,1.123,0.195,1.457,0.584c0.332,0.39,0.5,0.997,0.5,1.823v3.032l0.885,0.07v0.479
			h-2.424v-0.479l0.887-0.07v-3.026c0-0.674-0.127-1.15-0.378-1.43c-0.252-0.278-0.609-0.418-1.073-0.418
			c-0.457,0-0.828,0.12-1.117,0.361c-0.287,0.241-0.494,0.561-0.621,0.959v3.554l0.885,0.07v0.479h-2.423V-1236.555z"/>
		<path d="M-7.786-1237.043c-0.185,0.344-0.438,0.61-0.759,0.799c-0.32,0.188-0.697,0.282-1.133,0.282
			c-0.619,0-1.104-0.21-1.453-0.631c-0.35-0.42-0.524-1.072-0.524-1.956v-2.853l-0.728-0.07v-0.483h0.728h0.646v3.417
			c0,0.718,0.122,1.232,0.367,1.544c0.244,0.312,0.591,0.467,1.04,0.467c0.493,0,0.885-0.108,1.177-0.326
			c0.292-0.217,0.497-0.518,0.616-0.901v-3.646l-0.836-0.07v-0.483h0.836h0.652v5.33l0.788,0.07v0.479h-1.358L-7.786-1237.043z"/>
		<path d="M-5.531-1236.555l0.887-0.07v-4.776l-0.887-0.07v-0.483h1.462l0.06,1.026c0.188-0.362,0.443-0.642,0.764-0.839
			c0.32-0.198,0.7-0.297,1.139-0.297c0.637,0,1.123,0.195,1.456,0.584c0.333,0.39,0.5,0.997,0.5,1.823v3.032l0.886,0.07v0.479
			h-2.424v-0.479l0.886-0.07v-3.026c0-0.674-0.126-1.15-0.378-1.43c-0.252-0.278-0.609-0.418-1.072-0.418
			c-0.457,0-0.829,0.12-1.117,0.361s-0.495,0.561-0.622,0.959v3.554l0.886,0.07v0.479h-2.424V-1236.555z"/>
		<path d="M5.787-1236.924c-0.195,0.308-0.447,0.545-0.755,0.712c-0.308,0.166-0.67,0.25-1.087,0.25
			c-0.703,0-1.252-0.263-1.648-0.788s-0.596-1.227-0.596-2.103v-0.114c0-0.938,0.199-1.689,0.596-2.253
			c0.396-0.562,0.949-0.845,1.66-0.845c0.408,0,0.764,0.086,1.064,0.259c0.301,0.172,0.551,0.417,0.75,0.736v-2.93l-0.886-0.07
			v-0.483h0.886h0.652v7.928l0.885,0.07v0.479H5.842L5.787-1236.924z M2.36-1238.853c0,0.71,0.142,1.274,0.426,1.695
			c0.285,0.42,0.713,0.63,1.285,0.63c0.416,0,0.766-0.094,1.047-0.282c0.28-0.188,0.498-0.447,0.654-0.777v-2.782
			c-0.145-0.333-0.354-0.604-0.628-0.814s-0.628-0.315-1.062-0.315c-0.573,0-1.003,0.234-1.291,0.703
			c-0.288,0.47-0.432,1.079-0.432,1.829V-1238.853z"/>
	</g>
</g>
<g transform="matrix(1,0,0,1,423,1263)">
	<g enable-background="new    ">
		<path d="M-133.316-1228.658h-0.532l-0.093-1.119c-0.195-0.246-0.462-0.439-0.799-0.579c-0.336-0.139-0.731-0.209-1.185-0.209
			c-0.652,0-1.16,0.142-1.524,0.424c-0.364,0.283-0.546,0.634-0.546,1.055c0,0.398,0.164,0.73,0.492,0.997
			c0.328,0.266,0.896,0.501,1.703,0.703c0.852,0.218,1.499,0.511,1.943,0.881c0.444,0.369,0.666,0.856,0.666,1.461
			c0,0.631-0.257,1.133-0.771,1.506c-0.515,0.373-1.172,0.56-1.973,0.56c-0.565,0-1.089-0.1-1.573-0.299
			c-0.484-0.199-0.88-0.483-1.188-0.854v-1.386h0.533l0.092,1.158c0.239,0.271,0.545,0.478,0.918,0.619s0.779,0.212,1.217,0.212
			c0.623,0,1.127-0.138,1.513-0.413c0.386-0.275,0.579-0.64,0.579-1.092c0-0.432-0.162-0.784-0.484-1.058s-0.884-0.515-1.685-0.725
			c-0.866-0.218-1.521-0.5-1.967-0.848c-0.446-0.349-0.668-0.817-0.668-1.408c0-0.604,0.253-1.098,0.761-1.478
			c0.507-0.381,1.161-0.57,1.961-0.57c0.576,0,1.09,0.1,1.541,0.299c0.451,0.199,0.807,0.469,1.068,0.81V-1228.658z"/>
		<path d="M-126.49-1228.489l-0.598,0.049l-2.375,6.287c-0.152,0.398-0.35,0.736-0.592,1.016c-0.243,0.279-0.598,0.419-1.065,0.419
			c-0.076,0-0.168-0.009-0.277-0.024c-0.109-0.017-0.188-0.034-0.239-0.052l0.076-0.544c0.043,0.008,0.113,0.016,0.209,0.024
			c0.096,0.009,0.164,0.014,0.204,0.014c0.286,0,0.512-0.1,0.679-0.299c0.167-0.199,0.313-0.458,0.44-0.777l0.304-0.787
			l-2.086-5.276l-0.598-0.049v-0.483h2.021v0.483l-0.701,0.054l1.435,3.75l0.207,0.706h0.033l1.608-4.456l-0.717-0.054v-0.483h2.032
			V-1228.489z"/>
		<path d="M-121.487-1227.158h-0.532l-0.076-0.831c-0.163-0.171-0.369-0.303-0.617-0.397c-0.248-0.094-0.534-0.141-0.856-0.141
			c-0.475,0-0.831,0.103-1.068,0.307c-0.237,0.205-0.356,0.445-0.356,0.72c0,0.272,0.103,0.497,0.307,0.674
			c0.205,0.178,0.613,0.334,1.226,0.468c0.699,0.155,1.223,0.368,1.57,0.639c0.348,0.27,0.521,0.637,0.521,1.1
			c0,0.489-0.198,0.886-0.595,1.188c-0.397,0.303-0.921,0.454-1.573,0.454c-0.435,0-0.831-0.061-1.188-0.183
			c-0.357-0.121-0.666-0.292-0.926-0.513v-1.185h0.527l0.093,0.837c0.174,0.174,0.394,0.3,0.66,0.377
			c0.266,0.078,0.544,0.117,0.834,0.117c0.471,0,0.842-0.104,1.114-0.31c0.272-0.207,0.408-0.457,0.408-0.75
			c0-0.275-0.113-0.517-0.34-0.723c-0.226-0.207-0.635-0.375-1.225-0.506c-0.699-0.151-1.218-0.354-1.557-0.605
			c-0.339-0.252-0.508-0.604-0.508-1.057c0-0.449,0.19-0.829,0.571-1.139c0.38-0.31,0.882-0.465,1.505-0.465
			c0.431,0,0.825,0.066,1.182,0.198c0.357,0.133,0.648,0.311,0.873,0.535L-121.487-1227.158z"/>
		<path d="M-118.688-1230.479v1.506h1.293v0.532h-1.293v3.831c0,0.384,0.07,0.656,0.209,0.817c0.14,0.161,0.325,0.242,0.557,0.242
			c0.105,0,0.207-0.005,0.307-0.014c0.1-0.01,0.214-0.024,0.345-0.047l0.098,0.484c-0.109,0.047-0.241,0.083-0.397,0.108
			s-0.312,0.038-0.467,0.038c-0.413,0-0.734-0.131-0.964-0.392s-0.345-0.674-0.345-1.238v-3.831h-1.011v-0.532h1.011v-1.506
			H-118.688z"/>
		<path d="M-113.607-1222.979c-0.739,0-1.352-0.271-1.837-0.812s-0.728-1.23-0.728-2.067v-0.299c0-0.841,0.242-1.538,0.726-2.092
			c0.483-0.555,1.067-0.832,1.752-0.832c0.721,0,1.288,0.229,1.7,0.685c0.414,0.457,0.619,1.065,0.619,1.826v0.554h-4.151v0.158
			c0,0.659,0.177,1.213,0.53,1.66c0.354,0.447,0.816,0.671,1.389,0.671c0.402,0,0.746-0.057,1.032-0.169s0.53-0.273,0.733-0.483
			l0.277,0.445c-0.221,0.232-0.5,0.416-0.837,0.552S-113.14-1222.979-113.607-1222.979z M-113.694-1228.527
			c-0.479,0-0.881,0.184-1.209,0.552c-0.328,0.367-0.519,0.828-0.573,1.383l0.011,0.026h3.444v-0.162c0-0.511-0.15-0.938-0.45-1.283
			C-112.772-1228.355-113.18-1228.527-113.694-1228.527z"/>
		<path d="M-110.352-1228.489v-0.483h1.462l0.06,0.973c0.188-0.345,0.44-0.61,0.755-0.799c0.315-0.188,0.69-0.283,1.125-0.283
			c0.449,0,0.824,0.109,1.125,0.329c0.301,0.219,0.516,0.554,0.646,1.002c0.178-0.412,0.43-0.737,0.758-0.975
			s0.728-0.356,1.199-0.356c0.626,0,1.11,0.209,1.453,0.625c0.342,0.417,0.514,1.062,0.514,1.935v2.874l0.885,0.076v0.479h-2.428
			v-0.479l0.885-0.076v-2.885c0-0.725-0.127-1.236-0.383-1.535s-0.611-0.448-1.068-0.448c-0.507,0-0.896,0.161-1.17,0.483
			s-0.443,0.733-0.508,1.233c0,0.029,0,0.057,0.002,0.082s0.003,0.058,0.003,0.098v2.978l0.886,0.07v0.479h-2.424v-0.479l0.886-0.07
			v-2.891c0-0.71-0.13-1.218-0.388-1.524c-0.26-0.306-0.615-0.459-1.068-0.459c-0.464,0-0.83,0.117-1.101,0.351
			c-0.27,0.233-0.459,0.548-0.567,0.942v3.581l0.885,0.07v0.479h-2.423v-0.479l0.886-0.07v-4.776L-110.352-1228.489z"/>
		<path d="M-97.029-1222.979c-0.738,0-1.352-0.271-1.836-0.812c-0.486-0.542-0.729-1.23-0.729-2.067v-0.299
			c0-0.841,0.242-1.538,0.726-2.092c0.483-0.555,1.067-0.832,1.753-0.832c0.721,0,1.287,0.229,1.7,0.685
			c0.413,0.457,0.619,1.065,0.619,1.826v0.554h-4.151v0.158c0,0.659,0.177,1.213,0.529,1.66c0.354,0.447,0.816,0.671,1.389,0.671
			c0.402,0,0.746-0.057,1.033-0.169c0.285-0.112,0.53-0.273,0.732-0.483l0.277,0.445c-0.221,0.232-0.5,0.416-0.836,0.552
			C-96.16-1223.048-96.561-1222.979-97.029-1222.979z M-97.115-1228.527c-0.479,0-0.882,0.184-1.209,0.552
			c-0.328,0.367-0.52,0.828-0.574,1.383l0.012,0.026h3.444v-0.162c0-0.511-0.15-0.938-0.45-1.283
			C-96.193-1228.355-96.601-1228.527-97.115-1228.527z"/>
		<path d="M-93.752-1223.572l0.885-0.07v-4.776l-0.885-0.07v-0.483h1.461l0.061,1.026c0.188-0.362,0.442-0.642,0.763-0.839
			c0.321-0.198,0.7-0.297,1.139-0.297c0.638,0,1.122,0.195,1.456,0.584c0.333,0.39,0.5,0.997,0.5,1.823v3.032l0.886,0.07v0.479
			h-2.424v-0.479l0.886-0.07v-3.026c0-0.674-0.126-1.15-0.377-1.43c-0.252-0.278-0.609-0.418-1.074-0.418
			c-0.456,0-0.828,0.12-1.116,0.361s-0.495,0.561-0.622,0.959v3.554l0.886,0.07v0.479h-2.423V-1223.572z"/>
		<path d="M-84.97-1230.479v1.506h1.293v0.532h-1.293v3.831c0,0.384,0.069,0.656,0.209,0.817c0.139,0.161,0.324,0.242,0.557,0.242
			c0.105,0,0.207-0.005,0.307-0.014c0.1-0.01,0.215-0.024,0.346-0.047l0.098,0.484c-0.109,0.047-0.241,0.083-0.396,0.108
			c-0.156,0.025-0.312,0.038-0.468,0.038c-0.413,0-0.734-0.131-0.964-0.392c-0.23-0.261-0.346-0.674-0.346-1.238v-3.831h-1.011
			v-0.532h1.011v-1.506H-84.97z"/>
		<path d="M-80.732-1228.489l-0.74,0.06l0.951,3.429l0.223,1.049h0.033l0.277-1.049l1.255-3.972h0.554l1.256,3.972l0.282,1.076
			h0.032l0.245-1.076l0.924-3.429l-0.739-0.06v-0.483h1.979v0.483l-0.57,0.043l-1.561,5.353h-0.554l-1.31-4.021l-0.256-1.016h-0.032
			l-0.255,1.016l-1.289,4.021h-0.554l-1.554-5.353l-0.57-0.043v-0.483h1.973V-1228.489z"/>
		<path d="M-73.344-1223.572l0.887-0.07v-4.776l-0.887-0.07v-0.483h1.533v5.33l0.886,0.07v0.479h-2.419V-1223.572z M-71.81-1230.657
			h-0.646v-0.913h0.646V-1230.657z"/>
		<path d="M-67.322-1223.528c0.432,0,0.812-0.123,1.141-0.37c0.33-0.246,0.494-0.588,0.494-1.026h0.576l0.012,0.032
			c0.018,0.544-0.199,0.998-0.65,1.364c-0.45,0.366-0.975,0.549-1.572,0.549c-0.797,0-1.414-0.274-1.854-0.823
			c-0.438-0.549-0.657-1.255-0.657-2.116v-0.229c0-0.854,0.22-1.558,0.657-2.108c0.439-0.551,1.055-0.826,1.848-0.826
			c0.453,0,0.867,0.085,1.244,0.256c0.377,0.17,0.684,0.402,0.919,0.695l0.026,1.282h-0.554l-0.103-1.043
			c-0.174-0.195-0.391-0.351-0.65-0.465c-0.258-0.114-0.553-0.171-0.883-0.171c-0.63,0-1.097,0.226-1.398,0.677
			c-0.303,0.45-0.454,1.019-0.454,1.703v0.229c0,0.695,0.15,1.268,0.451,1.717C-68.429-1223.753-67.96-1223.528-67.322-1223.528z"/>
		<path d="M-64.078-1231.087v-0.483h1.531v5.054h0.69l1.788-1.907l-0.012-0.027l-0.537-0.038v-0.483h2.07v0.483l-0.686,0.065
			l-2.01,2.135l2.287,2.657l0.652,0.06v0.479h-2.064v-0.479l0.619-0.038l-2.043-2.347h-0.756v2.314l0.887,0.07v0.479h-2.418v-0.479
			l0.885-0.07v-7.374L-64.078-1231.087z"/>
		<path d="M-57.531-1231.087v-0.483h1.533v7.928l0.885,0.07v0.479h-2.418v-0.479l0.886-0.07v-7.374L-57.531-1231.087z"/>
		<path d="M-49.765-1224.061c-0.186,0.344-0.438,0.61-0.758,0.799c-0.32,0.188-0.699,0.282-1.133,0.282
			c-0.62,0-1.104-0.21-1.454-0.631c-0.35-0.42-0.524-1.072-0.524-1.956v-2.853l-0.729-0.07v-0.483h0.729h0.646v3.417
			c0,0.718,0.123,1.232,0.367,1.544s0.592,0.467,1.041,0.467c0.492,0,0.885-0.108,1.176-0.326c0.291-0.217,0.497-0.518,0.617-0.901
			v-3.646l-0.838-0.07v-0.483h0.838h0.651v5.33l0.788,0.07v0.479h-1.358L-49.765-1224.061z"/>
		<path d="M-47.51-1223.572l0.886-0.07v-4.776l-0.886-0.07v-0.483h1.462l0.06,1.026c0.188-0.362,0.442-0.642,0.763-0.839
			c0.321-0.198,0.701-0.297,1.139-0.297c0.638,0,1.123,0.195,1.457,0.584c0.332,0.39,0.5,0.997,0.5,1.823v3.032l0.885,0.07v0.479
			h-2.424v-0.479l0.887-0.07v-3.026c0-0.674-0.127-1.15-0.378-1.43c-0.252-0.278-0.609-0.418-1.073-0.418
			c-0.457,0-0.828,0.12-1.117,0.361c-0.287,0.241-0.494,0.561-0.621,0.959v3.554l0.885,0.07v0.479h-2.423V-1223.572z"/>
		<path d="M-40.252-1225.984c0-0.938,0.201-1.689,0.602-2.253c0.399-0.562,0.955-0.845,1.665-0.845c0.417,0,0.778,0.092,1.084,0.274
			c0.306,0.184,0.559,0.441,0.758,0.774l0.076-0.939h0.549v5.803c0,0.757-0.204,1.354-0.614,1.793
			c-0.409,0.438-0.98,0.658-1.711,0.658c-0.283,0-0.584-0.035-0.905-0.104c-0.32-0.069-0.601-0.163-0.839-0.283l0.174-0.548
			c0.234,0.111,0.482,0.198,0.741,0.261c0.259,0.062,0.532,0.092,0.817,0.092c0.559,0,0.979-0.165,1.262-0.494
			c0.281-0.33,0.424-0.788,0.424-1.375v-0.744c-0.2,0.301-0.451,0.531-0.756,0.692s-0.661,0.242-1.07,0.242
			c-0.707,0-1.26-0.263-1.658-0.788s-0.598-1.227-0.598-2.103V-1225.984z M-39.599-1225.87c0,0.706,0.145,1.271,0.432,1.692
			c0.289,0.422,0.719,0.633,1.291,0.633c0.424,0,0.776-0.096,1.057-0.288c0.281-0.191,0.498-0.456,0.65-0.793v-2.728
			c-0.146-0.345-0.354-0.624-0.625-0.84c-0.272-0.216-0.629-0.323-1.071-0.323c-0.572,0-1.005,0.235-1.296,0.706
			c-0.291,0.472-0.438,1.08-0.438,1.826V-1225.87z"/>
		<path d="M-27.248-1223.941c-0.196,0.308-0.447,0.545-0.756,0.712c-0.309,0.166-0.67,0.25-1.087,0.25
			c-0.702,0-1.253-0.263-1.649-0.788s-0.595-1.227-0.595-2.103v-0.114c0-0.938,0.198-1.689,0.595-2.253
			c0.396-0.562,0.951-0.845,1.66-0.845c0.41,0,0.765,0.086,1.065,0.259c0.301,0.172,0.551,0.417,0.75,0.736v-2.93l-0.886-0.07
			v-0.483h0.886h0.651v7.928l0.887,0.07v0.479h-1.468L-27.248-1223.941z M-30.677-1225.87c0,0.71,0.143,1.274,0.428,1.695
			c0.283,0.42,0.712,0.63,1.284,0.63c0.417,0,0.766-0.094,1.046-0.282c0.281-0.188,0.5-0.447,0.655-0.777v-2.782
			c-0.146-0.333-0.354-0.604-0.628-0.814s-0.627-0.315-1.062-0.315c-0.572,0-1.002,0.234-1.29,0.703
			c-0.288,0.47-0.433,1.079-0.433,1.829V-1225.87z"/>
		<path d="M-22.135-1222.979c-0.74,0-1.352-0.271-1.838-0.812c-0.484-0.542-0.728-1.23-0.728-2.067v-0.299
			c0-0.841,0.241-1.538,0.726-2.092c0.483-0.555,1.067-0.832,1.752-0.832c0.721,0,1.288,0.229,1.701,0.685
			c0.413,0.457,0.619,1.065,0.619,1.826v0.554h-4.151v0.158c0,0.659,0.177,1.213,0.53,1.66s0.815,0.671,1.389,0.671
			c0.401,0,0.746-0.057,1.031-0.169c0.287-0.112,0.531-0.273,0.734-0.483l0.277,0.445c-0.222,0.232-0.5,0.416-0.838,0.552
			C-21.265-1223.048-21.668-1222.979-22.135-1222.979z M-22.222-1228.527c-0.479,0-0.881,0.184-1.209,0.552
			c-0.328,0.367-0.519,0.828-0.572,1.383l0.01,0.026h3.445v-0.162c0-0.511-0.15-0.938-0.451-1.283
			C-21.301-1228.355-21.708-1228.527-22.222-1228.527z"/>
		<path d="M-17.332-1228.973l0.082,0.978v0.07c0.166-0.361,0.394-0.646,0.682-0.85c0.288-0.205,0.629-0.308,1.024-0.308
			c0.083,0,0.164,0.007,0.241,0.02c0.078,0.013,0.143,0.026,0.193,0.04l-0.087,0.609l-0.483-0.033c-0.41,0-0.746,0.115-1.008,0.346
			c-0.264,0.229-0.45,0.546-0.562,0.948v3.51l0.886,0.07v0.479h-2.419v-0.479l0.887-0.07v-4.776l-0.887-0.07v-0.483h0.887H-17.332z"
			/>
		<path d="M-6.926-1226.925h-3.244v3.282h3.738l0.049-1.185h0.576v1.733h-5.896v-0.479l0.886-0.07v-6.809l-0.886-0.07v-0.483h0.886
			h4.982v1.738H-6.41l-0.049-1.185h-3.711v2.973h3.244V-1226.925z"/>
		<path d="M-2.355-1231.005v0.483l-0.887,0.07v4.809c0,0.674,0.199,1.195,0.598,1.562c0.398,0.368,0.919,0.552,1.561,0.552
			c0.651,0,1.182-0.183,1.592-0.549c0.409-0.366,0.613-0.888,0.613-1.565v-4.809l-0.885-0.07v-0.483h2.418v0.483l-0.887,0.07v4.809
			c0,0.862-0.263,1.521-0.79,1.979c-0.526,0.456-1.214,0.685-2.062,0.685c-0.834,0-1.51-0.229-2.027-0.688s-0.777-1.116-0.777-1.976
			v-4.809l-0.885-0.07v-0.483h0.885h0.646H-2.355z"/>
	</g>
</g>
<g transform="matrix(1,0,0,1,423,1263)">
	<g enable-background="new    ">
		<path fill="#F2231A" d="M-69.54-1161.855l-0.094-0.984h-4.062l-0.422,4.055c0.286-0.261,0.602-0.461,0.945-0.602
			s0.81-0.219,1.398-0.234c0.969-0.016,1.75,0.31,2.344,0.977s0.891,1.562,0.891,2.688c0,1.151-0.289,2.07-0.867,2.758
			s-1.445,1.031-2.602,1.031c-0.938,0-1.718-0.262-2.34-0.785s-0.921-1.298-0.895-2.324l0.016-0.047h0.836
			c0,0.766,0.216,1.352,0.648,1.758s1.011,0.609,1.734,0.609c0.849,0,1.483-0.255,1.902-0.766s0.629-1.25,0.629-2.219
			c0-0.849-0.21-1.53-0.629-2.043s-1.007-0.77-1.762-0.77c-0.729,0-1.285,0.116-1.668,0.348s-0.66,0.582-0.832,1.051l-0.758-0.125
			l0.625-6.227h5.719v1.852H-69.54z"/>
		<path fill="#F2231A" d="M-63.196-1152.332v-0.688l1.273-0.102v-9.789l-1.273-0.102v-0.695h1.273h0.938h1.273v0.695l-1.273,0.102
			v9.789h4.727l0.07-1.602h0.828v2.391H-63.196z"/>
		<path fill="#F2231A" d="M-49.196-1163.707c1.192,0,2.116,0.304,2.77,0.91s0.98,1.41,0.98,2.41c0,1.011-0.327,1.817-0.98,2.422
			s-1.577,0.906-2.77,0.906h-2.594v3.938l1.273,0.102v0.688h-3.477v-0.688l1.273-0.102v-9.789l-1.273-0.102v-0.695h1.273H-49.196z
			 M-51.79-1157.855h2.594c0.938,0,1.642-0.238,2.113-0.715s0.707-1.077,0.707-1.801c0-0.729-0.234-1.335-0.703-1.816
			s-1.175-0.723-2.117-0.723h-2.594V-1157.855z"/>
	</g>
</g>
<g transform="matrix(1,0,0,1,423,1263)">
	<g enable-background="new    ">
		<path fill="#F2231A" d="M-80.11-1137.926c0-1.891,0.36-3.586,1.082-5.086s1.527-2.503,2.418-3.008h0.047l0.203,0.57
			c-0.755,0.536-1.414,1.489-1.977,2.859s-0.844,2.917-0.844,4.641v0.156c0,1.724,0.281,3.271,0.844,4.641s1.222,2.333,1.977,2.891
			l-0.203,0.547h-0.047c-0.901-0.521-1.71-1.516-2.426-2.984s-1.074-3.172-1.074-5.109V-1137.926z"/>
		<path fill="#F2231A" d="M-67.446-1141.332h-0.766l-0.133-1.609c-0.281-0.354-0.664-0.632-1.148-0.832s-1.052-0.301-1.703-0.301
			c-0.938,0-1.668,0.203-2.191,0.609s-0.785,0.911-0.785,1.516c0,0.573,0.235,1.051,0.707,1.434s1.288,0.72,2.449,1.012
			c1.224,0.312,2.155,0.734,2.793,1.266s0.957,1.231,0.957,2.102c0,0.906-0.37,1.628-1.109,2.164s-1.685,0.805-2.836,0.805
			c-0.812,0-1.566-0.144-2.262-0.43s-1.265-0.695-1.707-1.227v-1.992h0.766l0.133,1.664c0.344,0.391,0.784,0.688,1.32,0.891
			s1.12,0.305,1.75,0.305c0.896,0,1.621-0.198,2.176-0.594s0.832-0.919,0.832-1.57c0-0.62-0.231-1.126-0.695-1.52
			s-1.271-0.741-2.422-1.043c-1.245-0.312-2.188-0.719-2.828-1.219s-0.961-1.175-0.961-2.023c0-0.87,0.364-1.578,1.094-2.125
			s1.669-0.82,2.82-0.82c0.828,0,1.566,0.144,2.215,0.43s1.16,0.675,1.535,1.164V-1141.332z"/>
		<path fill="#F2231A" d="M-65.743-1137.684c0-1.245,0.341-2.266,1.023-3.062s1.586-1.195,2.711-1.195
			c1.13,0,2.036,0.398,2.719,1.195s1.023,1.817,1.023,3.062v0.258c0,1.25-0.34,2.272-1.02,3.066s-1.582,1.191-2.707,1.191
			c-1.136,0-2.044-0.397-2.727-1.191s-1.023-1.816-1.023-3.066V-1137.684z M-64.805-1137.426c0,0.979,0.247,1.802,0.742,2.469
			s1.185,1,2.07,1c0.87,0,1.552-0.333,2.047-1s0.742-1.489,0.742-2.469v-0.258c0-0.964-0.249-1.781-0.746-2.453
			s-1.184-1.008-2.059-1.008s-1.56,0.336-2.055,1.008s-0.742,1.489-0.742,2.453V-1137.426z"/>
		<path fill="#F2231A" d="M-48.915-1141.332h-0.766l-0.133-1.609c-0.281-0.354-0.664-0.632-1.148-0.832s-1.052-0.301-1.703-0.301
			c-0.938,0-1.668,0.203-2.191,0.609s-0.785,0.911-0.785,1.516c0,0.573,0.235,1.051,0.707,1.434s1.288,0.72,2.449,1.012
			c1.224,0.312,2.155,0.734,2.793,1.266s0.957,1.231,0.957,2.102c0,0.906-0.37,1.628-1.109,2.164s-1.685,0.805-2.836,0.805
			c-0.812,0-1.566-0.144-2.262-0.43s-1.265-0.695-1.707-1.227v-1.992h0.766l0.133,1.664c0.344,0.391,0.784,0.688,1.32,0.891
			s1.12,0.305,1.75,0.305c0.896,0,1.621-0.198,2.176-0.594s0.832-0.919,0.832-1.57c0-0.62-0.231-1.126-0.695-1.52
			s-1.271-0.741-2.422-1.043c-1.245-0.312-2.188-0.719-2.828-1.219s-0.961-1.175-0.961-2.023c0-0.87,0.364-1.578,1.094-2.125
			s1.669-0.82,2.82-0.82c0.828,0,1.566,0.144,2.215,0.43s1.16,0.675,1.535,1.164V-1141.332z"/>
		<path fill="#F2231A" d="M-43.485-1133.168c-1.062,0-1.942-0.39-2.641-1.168s-1.047-1.77-1.047-2.973v-0.43
			c0-1.208,0.348-2.211,1.043-3.008s1.535-1.195,2.52-1.195c1.036,0,1.852,0.328,2.445,0.984s0.891,1.531,0.891,2.625v0.797h-5.969
			v0.227c0,0.948,0.254,1.743,0.762,2.387s1.173,0.965,1.996,0.965c0.578,0,1.073-0.081,1.484-0.242s0.763-0.394,1.055-0.695
			l0.398,0.641c-0.317,0.333-0.719,0.598-1.203,0.793S-42.813-1133.168-43.485-1133.168z M-43.61-1141.145
			c-0.688,0-1.267,0.265-1.738,0.793s-0.746,1.191-0.824,1.988l0.016,0.039h4.953v-0.234c0-0.734-0.216-1.349-0.648-1.844
			S-42.871-1141.145-43.61-1141.145z"/>
		<path fill="#F2231A" d="M-35.524-1137.809c0,1.938-0.36,3.641-1.082,5.109s-1.53,2.464-2.426,2.984l-0.047-0.008l-0.195-0.539
			c0.75-0.531,1.407-1.487,1.973-2.867s0.848-2.935,0.848-4.664v-0.156c0-1.714-0.288-3.265-0.863-4.652s-1.228-2.348-1.957-2.879
			l0.195-0.539l0.047-0.008c0.886,0.511,1.691,1.516,2.418,3.016s1.09,3.195,1.09,5.086V-1137.809z"/>
	</g>
</g>
<g transform="matrix(1,0,0,1,597,1263)">
	<path vector-effect="none" fill="#FFFFFF" d="M-150-1263.333H23v140h-173V-1263.333"/>
</g>
<g transform="matrix(1,0,0,1,597,1263)">
	<path vector-effect="none" fill="none" d="M24-1263.333h173v140H24V-1263.333"/>
</g>
<g transform="matrix(1,0,0,1,597,1263)">
	<path vector-effect="none" fill="#D35400" d="M-150-1263.333H23v6h-173V-1263.333"/>
</g>
<g transform="matrix(1,0,0,1,597,1263)">
	<g enable-background="new    ">
		<path d="M-140.066-1243.504v-0.483h2.424v0.483l-0.886,0.07v6.809l0.886,0.07v0.479h-2.424v-0.479l0.887-0.07v-6.809
			L-140.066-1243.504z"/>
		<path d="M-136.746-1236.555l0.887-0.07v-4.776l-0.887-0.07v-0.483h1.462l0.06,1.026c0.188-0.362,0.443-0.642,0.764-0.839
			c0.32-0.198,0.7-0.297,1.139-0.297c0.637,0,1.123,0.195,1.456,0.584c0.333,0.39,0.5,0.997,0.5,1.823v3.032l0.886,0.07v0.479
			h-2.424v-0.479l0.886-0.07v-3.026c0-0.674-0.126-1.15-0.378-1.43c-0.252-0.278-0.609-0.418-1.072-0.418
			c-0.457,0-0.829,0.12-1.117,0.361s-0.495,0.561-0.622,0.959v3.554l0.886,0.07v0.479h-2.424V-1236.555z"/>
		<path d="M-127.965-1243.461v1.506h1.293v0.532h-1.293v3.831c0,0.384,0.07,0.656,0.209,0.817c0.14,0.161,0.325,0.242,0.557,0.242
			c0.105,0,0.207-0.005,0.308-0.014c0.1-0.01,0.214-0.024,0.345-0.047l0.098,0.484c-0.108,0.047-0.24,0.083-0.396,0.108
			s-0.312,0.038-0.467,0.038c-0.414,0-0.734-0.131-0.965-0.392s-0.346-0.674-0.346-1.238v-3.831h-1.01v-0.532h1.01v-1.506H-127.965z
			"/>
		<path d="M-122.885-1235.962c-0.738,0-1.352-0.271-1.836-0.812c-0.486-0.542-0.729-1.23-0.729-2.067v-0.299
			c0-0.841,0.242-1.538,0.726-2.092c0.483-0.555,1.067-0.832,1.753-0.832c0.721,0,1.287,0.229,1.7,0.685
			c0.413,0.457,0.619,1.065,0.619,1.826v0.554h-4.151v0.158c0,0.659,0.177,1.213,0.529,1.66c0.354,0.447,0.816,0.671,1.389,0.671
			c0.402,0,0.746-0.057,1.033-0.169c0.285-0.112,0.53-0.273,0.732-0.483l0.277,0.445c-0.221,0.232-0.5,0.416-0.836,0.552
			C-122.015-1236.03-122.417-1235.962-122.885-1235.962z M-122.97-1241.51c-0.479,0-0.882,0.184-1.209,0.552
			c-0.328,0.367-0.52,0.828-0.574,1.383l0.012,0.026h3.444v-0.162c0-0.511-0.15-0.938-0.45-1.283
			C-122.049-1241.338-122.457-1241.51-122.97-1241.51z"/>
		<path d="M-118.081-1241.955l0.081,0.978v0.07c0.167-0.361,0.395-0.646,0.682-0.85c0.289-0.205,0.63-0.308,1.025-0.308
			c0.083,0,0.164,0.007,0.241,0.02c0.078,0.013,0.142,0.026,0.192,0.04l-0.086,0.609l-0.484-0.033c-0.409,0-0.745,0.115-1.008,0.346
			c-0.263,0.229-0.449,0.546-0.562,0.948v3.51l0.887,0.07v0.479h-2.419v-0.479l0.886-0.07v-4.776l-0.886-0.07v-0.483h0.886H-118.081
			z"/>
		<path d="M-115.135-1236.555l0.886-0.07v-4.776l-0.886-0.07v-0.483h1.462l0.06,1.026c0.188-0.362,0.442-0.642,0.763-0.839
			c0.321-0.198,0.701-0.297,1.139-0.297c0.638,0,1.123,0.195,1.457,0.584c0.332,0.39,0.5,0.997,0.5,1.823v3.032l0.885,0.07v0.479
			h-2.424v-0.479l0.887-0.07v-3.026c0-0.674-0.127-1.15-0.378-1.43c-0.252-0.278-0.609-0.418-1.073-0.418
			c-0.457,0-0.828,0.12-1.117,0.361c-0.287,0.241-0.494,0.561-0.621,0.959v3.554l0.885,0.07v0.479h-2.423V-1236.555z"/>
		<path d="M-103.791-1236.076c-0.043-0.199-0.074-0.371-0.092-0.517c-0.018-0.145-0.027-0.291-0.027-0.439
			c-0.217,0.308-0.507,0.563-0.869,0.766c-0.362,0.203-0.77,0.305-1.223,0.305c-0.576,0-1.021-0.148-1.336-0.445
			c-0.316-0.298-0.474-0.699-0.474-1.207c0-0.543,0.233-0.974,0.701-1.293c0.468-0.318,1.101-0.479,1.901-0.479h1.299v-0.776
			c0-0.421-0.135-0.75-0.404-0.989s-0.648-0.358-1.133-0.358c-0.326,0-0.625,0.044-0.895,0.133s-0.495,0.209-0.676,0.361
			l-0.055,0.788h-0.538l0.005-1.13c0.272-0.21,0.598-0.381,0.977-0.511c0.378-0.131,0.781-0.196,1.209-0.196
			c0.648,0,1.17,0.165,1.564,0.495c0.395,0.329,0.592,0.802,0.592,1.418v2.891c0,0.119,0.003,0.234,0.009,0.345
			c0.005,0.111,0.017,0.219,0.035,0.323l0.587,0.038v0.479H-103.791z M-105.931-1236.538c0.471,0,0.887-0.108,1.244-0.326
			c0.359-0.217,0.618-0.498,0.777-0.842v-1.18h-1.309c-0.592,0-1.062,0.123-1.416,0.367s-0.529,0.554-0.529,0.927
			c0,0.314,0.109,0.569,0.328,0.763C-106.617-1236.635-106.315-1236.538-105.931-1236.538z"/>
		<path d="M-100.215-1243.461v1.506h1.293v0.532h-1.293v3.831c0,0.384,0.07,0.656,0.209,0.817c0.141,0.161,0.326,0.242,0.558,0.242
			c0.104,0,0.207-0.005,0.308-0.014c0.1-0.01,0.214-0.024,0.344-0.047l0.099,0.484c-0.108,0.047-0.241,0.083-0.397,0.108
			c-0.155,0.025-0.311,0.038-0.467,0.038c-0.413,0-0.734-0.131-0.965-0.392c-0.229-0.261-0.345-0.674-0.345-1.238v-3.831h-1.011
			v-0.532h1.011v-1.506H-100.215z"/>
		<path d="M-97.769-1236.555l0.886-0.07v-4.776l-0.886-0.07v-0.483h1.533v5.33l0.885,0.07v0.479h-2.418V-1236.555z M-96.236-1243.64
			h-0.647v-0.913h0.647V-1243.64z"/>
		<path d="M-94.26-1239.103c0-0.866,0.238-1.576,0.713-2.13c0.475-0.555,1.103-0.832,1.885-0.832c0.787,0,1.417,0.277,1.892,0.832
			c0.474,0.554,0.712,1.264,0.712,2.13v0.179c0,0.87-0.236,1.581-0.709,2.133c-0.473,0.553-1.101,0.829-1.883,0.829
			c-0.79,0-1.422-0.276-1.896-0.829c-0.475-0.552-0.713-1.263-0.713-2.133V-1239.103z M-93.607-1238.924
			c0,0.682,0.172,1.254,0.517,1.718s0.824,0.695,1.44,0.695c0.604,0,1.079-0.231,1.424-0.695c0.344-0.464,0.516-1.036,0.516-1.718
			v-0.179c0-0.67-0.173-1.239-0.52-1.706c-0.346-0.468-0.822-0.701-1.432-0.701c-0.608,0-1.084,0.233-1.429,0.701
			c-0.345,0.467-0.517,1.036-0.517,1.706V-1238.924z"/>
		<path d="M-88.119-1236.555l0.886-0.07v-4.776l-0.886-0.07v-0.483h1.461l0.061,1.026c0.188-0.362,0.443-0.642,0.764-0.839
			c0.32-0.198,0.699-0.297,1.139-0.297c0.637,0,1.122,0.195,1.455,0.584c0.334,0.39,0.5,0.997,0.5,1.823v3.032l0.887,0.07v0.479
			h-2.424v-0.479l0.885-0.07v-3.026c0-0.674-0.125-1.15-0.377-1.43c-0.252-0.278-0.609-0.418-1.073-0.418
			c-0.456,0-0.829,0.12-1.116,0.361c-0.289,0.241-0.496,0.561-0.623,0.959v3.554l0.887,0.07v0.479h-2.424V-1236.555z"/>
		<path d="M-76.773-1236.076c-0.043-0.199-0.074-0.371-0.092-0.517c-0.019-0.145-0.027-0.291-0.027-0.439
			c-0.218,0.308-0.508,0.563-0.869,0.766c-0.363,0.203-0.771,0.305-1.223,0.305c-0.576,0-1.021-0.148-1.337-0.445
			c-0.315-0.298-0.474-0.699-0.474-1.207c0-0.543,0.234-0.974,0.701-1.293c0.468-0.318,1.102-0.479,1.902-0.479h1.299v-0.776
			c0-0.421-0.135-0.75-0.405-0.989c-0.27-0.239-0.647-0.358-1.133-0.358c-0.325,0-0.624,0.044-0.894,0.133s-0.496,0.209-0.677,0.361
			l-0.054,0.788h-0.539l0.006-1.13c0.271-0.21,0.597-0.381,0.976-0.511c0.378-0.131,0.781-0.196,1.209-0.196
			c0.648,0,1.17,0.165,1.565,0.495c0.395,0.329,0.592,0.802,0.592,1.418v2.891c0,0.119,0.002,0.234,0.008,0.345
			c0.006,0.111,0.018,0.219,0.035,0.323l0.588,0.038v0.479H-76.773z M-78.914-1236.538c0.471,0,0.886-0.108,1.244-0.326
			c0.359-0.217,0.617-0.498,0.777-0.842v-1.18h-1.31c-0.591,0-1.062,0.123-1.415,0.367c-0.354,0.244-0.53,0.554-0.53,0.927
			c0,0.314,0.109,0.569,0.329,0.763C-79.599-1236.635-79.299-1236.538-78.914-1236.538z"/>
		<path d="M-74.822-1244.069v-0.483h1.532v7.928l0.886,0.07v0.479h-2.418v-0.479l0.885-0.07v-7.374L-74.822-1244.069z"/>
		<path d="M-68.785-1235.962c-0.74,0-1.352-0.271-1.838-0.812c-0.484-0.542-0.728-1.23-0.728-2.067v-0.299
			c0-0.841,0.241-1.538,0.726-2.092c0.483-0.555,1.067-0.832,1.752-0.832c0.721,0,1.288,0.229,1.701,0.685
			c0.413,0.457,0.619,1.065,0.619,1.826v0.554h-4.151v0.158c0,0.659,0.177,1.213,0.53,1.66s0.815,0.671,1.389,0.671
			c0.401,0,0.746-0.057,1.031-0.169c0.287-0.112,0.531-0.273,0.734-0.483l0.277,0.445c-0.222,0.232-0.5,0.416-0.838,0.552
			C-67.916-1236.03-68.318-1235.962-68.785-1235.962z M-68.873-1241.51c-0.479,0-0.881,0.184-1.209,0.552
			c-0.328,0.367-0.519,0.828-0.572,1.383l0.01,0.026h3.445v-0.162c0-0.511-0.15-0.938-0.451-1.283
			C-67.951-1241.338-68.358-1241.51-68.873-1241.51z"/>
		<path d="M-55.837-1239.978c0,1.188-0.317,2.154-0.95,2.898c-0.635,0.745-1.459,1.117-2.473,1.117c-1,0-1.812-0.373-2.438-1.119
			s-0.938-1.712-0.938-2.896v-0.104c0-1.185,0.312-2.15,0.936-2.898s1.434-1.122,2.434-1.122c1.014,0,1.84,0.374,2.475,1.122
			c0.637,0.748,0.954,1.714,0.954,2.898V-1239.978z M-56.488-1240.092c0-1.025-0.25-1.854-0.75-2.488s-1.176-0.951-2.027-0.951
			c-0.837,0-1.498,0.317-1.986,0.951c-0.486,0.634-0.73,1.463-0.73,2.488v0.114c0,1.032,0.244,1.865,0.733,2.499
			c0.489,0.635,1.152,0.951,1.989,0.951c0.858,0,1.535-0.315,2.029-0.948c0.494-0.632,0.742-1.466,0.742-2.502V-1240.092z"/>
		<path d="M-53.299-1241.955l0.081,0.978v0.07c0.167-0.361,0.394-0.646,0.682-0.85c0.288-0.205,0.63-0.308,1.024-0.308
			c0.084,0,0.164,0.007,0.242,0.02s0.142,0.026,0.192,0.04l-0.087,0.609l-0.483-0.033c-0.409,0-0.745,0.115-1.009,0.346
			c-0.262,0.229-0.449,0.546-0.562,0.948v3.51l0.886,0.07v0.479h-2.418v-0.479l0.885-0.07v-4.776l-0.885-0.07v-0.483h0.885H-53.299z
			"/>
		<path d="M-50.31-1238.967c0-0.938,0.199-1.689,0.6-2.253c0.4-0.562,0.955-0.845,1.666-0.845c0.416,0,0.777,0.092,1.084,0.274
			c0.307,0.184,0.559,0.441,0.758,0.774l0.076-0.939h0.549v5.803c0,0.757-0.205,1.354-0.614,1.793s-0.979,0.658-1.712,0.658
			c-0.282,0-0.584-0.035-0.904-0.104c-0.32-0.069-0.601-0.163-0.84-0.283l0.174-0.548c0.236,0.111,0.482,0.198,0.742,0.261
			c0.259,0.062,0.531,0.092,0.818,0.092c0.557,0,0.978-0.165,1.26-0.494c0.283-0.33,0.424-0.788,0.424-1.375v-0.744
			c-0.199,0.301-0.451,0.531-0.755,0.692c-0.305,0.161-0.661,0.242-1.071,0.242c-0.705,0-1.258-0.263-1.656-0.788
			s-0.598-1.227-0.598-2.103V-1238.967z M-49.658-1238.853c0,0.706,0.143,1.271,0.432,1.692c0.287,0.422,0.718,0.633,1.29,0.633
			c0.424,0,0.776-0.096,1.058-0.288c0.28-0.191,0.496-0.456,0.648-0.793v-2.728c-0.145-0.345-0.354-0.624-0.625-0.84
			s-0.628-0.323-1.07-0.323c-0.572,0-1.004,0.235-1.296,0.706c-0.292,0.472-0.437,1.08-0.437,1.826V-1238.853z"/>
		<path d="M-40.041-1236.076c-0.043-0.199-0.074-0.371-0.092-0.517c-0.019-0.145-0.027-0.291-0.027-0.439
			c-0.218,0.308-0.508,0.563-0.869,0.766c-0.363,0.203-0.771,0.305-1.223,0.305c-0.576,0-1.021-0.148-1.337-0.445
			c-0.315-0.298-0.474-0.699-0.474-1.207c0-0.543,0.234-0.974,0.701-1.293c0.468-0.318,1.102-0.479,1.902-0.479h1.299v-0.776
			c0-0.421-0.135-0.75-0.405-0.989c-0.27-0.239-0.647-0.358-1.133-0.358c-0.325,0-0.624,0.044-0.894,0.133s-0.496,0.209-0.677,0.361
			l-0.054,0.788h-0.539l0.006-1.13c0.271-0.21,0.597-0.381,0.976-0.511c0.378-0.131,0.781-0.196,1.209-0.196
			c0.648,0,1.17,0.165,1.565,0.495c0.395,0.329,0.592,0.802,0.592,1.418v2.891c0,0.119,0.002,0.234,0.008,0.345
			c0.006,0.111,0.018,0.219,0.035,0.323l0.588,0.038v0.479H-40.041z M-42.181-1236.538c0.471,0,0.886-0.108,1.244-0.326
			c0.359-0.217,0.617-0.498,0.777-0.842v-1.18h-1.31c-0.591,0-1.062,0.123-1.415,0.367c-0.354,0.244-0.53,0.554-0.53,0.927
			c0,0.314,0.109,0.569,0.329,0.763C-42.867-1236.635-42.566-1236.538-42.181-1236.538z"/>
		<path d="M-38.079-1236.555l0.886-0.07v-4.776l-0.886-0.07v-0.483h1.462l0.06,1.026c0.188-0.362,0.442-0.642,0.763-0.839
			c0.321-0.198,0.701-0.297,1.139-0.297c0.638,0,1.123,0.195,1.457,0.584c0.332,0.39,0.5,0.997,0.5,1.823v3.032l0.885,0.07v0.479
			h-2.424v-0.479l0.887-0.07v-3.026c0-0.674-0.127-1.15-0.378-1.43c-0.252-0.278-0.609-0.418-1.073-0.418
			c-0.457,0-0.828,0.12-1.117,0.361c-0.287,0.241-0.494,0.561-0.621,0.959v3.554l0.885,0.07v0.479h-2.423V-1236.555z"/>
		<path d="M-30.836-1236.555l0.885-0.07v-4.776l-0.885-0.07v-0.483h1.532v5.33l0.886,0.07v0.479h-2.418V-1236.555z M-29.303-1243.64
			h-0.647v-0.913h0.647V-1243.64z"/>
		<path d="M-23.06-1240.141h-0.532l-0.076-0.831c-0.163-0.171-0.368-0.303-0.616-0.397c-0.248-0.094-0.534-0.141-0.856-0.141
			c-0.475,0-0.831,0.103-1.067,0.307c-0.238,0.205-0.356,0.445-0.356,0.72c0,0.272,0.103,0.497,0.308,0.674
			c0.204,0.178,0.613,0.334,1.225,0.468c0.699,0.155,1.223,0.368,1.57,0.639c0.348,0.27,0.521,0.637,0.521,1.1
			c0,0.489-0.197,0.886-0.594,1.188c-0.397,0.303-0.922,0.454-1.574,0.454c-0.434,0-0.83-0.061-1.188-0.183
			c-0.356-0.121-0.665-0.292-0.926-0.513v-1.185h0.527l0.092,0.837c0.174,0.174,0.395,0.3,0.66,0.377
			c0.267,0.078,0.545,0.117,0.834,0.117c0.471,0,0.843-0.104,1.114-0.31c0.272-0.207,0.407-0.457,0.407-0.75
			c0-0.275-0.113-0.517-0.34-0.723c-0.226-0.207-0.635-0.375-1.225-0.506c-0.699-0.151-1.219-0.354-1.557-0.605
			c-0.339-0.252-0.508-0.604-0.508-1.057c0-0.449,0.189-0.829,0.57-1.139c0.38-0.31,0.882-0.465,1.505-0.465
			c0.431,0,0.825,0.066,1.182,0.198c0.356,0.133,0.647,0.311,0.872,0.535L-23.06-1240.141z"/>
		<path d="M-17.697-1236.076c-0.043-0.199-0.074-0.371-0.092-0.517c-0.019-0.145-0.027-0.291-0.027-0.439
			c-0.218,0.308-0.508,0.563-0.869,0.766c-0.363,0.203-0.771,0.305-1.223,0.305c-0.576,0-1.021-0.148-1.337-0.445
			c-0.315-0.298-0.474-0.699-0.474-1.207c0-0.543,0.234-0.974,0.701-1.293c0.468-0.318,1.102-0.479,1.902-0.479h1.299v-0.776
			c0-0.421-0.135-0.75-0.405-0.989c-0.27-0.239-0.647-0.358-1.133-0.358c-0.325,0-0.624,0.044-0.894,0.133s-0.496,0.209-0.677,0.361
			l-0.054,0.788h-0.539l0.006-1.13c0.271-0.21,0.597-0.381,0.976-0.511c0.378-0.131,0.781-0.196,1.209-0.196
			c0.648,0,1.17,0.165,1.565,0.495c0.395,0.329,0.592,0.802,0.592,1.418v2.891c0,0.119,0.002,0.234,0.008,0.345
			c0.006,0.111,0.018,0.219,0.035,0.323l0.588,0.038v0.479H-17.697z M-19.838-1236.538c0.471,0,0.886-0.108,1.244-0.326
			c0.359-0.217,0.617-0.498,0.777-0.842v-1.18h-1.31c-0.591,0-1.062,0.123-1.415,0.367c-0.354,0.244-0.53,0.554-0.53,0.927
			c0,0.314,0.109,0.569,0.329,0.763C-20.523-1236.635-20.222-1236.538-19.838-1236.538z"/>
		<path d="M-14.121-1243.461v1.506h1.293v0.532h-1.293v3.831c0,0.384,0.069,0.656,0.209,0.817c0.139,0.161,0.324,0.242,0.557,0.242
			c0.105,0,0.207-0.005,0.307-0.014c0.1-0.01,0.215-0.024,0.346-0.047l0.098,0.484c-0.109,0.047-0.241,0.083-0.396,0.108
			c-0.156,0.025-0.312,0.038-0.468,0.038c-0.413,0-0.734-0.131-0.964-0.392c-0.23-0.261-0.346-0.674-0.346-1.238v-3.831h-1.011
			v-0.532h1.011v-1.506H-14.121z"/>
		<path d="M-11.677-1236.555l0.886-0.07v-4.776l-0.886-0.07v-0.483h1.532v5.33l0.887,0.07v0.479h-2.419V-1236.555z M-10.144-1243.64
			h-0.646v-0.913h0.646V-1243.64z"/>
		<path d="M-8.166-1239.103c0-0.866,0.236-1.576,0.711-2.13c0.475-0.555,1.104-0.832,1.887-0.832c0.785,0,1.416,0.277,1.891,0.832
			c0.475,0.554,0.711,1.264,0.711,2.13v0.179c0,0.87-0.236,1.581-0.709,2.133c-0.473,0.553-1.1,0.829-1.883,0.829
			c-0.789,0-1.422-0.276-1.896-0.829c-0.475-0.552-0.711-1.263-0.711-2.133V-1239.103z M-7.513-1238.924
			c0,0.682,0.172,1.254,0.516,1.718s0.824,0.695,1.439,0.695c0.605,0,1.08-0.231,1.424-0.695s0.517-1.036,0.517-1.718v-0.179
			c0-0.67-0.173-1.239-0.519-1.706c-0.346-0.468-0.824-0.701-1.432-0.701c-0.609,0-1.086,0.233-1.43,0.701
			c-0.344,0.467-0.516,1.036-0.516,1.706V-1238.924z"/>
		<path d="M-2.025-1236.555l0.885-0.07v-4.776l-0.885-0.07v-0.483h1.461l0.061,1.026c0.188-0.362,0.442-0.642,0.763-0.839
			c0.321-0.198,0.7-0.297,1.139-0.297c0.638,0,1.122,0.195,1.456,0.584c0.333,0.39,0.5,0.997,0.5,1.823v3.032l0.886,0.07v0.479
			H1.816v-0.479l0.886-0.07v-3.026c0-0.674-0.126-1.15-0.377-1.43c-0.252-0.278-0.609-0.418-1.074-0.418
			c-0.456,0-0.828,0.12-1.116,0.361s-0.495,0.561-0.622,0.959v3.554l0.886,0.07v0.479h-2.423V-1236.555z"/>
		<path d="M7.799-1235.962c-0.74,0-1.352-0.271-1.838-0.812c-0.484-0.542-0.728-1.23-0.728-2.067v-0.299
			c0-0.841,0.241-1.538,0.726-2.092c0.483-0.555,1.067-0.832,1.752-0.832c0.721,0,1.288,0.229,1.701,0.685
			c0.413,0.457,0.619,1.065,0.619,1.826v0.554H5.88v0.158c0,0.659,0.177,1.213,0.53,1.66s0.815,0.671,1.389,0.671
			c0.401,0,0.746-0.057,1.031-0.169c0.287-0.112,0.531-0.273,0.734-0.483l0.277,0.445c-0.222,0.232-0.5,0.416-0.838,0.552
			C8.668-1236.03,8.266-1235.962,7.799-1235.962z M7.711-1241.51c-0.479,0-0.881,0.184-1.209,0.552
			c-0.328,0.367-0.519,0.828-0.572,1.383l0.01,0.026h3.445v-0.162c0-0.511-0.15-0.938-0.451-1.283
			C8.633-1241.338,8.226-1241.51,7.711-1241.51z"/>
		<path d="M11.074-1236.555l0.887-0.07v-4.776l-0.887-0.07v-0.483h1.462l0.06,1.026c0.188-0.362,0.443-0.642,0.764-0.839
			c0.32-0.198,0.7-0.297,1.139-0.297c0.637,0,1.123,0.195,1.456,0.584c0.333,0.39,0.5,0.997,0.5,1.823v3.032l0.886,0.07v0.479
			h-2.424v-0.479l0.886-0.07v-3.026c0-0.674-0.126-1.15-0.378-1.43c-0.252-0.278-0.609-0.418-1.072-0.418
			c-0.457,0-0.829,0.12-1.117,0.361s-0.495,0.561-0.622,0.959v3.554l0.886,0.07v0.479h-2.424V-1236.555z"/>
	</g>
</g>
<g transform="matrix(1,0,0,1,597,1263)">
	<g enable-background="new    ">
		<path fill="#F2231A" d="M-69.539-1161.855l-0.094-0.984h-4.062l-0.422,4.055c0.285-0.261,0.602-0.461,0.945-0.602
			s0.809-0.219,1.398-0.234c0.969-0.016,1.75,0.31,2.344,0.977s0.891,1.562,0.891,2.688c0,1.151-0.289,2.07-0.867,2.758
			s-1.445,1.031-2.602,1.031c-0.938,0-1.719-0.262-2.34-0.785c-0.623-0.523-0.922-1.298-0.895-2.324l0.016-0.047h0.836
			c0,0.766,0.215,1.352,0.648,1.758c0.432,0.406,1.01,0.609,1.734,0.609c0.848,0,1.482-0.255,1.902-0.766
			c0.418-0.511,0.629-1.25,0.629-2.219c0-0.849-0.211-1.53-0.629-2.043c-0.42-0.513-1.008-0.77-1.762-0.77
			c-0.73,0-1.285,0.116-1.668,0.348s-0.66,0.582-0.832,1.051l-0.758-0.125l0.625-6.227h5.719v1.852H-69.539z"/>
		<path fill="#F2231A" d="M-63.195-1152.332v-0.688l1.273-0.102v-9.789l-1.273-0.102v-0.695h1.273h0.938h1.273v0.695l-1.273,0.102
			v9.789h4.727l0.07-1.602h0.828v2.391H-63.195z"/>
		<path fill="#F2231A" d="M-49.195-1163.707c1.191,0,2.115,0.304,2.77,0.91c0.652,0.606,0.98,1.41,0.98,2.41
			c0,1.011-0.328,1.817-0.98,2.422c-0.654,0.604-1.578,0.906-2.77,0.906h-2.594v3.938l1.273,0.102v0.688h-3.477v-0.688l1.273-0.102
			v-9.789l-1.273-0.102v-0.695h1.273H-49.195z M-51.789-1157.855h2.594c0.938,0,1.641-0.238,2.113-0.715
			c0.471-0.477,0.707-1.077,0.707-1.801c0-0.729-0.234-1.335-0.703-1.816s-1.176-0.723-2.117-0.723h-2.594V-1157.855z"/>
	</g>
</g>
<g transform="matrix(1,0,0,1,597,1263)">
	<g enable-background="new    ">
		<path fill="#F2231A" d="M-80.109-1137.926c0-1.891,0.359-3.586,1.082-5.086c0.721-1.5,1.527-2.503,2.418-3.008h0.047l0.203,0.57
			c-0.756,0.536-1.414,1.489-1.977,2.859s-0.844,2.917-0.844,4.641v0.156c0,1.724,0.281,3.271,0.844,4.641s1.221,2.333,1.977,2.891
			l-0.203,0.547h-0.047c-0.902-0.521-1.711-1.516-2.426-2.984c-0.717-1.469-1.074-3.172-1.074-5.109V-1137.926z"/>
		<path fill="#F2231A" d="M-67.445-1141.332h-0.766l-0.133-1.609c-0.281-0.354-0.664-0.632-1.148-0.832s-1.053-0.301-1.703-0.301
			c-0.938,0-1.668,0.203-2.191,0.609s-0.785,0.911-0.785,1.516c0,0.573,0.234,1.051,0.707,1.434c0.471,0.383,1.287,0.72,2.449,1.012
			c1.223,0.312,2.154,0.734,2.793,1.266c0.637,0.531,0.957,1.231,0.957,2.102c0,0.906-0.371,1.628-1.109,2.164
			c-0.74,0.536-1.686,0.805-2.836,0.805c-0.812,0-1.566-0.144-2.262-0.43s-1.266-0.695-1.707-1.227v-1.992h0.766l0.133,1.664
			c0.344,0.391,0.783,0.688,1.32,0.891c0.535,0.203,1.119,0.305,1.75,0.305c0.895,0,1.621-0.198,2.176-0.594s0.832-0.919,0.832-1.57
			c0-0.62-0.232-1.126-0.695-1.52c-0.465-0.394-1.271-0.741-2.422-1.043c-1.246-0.312-2.188-0.719-2.828-1.219
			s-0.961-1.175-0.961-2.023c0-0.87,0.363-1.578,1.094-2.125c0.729-0.547,1.668-0.82,2.82-0.82c0.828,0,1.566,0.144,2.215,0.43
			s1.16,0.675,1.535,1.164V-1141.332z"/>
		<path fill="#F2231A" d="M-65.742-1137.684c0-1.245,0.34-2.266,1.023-3.062c0.682-0.797,1.586-1.195,2.711-1.195
			c1.129,0,2.035,0.398,2.719,1.195c0.682,0.797,1.023,1.817,1.023,3.062v0.258c0,1.25-0.34,2.272-1.02,3.066
			s-1.582,1.191-2.707,1.191c-1.137,0-2.045-0.397-2.727-1.191c-0.684-0.794-1.023-1.816-1.023-3.066V-1137.684z M-64.804-1137.426
			c0,0.979,0.246,1.802,0.742,2.469c0.494,0.667,1.184,1,2.07,1c0.869,0,1.551-0.333,2.047-1c0.494-0.667,0.742-1.489,0.742-2.469
			v-0.258c0-0.964-0.25-1.781-0.746-2.453c-0.498-0.672-1.184-1.008-2.059-1.008s-1.561,0.336-2.055,1.008
			c-0.496,0.672-0.742,1.489-0.742,2.453V-1137.426z"/>
		<path fill="#F2231A" d="M-48.914-1141.332h-0.766l-0.133-1.609c-0.281-0.354-0.664-0.632-1.148-0.832s-1.053-0.301-1.703-0.301
			c-0.938,0-1.668,0.203-2.191,0.609s-0.785,0.911-0.785,1.516c0,0.573,0.234,1.051,0.707,1.434c0.471,0.383,1.287,0.72,2.449,1.012
			c1.223,0.312,2.154,0.734,2.793,1.266c0.637,0.531,0.957,1.231,0.957,2.102c0,0.906-0.371,1.628-1.109,2.164
			c-0.74,0.536-1.686,0.805-2.836,0.805c-0.812,0-1.566-0.144-2.262-0.43s-1.266-0.695-1.707-1.227v-1.992h0.766l0.133,1.664
			c0.344,0.391,0.783,0.688,1.32,0.891c0.535,0.203,1.119,0.305,1.75,0.305c0.895,0,1.621-0.198,2.176-0.594s0.832-0.919,0.832-1.57
			c0-0.62-0.232-1.126-0.695-1.52c-0.465-0.394-1.271-0.741-2.422-1.043c-1.246-0.312-2.188-0.719-2.828-1.219
			s-0.961-1.175-0.961-2.023c0-0.87,0.363-1.578,1.094-2.125c0.729-0.547,1.668-0.82,2.82-0.82c0.828,0,1.566,0.144,2.215,0.43
			s1.16,0.675,1.535,1.164V-1141.332z"/>
		<path fill="#F2231A" d="M-43.484-1133.168c-1.062,0-1.943-0.39-2.641-1.168c-0.699-0.778-1.047-1.77-1.047-2.973v-0.43
			c0-1.208,0.348-2.211,1.043-3.008s1.535-1.195,2.52-1.195c1.035,0,1.852,0.328,2.445,0.984s0.891,1.531,0.891,2.625v0.797h-5.969
			v0.227c0,0.948,0.254,1.743,0.762,2.387s1.172,0.965,1.996,0.965c0.578,0,1.072-0.081,1.484-0.242
			c0.41-0.161,0.762-0.394,1.055-0.695l0.398,0.641c-0.318,0.333-0.719,0.598-1.203,0.793S-42.812-1133.168-43.484-1133.168z
			 M-43.609-1141.145c-0.688,0-1.268,0.265-1.738,0.793c-0.473,0.528-0.746,1.191-0.824,1.988l0.016,0.039h4.953v-0.234
			c0-0.734-0.217-1.349-0.648-1.844C-42.285-1140.897-42.871-1141.145-43.609-1141.145z"/>
		<path fill="#F2231A" d="M-35.523-1137.809c0,1.938-0.361,3.641-1.082,5.109c-0.723,1.469-1.531,2.464-2.426,2.984l-0.047-0.008
			l-0.195-0.539c0.75-0.531,1.406-1.487,1.973-2.867c0.564-1.38,0.848-2.935,0.848-4.664v-0.156c0-1.714-0.289-3.265-0.863-4.652
			c-0.576-1.388-1.229-2.348-1.957-2.879l0.195-0.539l0.047-0.008c0.885,0.511,1.691,1.516,2.418,3.016s1.09,3.195,1.09,5.086
			V-1137.809z"/>
	</g>
</g>
<g transform="matrix(1,0,0,1,597,1263)">
	<path vector-effect="none" fill="none" d="M197.333-1263h173v140h-173V-1263"/>
</g>
<g transform="matrix(1,0,0,1,597,1263)">
	<path vector-effect="none" fill="none" d="M370.666-1263h173v140h-173V-1263"/>
</g>
</svg>
