<?xml version="1.0" encoding="utf-8"?>
<!-- Generator: Adobe Illustrator 16.0.4, SVG Export Plug-In . SVG Version: 6.00 Build 0)  -->
<!DOCTYPE svg PUBLIC "-//W3C//DTD SVG 1.1//EN" "http://www.w3.org/Graphics/SVG/1.1/DTD/svg11.dtd">
<svg version="1.1" id="Ebene_1" xmlns="http://www.w3.org/2000/svg" xmlns:xlink="http://www.w3.org/1999/xlink" x="0px" y="0px"
	 width="143.034px" height="70.27px" viewBox="0 0 143.034 70.27" enable-background="new 0 0 143.034 70.27" xml:space="preserve">
<g>
	<g>
		<path fill="#FFFFFF" d="M119.541,17.368c0.036,0.367,0.356,0.459,0.508,0.792c0.254,0.56,0.225,1.014,0.281,1.354
			c0.059,0.339,1.04,2.653,1.04,2.653s-0.73-1.182-0.896-1.578c-0.171-0.398-0.312-0.596-0.581-1.116
			c0.186-0.452,0.109-1.424-0.498-1.488c-0.284-0.029-0.631,0.242-0.768,0.364c-0.015,0.015-0.029,0.027-0.044,0.037l-0.015,0.012
			c0.01-0.005,0.029-0.022,0.059-0.049c0.35-0.339,0.973-1.431,0.973-1.431S119.526,17.19,119.541,17.368"/>
		<path fill="#FFFFFF" d="M139.753,35.228c-0.982,0.266-2.424,0.76-3.97,1.622c-2.807,1.561-7.593,4.438-8.853,4.472
			c-1.366,0.034-3.281-0.435-3.257-0.557c-0.005-0.01,0.083-0.083,0.337-0.029c0.978,0.083,3.587,0.015,4.568-0.615
			c1.241-0.792,3.776-2.938,4.905-3.5c1.124-0.564,4.168-2.88,5.35-2.992c1.183-0.112,2.421,1.014,2.421,1.014
			S140.622,34.879,139.753,35.228"/>
		<polygon fill="#FFFFFF" points="141.287,34.581 141.297,34.598 141.277,34.622 		"/>
		<path fill="#FFFFFF" d="M127.429,10.426c0,0,0.535,0.139,0.337,0.166c-0.195,0.032-0.396,0.398-0.677,0.652
			c-0.28,0.251-0.62,0.31-0.957,0.621c-0.338,0.31-0.309,0.168-0.364,0c-0.057-0.168,0.364-0.594,0.562-0.733
			C126.527,10.99,127.23,10.565,127.429,10.426"/>
		<path fill="#FFFFFF" d="M123.625,1.28c0.171-0.059,0.537-0.171,0.706-0.171h0.872c0.169,0,0.506,0.085,0.506,0.085
			s0.171,0.369,0.256,0.479c0.084,0.115,0.45,0.396,0.816,0.623s0.645,0.168,0.789,0.139c0.14-0.027,0.394-0.198,0.589-0.225
			c0.195-0.029,0.564-0.056,0.703-0.225c0.145-0.168,0-0.369,0-0.369s-0.251-0.31-0.476-0.449c-0.228-0.144-0.369-0.311-0.535-0.342
			c-0.169-0.027-0.311,0.198-0.506,0.059c-0.198-0.142-0.396-0.115-0.396-0.115l-0.509,0.056c0,0-0.31,0.086-0.477,0.228
			c-0.171,0.142-0.085-0.254,0-0.423c0.084-0.171,0.364-0.369,0.675-0.537c0.311-0.169,0.508,0.029,0.786-0.083
			c0.284-0.112,1.469,0.816,1.806,1.158c0.337,0.337,0.677,0.762,0.815,0.931c0.14,0.168,0.423,0.762,0.76,0.987
			c0.338,0.225,0.113,0.34-0.225,0.34c-0.337,0-0.986-0.057-1.211-0.115c-0.225-0.054-0.789-0.396-0.958-0.396
			c-0.171,0-0.929,0.142-0.929,0.286c0,0.142-0.171,0.281-0.732,0.479c-0.562,0.2-0.647-0.027-0.929-0.085
			c-0.283-0.056-0.537-0.112-0.537-0.225c0-0.112-0.14-0.339-0.532-0.396c-0.396-0.059-0.086,0.337,0.054,0.452
			c0.142,0.112,0.366,0.366,0.366,0.366s-0.591-0.283-0.76-0.283c-0.168,0,0.112,0.339,0.254,0.481
			c0.14,0.139,0.364,0.281,0.198,0.396c-0.171,0.115-0.792-0.34-0.931-0.423c-0.14-0.083-0.281-0.059-0.535-0.083
			c-0.254-0.032-0.562-0.371-0.787-0.454c-0.225-0.083-0.254-0.142-0.056-0.254c0.195-0.115,0.564,0.139,0.929,0.225
			c0.363,0.085,0.363-0.14,0.393-0.284c0.029-0.139-0.254-0.198-0.425-0.225c-0.166-0.027-0.784-0.112-1.18-0.225
			c-0.394-0.113-0.733,0.112-0.984,0.168c-0.255,0.056-0.059-0.168,0.112-0.308c0.166-0.144,0.674-0.115,1.099-0.115
			c0.421,0,0.704,0.056,1.041,0.142c0.337,0.086,0.506-0.027,0.366-0.085c-0.142-0.056-0.508-0.31-0.703-0.366
			s-0.704-0.198-0.846-0.142s-0.225-0.139-0.085-0.168c0.139-0.032,0.818,0.112,1.043,0.142c0.225,0.027,0.591,0.168,0.901,0.337
			c0.308,0.168,0.564,0.225,0.813,0.225c0.254,0,0.396-0.254,0.396-0.366s0.169-0.337,0.169-0.337s-0.081-0.086-0.364-0.086
			s-0.171,0.054-0.396,0.14c-0.225,0.088-0.394-0.086-0.479-0.225c-0.082-0.139-0.732-0.112-0.732-0.112s-0.142,0.059-0.273,0.12
			c-0.066,0.096-0.132,0.176-0.205,0.164c-0.088-0.015,0.051-0.093,0.205-0.164C123.439,1.487,123.527,1.312,123.625,1.28"/>
		<path fill="#FFFFFF" d="M130.553,1.561c0,0,0.228-0.225,0.367-0.283c0.142-0.054,0.449-0.027,0.791-0.254
			c0.337-0.225,1.404,0.142,1.827,0.2c0.425,0.054,0.816,0.112,1.664,0.251c0.843,0.142,1.912,0.594,2.562,0.818
			c0.647,0.227,2.169,1.725,2.421,1.95c0.256,0.227,0.732,0.676,0.789,0.933c0.056,0.251-0.255,0.31-0.421,0.505
			c-0.171,0.2-0.225,0.029-0.256-0.168c-0.027-0.198-0.281-0.452-0.76-0.677c-0.479-0.227-0.901-0.877-1.212-1.16
			c-0.311-0.279-0.76-0.364-1.351-0.535c-0.589-0.168-0.564,0.085-1.07,0.171c-0.508,0.085-0.901-0.481-1.126-0.649
			c-0.225-0.169-0.366-0.03-0.816,0.085c-0.451,0.112-1.016-0.171-1.016-0.171s-0.592-0.367-0.704-0.481
			c-0.112-0.112-0.505-0.112-0.505-0.112s-0.706,0.032-0.846-0.054C130.753,1.842,130.553,1.561,130.553,1.561"/>
		<path fill="#FFFFFF" d="M141.819,7.096c0,0,0.254,0.225,0.394,0.422c0.144,0.196-0.308,0.14-0.535,0
			c-0.225-0.144-0.562-0.085-0.73-0.369c-0.171-0.283-0.228-0.535,0.027-0.508C141.229,6.671,141.707,6.979,141.819,7.096"/>
		<path fill="#FFFFFF" d="M129.258,15.79l1.466-1.585c0,0,0.509-0.391,0.562-0.621c0.059-0.225-0.787,0.171-1.07,0.342
			c-0.281,0.166-1.129,0.562-1.129,0.562s1.241-0.904,1.466-1.185c0.225-0.281,0.338-0.62,0.733-0.62
			c0.394,0,1.407-0.337,1.803-0.621s0.667-0.555,0.957-0.845c0.338-0.342,0.958-1.077,0.958-1.077s-0.283,0.906-0.562,1.243
			c-0.284,0.342-1.073,1.241-1.354,1.356c-0.281,0.112-0.733,0.454-0.789,0.845c-0.057,0.396,0.112,0.679,0.394,0.679
			c0.283,0,1.185,0,1.523,0.059c0.338,0.056,1.07,0.056,1.52-0.23c0.45-0.278,0.73-0.112,1.183-0.054
			c0.132,0.017,0.234,0.054,0.296,0.103c0.015,0.005,0.031,0.007,0.041,0.01c0.509,0.171-1.014,0.848-1.354,1.128
			c-0.337,0.281-0.053,0.96-0.053,1.356c0,0.396,0,2.315-0.226,2.54c-0.225,0.225-1.353,1.3-1.746,1.524
			c-0.394,0.225-1.409,1.073-1.803,1.244c-0.394,0.166-0.901-0.227-1.126-0.567c-0.226-0.337-0.059-1.072-0.059-1.072
			s-0.055,1.185,1.128,1.128c0.454-0.02,2.536-1.805,3.098-2.653s0.396-2.653,0.225-3.22c-0.095-0.32-0.571-0.493-0.965-0.584
			c-0.369,0.013-0.921,0.113-1.339,0.184c-0.017,0.01-0.041,0.022-0.061,0.034c-0.283,0.171-0.533,0.115-0.704,0.085l-0.122-0.02
			c-0.332,0.049-0.693,0.132-0.693,0.132s-0.724-0.183-1.129-0.112C129.85,15.365,129.258,15.79,129.258,15.79"/>
		<path fill="#FFFFFF" d="M134.579,16.015c0,0-0.45,0.054-0.733,0c-0.278-0.059-0.757,0.198-0.981,0.198
			c-0.226,0-0.252-0.396-0.14-0.535c0.112-0.144,0.701-0.229,1.097-0.171C134.215,15.563,134.579,16.015,134.579,16.015"/>
		<path fill="#FFFFFF" d="M131.735,16.691c0,0,0.848,0.113,1.183,0.562c0.122,0.164-0.024,0.284-0.137,0.425
			s-0.198-0.083-0.198-0.228C132.583,17.312,131.735,16.691,131.735,16.691"/>
		<path fill="#FFFFFF" d="M132.58,17.962c0,0-0.137,0.508-0.337,0.647c-0.195,0.144-0.647,0.596-0.76,0.537
			c-0.112-0.056-0.085-0.393-0.225-0.366c-0.139,0.027-0.339,0.31-0.364,0.452c-0.031,0.139-0.368,0.31-0.312,0.139
			c0.057-0.167,0.2-0.735,0.2-0.735l-0.088-0.334l0.367,0.056l0.225-0.256c0,0-0.027,0.481,0.085,0.535
			c0.112,0.059,0.198,0,0.477-0.11C132.131,18.412,132.58,17.962,132.58,17.962"/>
		<path fill="#FFFFFF" d="M130.421,19.45c-0.059,0.046-0.22,0.159-0.4,0.095c-0.225-0.085-0.283-0.369-0.312-0.567
			c-0.024-0.198-0.083-0.452-0.308-0.593c-0.225-0.14-0.172-0.311-0.284-0.452c-0.112-0.139-0.085-0.535-0.029-0.706
			c0.057-0.166,0.396,0.085,0.284,0.283c-0.113,0.198-0.143,0.14,0.029,0.367c0.171,0.227,0.308-0.142,0.479-0.168
			c0.168-0.027,0.394-0.284,0.42-0.452c0.029-0.168,0.703-0.366,0.703-0.366s-0.479,0.706-0.617,0.931
			c-0.142,0.225-0.394,0.564-0.394,0.677c0,0.115-0.112,0.679,0.112,0.877C130.272,19.521,130.377,19.479,130.421,19.45"/>
		<path fill="#FFFFFF" d="M128.244,15.309c0,0,0.338,0.31,0.338,0.479c0,0.171-0.027,0.254,0.085,0.34
			c0.112,0.083,0.254,0.281,0.225,0.452c-0.026,0.167-0.026,0.311-0.026,0.311s-0.115-0.311-0.198-0.45
			c-0.085-0.144-0.366-0.481-0.366-0.481s-0.228-0.142-0.254-0.34C128.018,15.421,128.244,15.309,128.244,15.309"/>
		<path fill="#FFFFFF" d="M127.429,12.993c0.015-0.486,0.137-0.667,0.369-0.538c0.142,0.09,0.356,0.76,0.391,0.792
			c0.112,0.112,0.166,0.484,0.166,0.677c0,0.198-0.477,0.594-0.645,0.652c-0.169,0.054-0.621,0.054-0.901-0.059
			c-0.281-0.112-0.677-0.787-0.677-0.787s0.308,0.166,0.479,0.305c0.171,0.145,0.366,0.198,0.76,0.145
			c0.396-0.059,0.369-0.369,0.452-0.65C127.905,13.247,127.429,12.993,127.429,12.993"/>
		<path fill="#FFFFFF" d="M126.527,8.704c0,0,0.142,0.281,0.396,0.396c0.252,0.113,0.423,0.113,0.591,0.168
			c0.169,0.057,1.012,0.196,1.012,0.196s-0.931,0.229-1.124,0.229c-0.2,0-0.815,0-0.848-0.171c-0.026-0.171,0.198-0.284,0.145-0.396
			C126.64,9.011,126.527,8.704,126.527,8.704"/>
		<path fill="#FFFFFF" d="M122.022,2.042c0,0,0.308,0,0.532,0.027c0.226,0.029,0.479,0.254,0.479,0.254s-0.308-0.029-0.562-0.029
			c-0.254,0-0.449-0.083-0.449-0.083V2.042z"/>
		<path fill="#FFFFFF" d="M142.665,8.278c0.393,1.468,0.605,3.896-0.059,6.239c-0.538,1.917-1.965,3.732-2.814,4.798
			c-0.982,1.355-1.957,2.79-2.149,3.398c-0.26,0.799-1.059,3.562,0,5.562c1.211,2.296,2.232,4.067,2.88,5.128
			c-0.691-1.021-2.6-2.296-3.831-4.629c-1.055-2.003-0.537-6.767-0.28-7.565c0.107-0.325,0.63-0.645,1.3-1.016
			c0.088-0.063,0.249-0.174,0.417-0.425c0.311-0.452,0.481-0.647,1.073-1.016c0.591-0.366,1.04-1.524,1.265-1.666
			c0.229-0.139,0.481-0.195,0.706-0.364c0.228-0.171,0.735-1.568,1.041-2.626C142.841,11.909,142.665,8.278,142.665,8.278"/>
		<path fill="#FFFFFF" d="M127.006,6.698c0,0-0.41,0.254-0.449,0.398c-0.112,0.393-0.112,1.07-0.112,1.07s-0.283-0.166-0.342-0.62
			C126.049,7.096,127.006,6.698,127.006,6.698"/>
		<path fill="#FFFFFF" d="M133.99,16.577c0,0,0.396,0.848-0.34,1.864c-0.439,0.615-1.07,1.131-1.182,0.845
			c-0.113-0.279,0.788-1.012,1.126-1.297C133.934,17.708,133.99,16.577,133.99,16.577"/>
		<path fill="#FFFFFF" d="M127.455,8.334c0,0,0.452-0.112,1.241-0.225c0.787-0.112,0.899,0.284,1.241,0.34
			c0.337,0.056,0.562-0.056,1.064-0.115c0.509-0.056,1.862-0.449,1.862-0.449s-1.241,0.901-1.52,1.016
			c-0.283,0.11-1.354,0.45-1.69,0.508c-0.342,0.054-0.621-0.225-0.621-0.225l0.392-0.508c0,0-0.787,0.054-1.181,0.054
			C127.852,8.73,127.455,8.334,127.455,8.334"/>
		<path fill="#FFFFFF" d="M133.201,6.021l-1.407,0.789c0,0-0.562,0.342-0.903,0.396c-0.338,0.059-0.729,0-1.236,0.059
			c-0.508,0.056-0.904,0.281-1.466,0.337c-0.562,0.059-0.281-0.171,0.056-0.396c0.34-0.225,1.352-0.283,1.581-0.396
			c0.225-0.112,1.065-0.279,1.52-0.279C131.794,6.532,133.201,6.021,133.201,6.021"/>
		<path fill="#FFFFFF" d="M121.713,14.574c-0.226-0.056-0.509-0.254-0.648-0.281c-0.266-0.054,0.055,0.535,0.14,0.677
			c0.086,0.144,0.047,0.203,0.186,0.203c0.142,0,0.415-0.164,0.558-0.164c0.139,0,0.892-0.069,0.95-0.154
			C122.951,14.771,121.938,14.63,121.713,14.574 M123.146,3.112c0,0-0.42-0.083-0.646-0.027c-0.225,0.056-0.366,0.115-0.563,0.027
			c-0.149-0.061-0.169,0.005-0.232,0.063c0.186,0.156,0.371,0.416,0.483,0.645c0.142,0.281,0.509,0.647,0.709,0.845
			c0.192,0.198,0.166,0.481,0.166,0.481s-0.479,0.352-0.846,0.718c-0.366,0.366-0.903,1.441-1.043,1.891
			c-0.14,0.452-0.34,1.864-0.42,2.286c-0.086,0.425-0.171,1.271-0.34,1.723c-0.168,0.454-0.153,0.879-0.029,1.258
			c0.086,0.254,0.311,0.195,0.311,0.195s0,0.311,0.085,0.455c0.086,0.139,0.423,0.168,0.423,0.168s0.057,0.227,0.225,0.34
			c0.171,0.112,1.072,0.168,1.437,0.31c0.369,0.139,0.481-0.029,0.733-0.198c0.251-0.171,0.618,0.281,0.618,0.281
			s-0.255,0.281-0.592,0.31c-0.674,0.056-2.281,0.508-2.281,0.508s-0.309,0.112-0.338,0.283c-0.026,0.168,0.284,0.112,0.338,0.225
			c0.059,0.115,0.312,0.508,0.396,0.735c0.085,0.225,0.732,0.195,0.537,0.31c-0.2,0.112-0.508,0.027-0.903-0.2
			c-0.394-0.225-0.142-0.621-0.254-0.73c-0.113-0.115-0.14-0.115-0.252-0.085s-0.228-0.115-0.423-0.086
			c-0.197,0.029-0.112-0.366-0.112-0.366s0.308-0.31,0.479-0.508c0.166-0.198-0.029-0.34-0.088-0.535
			c-0.049-0.186-0.435-0.203-0.63-0.088c-0.029,0.11,0.02,0.21-0.017,0.283c-0.169,0.34-0.927,1.072-1.127,1.243
			c-0.078,0.071-0.864,1.051-1.011,1.214c-0.284,0.31-0.733,0.845-0.875,1.158c-0.142,0.311-0.068,0.704,0.015,0.931
			c0.083,0.225,0.464,0.169,1.111,0.281s0.621,0.396,1.437,0.144c0,0-0.237,0.308-0.423,0.589c0.059,0.171,0.035,0.508-0.28,0.989
			c-0.146,0.222-0.423,0.425-0.423,0.425l-0.269,0.239l0.015,0.154c0,0,0.114,0.168,0.283,0.396
			c0.169,0.228,1.241-0.056,1.241-0.056l0.112,0.254c0,0-0.244-0.139-0.425-0.056c-0.641,0.105-0.924,0.474-0.958,0.647
			c-0.059,0.313,0.366,0.398,0.562,0.34c0.384,0,0.145,1.211,1.48,1.449c-0.403-0.039-1.438-0.096-1.731,0.3
			c-0.394,0.538-0.198,1.104,0.339,1.612c0.533,0.505,1.823,0.356,2.365,0.618c1.52,0.738,4.362,1.781,7.572-1.945
			c-1.123,2.255-3.155,3.09-4.235,3.623c0.059,0.415,0.049,1.282,0.239,1.712c0.225,0.505,0.112,2.538,0.169,3.19
			c0.056,0.647-0.225,1.595-0.225,2.357c0,0.763-0.691,4.384-1.073,4.384c-0.015,0-0.266,0-0.288-0.059
			c0-0.039,0.244-0.566,0.347-0.801c0.157-0.348,0.45-2.594,0.45-3.355v-0.008c0.005-0.759,0.225-1.59,0.168-2.24
			c-0.056-0.647,0.057-2.68-0.168-3.188s-0.338-1.385-0.45-1.637c-0.114-0.254-1.238-0.96-1.832-1.072
			c-0.589-0.112-2.813-0.792-3.352-1.3c-0.225-0.215-0.376-0.457-0.444-0.704c-0.096-0.334-0.034-0.681,0.193-0.989
			c0.061-0.083,0.117-0.151,0.173-0.22l-0.07,0.066c0.295-0.479,0.305-0.916,0.178-1.144c-0.056-0.1-0.122-0.188-0.186-0.259
			c-0.104-0.098-0.181-0.168-0.181-0.168s-0.239-0.159-0.2-0.455l0.005-0.024c0.056-0.31,0.254-0.508,0.254-0.508
			s-0.01-0.007-0.029-0.024c-0.051-0.044-0.159-0.149-0.283-0.313c-0.169-0.225-0.169-0.369-0.169-0.369l0.008-0.015l0.034-0.09
			l0.103-0.259c0,0,0.251-0.256,0.391-0.481c0.142-0.225,0.281-0.481,0.225-0.65c-0.056-0.168-0.056-0.31-0.056-0.31
			s-0.309-0.369-0.955-0.481c-0.65-0.112-0.958-0.337-1.046-0.562c-0.081-0.227-0.166-0.398-0.024-0.708
			c0.137-0.311,0.62-1.073,0.898-1.38c0.284-0.312,0.846-1.216,1.044-1.383c0.195-0.171,0.779-0.896,0.952-1.238
			c0.176-0.349,0.2-0.884,0.145-1.278c-0.057-0.393-0.14-0.928,0.029-1.382c0.171-0.45,0.479-1.354,0.562-1.776
			c0.086-0.425,0.337-1.835,0.481-2.287c0.139-0.452,0.677-1.527,1.041-1.893c0.368-0.369,0.874-0.674,0.874-0.674
			s0.027-0.286-0.169-0.481c-0.2-0.198-0.396-0.569-0.537-0.848c-0.112-0.225-0.298-0.489-0.479-0.64
			c-0.098,0.012-0.205-0.073-0.315-0.164c-0.08-0.024-0.124-0.039-0.129-0.098c-0.174-0.115,0.334-0.115,0.446-0.144
			c0.113-0.027,0.477-0.056,0.789-0.056C122.697,2.775,123.146,3.112,123.146,3.112"/>
		<path fill-rule="evenodd" clip-rule="evenodd" fill="#FFFFFF" d="M7.967,56.008l-2.94-9.136H3.044L0,56.008h1.764l0.652-2.159
			h3.083l0.6,2.159H7.967z M5.12,52.476H2.781l1.216-4.074h0.024L5.12,52.476z"/>
		<rect x="9.144" y="46.188" fill="#FFFFFF" width="1.737" height="9.82"/>
		<path fill-rule="evenodd" clip-rule="evenodd" fill="#FFFFFF" d="M17.697,53.126V52.5c0-1.91-0.926-3.366-2.742-3.366
			c-1.856,0-2.862,1.505-2.862,3.483c0,1.925,0.85,3.532,3.11,3.522c0.81,0,1.581-0.186,2.129-0.396l-0.053-1.319
			c-0.483,0.259-1.161,0.538-1.764,0.538c-1.043,0-1.723-0.523-1.749-1.837H17.697z M16.079,52.08H13.74
			c0.012-1.246,0.523-1.803,1.201-1.803c0.772,0,1.139,0.532,1.139,1.686V52.08z"/>
		<polygon fill="#FFFFFF" points="24.688,56.008 22.649,52.407 24.544,49.251 22.74,49.251 21.658,51.386 20.599,49.251 
			18.691,49.251 20.547,52.393 18.496,56.008 20.324,56.008 21.54,53.561 22.754,56.008 		"/>
		<path fill-rule="evenodd" clip-rule="evenodd" fill="#FFFFFF" d="M31.143,56.008c-0.04-0.327-0.064-0.801-0.064-1.271v-3.204
			c0-1.036-0.328-2.399-2.614-2.399c-0.888,0-1.659,0.21-2.207,0.498l0.093,1.363c0.443-0.366,1.136-0.669,1.842-0.669
			c1.03,0,1.318,0.576,1.318,1.207v0.259h-0.628c-2.324,0-3.317,0.874-3.317,2.291c0,1.295,0.835,2.057,1.998,2.057
			c0.901,0,1.451-0.42,1.947-1.05h0.012c0,0.161,0.065,0.762,0.081,0.918H31.143z M29.51,53.248c0,0.781-0.365,1.71-1.384,1.71
			c-0.615,0-0.968-0.338-0.968-0.997c0-0.781,0.652-1.256,1.829-1.256c0.146,0,0.445,0,0.523,0.02V53.248z"/>
		<path fill="#FFFFFF" d="M38.381,56.008v-4.715c0-1.476-0.848-2.159-2.011-2.159c-1.045,0-1.554,0.631-1.804,1.192h-0.024
			c0-0.195-0.028-0.929-0.041-1.075h-1.646c0.028,0.396,0.065,0.919,0.065,1.417v5.34h1.739v-3.874c0-0.958,0.405-1.568,1.123-1.568
			c0.575,0,0.875,0.391,0.875,1.236v4.206H38.381z"/>
		<path fill-rule="evenodd" clip-rule="evenodd" fill="#FFFFFF" d="M45.88,56.008c-0.012-0.405-0.053-0.811-0.053-1.216v-8.604
			h-1.723v2.673c0,0.259,0.012,1.202,0.024,1.349h-0.024c-0.458-0.748-0.954-1.075-1.79-1.075c-1.542,0-2.366,1.466-2.366,3.42
			c0,2.184,0.838,3.557,2.432,3.557c0.822,0,1.383-0.415,1.776-1.152h0.024c0,0.195,0.041,0.869,0.053,1.05H45.88z M44.104,52.603
			c0,1.402-0.394,2.229-1.188,2.229c-0.85,0-1.188-0.826-1.188-2.229c0-1.397,0.338-2.223,1.188-2.223
			C43.711,50.38,44.104,51.205,44.104,52.603"/>
		<path fill-rule="evenodd" clip-rule="evenodd" fill="#FFFFFF" d="M52.763,53.126V52.5c0-1.91-0.928-3.366-2.744-3.366
			c-1.854,0-2.859,1.505-2.859,3.483c0,1.925,0.848,3.532,3.106,3.522c0.811,0,1.582-0.186,2.129-0.396l-0.053-1.319
			c-0.482,0.259-1.16,0.538-1.761,0.538c-1.045,0-1.726-0.523-1.75-1.837H52.763z M51.142,52.08h-2.339
			c0.016-1.246,0.523-1.803,1.203-1.803c0.771,0,1.136,0.532,1.136,1.686V52.08z"/>
		<path fill="#FFFFFF" d="M58.015,50.731v-1.583c-0.065-0.015-0.146-0.015-0.198-0.015c-1.043,0-1.542,0.552-1.814,1.217h-0.027
			c0-0.195-0.025-0.953-0.038-1.095h-1.646c0.026,0.391,0.066,0.978,0.066,1.71v5.042h1.735v-3.454c0-1.183,0.563-1.886,1.358-1.886
			C57.662,50.668,57.898,50.692,58.015,50.731"/>
		<polygon fill="#FFFFFF" points="68.328,49.251 66.604,49.251 65.283,54.386 65.258,54.386 63.939,49.251 62.099,49.251 
			64.187,56.008 66.239,56.008 		"/>
		<path fill-rule="evenodd" clip-rule="evenodd" fill="#FFFFFF" d="M75.066,52.632c0-1.964-0.914-3.498-3.03-3.498
			c-2.129,0-3.029,1.534-3.029,3.498c0,1.974,0.9,3.508,3.029,3.508C74.152,56.14,75.066,54.605,75.066,52.632 M73.265,52.632
			c0,1.334-0.312,2.253-1.229,2.253c-0.929,0-1.228-0.919-1.228-2.253c0-1.324,0.299-2.252,1.228-2.252
			C72.952,50.38,73.265,51.308,73.265,52.632"/>
		<path fill="#FFFFFF" d="M82.146,56.008v-4.715c0-1.476-0.851-2.159-2.013-2.159c-1.046,0-1.554,0.631-1.803,1.192h-0.024
			c0-0.195-0.029-0.929-0.039-1.075H76.62c0.026,0.396,0.063,0.919,0.063,1.417v5.34h1.739v-3.874c0-0.958,0.405-1.568,1.124-1.568
			c0.576,0,0.874,0.391,0.874,1.236v4.206H82.146z"/>
		<polygon fill="#FFFFFF" points="93.622,56.008 93.622,46.872 91.819,46.872 91.819,50.575 89.271,50.575 89.271,46.872 
			87.471,46.872 87.471,56.008 89.271,56.008 89.271,52.026 91.819,52.026 91.819,56.008 		"/>
		<path fill="#FFFFFF" d="M101.07,56.008c-0.027-0.327-0.066-0.786-0.066-1.285v-5.472h-1.722v3.982
			c0,0.864-0.354,1.465-1.124,1.465c-0.589,0-0.877-0.381-0.877-1.24v-4.207h-1.736v4.715c0,1.495,0.85,2.174,2.015,2.174
			c1.056,0,1.563-0.64,1.798-1.206h0.029c0,0.195,0.025,0.928,0.049,1.074H101.07z"/>
		<path fill="#FFFFFF" d="M111.797,56.008v-4.764c0-1.47-0.85-2.11-1.974-2.11c-0.862,0-1.427,0.41-1.827,1.085
			c-0.381-0.797-0.992-1.085-1.715-1.085c-1.031,0-1.539,0.631-1.789,1.192h-0.023c0-0.195-0.027-0.929-0.039-1.075h-1.646
			c0.026,0.356,0.063,0.88,0.063,1.456v5.301h1.739V52.08c0-0.953,0.352-1.515,1.043-1.515c0.55,0,0.838,0.352,0.838,1.109v4.333
			h1.725v-4.03c0-0.851,0.288-1.412,1.03-1.412c0.562,0,0.851,0.352,0.851,1.109v4.333H111.797z"/>
		<path fill-rule="evenodd" clip-rule="evenodd" fill="#FFFFFF" d="M119.517,52.554c0-1.954-0.836-3.42-2.365-3.42
			c-0.838,0-1.334,0.327-1.788,1.075h-0.029c0.015-0.146,0.029-1.09,0.029-1.349v-2.673h-1.739v8.604
			c0,0.405-0.024,0.811-0.054,1.216h1.661c0.015-0.181,0.052-0.854,0.052-1.05h0.026c0.391,0.737,0.943,1.152,1.778,1.152
			C118.666,56.11,119.517,54.737,119.517,52.554 M117.738,52.603c0,1.402-0.338,2.229-1.188,2.229c-0.797,0-1.188-0.826-1.188-2.229
			c0-1.397,0.391-2.223,1.188-2.223C117.4,50.38,117.738,51.205,117.738,52.603"/>
		<path fill-rule="evenodd" clip-rule="evenodd" fill="#FFFFFF" d="M126.397,52.632c0-1.964-0.916-3.498-3.031-3.498
			c-2.13,0-3.029,1.534-3.029,3.498c0,1.974,0.899,3.508,3.029,3.508C125.481,56.14,126.397,54.605,126.397,52.632 M124.593,52.632
			c0,1.334-0.313,2.253-1.227,2.253c-0.929,0-1.229-0.919-1.229-2.253c0-1.324,0.3-2.252,1.229-2.252
			C124.279,50.38,124.593,51.308,124.593,52.632"/>
		<rect x="127.504" y="46.188" fill="#FFFFFF" width="1.74" height="9.82"/>
		<path fill-rule="evenodd" clip-rule="evenodd" fill="#FFFFFF" d="M136.23,56.008c-0.013-0.405-0.054-0.811-0.054-1.216v-8.604
			h-1.723v2.673c0,0.259,0.013,1.202,0.024,1.349h-0.024c-0.457-0.748-0.955-1.075-1.79-1.075c-1.542,0-2.365,1.466-2.365,3.42
			c0,2.184,0.838,3.557,2.434,3.557c0.82,0,1.383-0.415,1.773-1.152h0.026c0,0.195,0.039,0.869,0.052,1.05H136.23z M134.454,52.603
			c0,1.402-0.394,2.229-1.189,2.229c-0.851,0-1.189-0.826-1.189-2.229c0-1.397,0.339-2.223,1.189-2.223
			C134.061,50.38,134.454,51.205,134.454,52.603"/>
		<path fill="#FFFFFF" d="M141.637,55.969l-0.027-1.246c-0.159,0.079-0.364,0.133-0.615,0.133c-0.457,0-0.729-0.26-0.729-0.929
			v-3.415h1.344v-1.256h-1.344v-1.93l-1.727,0.527v1.402h-1.122v1.256h1.122v3.82c0,1.231,0.705,1.808,1.856,1.808
			C140.891,56.14,141.36,56.047,141.637,55.969"/>
		<path fill-rule="evenodd" clip-rule="evenodd" fill="#FFFFFF" d="M51.191,65.716c0-0.884-0.396-1.554-1.584-2.237
			c-1.101-0.641-1.297-0.953-1.297-1.446c0-0.65,0.473-1.148,1.198-1.148c0.473,0,0.945,0.137,1.308,0.352v-0.933
			c-0.34-0.142-0.878-0.254-1.386-0.254c-1.165,0-2.134,0.664-2.134,1.93c0,0.991,0.311,1.466,1.694,2.301
			c1.034,0.631,1.187,0.973,1.187,1.568c0,0.631-0.495,1.212-1.363,1.212c-0.45,0-1.022-0.229-1.463-0.493v1.001
			c0.408,0.2,0.99,0.327,1.606,0.327C50.433,67.895,51.191,66.938,51.191,65.716"/>
		<path fill="#FFFFFF" d="M55.146,67.753v-0.747c-0.176,0.078-0.341,0.142-0.573,0.142c-0.418,0-0.584-0.244-0.584-0.88v-3.322
			h1.157v-0.747h-1.157v-1.422l-0.922,0.278v1.144h-0.891v0.747h0.891v3.621c0,0.991,0.449,1.328,1.298,1.328
			C54.617,67.895,54.925,67.831,55.146,67.753"/>
		<path fill-rule="evenodd" clip-rule="evenodd" fill="#FFFFFF" d="M57.948,60.498c0-0.317-0.253-0.571-0.571-0.571
			c-0.308,0-0.563,0.254-0.563,0.571c0,0.322,0.255,0.566,0.563,0.566C57.695,61.064,57.948,60.82,57.948,60.498 M57.85,62.198
			h-0.926v5.618h0.926V62.198z"/>
		<path fill-rule="evenodd" clip-rule="evenodd" fill="#FFFFFF" d="M62.324,60.303v-0.797c-0.21-0.054-0.473-0.083-0.726-0.083
			c-0.98,0-1.398,0.602-1.398,1.52v1.256H59.31v0.747H60.2v4.876h0.926v-4.876h1.01v-0.747h-1.01v-1.178
			c0-0.562,0.153-0.85,0.671-0.85C62.017,60.171,62.214,60.215,62.324,60.303"/>
		<path fill="#FFFFFF" d="M65.885,67.753v-0.747c-0.176,0.078-0.341,0.142-0.573,0.142c-0.418,0-0.583-0.244-0.583-0.88v-3.322
			h1.155v-0.747h-1.155v-1.422l-0.924,0.278v1.144h-0.89v0.747h0.89v3.621c0,0.991,0.451,1.328,1.299,1.328
			C65.357,67.895,65.665,67.831,65.885,67.753"/>
		<path fill-rule="evenodd" clip-rule="evenodd" fill="#FFFFFF" d="M71.448,67.821c-0.033-0.366-0.045-0.806-0.045-1.289v-4.334
			h-0.924v3.386c0,1.012-0.459,1.52-1.187,1.52c-0.593,0-0.923-0.386-0.923-1.275v-3.63h-0.923v3.898
			c0,1.236,0.658,1.803,1.639,1.803c0.647,0,1.12-0.278,1.418-0.918h0.01l0.036,0.84H71.448z"/>
		<path fill="#FFFFFF" d="M77.338,67.821v-3.903c0-1.236-0.659-1.798-1.639-1.798c-0.647,0-1.121,0.273-1.418,0.914h-0.023
			l-0.032-0.836h-0.89c0.021,0.386,0.041,0.806,0.041,1.212v4.411h0.926v-3.386c0-1.016,0.461-1.524,1.188-1.524
			c0.591,0,0.924,0.392,0.924,1.28v3.63H77.338z"/>
		<path fill-rule="evenodd" clip-rule="evenodd" fill="#FFFFFF" d="M83.152,62.198h-0.892l-0.032,0.796h-0.015
			c-0.293-0.518-0.82-0.874-1.385-0.874c-1.253,0-2.035,0.947-2.035,2.888c0,1.944,0.782,2.892,1.938,2.892
			c0.615,0,1.111-0.308,1.473-0.947h0.024v0.879c0,0.968-0.439,1.642-1.573,1.642c-0.508,0-1.144-0.22-1.539-0.483l-0.046,0.934
			c0.408,0.166,1.165,0.347,1.639,0.347c1.231,0,2.399-0.65,2.399-2.208V63.41C83.108,63.004,83.13,62.516,83.152,62.198
			 M82.183,65.008c0,1.411-0.384,2.14-1.229,2.14c-0.85,0-1.235-0.729-1.235-2.14c0-1.412,0.386-2.136,1.235-2.136
			C81.799,62.872,82.183,63.596,82.183,65.008"/>
		<polygon fill="#FFFFFF" points="88.341,60.049 87.527,60.049 85.492,67.899 86.306,67.899 		"/>
		<polygon fill="#FFFFFF" points="94.276,60.962 94.276,60.127 90.842,60.127 90.842,67.821 91.812,67.821 91.812,64.25 
			94.154,64.25 94.154,63.41 91.812,63.41 91.812,60.962 		"/>
		<path fill-rule="evenodd" clip-rule="evenodd" fill="#FFFFFF" d="M100.024,65.008c0-1.764-0.77-2.888-2.255-2.888
			c-1.484,0-2.257,1.124-2.257,2.888s0.772,2.892,2.257,2.892C99.255,67.899,100.024,66.771,100.024,65.008 M99.055,65.008
			c0,1.411-0.402,2.14-1.285,2.14c-0.879,0-1.287-0.729-1.287-2.14c0-1.412,0.408-2.136,1.287-2.136
			C98.652,62.872,99.055,63.596,99.055,65.008"/>
		<path fill-rule="evenodd" clip-rule="evenodd" fill="#FFFFFF" d="M105.533,67.821c-0.034-0.366-0.044-0.806-0.044-1.289v-4.334
			h-0.923v3.386c0,1.012-0.465,1.52-1.19,1.52c-0.593,0-0.921-0.386-0.921-1.275v-3.63h-0.928v3.898
			c0,1.236,0.662,1.803,1.642,1.803c0.649,0,1.121-0.278,1.419-0.918h0.01l0.032,0.84H105.533z"/>
		<path fill="#FFFFFF" d="M111.421,67.821v-3.903c0-1.236-0.66-1.798-1.637-1.798c-0.647,0-1.124,0.273-1.417,0.914h-0.024
			l-0.032-0.836h-0.892c0.02,0.386,0.044,0.806,0.044,1.212v4.411h0.924v-3.386c0-1.016,0.462-1.524,1.189-1.524
			c0.594,0,0.921,0.392,0.921,1.28v3.63H111.421z"/>
		<path fill-rule="evenodd" clip-rule="evenodd" fill="#FFFFFF" d="M117.234,67.821c-0.031-0.439-0.041-0.84-0.041-1.035v-7.231
			h-0.926v3.381h-0.022c-0.329-0.547-0.789-0.815-1.429-0.815c-1.155,0-1.935,0.947-1.935,2.888c0,1.944,0.779,2.892,1.935,2.892
			c0.813,0,1.23-0.464,1.476-0.903h0.02l0.02,0.825H117.234z M116.268,65.008c0,1.411-0.387,2.14-1.231,2.14
			c-0.848,0-1.231-0.729-1.231-2.14c0-1.412,0.384-2.136,1.231-2.136C115.881,62.872,116.268,63.596,116.268,65.008"/>
		<path fill-rule="evenodd" clip-rule="evenodd" fill="#FFFFFF" d="M122.865,67.821c-0.021-0.2-0.046-0.527-0.046-0.859v-2.937
			c0-0.791-0.242-1.134-0.481-1.378c-0.179-0.176-0.672-0.527-1.498-0.527c-0.549,0-1.123,0.166-1.585,0.464l0.101,0.87
			c0.319-0.352,0.869-0.582,1.44-0.582c0.387,0,0.748,0.098,0.937,0.353c0.173,0.244,0.207,0.483,0.207,0.903v0.254h-0.537
			c-1.925,0-2.639,0.802-2.639,1.896c0,1.08,0.691,1.617,1.615,1.617c0.857,0,1.316-0.405,1.573-0.835h0.02l0.056,0.762H122.865z
			 M121.939,65.77c0,0.772-0.506,1.422-1.31,1.422c-0.638,0-0.942-0.386-0.942-0.982c0-0.649,0.518-1.167,1.603-1.167
			c0.254,0,0.483,0,0.649,0.02V65.77z"/>
		<path fill="#FFFFFF" d="M127.152,67.753v-0.747c-0.176,0.078-0.342,0.142-0.571,0.142c-0.42,0-0.587-0.244-0.587-0.88v-3.322
			h1.158v-0.747h-1.158v-1.422l-0.92,0.278v1.144h-0.893v0.747h0.893v3.621c0,0.991,0.449,1.328,1.297,1.328
			C126.625,67.895,126.933,67.831,127.152,67.753"/>
		<path fill-rule="evenodd" clip-rule="evenodd" fill="#FFFFFF" d="M129.734,60.498c0-0.317-0.251-0.571-0.574-0.571
			c-0.308,0-0.559,0.254-0.559,0.571c0,0.322,0.251,0.566,0.559,0.566C129.483,61.064,129.734,60.82,129.734,60.498 M129.637,62.198
			h-0.926v5.618h0.926V62.198z"/>
		<path fill-rule="evenodd" clip-rule="evenodd" fill="#FFFFFF" d="M135.385,65.008c0-1.764-0.767-2.888-2.252-2.888
			s-2.258,1.124-2.258,2.888s0.772,2.892,2.258,2.892S135.385,66.771,135.385,65.008 M134.418,65.008c0,1.411-0.406,2.14-1.285,2.14
			c-0.88,0-1.29-0.729-1.29-2.14c0-1.412,0.41-2.136,1.29-2.136C134.012,62.872,134.418,63.596,134.418,65.008"/>
		<path fill="#FFFFFF" d="M140.632,67.821v-3.903c0-1.236-0.659-1.798-1.642-1.798c-0.645,0-1.118,0.273-1.416,0.914h-0.025
			l-0.029-0.836h-0.889c0.02,0.386,0.041,0.806,0.041,1.212v4.411h0.922v-3.386c0-1.016,0.464-1.524,1.189-1.524
			c0.596,0,0.923,0.392,0.923,1.28v3.63H140.632z"/>
	</g>
</g>
</svg>
