<?xml version="1.0" standalone="no"?>
<!DOCTYPE svg PUBLIC "-//W3C//DTD SVG 1.1//EN" "http://www.w3.org/Graphics/SVG/1.1/DTD/svg11.dtd">
<svg xmlns="http://www.w3.org/2000/svg"><metadata>This SVG WebFont was generated by YouWorkForThem.
Copyright (c) 2014 by B\u0142 a\u017C ej Ostoja Lniski. All rights reserved.</metadata><defs><font horiz-adv-x="1052" id="ywftsvg"><font-face ascent="1434" bbox="-255.429 -621.521 2064 1935" cap-height="1434" descent="-614" font-family="" font-stretch="normal" font-weight="400" panose-1="0 0 0 0 0 0 0 0 0 0" underline-position="0" underline-thickness="0" unicode-range="U+0020-2248" units-per-em="2048" x-height="1024"/><missing-glyph d="M61 -598v2038h828v-2038h-828z" horiz-adv-x="950"/><glyph d="M61 -598v2038h828v-2038h-828z" glyph-name=".notdef" horiz-adv-x="950"/><glyph glyph-name="glyph1" horiz-adv-x="0"/><glyph glyph-name="glyph2" horiz-adv-x="681"/><glyph glyph-name="space" horiz-adv-x="411" unicode=" "/><glyph d="M193 322q-23 0 -32 9t-9 31l-11 1031q0 23 9.5 32t31.5 9h94q23 0 32 -9.5t9 -31.5l-10 -1031q0 -23 -9 -31.5t-32 -8.5h-73zM113 108.5q0 49.5 33.5 84t83 34.5t84 -34.5t34.5 -84t-34.5 -83t-84 -33.5t-83 33.5t-33.5 83z" glyph-name="exclam" horiz-adv-x="458" unicode="!"/><glyph d="M102 1505h140q35 0 28 -39l-55 -329q-6 -39 -43 -39t-43 39l-55 329q-7 39 28 39zM379 1505h139q35 0 29 -39l-55 -329q-6 -39 -43 -39t-43 39l-56 329q-6 39 29 39z" glyph-name="quotedbl" horiz-adv-x="620" unicode="&quot;"/><glyph d="M817 41l53 440h-190l-53 -436q-6 -45 -47 -45h-86q-45 0 -39 41l53 440h-365q-23 0 -32 9.5t-9 31.5v90q0 23 9.5 32t31.5 9h387l25 205h-356q-23 0 -32 9.5t-9 31.5v90q0 23 9 32t32 9h376l46 359q6 45 47 45h86q45 0 39 -41l-45 -363h190l45 359q6 45 47 45h86 q45 0 39 -41l-45 -363h346q23 0 32 -9t9 -32v-90q0 -23 -9 -32t-32 -9h-366l-27 -205h338q23 0 32 -9t9 -32v-90q0 -23 -9.5 -32t-31.5 -9h-359l-53 -436q-6 -45 -47 -45h-86q-45 0 -39 41zM727 858l-27 -205h193l25 205h-191z" glyph-name="numbersign" horiz-adv-x="1599" unicode="#"/><glyph d="M520 -143q-23 0 -32 9t-9 32v102q-209 31 -370 178q-25 23 -3 47l66 76q23 25 47 2q106 -102 262 -136t272.5 18.5t116.5 176.5q0 82 -75.5 149t-183 120t-215 112.5t-180.5 152.5t-69 212q4 117 90.5 209t241.5 117v102q0 23 9.5 32t31.5 9h90q23 0 32 -9t9 -32v-96 q90 -6 175 -35t124 -53l41 -25q20 -14 8 -37l-49 -94q-12 -18 -37 -4q-129 68 -264 84t-230 -32t-95 -154q0 -76 74.5 -139.5t180 -115t212 -108.5t181.5 -148.5t75 -205.5q0 -162 -111 -263.5t-285 -115.5v-96q0 -23 -9 -32t-32 -9h-90z" glyph-name="dollar" horiz-adv-x="1132" unicode="$"/><glyph d="M231 45l555 1344q10 25 19.5 35t32.5 10h92q45 0 26 -45l-555 -1344q-8 -18 -12 -26.5t-13 -13.5t-24 -5h-92q-47 0 -29 45zM291 1020q-84 0 -146.5 62.5t-62.5 146.5q0 88 62.5 150.5t146.5 62.5q88 0 150.5 -62.5t62.5 -150.5q0 -84 -62.5 -146.5t-150.5 -62.5z M219 1226.5q0 -28.5 21.5 -50t50 -21.5t50 21.5t21.5 50t-21.5 50t-50 21.5t-50 -21.5t-21.5 -50zM887 -8q-84 0 -146.5 62.5t-62.5 146.5q0 88 62.5 150.5t146.5 62.5q88 0 150.5 -62.5t62.5 -150.5q0 -84 -62.5 -146.5t-150.5 -62.5zM815 198.5q0 -28.5 21.5 -50t50 -21.5 t50 21.5t21.5 50t-21.5 50t-50 21.5t-50 -21.5t-21.5 -50z" glyph-name="percent" horiz-adv-x="1181" unicode="%"/><glyph d="M561 -8q-190 -8 -331.5 107.5t-141.5 318.5q0 215 188 348q-162 119 -161 297q0 147 88 244.5t210 124t254 -8t214 -131.5q27 -31 0 -57l-58 -55q-29 -29 -55 0q-86 80 -200.5 90t-196.5 -48.5t-82 -158.5q0 -86 63.5 -145.5t145.5 -67.5q25 -4 33 -11.5t8 -29.5v-90 q0 -23 -8.5 -30t-32.5 -11q-88 -12 -162 -79t-74 -181q0 -121 88 -189.5t211 -64.5q119 4 191.5 74.5t72.5 207.5v228q0 23 9.5 32t31.5 9h252q23 0 32 -9.5t9 -31.5v-82q0 -23 -9 -32t-32 -9h-98q-20 0 -21 -21v-112q0 -195 -130 -308.5t-308 -117.5z" glyph-name="ampersand" horiz-adv-x="1159" unicode="&amp;"/><glyph d="M102 1505h140q35 0 28 -39l-55 -329q-6 -39 -43 -39t-43 39l-55 329q-7 39 28 39z" glyph-name="quotesingle" horiz-adv-x="344" unicode="'"/><glyph d="M348 1247v-1069q0 -49 3 -75.5t15.5 -69.5t46 -65.5t89.5 -26.5q23 -2 32 -10.5t9 -30.5v-82q0 -23 -9.5 -33t-31.5 -8q-330 14 -330 338v1196q0 324 330 338q23 2 32 -8.5t9 -32.5v-82q0 -23 -9.5 -31t-31.5 -10q-55 -4 -89 -26.5t-46.5 -65.5t-15.5 -70t-3 -76z" glyph-name="parenleft" horiz-adv-x="612" unicode="("/><glyph d="M264 178v1069q0 49 -3 76t-15.5 70t-46 65.5t-88.5 26.5q-23 2 -32 10t-9 31v82q0 23 9 33t32 8q330 -14 329 -338v-1196q0 -324 -329 -338q-23 -2 -32 8t-9 33v82q0 23 9 31t32 10q55 4 88.5 26.5t46 65.5t15.5 69.5t3 75.5z" glyph-name="parenright" horiz-adv-x="612" unicode=")"/><glyph d="M774 1419q0 -29 -11 -40t-40 -11h-127l92 -90q37 -37 0 -74l-20 -20q-37 -37 -74 0l-88 88v-123q0 -29 -11.5 -40t-39.5 -11h-39q-29 0 -40 11t-11 40v125l-91 -90q-37 -37 -73 0l-21 20q-37 37 0 74l92 90h-127q-29 0 -40 11.5t-11 39.5v35q0 29 11.5 40t39.5 11h127 l-92 90q-37 37 0 74l21 21q37 37 73 0l91 -91v125q0 29 11 40.5t40 11.5h39q29 0 40 -11.5t11 -40.5v-122l88 88q37 37 74 0l20 -21q37 -37 0 -74l-92 -90h127q29 0 40 -11t11 -40v-35z" glyph-name="asterisk" horiz-adv-x="868" unicode="*"/><glyph d="M532 858q0 -20 21 -20h238q23 0 31.5 -9.5t8.5 -31.5v-82q0 -23 -9 -32t-31 -9h-238q-20 0 -21 -21v-247q0 -23 -9 -32t-31 -9h-82q-23 0 -32 9t-9 32v247q0 20 -21 21h-237q-23 0 -32 9t-9 32v82q0 23 9 32t32 9h237q20 0 21 20v248q0 23 9 32t32 9h82q23 0 31.5 -9.5 t8.5 -31.5v-248z" glyph-name="plus" horiz-adv-x="901" unicode="+"/><glyph d="M72 111q0 47 33.5 81.5t80.5 34.5q49 0 85 -33.5t40 -82.5q12 -139 -139 -347q-18 -29 -51 -10q-18 14 -21.5 20.5t4.5 30.5q84 131 76 170q-2 16 -20 23q-88 37 -88 113z" glyph-name="comma" horiz-adv-x="389" unicode=","/><glyph d="M102 606q0 41 29 41h438q29 0 29 -41v-82q0 -41 -29 -41h-438q-29 0 -29 41v82z" glyph-name="hyphen" horiz-adv-x="700" unicode="-"/><glyph d="M72 108.5q0 49.5 33.5 84t83 34.5t84 -34.5t34.5 -84t-34.5 -83t-84 -33.5t-83 33.5t-33.5 83z" glyph-name="period" horiz-adv-x="376" unicode="."/><glyph d="M72 41l166 1348q6 45 47 45h86q45 0 39 -41l-166 -1348q-6 -45 -47 -45h-86q-45 0 -39 41z" glyph-name="slash" horiz-adv-x="481" unicode="/"/><glyph d="M1114 741v-49q0 -334 -124 -517t-367.5 -183t-367.5 183t-124 517v49q0 334 124 517.5t367.5 183.5t367.5 -183.5t124 -517.5zM623 156q174 0 244.5 139t70.5 424q0 287 -69.5 423t-246 136t-246 -137t-69.5 -422q0 -287 70 -425t246 -138z" glyph-name="zero" horiz-adv-x="1245" unicode="0"/><glyph d="M45 1130l285 287q16 16 39 17h94q23 0 32 -9.5t9 -31.5v-1352q0 -23 -9.5 -32t-31.5 -9h-94q-23 0 -32 9t-9 32v1151l-172 -174q-29 -29 -58 0l-53 55q-29 28 0 57z" glyph-name="one" horiz-adv-x="675" unicode="1"/><glyph d="M172 1303q100 115 268 137t300 -69t132 -269q0 -92 -62 -184.5t-151.5 -171t-178.5 -159.5t-151.5 -180.5t-62.5 -201.5q0 -31 5 -36t36 -5h533q23 0 32 -9.5t9 -31.5v-82q0 -23 -9.5 -32t-31.5 -9h-709q-23 0 -32 9t-9 32v178q0 106 45 206.5t112.5 173.5t146.5 146.5 t146.5 130t112.5 122t45 122.5q0 84 -72.5 127t-172 28t-170.5 -87q-29 -29 -56 0l-55 55q-29 29 0 60z" glyph-name="two" horiz-adv-x="991" unicode="2"/><glyph d="M770 418q0 115 -73.5 181.5t-161.5 78.5q-25 4 -33 11t-8 30v90q0 23 8 30t33 11q82 8 145 67.5t63 145.5q0 100 -81.5 158.5t-196.5 48.5t-201 -90q-27 -29 -55 0l-57 55q-27 27 0 57q82 96 214 131t253.5 8.5t210 -124t88.5 -244.5q0 -178 -162 -297q188 -133 188 -348 q0 -207 -148.5 -325t-346 -101.5t-334.5 162.5q-33 31 0 63l55 51q33 33 61 0q88 -92 217.5 -104t225.5 58.5t96 195.5z" glyph-name="three" horiz-adv-x="1054" unicode="3"/><glyph d="M655 1102l-387 -567q-14 -20 8 -21h375q20 0 21 21v563q0 8 -6.5 10t-10.5 -6zM848 41q0 -23 -9.5 -32t-31.5 -9h-94q-23 0 -32 9t-9 32v289q0 20 -21 20h-581q-23 0 -32 9.5t-9 31.5v47q0 41 16 64l612 903q20 29 52 29h98q23 0 32 -9.5t9 -31.5v-858q0 -20 20 -21h47 q23 0 32 -9t9 -32v-82q0 -23 -9 -32t-32 -9h-47q-20 0 -20 -20v-289z" glyph-name="four" horiz-adv-x="1036" unicode="4"/><glyph d="M477 977q188 0 318.5 -123t130.5 -350v-58q0 -78 -23.5 -152.5t-74 -145t-142.5 -113.5t-213 -43q-94 0 -173 28.5t-116 57t-78 72.5q-29 29 0 57l62 61q29 29 55 0q102 -113 252 -112q131 0 205 85t74 228q0 344 -326 344h-233q-23 0 -32 9t-9 32v539q0 23 9 32t32 9 h618q23 0 32 -9.5t9 -31.5v-82q0 -23 -9 -32t-32 -9h-442q-27 0 -34 -8.5t-7 -32.5v-211q0 -25 7 -33t34 -8h106z" glyph-name="five" horiz-adv-x="1015" unicode="5"/><glyph d="M702 1278q-86 0 -158.5 -19.5t-139 -66.5t-104.5 -138t-38 -220v-23q123 119 262 131q180 18 317.5 -107.5t137.5 -353.5v-32q0 -223 -129 -340t-315.5 -117t-315.5 116.5t-129 340.5v356q0 328 165 482.5t447 154.5h25q23 0 32 -9.5t9 -31.5v-82q0 -23 -9 -32t-32 -9 h-25zM534.5 156q122.5 0 197.5 81.5t75 229.5q0 150 -75 231.5t-197.5 81.5t-197.5 -82t-75 -231q0 -147 75 -229t197.5 -82z" glyph-name="six" horiz-adv-x="1069" unicode="6"/><glyph d="M166 41l485 1204q8 25 -14 25h-567q-23 0 -32 9t-9 32v82q0 23 9 32t32 9h745q23 0 32 -9.5t9 -31.5v-47q0 -33 -6 -50l-506 -1255q-16 -41 -47 -41h-100q-45 0 -31 41z" glyph-name="seven" horiz-adv-x="901" unicode="7"/><glyph d="M573 1442q197 0 312.5 -107.5t115.5 -257.5q0 -201 -180 -307q104 -49 168 -149.5t64 -217.5q0 -172 -131 -291.5t-350.5 -119.5t-350.5 119.5t-131 291.5q0 117 63.5 217.5t168.5 149.5q-180 106 -181 307q0 150 116 257.5t312 107.5h4zM266 418q0 -113 83 -187.5 t222.5 -74.5t223.5 74.5t82 187.5q-2 115 -84 189.5t-221.5 74.5t-222.5 -74.5t-83 -189.5zM317 1063q0 -90 64.5 -152.5t189.5 -62.5t189.5 62.5t64.5 152.5t-64.5 152.5t-189.5 62.5t-189.5 -62.5t-64.5 -152.5z" glyph-name="eight" horiz-adv-x="1142" unicode="8"/><glyph d="M229 156h138q86 0 158.5 19.5t139 66.5t104.5 138t38 220v23q-123 -119 -262 -131q-182 -16 -318.5 108.5t-136.5 351.5v33q0 223 129 340t315.5 117t315.5 -117t129 -340v-356q0 -328 -165 -482.5t-447 -154.5h-138q-23 0 -32 9t-9 32v82q0 23 9 32t32 9zM534.5 1278 q-122.5 0 -197.5 -82t-75 -229q0 -150 75 -232t197.5 -82t197.5 82t75 232q0 147 -75 229t-197.5 82z" glyph-name="nine" horiz-adv-x="1069" unicode="9"/><glyph d="M72 108.5q0 49.5 33.5 84t83 34.5t84 -34.5t34.5 -84t-34.5 -83t-84 -33.5t-83 33.5t-33.5 83zM72 663.5q0 49.5 33.5 84t83 34.5t84 -34.5t34.5 -84t-34.5 -83t-84 -33.5t-83 33.5t-33.5 83z" glyph-name="colon" horiz-adv-x="376" unicode=":"/><glyph d="M72 111q0 47 33.5 81.5t80.5 34.5q49 0 85 -33.5t40 -82.5q12 -139 -139 -347q-18 -29 -51 -10q-18 14 -21.5 20.5t4.5 30.5q84 131 76 170q-2 16 -20 23q-88 37 -88 113zM72 663.5q0 49.5 33.5 84t83 34.5t84 -34.5t34.5 -84t-34.5 -83t-84 -33.5t-83 33.5t-33.5 83z " glyph-name="semicolon" horiz-adv-x="389" unicode=";"/><glyph d="M78 757.5q0 22.5 12 33.5l496 403q12 10 22 6t10 -18v-146q0 -25 -22 -41l-281 -225q-16 -12 0 -25l281 -225q23 -16 22 -41v-145q0 -14 -10 -18.5t-22 6.5l-496 403q-12 10 -12 32.5z" glyph-name="less" horiz-adv-x="712" unicode="&lt;"/><glyph d="M102 928q0 23 9.5 32t31.5 9h656q23 0 32 -9.5t9 -31.5v-82q0 -23 -9.5 -32t-31.5 -9h-656q-23 0 -32 9t-9 32v82zM102 666q0 23 9.5 32t31.5 9h656q23 0 32 -9.5t9 -31.5v-82q0 -23 -9.5 -32t-31.5 -9h-656q-23 0 -32 9t-9 32v82z" glyph-name="equal" horiz-adv-x="942" unicode="="/><glyph d="M635 757.5q0 -22.5 -12 -32.5l-496 -403q-12 -10 -22.5 -6.5t-10.5 18.5v145q0 25 23 41l280 225q16 12 0 25l-280 225q-23 16 -23 41v146q0 14 10.5 18t22.5 -6l496 -403q12 -11 12 -33.5z" glyph-name="greater" horiz-adv-x="712" unicode=">"/><glyph d="M487 430v-33q0 -23 -9 -32t-32 -9h-94q-23 0 -32 9.5t-9 31.5v31q0 117 31 210t75 150.5t88 105.5t74.5 102.5t30.5 115.5q0 88 -72.5 134t-173 31t-169.5 -89q-27 -29 -56 0l-55 55q-29 29 0 60q131 143 330 143q152 0 261 -90t109 -254q0 -86 -30.5 -154.5t-74.5 -117 t-87 -99.5t-74 -127t-31 -174zM283 108.5q0 49.5 33.5 84t83 34.5t84 -34.5t34.5 -84t-34.5 -83t-84 -33.5t-83 33.5t-33.5 83z" glyph-name="question" horiz-adv-x="864" unicode="?"/><glyph d="M1096 -477q-260 0 -482.5 130t-351.5 352t-129 480q0 260 128 481.5t349 352.5t486 131q262 0 483 -128t351 -350t130 -487q0 -330 -202 -551q-147 -160 -312 -174q-160 -12 -221 125q-27 61 -27 150v57q-94 -90 -225 -100q-178 -10 -306 114.5t-128 342.5v126 q0 217 128 342t306 115q125 -10 225 -102v53q0 23 9.5 32t31.5 9h82q23 0 32 -9t9 -32v-901q0 -143 92 -154q90 -10 191 107q147 182 151 450q0 332 -235.5 564.5t-564.5 232.5q-328 0 -562.5 -232.5t-234.5 -566.5q0 -336 236.5 -567t560.5 -231h2q23 0 32 -9.5t9 -31.5 v-80q0 -23 -9.5 -32t-31.5 -9h-2zM811 514v-4q0 -190 65.5 -282.5t200.5 -88.5q139 6 221 107v532q-82 100 -221 107q-135 4 -200.5 -88.5t-65.5 -282.5z" glyph-name="at" horiz-adv-x="2193" unicode="@"/><glyph d="M602 1434h94q16 0 24.5 -2t16.5 -10.5t15 -28.5l477 -1352q14 -41 -27 -41h-104q-18 0 -26.5 2t-14.5 10t-15 29l-106 307q-6 18 -13.5 23.5t-27.5 5.5h-492q-20 0 -27 -5t-14 -24l-106 -307q-10 -29 -19.5 -35t-35.5 -6h-105q-41 0 -26 41l477 1352q10 29 20 35t35 6z M662 1149q-2 10 -12.5 10t-12.5 -10l-201 -586q-8 -23 15 -22h397q23 0 14 22z" glyph-name="A" horiz-adv-x="1298" unicode="A"/><glyph d="M639 0h-426q-23 0 -32 9t-9 32v1352q0 23 9 32t32 9h408q231 0 347.5 -98.5t116.5 -278.5q0 -188 -129 -287q176 -109 177 -348q0 -203 -126 -312.5t-368 -109.5zM348 639v-434q0 -31 5 -36t36 -5h262q309 0 309.5 258t-309.5 258h-262q-31 0 -36 -5t-5 -36zM348 885 q0 -31 5 -36t36 -5h277q133 0 190 63.5t57 149.5t-57 149.5t-190 63.5h-277q-31 0 -36 -5t-5 -36v-344z" glyph-name="B" horiz-adv-x="1230" unicode="B"/><glyph d="M723 -8q-268 0 -440 183t-172 541.5t172 542t440 183.5q274 0 438 -182q27 -31 0 -58l-55 -55q-29 -29 -57 0q-131 131 -326 131q-205 0 -319.5 -143.5t-116.5 -417.5q2 -274 116.5 -417.5t319.5 -143.5q195 0 326 131q29 29 57 0l55 -56q27 -27 0 -57 q-164 -182 -438 -182z" glyph-name="C" horiz-adv-x="1263" unicode="C"/><glyph d="M1085 717q0 305 -118.5 429t-337.5 124h-240q-31 0 -36 -5t-5 -36v-1024q0 -31 5 -36t36 -5h240q219 0 337.5 124t118.5 429zM172 41v1352q0 23 9 32t32 9h416q131 0 240.5 -37t199.5 -117t141.5 -223.5t51.5 -340t-51.5 -340t-141.5 -223t-199.5 -116.5t-240.5 -37h-416 q-23 0 -32 9t-9 32z" glyph-name="D" horiz-adv-x="1372" unicode="D"/><glyph d="M348 633v-428q0 -31 5 -36t36 -5h594q23 0 32 -9.5t9 -31.5v-82q0 -23 -9 -32t-32 -9h-770q-23 0 -32 9t-9 32v1352q0 23 9 32t32 9h770q23 0 32 -9.5t9 -31.5v-82q0 -23 -9 -32t-32 -9h-594q-31 0 -36 -5t-5 -36v-350q0 -31 5 -36t36 -5h492q23 0 32 -9.5t9 -31.5v-82 q0 -23 -9.5 -32t-31.5 -9h-492q-31 0 -36 -5t-5 -36z" glyph-name="E" horiz-adv-x="1130" unicode="E"/><glyph d="M348 41q0 -23 -9 -32t-32 -9h-94q-23 0 -32 9t-9 32v1352q0 23 9 32t32 9h770q23 0 32 -9.5t9 -31.5v-82q0 -23 -9 -32t-32 -9h-594q-31 0 -36 -5t-5 -36v-350q0 -31 5 -36t36 -5h492q23 0 32 -9.5t9 -31.5v-82q0 -23 -9.5 -32t-31.5 -9h-492q-31 0 -36 -4t-5 -29v-600z " glyph-name="F" horiz-adv-x="1073" unicode="F"/><glyph d="M723 -8q-268 0 -440 183t-172 541.5t172 542t440 183.5q274 0 438 -182q27 -31 0 -58l-55 -55q-29 -29 -57 0q-131 131 -326 131q-205 0 -319.5 -143.5t-116.5 -417.5q2 -274 116.5 -417.5t319.5 -143.5q147 0 244.5 64.5t97.5 160.5v252q0 31 -5 36t-36 5h-250 q-23 0 -32 9t-9 32v82q0 23 9.5 32t31.5 9h426q23 0 32 -9.5t9 -31.5v-432q0 -139 -149.5 -256t-368.5 -117z" glyph-name="G" horiz-adv-x="1339" unicode="G"/><glyph d="M983 633q0 31 -5 36t-36 5h-553q-31 0 -36 -5t-5 -36v-592q0 -23 -9 -32t-32 -9h-94q-23 0 -32 9t-9 32v1352q0 23 9 32t32 9h94q23 0 32 -9.5t9 -31.5v-514q0 -31 5 -36t36 -5h553q31 0 36 5t5 36v514q0 23 9 32t32 9h94q23 0 32 -9.5t9 -31.5v-1352q0 -23 -9 -32 t-32 -9h-94q-23 0 -32 9t-9 32v592z" glyph-name="H" horiz-adv-x="1331" unicode="H"/><glyph d="M348 41q0 -23 -9 -32t-32 -9h-94q-23 0 -32 9t-9 32v1352q0 23 9 32t32 9h94q23 0 32 -9.5t9 -31.5v-1352z" glyph-name="I" horiz-adv-x="520" unicode="I"/><glyph d="M387 -8q-205 0 -328 139q-29 31 0 59l60 60q29 29 55 0q94 -94 207 -94q94 0 163.5 64.5t69.5 162.5v1010q0 23 9.5 32t31.5 9h95q23 0 32 -9.5t9 -31.5v-1008q0 -156 -118 -274.5t-286 -118.5z" glyph-name="J" horiz-adv-x="921" unicode="J"/><glyph d="M348 41q0 -23 -9 -32t-32 -9h-94q-23 0 -32 9t-9 32v1352q0 23 9 32t32 9h94q23 0 32 -9.5t9 -31.5v-600q0 -12 8.5 -14.5t14.5 5.5l559 635q12 14 41 15h135q16 0 19 -12.5t-7 -22.5l-540 -615q-12 -14 -12.5 -21t12.5 -24l540 -704q10 -10 7 -22.5t-19 -12.5h-137 q-29 0 -41 14l-475 621q-12 18 -29 0l-53 -62q-23 -25 -23 -61v-471z" glyph-name="K" horiz-adv-x="1191" unicode="K"/><glyph d="M213 0q-23 0 -32 9t-9 32v1352q0 23 9 32t32 9h94q23 0 32 -9.5t9 -31.5v-1188q0 -31 5 -36t36 -5h496q23 0 32 -9.5t9 -31.5v-82q0 -23 -9.5 -32t-31.5 -9h-672z" glyph-name="L" horiz-adv-x="974" unicode="L"/><glyph d="M797 0q-35 0 -45 29l-349 927q-4 12 -13 11.5t-9 -13.5l-72 -913q-2 -23 -10 -32t-31 -9h-94q-43 0 -41 41l113 1352q2 23 10 32t31 9h82q29 0 39 -25l413 -1104q2 -8 10.5 -8t10.5 8l413 1104q10 25 39 25h82q23 0 31 -9.5t10 -31.5l113 -1352q2 -41 -41 -41h-94 q-23 0 -31 9t-10 32l-72 913q0 12 -9 13.5t-13 -11.5l-349 -927q-10 -29 -45 -29h-69z" glyph-name="M" horiz-adv-x="1662" unicode="M"/><glyph d="M283 1434q20 0 39 -25l735 -1032q8 -10 15 -8t7 12v1012q0 23 9.5 32t31.5 9h94q23 0 32 -9.5t9 -31.5v-1352q0 -23 -9 -32t-32 -9h-69q-20 0 -39 25l-735 1032q-8 10 -15.5 8t-7.5 -12v-1012q0 -23 -9 -32t-32 -9h-94q-23 0 -32 9t-9 32v1352q0 23 9 32t32 9h70z" glyph-name="N" horiz-adv-x="1427" unicode="N"/><glyph d="M723 1442q268 0 440 -183.5t172 -542t-172 -541.5t-440 -183t-440 183t-172 541.5t172 542t440 183.5zM723 156q205 0 319.5 143t116.5 418q-2 274 -116.5 417.5t-319.5 143.5t-319.5 -143.5t-116.5 -417.5q2 -274 116.5 -417.5t319.5 -143.5z" glyph-name="O" horiz-adv-x="1445" unicode="O"/><glyph d="M213 1434h387q233 0 363.5 -132.5t130.5 -331t-130 -330.5t-364 -132h-211q-31 0 -36 -5t-5 -36v-426q0 -23 -9 -32t-32 -9h-94q-23 0 -32 9t-9 32v1352q0 23 9 32t32 9zM348 1229v-516q0 -31 5 -36t36 -5h191q174 0 258 81t84 218t-84 218t-258 81h-191q-31 0 -36 -5 t-5 -36z" glyph-name="P" horiz-adv-x="1163" unicode="P"/><glyph d="M723 1442q268 0 440 -183.5t172 -541.5q0 -252 -89 -419t-242 -245l235 -381q10 -18 4 -29.5t-22 -11.5h-86q-33 0 -41.5 6.5t-28.5 38.5l-203 330q-80 -14 -139 -14q-268 0 -440 183t-172 541.5t172 542t440 183.5zM723 156q205 0 319.5 143t116.5 418 q-2 274 -116.5 417.5t-319.5 143.5t-319.5 -143.5t-116.5 -417.5q2 -274 116.5 -417.5t319.5 -143.5z" glyph-name="Q" horiz-adv-x="1445" unicode="Q"/><glyph d="M213 1434h426q242 0 368 -110t126 -312q0 -340 -334 -408l336 -563q10 -18 4 -29.5t-23 -11.5h-121q-25 0 -32 4t-19 25l-334 561h-221q-31 0 -36 -5t-5 -36v-508q0 -23 -9 -32t-32 -9h-94q-23 0 -32 9t-9 32v1352q0 23 9 32t32 9zM348 1229v-434q0 -31 5 -36t36 -5h262 q309 0 309.5 258t-309.5 258h-262q-31 0 -36 -5t-5 -36z" glyph-name="R" horiz-adv-x="1253" unicode="R"/><glyph d="M553 -8q-92 6 -169 26.5t-135.5 57.5t-81 53t-58.5 49q-25 23 -3 47l66 76q23 25 47 2q106 -102 262 -136t272.5 18.5t116.5 176.5q0 82 -75.5 149t-183 120t-215 112.5t-180.5 152.5t-69 212q4 147 124 246.5t343 87.5q94 -4 188.5 -33t141.5 -55l47 -27q20 -14 8 -37 l-49 -94q-12 -18 -37 -4q-129 68 -264 84t-230 -32t-95 -154q0 -76 74.5 -139.5t180 -115t212 -108.5t181.5 -148.5t75 -205.5q0 -184 -143.5 -288.5t-350.5 -92.5z" glyph-name="S" horiz-adv-x="1132" unicode="S"/><glyph d="M49 1393q0 23 9.5 32t31.5 9h889q23 0 32 -9.5t9 -31.5v-82q0 -23 -9.5 -32t-31.5 -9h-315q-31 0 -36 -5t-5 -36v-1188q0 -23 -9.5 -32t-31.5 -9h-95q-23 0 -32 9t-9 32v1188q0 31 -5 36t-35 5h-316q-23 0 -32 9t-9 32v82z" glyph-name="T" horiz-adv-x="1069" unicode="T"/><glyph d="M672 -8q-246 0 -393.5 156.5t-147.5 469.5v775q0 23 9.5 32t31.5 9h94q23 0 32 -9.5t9 -31.5v-791q0 -238 102.5 -342t262 -104t262 104.5t102.5 341.5v791q0 23 9.5 32t31.5 9h94q23 0 32 -9.5t9 -31.5v-775q0 -313 -147 -469.5t-393 -156.5z" glyph-name="U" horiz-adv-x="1343" unicode="U"/><glyph d="M698 0h-98q-16 0 -23.5 2t-15.5 10t-14 29l-477 1352q-14 41 26 41h103q16 0 22 -1t13.5 -4.5t11.5 -11.5t10 -24l381 -1108q4 -10 12 -10.5t13 10.5l380 1108q10 29 19.5 35t38.5 6h102q41 0 27 -41l-477 -1352q-10 -29 -20.5 -35t-33.5 -6z" glyph-name="V" horiz-adv-x="1298" unicode="V"/><glyph d="M989 1434q16 0 23.5 -1t16.5 -10.5t13 -29.5l287 -1043q4 -10 12.5 -10t12.5 10l278 1043q4 18 16.5 28.5t23.5 11.5t34 1h86q39 0 27 -41l-375 -1352q-6 -29 -17.5 -35t-35.5 -6h-74q-16 0 -23.5 1t-16.5 10t-13 30l-308 1059q-4 10 -12 10t-12 -10l-291 -1059 q-6 -29 -17.5 -35t-35.5 -6h-90q-16 0 -23.5 1t-16.5 10t-14 30l-374 1352q-12 41 26 41h103q20 0 28.5 -2t16.5 -10.5t12 -28.5l279 -1043q4 -10 12 -10t12 10l287 1043q6 29 17 35t36 6h90z" glyph-name="W" horiz-adv-x="1888" unicode="W"/><glyph d="M584 571q-6 0 -13 -8l-315 -534q-12 -20 -19.5 -24.5t-31.5 -4.5h-113q-16 0 -22.5 11.5t4.5 29.5l399 668q12 18 0 36l-379 648q-10 18 -4 29.5t23 11.5h112q25 0 32 -4.5t19 -24.5l295 -516q6 -8 12.5 -8t12.5 8l295 516q12 20 19.5 24.5t31.5 4.5h113q16 0 22 -11.5 t-4 -29.5l-379 -648q-12 -18 0 -36l400 -668q10 -18 4 -29.5t-23 -11.5h-112q-25 0 -32 4t-20 25l-315 534q-6 8 -12 8z" glyph-name="X" horiz-adv-x="1167" unicode="X"/><glyph d="M584 870l311 535q12 20 19.5 24.5t31.5 4.5h105q16 0 22 -11.5t-4 -29.5l-410 -688v-664q0 -23 -9 -32t-32 -9h-94q-23 0 -32 9t-9 32v664l-409 688q-10 18 -4 29.5t22 11.5h105q25 0 32 -4.5t19 -24.5l311 -535q13 -20 25 0z" glyph-name="Y" horiz-adv-x="1142" unicode="Y"/><glyph d="M109 180l684 1069q12 20 -9 21h-653q-23 0 -32 9t-9 32v82q0 23 9.5 32t31.5 9h819q23 0 32 -9.5t9 -31.5v-99q0 -25 -10 -41l-684 -1069q-12 -20 8 -20h641q23 0 32 -9.5t9 -31.5v-82q0 -23 -9 -32t-32 -9h-807q-23 0 -32 9t-9 32v98q1 25 11 41z" glyph-name="Z" horiz-adv-x="1089" unicode="Z"/><glyph d="M348 -236q0 -31 5 -35.5t36 -4.5h205q23 0 32 -9.5t9 -31.5v-82q0 -23 -9.5 -32t-31.5 -9h-381q-23 0 -32 9t-9 32v2025q0 23 9 32t32 9h381q23 0 32 -9t9 -32v-82q0 -23 -9.5 -32t-31.5 -9h-205q-31 0 -36 -5t-5 -36v-1698z" glyph-name="bracketleft" horiz-adv-x="704" unicode="["/><glyph d="M242 1389l166 -1348q6 -41 -39 -41h-84q-41 0 -47 45l-166 1339q-8 49 39 50h84q41 0 47 -45z" glyph-name="backslash" horiz-adv-x="481" unicode="\"/><glyph d="M356 -236v1698q0 31 -5 36t-36 5h-204q-23 0 -32 9.5t-9 31.5v82q0 23 9 32t32 9h381q23 0 31.5 -9t8.5 -32v-2025q0 -23 -9 -32t-31 -9h-381q-23 0 -32 9t-9 32v82q0 23 9 32t32 9h204q31 0 36 4.5t5 35.5z" glyph-name="bracketright" horiz-adv-x="704" unicode="]"/><glyph d="M510 1212l-250 -426q-14 -27 -43 -26h-121q-16 0 -22 11t4 30l366 606q14 27 45 27h80q31 0 45 -27l367 -606q10 -18 4 -29.5t-22 -11.5h-121q-29 0 -43 26l-250 426q-8 14 -19.5 14t-19.5 -14z" glyph-name="asciicircum" horiz-adv-x="1058" unicode="^"/><glyph d="M102 -41q0 23 9.5 32t31.5 9h838q23 0 32 -9t9 -32v-82q0 -23 -9 -32t-32 -9h-838q-23 0 -32 9.5t-9 31.5v82z" glyph-name="underscore" horiz-adv-x="1124" unicode="_"/><glyph d="M123 1853l207 -227q23 -27 -6 -55l-23 -23q-33 -33 -59 -6l-222 213q-29 29 0 57l43 43q31 31 60 -2z" glyph-name="grave" horiz-adv-x="348" unicode="`"/><glyph d="M485 1040q168 0 285 -117.5t117 -275.5v-606q0 -23 -9.5 -32t-31.5 -9h-90q-23 0 -32 9t-9 32v41q-100 -74 -232 -82q-164 -10 -285.5 83t-121.5 257t121.5 257t285.5 83q127 -8 232 -82v51q0 98 -70 163t-164 65q-131 0 -217 -86q-27 -29 -55 0l-51 51q-29 29 0 59 q122 139 327 139zM487 141q125 2 228 86v226q-102 80 -228 86q-104 4 -171.5 -51.5t-67.5 -147.5t67.5 -147.5t171.5 -51.5z" glyph-name="a" horiz-adv-x="999" unicode="a"/><glyph d="M303 930q98 90 215 102q176 16 310.5 -117t134.5 -403t-134.5 -403.5t-310.5 -116.5q-117 12 -215 102v-53q0 -23 -9 -32t-32 -9h-90q-23 0 -32 9t-9 32v1352q0 23 9.5 32t31.5 9h90q23 0 32 -9.5t9 -31.5v-463zM303 762v-500q98 -100 215 -106q119 -6 196 82t77 274 t-77 274t-196 82q-117 -6 -215 -106z" glyph-name="b" unicode="b"/><glyph d="M535 -8q-84 0 -160 28.5t-141.5 86t-104.5 163t-39 242.5t39 242.5t104.5 163t141.5 86t160 28.5q205 0 329 -145q29 -31 0 -60l-53 -53q-27 -27 -57 0q-104 94 -219 94q-121 0 -197 -86t-76 -270t76 -270t197 -86q115 0 219 94q31 27 57 0l53 -53q29 -29 0 -60 q-124 -145 -329 -145z" glyph-name="c" horiz-adv-x="968" unicode="c"/><glyph d="M922 41q0 -23 -9.5 -32t-31.5 -9h-90q-23 0 -32 9t-9 32v53q-98 -90 -215 -102q-176 -16 -310.5 117t-134.5 403t134 403.5t311 116.5q117 -12 215 -102v463q0 23 9 32t32 9h90q23 0 32 -9.5t9 -31.5v-1352zM535 868q-119 6 -196 -82t-77 -274t77 -274t196 -82 q117 6 215 106v500q-98 100 -215 106z" glyph-name="d" unicode="d"/><glyph d="M514 1032q178 0 301 -133t123 -387v-41q0 -23 -9 -32t-32 -9h-588q-14 0 -21 -1t-12.5 -7t-5.5 -19q0 -125 79 -186t186 -61q115 0 219 94q31 27 57 0l53 -53q29 -29 0 -60q-125 -145 -329 -145q-188 0 -316.5 123t-128.5 397q0 254 123 387t301 133zM719 594q39 0 39 24 q-2 121 -75 184.5t-169 63.5q-98 0 -171 -63.5t-73 -184.5q0 -16 7.5 -20t31.5 -4h410z" glyph-name="e" horiz-adv-x="1028" unicode="e"/><glyph d="M193 842q0 20 -21 20h-82q-23 0 -32 9.5t-9 31.5v66q0 23 9.5 32t31.5 9h82q20 0 21 20v92q0 137 90 226.5t211 91.5q141 2 229 -97q25 -29 28 -43t-16 -36l-47 -47q-31 -31 -57 2q-49 57 -119 57q-57 0 -102 -42t-45 -112v-92q0 -20 20 -20h180q23 0 32 -9.5t9 -31.5 v-66q0 -23 -9 -32t-32 -9h-180q-20 0 -20 -20v-801q0 -23 -9.5 -32t-31.5 -9h-91q-23 0 -31.5 9t-8.5 32v801z" glyph-name="f" horiz-adv-x="753" unicode="f"/><glyph d="M100 598q0 180 127 307t308 127q166 0 290 -112v63q0 23 9.5 32t31.5 9h62q23 0 32 -9t9 -32v-385q0 -180 -127 -307t-307 -127q-160 0 -279 100q-16 -27 -16 -67q0 -57 42 -102.5t111 -45.5h279q145 0 231 -60.5t86 -174.5q0 -160 -131 -242t-323 -82q-186 0 -320.5 79 t-134.5 245q0 94 82 163q-86 82 -86 201q-2 123 78 211q-54 94 -54 209zM266 598q0 -111 79 -189.5t189.5 -78.5t189.5 78.5t79 189.5t-79 189.5t-189.5 78.5t-189.5 -78.5t-79 -189.5zM534.5 -358q114.5 0 202.5 32.5t88 114.5q0 96 -147 96h-291q-143 0 -143 -96 q0 -82 88 -114.5t202.5 -32.5z" glyph-name="g" horiz-adv-x="1060" unicode="g"/><glyph d="M303 1393v-447q104 78 223 86q152 10 282 -86t130 -250v-655q0 -23 -9 -32t-32 -9h-90q-23 0 -32 9t-9 32v590q0 113 -71.5 177t-180.5 60q-117 -6 -211 -82v-745q0 -23 -9 -32t-32 -9h-90q-23 0 -32 9t-9 32v1352q0 23 9.5 32t31.5 9h90q23 0 32 -9t9 -32z" glyph-name="h" horiz-adv-x="1048" unicode="h"/><glyph d="M102 1284q0 49 34 84t83 35t84 -35t35 -84t-35 -83t-84 -34t-83 34t-34 83zM303 983v-942q0 -23 -9 -32t-32 -9h-90q-23 0 -32 9t-9 32v942q0 23 9.5 32t31.5 9h90q23 0 32 -9t9 -32z" glyph-name="i" horiz-adv-x="434" unicode="i"/><glyph d="M131 983q0 23 9.5 32t31.5 9h90q23 0 32 -9t9 -32v-1176q0 -137 -90 -226t-211 -91q-141 -2 -229 96q-25 29 -28 43.5t15 36.5l47 47q31 31 58 -2q49 -57 119 -57q57 0 102 42t45 111v1176zM100 1284q0 49 34 84t83 35t84 -35t35 -84t-35 -83t-84 -34t-83 34t-34 83z" glyph-name="j" horiz-adv-x="434" unicode="j"/><glyph d="M172 0q-23 0 -32 9t-9 32v1352q0 23 9.5 32t31.5 9h90q23 0 32 -9.5t9 -31.5v-807q0 -6 3 -9.5t8 -2.5t8 6l331 415q23 29 60 29h114q18 0 22.5 -12.5t-7.5 -28.5l-301 -377q-8 -10 0 -24l327 -541q10 -16 5 -28.5t-25 -12.5h-109q-35 0 -51 29l-262 432q-8 14 -20 0 l-87 -107q-16 -23 -16 -69v-244q0 -23 -9 -32t-32 -9h-90z" glyph-name="k" horiz-adv-x="905" unicode="k"/><glyph d="M485 0h-30q-158 0 -251 94t-93 250v1049q0 23 9 32t32 9h90q23 0 32 -9.5t9 -31.5v-1049q0 -82 49 -131t141 -49h12q23 0 32 -9.5t9 -31.5v-82q0 -23 -9 -32t-32 -9z" glyph-name="l" horiz-adv-x="573" unicode="l"/><glyph d="M303 983v-25q88 61 178 74q82 10 168 -20.5t148 -91.5l34 26q102 78 240 86q152 10 282 -86t130 -250v-655q0 -23 -9.5 -32t-31.5 -9h-90q-23 0 -32 9t-9 32v590q0 113 -72 177t-180 60q-98 -4 -187 -63q20 -57 21 -109v-655q0 -23 -9.5 -32t-31.5 -9h-90q-23 0 -32 9 t-9 32v590q0 113 -71.5 177t-180.5 60q-92 -6 -166 -49v-778q0 -23 -9 -32t-32 -9h-90q-23 0 -32 9t-9 32v942q0 23 9.5 32t31.5 9h90q23 0 32 -9t9 -32z" glyph-name="m" horiz-adv-x="1593" unicode="m"/><glyph d="M303 983v-37q104 78 223 86q152 10 282 -86t130 -250v-655q0 -23 -9 -32t-32 -9h-90q-23 0 -32 9t-9 32v590q0 113 -71.5 177t-180.5 60q-117 -6 -211 -82v-745q0 -23 -9 -32t-32 -9h-90q-23 0 -32 9t-9 32v942q0 23 9.5 32t31.5 9h90q23 0 32 -9t9 -32z" glyph-name="n" horiz-adv-x="1048" unicode="n"/><glyph d="M90 512q0 137 39 242.5t104.5 163t141.5 86t159.5 28.5t159.5 -28.5t141.5 -86t104.5 -163t39 -242.5t-39 -242.5t-104.5 -163t-141.5 -86t-159.5 -28.5t-159.5 28.5t-141.5 86t-104.5 163t-39 242.5zM807 512q0 184 -76 270t-196.5 86t-196.5 -86t-76 -270t76 -270 t196.5 -86t196.5 86t76 270z" glyph-name="o" horiz-adv-x="1069" unicode="o"/><glyph d="M131 983q0 23 9.5 32t31.5 9h90q23 0 32 -9t9 -32v-53q98 90 215 102q176 16 310.5 -117t134.5 -403t-134.5 -403.5t-310.5 -116.5q-117 12 -215 102v-555q0 -23 -9 -32t-32 -9h-90q-23 0 -32 9.5t-9 31.5v1444zM791 512q0 186 -77 274t-196 82q-117 -6 -215 -106v-500 q98 -100 215 -106q119 -6 196 82t77 274z" glyph-name="p" unicode="p"/><glyph d="M750 94q-98 -90 -215 -102q-176 -16 -310.5 117t-134.5 403t134 403.5t311 116.5q117 -12 215 -102v53q0 23 9 32t32 9h90q23 0 32 -9t9 -32v-1444q0 -23 -9.5 -32t-31.5 -9h-90q-23 0 -32 9.5t-9 31.5v555zM535 156q117 6 215 106v500q-98 100 -215 106q-119 6 -196 -82 t-77 -274t77 -274t196 -82z" glyph-name="q" unicode="q"/><glyph d="M303 983v-27q115 76 221 76q121 0 230 -84q43 -33 18 -65l-49 -66q-27 -35 -53 -10q-70 61 -166 61q-94 0 -201 -71v-756q0 -23 -9 -32t-32 -9h-90q-23 0 -32 9t-9 32v942q0 23 9.5 32t31.5 9h90q23 0 32 -9t9 -32z" glyph-name="r" horiz-adv-x="815" unicode="r"/><glyph d="M274 778q-10 -66 47.5 -103.5t176.5 -78.5q63 -23 94 -34t85 -39.5t80.5 -55.5t51.5 -70t27 -96q8 -147 -100.5 -233t-293.5 -78q-184 6 -352 104q-31 18 -12 60l33 67q20 41 63 19q102 -53 186 -74q68 -12 134.5 -12t115.5 31.5t52 88.5q2 49 -39 88t-76 53.5t-127 47.5 q-18 6 -27 10q-133 47 -208.5 108.5t-80.5 176.5q-4 137 103.5 214t273.5 62q147 -14 273 -82q31 -16 12 -59l-33 -68q-14 -27 -65 -8q-117 49 -209 53q-169 8 -185 -92z" glyph-name="s" horiz-adv-x="907" unicode="s"/><glyph d="M193 827q0 20 -21 21h-82q-23 0 -32 9t-9 32v65q0 23 9.5 32t31.5 9h82q20 0 21 21v186q0 23 9 32t31 9h91q23 0 32 -9t9 -32v-186q0 -20 20 -21h180q23 0 32 -9t9 -32v-65q0 -23 -9 -32t-32 -9h-180q-20 0 -20 -21v-518q0 -70 45 -111.5t102 -41.5q70 0 119 57 q27 33 57 2l47 -47q18 -23 15.5 -37t-27.5 -43q-88 -98 -229 -96q-121 2 -211 91t-90 226v518z" glyph-name="t" horiz-adv-x="770" unicode="t"/><glyph d="M745 41v37q-104 -78 -223 -86q-152 -10 -281.5 86t-129.5 250v655q0 23 9 32t32 9h90q23 0 32 -9t9 -32v-590q0 -113 71.5 -177t180.5 -60q117 6 210 82v745q0 23 9.5 32t31.5 9h91q23 0 32 -9t9 -32v-942q0 -23 -9.5 -32t-31.5 -9h-91q-23 0 -32 9t-9 32z" glyph-name="u" horiz-adv-x="1048" unicode="u"/><glyph d="M494 274l262 719q8 23 15 27t30 4h90q14 0 20.5 -1t15.5 -9t-1 -25l-357 -952q-10 -23 -17 -30t-28 -7h-82q-20 0 -27 7t-18 30l-356 952q-8 23 2 29t33 6h90q23 0 30 -4t15 -27l262 -719q2 -8 10.5 -8t10.5 8z" glyph-name="v" horiz-adv-x="966" unicode="v"/><glyph d="M977 37l-236 659q-4 8 -10 8.5t-10 -8.5l-236 -659q-8 -23 -16 -30t-29 -7h-67q-20 0 -29.5 7t-15.5 30l-287 952q-6 23 3 29t32 6h90q16 0 22.5 -1t12.5 -8t10 -22l192 -665q2 -8 10.5 -8.5t10.5 8.5l235 659q8 23 16.5 30t29.5 7h53q20 0 28.5 -7t16.5 -30l235 -659 q2 -8 10.5 -8.5t10.5 8.5l192 665q4 14 10.5 21.5t12.5 8.5t22 1h90q14 0 20.5 -1t15 -9t-0.5 -25l-286 -952q-6 -23 -15.5 -30t-29.5 -7h-68q-20 0 -28.5 6t-16.5 31z" glyph-name="w" horiz-adv-x="1462" unicode="w"/><glyph d="M487 385l-251 -344q-18 -25 -28.5 -33t-33.5 -8h-117q-20 0 -25 12.5t5 28.5l344 473q8 12 0 25l-324 444q-10 16 -5 28.5t26 12.5h117q23 0 33 -8t28 -33l231 -319q10 -14 21 0l231 319q18 25 28.5 33t33.5 8h117q20 0 25 -12.5t-5 -28.5l-324 -444q-8 -12 0 -25 l344 -473q10 -16 5 -28.5t-25 -12.5h-117q-23 0 -33 8t-28 33l-252 344q-11 14 -21 0z" glyph-name="x" horiz-adv-x="995" unicode="x"/><glyph d="M494 274l262 719q8 23 15 27t30 4h90q14 0 20.5 -1t15.5 -9t-1 -25l-484 -1308q-33 -88 -101.5 -138.5t-143 -51.5t-150.5 26q-39 16 -27 51l27 74q10 33 43 20q164 -57 219 94l82 228q12 33 0 63l-350 942q-8 23 2 29t33 6h90q23 0 30 -4t15 -27l262 -719q2 -8 10.5 -8 t10.5 8z" glyph-name="y" horiz-adv-x="966" unicode="y"/><glyph d="M827 844l-536 -664q-10 -16 8 -16h489q23 0 32 -9.5t9 -31.5v-82q0 -23 -9 -32t-32 -9h-677q-23 0 -32 9t-9 32v86q0 35 14 53l537 662q4 6 2 12t-11 6h-481q-23 0 -32 9.5t-9 31.5v82q0 23 9.5 32t31.5 9h678q25 0 33 -9t8 -32v-78q0 -34 -23 -61z" glyph-name="z" horiz-adv-x="919" unicode="z"/><glyph d="M70 797q0 23 9 32t32 9q33 0 54 12t31.5 23.5t15.5 45t5 44t2 53.5v411q0 156 91 236t239 86q23 2 32 -8t9 -33v-82q0 -23 -9.5 -31t-31.5 -10q-55 -4 -89 -26.5t-46.5 -65.5t-15.5 -69.5t-3 -75.5v-387q0 -78 -19.5 -120t-62.5 -85q82 -82 82 -221v-574q0 -49 3 -75.5 t15.5 -69.5t46.5 -65.5t89 -26.5q23 -2 32 -10.5t9 -30.5v-82q0 -23 -9.5 -33t-31.5 -8q-147 6 -238.5 86t-91.5 235v615q-2 43 -2 53t-5 44t-15.5 45t-32 23.5t-53.5 12.5q-23 0 -32 9t-9 32v82z" glyph-name="braceleft" horiz-adv-x="659" unicode="{"/><glyph d="M348 -557q0 -23 -9 -32t-32 -9h-94q-23 0 -32 9t-9 32v2050q0 23 9 32t32 9h94q23 0 32 -9t9 -32v-2050z" glyph-name="bar" horiz-adv-x="520" unicode="|"/><glyph d="M590 797v-82q0 -23 -9.5 -32t-31.5 -9q-33 0 -54.5 -12.5t-31.5 -23.5t-15.5 -45t-5.5 -44t-2 -53v-615q0 -156 -91 -235.5t-238 -85.5q-23 -2 -32 8t-9 33v82q0 23 9 30.5t32 10.5q55 4 88.5 26.5t46 65.5t15.5 69.5t3 75.5v574q0 139 82 221q-43 43 -62.5 85t-19.5 120 v387q0 49 -3 75.5t-15.5 69.5t-46 65.5t-88.5 26.5q-23 2 -32 10.5t-9 30.5v82q0 23 9 33t32 8q147 -6 238 -86t91 -236v-411q2 -43 2 -53.5t5.5 -44t15.5 -45t31.5 -23.5t54.5 -12q23 0 32 -9t9 -32z" glyph-name="braceright" horiz-adv-x="659" unicode="}"/><glyph d="M514 676q-113 43 -145 43q-86 0 -144 -92q-12 -18 -32 -6l-105 59q-16 10 -8 31q35 78 115.5 130t169.5 50q66 -2 210 -64q98 -43 146 -43q86 0 143 93q12 18 33 6l104 -60q16 -10 9 -30q-35 -78 -116 -130.5t-169 -50.5q-66 3 -211 64z" glyph-name="asciitilde" horiz-adv-x="1089" unicode="~"/><glyph d="M195 702h73q23 0 32 -9t9 -31l10 -1031q0 -23 -9 -32t-31 -9h-95q-23 0 -32 9.5t-9 31.5l11 1031q0 23 9 31.5t32 8.5zM115 915.5q0 49.5 33.5 83t83 33.5t84 -33.5t34.5 -83t-34.5 -84t-84 -34.5t-83 34.5t-33.5 84z" glyph-name="exclamdown" horiz-adv-x="462" unicode="¡"/><glyph d="M618 1126v-102q150 -27 246 -137q29 -31 0 -60l-53 -53q-27 -27 -57 0q-104 94 -219 94q-121 0 -197 -86t-76 -270t76 -270t197 -86q115 0 219 94q31 27 57 0l53 -53q29 -29 0 -60q-100 -113 -246 -137v-102q0 -23 -9 -32t-31 -9h-91q-23 0 -32 9t-9 32v102 q-154 27 -255 154t-101 358t101.5 357t254.5 155v102q0 23 9.5 32t31.5 9h91q23 0 31.5 -9t8.5 -32z" glyph-name="cent" horiz-adv-x="954" unicode="¢"/><glyph d="M172 618q0 20 -20 21h-82q-23 0 -32 9t-9 32v74q0 23 9 32t32 9h82q20 0 20 20v113q0 279 103.5 393.5t287.5 120.5q29 2 38 -3t11 -22l6 -98q2 -35 -26 -37q-129 -10 -186.5 -81t-57.5 -257v-129q0 -20 21 -20h297q23 0 32 -9.5t9 -31.5v-74q0 -23 -9.5 -32t-31.5 -9 h-297q-20 0 -21 -21v-413q0 -31 5 -36t36 -5h496q23 0 32 -9.5t9 -31.5v-82q0 -23 -9.5 -32t-31.5 -9h-672q-23 0 -32 9t-9 32v577z" glyph-name="sterling" horiz-adv-x="954" unicode="£"/><glyph d="M467 463q0 20 -21 20h-104q-23 0 -32 9.5t-9 31.5v74q0 23 9 32t32 9h104q20 0 21 20v46l-410 688q-10 18 -4 29.5t23 11.5h104q25 0 32 -4.5t19 -24.5l312 -535q12 -20 24 0l312 535q12 20 19 24.5t32 4.5h104q16 0 22.5 -11.5t-3.5 -29.5l-410 -688v-46q0 -20 21 -20 h104q23 0 32 -9t9 -32v-74q0 -23 -9 -32t-32 -9h-104q-20 0 -21 -20v-23q0 -20 21 -20h104q23 0 32 -9.5t9 -31.5v-74q0 -23 -9 -32t-32 -9h-104q-20 0 -21 -20v-203q0 -23 -9 -32t-32 -9h-94q-23 0 -32 9t-9 32v203q0 20 -21 20h-104q-23 0 -32 9.5t-9 31.5v74q0 23 9 32 t32 9h104q20 0 21 20v23z" glyph-name="yen" horiz-adv-x="1110" unicode="¥"/><glyph d="M104 758q-6 131 103 213q-100 76 -103 194q-4 137 103.5 214t273.5 63q147 -14 273 -82q31 -16 12 -60l-33 -67q-14 -27 -65 -8q-117 49 -209 53q-168 8 -185 -92q-10 -66 47.5 -104t176.5 -78q63 -23 94 -34.5t85 -40t80.5 -55t51.5 -69.5t27 -96q8 -141 -95 -230 q88 -72 95 -178q8 -147 -100.5 -233t-293.5 -78q-184 6 -352 104q-31 18 -12 60l33 67q20 41 63 19q102 -53 186 -74q68 -12 134.5 -12t115.5 31.5t52 88.5q2 49 -39 88t-76 53.5t-127 47.5q-18 6 -27 10q-133 47 -209 108.5t-80 176.5zM498 596l65 -25q96 33 99 111 q2 29 -12.5 54.5t-33 43t-56.5 36t-63.5 27.5l-76.5 27q-133 -8 -146 -92q-10 -66 47.5 -103.5t176.5 -78.5z" glyph-name="section" horiz-adv-x="907" unicode="§"/><glyph d="M0 1653q0 49 34 84t83 35t84 -35t35 -84t-35 -83t-84 -34t-83 34t-34 83zM383 1653q0 49 34 84t83 35t83.5 -35t34.5 -84t-34.5 -83t-83.5 -34t-83 34t-34 83z" glyph-name="dieresis" horiz-adv-x="618" unicode="¨"/><glyph d="M156 715q0 301 212 514t513 213t514 -213t213 -514t-213 -513t-514 -212t-513 212t-212 513zM283 715q0 -248 175 -423t422.5 -175t423 175t175.5 423t-175.5 423t-423 175t-422.5 -175t-175 -423zM885 197q-84 0 -160 28.5t-141.5 86t-104.5 163t-39 242.5t39 242.5 t104.5 163t141.5 86t160 28.5q205 0 329 -145q29 -31 0 -60l-53 -53q-27 -27 -57 0q-104 94 -219 94q-121 0 -197 -86t-76 -270.5t76 -270.5t197 -86q115 0 219 95q31 27 57 0l53 -54q29 -29 0 -59q-124 -145 -329 -145z" glyph-name="copyright" horiz-adv-x="1763" unicode="©"/><glyph d="M467 852q-20 0 -21 20v23q-51 -35 -114.5 -42t-117.5 10.5t-91 64.5t-37 116q0 68 37 116t91 65.5t117.5 10.5t114.5 -42v33q0 57 -39.5 89t-95 24.5t-92.5 -50.5q-12 -16 -29 0l-40 41q-12 12 0 27q55 68 151 83t174 -41.5t78 -170.5v-357q0 -20 -21 -20h-65z M188 1044.5q0 -83.5 88.5 -103t169.5 35.5v135q-82 55 -170 35.5t-88 -103z" glyph-name="ordfeminine" horiz-adv-x="632" unicode="ª"/><glyph d="M90 489q-23 23 0 46l391 380q14 12 25.5 7.5t11.5 -19.5v-149q0 -27 -20 -47l-189 -183q-12 -12 0 -24l189 -183q20 -20 20 -47v-149q0 -14 -11 -19.5t-26 7.5zM451 489q-23 23 0 46l391 380q14 12 25.5 7.5t11.5 -19.5v-149q0 -27 -21 -47l-188 -183q-12 -12 0 -24 l188 -183q20 -20 21 -47v-149q0 -14 -11.5 -19.5t-25.5 7.5z" glyph-name="guillemotleft" horiz-adv-x="972" unicode="«"/><glyph d="M102 604q0 23 9.5 32t31.5 9h920q23 0 32 -9t9 -32v-82q0 -23 -9.5 -32t-31.5 -9h-920q-23 0 -32 9.5t-9 31.5v82z" glyph-name="uni00AD" horiz-adv-x="1206" unicode="­"/><glyph d="M160 715q0 301 212 514t513 213t514 -213t213 -514t-213 -513t-514 -212t-513 212t-212 513zM287 715q0 -248 175 -423t423 -175t423 175t175 423t-175 423t-423 175t-423 -175t-175 -423zM905 1188q152 0 230.5 -68.5t78.5 -191.5q0 -207 -210 -248l223 -381 q6 -10 3 -17.5t-13 -7.5h-117q-18 0 -31 19l-225 379h-62q-20 0 -23 -3t-3 -24v-346q0 -25 -25 -25h-102q-27 0 -27 25v862q0 27 27 27h276zM756 1016v-178q0 -18 3 -21.5t23 -3.5h154q66 0 101.5 36t35.5 80t-36 79.5t-101 35.5h-154q-20 0 -23 -4t-3 -24z" glyph-name="registered" horiz-adv-x="1771" unicode="®"/><glyph d="M20 1634q0 23 9.5 32t31.5 9h408q23 0 32 -9t9 -32v-49q0 -23 -9 -32t-32 -9h-408q-23 0 -32 9.5t-9 31.5v49z" glyph-name="macron" horiz-adv-x="530" unicode="¯"/><glyph d="M311 1020q-84 0 -146.5 62.5t-62.5 146.5q0 88 62.5 150.5t146.5 62.5q88 0 150.5 -62.5t62.5 -150.5q0 -84 -62.5 -146.5t-150.5 -62.5zM240 1229q0 -31 20.5 -51.5t51 -20.5t52 20.5t21.5 51.5t-21.5 52.5t-52 21.5t-51 -21.5t-20.5 -52.5z" glyph-name="degree" horiz-adv-x="626" unicode="°"/><glyph d="M92 1360q45 63 116 78.5t128 -17t72 -98.5q14 -63 -17 -116.5t-76 -85t-85 -72.5t-40 -78v-4q0 -14 2.5 -16.5t14.5 -2.5h190q16 0 17 -16v-64q0 -16 -17 -16h-303q-18 0 -18 16v78q0 76 42 135.5t89 88t77.5 64.5t14.5 73q-14 33 -50 36t-81 -45q-14 -18 -29 -6l-43 35 q-16 15 -4 33z" glyph-name="uni00B2" horiz-adv-x="499" unicode="²"/><glyph d="M229 1118h-10q-16 0 -16 17v61q0 16 16 16h23q49 0 69.5 35t1.5 66q-16 29 -54 32t-81 -38q-10 -12 -22 0l-45 45q-10 10 2 22q92 98 200 56q84 -33 103 -113q18 -80 -47 -146q78 -47 86 -132t-47 -136q-57 -59 -146.5 -62t-171.5 66q-12 12 0 25l41 45q12 12 25 2 q66 -43 114.5 -37t69 49t-10 85t-100.5 42z" glyph-name="uni00B3" horiz-adv-x="524" unicode="³"/><glyph d="M18 1626l207 227q29 33 60 2l43 -43q29 -29 0 -57l-222 -213q-27 -27 -59 6l-22 23q-30 28 -7 55z" glyph-name="acute" horiz-adv-x="348" unicode="´"/><glyph d="M1235 -598q-23 0 -32 9t-9 32v1788q0 23 -9 32t-32 9h-260q-23 0 -32 -9.5t-9 -31.5v-1788q0 -23 -9 -32t-32 -9h-94q-23 0 -32 9t-9 32v1063q0 51 -8.5 59t-59.5 8h-100q-174 0 -300 125t-126 306q0 176 115.5 303t281.5 127h1043q23 0 32 -9.5t9 -31.5v-80 q0 -23 -9.5 -32t-31.5 -9h-111q-23 0 -32 -9.5t-9 -31.5v-1788q0 -23 -9 -32t-32 -9h-94z" glyph-name="paragraph" horiz-adv-x="1644" unicode="¶"/><glyph d="M61 753.5q0 53.5 37 89.5t88.5 36t88 -36t36.5 -89.5t-36.5 -89t-88 -35.5t-88.5 35.5t-37 89z" glyph-name="periodcentered" horiz-adv-x="374" unicode="·"/><glyph d="M104 -240l-77 21q-29 6 -23 29l80 262l139 -13l-43 -157q104 49 196.5 -11.5t92.5 -181.5q0 -139 -121 -209.5t-237 -7.5q-16 8 -7 29l27 82q10 20 31 10q61 -27 110.5 5t49.5 91q0 74 -70 99.5t-119 -37.5q-13 -15 -29 -11z" glyph-name="cedilla" horiz-adv-x="468" unicode="¸"/><glyph d="M33 1311l114 114q8 8 21 9h78q16 0 16 -17v-549q0 -16 -16 -16h-82q-16 0 -17 16v420l-45 -45q-12 -12 -24 0l-45 45q-12 11 0 23z" glyph-name="uni00B9" horiz-adv-x="405" unicode="¹"/><glyph d="M590 1153v-20q0 -137 -72 -211t-184.5 -74t-184 73.5t-71.5 211.5v20q0 137 71.5 211t184 74t184.5 -74t72 -211zM333.5 946q145.5 0 145.5 199q-4 195 -145 194q-145 0 -146 -198q0 -195 145.5 -195z" glyph-name="ordmasculine" horiz-adv-x="667" unicode="º"/><glyph d="M883 489l-391 -380q-14 -12 -25.5 -7.5t-11.5 19.5v149q0 27 20 47l189 183q12 12 0 24l-189 183q-20 20 -20 47v149q0 14 11 19.5t26 -7.5l391 -380q23 -23 0 -46zM522 489l-391 -380q-14 -12 -25.5 -7.5t-11.5 19.5v149q0 27 21 47l188 183q12 12 0 24l-188 183 q-20 20 -21 47v149q0 14 11.5 19.5t25.5 -7.5l391 -380q23 -23 0 -46z" glyph-name="guillemotright" horiz-adv-x="972" unicode="»"/><glyph d="M1059 618l-205 -305q-10 -12 4 -12h199q10 0 10 12v303q0 4 -3 5t-5 -3zM1184 23q0 -23 -23 -23h-69q-25 0 -25 23v157q0 12 -10 13h-332q-23 0 -23 22v35q0 23 11 37l346 514q10 16 31 16h71q23 0 23 -22v-482q0 -12 12 -12h27q23 0 22 -22v-64q0 -23 -22 -22h-27 q-12 0 -12 -13v-157zM416 43l299 1346q6 27 14 36t25 9h53q35 0 24 -41l-299 -1346q-6 -27 -14 -36t-24 -9h-54q-34 0 -24 41zM106 1262l162 161q10 10 23 11h69q23 0 23 -23v-772q0 -23 -23 -23h-69q-25 0 -25 23v635l-88 -86q-16 -12 -31 2l-41 41q-16 15 0 31z" glyph-name="onequarter" horiz-adv-x="1341" unicode="¼"/><glyph d="M999 817q88 6 158 -46t70 -144q0 -59 -35 -111.5t-85 -91.5t-100.5 -78t-85 -92t-34.5 -113v-8q0 -18 3 -21t21 -3h287q25 0 25 -23v-63q0 -23 -25 -23h-405q-23 0 -23 23v94q0 82 37 152.5t89 116.5t103.5 85t86 78t30.5 78q-6 76 -84 90t-137 -45q-16 -16 -33 0l-35 35 q-16 14 2 32q66 72 170 78zM106 1262l162 161q10 10 23 11h69q23 0 23 -23v-772q0 -23 -23 -23h-69q-25 0 -25 23v635l-88 -86q-16 -12 -31 2l-41 41q-16 15 0 31zM416 43l299 1346q6 27 14 36t25 9h53q35 0 24 -41l-299 -1346q-6 -27 -14 -36t-24 -9h-54q-34 0 -24 41z" glyph-name="onehalf" horiz-adv-x="1329" unicode="½"/><glyph d="M596 43l299 1346q6 27 14.5 36t24.5 9h53q35 0 25 -41l-299 -1346q-6 -27 -14.5 -36t-24.5 -9h-53q-35 0 -25 41zM1239 618l-205 -305q-8 -12 4 -12h199q10 0 10 12v303q0 4 -3 5t-5 -3zM1364 23q0 -23 -23 -23h-69q-25 0 -25 23v157q0 12 -10 13h-332q-23 0 -22 22v35 q0 23 10 37l346 514q10 16 31 16h71q23 0 23 -22v-482q0 -12 12 -12h27q23 0 22 -22v-64q0 -23 -22 -22h-27q-12 0 -12 -13v-157zM475 842q8 76 -32 120t-103 44q-23 0 -23 22v55q0 23 23 23q59 0 90 35t27 84q-4 68 -53.5 98.5t-107.5 20t-95 -49.5q-16 -16 -31 0l-35 35 q-16 16 0 33q74 80 191 80q94 0 166.5 -60.5t72.5 -156.5q0 -111 -78 -168q113 -78 101 -207q-12 -111 -85 -172.5t-181 -61.5q-127 0 -207 86q-16 20 0 37l35 37q14 14 34 -2q78 -70 178.5 -48t112.5 116z" glyph-name="threequarters" horiz-adv-x="1521" unicode="¾"/><glyph d="M377 592v33q0 23 9 32t32 9h94q23 0 32 -9.5t9 -31.5v-31q0 -117 -30.5 -210t-75 -150.5t-88.5 -105.5t-74.5 -102.5t-30.5 -115.5q0 -88 72.5 -134t173 -31t170.5 89q27 27 55 0l55 -55q29 -29 0 -60q-131 -143 -329 -143q-152 0 -261.5 90t-109.5 254q0 86 30.5 154.5 t74.5 117t87 99.5t74 127t31 174zM582 913.5q0 -49.5 -34 -84t-83 -34.5t-84 34.5t-35 84t35 83t84 33.5t83 -33.5t34 -83z" glyph-name="questiondown" horiz-adv-x="864" unicode="¿"/><glyph d="M602 1434h94q16 0 24.5 -2t16.5 -10.5t15 -28.5l477 -1352q14 -41 -27 -41h-104q-18 0 -26.5 2t-14.5 10t-15 29l-106 307q-6 18 -13.5 23.5t-27.5 5.5h-492q-20 0 -27 -5t-14 -24l-106 -307q-10 -29 -19.5 -35t-35.5 -6h-105q-41 0 -26 41l477 1352q10 29 20 35t35 6z M662 1149q-2 10 -12.5 10t-12.5 -10l-201 -586q-8 -23 15 -22h397q23 0 14 22zM600 1886l207 -227q23 -27 -6 -55l-23 -23q-33 -33 -59 -6l-221 213q-29 29 0 57l43 43q30 31 59 -2z" glyph-name="Agrave" horiz-adv-x="1298" unicode="À"/><glyph d="M602 1434h94q16 0 24.5 -2t16.5 -10.5t15 -28.5l477 -1352q14 -41 -27 -41h-104q-18 0 -26.5 2t-14.5 10t-15 29l-106 307q-6 18 -13.5 23.5t-27.5 5.5h-492q-20 0 -27 -5t-14 -24l-106 -307q-10 -29 -19.5 -35t-35.5 -6h-105q-41 0 -26 41l477 1352q10 29 20 35t35 6z M662 1149q-2 10 -12.5 10t-12.5 -10l-201 -586q-8 -23 15 -22h397q23 0 14 22zM498 1659l207 227q29 33 59 2l43 -43q29 -29 0 -57l-221 -213q-27 -27 -60 6l-22 23q-29 28 -6 55z" glyph-name="Aacute" horiz-adv-x="1298" unicode="Á"/><glyph d="M602 1434h94q16 0 24.5 -2t16.5 -10.5t15 -28.5l477 -1352q14 -41 -27 -41h-104q-18 0 -26.5 2t-14.5 10t-15 29l-106 307q-6 18 -13.5 23.5t-27.5 5.5h-492q-20 0 -27 -5t-14 -24l-106 -307q-10 -29 -19.5 -35t-35.5 -6h-105q-41 0 -26 41l477 1352q10 29 20 35t35 6z M662 1149q-2 10 -12.5 10t-12.5 -10l-201 -586q-8 -23 15 -22h397q23 0 14 22zM387 1675l234 213q29 29 57 0l233 -213q31 -27 0 -57l-43 -43q-31 -31 -57 0l-143 156q-18 18 -37 0l-144 -156q-27 -31 -57 0l-43 43q-31 30 0 57z" glyph-name="Acircumflex" horiz-adv-x="1298" unicode="Â"/><glyph d="M602 1434h94q16 0 24.5 -2t16.5 -10.5t15 -28.5l477 -1352q14 -41 -27 -41h-104q-18 0 -26.5 2t-14.5 10t-15 29l-106 307q-6 18 -13.5 23.5t-27.5 5.5h-492q-20 0 -27 -5t-14 -24l-106 -307q-10 -29 -19.5 -35t-35.5 -6h-105q-41 0 -26 41l477 1352q10 29 20 35t35 6z M662 1149q-2 10 -12.5 10t-12.5 -10l-201 -586q-8 -23 15 -22h397q23 0 14 22zM791 1567q-53 0 -113 23.5t-95.5 43t-77.5 10t-77 -62.5q-12 -18 -33 -6l-78 49q-18 12 -8 31q70 129 199 129q51 0 109.5 -23.5t94.5 -43t79 -11.5t79 63q12 18 33 7l78 -50q18 -12 8 -30 q-69 -129 -198 -129z" glyph-name="Atilde" horiz-adv-x="1298" unicode="Ã"/><glyph d="M602 1434h94q16 0 24.5 -2t16.5 -10.5t15 -28.5l477 -1352q14 -41 -27 -41h-104q-18 0 -26.5 2t-14.5 10t-15 29l-106 307q-6 18 -13.5 23.5t-27.5 5.5h-492q-20 0 -27 -5t-14 -24l-106 -307q-10 -29 -19.5 -35t-35.5 -6h-105q-41 0 -26 41l477 1352q10 29 20 35t35 6z M662 1149q-2 10 -12.5 10t-12.5 -10l-201 -586q-8 -23 15 -22h397q23 0 14 22zM340 1694q0 49 34 83.5t83 34.5t83.5 -34.5t34.5 -83.5t-34.5 -83t-83.5 -34t-83 34t-34 83zM723 1694q0 49 34 83.5t83 34.5t83.5 -34.5t34.5 -83.5t-34.5 -83t-83.5 -34t-83 34t-34 83z" glyph-name="Adieresis" horiz-adv-x="1298" unicode="Ä"/><glyph d="M602 1434h94q16 0 24.5 -2t16.5 -10.5t15 -28.5l477 -1352q14 -41 -27 -41h-104q-18 0 -26.5 2t-14.5 10t-15 29l-106 307q-6 18 -13.5 23.5t-27.5 5.5h-492q-20 0 -27 -5t-14 -24l-106 -307q-10 -29 -19.5 -35t-35.5 -6h-105q-41 0 -26 41l477 1352q10 29 20 35t35 6z M662 1149q-2 10 -12.5 10t-12.5 -10l-201 -586q-8 -23 15 -22h397q23 0 14 22zM578 1747q0 -29 21.5 -50.5t50 -21.5t50 21.5t21.5 50.5t-21.5 50.5t-50 21.5t-50 -21.5t-21.5 -50.5zM461 1747q0 78 55 133t133 55t133.5 -55t55.5 -133t-55.5 -133t-133.5 -55t-133 55 t-55 133z" glyph-name="Aring" horiz-adv-x="1298" unicode="Å"/><glyph d="M602 377h-199q-20 0 -27 -5t-14 -24l-106 -307q-10 -29 -19.5 -35t-35.5 -6h-105q-41 0 -26 41l477 1352q10 29 20.5 35t34.5 6h852q23 0 32 -9.5t9 -31.5v-82q0 -23 -9 -32t-32 -9h-594q-31 0 -36 -5t-5 -36v-350q0 -31 5 -36t36 -5h492q23 0 32 -9.5t9 -31.5v-82 q0 -23 -9.5 -32t-31.5 -9h-492q-31 0 -36 -5t-5 -36v-428q0 -31 5 -36t36 -5h594q23 0 32 -9.5t9 -31.5v-82q0 -23 -9 -32t-32 -9h-770q-23 0 -32 9t-9 32v295q0 31 -5 36t-36 5zM602 541q31 0 36 5t5 36v577q-8 0 -12 -10l-195 -586q-8 -23 15 -22h151z" glyph-name="AE" horiz-adv-x="1585" unicode="Æ"/><glyph d="M569 -240l-77 21q-29 6 -23 29l63 208q-193 59 -307 234.5t-114 464.5q0 358 172 541.5t440 183.5q274 0 438 -182q27 -31 0 -58l-55 -55q-29 -29 -57 0q-131 131 -326 131q-205 0 -319.5 -143.5t-116.5 -417.5q2 -274 116.5 -417.5t319.5 -143.5q195 0 326 131 q29 29 57 0l55 -56q27 -27 0 -57q-164 -182 -438 -182q-10 0 -26.5 1t-26.5 1l-25 -92q104 49 196.5 -11.5t92.5 -181.5q0 -139 -121 -209.5t-238 -7.5q-16 8 -6 29l27 82q10 20 31 10q61 -27 110 5t49 91q0 74 -69.5 99.5t-118.5 -37.5q-13 -15 -29 -11z" glyph-name="Ccedilla" horiz-adv-x="1263" unicode="Ç"/><glyph d="M348 633v-428q0 -31 5 -36t36 -5h594q23 0 32 -9.5t9 -31.5v-82q0 -23 -9 -32t-32 -9h-770q-23 0 -32 9t-9 32v1352q0 23 9 32t32 9h770q23 0 32 -9.5t9 -31.5v-82q0 -23 -9 -32t-32 -9h-594q-31 0 -36 -5t-5 -36v-350q0 -31 5 -36t36 -5h492q23 0 32 -9.5t9 -31.5v-82 q0 -23 -9.5 -32t-31.5 -9h-492q-31 0 -36 -5t-5 -36zM526 1888l207 -227q23 -27 -6 -55l-22 -23q-33 -33 -60 -6l-221 213q-29 29 0 57l43 43q30 31 59 -2z" glyph-name="Egrave" horiz-adv-x="1130" unicode="È"/><glyph d="M348 633v-428q0 -31 5 -36t36 -5h594q23 0 32 -9.5t9 -31.5v-82q0 -23 -9 -32t-32 -9h-770q-23 0 -32 9t-9 32v1352q0 23 9 32t32 9h770q23 0 32 -9.5t9 -31.5v-82q0 -23 -9 -32t-32 -9h-594q-31 0 -36 -5t-5 -36v-350q0 -31 5 -36t36 -5h492q23 0 32 -9.5t9 -31.5v-82 q0 -23 -9.5 -32t-31.5 -9h-492q-31 0 -36 -5t-5 -36zM463 1661l207 227q29 33 59 2l43 -43q29 -29 0 -57l-221 -213q-27 -27 -59 6l-23 23q-29 28 -6 55z" glyph-name="Eacute" horiz-adv-x="1130" unicode="É"/><glyph d="M348 633v-428q0 -31 5 -36t36 -5h594q23 0 32 -9.5t9 -31.5v-82q0 -23 -9 -32t-32 -9h-770q-23 0 -32 9t-9 32v1352q0 23 9 32t32 9h770q23 0 32 -9.5t9 -31.5v-82q0 -23 -9 -32t-32 -9h-594q-31 0 -36 -5t-5 -36v-350q0 -31 5 -36t36 -5h492q23 0 32 -9.5t9 -31.5v-82 q0 -23 -9.5 -32t-31.5 -9h-492q-31 0 -36 -5t-5 -36zM336 1677l233 213q29 29 58 0l233 -213q31 -27 0 -57l-43 -43q-31 -31 -57 0l-144 156q-18 18 -36 0l-144 -156q-27 -31 -57 0l-43 43q-31 30 0 57z" glyph-name="Ecircumflex" horiz-adv-x="1130" unicode="Ê"/><glyph d="M348 633v-428q0 -31 5 -36t36 -5h594q23 0 32 -9.5t9 -31.5v-82q0 -23 -9 -32t-32 -9h-770q-23 0 -32 9t-9 32v1352q0 23 9 32t32 9h770q23 0 32 -9.5t9 -31.5v-82q0 -23 -9 -32t-32 -9h-594q-31 0 -36 -5t-5 -36v-350q0 -31 5 -36t36 -5h492q23 0 32 -9.5t9 -31.5v-82 q0 -23 -9.5 -32t-31.5 -9h-492q-31 0 -36 -5t-5 -36zM289 1694q0 49 33.5 83.5t83 34.5t84 -34.5t34.5 -83.5t-34.5 -83t-84 -34t-83 34t-33.5 83zM672 1694q0 49 33.5 83.5t83 34.5t84 -34.5t34.5 -83.5t-34.5 -83t-84 -34t-83 34t-33.5 83z" glyph-name="Edieresis" horiz-adv-x="1130" unicode="Ë"/><glyph d="M348 41q0 -23 -9 -32t-32 -9h-94q-23 0 -32 9t-9 32v1352q0 23 9 32t32 9h94q23 0 32 -9.5t9 -31.5v-1352zM209 1886l207 -227q23 -27 -6 -55l-23 -23q-33 -33 -59 -6l-222 213q-29 29 0 57l44 43q30 31 59 -2z" glyph-name="Igrave" horiz-adv-x="520" unicode="Ì"/><glyph d="M348 41q0 -23 -9 -32t-32 -9h-94q-23 0 -32 9t-9 32v1352q0 23 9 32t32 9h94q23 0 32 -9.5t9 -31.5v-1352zM104 1659l207 227q29 33 60 2l43 -43q29 -29 0 -57l-221 -213q-27 -27 -60 6l-22 23q-30 28 -7 55z" glyph-name="Iacute" horiz-adv-x="520" unicode="Í"/><glyph d="M348 41q0 -23 -9 -32t-32 -9h-94q-23 0 -32 9t-9 32v1352q0 23 9 32t32 9h94q23 0 32 -9.5t9 -31.5v-1352zM-2 1675l233 213q29 29 58 0l233 -213q31 -27 0 -57l-43 -43q-31 -31 -57 0l-143 156q-18 18 -37 0l-144 -156q-27 -31 -57 0l-43 43q-31 30 0 57z" glyph-name="Icircumflex" horiz-adv-x="520" unicode="Î"/><glyph d="M350 41q0 -23 -9 -32t-32 -9h-94q-23 0 -32 9t-9 32v1352q0 23 9.5 32t31.5 9h94q23 0 32 -9.5t9 -31.5v-1352zM-47 1694q0 49 33.5 83.5t83 34.5t84 -34.5t34.5 -83.5t-34.5 -83t-84 -34t-83 34t-33.5 83zM336 1694q0 49 33.5 83.5t83 34.5t84 -34.5t34.5 -83.5 t-34.5 -83t-84 -34t-83 34t-33.5 83z" glyph-name="Idieresis" horiz-adv-x="522" unicode="Ï"/><glyph d="M172 877q0 20 -20 20h-66q-23 0 -32 9t-9 32v74q0 23 9 32t32 9h66q20 0 20 20v320q0 23 9 32t32 9h416q131 0 240.5 -37t199.5 -117t141.5 -223.5t51.5 -340t-51.5 -340t-141.5 -223t-199.5 -116.5t-240.5 -37h-416q-23 0 -32 9t-9 32v836zM348 877v-672q0 -31 5 -36 t36 -5h240q219 0 337.5 124t118.5 429t-118.5 429t-337.5 124h-240q-31 0 -36 -5t-5 -36v-156q0 -20 21 -20h163q23 0 32 -9.5t9 -31.5v-74q0 -23 -9 -32t-32 -9h-163q-21 0 -21 -20z" glyph-name="Eth" horiz-adv-x="1372" unicode="Ð"/><glyph d="M283 1434q20 0 39 -25l735 -1032q8 -10 15 -8t7 12v1012q0 23 9.5 32t31.5 9h94q23 0 32 -9.5t9 -31.5v-1352q0 -23 -9 -32t-32 -9h-69q-20 0 -39 25l-735 1032q-8 10 -15.5 8t-7.5 -12v-1012q0 -23 -9 -32t-32 -9h-94q-23 0 -32 9t-9 32v1352q0 23 9 32t32 9h70z M856 1567q-53 0 -112.5 23.5t-95.5 43t-78 10t-76 -62.5q-12 -18 -33 -6l-78 49q-18 12 -8 31q70 129 198 129q51 0 109.5 -23.5t94.5 -43t79 -11.5t80 63q12 18 33 7l78 -50q18 -12 8 -30q-70 -129 -199 -129z" glyph-name="Ntilde" horiz-adv-x="1427" unicode="Ñ"/><glyph d="M723 1442q268 0 440 -183.5t172 -542t-172 -541.5t-440 -183t-440 183t-172 541.5t172 542t440 183.5zM723 156q205 0 319.5 143t116.5 418q-2 274 -116.5 417.5t-319.5 143.5t-319.5 -143.5t-116.5 -417.5q2 -274 116.5 -417.5t319.5 -143.5zM672 1888l207 -227 q23 -27 -7 -55l-22 -23q-33 -33 -59 -6l-222 213q-29 29 0 57l43 43q31 31 60 -2z" glyph-name="Ograve" horiz-adv-x="1445" unicode="Ò"/><glyph d="M723 1442q268 0 440 -183.5t172 -542t-172 -541.5t-440 -183t-440 183t-172 541.5t172 542t440 183.5zM723 156q205 0 319.5 143t116.5 418q-2 274 -116.5 417.5t-319.5 143.5t-319.5 -143.5t-116.5 -417.5q2 -274 116.5 -417.5t319.5 -143.5zM618 1661l207 227 q29 33 60 2l43 -43q29 -29 0 -57l-221 -213q-27 -27 -60 6l-22 23q-30 28 -7 55z" glyph-name="Oacute" horiz-adv-x="1445" unicode="Ó"/><glyph d="M723 1442q268 0 440 -183.5t172 -542t-172 -541.5t-440 -183t-440 183t-172 541.5t172 542t440 183.5zM723 156q205 0 319.5 143t116.5 418q-2 274 -116.5 417.5t-319.5 143.5t-319.5 -143.5t-116.5 -417.5q2 -274 116.5 -417.5t319.5 -143.5zM461 1675l233 213 q29 29 58 0l233 -213q31 -27 0 -57l-43 -43q-31 -31 -57 0l-144 156q-18 18 -36 0l-144 -156q-27 -31 -57 0l-43 43q-31 30 0 57z" glyph-name="Ocircumflex" horiz-adv-x="1445" unicode="Ô"/><glyph d="M723 1442q268 0 440 -183.5t172 -542t-172 -541.5t-440 -183t-440 183t-172 541.5t172 542t440 183.5zM723 156q205 0 319.5 143t116.5 418q-2 274 -116.5 417.5t-319.5 143.5t-319.5 -143.5t-116.5 -417.5q2 -274 116.5 -417.5t319.5 -143.5zM866 1569 q-53 0 -112.5 23.5t-94 42t-76.5 9t-77 -62.5q-12 -16 -31 -4l-78 47q-18 12 -8 31q70 127 197 127q49 0 107.5 -23.5t94 -43t77.5 -10.5t79 64q12 14 33 7l78 -50q18 -12 8 -30q-70 -127 -197 -127z" glyph-name="Otilde" horiz-adv-x="1445" unicode="Õ"/><glyph d="M723 1442q268 0 440 -183.5t172 -542t-172 -541.5t-440 -183t-440 183t-172 541.5t172 542t440 183.5zM723 156q205 0 319.5 143t116.5 418q-2 274 -116.5 417.5t-319.5 143.5t-319.5 -143.5t-116.5 -417.5q2 -274 116.5 -417.5t319.5 -143.5zM414 1694q0 49 33.5 83.5 t83 34.5t84 -34.5t34.5 -83.5t-34.5 -83t-84 -34t-83 34t-33.5 83zM797 1694q0 49 33.5 83.5t83 34.5t84 -34.5t34.5 -83.5t-34.5 -83t-84 -34t-83 34t-33.5 83z" glyph-name="Odieresis" horiz-adv-x="1445" unicode="Ö"/><glyph d="M520 770q-14 -14 0 -29l170 -170q27 -31 0 -57l-61 -61q-29 -29 -58 0l-170 170q-14 14 -28 0l-170 -170q-31 -31 -60 0l-63 63q-27 25 4 55l170 170q14 14 0 29l-170 170q-29 29 0 57l61 62q29 29 58 0l170 -170q14 -14 28 0l172 172q29 29 58 0l61 -62q29 -29 0 -57z " glyph-name="multiply" horiz-adv-x="774" unicode="×"/><glyph d="M723 1442q174 0 309 -80l17 27q20 33 29 39t40 6h86q16 0 22.5 -11.5t-3.5 -29.5l-74 -121q186 -193 186 -555q0 -358 -172 -541.5t-440 -183.5q-176 0 -311 78l-17 -25q-20 -33 -28.5 -39t-40.5 -6h-86q-16 0 -22.5 11.5t3.5 29.5l74 121q-184 195 -184 555 q0 358 172 541.5t440 183.5zM723 156q205 0 319.5 143t116.5 418q-2 258 -104 401l-557 -905q94 -57 225 -57zM287 717q0 -258 102 -402l557 906q-98 57 -223 57q-205 0 -319.5 -143.5t-116.5 -417.5z" glyph-name="Oslash" horiz-adv-x="1425" unicode="Ø"/><glyph d="M672 -8q-246 0 -393.5 156.5t-147.5 469.5v775q0 23 9.5 32t31.5 9h94q23 0 32 -9.5t9 -31.5v-791q0 -238 102.5 -342t262 -104t262 104.5t102.5 341.5v791q0 23 9.5 32t31.5 9h94q23 0 32 -9.5t9 -31.5v-775q0 -313 -147 -469.5t-393 -156.5zM580 1888l206 -227 q23 -27 -6 -55l-22 -23q-33 -33 -60 -6l-221 213q-29 29 0 57l43 43q31 31 60 -2z" glyph-name="Ugrave" horiz-adv-x="1343" unicode="Ù"/><glyph d="M672 -8q-246 0 -393.5 156.5t-147.5 469.5v775q0 23 9.5 32t31.5 9h94q23 0 32 -9.5t9 -31.5v-791q0 -238 102.5 -342t262 -104t262 104.5t102.5 341.5v791q0 23 9.5 32t31.5 9h94q23 0 32 -9.5t9 -31.5v-775q0 -313 -147 -469.5t-393 -156.5zM557 1659l207 227 q29 33 59 2l43 -43q29 -29 0 -57l-221 -213q-27 -27 -59 6l-23 23q-29 28 -6 55z" glyph-name="Uacute" horiz-adv-x="1343" unicode="Ú"/><glyph d="M672 -8q-246 0 -393.5 156.5t-147.5 469.5v775q0 23 9.5 32t31.5 9h94q23 0 32 -9.5t9 -31.5v-791q0 -238 102.5 -342t262 -104t262 104.5t102.5 341.5v791q0 23 9.5 32t31.5 9h94q23 0 32 -9.5t9 -31.5v-775q0 -313 -147 -469.5t-393 -156.5zM410 1677l233 213 q29 29 57 0l234 -213q31 -27 0 -57l-43 -43q-31 -31 -57 0l-144 156q-18 18 -37 0l-143 -156q-27 -31 -57 0l-43 43q-31 30 0 57z" glyph-name="Ucircumflex" horiz-adv-x="1343" unicode="Û"/><glyph d="M672 -8q-246 0 -393.5 156.5t-147.5 469.5v775q0 23 9.5 32t31.5 9h94q23 0 32 -9.5t9 -31.5v-791q0 -238 102.5 -342t262 -104t262 104.5t102.5 341.5v791q0 23 9.5 32t31.5 9h94q23 0 32 -9.5t9 -31.5v-775q0 -313 -147 -469.5t-393 -156.5zM362 1694q0 49 34 83.5 t83 34.5t84 -34.5t35 -83.5t-35 -83t-84 -34t-83 34t-34 83zM745 1694q0 49 34 83.5t83 34.5t84 -34.5t35 -83.5t-35 -83t-84 -34t-83 34t-34 83z" glyph-name="Udieresis" horiz-adv-x="1343" unicode="Ü"/><glyph d="M584 870l311 535q12 20 19.5 24.5t31.5 4.5h105q16 0 22 -11.5t-4 -29.5l-410 -688v-664q0 -23 -9 -32t-32 -9h-94q-23 0 -32 9t-9 32v664l-409 688q-10 18 -4 29.5t22 11.5h105q25 0 32 -4.5t19 -24.5l311 -535q13 -20 25 0zM457 1659l207 227q29 33 59 2l43 -43 q29 -29 0 -57l-221 -213q-27 -27 -60 6l-22 23q-29 28 -6 55z" glyph-name="Yacute" horiz-adv-x="1142" unicode="Ý"/><glyph d="M172 1393q0 23 9 32t32 9h94q23 0 32 -9.5t9 -31.5v-172q0 -31 5 -36t36 -5h211q233 0 363.5 -132.5t130.5 -331t-130 -330.5t-364 -132h-211q-31 0 -36 -5t-5 -36v-172q0 -23 -9 -32t-32 -9h-94q-23 0 -32 9t-9 32v1352zM348 975v-516q0 -31 5 -36t36 -5h191 q174 0 258 81t84 218t-84 218t-258 81h-191q-31 0 -36 -5t-5 -36z" glyph-name="Thorn" horiz-adv-x="1142" unicode="Þ"/><glyph d="M707 1116q0 98 -103 144q-109 49 -211 -13q-127 -74 -127 -268v-938q0 -23 -9 -32t-32 -9h-90q-23 0 -32 9t-9 32v1003q0 227 187 336q154 90 335 50q178 -43 238 -189q25 -57 25 -125q0 -80 -44 -155.5t-88.5 -138t-44.5 -105.5q0 -41 27 -78t66 -67.5t77.5 -64.5 t65.5 -85t27 -115q0 -113 -80 -179.5t-236 -129.5q-37 -14 -51 22l-29 74q-12 37 29 58q18 10 66.5 32.5t68 33.5t40 36t20.5 53q2 45 -39 89t-90.5 79t-91.5 99.5t-42 142.5q0 80 44 146.5t88.5 126.5t44.5 126z" glyph-name="germandbls" horiz-adv-x="1013" unicode="ß"/><glyph d="M485 1040q168 0 285 -117.5t117 -275.5v-606q0 -23 -9.5 -32t-31.5 -9h-90q-23 0 -32 9t-9 32v41q-100 -74 -232 -82q-164 -10 -285.5 83t-121.5 257t121.5 257t285.5 83q127 -8 232 -82v51q0 98 -70 163t-164 65q-131 0 -217 -86q-27 -29 -55 0l-51 51q-29 29 0 59 q122 139 327 139zM487 141q125 2 228 86v226q-102 80 -228 86q-104 4 -171.5 -51.5t-67.5 -147.5t67.5 -147.5t171.5 -51.5zM469 1479l207 -228q23 -27 -6 -55l-23 -22q-33 -33 -59 -7l-221 213q-29 29 0 58l43 43q30 31 59 -2z" glyph-name="agrave" horiz-adv-x="999" unicode="à"/><glyph d="M485 1040q168 0 285 -117.5t117 -275.5v-606q0 -23 -9.5 -32t-31.5 -9h-90q-23 0 -32 9t-9 32v41q-100 -74 -232 -82q-164 -10 -285.5 83t-121.5 257t121.5 257t285.5 83q127 -8 232 -82v51q0 98 -70 163t-164 65q-131 0 -217 -86q-27 -29 -55 0l-51 51q-29 29 0 59 q122 139 327 139zM487 141q125 2 228 86v226q-102 80 -228 86q-104 4 -171.5 -51.5t-67.5 -147.5t67.5 -147.5t171.5 -51.5zM365 1249l206 228q29 33 60 2l43 -43q29 -29 0 -58l-221 -213q-27 -27 -60 6l-22 23q-29 28 -6 55z" glyph-name="aacute" horiz-adv-x="999" unicode="á"/><glyph d="M485 1040q168 0 285 -117.5t117 -275.5v-606q0 -23 -9.5 -32t-31.5 -9h-90q-23 0 -32 9t-9 32v41q-100 -74 -232 -82q-164 -10 -285.5 83t-121.5 257t121.5 257t285.5 83q127 -8 232 -82v51q0 98 -70 163t-164 65q-131 0 -217 -86q-27 -29 -55 0l-51 51q-29 29 0 59 q122 139 327 139zM487 141q125 2 228 86v226q-102 80 -228 86q-104 4 -171.5 -51.5t-67.5 -147.5t67.5 -147.5t171.5 -51.5zM258 1266l234 213q29 29 57 0l233 -213q31 -27 0 -58l-43 -43q-31 -31 -57 0l-143 156q-18 18 -37 0l-144 -156q-27 -31 -57 0l-43 43q-31 31 0 58z " glyph-name="acircumflex" horiz-adv-x="999" unicode="â"/><glyph d="M485 1040q168 0 285 -117.5t117 -275.5v-606q0 -23 -9.5 -32t-31.5 -9h-90q-23 0 -32 9t-9 32v41q-100 -74 -232 -82q-164 -10 -285.5 83t-121.5 257t121.5 257t285.5 83q127 -8 232 -82v51q0 98 -70 163t-164 65q-131 0 -217 -86q-27 -29 -55 0l-51 51q-29 29 0 59 q122 139 327 139zM487 141q125 2 228 86v226q-102 80 -228 86q-104 4 -171.5 -51.5t-67.5 -147.5t67.5 -147.5t171.5 -51.5zM666 1157q-53 0 -112.5 23.5t-95.5 43t-78 10.5t-77 -63q-12 -18 -33 -6l-77 49q-18 12 -9 31q70 129 199 129q51 0 109.5 -23.5t94.5 -43t79 -11 t79 63.5q12 18 33 6l78 -49q18 -12 8 -31q-69 -129 -198 -129z" glyph-name="atilde" horiz-adv-x="999" unicode="ã"/><glyph d="M485 1040q168 0 285 -117.5t117 -275.5v-606q0 -23 -9.5 -32t-31.5 -9h-90q-23 0 -32 9t-9 32v41q-100 -74 -232 -82q-164 -10 -285.5 83t-121.5 257t121.5 257t285.5 83q127 -8 232 -82v51q0 98 -70 163t-164 65q-131 0 -217 -86q-27 -29 -55 0l-51 51q-29 29 0 59 q122 139 327 139zM487 141q125 2 228 86v226q-102 80 -228 86q-104 4 -171.5 -51.5t-67.5 -147.5t67.5 -147.5t171.5 -51.5zM211 1284q0 49 34 84t83 35t83.5 -35t34.5 -84t-34.5 -83t-83.5 -34t-83 34t-34 83zM594 1284q0 49 34 84t83 35t83.5 -35t34.5 -84t-34.5 -83 t-83.5 -34t-83 34t-34 83z" glyph-name="adieresis" horiz-adv-x="999" unicode="ä"/><glyph d="M485 1040q168 0 285 -117.5t117 -275.5v-606q0 -23 -9.5 -32t-31.5 -9h-90q-23 0 -32 9t-9 32v41q-100 -74 -232 -82q-164 -10 -285.5 83t-121.5 257t121.5 257t285.5 83q127 -8 232 -82v51q0 98 -70 163t-164 65q-131 0 -217 -86q-27 -29 -55 0l-51 51q-29 29 0 59 q122 139 327 139zM487 141q125 2 228 86v226q-102 80 -228 86q-104 4 -171.5 -51.5t-67.5 -147.5t67.5 -147.5t171.5 -51.5zM449 1337.5q0 -28.5 21.5 -50t50 -21.5t50 21.5t21.5 50t-21.5 50t-50 21.5t-50 -21.5t-21.5 -50zM332 1337.5q0 77.5 55 133t133 55.5t133.5 -55.5 t55.5 -133t-55.5 -133t-133.5 -55.5t-133 55.5t-55 133z" glyph-name="aring" horiz-adv-x="999" unicode="å"/><glyph d="M1141 1032q178 0 301 -133t123 -387v-41q0 -23 -9.5 -32t-31.5 -9h-588q-14 0 -21.5 -1t-12.5 -7t-5 -19q0 -125 79 -186t185 -61q115 0 219 94q31 27 58 0l53 -53q29 -29 0 -60q-125 -145 -330 -145q-160 0 -272 84v-35q0 -23 -9.5 -32t-31.5 -9h-90q-23 0 -32 9t-9 32 v33q-96 -74 -232 -82q-164 -10 -285.5 83t-121.5 257t122 257t285 83q131 -8 232 -82v51q0 98 -69.5 162.5t-164.5 64.5q-131 0 -217 -86q-29 -29 -55 0l-51 52q-29 29 0 59q123 139 327.5 139t325.5 -166q117 166 328 166zM1346 594q39 0 38 24q-2 121 -74.5 184.5 t-168.5 63.5q-98 0 -171 -63.5t-73 -184.5q0 -16 7 -20t32 -4h410zM489 133q125 2 228 86v225q-102 80 -228 86q-104 4 -171.5 -51t-67.5 -147t67.5 -147.5t171.5 -51.5z" glyph-name="ae" horiz-adv-x="1654" unicode="æ"/><glyph d="M395 -240l-78 21q-29 6 -22 29l65 215q-121 49 -195.5 168.5t-74.5 318.5q0 137 39 242.5t104.5 163t141.5 86t160 28.5q205 0 329 -145q29 -31 0 -60l-53 -53q-27 -27 -57 0q-104 94 -219 94q-121 0 -197 -86t-76 -270t76 -270t197 -86q115 0 219 94q31 27 57 0l53 -53 q29 -29 0 -60q-125 -145 -329 -145q-27 0 -39 2l-25 -92q104 49 196.5 -11.5t92.5 -181.5q0 -139 -121 -209.5t-238 -7.5q-16 8 -6 29l27 82q10 20 31 10q61 -27 110 5t49 91q0 74 -69.5 99.5t-118.5 -37.5q-13 -15 -29 -11z" glyph-name="ccedilla" horiz-adv-x="954" unicode="ç"/><glyph d="M514 1032q178 0 301 -133t123 -387v-41q0 -23 -9 -32t-32 -9h-588q-14 0 -21 -1t-12.5 -7t-5.5 -19q0 -125 79 -186t186 -61q115 0 219 94q31 27 57 0l53 -53q29 -29 0 -60q-125 -145 -329 -145q-188 0 -316.5 123t-128.5 397q0 254 123 387t301 133zM719 594q39 0 39 24 q-2 121 -75 184.5t-169 63.5q-98 0 -171 -63.5t-73 -184.5q0 -16 7.5 -20t31.5 -4h410zM463 1477l207 -228q23 -27 -6 -55l-23 -23q-33 -33 -59 -6l-222 213q-29 29 0 58l43 43q31 31 60 -2z" glyph-name="egrave" horiz-adv-x="1028" unicode="è"/><glyph d="M514 1032q178 0 301 -133t123 -387v-41q0 -23 -9 -32t-32 -9h-588q-14 0 -21 -1t-12.5 -7t-5.5 -19q0 -125 79 -186t186 -61q115 0 219 94q31 27 57 0l53 -53q29 -29 0 -60q-125 -145 -329 -145q-188 0 -316.5 123t-128.5 397q0 254 123 387t301 133zM719 594q39 0 39 24 q-2 121 -75 184.5t-169 63.5q-98 0 -171 -63.5t-73 -184.5q0 -16 7.5 -20t31.5 -4h410zM399 1249l207 228q29 33 60 2l43 -43q29 -29 0 -58l-222 -213q-27 -27 -59 6l-22 23q-30 28 -7 55z" glyph-name="eacute" horiz-adv-x="1028" unicode="é"/><glyph d="M514 1032q178 0 301 -133t123 -387v-41q0 -23 -9 -32t-32 -9h-588q-14 0 -21 -1t-12.5 -7t-5.5 -19q0 -125 79 -186t186 -61q115 0 219 94q31 27 57 0l53 -53q29 -29 0 -60q-125 -145 -329 -145q-188 0 -316.5 123t-128.5 397q0 254 123 387t301 133zM719 594q39 0 39 24 q-2 121 -75 184.5t-169 63.5q-98 0 -171 -63.5t-73 -184.5q0 -16 7.5 -20t31.5 -4h410zM252 1266l233 213q29 29 58 0l233 -213q31 -27 0 -58l-43 -43q-31 -31 -57 0l-144 156q-18 18 -36 0l-144 -156q-27 -31 -57 0l-43 43q-31 31 0 58z" glyph-name="ecircumflex" horiz-adv-x="1028" unicode="ê"/><glyph d="M514 1032q178 0 301 -133t123 -387v-41q0 -23 -9 -32t-32 -9h-588q-14 0 -21 -1t-12.5 -7t-5.5 -19q0 -125 79 -186t186 -61q115 0 219 94q31 27 57 0l53 -53q29 -29 0 -60q-125 -145 -329 -145q-188 0 -316.5 123t-128.5 397q0 254 123 387t301 133zM719 594q39 0 39 24 q-2 121 -75 184.5t-169 63.5q-98 0 -171 -63.5t-73 -184.5q0 -16 7.5 -20t31.5 -4h410zM205 1284q0 49 33.5 84t83 35t84 -35t34.5 -84t-34.5 -83t-84 -34t-83 34t-33.5 83zM588 1284q0 49 33.5 84t83 35t84 -35t34.5 -84t-34.5 -83t-84 -34t-83 34t-33.5 83z" glyph-name="edieresis" horiz-adv-x="1028" unicode="ë"/><glyph d="M303 983v-942q0 -23 -9 -32t-32 -9h-90q-23 0 -32 9t-9 32v942q0 23 9.5 32t31.5 9h90q23 0 32 -9t9 -32zM166 1477l207 -228q23 -27 -6 -55l-23 -23q-33 -33 -59 -6l-222 213q-29 29 0 58l43 43q31 31 60 -2z" glyph-name="igrave" horiz-adv-x="434" unicode="ì"/><glyph d="M303 983v-942q0 -23 -9 -32t-32 -9h-90q-23 0 -32 9t-9 32v942q0 23 9.5 32t31.5 9h90q23 0 32 -9t9 -32zM61 1249l207 228q29 33 60 2l43 -43q29 -29 0 -58l-221 -213q-27 -27 -60 6l-22 23q-30 28 -7 55z" glyph-name="iacute" horiz-adv-x="434" unicode="í"/><glyph d="M303 983v-942q0 -23 -9 -32t-32 -9h-90q-23 0 -32 9t-9 32v942q0 23 9.5 32t31.5 9h90q23 0 32 -9t9 -32zM-45 1266l233 213q29 29 58 0l233 -213q31 -27 0 -58l-43 -43q-31 -31 -57 0l-143 156q-18 18 -37 0l-144 -156q-27 -31 -57 0l-43 43q-31 31 0 58z" glyph-name="icircumflex" horiz-adv-x="434" unicode="î"/><glyph d="M303 983v-942q0 -23 -9 -32t-32 -9h-90q-23 0 -32 9t-9 32v942q0 23 9.5 32t31.5 9h90q23 0 32 -9t9 -32zM-92 1284q0 49 33.5 84t83 35t84 -35t34.5 -84t-34.5 -83t-84 -34t-83 34t-33.5 83zM291 1284q0 49 33.5 84t83 35t84 -35t34.5 -84t-34.5 -83t-84 -34t-83 34 t-33.5 83z" glyph-name="idieresis" horiz-adv-x="434" unicode="ï"/><glyph d="M367 1278h-25q-23 0 -32 9t-9 32v82q0 23 9 32t32 9h25q164 0 286 -51l86 67q20 14 30.5 13t27.5 -19l43 -53q14 -18 13 -29.5t-22 -28.5l-40 -32q188 -166 188 -504v-356q0 -223 -129 -340t-315.5 -117t-315.5 116.5t-129 340.5v32q0 227 137.5 353.5t317.5 107.5 q139 -12 262 -131v23q0 256 -156 366l-157 -125q-33 -25 -58 6l-43 54q-27 33 6 59l93 72q-62 12 -125 12zM534.5 156q122.5 0 197.5 81.5t75 229.5q0 150 -75 231.5t-197.5 81.5t-197.5 -82t-75 -231q0 -147 75 -229t197.5 -82z" glyph-name="eth" horiz-adv-x="1069" unicode="ð"/><glyph d="M303 983v-37q104 78 223 86q152 10 282 -86t130 -250v-655q0 -23 -9 -32t-32 -9h-90q-23 0 -32 9t-9 32v590q0 113 -71.5 177t-180.5 60q-117 -6 -211 -82v-745q0 -23 -9 -32t-32 -9h-90q-23 0 -32 9t-9 32v942q0 23 9.5 32t31.5 9h90q23 0 32 -9t9 -32zM666 1157 q-51 0 -108.5 22.5t-92.5 41t-75 10.5t-75 -60q-12 -18 -32 -6l-74 47q-18 12 -8 29q68 125 192 125q49 0 104.5 -22.5t90.5 -42t77 -11.5t78 62q12 16 31 6l76 -47q18 -12 8 -29q-67 -125 -192 -125z" glyph-name="ntilde" horiz-adv-x="1048" unicode="ñ"/><glyph d="M90 512q0 137 39 242.5t104.5 163t141.5 86t159.5 28.5t159.5 -28.5t141.5 -86t104.5 -163t39 -242.5t-39 -242.5t-104.5 -163t-141.5 -86t-159.5 -28.5t-159.5 28.5t-141.5 86t-104.5 163t-39 242.5zM807 512q0 184 -76 270t-196.5 86t-196.5 -86t-76 -270t76 -270 t196.5 -86t196.5 86t76 270zM483 1473l207 -228q23 -27 -6 -55l-22 -23q-33 -33 -60 -6l-221 213q-29 29 0 58l43 43q30 31 59 -2z" glyph-name="ograve" horiz-adv-x="1069" unicode="ò"/><glyph d="M90 512q0 137 39 242.5t104.5 163t141.5 86t159.5 28.5t159.5 -28.5t141.5 -86t104.5 -163t39 -242.5t-39 -242.5t-104.5 -163t-141.5 -86t-159.5 -28.5t-159.5 28.5t-141.5 86t-104.5 163t-39 242.5zM807 512q0 184 -76 270t-196.5 86t-196.5 -86t-76 -270t76 -270 t196.5 -86t196.5 86t76 270zM420 1249l207 228q29 33 59 2l43 -43q29 -29 0 -58l-221 -213q-27 -27 -59 6l-23 23q-29 28 -6 55z" glyph-name="oacute" horiz-adv-x="1069" unicode="ó"/><glyph d="M90 512q0 137 39 242.5t104.5 163t141.5 86t159.5 28.5t159.5 -28.5t141.5 -86t104.5 -163t39 -242.5t-39 -242.5t-104.5 -163t-141.5 -86t-159.5 -28.5t-159.5 28.5t-141.5 86t-104.5 163t-39 242.5zM807 512q0 184 -76 270t-196.5 86t-196.5 -86t-76 -270t76 -270 t196.5 -86t196.5 86t76 270zM272 1266l234 213q29 29 57 0l234 -213q31 -27 0 -58l-43 -43q-31 -31 -58 0l-143 156q-18 18 -37 0l-143 -156q-27 -31 -58 0l-43 43q-31 31 0 58z" glyph-name="ocircumflex" horiz-adv-x="1069" unicode="ô"/><glyph d="M90 512q0 137 39 242.5t104.5 163t141.5 86t159.5 28.5t159.5 -28.5t141.5 -86t104.5 -163t39 -242.5t-39 -242.5t-104.5 -163t-141.5 -86t-159.5 -28.5t-159.5 28.5t-141.5 86t-104.5 163t-39 242.5zM807 512q0 184 -76 270t-196.5 86t-196.5 -86t-76 -270t76 -270 t196.5 -86t196.5 86t76 270zM670 1155q-51 0 -108.5 22.5t-92.5 41t-75 10.5t-75 -60q-12 -18 -32 -6l-74 47q-18 12 -8 29q68 125 192 125q49 0 104.5 -22.5t90.5 -42t77 -11.5t79 62q12 16 30 6l76 -47q18 -12 8 -29q-67 -125 -192 -125z" glyph-name="otilde" horiz-adv-x="1069" unicode="õ"/><glyph d="M90 512q0 137 39 242.5t104.5 163t141.5 86t159.5 28.5t159.5 -28.5t141.5 -86t104.5 -163t39 -242.5t-39 -242.5t-104.5 -163t-141.5 -86t-159.5 -28.5t-159.5 28.5t-141.5 86t-104.5 163t-39 242.5zM807 512q0 184 -76 270t-196.5 86t-196.5 -86t-76 -270t76 -270 t196.5 -86t196.5 86t76 270zM225 1284q0 49 34 84t83 35t84 -35t35 -84t-35 -83t-84 -34t-83 34t-34 83zM608 1284q0 49 34 84t83 35t84 -35t35 -84t-35 -83t-84 -34t-83 34t-34 83z" glyph-name="odieresis" horiz-adv-x="1069" unicode="ö"/><glyph d="M332 479q0 49 33.5 84t83 35t84 -35t34.5 -84t-34.5 -83t-84 -34t-83 34t-33.5 83zM332 1034q0 49 33.5 84t83 35t84 -35t34.5 -84t-34.5 -82.5t-84 -33.5t-83 33.5t-33.5 82.5zM102 797q0 23 9.5 32t31.5 9h615q23 0 32 -9.5t9 -31.5v-82q0 -23 -9.5 -32t-31.5 -9h-615 q-23 0 -32 9t-9 32v82z" glyph-name="divide" horiz-adv-x="901" unicode="÷"/><glyph d="M90 512q0 137 39 242.5t104.5 163t141.5 86t160 28.5q137 0 245 -71l21 26q25 33 34 39t35 6h78q16 0 22.5 -12t-3.5 -29l-90 -123q102 -137 102 -356q0 -137 -39 -242.5t-104.5 -163t-141.5 -86t-159 -28.5q-141 0 -248 71l-19 -26q-25 -35 -34 -40t-35 -5h-78 q-16 0 -22.5 12t3.5 29l88 121q-100 133 -100 358zM807 512q0 125 -39 209l-383 -522q59 -43 150 -43q121 0 196.5 86t75.5 270zM262 512q0 -129 37 -209l383 522q-59 43 -147 43q-121 0 -197 -86t-76 -270z" glyph-name="oslash" horiz-adv-x="1069" unicode="ø"/><glyph d="M745 41v37q-104 -78 -223 -86q-152 -10 -281.5 86t-129.5 250v655q0 23 9 32t32 9h90q23 0 32 -9t9 -32v-590q0 -113 71.5 -177t180.5 -60q117 6 210 82v745q0 23 9.5 32t31.5 9h91q23 0 32 -9t9 -32v-942q0 -23 -9.5 -32t-31.5 -9h-91q-23 0 -32 9t-9 32zM463 1477 l207 -228q23 -27 -6 -55l-23 -23q-33 -33 -59 -6l-222 213q-29 29 0 58l43 43q31 31 60 -2z" glyph-name="ugrave" horiz-adv-x="1048" unicode="ù"/><glyph d="M745 41v37q-104 -78 -223 -86q-152 -10 -281.5 86t-129.5 250v655q0 23 9 32t32 9h90q23 0 32 -9t9 -32v-590q0 -113 71.5 -177t180.5 -60q117 6 210 82v745q0 23 9.5 32t31.5 9h91q23 0 32 -9t9 -32v-942q0 -23 -9.5 -32t-31.5 -9h-91q-23 0 -32 9t-9 32zM358 1249 l207 228q29 33 60 2l43 -43q29 -29 0 -58l-222 -213q-27 -27 -59 6l-22 23q-30 28 -7 55z" glyph-name="uacute" horiz-adv-x="1048" unicode="ú"/><glyph d="M745 41v37q-104 -78 -223 -86q-152 -10 -281.5 86t-129.5 250v655q0 23 9 32t32 9h90q23 0 32 -9t9 -32v-590q0 -113 71.5 -177t180.5 -60q117 6 210 82v745q0 23 9.5 32t31.5 9h91q23 0 32 -9t9 -32v-942q0 -23 -9.5 -32t-31.5 -9h-91q-23 0 -32 9t-9 32zM252 1266 l233 213q29 29 58 0l233 -213q31 -27 0 -58l-43 -43q-31 -31 -57 0l-144 156q-18 18 -36 0l-144 -156q-27 -31 -57 0l-43 43q-31 31 0 58z" glyph-name="ucircumflex" horiz-adv-x="1048" unicode="û"/><glyph d="M745 41v37q-104 -78 -223 -86q-152 -10 -281.5 86t-129.5 250v655q0 23 9 32t32 9h90q23 0 32 -9t9 -32v-590q0 -113 71.5 -177t180.5 -60q117 6 210 82v745q0 23 9.5 32t31.5 9h91q23 0 32 -9t9 -32v-942q0 -23 -9.5 -32t-31.5 -9h-91q-23 0 -32 9t-9 32zM205 1284 q0 49 33.5 84t83 35t84 -35t34.5 -84t-34.5 -83t-84 -34t-83 34t-33.5 83zM588 1284q0 49 33.5 84t83 35t84 -35t34.5 -84t-34.5 -83t-84 -34t-83 34t-33.5 83z" glyph-name="udieresis" horiz-adv-x="1048" unicode="ü"/><glyph d="M494 274l262 719q8 23 15 27t30 4h90q14 0 20.5 -1t15.5 -9t-1 -25l-484 -1308q-33 -88 -101.5 -138.5t-143 -51.5t-150.5 26q-39 16 -27 51l27 74q10 33 43 20q164 -57 219 94l82 228q12 33 0 63l-350 942q-8 23 2 29t33 6h90q23 0 30 -4t15 -27l262 -719q2 -8 10.5 -8 t10.5 8zM326 1247l206 228q29 33 60 2l43 -43q29 -29 0 -58l-221 -213q-27 -27 -60 6l-22 23q-29 28 -6 55z" glyph-name="yacute" horiz-adv-x="966" unicode="ý"/><glyph d="M131 1393q0 23 9.5 32t31.5 9h90q23 0 32 -9.5t9 -31.5v-463q98 90 215 102q176 16 310.5 -117t134.5 -403t-134.5 -403.5t-310.5 -116.5q-117 12 -215 102v-422q0 -23 -9 -32t-32 -9h-90q-23 0 -32 9.5t-9 31.5v1721zM791 512q0 186 -77 274t-196 82q-117 -6 -215 -106 v-500q98 -100 215 -106q119 -6 196 82t77 274z" glyph-name="thorn" unicode="þ"/><glyph d="M494 274l262 719q8 23 15 27t30 4h90q14 0 20.5 -1t15.5 -9t-1 -25l-484 -1308q-33 -88 -101.5 -138.5t-143 -51.5t-150.5 26q-39 16 -27 51l27 74q10 33 43 20q164 -57 219 94l82 228q12 33 0 63l-350 942q-8 23 2 29t33 6h90q23 0 30 -4t15 -27l262 -719q2 -8 10.5 -8 t10.5 8zM172 1284q0 49 34 84t83 35t84 -35t35 -84t-35 -83t-84 -34t-83 34t-34 83zM555 1284q0 49 34 84t83 35t84 -35t35 -84t-35 -83t-84 -34t-83 34t-34 83z" glyph-name="ydieresis" horiz-adv-x="966" unicode="ÿ"/><glyph d="M602 1434h94q16 0 24.5 -2t16.5 -10.5t15 -28.5l477 -1352q14 -41 -27 -41h-104q-18 0 -26.5 2t-14.5 10t-15 29l-106 307q-6 18 -13.5 23.5t-27.5 5.5h-492q-20 0 -27 -5t-14 -24l-106 -307q-10 -29 -19.5 -35t-35.5 -6h-105q-41 0 -26 41l477 1352q10 29 20 35t35 6z M662 1149q-2 10 -12.5 10t-12.5 -10l-201 -586q-8 -23 15 -22h397q23 0 14 22zM406 1675q0 23 9 32t31 9h408q23 0 32 -9t9 -32v-49q0 -23 -9 -32t-32 -9h-408q-23 0 -31.5 9.5t-8.5 31.5v49z" glyph-name="Amacron" horiz-adv-x="1298" unicode="Ā"/><glyph d="M485 1040q168 0 285 -117.5t117 -275.5v-606q0 -23 -9.5 -32t-31.5 -9h-90q-23 0 -32 9t-9 32v41q-100 -74 -232 -82q-164 -10 -285.5 83t-121.5 257t121.5 257t285.5 83q127 -8 232 -82v51q0 98 -70 163t-164 65q-131 0 -217 -86q-27 -29 -55 0l-51 51q-29 29 0 59 q122 139 327 139zM487 141q125 2 228 86v226q-102 80 -228 86q-104 4 -171.5 -51.5t-67.5 -147.5t67.5 -147.5t171.5 -51.5zM276 1266q0 23 9.5 32t31.5 9h408q23 0 32 -9.5t9 -31.5v-49q0 -23 -9 -32t-32 -9h-408q-23 0 -32 9t-9 32v49z" glyph-name="amacron" horiz-adv-x="999" unicode="ā"/><glyph d="M602 1434h94q16 0 24.5 -2t16.5 -10.5t15 -28.5l477 -1352q14 -41 -27 -41h-104q-18 0 -26.5 2t-14.5 10t-15 29l-106 307q-6 18 -13.5 23.5t-27.5 5.5h-492q-20 0 -27 -5t-14 -24l-106 -307q-10 -29 -19.5 -35t-35.5 -6h-105q-41 0 -26 41l477 1352q10 29 20 35t35 6z M662 1149q-2 10 -12.5 10t-12.5 -10l-201 -586q-8 -23 15 -22h397q23 0 14 22zM649.5 1569q-114.5 0 -184.5 73.5t-74 190.5q-2 25 6.5 30t32.5 5h53q25 0 32 -5t9 -30q4 -68 38 -105.5t87 -37.5t87 37.5t38 105.5q2 25 9.5 30t31.5 5h53q25 0 33 -5t6 -30 q-4 -117 -73.5 -190.5t-184 -73.5z" glyph-name="Abreve" horiz-adv-x="1298" unicode="Ă"/><glyph d="M485 1040q168 0 285 -117.5t117 -275.5v-606q0 -23 -9.5 -32t-31.5 -9h-90q-23 0 -32 9t-9 32v41q-100 -74 -232 -82q-164 -10 -285.5 83t-121.5 257t121.5 257t285.5 83q127 -8 232 -82v51q0 98 -70 163t-164 65q-131 0 -217 -86q-27 -29 -55 0l-51 51q-29 29 0 59 q122 139 327 139zM487 141q125 2 228 86v226q-102 80 -228 86q-104 4 -171.5 -51.5t-67.5 -147.5t67.5 -147.5t171.5 -51.5zM520.5 1159q-114.5 0 -184.5 74t-74 190q-2 25 7.5 30t31.5 5h53q25 0 32 -5t9 -30q4 -68 38 -105.5t87 -37.5t87 38t38 105q2 25 9.5 30t31.5 5h53 q23 0 32 -5t7 -30q-4 -117 -73.5 -190.5t-184 -73.5z" glyph-name="abreve" horiz-adv-x="999" unicode="ă"/><glyph d="M602 1434h94q16 0 24.5 -2t16.5 -10.5t15 -28.5l477 -1352q14 -41 -27 -41h-22q-51 -33 -72 -83t5 -97t99 -62q29 -4 21 -32l-21 -88q-6 -23 -32 -21q-111 12 -171.5 91t-50 173t85.5 152q-2 2 -2 8l-106 307q-6 18 -13.5 23.5t-27.5 5.5h-492q-20 0 -27 -5t-14 -24 l-106 -307q-10 -29 -19.5 -35t-35.5 -6h-105q-41 0 -26 41l477 1352q10 29 20 35t35 6zM662 1149q-2 10 -12.5 10t-12.5 -10l-201 -586q-8 -23 15 -22h397q23 0 14 22z" glyph-name="Aogonek" horiz-adv-x="1300" unicode="Ą"/><glyph d="M485 1040q168 0 285 -117.5t117 -275.5v-606q0 -41 -37 -41q-51 -33 -71.5 -83t5 -97t99.5 -62q29 -4 20 -32l-20 -88q-6 -23 -33 -21q-111 12 -171.5 91t-50 173t86.5 152v8v41q-100 -74 -232 -82q-164 -10 -285.5 83t-121.5 257t121.5 257t285.5 83q127 -8 232 -82v51 q0 98 -70 163t-164 65q-131 0 -217 -86q-27 -29 -55 0l-51 51q-29 29 0 59q122 139 327 139zM487 141q125 2 228 86v226q-102 80 -228 86q-104 4 -171.5 -51.5t-67.5 -147.5t67.5 -147.5t171.5 -51.5z" glyph-name="aogonek" horiz-adv-x="999" unicode="ą"/><glyph d="M723 -8q-268 0 -440 183t-172 541.5t172 542t440 183.5q274 0 438 -182q27 -31 0 -58l-55 -55q-29 -29 -57 0q-131 131 -326 131q-205 0 -319.5 -143.5t-116.5 -417.5q2 -274 116.5 -417.5t319.5 -143.5q195 0 326 131q29 29 57 0l55 -56q27 -27 0 -57 q-164 -182 -438 -182zM567 1661l207 227q29 33 60 2l43 -43q29 -29 0 -57l-222 -213q-27 -27 -59 6l-23 23q-29 28 -6 55z" glyph-name="Cacute" horiz-adv-x="1263" unicode="Ć"/><glyph d="M535 -8q-84 0 -160 28.5t-141.5 86t-104.5 163t-39 242.5t39 242.5t104.5 163t141.5 86t160 28.5q205 0 329 -145q29 -31 0 -60l-53 -53q-27 -27 -57 0q-104 94 -219 94q-121 0 -197 -86t-76 -270t76 -270t197 -86q115 0 219 94q31 27 57 0l53 -53q29 -29 0 -60 q-124 -145 -329 -145zM375 1249l207 228q29 33 59 2l43 -43q29 -29 0 -58l-221 -213q-27 -27 -60 6l-22 23q-29 28 -6 55z" glyph-name="cacute" horiz-adv-x="954" unicode="ć"/><glyph d="M723 -8q-268 0 -440 183t-172 541.5t172 542t440 183.5q274 0 438 -182q27 -31 0 -58l-55 -55q-29 -29 -57 0q-131 131 -326 131q-205 0 -319.5 -143.5t-116.5 -417.5q2 -274 116.5 -417.5t319.5 -143.5q195 0 326 131q29 29 57 0l55 -56q27 -27 0 -57 q-164 -182 -438 -182zM440 1677l234 213q29 29 57 0l234 -213q31 -27 0 -57l-43 -43q-31 -31 -58 0l-143 156q-18 18 -37 0l-143 -156q-27 -31 -58 0l-43 43q-31 30 0 57z" glyph-name="Ccircumflex" horiz-adv-x="1263" unicode="Ĉ"/><glyph d="M535 -8q-84 0 -160 28.5t-141.5 86t-104.5 163t-39 242.5t39 242.5t104.5 163t141.5 86t160 28.5q205 0 329 -145q29 -31 0 -60l-53 -53q-27 -27 -57 0q-104 94 -219 94q-121 0 -197 -86t-76 -270t76 -270t197 -86q115 0 219 94q31 27 57 0l53 -53q29 -29 0 -60 q-124 -145 -329 -145zM238 1266l233 213q29 29 57 0l234 -213q31 -27 0 -58l-43 -43q-31 -31 -57 0l-144 156q-18 18 -37 0l-143 -156q-27 -31 -57 0l-43 43q-31 31 0 58z" glyph-name="ccircumflex" horiz-adv-x="954" unicode="ĉ"/><glyph d="M723 -8q-268 0 -440 183t-172 541.5t172 542t440 183.5q274 0 438 -182q27 -31 0 -58l-55 -55q-29 -29 -57 0q-131 131 -326 131q-205 0 -319.5 -143.5t-116.5 -417.5q2 -274 116.5 -417.5t319.5 -143.5q195 0 326 131q29 29 57 0l55 -56q27 -27 0 -57 q-164 -182 -438 -182zM592 1655q0 47 31.5 79.5t79 32.5t80 -32.5t32.5 -79.5t-32.5 -79t-80 -32t-79 32t-31.5 79z" glyph-name="Cdotaccent" horiz-adv-x="1263" unicode="Ċ"/><glyph d="M535 -8q-84 0 -160 28.5t-141.5 86t-104.5 163t-39 242.5t39 242.5t104.5 163t141.5 86t160 28.5q205 0 329 -145q29 -31 0 -60l-53 -53q-27 -27 -57 0q-104 94 -219 94q-121 0 -197 -86t-76 -270t76 -270t197 -86q115 0 219 94q31 27 57 0l53 -53q29 -29 0 -60 q-124 -145 -329 -145zM389 1245q0 47 32 80t79 33t79.5 -33t32.5 -80t-32.5 -78.5t-79.5 -31.5t-79 31.5t-32 78.5z" glyph-name="cdotaccent" horiz-adv-x="954" unicode="ċ"/><glyph d="M723 -8q-268 0 -440 183t-172 541.5t172 542t440 183.5q274 0 438 -182q27 -31 0 -58l-55 -55q-29 -29 -57 0q-131 131 -326 131q-205 0 -319.5 -143.5t-116.5 -417.5q2 -274 116.5 -417.5t319.5 -143.5q195 0 326 131q29 29 57 0l55 -56q27 -27 0 -57 q-164 -182 -438 -182zM674 1575l-234 213q-31 27 0 57l43 43q31 31 58 0l143 -155q18 -18 37 0l143 155q27 31 58 0l43 -43q31 -31 0 -57l-234 -213q-28 -29 -57 0z" glyph-name="Ccaron" horiz-adv-x="1263" unicode="Č"/><glyph d="M535 -8q-84 0 -160 28.5t-141.5 86t-104.5 163t-39 242.5t39 242.5t104.5 163t141.5 86t160 28.5q205 0 329 -145q29 -31 0 -60l-53 -53q-27 -27 -57 0q-104 94 -219 94q-121 0 -197 -86t-76 -270t76 -270t197 -86q115 0 219 94q31 27 57 0l53 -53q29 -29 0 -60 q-124 -145 -329 -145zM471 1163l-233 213q-31 27 0 58l43 43q31 31 57 0l143 -156q18 -18 37 0l144 156q27 31 57 0l43 -43q31 -31 0 -58l-234 -213q-28 -29 -57 0z" glyph-name="ccaron" horiz-adv-x="954" unicode="č"/><glyph d="M1085 717q0 305 -118.5 429t-337.5 124h-240q-31 0 -36 -5t-5 -36v-1024q0 -31 5 -36t36 -5h240q219 0 337.5 124t118.5 429zM172 41v1352q0 23 9 32t32 9h416q131 0 240.5 -37t199.5 -117t141.5 -223.5t51.5 -340t-51.5 -340t-141.5 -223t-199.5 -116.5t-240.5 -37h-416 q-23 0 -32 9t-9 32zM610 1575l-233 213q-31 27 0 57l43 43q31 31 57 0l144 -155q18 -18 36 0l144 155q27 31 57 0l43 -43q31 -31 0 -57l-233 -213q-29 -29 -58 0z" glyph-name="Dcaron" horiz-adv-x="1372" unicode="Ď"/><glyph d="M922 41q0 -23 -9.5 -32t-31.5 -9h-90q-23 0 -32 9t-9 32v53q-98 -90 -215 -102q-176 -16 -310.5 117t-134.5 403t134 403.5t311 116.5q117 -12 215 -102v463q0 23 9 32t32 9h90q23 0 32 -9.5t9 -31.5v-1352zM535 868q-119 6 -196 -82t-77 -274t77 -274t196 -82 q117 6 215 106v500q-98 100 -215 106zM983 1462q0 47 34 82t81 35q49 0 85 -34t40 -83q12 -139 -140 -346q-18 -29 -51 -10q-18 14 -21 20.5t5 30.5q84 131 76 170q-2 16 -21 23q-88 36 -88 112z" glyph-name="dcaron" horiz-adv-x="1204" unicode="ď"/><glyph d="M172 877q0 20 -20 20h-66q-23 0 -32 9t-9 32v74q0 23 9 32t32 9h66q20 0 20 20v320q0 23 9 32t32 9h416q131 0 240.5 -37t199.5 -117t141.5 -223.5t51.5 -340t-51.5 -340t-141.5 -223t-199.5 -116.5t-240.5 -37h-416q-23 0 -32 9t-9 32v836zM348 877v-672q0 -31 5 -36 t36 -5h240q219 0 337.5 124t118.5 429t-118.5 429t-337.5 124h-240q-31 0 -36 -5t-5 -36v-156q0 -20 21 -20h163q23 0 32 -9.5t9 -31.5v-74q0 -23 -9 -32t-32 -9h-163q-21 0 -21 -20z" glyph-name="Dcroat" horiz-adv-x="1372" unicode="Đ"/><glyph d="M750 1393q0 23 9 32t32 9h90q23 0 32 -9.5t9 -31.5v-107q0 -20 20 -20h66q23 0 32 -9.5t9 -31.5v-66q0 -23 -9.5 -32t-31.5 -9h-66q-20 0 -20 -20v-1057q0 -23 -9.5 -32t-31.5 -9h-90q-23 0 -32 9t-9 32v53q-98 -90 -215 -102q-176 -16 -310.5 117t-134.5 403t134 403.5 t311 116.5q117 -12 215 -102v168q0 20 -21 20h-197q-23 0 -31.5 9.5t-8.5 31.5v66q0 23 9 32t31 9h197q20 0 21 20v107zM535 868q-119 6 -196 -82t-77 -274t77 -274t196 -82q117 6 215 106v500q-98 100 -215 106z" glyph-name="dcroat" unicode="đ"/><glyph d="M348 633v-428q0 -31 5 -36t36 -5h594q23 0 32 -9.5t9 -31.5v-82q0 -23 -9 -32t-32 -9h-770q-23 0 -32 9t-9 32v1352q0 23 9 32t32 9h770q23 0 32 -9.5t9 -31.5v-82q0 -23 -9 -32t-32 -9h-594q-31 0 -36 -5t-5 -36v-350q0 -31 5 -36t36 -5h492q23 0 32 -9.5t9 -31.5v-82 q0 -23 -9.5 -32t-31.5 -9h-492q-31 0 -36 -5t-5 -36zM354 1675q0 23 9.5 32t31.5 9h408q23 0 32 -9t9 -32v-49q0 -23 -9.5 -32t-31.5 -9h-408q-23 0 -32 9.5t-9 31.5v49z" glyph-name="Emacron" horiz-adv-x="1130" unicode="Ē"/><glyph d="M514 1032q178 0 301 -133t123 -387v-41q0 -23 -9 -32t-32 -9h-588q-14 0 -21 -1t-12.5 -7t-5.5 -19q0 -125 79 -186t186 -61q115 0 219 94q31 27 57 0l53 -53q29 -29 0 -60q-125 -145 -329 -145q-188 0 -316.5 123t-128.5 397q0 254 123 387t301 133zM719 594q39 0 39 24 q-2 121 -75 184.5t-169 63.5q-98 0 -171 -63.5t-73 -184.5q0 -16 7.5 -20t31.5 -4h410zM270 1266q0 23 9.5 32t31.5 9h408q23 0 32 -9.5t9 -31.5v-49q0 -23 -9.5 -32t-31.5 -9h-408q-23 0 -32 9t-9 32v49z" glyph-name="emacron" horiz-adv-x="1028" unicode="ē"/><glyph d="M348 633v-428q0 -31 5 -36t36 -5h594q23 0 32 -9.5t9 -31.5v-82q0 -23 -9 -32t-32 -9h-770q-23 0 -32 9t-9 32v1352q0 23 9 32t32 9h770q23 0 32 -9.5t9 -31.5v-82q0 -23 -9 -32t-32 -9h-594q-31 0 -36 -5t-5 -36v-350q0 -31 5 -36t36 -5h492q23 0 32 -9.5t9 -31.5v-82 q0 -23 -9.5 -32t-31.5 -9h-492q-31 0 -36 -5t-5 -36zM598 1569q-115 0 -184.5 73.5t-73.5 190.5q-2 25 7 30t32 5h53q25 0 32 -5t9 -30q4 -68 38 -105.5t87 -37.5t87 37.5t38 105.5q2 25 9 30t32 5h53q23 0 32 -5t7 -30q-4 -117 -73.5 -190.5t-184.5 -73.5z" glyph-name="Ebreve" horiz-adv-x="1130" unicode="Ĕ"/><glyph d="M514 1032q178 0 301 -133t123 -387v-41q0 -23 -9 -32t-32 -9h-588q-14 0 -21 -1t-12.5 -7t-5.5 -19q0 -125 79 -186t186 -61q115 0 219 94q31 27 57 0l53 -53q29 -29 0 -60q-125 -145 -329 -145q-188 0 -316.5 123t-128.5 397q0 254 123 387t301 133zM719 594q39 0 39 24 q-2 121 -75 184.5t-169 63.5q-98 0 -171 -63.5t-73 -184.5q0 -16 7.5 -20t31.5 -4h410zM514 1159q-115 0 -184.5 74t-73.5 190q-2 25 6 30t33 5h53q25 0 32 -5t9 -30q4 -68 38 -105.5t87 -37.5t87 38t38 105q2 25 9 30t32 5h53q25 0 33 -5t6 -30q-4 -117 -73.5 -190.5 t-184.5 -73.5z" glyph-name="ebreve" horiz-adv-x="1028" unicode="ĕ"/><glyph d="M348 633v-428q0 -31 5 -36t36 -5h594q23 0 32 -9.5t9 -31.5v-82q0 -23 -9 -32t-32 -9h-770q-23 0 -32 9t-9 32v1352q0 23 9 32t32 9h770q23 0 32 -9.5t9 -31.5v-82q0 -23 -9 -32t-32 -9h-594q-31 0 -36 -5t-5 -36v-350q0 -31 5 -36t36 -5h492q23 0 32 -9.5t9 -31.5v-82 q0 -23 -9.5 -32t-31.5 -9h-492q-31 0 -36 -5t-5 -36zM487 1655q0 47 32 79.5t79 32.5t80 -32.5t33 -79.5t-33 -79t-80 -32t-79 32t-32 79z" glyph-name="Edotaccent" horiz-adv-x="1130" unicode="Ė"/><glyph d="M514 1032q178 0 301 -133t123 -387v-41q0 -23 -9 -32t-32 -9h-588q-14 0 -21 -1t-12.5 -7t-5.5 -19q0 -125 79 -186t186 -61q115 0 219 94q31 27 57 0l53 -53q29 -29 0 -60q-125 -145 -329 -145q-188 0 -316.5 123t-128.5 397q0 254 123 387t301 133zM719 594q39 0 39 24 q-2 121 -75 184.5t-169 63.5q-98 0 -171 -63.5t-73 -184.5q0 -16 7.5 -20t31.5 -4h410zM403 1245q0 47 32 80t79 33t80 -33t33 -80t-33 -78.5t-80 -31.5t-79 31.5t-32 78.5z" glyph-name="edotaccent" horiz-adv-x="1028" unicode="ė"/><glyph d="M348 633v-428q0 -31 5 -36t36 -5h594q23 0 32 -9.5t9 -31.5v-82q0 -23 -9 -32t-32 -9h-57q-51 -33 -71.5 -83t5 -97t98.5 -62q29 -4 21 -32l-21 -88q-6 -23 -32 -21q-76 8 -131.5 52t-76 100.5t-12 120t49.5 110.5h-543q-23 0 -32 9t-9 32v1352q0 23 9 32t32 9h770 q23 0 32 -9.5t9 -31.5v-82q0 -23 -9 -32t-32 -9h-594q-31 0 -36 -5t-5 -36v-350q0 -31 5 -36t36 -5h492q23 0 32 -9.5t9 -31.5v-82q0 -23 -9.5 -32t-31.5 -9h-492q-31 0 -36 -5t-5 -36z" glyph-name="Eogonek" horiz-adv-x="1130" unicode="Ę"/><glyph d="M514 1032q178 0 301 -133t123 -387v-41q0 -23 -9 -32t-32 -9h-588q-14 0 -21 -1t-12.5 -7t-5.5 -19q0 -125 79 -186t186 -61q115 0 219 94q31 27 57 0l53 -53q29 -29 0 -60q-78 -90 -192 -127q-59 -27 -88 -80t-5.5 -104t103.5 -68q29 -4 20 -32l-20 -88q-6 -23 -33 -21 q-76 8 -130 50t-74.5 98.5t-13.5 119t44 111.5q-168 16 -276.5 140t-108.5 376q0 254 123 387t301 133zM719 594q39 0 39 24q-2 121 -75 184.5t-169 63.5q-98 0 -171 -63.5t-73 -184.5q0 -16 7.5 -20t31.5 -4h410z" glyph-name="eogonek" horiz-adv-x="1028" unicode="ę"/><glyph d="M348 633v-428q0 -31 5 -36t36 -5h594q23 0 32 -9.5t9 -31.5v-82q0 -23 -9 -32t-32 -9h-770q-23 0 -32 9t-9 32v1352q0 23 9 32t32 9h770q23 0 32 -9.5t9 -31.5v-82q0 -23 -9 -32t-32 -9h-594q-31 0 -36 -5t-5 -36v-350q0 -31 5 -36t36 -5h492q23 0 32 -9.5t9 -31.5v-82 q0 -23 -9.5 -32t-31.5 -9h-492q-31 0 -36 -5t-5 -36zM569 1575l-233 213q-31 27 0 57l43 43q31 31 57 0l144 -155q18 -18 36 0l144 155q27 31 57 0l43 -43q31 -31 0 -57l-233 -213q-29 -29 -58 0z" glyph-name="Ecaron" horiz-adv-x="1130" unicode="Ě"/><glyph d="M514 1032q178 0 301 -133t123 -387v-41q0 -23 -9 -32t-32 -9h-588q-14 0 -21 -1t-12.5 -7t-5.5 -19q0 -125 79 -186t186 -61q115 0 219 94q31 27 57 0l53 -53q29 -29 0 -60q-125 -145 -329 -145q-188 0 -316.5 123t-128.5 397q0 254 123 387t301 133zM719 594q39 0 39 24 q-2 121 -75 184.5t-169 63.5q-98 0 -171 -63.5t-73 -184.5q0 -16 7.5 -20t31.5 -4h410zM485 1165l-233 213q-31 27 0 58l43 43q31 31 57 0l144 -156q18 -18 36 0l144 156q27 31 57 0l43 -43q31 -31 0 -58l-233 -213q-29 -29 -58 0z" glyph-name="ecaron" horiz-adv-x="1028" unicode="ě"/><glyph d="M723 -8q-268 0 -440 183t-172 541.5t172 542t440 183.5q274 0 438 -182q27 -31 0 -58l-55 -55q-29 -29 -57 0q-131 131 -326 131q-205 0 -319.5 -143.5t-116.5 -417.5q2 -274 116.5 -417.5t319.5 -143.5q147 0 244.5 64.5t97.5 160.5v252q0 31 -5 36t-36 5h-250 q-23 0 -32 9t-9 32v82q0 23 9.5 32t31.5 9h426q23 0 32 -9.5t9 -31.5v-432q0 -139 -149.5 -256t-368.5 -117zM446 1677l234 213q29 29 57 0l234 -213q31 -27 0 -57l-43 -43q-31 -31 -58 0l-143 156q-18 18 -37 0l-143 -156q-27 -31 -58 0l-43 43q-31 30 0 57z" glyph-name="Gcircumflex" horiz-adv-x="1339" unicode="Ĝ"/><glyph d="M100 598q0 180 127 307t308 127q166 0 290 -112v63q0 23 9.5 32t31.5 9h62q23 0 32 -9t9 -32v-385q0 -180 -127 -307t-307 -127q-160 0 -279 100q-16 -27 -16 -67q0 -57 42 -102.5t111 -45.5h279q145 0 231 -60.5t86 -174.5q0 -160 -131 -242t-323 -82q-186 0 -320.5 79 t-134.5 245q0 94 82 163q-86 82 -86 201q-2 123 78 211q-54 94 -54 209zM266 598q0 -111 79 -189.5t189.5 -78.5t189.5 78.5t79 189.5t-79 189.5t-189.5 78.5t-189.5 -78.5t-79 -189.5zM534.5 -358q114.5 0 202.5 32.5t88 114.5q0 96 -147 96h-291q-143 0 -143 -96 q0 -82 88 -114.5t202.5 -32.5zM276 1266l234 213q29 29 57 0l234 -213q31 -27 0 -58l-43 -43q-31 -31 -58 0l-143 156q-18 18 -37 0l-143 -156q-27 -31 -58 0l-43 43q-31 31 0 58z" glyph-name="gcircumflex" horiz-adv-x="1060" unicode="ĝ"/><glyph d="M723 -8q-268 0 -440 183t-172 541.5t172 542t440 183.5q274 0 438 -182q27 -31 0 -58l-55 -55q-29 -29 -57 0q-131 131 -326 131q-205 0 -319.5 -143.5t-116.5 -417.5q2 -274 116.5 -417.5t319.5 -143.5q147 0 244.5 64.5t97.5 160.5v252q0 31 -5 36t-36 5h-250 q-23 0 -32 9t-9 32v82q0 23 9.5 32t31.5 9h426q23 0 32 -9.5t9 -31.5v-432q0 -139 -149.5 -256t-368.5 -117zM708.5 1569q-114.5 0 -184 73.5t-73.5 190.5q-2 25 7 30t31 5h54q25 0 32 -5t9 -30q4 -68 37.5 -105.5t87 -37.5t87 37.5t38.5 105.5q2 25 9 30t31 5h54 q25 0 33 -5t6 -30q-4 -117 -74 -190.5t-184.5 -73.5z" glyph-name="Gbreve" horiz-adv-x="1339" unicode="Ğ"/><glyph d="M100 598q0 180 127 307t308 127q166 0 290 -112v63q0 23 9.5 32t31.5 9h62q23 0 32 -9t9 -32v-385q0 -180 -127 -307t-307 -127q-160 0 -279 100q-16 -27 -16 -67q0 -57 42 -102.5t111 -45.5h279q145 0 231 -60.5t86 -174.5q0 -160 -131 -242t-323 -82q-186 0 -320.5 79 t-134.5 245q0 94 82 163q-86 82 -86 201q-2 123 78 211q-54 94 -54 209zM266 598q0 -111 79 -189.5t189.5 -78.5t189.5 78.5t79 189.5t-79 189.5t-189.5 78.5t-189.5 -78.5t-79 -189.5zM534.5 -358q114.5 0 202.5 32.5t88 114.5q0 96 -147 96h-291q-143 0 -143 -96 q0 -82 88 -114.5t202.5 -32.5zM538.5 1159q-114.5 0 -184 74t-73.5 190q-2 25 6 30t32 5h54q25 0 32 -5t9 -30q4 -68 37.5 -105.5t87 -37.5t87 38t38.5 105q2 25 9 30t32 5h53q25 0 33 -5t6 -30q-4 -117 -74 -190.5t-184.5 -73.5z" glyph-name="gbreve" horiz-adv-x="1060" unicode="ğ"/><glyph d="M723 -8q-268 0 -440 183t-172 541.5t172 542t440 183.5q274 0 438 -182q27 -31 0 -58l-55 -55q-29 -29 -57 0q-131 131 -326 131q-205 0 -319.5 -143.5t-116.5 -417.5q2 -274 116.5 -417.5t319.5 -143.5q147 0 244.5 64.5t97.5 160.5v252q0 31 -5 36t-36 5h-250 q-23 0 -32 9t-9 32v82q0 23 9.5 32t31.5 9h426q23 0 32 -9.5t9 -31.5v-432q0 -139 -149.5 -256t-368.5 -117zM598 1655q0 47 32 79.5t79 32.5t79.5 -32.5t32.5 -79.5t-32.5 -79t-79.5 -32t-79 32t-32 79z" glyph-name="Gdotaccent" horiz-adv-x="1339" unicode="Ġ"/><glyph d="M100 598q0 180 127 307t308 127q166 0 290 -112v63q0 23 9.5 32t31.5 9h62q23 0 32 -9t9 -32v-385q0 -180 -127 -307t-307 -127q-160 0 -279 100q-16 -27 -16 -67q0 -57 42 -102.5t111 -45.5h279q145 0 231 -60.5t86 -174.5q0 -160 -131 -242t-323 -82q-186 0 -320.5 79 t-134.5 245q0 94 82 163q-86 82 -86 201q-2 123 78 211q-54 94 -54 209zM266 598q0 -111 79 -189.5t189.5 -78.5t189.5 78.5t79 189.5t-79 189.5t-189.5 78.5t-189.5 -78.5t-79 -189.5zM534.5 -358q114.5 0 202.5 32.5t88 114.5q0 96 -147 96h-291q-143 0 -143 -96 q0 -82 88 -114.5t202.5 -32.5zM428 1245q0 47 32 80t79 33t79.5 -33t32.5 -80t-32.5 -78.5t-79.5 -31.5t-79 31.5t-32 78.5z" glyph-name="gdotaccent" horiz-adv-x="1060" unicode="ġ"/><glyph d="M723 -8q-268 0 -440 183t-172 541.5t172 542t440 183.5q274 0 438 -182q27 -31 0 -58l-55 -55q-29 -29 -57 0q-131 131 -326 131q-205 0 -319.5 -143.5t-116.5 -417.5q2 -274 116.5 -417.5t319.5 -143.5q147 0 244.5 64.5t97.5 160.5v252q0 31 -5 36t-36 5h-250 q-23 0 -32 9t-9 32v82q0 23 9.5 32t31.5 9h426q23 0 32 -9.5t9 -31.5v-432q0 -139 -149.5 -256t-368.5 -117zM575 -225q0 47 34 81.5t81 34.5q49 0 85 -33.5t40 -82.5q12 -139 -139 -346q-18 -29 -51 -11q-18 14 -21.5 20.5t4.5 31.5q84 131 76 170q-2 16 -20 22 q-89 37 -89 113z" glyph-name="Gcommaaccent" horiz-adv-x="1339" unicode="Ģ"/><glyph d="M100 598q0 180 127 307t308 127q166 0 290 -112v63q0 23 9.5 32t31.5 9h62q23 0 32 -9t9 -32v-385q0 -180 -127 -307t-307 -127q-160 0 -279 100q-16 -27 -16 -67q0 -57 42 -102.5t111 -45.5h279q145 0 231 -60.5t86 -174.5q0 -160 -131 -242t-323 -82q-186 0 -320.5 79 t-134.5 245q0 94 82 163q-86 82 -86 201q-2 123 78 211q-54 94 -54 209zM266 598q0 -111 79 -189.5t189.5 -78.5t189.5 78.5t79 189.5t-79 189.5t-189.5 78.5t-189.5 -78.5t-79 -189.5zM534.5 -358q114.5 0 202.5 32.5t88 114.5q0 96 -147 96h-291q-143 0 -143 -96 q0 -82 88 -114.5t202.5 -32.5zM670 1249q0 -47 -34 -81.5t-81 -34.5q-49 0 -85 33.5t-40 82.5q-12 139 139 346q18 29 52 11q18 -14 21 -20.5t-5 -31.5q-84 -131 -76 -170q2 -16 21 -22q88 -37 88 -113z" glyph-name="gcommaaccent" horiz-adv-x="1060" unicode="ģ"/><glyph d="M983 633q0 31 -5 36t-36 5h-553q-31 0 -36 -5t-5 -36v-592q0 -23 -9 -32t-32 -9h-94q-23 0 -32 9t-9 32v1352q0 23 9 32t32 9h94q23 0 32 -9.5t9 -31.5v-514q0 -31 5 -36t36 -5h553q31 0 36 5t5 36v514q0 23 9 32t32 9h94q23 0 32 -9.5t9 -31.5v-1352q0 -23 -9 -32 t-32 -9h-94q-23 0 -32 9t-9 32v592zM403 1675l234 213q29 29 57 0l234 -213q31 -27 0 -57l-43 -43q-31 -31 -58 0l-143 156q-18 18 -37 0l-143 -156q-27 -31 -58 0l-43 43q-31 30 0 57z" glyph-name="Hcircumflex" horiz-adv-x="1331" unicode="Ĥ"/><glyph d="M303 1393v-447q104 78 223 86q152 10 282 -86t130 -250v-655q0 -23 -9 -32t-32 -9h-90q-23 0 -32 9t-9 32v590q0 113 -71.5 177t-180.5 60q-117 -6 -211 -82v-745q0 -23 -9 -32t-32 -9h-90q-23 0 -32 9t-9 32v1352q0 23 9.5 32t31.5 9h90q23 0 32 -9t9 -32zM-45 1675 l233 213q29 29 58 0l233 -213q31 -27 0 -57l-43 -43q-31 -31 -57 0l-143 156q-18 18 -37 0l-144 -156q-27 -31 -57 0l-43 43q-31 30 0 57z" glyph-name="hcircumflex" horiz-adv-x="1048" unicode="ĥ"/><glyph d="M1159 1255q0 -20 21 -20h65q23 0 32 -9t9 -32v-74q0 -23 -9 -32t-32 -9h-65q-20 0 -21 -20v-1018q0 -23 -9 -32t-32 -9h-94q-23 0 -32 9t-9 32v592q0 31 -5 36t-36 5h-553q-31 0 -36 -5t-5 -36v-592q0 -23 -9 -32t-32 -9h-94q-23 0 -32 9t-9 32v1018q0 20 -20 20h-66 q-23 0 -32 9.5t-9 31.5v74q0 23 9 32t32 9h66q20 0 20 20v138q0 23 9 32t32 9h94q23 0 32 -9.5t9 -31.5v-138q0 -20 21 -20h594q20 0 20 20v138q0 23 9 32t32 9h94q23 0 32 -9.5t9 -31.5v-138zM348 1059v-180q0 -31 5 -36t36 -5h553q31 0 36 5t5 36v180q0 20 -20 20h-594 q-21 0 -21 -20z" glyph-name="Hbar" horiz-adv-x="1331" unicode="Ħ"/><glyph d="M131 1098q0 20 -20 20h-82q-23 0 -32 9.5t-9 31.5v66q0 23 9 32t32 9h82q20 0 20 20v107q0 23 9.5 32t31.5 9h90q23 0 32 -9.5t9 -31.5v-107q0 -20 21 -20h180q23 0 32 -9.5t9 -31.5v-66q0 -23 -9.5 -32t-31.5 -9h-180q-20 0 -21 -20v-152q104 78 223 86q152 10 282 -86 t130 -250v-655q0 -23 -9 -32t-32 -9h-90q-23 0 -32 9t-9 32v590q0 113 -71.5 177t-180.5 60q-117 -6 -211 -82v-745q0 -23 -9 -32t-32 -9h-90q-23 0 -32 9t-9 32v1057z" glyph-name="hbar" horiz-adv-x="1048" unicode="ħ"/><glyph d="M348 41q0 -23 -9 -32t-32 -9h-94q-23 0 -32 9t-9 32v1352q0 23 9 32t32 9h94q23 0 32 -9.5t9 -31.5v-1352zM406 1567q-53 0 -113 23.5t-95.5 43t-77.5 10t-77 -62.5q-12 -18 -33 -6l-78 49q-18 12 -8 31q70 129 199 129q51 0 109.5 -23.5t94 -43t79 -11.5t79.5 63 q12 18 33 7l78 -50q18 -12 8 -30q-69 -129 -198 -129z" glyph-name="Itilde" horiz-adv-x="520" unicode="Ĩ"/><glyph d="M303 983v-942q0 -23 -9 -32t-32 -9h-90q-23 0 -32 9t-9 32v942q0 23 9.5 32t31.5 9h90q23 0 32 -9t9 -32zM362 1157q-53 0 -112.5 23.5t-95 43t-77.5 10.5t-77 -63q-12 -18 -33 -6l-78 49q-18 12 -8 31q70 129 199 129q51 0 109.5 -23.5t94 -43t79 -11t79.5 63.5 q12 18 33 6l78 -49q18 -12 8 -31q-70 -129 -199 -129z" glyph-name="itilde" horiz-adv-x="434" unicode="ĩ"/><glyph d="M348 41q0 -23 -9 -32t-32 -9h-94q-23 0 -32 9t-9 32v1352q0 23 9 32t32 9h94q23 0 32 -9.5t9 -31.5v-1352zM16 1675q0 23 9.5 32t31.5 9h408q23 0 32 -9t9 -32v-49q0 -23 -9.5 -32t-31.5 -9h-408q-23 0 -32 9.5t-9 31.5v49z" glyph-name="Imacron" horiz-adv-x="520" unicode="Ī"/><glyph d="M303 983v-942q0 -23 -9 -32t-32 -9h-90q-23 0 -32 9t-9 32v942q0 23 9.5 32t31.5 9h90q23 0 32 -9t9 -32zM-27 1266q0 23 9.5 32t31.5 9h408q23 0 32 -9.5t9 -31.5v-49q0 -23 -9.5 -32t-31.5 -9h-408q-23 0 -32 9t-9 32v49z" glyph-name="imacron" horiz-adv-x="434" unicode="ī"/><glyph d="M348 41q0 -23 -9 -32t-32 -9h-94q-23 0 -32 9t-9 32v1352q0 23 9 32t32 9h94q23 0 32 -9.5t9 -31.5v-1352zM260 1569q-115 0 -184.5 73.5t-73.5 190.5q-2 25 6 30t33 5h53q25 0 32 -5t9 -30q4 -68 38 -105.5t87 -37.5t87 37.5t38 105.5q2 25 9 30t32 5h53q25 0 33 -5 t6 -30q-4 -117 -73.5 -190.5t-184.5 -73.5z" glyph-name="Ibreve" horiz-adv-x="520" unicode="Ĭ"/><glyph d="M303 983v-942q0 -23 -9 -32t-32 -9h-90q-23 0 -32 9t-9 32v942q0 23 9.5 32t31.5 9h90q23 0 32 -9t9 -32zM217 1159q-115 0 -184.5 74t-73.5 190q-2 25 7 30t32 5h53q25 0 32 -5t9 -30q4 -68 38 -105.5t87 -37.5t87 38t38 105q2 25 9 30t32 5h53q23 0 32 -5t7 -30 q-4 -117 -73.5 -190.5t-184.5 -73.5z" glyph-name="ibreve" horiz-adv-x="434" unicode="ĭ"/><glyph d="M348 41q0 -23 -9 -32t-32 -9h-12q-51 -33 -71.5 -83t5 -97t99.5 -62q29 -4 20 -32l-20 -88q-6 -23 -33 -21q-115 12 -175.5 94t-45 179.5t97.5 150.5v1352q0 23 9 32t32 9h94q23 0 32 -9.5t9 -31.5v-1352z" glyph-name="Iogonek" horiz-adv-x="520" unicode="Į"/><glyph d="M303 983v-942q0 -23 -9 -32t-32 -9h-8q-51 -33 -71.5 -83t5 -97t99.5 -62q29 -4 20 -32l-20 -88q-6 -23 -33 -21q-115 12 -175.5 94t-45 179.5t97.5 150.5v942q0 23 9.5 32t31.5 9h90q23 0 32 -9t9 -32zM102 1284q0 49 34 84t83 35t84 -35t35 -84t-35 -83t-84 -34t-83 34 t-34 83z" glyph-name="iogonek" horiz-adv-x="434" unicode="į"/><glyph d="M348 41q0 -23 -9 -32t-32 -9h-94q-23 0 -32 9t-9 32v1352q0 23 9 32t32 9h94q23 0 32 -9.5t9 -31.5v-1352zM150 1655q0 47 31.5 79.5t78.5 32.5t80 -32.5t33 -79.5t-33 -79t-80 -32t-78.5 32t-31.5 79z" glyph-name="Idotaccent" horiz-adv-x="520" unicode="İ"/><glyph d="M303 983v-942q0 -23 -9 -32t-32 -9h-90q-23 0 -32 9t-9 32v942q0 23 9.5 32t31.5 9h90q23 0 32 -9t9 -32z" glyph-name="dotlessi" horiz-adv-x="434" unicode="ı"/><glyph d="M348 41q0 -23 -9 -32t-32 -9h-94q-23 0 -32 9t-9 32v1352q0 23 9 32t32 9h94q23 0 32 -9.5t9 -31.5v-1352zM735 -8q-205 0 -327 139q-29 31 0 59l59 60q29 29 55 0q94 -94 207 -94q94 0 164 64.5t70 162.5v1010q0 23 9 32t32 9h94q23 0 32 -9.5t9 -31.5v-1008 q0 -156 -118 -274.5t-286 -118.5z" glyph-name="IJ" horiz-adv-x="1269" unicode="Ĳ"/><glyph d="M449 983q0 23 9 32t31 9h91q23 0 32 -9t9 -32v-1176q0 -137 -90.5 -226t-211.5 -91q-141 -2 -229 96q-25 29 -28 43.5t16 36.5l47 47q31 31 57 -2q49 -57 119 -57q57 0 102.5 42t45.5 111v1176zM303 983v-942q0 -23 -9 -32t-32 -9h-90q-23 0 -32 9t-9 32v942q0 23 9.5 32 t31.5 9h90q23 0 32 -9t9 -32zM102 1284q0 49 34 84t83 35t84 -35t35 -84t-35 -83t-84 -34t-83 34t-34 83zM418 1284q0 49 33.5 84t83 35t84 -35t34.5 -84t-34.5 -83t-84 -34t-83 34t-33.5 83z" glyph-name="ij" horiz-adv-x="751" unicode="ĳ"/><glyph d="M387 -8q-205 0 -328 139q-29 31 0 59l60 60q29 29 55 0q94 -94 207 -94q94 0 163.5 64.5t69.5 162.5v1010q0 23 9.5 32t31.5 9h95q23 0 32 -9.5t9 -31.5v-1008q0 -156 -118 -274.5t-286 -118.5zM440 1675l234 213q29 29 57 0l234 -213q31 -27 0 -57l-43 -43 q-31 -31 -58 0l-143 156q-18 18 -37 0l-143 -156q-27 -31 -58 0l-43 43q-31 30 0 57z" glyph-name="Jcircumflex" horiz-adv-x="921" unicode="Ĵ"/><glyph d="M303 983v-1176q0 -137 -90 -226t-211 -91q-141 -2 -229 96q-25 29 -28 43.5t15 36.5l47 47q31 31 58 -2q49 -57 119 -57q57 0 102 42t45 111v1176q0 23 9.5 32t31.5 9h90q23 0 32 -9t9 -32zM-45 1266l233 213q29 29 58 0l233 -213q31 -27 0 -58l-43 -43q-31 -31 -57 0 l-143 156q-18 18 -37 0l-144 -156q-27 -31 -57 0l-43 43q-31 31 0 58z" glyph-name="jcircumflex" horiz-adv-x="434" unicode="ĵ"/><glyph d="M348 41q0 -23 -9 -32t-32 -9h-94q-23 0 -32 9t-9 32v1352q0 23 9 32t32 9h94q23 0 32 -9.5t9 -31.5v-600q0 -12 8.5 -14.5t14.5 5.5l559 635q12 14 41 15h135q16 0 19 -12.5t-7 -22.5l-540 -615q-12 -14 -12.5 -21t12.5 -24l540 -704q10 -10 7 -22.5t-19 -12.5h-137 q-29 0 -41 14l-475 621q-12 18 -29 0l-53 -62q-23 -25 -23 -61v-471zM485 -223q0 47 34 82t81 35q49 0 85 -34t40 -83q12 -139 -139 -346q-18 -29 -51 -11q-18 14 -21.5 20.5t4.5 31.5q84 131 76 170q-2 16 -21 22q-88 37 -88 113z" glyph-name="Kcommaaccent" horiz-adv-x="1191" unicode="Ķ"/><glyph d="M172 0q-23 0 -32 9t-9 32v1352q0 23 9.5 32t31.5 9h90q23 0 32 -9.5t9 -31.5v-807q0 -6 3 -9.5t8 -2.5t8 6l331 415q23 29 60 29h114q18 0 22.5 -12.5t-7.5 -28.5l-301 -377q-8 -10 0 -24l327 -541q10 -16 5 -28.5t-25 -12.5h-109q-35 0 -51 29l-262 432q-8 14 -20 0 l-87 -107q-16 -23 -16 -69v-244q0 -23 -9 -32t-32 -9h-90zM334 -225q0 47 33.5 81.5t81.5 34.5q49 0 84.5 -33.5t39.5 -82.5q12 -139 -139 -346q-18 -29 -51 -11q-18 14 -21.5 20.5t5.5 31.5q84 131 75 170q-2 16 -20 22q-88 37 -88 113z" glyph-name="kcommaaccent" horiz-adv-x="905" unicode="ķ"/><glyph d="M213 0q-23 0 -32 9t-9 32v1352q0 23 9 32t32 9h94q23 0 32 -9.5t9 -31.5v-1188q0 -31 5 -36t36 -5h496q23 0 32 -9.5t9 -31.5v-82q0 -23 -9.5 -32t-31.5 -9h-672zM119 1659l207 227q29 33 59 2l43 -43q29 -29 0 -57l-221 -213q-27 -27 -60 6l-22 23q-29 28 -6 55z" glyph-name="Lacute" horiz-adv-x="974" unicode="Ĺ"/><glyph d="M485 0h-30q-158 0 -251 94t-93 250v1049q0 23 9 32t32 9h90q23 0 32 -9.5t9 -31.5v-1049q0 -82 49 -131t141 -49h12q23 0 32 -9.5t9 -31.5v-82q0 -23 -9 -32t-32 -9zM41 1659l207 227q29 33 59 2l43 -43q29 -29 0 -57l-221 -213q-27 -27 -59 6l-23 23q-29 28 -6 55z" glyph-name="lacute" horiz-adv-x="573" unicode="ĺ"/><glyph d="M213 0q-23 0 -32 9t-9 32v1352q0 23 9 32t32 9h94q23 0 32 -9.5t9 -31.5v-1188q0 -31 5 -36t36 -5h496q23 0 32 -9.5t9 -31.5v-82q0 -23 -9.5 -32t-31.5 -9h-672zM406 -225q0 47 33.5 81.5t80.5 34.5q49 0 85 -33.5t40 -82.5q12 -139 -139 -346q-18 -29 -51 -11 q-18 14 -21.5 20.5t4.5 31.5q84 131 76 170q-2 16 -20 22q-88 37 -88 113z" glyph-name="Lcommaaccent" horiz-adv-x="974" unicode="Ļ"/><glyph d="M485 0h-30q-158 0 -251 94t-93 250v1049q0 23 9 32t32 9h90q23 0 32 -9.5t9 -31.5v-1049q0 -82 49 -131t141 -49h12q23 0 32 -9.5t9 -31.5v-82q0 -23 -9 -32t-32 -9zM217 -225q0 47 34 81.5t81 34.5q49 0 85 -33.5t40 -82.5q12 -139 -140 -346q-18 -29 -51 -11 q-18 14 -21 20.5t5 31.5q84 131 76 170q-2 16 -21 22q-88 37 -88 113z" glyph-name="lcommaaccent" horiz-adv-x="573" unicode="ļ"/><glyph d="M213 0q-23 0 -32 9t-9 32v1352q0 23 9 32t32 9h94q23 0 32 -9.5t9 -31.5v-1188q0 -31 5 -36t36 -5h496q23 0 32 -9.5t9 -31.5v-82q0 -23 -9.5 -32t-31.5 -9h-672zM231 1573l-233 213q-31 27 0 57l43 43q31 31 57 0l144 -155q18 -18 37 0l143 155q27 31 57 0l43 -43 q31 -31 0 -57l-233 -213q-29 -29 -58 0z" glyph-name="Lcaron" horiz-adv-x="974" unicode="Ľ"/><glyph d="M485 0h-30q-158 0 -251 94t-93 250v1049q0 23 9 32t32 9h90q23 0 32 -9.5t9 -31.5v-1049q0 -82 49 -131t141 -49h12q23 0 32 -9.5t9 -31.5v-82q0 -23 -9 -32t-32 -9zM354 1464q0 47 34 82t81 35q49 0 85 -34t40 -83q12 -139 -139 -346q-18 -29 -52 -10q-18 14 -21 20.5 t5 30.5q84 131 76 170q-2 16 -21 23q-88 36 -88 112z" glyph-name="lcaron" horiz-adv-x="573" unicode="ľ"/><glyph d="M213 0q-23 0 -32 9t-9 32v1352q0 23 9 32t32 9h94q23 0 32 -9.5t9 -31.5v-1188q0 -31 5 -36t36 -5h496q23 0 32 -9.5t9 -31.5v-82q0 -23 -9.5 -32t-31.5 -9h-672zM424 969q0 47 31.5 79.5t79 32.5t80 -32.5t32.5 -79.5t-32.5 -79t-80 -32t-79 32t-31.5 79z" glyph-name="Ldot" horiz-adv-x="974" unicode="Ŀ"/><glyph d="M485 0h-30q-158 0 -251 94t-93 250v1049q0 23 9 32t32 9h90q23 0 32 -9.5t9 -31.5v-1049q0 -82 49 -131t141 -49h12q23 0 32 -9.5t9 -31.5v-82q0 -23 -9 -32t-32 -9zM322 753.5q0 53.5 35.5 89.5t89 36t89 -36t35.5 -89.5t-35.5 -89t-89 -35.5t-89 35.5t-35.5 89z" glyph-name="ldot" horiz-adv-x="573" unicode="ŀ"/><glyph d="M221 0q-23 0 -32 9t-9 32v575l-86 -36q-37 -18 -53 20l-31 64q-16 37 21 53l149 65v611q0 23 9.5 32t31.5 9h94q23 0 32 -9.5t9 -31.5v-533l207 92q37 14 53 -20l31 -64q16 -37 -20 -53l-271 -121v-489q0 -31 5.5 -36t35.5 -5h496q23 0 32 -9.5t9 -31.5v-82 q0 -23 -9.5 -32t-31.5 -9h-672z" glyph-name="Lslash" horiz-adv-x="983" unicode="Ł"/><glyph d="M600 0h-31q-158 0 -251 94t-93 250v356l-88 -38q-37 -18 -53 20l-27 72q-14 39 21 53l147 65v521q0 23 9.5 32t31.5 9h90q23 0 32 -9.5t9 -31.5v-445l140 62q41 16 53 -21l26 -71q14 -37 -20 -54l-199 -88v-432q0 -82 49.5 -131t141.5 -49h12q23 0 32 -9.5t9 -31.5v-82 q0 -23 -9 -32t-32 -9z" glyph-name="lslash" horiz-adv-x="688" unicode="ł"/><glyph d="M283 1434q20 0 39 -25l735 -1032q8 -10 15 -8t7 12v1012q0 23 9.5 32t31.5 9h94q23 0 32 -9.5t9 -31.5v-1352q0 -23 -9 -32t-32 -9h-69q-20 0 -39 25l-735 1032q-8 10 -15.5 8t-7.5 -12v-1012q0 -23 -9 -32t-32 -9h-94q-23 0 -32 9t-9 32v1352q0 23 9 32t32 9h70z M596 1659l207 227q29 33 59 2l43 -43q29 -29 0 -57l-221 -213q-27 -27 -59 6l-23 23q-29 28 -6 55z" glyph-name="Nacute" horiz-adv-x="1427" unicode="Ń"/><glyph d="M303 983v-37q104 78 223 86q152 10 282 -86t130 -250v-655q0 -23 -9 -32t-32 -9h-90q-23 0 -32 9t-9 32v590q0 113 -71.5 177t-180.5 60q-117 -6 -211 -82v-745q0 -23 -9 -32t-32 -9h-90q-23 0 -32 9t-9 32v942q0 23 9.5 32t31.5 9h90q23 0 32 -9t9 -32zM412 1249 l206 228q29 33 60 2l43 -43q29 -29 0 -58l-221 -213q-27 -27 -60 6l-22 23q-29 28 -6 55z" glyph-name="nacute" horiz-adv-x="1048" unicode="ń"/><glyph d="M283 1434q20 0 39 -25l735 -1032q8 -10 15 -8t7 12v1012q0 23 9.5 32t31.5 9h94q23 0 32 -9.5t9 -31.5v-1352q0 -23 -9 -32t-32 -9h-69q-20 0 -39 25l-735 1032q-8 10 -15.5 8t-7.5 -12v-1012q0 -23 -9 -32t-32 -9h-94q-23 0 -32 9t-9 32v1352q0 23 9 32t32 9h70z M578 -223q0 47 33.5 82t80.5 35q49 0 85 -34t40 -83q12 -139 -139 -346q-18 -29 -51 -11q-18 14 -21.5 20.5t4.5 31.5q84 131 76 170q-2 16 -20 22q-88 37 -88 113z" glyph-name="Ncommaaccent" horiz-adv-x="1427" unicode="Ņ"/><glyph d="M303 983v-37q104 78 223 86q152 10 282 -86t130 -250v-655q0 -23 -9 -32t-32 -9h-90q-23 0 -32 9t-9 32v590q0 113 -71.5 177t-180.5 60q-117 -6 -211 -82v-745q0 -23 -9 -32t-32 -9h-90q-23 0 -32 9t-9 32v942q0 23 9.5 32t31.5 9h90q23 0 32 -9t9 -32zM387 -227 q0 47 34 81.5t81 34.5q49 0 85 -33.5t40 -82.5q12 -139 -140 -346q-18 -29 -51 -11q-18 14 -21 20.5t5 31.5q84 131 76 170q-2 16 -21 22q-88 37 -88 113z" glyph-name="ncommaaccent" horiz-adv-x="1048" unicode="ņ"/><glyph d="M283 1434q20 0 39 -25l735 -1032q8 -10 15 -8t7 12v1012q0 23 9.5 32t31.5 9h94q23 0 32 -9.5t9 -31.5v-1352q0 -23 -9 -32t-32 -9h-69q-20 0 -39 25l-735 1032q-8 10 -15.5 8t-7.5 -12v-1012q0 -23 -9 -32t-32 -9h-94q-23 0 -32 9t-9 32v1352q0 23 9 32t32 9h70z M682 1575l-233 213q-31 27 0 57l43 43q31 31 57 0l143 -155q18 -18 37 0l143 155q27 31 58 0l43 -43q31 -31 0 -57l-234 -213q-28 -29 -57 0z" glyph-name="Ncaron" horiz-adv-x="1427" unicode="Ň"/><glyph d="M303 983v-37q104 78 223 86q152 10 282 -86t130 -250v-655q0 -23 -9 -32t-32 -9h-90q-23 0 -32 9t-9 32v590q0 113 -71.5 177t-180.5 60q-117 -6 -211 -82v-745q0 -23 -9 -32t-32 -9h-90q-23 0 -32 9t-9 32v942q0 23 9.5 32t31.5 9h90q23 0 32 -9t9 -32zM485 1163 l-233 213q-31 27 0 58l43 43q31 31 57 0l144 -156q18 -18 36 0l144 156q27 31 57 0l43 -43q31 -31 0 -58l-233 -213q-29 -29 -58 0z" glyph-name="ncaron" horiz-adv-x="1048" unicode="ň"/><glyph d="M324 983v-37q104 78 223 86q152 10 281.5 -86t129.5 -250v-655q0 -23 -9 -32t-31 -9h-91q-23 0 -32 9t-9 32v590q0 113 -71.5 177t-179.5 60q-117 -6 -211 -82v-745q0 -23 -9.5 -32t-31.5 -9h-90q-23 0 -32 9t-9 32v942q0 23 9 32t32 9h90q23 0 32 -9t9 -32zM-39 1462 q0 47 34 82t81 35q49 0 85 -34t40 -83q12 -139 -140 -346q-18 -29 -51 -10q-18 14 -21 20.5t5 30.5q84 131 76 170q-2 16 -21 23q-88 36 -88 112z" glyph-name="napostrophe" horiz-adv-x="1069" unicode="ŉ"/><glyph d="M723 1442q268 0 440 -183.5t172 -542t-172 -541.5t-440 -183t-440 183t-172 541.5t172 542t440 183.5zM723 156q205 0 319.5 143t116.5 418q-2 274 -116.5 417.5t-319.5 143.5t-319.5 -143.5t-116.5 -417.5q2 -274 116.5 -417.5t319.5 -143.5zM479 1675q0 23 9.5 32 t31.5 9h408q23 0 32 -9t9 -32v-49q0 -23 -9.5 -32t-31.5 -9h-408q-23 0 -32 9.5t-9 31.5v49z" glyph-name="Omacron" horiz-adv-x="1445" unicode="Ō"/><glyph d="M90 512q0 137 39 242.5t104.5 163t141.5 86t159.5 28.5t159.5 -28.5t141.5 -86t104.5 -163t39 -242.5t-39 -242.5t-104.5 -163t-141.5 -86t-159.5 -28.5t-159.5 28.5t-141.5 86t-104.5 163t-39 242.5zM807 512q0 184 -76 270t-196.5 86t-196.5 -86t-76 -270t76 -270 t196.5 -86t196.5 86t76 270zM291 1266q0 23 9 32t32 9h407q23 0 32 -9.5t9 -31.5v-49q0 -23 -9 -32t-32 -9h-407q-23 0 -32 9t-9 32v49z" glyph-name="omacron" horiz-adv-x="1069" unicode="ō"/><glyph d="M723 1442q268 0 440 -183.5t172 -542t-172 -541.5t-440 -183t-440 183t-172 541.5t172 542t440 183.5zM723 156q205 0 319.5 143t116.5 418q-2 274 -116.5 417.5t-319.5 143.5t-319.5 -143.5t-116.5 -417.5q2 -274 116.5 -417.5t319.5 -143.5zM723 1569 q-115 0 -184.5 73.5t-73.5 190.5q-2 25 6 30t33 5h53q25 0 32 -5t9 -30q4 -68 38 -105.5t87 -37.5t87 37.5t38 105.5q2 25 9 30t32 5h53q25 0 33 -5t6 -30q-4 -117 -73.5 -190.5t-184.5 -73.5z" glyph-name="Obreve" horiz-adv-x="1445" unicode="Ŏ"/><glyph d="M90 512q0 137 39 242.5t104.5 163t141.5 86t159.5 28.5t159.5 -28.5t141.5 -86t104.5 -163t39 -242.5t-39 -242.5t-104.5 -163t-141.5 -86t-159.5 -28.5t-159.5 28.5t-141.5 86t-104.5 163t-39 242.5zM807 512q0 184 -76 270t-196.5 86t-196.5 -86t-76 -270t76 -270 t196.5 -86t196.5 86t76 270zM534.5 1159q-114.5 0 -184 74t-74.5 190q-2 25 6.5 30t32.5 5h54q25 0 32 -5t9 -30q4 -68 37.5 -105.5t87 -37.5t87 38t37.5 105q2 25 9.5 30t31.5 5h54q25 0 33 -5t6 -30q-4 -117 -74 -190.5t-184.5 -73.5z" glyph-name="obreve" horiz-adv-x="1069" unicode="ŏ"/><glyph d="M723 1442q268 0 440 -183.5t172 -542t-172 -541.5t-440 -183t-440 183t-172 541.5t172 542t440 183.5zM723 156q205 0 319.5 143t116.5 418q-2 274 -116.5 417.5t-319.5 143.5t-319.5 -143.5t-116.5 -417.5q2 -274 116.5 -417.5t319.5 -143.5zM449 1659l206 227 q29 33 60 2l43 -43q29 -29 0 -57l-221 -213q-27 -27 -60 6l-22 23q-29 28 -6 55zM788 1659l207 227q29 33 60 2l43 -43q29 -29 0 -57l-221 -213q-27 -27 -60 6l-22 23q-30 28 -7 55z" glyph-name="Ohungarumlaut" horiz-adv-x="1445" unicode="Ő"/><glyph d="M90 512q0 137 39 242.5t104.5 163t141.5 86t159.5 28.5t159.5 -28.5t141.5 -86t104.5 -163t39 -242.5t-39 -242.5t-104.5 -163t-141.5 -86t-159.5 -28.5t-159.5 28.5t-141.5 86t-104.5 163t-39 242.5zM807 512q0 184 -76 270t-196.5 86t-196.5 -86t-76 -270t76 -270 t196.5 -86t196.5 86t76 270zM258 1245l207 228q29 33 59 2l43 -43q29 -29 0 -58l-221 -213q-27 -27 -59 6l-23 23q-29 28 -6 55zM598 1245l207 228q29 33 59 2l43 -43q29 -29 0 -58l-221 -213q-27 -27 -59 6l-23 23q-29 28 -6 55z" glyph-name="ohungarumlaut" horiz-adv-x="1069" unicode="ő"/><glyph d="M1337 633v-428q0 -31 5.5 -36t35.5 -5h594q23 0 32 -9.5t9 -31.5v-82q0 -23 -9 -32t-32 -9h-770q-23 0 -32 9t-9 32v133q-164 -182 -438 -182q-268 0 -440 183t-172 541.5t172 542t440 183.5q270 0 438 -182v133q0 23 9.5 32t31.5 9h770q23 0 32 -9.5t9 -31.5v-82 q0 -23 -9 -32t-32 -9h-594q-31 0 -36 -5t-5 -36v-350q0 -31 5.5 -36t35.5 -5h492q23 0 32 -9.5t9 -31.5v-82q0 -23 -9.5 -32t-31.5 -9h-492q-31 0 -36 -5t-5 -36zM723 156q205 0 319.5 143t116.5 418q-2 274 -116.5 417.5t-319.5 143.5t-319.5 -143.5t-116.5 -417.5 q2 -274 116.5 -417.5t319.5 -143.5z" glyph-name="OE" horiz-adv-x="2119" unicode="Œ"/><glyph d="M1231 1032q178 0 301 -133t123 -387v-41q0 -23 -9.5 -32t-31.5 -9h-588q-14 0 -21.5 -1t-12.5 -7t-5 -19q0 -125 79 -186t185 -61q115 0 219 94q31 27 58 0l53 -53q29 -29 0 -60q-125 -145 -330 -145q-246 0 -362 180q-121 -180 -354 -180q-84 0 -160 28.5t-141.5 86 t-104.5 163t-39 242.5t39 242.5t104.5 163t141.5 86t160 28.5q236 0 356 -184q119 184 340 184zM535 156q117 0 192.5 84t79.5 272q-4 186 -80 271t-192 85q-121 0 -197 -86t-76 -270t76 -270t197 -86zM1436 594q39 0 39 24q-2 121 -75 184.5t-169 63.5q-98 0 -171 -63.5 t-73 -184.5q0 -16 7 -20t32 -4h410z" glyph-name="oe" horiz-adv-x="1744" unicode="œ"/><glyph d="M213 1434h426q242 0 368 -110t126 -312q0 -340 -334 -408l336 -563q10 -18 4 -29.5t-23 -11.5h-121q-25 0 -32 4t-19 25l-334 561h-221q-31 0 -36 -5t-5 -36v-508q0 -23 -9 -32t-32 -9h-94q-23 0 -32 9t-9 32v1352q0 23 9 32t32 9zM348 1229v-434q0 -31 5 -36t36 -5h262 q309 0 309.5 258t-309.5 258h-262q-31 0 -36 -5t-5 -36zM479 1659l207 227q29 33 59 2l43 -43q29 -29 0 -57l-221 -213q-27 -27 -59 6l-23 23q-29 28 -6 55z" glyph-name="Racute" horiz-adv-x="1253" unicode="Ŕ"/><glyph d="M303 983v-27q115 76 221 76q121 0 230 -84q43 -33 18 -65l-49 -66q-27 -35 -53 -10q-70 61 -166 61q-94 0 -201 -71v-756q0 -23 -9 -32t-32 -9h-90q-23 0 -32 9t-9 32v942q0 23 9.5 32t31.5 9h90q23 0 32 -9t9 -32zM61 1245l207 228q29 33 60 2l43 -43q29 -29 0 -58 l-221 -213q-27 -27 -60 6l-22 23q-30 28 -7 55z" glyph-name="racute" horiz-adv-x="815" unicode="ŕ"/><glyph d="M213 1434h426q242 0 368 -110t126 -312q0 -340 -334 -408l336 -563q10 -18 4 -29.5t-23 -11.5h-121q-25 0 -32 4t-19 25l-334 561h-221q-31 0 -36 -5t-5 -36v-508q0 -23 -9 -32t-32 -9h-94q-23 0 -32 9t-9 32v1352q0 23 9 32t32 9zM348 1229v-434q0 -31 5 -36t36 -5h262 q309 0 309.5 258t-309.5 258h-262q-31 0 -36 -5t-5 -36zM494 -225q0 47 33.5 81.5t80.5 34.5q49 0 85 -33.5t40 -82.5q12 -139 -139 -346q-18 -29 -51 -11q-18 14 -21.5 20.5t4.5 31.5q84 131 76 170q-2 16 -20 22q-88 37 -88 113z" glyph-name="Rcommaaccent" horiz-adv-x="1253" unicode="Ŗ"/><glyph d="M303 983v-27q115 76 221 76q121 0 230 -84q43 -33 18 -65l-49 -66q-27 -35 -53 -10q-70 61 -166 61q-94 0 -201 -71v-756q0 -23 -9 -32t-32 -9h-90q-23 0 -32 9t-9 32v942q0 23 9.5 32t31.5 9h90q23 0 32 -9t9 -32zM86 -225q0 47 34 81.5t81 34.5q49 0 85 -33.5t40 -82.5 q12 -139 -140 -346q-18 -29 -51 -11q-18 14 -21 20.5t5 31.5q84 131 76 170q-2 16 -21 22q-88 37 -88 113z" glyph-name="rcommaaccent" horiz-adv-x="815" unicode="ŗ"/><glyph d="M213 1434h426q242 0 368 -110t126 -312q0 -340 -334 -408l336 -563q10 -18 4 -29.5t-23 -11.5h-121q-25 0 -32 4t-19 25l-334 561h-221q-31 0 -36 -5t-5 -36v-508q0 -23 -9 -32t-32 -9h-94q-23 0 -32 9t-9 32v1352q0 23 9 32t32 9zM348 1229v-434q0 -31 5 -36t36 -5h262 q309 0 309.5 258t-309.5 258h-262q-31 0 -36 -5t-5 -36zM569 1573l-233 213q-31 27 0 57l43 43q31 31 57 0l144 -155q18 -18 36 0l144 155q27 31 57 0l43 -43q31 -31 0 -57l-233 -213q-29 -29 -58 0z" glyph-name="Rcaron" horiz-adv-x="1253" unicode="Ř"/><glyph d="M303 983v-27q115 76 221 76q121 0 230 -84q43 -33 18 -65l-49 -66q-27 -35 -53 -10q-70 61 -166 61q-94 0 -201 -71v-756q0 -23 -9 -32t-32 -9h-90q-23 0 -32 9t-9 32v942q0 23 9.5 32t31.5 9h90q23 0 32 -9t9 -32zM188 1163l-233 213q-31 27 0 58l43 43q31 31 57 0 l144 -156q18 -18 37 0l143 156q27 31 57 0l43 -43q31 -31 0 -58l-233 -213q-29 -29 -58 0z" glyph-name="rcaron" horiz-adv-x="815" unicode="ř"/><glyph d="M553 -8q-92 6 -169 26.5t-135.5 57.5t-81 53t-58.5 49q-25 23 -3 47l66 76q23 25 47 2q106 -102 262 -136t272.5 18.5t116.5 176.5q0 82 -75.5 149t-183 120t-215 112.5t-180.5 152.5t-69 212q4 147 124 246.5t343 87.5q94 -4 188.5 -33t141.5 -55l47 -27q20 -14 8 -37 l-49 -94q-12 -18 -37 -4q-129 68 -264 84t-230 -32t-95 -154q0 -76 74.5 -139.5t180 -115t212 -108.5t181.5 -148.5t75 -205.5q0 -184 -143.5 -288.5t-350.5 -92.5zM477 1659l207 227q29 33 59 2l43 -43q29 -29 0 -57l-221 -213q-27 -27 -59 6l-23 23q-29 28 -6 55z" glyph-name="Sacute" horiz-adv-x="1132" unicode="Ś"/><glyph d="M274 778q-10 -66 47.5 -103.5t176.5 -78.5q63 -23 94 -34t85 -39.5t80.5 -55.5t51.5 -70t27 -96q8 -147 -100.5 -233t-293.5 -78q-184 6 -352 104q-31 18 -12 60l33 67q20 41 63 19q102 -53 186 -74q68 -12 134.5 -12t115.5 31.5t52 88.5q2 49 -39 88t-76 53.5t-127 47.5 q-18 6 -27 10q-133 47 -208.5 108.5t-80.5 176.5q-4 137 103.5 214t273.5 62q147 -14 273 -82q31 -16 12 -59l-33 -68q-14 -27 -65 -8q-117 49 -209 53q-169 8 -185 -92zM322 1249l206 228q29 33 60 2l43 -43q29 -29 0 -58l-221 -213q-27 -27 -60 6l-22 23q-29 28 -6 55z " glyph-name="sacute" horiz-adv-x="907" unicode="ś"/><glyph d="M553 -8q-92 6 -169 26.5t-135.5 57.5t-81 53t-58.5 49q-25 23 -3 47l66 76q23 25 47 2q106 -102 262 -136t272.5 18.5t116.5 176.5q0 82 -75.5 149t-183 120t-215 112.5t-180.5 152.5t-69 212q4 147 124 246.5t343 87.5q94 -4 188.5 -33t141.5 -55l47 -27q20 -14 8 -37 l-49 -94q-12 -18 -37 -4q-129 68 -264 84t-230 -32t-95 -154q0 -76 74.5 -139.5t180 -115t212 -108.5t181.5 -148.5t75 -205.5q0 -184 -143.5 -288.5t-350.5 -92.5zM332 1675l233 213q29 29 58 0l233 -213q31 -27 0 -57l-43 -43q-31 -31 -57 0l-144 156q-18 18 -37 0 l-143 -156q-27 -31 -57 0l-43 43q-31 30 0 57z" glyph-name="Scircumflex" horiz-adv-x="1132" unicode="Ŝ"/><glyph d="M274 778q-10 -66 47.5 -103.5t176.5 -78.5q63 -23 94 -34t85 -39.5t80.5 -55.5t51.5 -70t27 -96q8 -147 -100.5 -233t-293.5 -78q-184 6 -352 104q-31 18 -12 60l33 67q20 41 63 19q102 -53 186 -74q68 -12 134.5 -12t115.5 31.5t52 88.5q2 49 -39 88t-76 53.5t-127 47.5 q-18 6 -27 10q-133 47 -208.5 108.5t-80.5 176.5q-4 137 103.5 214t273.5 62q147 -14 273 -82q31 -16 12 -59l-33 -68q-14 -27 -65 -8q-117 49 -209 53q-169 8 -185 -92zM195 1266l233 213q29 29 57 0l234 -213q31 -27 0 -58l-43 -43q-31 -31 -58 0l-143 156q-18 18 -37 0 l-143 -156q-27 -31 -57 0l-43 43q-31 31 0 58z" glyph-name="scircumflex" horiz-adv-x="907" unicode="ŝ"/><glyph d="M502 -240l-78 21q-29 6 -23 29l60 192q-197 35 -352 176q-25 23 -3 47l66 76q23 25 47 2q106 -102 262 -136t272.5 18.5t116.5 176.5q0 82 -75.5 149t-183 120t-215 112.5t-180.5 152.5t-69 212q4 147 124 246.5t343 87.5q94 -4 188.5 -33t141.5 -55l47 -27q20 -14 8 -37 l-49 -94q-12 -18 -37 -4q-129 68 -264 84t-230 -32t-95 -154q0 -76 74.5 -139.5t180 -115t212 -108.5t181.5 -148.5t75 -205.5q0 -174 -127 -276.5t-318 -104.5l-24 -90q104 49 196 -11.5t92 -181.5q0 -139 -120.5 -209.5t-237.5 -7.5q-16 8 -6 29l26 82q10 20 31 10 q61 -27 110.5 5t49.5 91q0 74 -69.5 99.5t-119.5 -37.5q-12 -15 -28 -11z" glyph-name="Scedilla" horiz-adv-x="1132" unicode="Ş"/><glyph d="M326 -240l-78 21q-29 6 -23 29l62 200q-98 25 -197 84q-31 18 -12 60l33 67q20 41 63 19q102 -53 186 -74q68 -12 134.5 -12t115.5 31.5t52 88.5q2 49 -39 88t-76 53.5t-127 47.5q-18 6 -27 10q-133 47 -208.5 108.5t-80.5 176.5q-4 137 103.5 214t273.5 62 q147 -14 273 -82q31 -16 12 -59l-33 -68q-14 -27 -65 -8q-117 49 -209 53q-168 8 -185 -92q-10 -66 47.5 -103.5t176.5 -78.5q63 -23 94 -34t85 -39.5t80.5 -55.5t51.5 -70t27 -96q8 -147 -100.5 -233t-293.5 -78h-16l-25 -88q104 49 196.5 -11.5t92.5 -181.5 q0 -139 -120.5 -209.5t-237.5 -7.5q-16 8 -6 29l26 82q10 20 31 10q61 -27 110.5 5t49.5 91q0 74 -70 99.5t-119 -37.5q-12 -15 -28 -11z" glyph-name="scedilla" horiz-adv-x="907" unicode="ş"/><glyph d="M553 -8q-92 6 -169 26.5t-135.5 57.5t-81 53t-58.5 49q-25 23 -3 47l66 76q23 25 47 2q106 -102 262 -136t272.5 18.5t116.5 176.5q0 82 -75.5 149t-183 120t-215 112.5t-180.5 152.5t-69 212q4 147 124 246.5t343 87.5q94 -4 188.5 -33t141.5 -55l47 -27q20 -14 8 -37 l-49 -94q-12 -18 -37 -4q-129 68 -264 84t-230 -32t-95 -154q0 -76 74.5 -139.5t180 -115t212 -108.5t181.5 -148.5t75 -205.5q0 -184 -143.5 -288.5t-350.5 -92.5zM555 1575l-233 213q-31 27 0 57l43 43q31 31 57 0l143 -155q18 -18 37 0l143 155q27 31 58 0l43 -43 q31 -31 0 -57l-234 -213q-28 -29 -57 0z" glyph-name="Scaron" horiz-adv-x="1132" unicode="Š"/><glyph d="M274 778q-10 -66 47.5 -103.5t176.5 -78.5q63 -23 94 -34t85 -39.5t80.5 -55.5t51.5 -70t27 -96q8 -147 -100.5 -233t-293.5 -78q-184 6 -352 104q-31 18 -12 60l33 67q20 41 63 19q102 -53 186 -74q68 -12 134.5 -12t115.5 31.5t52 88.5q2 49 -39 88t-76 53.5t-127 47.5 q-18 6 -27 10q-133 47 -208.5 108.5t-80.5 176.5q-4 137 103.5 214t273.5 62q147 -14 273 -82q31 -16 12 -59l-33 -68q-14 -27 -65 -8q-117 49 -209 53q-169 8 -185 -92zM428 1163l-233 213q-31 27 0 58l43 43q31 31 57 0l143 -156q18 -18 37 0l143 156q27 31 58 0l43 -43 q31 -31 0 -58l-234 -213q-28 -29 -57 0z" glyph-name="scaron" horiz-adv-x="907" unicode="š"/><glyph d="M29 1393q0 23 9 32t32 9h888q23 0 32 -9.5t9 -31.5v-82q0 -23 -9 -32t-32 -9h-315q-31 0 -36 -5t-5 -36v-1188q0 -29 -18 -39l-31 -111q104 49 196.5 -11t92.5 -181q0 -139 -121 -210t-238 -7q-16 8 -6 29l27 81q10 20 31 11q61 -27 110 5t49 91q0 74 -69.5 99.5 t-118.5 -38.5q-12 -14 -29 -10l-78 21q-29 6 -22 28l61 205q-12 8 -12 37v1188q0 31 -5 36t-36 5h-315q-23 0 -32 9t-9 32v82z" glyph-name="Tcommaaccent" horiz-adv-x="1028" unicode="Ţ"/><glyph d="M193 827q0 20 -21 21h-82q-23 0 -32 9t-9 32v65q0 23 9.5 32t31.5 9h82q20 0 21 21v186q0 23 9 32t31 9h91q23 0 32 -9t9 -32v-186q0 -20 20 -21h180q23 0 32 -9t9 -32v-65q0 -23 -9 -32t-32 -9h-180q-20 0 -20 -21v-518q0 -70 45 -111.5t102 -41.5q70 0 119 57 q27 33 57 2l47 -47q18 -23 15.5 -37t-27.5 -43q-88 -98 -229 -96q-16 0 -25 2l-27 -103q104 49 196.5 -11t92.5 -181q0 -139 -121 -210t-237 -7q-16 8 -6 29l26 81q10 20 31 11q61 -27 110.5 5t49.5 91q0 74 -70 99.5t-119 -38.5q-12 -14 -28 -10l-78 21q-29 6 -23 28 l72 238q-145 92 -145 272v518z" glyph-name="tcommaaccent" horiz-adv-x="770" unicode="ţ"/><glyph d="M49 1393q0 23 9.5 32t31.5 9h889q23 0 32 -9.5t9 -31.5v-82q0 -23 -9.5 -32t-31.5 -9h-315q-31 0 -36 -5t-5 -36v-1188q0 -23 -9.5 -32t-31.5 -9h-95q-23 0 -32 9t-9 32v1188q0 31 -5 36t-35 5h-316q-23 0 -32 9t-9 32v82zM506 1575l-234 213q-31 27 0 57l43 43 q31 31 58 0l143 -155q18 -18 37 0l143 155q27 31 58 0l43 -43q31 -31 0 -57l-234 -213q-28 -29 -57 0z" glyph-name="Tcaron" horiz-adv-x="1069" unicode="Ť"/><glyph d="M193 827q0 20 -21 21h-82q-23 0 -32 9t-9 32v65q0 23 9.5 32t31.5 9h82q20 0 21 21v186q0 23 9 32t31 9h91q23 0 32 -9t9 -32v-186q0 -20 20 -21h180q23 0 32 -9t9 -32v-65q0 -23 -9 -32t-32 -9h-180q-20 0 -20 -21v-518q0 -70 45 -111.5t102 -41.5q70 0 119 57 q27 33 57 2l47 -47q18 -23 15.5 -37t-27.5 -43q-88 -98 -229 -96q-121 2 -211 91t-90 226v518zM551 1464q0 47 33.5 82t81.5 35q49 0 84.5 -34t40.5 -83q12 -139 -140 -346q-18 -29 -51 -10q-18 14 -21.5 20.5t5.5 30.5q84 131 75 170q-2 16 -20 23q-88 36 -88 112z" glyph-name="tcaron" horiz-adv-x="776" unicode="ť"/><glyph d="M623 1073q0 -20 20 -20h164q23 0 32 -9.5t9 -31.5v-74q0 -23 -9.5 -32t-31.5 -9h-164q-20 0 -20 -20v-836q0 -23 -9.5 -32t-31.5 -9h-95q-23 0 -32 9t-9 32v836q0 20 -20 20h-164q-23 0 -32 9t-9 32v74q0 23 9.5 32t31.5 9h164q20 0 20 20v156q0 31 -5 36t-35 5h-316 q-23 0 -32 9t-9 32v82q0 23 9.5 32t31.5 9h889q23 0 32 -9.5t9 -31.5v-82q0 -23 -9.5 -32t-31.5 -9h-315q-31 0 -36 -5t-5 -36v-156z" glyph-name="Tbar" horiz-adv-x="1069" unicode="Ŧ"/><glyph d="M193 559q0 20 -21 21h-82q-23 0 -32 9t-9 32v65q0 23 9.5 32t31.5 9h82q20 0 21 21v79q0 20 -21 21h-82q-23 0 -32 9t-9 32v65q0 23 9.5 32t31.5 9h82q20 0 21 21v186q0 23 9 32t31 9h91q23 0 32 -9t9 -32v-186q0 -20 20 -21h180q23 0 32 -9t9 -32v-65q0 -23 -9 -32 t-32 -9h-180q-20 0 -20 -21v-79q0 -20 20 -21h180q23 0 32 -9t9 -32v-65q0 -23 -9 -32t-32 -9h-180q-20 0 -20 -21v-250q0 -70 45 -111.5t102 -41.5q70 0 119 57q27 33 57 2l47 -47q18 -23 15.5 -37t-27.5 -43q-88 -98 -229 -96q-121 2 -211 91t-90 226v250z" glyph-name="tbar" horiz-adv-x="770" unicode="ŧ"/><glyph d="M672 -8q-246 0 -393.5 156.5t-147.5 469.5v775q0 23 9.5 32t31.5 9h94q23 0 32 -9.5t9 -31.5v-791q0 -238 102.5 -342t262 -104t262 104.5t102.5 341.5v791q0 23 9.5 32t31.5 9h94q23 0 32 -9.5t9 -31.5v-775q0 -313 -147 -469.5t-393 -156.5zM817 1567 q-53 0 -112.5 23.5t-95.5 43t-78 10t-76 -62.5q-12 -18 -33 -6l-78 49q-18 12 -8 31q70 129 199 129q51 0 109 -23.5t94 -43t79 -11.5t80 63q12 18 33 7l78 -50q18 -12 8 -30q-70 -129 -199 -129z" glyph-name="Utilde" horiz-adv-x="1343" unicode="Ũ"/><glyph d="M745 41v37q-104 -78 -223 -86q-152 -10 -281.5 86t-129.5 250v655q0 23 9 32t32 9h90q23 0 32 -9t9 -32v-590q0 -113 71.5 -177t180.5 -60q117 6 210 82v745q0 23 9.5 32t31.5 9h91q23 0 32 -9t9 -32v-942q0 -23 -9.5 -32t-31.5 -9h-91q-23 0 -32 9t-9 32zM655 1157 q-51 0 -108.5 22.5t-92 41t-74.5 10.5t-75 -60q-12 -18 -33 -6l-73 47q-18 12 -9 29q68 125 193 125q49 0 104.5 -22.5t90 -42t76.5 -11.5t79 62q12 16 31 6l76 -47q18 -12 8 -29q-68 -125 -193 -125z" glyph-name="utilde" horiz-adv-x="1048" unicode="ũ"/><glyph d="M672 -8q-246 0 -393.5 156.5t-147.5 469.5v775q0 23 9.5 32t31.5 9h94q23 0 32 -9.5t9 -31.5v-791q0 -238 102.5 -342t262 -104t262 104.5t102.5 341.5v791q0 23 9.5 32t31.5 9h94q23 0 32 -9.5t9 -31.5v-775q0 -313 -147 -469.5t-393 -156.5zM428 1675q0 23 9 32t32 9 h408q23 0 32 -9t9 -32v-49q0 -23 -9.5 -32t-31.5 -9h-408q-23 0 -32 9.5t-9 31.5v49z" glyph-name="Umacron" horiz-adv-x="1343" unicode="Ū"/><glyph d="M745 41v37q-104 -78 -223 -86q-152 -10 -281.5 86t-129.5 250v655q0 23 9 32t32 9h90q23 0 32 -9t9 -32v-590q0 -113 71.5 -177t180.5 -60q117 6 210 82v745q0 23 9.5 32t31.5 9h91q23 0 32 -9t9 -32v-942q0 -23 -9.5 -32t-31.5 -9h-91q-23 0 -32 9t-9 32zM270 1266 q0 23 9.5 32t31.5 9h408q23 0 32 -9.5t9 -31.5v-49q0 -23 -9.5 -32t-31.5 -9h-408q-23 0 -32 9t-9 32v49z" glyph-name="umacron" horiz-adv-x="1048" unicode="ū"/><glyph d="M672 -8q-246 0 -393.5 156.5t-147.5 469.5v775q0 23 9.5 32t31.5 9h94q23 0 32 -9.5t9 -31.5v-791q0 -238 102.5 -342t262 -104t262 104.5t102.5 341.5v791q0 23 9.5 32t31.5 9h94q23 0 32 -9.5t9 -31.5v-775q0 -313 -147 -469.5t-393 -156.5zM671.5 1569 q-114.5 0 -184 73.5t-73.5 190.5q-2 25 7 30t32 5h53q25 0 32 -5t9 -30q4 -68 37.5 -105.5t87 -37.5t87.5 37.5t38 105.5q2 25 9 30t32 5h53q23 0 32 -5t7 -30q-4 -117 -74 -190.5t-184.5 -73.5z" glyph-name="Ubreve" horiz-adv-x="1343" unicode="Ŭ"/><glyph d="M745 41v37q-104 -78 -223 -86q-152 -10 -281.5 86t-129.5 250v655q0 23 9 32t32 9h90q23 0 32 -9t9 -32v-590q0 -113 71.5 -177t180.5 -60q117 6 210 82v745q0 23 9.5 32t31.5 9h91q23 0 32 -9t9 -32v-942q0 -23 -9.5 -32t-31.5 -9h-91q-23 0 -32 9t-9 32zM514 1159 q-115 0 -184.5 74t-73.5 190q-2 25 6 30t33 5h53q25 0 32 -5t9 -30q4 -68 38 -105.5t87 -37.5t87 38t38 105q2 25 9 30t32 5h53q25 0 33 -5t6 -30q-4 -117 -73.5 -190.5t-184.5 -73.5z" glyph-name="ubreve" horiz-adv-x="1048" unicode="ŭ"/><glyph d="M672 -8q-246 0 -393.5 156.5t-147.5 469.5v775q0 23 9.5 32t31.5 9h94q23 0 32 -9.5t9 -31.5v-791q0 -238 102.5 -342t262 -104t262 104.5t102.5 341.5v791q0 23 9.5 32t31.5 9h94q23 0 32 -9.5t9 -31.5v-775q0 -313 -147 -469.5t-393 -156.5zM600 1747q0 -29 21.5 -50.5 t50 -21.5t50 21.5t21.5 50.5t-21.5 50.5t-50 21.5t-50 -21.5t-21.5 -50.5zM483 1747q0 78 55.5 133t133.5 55t133 -55t55 -133t-55 -133t-133 -55t-133.5 55t-55.5 133z" glyph-name="Uring" horiz-adv-x="1343" unicode="Ů"/><glyph d="M745 41v37q-104 -78 -223 -86q-152 -10 -281.5 86t-129.5 250v655q0 23 9 32t32 9h90q23 0 32 -9t9 -32v-590q0 -113 71.5 -177t180.5 -60q117 6 210 82v745q0 23 9.5 32t31.5 9h91q23 0 32 -9t9 -32v-942q0 -23 -9.5 -32t-31.5 -9h-91q-23 0 -32 9t-9 32zM442 1337.5 q0 -28.5 21.5 -50t50.5 -21.5t50.5 21.5t21.5 50t-21.5 50t-50.5 21.5t-50.5 -21.5t-21.5 -50zM326 1337.5q0 77.5 55 133t133 55.5t133 -55.5t55 -133t-55 -133t-133 -55.5t-133 55.5t-55 133z" glyph-name="uring" horiz-adv-x="1048" unicode="ů"/><glyph d="M672 -8q-246 0 -393.5 156.5t-147.5 469.5v775q0 23 9.5 32t31.5 9h94q23 0 32 -9.5t9 -31.5v-791q0 -238 102.5 -342t262 -104t262 104.5t102.5 341.5v791q0 23 9.5 32t31.5 9h94q23 0 32 -9.5t9 -31.5v-775q0 -313 -147 -469.5t-393 -156.5zM727 1659l207 227 q29 33 59 2l43 -43q29 -29 0 -57l-221 -213q-27 -27 -59 6l-23 23q-29 28 -6 55zM387 1659l207 227q29 33 59 2l43 -43q29 -29 0 -57l-221 -213q-27 -27 -59 6l-23 23q-29 28 -6 55z" glyph-name="Uhungarumlaut" horiz-adv-x="1343" unicode="Ű"/><glyph d="M745 41v37q-104 -78 -223 -86q-152 -10 -281.5 86t-129.5 250v655q0 23 9 32t32 9h90q23 0 32 -9t9 -32v-590q0 -113 71.5 -177t180.5 -60q117 6 210 82v745q0 23 9.5 32t31.5 9h91q23 0 32 -9t9 -32v-942q0 -23 -9.5 -32t-31.5 -9h-91q-23 0 -32 9t-9 32zM528 1249 l207 228q29 33 60 2l43 -43q29 -29 0 -58l-222 -213q-27 -27 -59 6l-22 23q-30 28 -7 55zM188 1249l207 228q29 33 60 2l43 -43q29 -29 0 -58l-222 -213q-27 -27 -59 6l-22 23q-30 28 -7 55z" glyph-name="uhungarumlaut" horiz-adv-x="1048" unicode="ű"/><glyph d="M1212 618q0 -279 -116.5 -433t-319.5 -185q-51 -33 -71.5 -83t5 -97t99.5 -62q29 -4 20 -32l-20 -88q-6 -23 -33 -21q-76 8 -130 50t-74.5 98.5t-13.5 119t44 111.5q-217 18 -344 175t-127 447v775q0 23 9.5 32t31.5 9h94q23 0 32 -9.5t9 -31.5v-791q0 -238 102.5 -342 t262 -104t262 104.5t102.5 341.5v791q0 23 9.5 32t31.5 9h94q23 0 32 -9.5t9 -31.5v-775z" glyph-name="Uogonek" horiz-adv-x="1343" unicode="Ų"/><glyph d="M745 41v37q-104 -78 -223 -86q-152 -10 -281.5 86t-129.5 250v655q0 23 9 32t32 9h90q23 0 32 -9t9 -32v-590q0 -113 71.5 -177t180.5 -60q117 6 210 82v745q0 23 9.5 32t31.5 9h91q23 0 32 -9t9 -32v-942q0 -41 -37 -41q-51 -33 -72 -83t5 -97t99 -62q29 -4 21 -32 l-21 -88q-6 -23 -32 -21q-111 12 -171.5 91t-50 173t85.5 152v8z" glyph-name="uogonek" horiz-adv-x="1048" unicode="ų"/><glyph d="M989 1434q16 0 23.5 -1t16.5 -10.5t13 -29.5l287 -1043q4 -10 12.5 -10t12.5 10l278 1043q4 18 16.5 28.5t23.5 11.5t34 1h86q39 0 27 -41l-375 -1352q-6 -29 -17.5 -35t-35.5 -6h-74q-16 0 -23.5 1t-16.5 10t-13 30l-308 1059q-4 10 -12 10t-12 -10l-291 -1059 q-6 -29 -17.5 -35t-35.5 -6h-90q-16 0 -23.5 1t-16.5 10t-14 30l-374 1352q-12 41 26 41h103q20 0 28.5 -2t16.5 -10.5t12 -28.5l279 -1043q4 -10 12 -10t12 10l287 1043q6 29 17 35t36 6h90zM682 1675l233 213q29 29 58 0l233 -213q31 -27 0 -57l-43 -43q-31 -31 -57 0 l-143 156q-18 18 -37 0l-144 -156q-27 -31 -57 0l-43 43q-31 30 0 57z" glyph-name="Wcircumflex" horiz-adv-x="1888" unicode="Ŵ"/><glyph d="M977 37l-236 659q-4 8 -10 8.5t-10 -8.5l-236 -659q-8 -23 -16 -30t-29 -7h-67q-20 0 -29.5 7t-15.5 30l-287 952q-6 23 3 29t32 6h90q16 0 22.5 -1t12.5 -8t10 -22l192 -665q2 -8 10.5 -8.5t10.5 8.5l235 659q8 23 16.5 30t29.5 7h53q20 0 28.5 -7t16.5 -30l235 -659 q2 -8 10.5 -8.5t10.5 8.5l192 665q4 14 10.5 21.5t12.5 8.5t22 1h90q14 0 20.5 -1t15 -9t-0.5 -25l-286 -952q-6 -23 -15.5 -30t-29.5 -7h-68q-20 0 -28.5 6t-16.5 31zM469 1266l233 213q29 29 58 0l233 -213q31 -27 0 -58l-43 -43q-31 -31 -57 0l-143 156q-18 18 -37 0 l-144 -156q-27 -31 -57 0l-43 43q-31 31 0 58z" glyph-name="wcircumflex" horiz-adv-x="1462" unicode="ŵ"/><glyph d="M584 870l311 535q12 20 19.5 24.5t31.5 4.5h105q16 0 22 -11.5t-4 -29.5l-410 -688v-664q0 -23 -9 -32t-32 -9h-94q-23 0 -32 9t-9 32v664l-409 688q-10 18 -4 29.5t22 11.5h105q25 0 32 -4.5t19 -24.5l311 -535q13 -20 25 0zM309 1675l234 213q29 29 57 0l234 -213 q31 -27 0 -57l-43 -43q-31 -31 -58 0l-143 156q-18 18 -37 0l-143 -156q-27 -31 -58 0l-43 43q-31 30 0 57z" glyph-name="Ycircumflex" horiz-adv-x="1142" unicode="Ŷ"/><glyph d="M494 274l262 719q8 23 15 27t30 4h90q14 0 20.5 -1t15.5 -9t-1 -25l-484 -1308q-33 -88 -101.5 -138.5t-143 -51.5t-150.5 26q-39 16 -27 51l27 74q10 33 43 20q164 -57 219 94l82 228q12 33 0 63l-350 942q-8 23 2 29t33 6h90q23 0 30 -4t15 -27l262 -719q2 -8 10.5 -8 t10.5 8zM219 1266l234 213q29 29 57 0l233 -213q31 -27 0 -58l-43 -43q-31 -31 -57 0l-143 156q-18 18 -37 0l-144 -156q-27 -31 -57 0l-43 43q-31 31 0 58z" glyph-name="ycircumflex" horiz-adv-x="966" unicode="ŷ"/><glyph d="M584 870l311 535q12 20 19.5 24.5t31.5 4.5h105q16 0 22 -11.5t-4 -29.5l-410 -688v-664q0 -23 -9 -32t-32 -9h-94q-23 0 -32 9t-9 32v664l-409 688q-10 18 -4 29.5t22 11.5h105q25 0 32 -4.5t19 -24.5l311 -535q13 -20 25 0zM262 1694q0 49 34 83.5t83 34.5t84 -34.5 t35 -83.5t-35 -83t-84 -34t-83 34t-34 83zM645 1694q0 49 34 83.5t83 34.5t84 -34.5t35 -83.5t-35 -83t-84 -34t-83 34t-34 83z" glyph-name="Ydieresis" horiz-adv-x="1142" unicode="Ÿ"/><glyph d="M109 180l684 1069q12 20 -9 21h-653q-23 0 -32 9t-9 32v82q0 23 9.5 32t31.5 9h819q23 0 32 -9.5t9 -31.5v-99q0 -25 -10 -41l-684 -1069q-12 -20 8 -20h641q23 0 32 -9.5t9 -31.5v-82q0 -23 -9 -32t-32 -9h-807q-23 0 -32 9t-9 32v98q1 25 11 41zM430 1659l207 227 q29 33 59 2l43 -43q29 -29 0 -57l-221 -213q-27 -27 -59 6l-23 23q-29 28 -6 55z" glyph-name="Zacute" horiz-adv-x="1089" unicode="Ź"/><glyph d="M827 844l-536 -664q-10 -16 8 -16h489q23 0 32 -9.5t9 -31.5v-82q0 -23 -9 -32t-32 -9h-677q-23 0 -32 9t-9 32v86q0 35 14 53l537 662q4 6 2 12t-11 6h-481q-23 0 -32 9.5t-9 31.5v82q0 23 9.5 32t31.5 9h678q25 0 33 -9t8 -32v-78q0 -34 -23 -61zM340 1249l207 228 q29 33 59 2l43 -43q29 -29 0 -58l-221 -213q-27 -27 -59 6l-23 23q-29 28 -6 55z" glyph-name="zacute" horiz-adv-x="919" unicode="ź"/><glyph d="M109 180l684 1069q12 20 -9 21h-653q-23 0 -32 9t-9 32v82q0 23 9.5 32t31.5 9h819q23 0 32 -9.5t9 -31.5v-99q0 -25 -10 -41l-684 -1069q-12 -20 8 -20h641q23 0 32 -9.5t9 -31.5v-82q0 -23 -9 -32t-32 -9h-807q-23 0 -32 9t-9 32v98q1 25 11 41zM434 1655q0 47 32 79.5 t79 32.5t79.5 -32.5t32.5 -79.5t-32.5 -79t-79.5 -32t-79 32t-32 79z" glyph-name="Zdotaccent" horiz-adv-x="1089" unicode="Ż"/><glyph d="M827 844l-536 -664q-10 -16 8 -16h489q23 0 32 -9.5t9 -31.5v-82q0 -23 -9 -32t-32 -9h-677q-23 0 -32 9t-9 32v86q0 35 14 53l537 662q4 6 2 12t-11 6h-481q-23 0 -32 9.5t-9 31.5v82q0 23 9.5 32t31.5 9h678q25 0 33 -9t8 -32v-78q0 -34 -23 -61zM348 1245q0 47 32 80 t79 33t79.5 -33t32.5 -80t-32.5 -78.5t-79.5 -31.5t-79 31.5t-32 78.5z" glyph-name="zdotaccent" horiz-adv-x="919" unicode="ż"/><glyph d="M109 180l684 1069q12 20 -9 21h-653q-23 0 -32 9t-9 32v82q0 23 9.5 32t31.5 9h819q23 0 32 -9.5t9 -31.5v-99q0 -25 -10 -41l-684 -1069q-12 -20 8 -20h641q23 0 32 -9.5t9 -31.5v-82q0 -23 -9 -32t-32 -9h-807q-23 0 -32 9t-9 32v98q1 25 11 41zM516 1573l-233 213 q-31 27 0 57l43 43q31 31 57 0l143 -155q18 -18 37 0l144 155q27 31 57 0l43 -43q31 -31 0 -57l-234 -213q-28 -29 -57 0z" glyph-name="Zcaron" horiz-adv-x="1089" unicode="Ž"/><glyph d="M827 844l-536 -664q-10 -16 8 -16h489q23 0 32 -9.5t9 -31.5v-82q0 -23 -9 -32t-32 -9h-677q-23 0 -32 9t-9 32v86q0 35 14 53l537 662q4 6 2 12t-11 6h-481q-23 0 -32 9.5t-9 31.5v82q0 23 9.5 32t31.5 9h678q25 0 33 -9t8 -32v-78q0 -34 -23 -61zM430 1165l-233 213 q-31 27 0 58l43 43q31 31 57 0l143 -156q18 -18 37 0l144 156q27 31 57 0l43 -43q31 -31 0 -58l-234 -213q-28 -29 -57 0z" glyph-name="zcaron" horiz-adv-x="919" unicode="ž"/><glyph d="M1454 1434q23 0 32 -9.5t9 -31.5v-82q0 -23 -9 -32t-32 -9h-594q-31 0 -36 -5t-5 -36v-350q0 -31 5 -36t36 -5h492q23 0 32 -9.5t9 -31.5v-82q0 -23 -9.5 -32t-31.5 -9h-492q-31 0 -36 -5t-5 -36v-428q0 -31 5 -36t36 -5h594q23 0 32 -9.5t9 -31.5v-82q0 -23 -9 -32 t-32 -9h-770q-23 0 -32 9t-9 32v295q0 31 -5 36t-36 5h-199q-20 0 -27 -5t-14 -24l-106 -307q-10 -29 -19.5 -35t-35.5 -6h-105q-41 0 -26 41l477 1352q10 29 20.5 35t34.5 6h852zM602 541q31 0 36 5t5 36v577q-8 0 -12 -10l-195 -586q-8 -23 15 -22h151zM834 1661l206 227 q29 33 60 2l43 -43q29 -29 0 -57l-221 -213q-27 -27 -60 6l-22 23q-29 28 -6 55z" glyph-name="AEacute" horiz-adv-x="1585" unicode="Ǽ"/><glyph d="M1141 1032q178 0 301 -133t123 -387v-41q0 -23 -9.5 -32t-31.5 -9h-588q-14 0 -21.5 -1t-12.5 -7t-5 -19q0 -125 79 -186t185 -61q115 0 219 94q31 27 58 0l53 -53q29 -29 0 -60q-125 -145 -330 -145q-160 0 -272 84v-35q0 -23 -9.5 -32t-31.5 -9h-90q-23 0 -32 9t-9 32 v33q-96 -74 -232 -82q-164 -10 -285.5 83t-121.5 257t122 257t285 83q131 -8 232 -82v51q0 98 -69.5 162.5t-164.5 64.5q-131 0 -217 -86q-29 -29 -55 0l-51 52q-29 29 0 59q123 139 327.5 139t325.5 -166q117 166 328 166zM489 133q125 2 228 86v225q-102 80 -228 86 q-104 4 -171.5 -51t-67.5 -147t67.5 -147.5t171.5 -51.5zM1346 594q39 0 38 24q-2 121 -74.5 184.5t-168.5 63.5q-98 0 -171 -63.5t-73 -184.5q0 -16 7 -20t32 -4h410zM655 1245l207 228q29 33 60 2l43 -43q29 -29 0 -58l-222 -213q-27 -27 -59 6l-22 23q-30 28 -7 55z" glyph-name="aeacute" horiz-adv-x="1654" unicode="ǽ"/><glyph d="M553 -8q-92 6 -169 26.5t-135.5 57.5t-81 53t-58.5 49q-25 23 -3 47l66 76q23 25 47 2q106 -102 262 -136t272.5 18.5t116.5 176.5q0 82 -75.5 149t-183 120t-215 112.5t-180.5 152.5t-69 212q4 147 124 246.5t343 87.5q94 -4 188.5 -33t141.5 -55l47 -27q20 -14 8 -37 l-49 -94q-12 -18 -37 -4q-129 68 -264 84t-230 -32t-95 -154q0 -76 74.5 -139.5t180 -115t212 -108.5t181.5 -148.5t75 -205.5q0 -184 -143.5 -288.5t-350.5 -92.5zM442 -225q0 47 34 81.5t81 34.5q49 0 85 -33.5t40 -82.5q12 -139 -139 -346q-18 -29 -51 -11 q-18 14 -21.5 20.5t4.5 31.5q84 131 76 170q-2 16 -21 22q-88 37 -88 113z" glyph-name="Scommaaccent" horiz-adv-x="1132" unicode="Ș"/><glyph d="M274 778q-10 -66 47.5 -103.5t176.5 -78.5q63 -23 94 -34t85 -39.5t80.5 -55.5t51.5 -70t27 -96q8 -147 -100.5 -233t-293.5 -78q-184 6 -352 104q-31 18 -12 60l33 67q20 41 63 19q102 -53 186 -74q68 -12 134.5 -12t115.5 31.5t52 88.5q2 49 -39 88t-76 53.5t-127 47.5 q-18 6 -27 10q-133 47 -208.5 108.5t-80.5 176.5q-4 137 103.5 214t273.5 62q147 -14 273 -82q31 -16 12 -59l-33 -68q-14 -27 -65 -8q-117 49 -209 53q-169 8 -185 -92zM313 -225q0 47 34 81.5t81 34.5q49 0 85 -33.5t40 -82.5q12 -139 -139 -346q-18 -29 -52 -11 q-18 14 -21 20.5t5 31.5q84 131 76 170q-2 16 -21 22q-88 37 -88 113z" glyph-name="scommaaccent" horiz-adv-x="907" unicode="ș"/><glyph d="M49 1393q0 23 9.5 32t31.5 9h889q23 0 32 -9.5t9 -31.5v-82q0 -23 -9.5 -32t-31.5 -9h-315q-31 0 -36 -5t-5 -36v-1188q0 -23 -9.5 -32t-31.5 -9h-95q-23 0 -32 9t-9 32v1188q0 31 -5 36t-35 5h-316q-23 0 -32 9t-9 32v82zM412 -258q0 47 33.5 82t80.5 35q49 0 85 -34 t40 -83q12 -139 -139 -346q-18 -29 -51 -10q-18 14 -21.5 20t4.5 31q84 131 76 170q-2 16 -20 22q-88 37 -88 113z" glyph-name="uni021A" horiz-adv-x="1069" unicode="Ț"/><glyph d="M193 827q0 20 -21 21h-82q-23 0 -32 9t-9 32v65q0 23 9.5 32t31.5 9h82q20 0 21 21v186q0 23 9 32t31 9h91q23 0 32 -9t9 -32v-186q0 -20 20 -21h180q23 0 32 -9t9 -32v-65q0 -23 -9 -32t-32 -9h-180q-20 0 -20 -21v-518q0 -70 45 -111.5t102 -41.5q70 0 119 57 q27 33 57 2l47 -47q18 -23 15.5 -37t-27.5 -43q-88 -98 -229 -96q-121 2 -211 91t-90 226v518zM309 -258q0 47 34 82t81 35q49 0 85 -34t40 -83q12 -139 -139 -346q-18 -29 -52 -10q-18 14 -21 20t5 31q84 131 76 170q-2 16 -21 22q-88 37 -88 113z" glyph-name="uni021B" horiz-adv-x="770" unicode="ț"/><glyph d="M303 983v-1176q0 -137 -90 -226t-211 -91q-141 -2 -229 96q-25 29 -28 43.5t15 36.5l47 47q31 31 58 -2q49 -57 119 -57q57 0 102 42t45 111v1176q0 23 9.5 32t31.5 9h90q23 0 32 -9t9 -32z" glyph-name="uni0237" horiz-adv-x="434" unicode="ȷ"/><glyph d="M53 1634l234 213q29 29 57 0l234 -213q31 -27 0 -57l-43 -43q-31 -31 -58 0l-143 156q-18 18 -37 0l-143 -156q-27 -31 -58 0l-43 43q-31 30 0 57z" glyph-name="circumflex" horiz-adv-x="630" unicode="ˆ"/><glyph d="M287 1534l-234 213q-31 27 0 57l43 43q31 31 58 0l143 -155q18 -18 37 0l143 155q27 31 58 0l43 -43q31 -31 0 -57l-234 -213q-28 -29 -57 0z" glyph-name="caron" horiz-adv-x="630" unicode="ˇ"/><glyph d="M270.5 1528q-114.5 0 -184.5 73.5t-74 190.5q-2 25 7.5 30t31.5 5h53q25 0 32 -5t9 -30q4 -68 38 -105.5t87.5 -37.5t87 37.5t37.5 105.5q2 25 9.5 30t31.5 5h53q23 0 32 -5t7 -30q-4 -117 -73.5 -190.5t-184 -73.5z" glyph-name="breve" horiz-adv-x="548" unicode="˘"/><glyph d="M35 1210q0 47 31.5 80t79 33t80 -33t32.5 -80t-32.5 -78.5t-80 -31.5t-79 31.5t-31.5 78.5z" glyph-name="dotaccent" horiz-adv-x="292" unicode="˙"/><glyph d="M174 1667q0 -29 21.5 -50.5t50 -21.5t50 21.5t21.5 50.5t-21.5 50.5t-50 21.5t-50 -21.5t-21.5 -50.5zM57 1667q0 78 55.5 133t133.5 55t133 -55t55 -133t-55 -133t-133 -55t-133.5 55t-55.5 133z" glyph-name="ring" horiz-adv-x="493" unicode="˚"/><glyph d="M125 70l96 -56q-61 -25 -92 -80t-7.5 -107t103.5 -69q29 -4 21 -32l-21 -88q-6 -23 -32 -21q-94 10 -152.5 71.5t-68 135.5t29.5 145.5t123 100.5z" glyph-name="ogonek" horiz-adv-x="309" unicode="˛"/><glyph d="M487 1526q-53 0 -112.5 23.5t-95 43t-77.5 10t-77 -62.5q-12 -18 -33 -6l-78 49q-18 12 -8 31q70 129 199 129q51 0 109.5 -23.5t94 -43t78.5 -11.5t80 64q12 18 33 6l78 -49q18 -12 8 -31q-70 -129 -199 -129z" glyph-name="tilde" horiz-adv-x="692" unicode="˜"/><glyph d="M29 1626l207 227q29 33 59 2l43 -43q29 -29 0 -57l-221 -213q-27 -27 -60 6l-22 23q-29 28 -6 55zM369 1626l206 227q29 33 60 2l43 -43q29 -29 0 -57l-221 -213q-27 -27 -60 6l-22 23q-29 28 -6 55z" glyph-name="hungarumlaut" horiz-adv-x="708" unicode="˝"/><glyph d="M348 633v-428q0 -31 5 -36t36 -5h594q23 0 32 -9.5t9 -31.5v-82q0 -23 -9 -32t-32 -9h-770q-23 0 -32 9t-9 32v1352q0 23 9 32t32 9h770q23 0 32 -9.5t9 -31.5v-82q0 -23 -9 -32t-32 -9h-594q-31 0 -36 -5t-5 -36v-350q0 -31 5 -36t36 -5h492q23 0 32 -9.5t9 -31.5v-82 q0 -23 -9.5 -32t-31.5 -9h-492q-31 0 -36 -5t-5 -36zM289 1694q0 49 33.5 83.5t83 34.5t84 -34.5t34.5 -83.5t-34.5 -83t-84 -34t-83 34t-33.5 83zM672 1694q0 49 33.5 83.5t83 34.5t84 -34.5t34.5 -83.5t-34.5 -83t-84 -34t-83 34t-33.5 83z" glyph-name="afii10023" horiz-adv-x="1130" unicode="Ё"/><glyph d="M317 1229q0 31 -5 36t-36 5h-188q-23 0 -32 9t-9 32v82q0 23 9.5 32t31.5 9h635q23 0 32 -9.5t9 -31.5v-82q0 -23 -9.5 -32t-31.5 -9h-191q-29 0 -33.5 -5t-4.5 -36v-268q92 63 204 71q152 10 283 -86t131 -250v-325q0 -371 -326 -371q-43 0 -36 43l14 94q4 27 37 27 q135 0 135 207v260q0 115 -67.5 178t-174.5 59q-115 -6 -200 -67v-760q0 -23 -9.5 -32t-31.5 -9h-95q-23 0 -32 9t-9 32v1188z" glyph-name="afii10051" horiz-adv-x="1204" unicode="Ђ"/><glyph d="M172 1393q0 23 9 32t32 9h709q23 0 32 -9.5t9 -31.5v-82q0 -23 -9.5 -32t-31.5 -9h-533q-31 0 -36 -5t-5 -36v-1188q0 -23 -9 -32t-32 -9h-94q-23 0 -32 9t-9 32v1352zM430 1659l207 227q29 33 59 2l43 -43q29 -29 0 -57l-221 -213q-27 -27 -59 6l-23 23q-29 28 -6 55z " glyph-name="afii10052" horiz-adv-x="1007" unicode="Ѓ"/><glyph d="M674 676q0 -23 -9.5 -32t-31.5 -9h-320q-31 0 -37 -4t-4 -29q25 -219 136.5 -332.5t293.5 -113.5q195 0 326 131q29 29 57 0l56 -56q27 -27 0 -57q-164 -182 -439 -182q-268 0 -440 183t-172 541.5t172 542t440 183.5q274 0 439 -182q27 -31 0 -58l-56 -55q-29 -29 -57 0 q-131 131 -326 131q-182 0 -293.5 -113.5t-136.5 -333.5q-2 -25 4.5 -28.5t36.5 -3.5h320q23 0 32 -9.5t9 -31.5v-82z" glyph-name="afii10053" horiz-adv-x="1226" unicode="Є"/><glyph d="M553 -8q-92 6 -169 26.5t-135.5 57.5t-81 53t-58.5 49q-25 23 -3 47l66 76q23 25 47 2q106 -102 262 -136t272.5 18.5t116.5 176.5q0 82 -75.5 149t-183 120t-215 112.5t-180.5 152.5t-69 212q4 147 124 246.5t343 87.5q94 -4 188.5 -33t141.5 -55l47 -27q20 -14 8 -37 l-49 -94q-12 -18 -37 -4q-129 68 -264 84t-230 -32t-95 -154q0 -76 74.5 -139.5t180 -115t212 -108.5t181.5 -148.5t75 -205.5q0 -184 -143.5 -288.5t-350.5 -92.5z" glyph-name="afii10054" horiz-adv-x="1132" unicode="Ѕ"/><glyph d="M348 41q0 -23 -9 -32t-32 -9h-94q-23 0 -32 9t-9 32v1352q0 23 9 32t32 9h94q23 0 32 -9.5t9 -31.5v-1352z" glyph-name="afii10055" horiz-adv-x="520" unicode="І"/><glyph d="M350 41q0 -23 -9 -32t-32 -9h-94q-23 0 -32 9t-9 32v1352q0 23 9.5 32t31.5 9h94q23 0 32 -9.5t9 -31.5v-1352zM-47 1694q0 49 33.5 83.5t83 34.5t84 -34.5t34.5 -83.5t-34.5 -83t-84 -34t-83 34t-33.5 83zM336 1694q0 49 33.5 83.5t83 34.5t84 -34.5t34.5 -83.5 t-34.5 -83t-84 -34t-83 34t-33.5 83z" glyph-name="afii10056" horiz-adv-x="522" unicode="Ї"/><glyph d="M387 -8q-205 0 -328 139q-29 31 0 59l60 60q29 29 55 0q94 -94 207 -94q94 0 163.5 64.5t69.5 162.5v1010q0 23 9.5 32t31.5 9h95q23 0 32 -9.5t9 -31.5v-1008q0 -156 -118 -274.5t-286 -118.5z" glyph-name="afii10057" horiz-adv-x="921" unicode="Ј"/><glyph d="M1460 0h-387q-23 0 -32 9t-9 32v1018v10v160q0 31 -5 36t-36 5h-469q-31 0 -36 -5t-5 -36v-881q0 -174 -106.5 -261t-251.5 -87h-37q-23 0 -32 9t-9 32v82q0 23 9 32t32 9h29q190 0 190 252v977q0 23 9.5 32t31.5 9h821q23 0 32 -9.5t9 -31.5v-480q0 -31 5.5 -36t35.5 -5 h211q215 0 338 -128t123 -308t-123 -308t-338 -128zM1208 668v-463q0 -31 5.5 -36t35.5 -5h191q160 0 234.5 73.5t74.5 198.5t-75 199t-234 74h-191q-31 0 -36 -5t-5 -36z" glyph-name="afii10058" horiz-adv-x="1990" unicode="Љ"/><glyph d="M1024 0q-23 0 -32 9t-9 32v592q0 31 -5 36t-36 5h-553q-31 0 -36 -5t-5 -36v-592q0 -23 -9 -32t-32 -9h-94q-23 0 -32 9t-9 32v1352q0 23 9 32t32 9h94q23 0 32 -9.5t9 -31.5v-514q0 -31 5 -36t36 -5h553q31 0 36 5t5 36v514q0 23 9 32t32 9h94q23 0 32 -9.5t9 -31.5 v-514q0 -31 5 -36t36 -5h238q193 0 313.5 -125t120.5 -295t-121 -294t-313 -124h-414zM1411 164q141 0 216 74.5t75 179.5q0 106 -75 181t-216 75h-211q-31 0 -36 -5t-5 -36v-428q0 -31 5 -36t36 -5h211z" glyph-name="afii10059" horiz-adv-x="1941" unicode="Њ"/><glyph d="M317 1229q0 31 -5 36t-36 5h-188q-23 0 -32 9t-9 32v82q0 23 9.5 32t31.5 9h635q23 0 32 -9.5t9 -31.5v-82q0 -23 -9.5 -32t-31.5 -9h-191q-29 0 -33.5 -5t-4.5 -36v-268q92 63 204 71q152 10 283 -86t131 -250v-655q0 -23 -9 -32t-32 -9h-94q-23 0 -32 9t-9 32v590 q0 115 -67.5 178t-174.5 59q-115 -6 -200 -67v-760q0 -23 -9.5 -32t-31.5 -9h-95q-23 0 -32 9t-9 32v1188z" glyph-name="afii10060" horiz-adv-x="1198" unicode="Ћ"/><glyph d="M348 41q0 -23 -9 -32t-32 -9h-94q-23 0 -32 9t-9 32v1352q0 23 9 32t32 9h94q23 0 32 -9.5t9 -31.5v-600q0 -12 8.5 -14.5t14.5 5.5l559 635q12 14 41 15h135q16 0 19 -12.5t-7 -22.5l-540 -615q-12 -14 -12.5 -21t12.5 -24l540 -704q10 -10 7 -22.5t-19 -12.5h-137 q-29 0 -41 14l-475 621q-12 18 -29 0l-53 -62q-23 -25 -23 -61v-471zM483 1661l207 227q29 33 60 2l43 -43q29 -29 0 -57l-222 -213q-27 -27 -59 6l-23 23q-29 28 -6 55z" glyph-name="afii10061" horiz-adv-x="1140" unicode="Ќ"/><glyph d="M209 156q152 -47 194 73l31 86q12 33 0 64l-364 1020q-8 23 2 29t32 6h91q23 0 29.5 -4.5t15.5 -26.5l280 -817q8 -20 17 0l280 817q8 23 15.5 27t29.5 4h90q14 0 20.5 -1t15.5 -9.5t-1 -24.5l-438 -1235q-29 -82 -93.5 -126t-138 -46t-151.5 18q-39 12 -27 51l27 74 q10 29 43 21zM528.5 1569q-114.5 0 -184.5 73.5t-74 190.5q-2 25 7.5 30t31.5 5h53q25 0 32 -5t9 -30q4 -68 38 -105.5t87.5 -37.5t87 37.5t37.5 105.5q2 25 9.5 30t31.5 5h54q23 0 31.5 -5t6.5 -30q-4 -117 -73.5 -190.5t-184 -73.5z" glyph-name="afii10062" horiz-adv-x="1056" unicode="Ў"/><glyph d="M829 0q-31 0 -36 -5t-5 -36v-287q0 -23 -9 -32t-31 -9h-91q-23 0 -32 9.5t-9 31.5v287q0 31 -5 36t-36 5h-362q-23 0 -32 9t-9 32v1352q0 23 9 32t32 9h94q23 0 32 -9.5t9 -31.5v-1188q0 -31 5 -36t36 -5h619q31 0 36 5t5 36v1188q0 23 9 32t32 9h94q23 0 32 -9.5 t9 -31.5v-1352q0 -23 -9.5 -32t-31.5 -9h-355z" glyph-name="afii10145" horiz-adv-x="1396" unicode="Џ"/><glyph d="M602 1434h94q16 0 24.5 -2t16.5 -10.5t15 -28.5l477 -1352q14 -41 -27 -41h-104q-18 0 -26.5 2t-14.5 10t-15 29l-106 307q-6 18 -13.5 23.5t-27.5 5.5h-492q-20 0 -27 -5t-14 -24l-106 -307q-10 -29 -19.5 -35t-35.5 -6h-105q-41 0 -26 41l477 1352q10 29 20 35t35 6z M662 1149q-2 10 -12.5 10t-12.5 -10l-201 -586q-8 -23 15 -22h397q23 0 14 22z" glyph-name="afii10017" horiz-adv-x="1298" unicode="А"/><glyph d="M670 0h-457q-23 0 -32 9t-9 32v1061v10v281q0 23 9 32t32 9h770q23 0 32 -9.5t9 -31.5v-82q0 -23 -9 -32t-32 -9h-594q-31 0 -36 -5t-5 -36v-316q0 -31 5 -36t36 -5h281q215 0 337.5 -128t122.5 -308t-122.5 -308t-337.5 -128zM348 668v-463q0 -31 5 -36t36 -5h260 q160 0 234.5 73.5t74.5 198.5t-74.5 199t-234.5 74h-260q-31 0 -36 -5t-5 -36z" glyph-name="afii10018" horiz-adv-x="1200" unicode="Б"/><glyph d="M639 0h-426q-23 0 -32 9t-9 32v1352q0 23 9 32t32 9h408q231 0 347.5 -98.5t116.5 -278.5q0 -188 -129 -287q176 -109 177 -348q0 -203 -126 -312.5t-368 -109.5zM348 639v-434q0 -31 5 -36t36 -5h262q309 0 309.5 258t-309.5 258h-262q-31 0 -36 -5t-5 -36zM348 885 q0 -31 5 -36t36 -5h277q133 0 190 63.5t57 149.5t-57 149.5t-190 63.5h-277q-31 0 -36 -5t-5 -36v-344z" glyph-name="afii10019" horiz-adv-x="1230" unicode="В"/><glyph d="M172 1393q0 23 9 32t32 9h709q23 0 32 -9.5t9 -31.5v-82q0 -23 -9.5 -32t-31.5 -9h-533q-31 0 -36 -5t-5 -36v-1188q0 -23 -9 -32t-32 -9h-94q-23 0 -32 9t-9 32v1352z" glyph-name="afii10020" horiz-adv-x="1007" unicode="Г"/><glyph d="M1241 1393v-1188q0 -31 5 -36t36 -5h178q23 0 32 -9.5t9 -31.5v-451q0 -23 -9 -32t-32 -9h-90q-23 0 -32 9.5t-9 31.5v287q0 31 -5 36t-36 5h-1063q-31 0 -36 -5t-5 -36v-287q0 -23 -9 -32t-32 -9h-73q-23 0 -32 9.5t-9 31.5v451q0 23 9 32t32 9h223q0 2 23.5 102.5 t30.5 135t27.5 140t30 181.5t21.5 189.5t17.5 232.5t5.5 248q0 23 9 32t31 9h711q23 0 32 -9t9 -32zM1065 1239q0 31 -31 31h-381q-31 0 -30 -31q0 -72 -3.5 -144.5t-10.5 -148.5t-13 -133t-19.5 -135t-19.5 -118t-22.5 -120t-20.5 -100.5t-22 -97.5l-17 -78h549q31 0 36 5 t5 36v1034z" glyph-name="afii10021" horiz-adv-x="1529" unicode="Д"/><glyph d="M348 633v-428q0 -31 5 -36t36 -5h594q23 0 32 -9.5t9 -31.5v-82q0 -23 -9 -32t-32 -9h-770q-23 0 -32 9t-9 32v1352q0 23 9 32t32 9h770q23 0 32 -9.5t9 -31.5v-82q0 -23 -9 -32t-32 -9h-594q-31 0 -36 -5t-5 -36v-350q0 -31 5 -36t36 -5h492q23 0 32 -9.5t9 -31.5v-82 q0 -23 -9.5 -32t-31.5 -9h-492q-31 0 -36 -5t-5 -36z" glyph-name="afii10022" horiz-adv-x="1130" unicode="Е"/><glyph d="M864 0q-23 0 -32 9t-9 32v471q0 37 -22 61l-53 62q-16 18 -29 0l-475 -621q-12 -14 -41 -14h-137q-16 0 -19.5 12.5t6.5 22.5l541 704q12 16 12 23.5t-12 21.5l-541 615q-10 10 -7 22.5t20 12.5h135q29 0 41 -15l559 -635q6 -8 14 -6t8 15v600q0 23 9.5 32t31.5 9h94 q23 0 32 -9.5t9 -31.5v-600q0 -12 8.5 -14.5t14.5 5.5l559 635q12 14 41 15h135q16 0 19.5 -12.5t-7.5 -22.5l-540 -615q-12 -14 -12 -21t12 -24l540 -704q10 -10 7.5 -22.5t-19.5 -12.5h-137q-29 0 -41 14l-475 621q-12 18 -29 0l-53 -62q-23 -25 -23 -61v-471 q0 -23 -9 -32t-32 -9h-94z" glyph-name="afii10024" horiz-adv-x="1822" unicode="Ж"/><glyph d="M770 418q0 115 -73.5 181.5t-161.5 78.5q-25 4 -33 11t-8 30v90q0 23 8 30t33 11q82 8 145 67.5t63 145.5q0 100 -81.5 158.5t-196.5 48.5t-201 -90q-27 -29 -55 0l-57 55q-27 27 0 57q82 96 214 131t253.5 8.5t210 -124t88.5 -244.5q0 -178 -162 -297q188 -133 188 -348 q0 -207 -148.5 -325t-346 -101.5t-334.5 162.5q-33 31 0 63l55 51q33 33 61 0q88 -92 217.5 -104t225.5 58.5t96 195.5z" glyph-name="afii10025" horiz-adv-x="1054" unicode="З"/><glyph d="M1145 1434h69q23 0 32 -9.5t9 -31.5v-1352q0 -23 -9 -32t-32 -9h-94q-23 0 -32 9t-9 32v1012q0 10 -7 12t-15 -8l-735 -1032q-18 -25 -39 -25h-70q-23 0 -32 9t-9 32v1352q0 23 9 32t32 9h94q23 0 32 -9.5t9 -31.5v-1012q0 -10 7 -12t16 8l735 1032q19 25 39 25z" glyph-name="afii10026" horiz-adv-x="1427" unicode="И"/><glyph d="M1145 1434h69q23 0 32 -9.5t9 -31.5v-1352q0 -23 -9 -32t-32 -9h-94q-23 0 -32 9t-9 32v1012q0 10 -7 12t-15 -8l-735 -1032q-18 -25 -39 -25h-70q-23 0 -32 9t-9 32v1352q0 23 9 32t32 9h94q23 0 32 -9.5t9 -31.5v-1012q0 -10 7 -12t16 8l735 1032q19 25 39 25z M712.5 1569q-114.5 0 -184 73.5t-73.5 190.5q-2 25 7 30t32 5h53q25 0 32 -5t9 -30q4 -68 37.5 -105.5t87 -37.5t87.5 37.5t38 105.5q2 25 9 30t32 5h53q23 0 32 -5t7 -30q-4 -117 -74 -190.5t-184.5 -73.5z" glyph-name="afii10027" horiz-adv-x="1427" unicode="Й"/><glyph d="M348 41q0 -23 -9 -32t-32 -9h-94q-23 0 -32 9t-9 32v1352q0 23 9 32t32 9h94q23 0 32 -9.5t9 -31.5v-600q0 -12 8.5 -14.5t14.5 5.5l559 635q12 14 41 15h135q16 0 19 -12.5t-7 -22.5l-540 -615q-12 -14 -12.5 -21t12.5 -24l540 -704q10 -10 7 -22.5t-19 -12.5h-137 q-29 0 -41 14l-475 621q-12 18 -29 0l-53 -62q-23 -25 -23 -61v-471z" glyph-name="afii10028" horiz-adv-x="1191" unicode="К"/><glyph d="M481 1229v-881q0 -174 -106.5 -261t-251.5 -87h-37q-23 0 -32 9t-9 32v82q0 23 9 32t32 9h29q190 0 190 252v977q0 23 9.5 32t31.5 9h821q23 0 32 -9.5t9 -31.5v-1352q0 -23 -9 -32t-32 -9h-94q-23 0 -32 9t-9 32v1188q0 31 -5 36t-36 5h-469q-31 0 -36 -5t-5 -36z" glyph-name="afii10029" horiz-adv-x="1380" unicode="Л"/><glyph d="M797 0q-35 0 -45 29l-349 927q-4 12 -13 11.5t-9 -13.5l-72 -913q-2 -23 -10 -32t-31 -9h-94q-43 0 -41 41l113 1352q2 23 10 32t31 9h82q29 0 39 -25l413 -1104q2 -8 10.5 -8t10.5 8l413 1104q10 25 39 25h82q23 0 31 -9.5t10 -31.5l113 -1352q2 -41 -41 -41h-94 q-23 0 -31 9t-10 32l-72 913q0 12 -9 13.5t-13 -11.5l-349 -927q-10 -29 -45 -29h-69z" glyph-name="afii10030" horiz-adv-x="1662" unicode="М"/><glyph d="M983 633q0 31 -5 36t-36 5h-553q-31 0 -36 -5t-5 -36v-592q0 -23 -9 -32t-32 -9h-94q-23 0 -32 9t-9 32v1352q0 23 9 32t32 9h94q23 0 32 -9.5t9 -31.5v-514q0 -31 5 -36t36 -5h553q31 0 36 5t5 36v514q0 23 9 32t32 9h94q23 0 32 -9.5t9 -31.5v-1352q0 -23 -9 -32 t-32 -9h-94q-23 0 -32 9t-9 32v592z" glyph-name="afii10031" horiz-adv-x="1331" unicode="Н"/><glyph d="M723 1442q268 0 440 -183.5t172 -542t-172 -541.5t-440 -183t-440 183t-172 541.5t172 542t440 183.5zM723 156q205 0 319.5 143t116.5 418q-2 274 -116.5 417.5t-319.5 143.5t-319.5 -143.5t-116.5 -417.5q2 -274 116.5 -417.5t319.5 -143.5z" glyph-name="afii10032" horiz-adv-x="1445" unicode="О"/><glyph d="M1008 1270h-619q-31 0 -36 -5t-5 -36v-1188q0 -23 -9 -32t-32 -9h-94q-23 0 -32 9t-9 32v1352q0 23 9 32t32 9h971q23 0 32 -9.5t9 -31.5v-1352q0 -23 -9.5 -32t-31.5 -9h-94q-23 0 -32 9t-9 32v1188q0 31 -5 36t-36 5z" glyph-name="afii10033" horiz-adv-x="1396" unicode="П"/><glyph d="M213 1434h387q233 0 363.5 -132.5t130.5 -331t-130 -330.5t-364 -132h-211q-31 0 -36 -5t-5 -36v-426q0 -23 -9 -32t-32 -9h-94q-23 0 -32 9t-9 32v1352q0 23 9 32t32 9zM348 1229v-516q0 -31 5 -36t36 -5h191q174 0 258 81t84 218t-84 218t-258 81h-191q-31 0 -36 -5 t-5 -36z" glyph-name="afii10034" horiz-adv-x="1163" unicode="Р"/><glyph d="M723 -8q-268 0 -440 183t-172 541.5t172 542t440 183.5q274 0 438 -182q27 -31 0 -58l-55 -55q-29 -29 -57 0q-131 131 -326 131q-205 0 -319.5 -143.5t-116.5 -417.5q2 -274 116.5 -417.5t319.5 -143.5q195 0 326 131q29 29 57 0l55 -56q27 -27 0 -57 q-164 -182 -438 -182z" glyph-name="afii10035" horiz-adv-x="1263" unicode="С"/><glyph d="M49 1393q0 23 9.5 32t31.5 9h889q23 0 32 -9.5t9 -31.5v-82q0 -23 -9.5 -32t-31.5 -9h-315q-31 0 -36 -5t-5 -36v-1188q0 -23 -9.5 -32t-31.5 -9h-95q-23 0 -32 9t-9 32v1188q0 31 -5 36t-35 5h-316q-23 0 -32 9t-9 32v82z" glyph-name="afii10036" horiz-adv-x="1069" unicode="Т"/><glyph d="M209 156q152 -47 194 73l31 86q12 33 0 64l-364 1020q-8 23 2 29t32 6h91q23 0 29.5 -4.5t15.5 -26.5l280 -817q8 -20 17 0l280 817q8 23 15.5 27t29.5 4h90q14 0 20.5 -1t15.5 -9.5t-1 -24.5l-438 -1235q-29 -82 -93.5 -126t-138 -46t-151.5 18q-39 12 -27 51l27 74 q10 29 43 21z" glyph-name="afii10037" horiz-adv-x="1056" unicode="У"/><glyph d="M887 1434q23 0 32 -9.5t9 -31.5v-2q0 -31 5 -36t36 -5q299 0 459.5 -166t160.5 -467t-160.5 -467t-459.5 -166q-31 0 -36 -5t-5 -36v-2q0 -23 -9.5 -32t-31.5 -9h-94q-23 0 -32 9t-9 32v2q0 31 -5.5 36t-35.5 5q-299 0 -460 166t-161 467t161 467t460 166q31 0 36 5t5 36 v2q0 23 9 32t32 9h94zM969 248q444 0 444 469t-444 469q-31 0 -36 -5t-5 -36v-856q0 -31 5 -36t36 -5zM711 248q31 0 36 5t5 36v856q0 31 -5.5 36t-35.5 5q-444 0 -444 -469t444 -469z" glyph-name="afii10038" horiz-adv-x="1679" unicode="Ф"/><glyph d="M584 571q-6 0 -13 -8l-315 -534q-12 -20 -19.5 -24.5t-31.5 -4.5h-113q-16 0 -22.5 11.5t4.5 29.5l399 668q12 18 0 36l-379 648q-10 18 -4 29.5t23 11.5h112q25 0 32 -4.5t19 -24.5l295 -516q6 -8 12.5 -8t12.5 8l295 516q12 20 19.5 24.5t31.5 4.5h113q16 0 22 -11.5 t-4 -29.5l-379 -648q-12 -18 0 -36l400 -668q10 -18 4 -29.5t-23 -11.5h-112q-25 0 -32 4t-20 25l-315 534q-6 8 -12 8z" glyph-name="afii10039" horiz-adv-x="1167" unicode="Х"/><glyph d="M1206 0h-993q-23 0 -32 9t-9 32v1352q0 23 9 32t32 9h94q23 0 32 -9.5t9 -31.5v-1188q0 -31 5 -36t36 -5h553q31 0 36 5t5 36v1188q0 23 9 32t32 9h94q23 0 32 -9.5t9 -31.5v-1188q0 -31 5 -36t36 -5h178q23 0 32 -9.5t9 -31.5v-451q0 -23 -9 -32t-32 -9h-90 q-23 0 -32 9.5t-9 31.5v287q0 31 -5 36t-36 5z" glyph-name="afii10040" horiz-adv-x="1464" unicode="Ц"/><glyph d="M868 41v561q-143 -104 -293 -110q-186 -8 -335.5 96t-149.5 311v494q0 23 9.5 32t31.5 9h94q23 0 32 -9.5t9 -31.5v-428q0 -168 87 -241t227 -67q160 6 288 111v625q0 23 9.5 32t31.5 9h95q23 0 31.5 -9.5t8.5 -31.5v-1352q0 -23 -9 -32t-31 -9h-95q-23 0 -32 9t-9 32z " glyph-name="afii10041" horiz-adv-x="1216" unicode="Ч"/><glyph d="M1610 0h-1397q-23 0 -32 9t-9 32v1352q0 23 9 32t32 9h94q23 0 32 -9.5t9 -31.5v-1188q0 -31 5 -36t36 -5h393q31 0 36 5t5 36v1188q0 23 9.5 32t31.5 9h94q23 0 32 -9.5t9 -31.5v-1188q0 -31 5.5 -36t35.5 -5h394q31 0 36 5t5 36v1188q0 23 9 32t32 9h94q23 0 32 -9.5 t9 -31.5v-1352q0 -23 -9 -32t-32 -9z" glyph-name="afii10042" horiz-adv-x="1822" unicode="Ш"/><glyph d="M1651 205q0 -31 5 -36t36 -5h178q23 0 32 -9.5t9 -31.5v-451q0 -23 -9.5 -32t-31.5 -9h-90q-23 0 -32 9.5t-9 31.5v287q0 31 -5 36t-36 5h-1485q-41 0 -41 74v1319q0 23 9 32t32 9h94q23 0 32 -9.5t9 -31.5v-1188q0 -31 5 -36t36 -5h393q31 0 36 5t5 36v1188q0 23 9.5 32 t31.5 9h94q23 0 32 -9.5t9 -31.5v-1188q0 -31 5.5 -36t35.5 -5h394q31 0 36 5t5 36v1188q0 23 9 32t32 9h94q23 0 32 -9.5t9 -31.5v-1188z" glyph-name="afii10043" horiz-adv-x="1939" unicode="Щ"/><glyph d="M815 0h-457q-23 0 -32 9t-9 32v1120v10v58q0 31 -5 36t-36 5h-206q-23 0 -32 9t-9 32v82q0 23 9 32t32 9h383q23 0 32 -9.5t9 -31.5v-480q0 -31 5 -36t36 -5h280q215 0 338 -128t123 -308t-123 -308t-338 -128zM494 668v-463q0 -31 5 -36t36 -5h260q160 0 234.5 73.5 t74.5 198.5t-75 199t-234 74h-260q-31 0 -36 -5t-5 -36z" glyph-name="afii10044" horiz-adv-x="1345" unicode="Ъ"/><glyph d="M670 0h-457q-23 0 -32 9t-9 32v1352q0 23 9 32t32 9h94q23 0 32 -9.5t9 -31.5v-480q0 -31 5 -36t36 -5h281q215 0 337.5 -128t122.5 -308t-122.5 -308t-337.5 -128zM348 668v-463q0 -31 5 -36t36 -5h260q160 0 234.5 73.5t74.5 198.5t-74.5 199t-234.5 74h-260 q-31 0 -36 -5t-5 -36zM1475 41q0 -23 -9.5 -32t-31.5 -9h-95q-23 0 -32 9t-9 32v1352q0 23 9.5 32t31.5 9h95q23 0 32 -9.5t9 -31.5v-1352z" glyph-name="afii10045" horiz-adv-x="1646" unicode="Ы"/><glyph d="M670 0h-457q-23 0 -32 9t-9 32v1352q0 23 9 32t32 9h94q23 0 32 -9.5t9 -31.5v-480q0 -31 5 -36t36 -5h281q215 0 337.5 -128t122.5 -308t-122.5 -308t-337.5 -128zM348 668v-463q0 -31 5 -36t36 -5h260q160 0 234.5 73.5t74.5 198.5t-74.5 199t-234.5 74h-260 q-31 0 -36 -5t-5 -36z" glyph-name="afii10046" horiz-adv-x="1200" unicode="Ь"/><glyph d="M553 676v82q0 23 9 32t32 9h319q31 0 37 4t4 28q-25 219 -136 333t-294 114q-195 0 -325 -131q-29 -29 -58 0l-55 55q-27 27 0 58q164 182 438 182q268 0 440.5 -183.5t172.5 -542t-172 -541.5t-441 -183q-274 0 -438 182q-27 31 0 57l55 56q29 29 58 0 q131 -131 325 -131q182 0 294 113.5t136 332.5q2 25 -4 29t-37 4h-319q-23 0 -32 9t-9 32z" glyph-name="afii10047" horiz-adv-x="1226" unicode="Э"/><glyph d="M1817 716.5q0 -358.5 -172 -541.5t-441 -183q-244 0 -411.5 153.5t-196.5 454.5q-2 27 -7 31t-32 4h-168q-31 0 -36 -5t-5 -36v-553q0 -23 -9 -32t-32 -9h-94q-23 0 -32 9t-9 32v1352q0 23 9 32t32 9h94q23 0 32 -9.5t9 -31.5v-553q0 -31 5 -36t36 -5h168q27 0 32 4t7 31 q29 301 197 454.5t411 153.5q268 0 440.5 -183.5t172.5 -542zM1640 717q-2 274 -116.5 417.5t-319.5 143.5t-319.5 -143.5t-116.5 -417.5q2 -274 116.5 -417.5t319.5 -143.5t319.5 143.5t116.5 417.5z" glyph-name="afii10048" horiz-adv-x="1927" unicode="Ю"/><glyph d="M602 1434h426q23 0 32 -9.5t9 -31.5v-1352q0 -23 -9 -32t-32 -9h-94q-23 0 -32 9t-9 32v508q0 31 -5 36t-36 5h-223l-332 -561q-12 -20 -19.5 -24.5t-31.5 -4.5h-121q-16 0 -22.5 11.5t3.5 29.5l336 563q-334 68 -333 408q0 203 125.5 312.5t367.5 109.5zM893 795v434 q0 31 -5 36t-36 5h-262q-309 0 -309 -258t309 -258h262q31 0 36 5t5 36z" glyph-name="afii10049" horiz-adv-x="1241" unicode="Я"/><glyph d="M485 1040q168 0 285 -117.5t117 -275.5v-606q0 -23 -9.5 -32t-31.5 -9h-90q-23 0 -32 9t-9 32v41q-100 -74 -232 -82q-164 -10 -285.5 83t-121.5 257t121.5 257t285.5 83q127 -8 232 -82v51q0 98 -70 163t-164 65q-131 0 -217 -86q-27 -29 -55 0l-51 51q-29 29 0 59 q122 139 327 139zM487 141q125 2 228 86v226q-102 80 -228 86q-104 4 -171.5 -51.5t-67.5 -147.5t67.5 -147.5t171.5 -51.5z" glyph-name="afii10065" horiz-adv-x="999" unicode="а"/><glyph d="M90 512v406q0 236 108.5 321.5t321.5 85.5h12q98 0 138.5 12.5t46.5 55.5q4 23 12 32t29 9h88q43 0 41 -41q-10 -123 -83 -174.5t-229 -51.5h-69q-145 0 -193.5 -51t-48.5 -172q115 88 271 88q84 0 159.5 -28.5t141 -86t104.5 -163t39 -242.5t-39 -242.5t-104.5 -163 t-141.5 -86t-159.5 -28.5t-159.5 28.5t-141.5 86t-104.5 163t-39 242.5zM807 512q0 184 -76 270t-196.5 86t-196.5 -86t-76 -270t76 -270t196.5 -86t196.5 86t76 270z" glyph-name="afii10066" horiz-adv-x="1069" unicode="б"/><glyph d="M172 0q-23 0 -32 9t-9 32v942q0 23 9.5 32t31.5 9h356q131 0 211 -77t80 -197q0 -164 -117 -230q117 -72 117 -235q0 -121 -89 -203t-212 -82h-346zM344 444q-31 0 -36 -5t-5 -36v-198q0 -31 5 -36t36 -5h150q70 0 111.5 41t41.5 98q0 59 -42 100t-111 41h-150zM496 860 h-152q-31 0 -36 -5t-5 -36v-178q0 -31 5 -36t36 -5h152q68 0 109.5 34t41.5 95q0 63 -41.5 97t-109.5 34z" glyph-name="afii10067" horiz-adv-x="909" unicode="в"/><glyph d="M131 983q0 23 9.5 32t31.5 9h559q23 0 32 -9t9 -32v-82q0 -23 -9 -32t-32 -9h-387q-31 0 -36 -5t-5 -36v-778q0 -23 -9 -32t-32 -9h-90q-23 0 -32 9t-9 32v942z" glyph-name="afii10068" horiz-adv-x="817" unicode="г"/><glyph d="M963 983v-778q0 -31 5 -36t36 -5h122q23 0 32 -9.5t9 -31.5v-375q0 -23 -9 -32t-32 -9h-90q-23 0 -32 9.5t-9 31.5v211q0 31 -5 36t-36 5h-731q-31 0 -30 -31v-221q0 -23 -9.5 -32t-31.5 -9h-91q-23 0 -32 9.5t-9 31.5v375q0 23 9.5 32t31.5 9h111q6 8 16.5 26.5t37 88 t47 154.5t37 232.5t16.5 317.5q0 23 9 32t32 9h555q23 0 32 -9t9 -32zM750 164q31 0 36 5t5 36v624q0 31 -31 31h-234q-31 0 -30 -31q-8 -203 -41 -369.5t-62 -230.5l-28 -65h385z" glyph-name="afii10069" horiz-adv-x="1212" unicode="д"/><glyph d="M514 1032q178 0 301 -133t123 -387v-41q0 -23 -9 -32t-32 -9h-588q-14 0 -21 -1t-12.5 -7t-5.5 -19q0 -125 79 -186t186 -61q115 0 219 94q31 27 57 0l53 -53q29 -29 0 -60q-125 -145 -329 -145q-188 0 -316.5 123t-128.5 397q0 254 123 387t301 133zM719 594q39 0 39 24 q-2 121 -75 184.5t-169 63.5q-98 0 -171 -63.5t-73 -184.5q0 -16 7.5 -20t31.5 -4h410z" glyph-name="afii10070" horiz-adv-x="1028" unicode="е"/><glyph d="M733 0h-90q-23 0 -32 9t-9 32v244q0 47 -16 69l-86 107q-12 14 -21 0l-262 -432q-16 -29 -51 -29h-109q-20 0 -25 12.5t5 28.5l328 541q8 14 0 24l-302 377q-12 16 -8 28.5t23 12.5h115q37 0 59 -29l332 -415q2 -4 7 -5.5t8 2t3 9.5v397q0 23 9.5 32t31.5 9h90 q23 0 32 -9t9 -32v-397q0 -6 3 -9.5t8.5 -2.5t7.5 6l331 415q23 29 60 29h114q18 0 22.5 -12.5t-7.5 -28.5l-301 -377q-8 -10 0 -24l327 -541q10 -16 5 -28.5t-25 -12.5h-109q-35 0 -51 29l-262 432q-8 14 -20 0l-86 -107q-16 -23 -17 -69v-244q0 -23 -9 -32t-32 -9z" glyph-name="afii10072" horiz-adv-x="1376" unicode="ж"/><glyph d="M651 512q84 -70 107.5 -163t-10 -172t-126 -133t-219.5 -52q-201 2 -329 145q-29 31 0 60l53 53q27 27 57 0q98 -88 219 -94q119 -6 165 62.5t-6 140t-169 71.5q-23 0 -32 9.5t-9 31.5v82q0 23 9.5 32t31.5 9q117 0 169 71.5t6 140t-165 62.5q-121 -6 -219 -94 q-31 -27 -57 0l-53 53q-29 29 0 60q129 143 329 145q127 2 219.5 -52t126 -133t10 -172t-107.5 -163z" glyph-name="afii10073" horiz-adv-x="882" unicode="з"/><glyph d="M303 328q0 -6 6 -8.5t10 4.5l465 675q18 25 52 25h84q23 0 32 -9t9 -32v-942q0 -23 -9.5 -32t-31.5 -9h-91q-23 0 -32 9t-9 32v655q0 6 -6 8.5t-10 -4.5l-465 -675q-18 -25 -51 -25h-84q-23 0 -32 9t-9 32v942q0 23 9.5 32t31.5 9h90q23 0 32 -9t9 -32v-655z" glyph-name="afii10074" horiz-adv-x="1091" unicode="и"/><glyph d="M303 328q0 -6 6 -8.5t10 4.5l465 675q18 25 52 25h84q23 0 32 -9t9 -32v-942q0 -23 -9.5 -32t-31.5 -9h-91q-23 0 -32 9t-9 32v655q0 6 -6 8.5t-10 -4.5l-465 -675q-18 -25 -51 -25h-84q-23 0 -32 9t-9 32v942q0 23 9.5 32t31.5 9h90q23 0 32 -9t9 -32v-655zM544.5 1159 q-114.5 0 -184 74t-73.5 190q-2 25 7 30t32 5h53q25 0 32 -5t9 -30q4 -68 38 -105.5t87 -37.5t87 38t38 105q2 25 9 30t32 5h53q23 0 32 -5t7 -30q-4 -117 -74 -190.5t-184.5 -73.5z" glyph-name="afii10075" horiz-adv-x="1091" unicode="й"/><glyph d="M172 0q-23 0 -32 9t-9 32v942q0 23 9.5 32t31.5 9h90q23 0 32 -9t9 -32v-397q0 -6 3 -9.5t8 -2.5t8 6l331 415q23 29 60 29h114q18 0 22.5 -12.5t-7.5 -28.5l-301 -377q-8 -10 0 -24l327 -541q10 -16 5 -28.5t-25 -12.5h-109q-35 0 -51 29l-262 432q-8 14 -20 0l-87 -107 q-16 -23 -16 -69v-244q0 -23 -9 -32t-32 -9h-90z" glyph-name="afii10076" horiz-adv-x="905" unicode="к"/><glyph d="M354 819v-434q0 -86 -11 -149.5t-40 -120t-87 -86t-144 -29.5q-23 0 -32 9t-9 32v82q0 23 9 31t32 10q33 2 55.5 18.5t33.5 37t16 59t6 64.5t1 75v565q0 23 9.5 32t31.5 9h658q23 0 32 -9t9 -32v-942q0 -23 -9.5 -32t-31.5 -9h-90q-23 0 -32 9t-9 32v778q0 31 -5.5 36 t-35.5 5h-316q-31 0 -36 -5t-5 -36z" glyph-name="afii10077" horiz-adv-x="1054" unicode="л"/><glyph d="M299 999l340 -759q8 -16 16 0l340 759q14 25 52 25h75q23 0 32 -9t9 -32v-942q0 -23 -9 -32t-32 -9h-90q-23 0 -32 9t-9 32v534q0 4 -3 7.5t-7 1.5t-6 -6l-248 -553q-10 -25 -47 -25h-66q-37 0 -47 25l-248 553q-2 4 -6 6t-7 -1t-3 -8v-534q0 -23 -9 -32t-32 -9h-90 q-23 0 -32 9t-9 32v942q0 23 9.5 32t31.5 9h76q37 0 51 -25z" glyph-name="afii10078" horiz-adv-x="1294" unicode="м"/><glyph d="M807 401q0 31 -5 36t-36 5h-422q-31 0 -36 -5t-5 -36v-360q0 -23 -9 -32t-32 -9h-90q-23 0 -32 9t-9 32v942q0 23 9.5 32t31.5 9h90q23 0 32 -9t9 -32v-336q0 -31 5 -36t36 -5h422q31 0 36 5t5 36v336q0 23 9 32t32 9h90q23 0 32 -9t9 -32v-942q0 -23 -9 -32t-32 -9h-90 q-23 0 -32 9t-9 32v360z" glyph-name="afii10079" horiz-adv-x="1110" unicode="н"/><glyph d="M90 512q0 137 39 242.5t104.5 163t141.5 86t159.5 28.5t159.5 -28.5t141.5 -86t104.5 -163t39 -242.5t-39 -242.5t-104.5 -163t-141.5 -86t-159.5 -28.5t-159.5 28.5t-141.5 86t-104.5 163t-39 242.5zM807 512q0 184 -76 270t-196.5 86t-196.5 -86t-76 -270t76 -270 t196.5 -86t196.5 86t76 270z" glyph-name="afii10080" horiz-adv-x="1069" unicode="о"/><glyph d="M766 860h-422q-31 0 -36 -5t-5 -36v-778q0 -23 -9 -32t-32 -9h-90q-23 0 -32 9t-9 32v942q0 23 9.5 32t31.5 9h766q23 0 32 -9t9 -32v-942q0 -23 -9 -32t-32 -9h-90q-23 0 -32 9t-9 32v778q0 31 -5 36t-36 5z" glyph-name="afii10081" horiz-adv-x="1110" unicode="п"/><glyph d="M131 983q0 23 9.5 32t31.5 9h90q23 0 32 -9t9 -32v-53q98 90 215 102q176 16 310.5 -117t134.5 -403t-134.5 -403.5t-310.5 -116.5q-117 12 -215 102v-555q0 -23 -9 -32t-32 -9h-90q-23 0 -32 9.5t-9 31.5v1444zM791 512q0 186 -77 274t-196 82q-117 -6 -215 -106v-500 q98 -100 215 -106q119 -6 196 82t77 274z" glyph-name="afii10082" unicode="р"/><glyph d="M535 -8q-84 0 -160 28.5t-141.5 86t-104.5 163t-39 242.5t39 242.5t104.5 163t141.5 86t160 28.5q205 0 329 -145q29 -31 0 -60l-53 -53q-27 -27 -57 0q-104 94 -219 94q-121 0 -197 -86t-76 -270t76 -270t197 -86q115 0 219 94q31 27 57 0l53 -53q29 -29 0 -60 q-124 -145 -329 -145z" glyph-name="afii10083" horiz-adv-x="954" unicode="с"/><glyph d="M45 983q0 23 9 32t32 9h729q23 0 32 -9t9 -32v-82q0 -23 -9 -32t-32 -9h-237q-31 0 -36 -5t-5 -36v-778q0 -23 -9.5 -32t-31.5 -9h-90q-23 0 -32 9t-9 32v778q0 31 -5.5 36t-33.5 5h-240q-23 0 -32 9.5t-9 31.5v82z" glyph-name="afii10084" horiz-adv-x="901" unicode="т"/><glyph d="M494 274l262 719q8 23 15 27t30 4h90q14 0 20.5 -1t15.5 -9t-1 -25l-484 -1308q-33 -88 -101.5 -138.5t-143 -51.5t-150.5 26q-39 16 -27 51l27 74q10 33 43 20q164 -57 219 94l82 228q12 33 0 63l-350 942q-8 23 2 29t33 6h90q23 0 30 -4t15 -27l262 -719q2 -8 10.5 -8 t10.5 8z" glyph-name="afii10085" horiz-adv-x="966" unicode="у"/><glyph d="M539 0q-449 0 -449 512t449 512q31 0 36 5t5 36v18q0 23 9 32t32 9h90q23 0 32 -9t9 -32v-18q0 -31 5 -36t36 -5q449 0 448.5 -512t-448.5 -512q-31 0 -36 -5t-5 -36v-18q0 -23 -9.5 -32t-31.5 -9h-90q-23 0 -32 9t-9 32v18q0 31 -5 36t-36 5zM752 819v-614q0 -31 5 -36 t36 -5q139 0 207.5 82t68.5 266t-68.5 266t-207.5 82q-31 0 -36 -5t-5 -36zM539 164q31 0 36 5t5 36v614q0 31 -5.5 36t-35.5 5q-139 0 -208 -82t-69 -266t69 -266t208 -82z" glyph-name="afii10086" horiz-adv-x="1331" unicode="ф"/><glyph d="M487 385l-251 -344q-18 -25 -28.5 -33t-33.5 -8h-117q-20 0 -25 12.5t5 28.5l344 473q8 12 0 25l-324 444q-10 16 -5 28.5t26 12.5h117q23 0 33 -8t28 -33l231 -319q10 -14 21 0l231 319q18 25 28.5 33t33.5 8h117q20 0 25 -12.5t-5 -28.5l-324 -444q-8 -12 0 -25 l344 -473q10 -16 5 -28.5t-25 -12.5h-117q-23 0 -33 8t-28 33l-252 344q-11 14 -21 0z" glyph-name="afii10087" horiz-adv-x="995" unicode="х"/><glyph d="M172 0q-23 0 -32 9t-9 32v942q0 23 9.5 32t31.5 9h90q23 0 32 -9t9 -32v-778q0 -31 5 -36t36 -5h422q31 0 36 5t5 36v778q0 23 9 32t32 9h90q23 0 32 -9t9 -32v-778q0 -31 5 -36t36 -5h123q23 0 32 -9.5t9 -31.5v-375q0 -23 -9.5 -32t-31.5 -9h-90q-23 0 -32 9.5t-9 31.5 v211q0 31 -5.5 36t-35.5 5h-799z" glyph-name="afii10088" horiz-adv-x="1212" unicode="ц"/><glyph d="M690 41v272q-94 -57 -188 -61q-152 -10 -282 86t-130 250v395q0 23 9.5 32t31.5 9h90q23 0 32 -9t9 -32v-330q0 -113 72 -177t180 -60q96 2 176 55v512q0 23 9.5 32t31.5 9h90q23 0 32 -9t9 -32v-942q0 -23 -9 -32t-32 -9h-90q-23 0 -32 9t-9 32z" glyph-name="afii10089" horiz-adv-x="993" unicode="ч"/><glyph d="M1319 0h-1147q-23 0 -32 9t-9 32v942q0 23 9.5 32t31.5 9h90q23 0 32 -9t9 -32v-778q0 -31 5 -36t36 -5h274q31 0 36 5t5 36v778q0 23 9.5 32t31.5 9h91q23 0 31.5 -9t8.5 -32v-778q0 -31 5.5 -36t35.5 -5h275q31 0 36 5t5 36v778q0 23 9 32t32 9h90q23 0 32 -9t9 -32 v-942q0 -23 -9 -32t-32 -9z" glyph-name="afii10090" horiz-adv-x="1490" unicode="ш"/><glyph d="M1147 164q31 0 36 5t5 36v778q0 23 9 32t32 9h90q23 0 32 -9t9 -32v-778q0 -31 5 -36t36 -5h123q23 0 32 -9.5t9 -31.5v-375q0 -23 -9.5 -32t-31.5 -9h-90q-23 0 -32 9.5t-9 31.5v211q0 31 -5.5 36t-35.5 5h-1180q-23 0 -32 9t-9 32v942q0 23 9.5 32t31.5 9h90 q23 0 32 -9t9 -32v-778q0 -31 5 -36t36 -5h274q31 0 36 5t5 36v778q0 23 9.5 32t31.5 9h91q23 0 31.5 -9t8.5 -32v-778q0 -31 5.5 -36t35.5 -5h275z" glyph-name="afii10091" horiz-adv-x="1593" unicode="щ"/><glyph d="M418 983v-238q0 -31 5 -35.5t36 -4.5h82q178 0 285.5 -87.5t107.5 -265.5t-108.5 -265t-284.5 -87h-254q-23 0 -32 9t-9 32v766v10v2q0 31 -5 36t-36 5h-119q-23 0 -32 9.5t-9 31.5v82q0 23 9 32t32 9h291q23 0 32 -9t9 -32zM543 541h-84q-31 0 -36 -5.5t-5 -35.5v-295 q0 -31 5 -36t36 -5h84q223 0 223 188.5t-223 188.5z" glyph-name="afii10092" horiz-adv-x="1024" unicode="ъ"/><glyph d="M303 983v-238q0 -31 5 -35.5t36 -4.5h82q178 0 285.5 -87.5t107.5 -265.5t-108.5 -265t-284.5 -87h-254q-23 0 -32 9t-9 32v942q0 23 9.5 32t31.5 9h90q23 0 32 -9t9 -32zM428 541h-84q-31 0 -36 -5.5t-5 -35.5v-295q0 -31 5 -36t36 -5h84q223 0 223 188.5t-223 188.5z M1176 983v-942q0 -23 -9.5 -32t-31.5 -9h-91q-23 0 -31.5 9t-8.5 32v942q0 23 9 32t31 9h91q23 0 32 -9t9 -32z" glyph-name="afii10093" horiz-adv-x="1306" unicode="ы"/><glyph d="M303 983v-238q0 -31 5 -35.5t36 -4.5h82q178 0 285.5 -87.5t107.5 -265.5t-108.5 -265t-284.5 -87h-254q-23 0 -32 9t-9 32v942q0 23 9.5 32t31.5 9h90q23 0 32 -9t9 -32zM428 541h-84q-31 0 -36 -5.5t-5 -35.5v-295q0 -31 5 -36t36 -5h84q223 0 223 188.5t-223 188.5z " glyph-name="afii10094" horiz-adv-x="909" unicode="ь"/><glyph d="M864 512q0 -137 -39 -242.5t-104.5 -163t-141 -86t-159.5 -28.5q-205 0 -330 145q-29 31 0 60l53 53q27 27 58 0q104 -94 219 -94q100 0 171 60t93 190q2 14 -2 20t-10 7t-17 1h-231q-23 0 -32 9.5t-9 31.5v74q0 23 9 32t32 9h231q10 0 16.5 1t10.5 7t2 20 q-23 129 -93.5 189.5t-170.5 60.5q-115 0 -219 -94q-31 -27 -58 0l-53 53q-29 29 0 60q125 145 330 145q84 0 159.5 -28.5t141 -86t104.5 -163t39 -242.5z" glyph-name="afii10095" horiz-adv-x="933" unicode="э"/><glyph d="M1196 512q0 184 -76 270t-196.5 86t-196.5 -86t-76 -270t76 -270t196.5 -86t196.5 86t76 270zM455 594h11t8 2t4 3t3 5t2 6t2 9.5t2 11.5q31 205 155 303t282 98q84 0 159.5 -28.5t141 -86t104.5 -163t39 -242.5t-39 -242.5t-104.5 -163t-141 -86t-159.5 -28.5 q-100 0 -186.5 37t-158 130t-92.5 232q-6 33 -12 36t-20 3h-111q-31 0 -36 -5t-5 -36v-348q0 -23 -9 -32t-32 -9h-90q-23 0 -32 9t-9 32v942q0 23 9.5 32t31.5 9h90q23 0 32 -9t9 -32v-348q0 -31 5 -36t36 -5h111z" glyph-name="afii10096" horiz-adv-x="1458" unicode="ю"/><glyph d="M647 41v238q0 31 -5 35.5t-36 4.5h-121q-43 0 -61 3l-113 -285q-12 -37 -45 -37h-104q-41 0 -25 41l127 324q-172 82 -172 307q0 178 108.5 265t284.5 87h293q23 0 32 -9t9 -32v-942q0 -23 -9 -32t-32 -9h-90q-23 0 -32 9t-9 32zM483 483h123q31 0 36 5.5t5 35.5v295 q0 31 -5 36t-36 5h-123q-223 0 -223 -188.5t223 -188.5z" glyph-name="afii10097" horiz-adv-x="948" unicode="я"/><glyph d="M514 1032q178 0 301 -133t123 -387v-41q0 -23 -9 -32t-32 -9h-588q-14 0 -21 -1t-12.5 -7t-5.5 -19q0 -125 79 -186t186 -61q115 0 219 94q31 27 57 0l53 -53q29 -29 0 -60q-125 -145 -329 -145q-188 0 -316.5 123t-128.5 397q0 254 123 387t301 133zM719 594q39 0 39 24 q-2 121 -75 184.5t-169 63.5q-98 0 -171 -63.5t-73 -184.5q0 -16 7.5 -20t31.5 -4h410zM205 1284q0 49 33.5 84t83 35t84 -35t34.5 -84t-34.5 -83t-84 -34t-83 34t-33.5 83zM588 1284q0 49 33.5 84t83 35t84 -35t34.5 -84t-34.5 -83t-84 -34t-83 34t-33.5 83z" glyph-name="afii10071" horiz-adv-x="1028" unicode="ё"/><glyph d="M270 1106q0 20 -20 20h-180q-23 0 -32 9.5t-9 31.5v66q0 23 9 32t32 9h180q20 0 20 20v99q0 23 9.5 32t31.5 9h90q23 0 32 -9.5t9 -31.5v-99q0 -20 21 -20h180q23 0 32 -9.5t9 -31.5v-66q0 -23 -9 -32t-32 -9h-180q-20 0 -21 -20v-160q104 78 224 86q152 10 281.5 -86 t129.5 -250v-694q0 -371 -323 -371q-43 0 -37 43l14 95q4 27 37 26q137 0 137 207v629q0 113 -71.5 177t-180.5 60q-117 -6 -211 -82v-745q0 -23 -9 -32t-32 -9h-90q-23 0 -32 9t-9 32v1065z" glyph-name="afii10099" horiz-adv-x="1150" unicode="ђ"/><glyph d="M303 983v-27q115 76 221 76q121 0 230 -84q43 -33 18 -65l-49 -66q-27 -35 -53 -10q-70 61 -166 61q-94 0 -201 -71v-756q0 -23 -9 -32t-32 -9h-90q-23 0 -32 9t-9 32v942q0 23 9.5 32t31.5 9h90q23 0 32 -9t9 -32zM61 1249l207 228q29 33 60 2l43 -43q29 -29 0 -58 l-221 -213q-27 -27 -60 6l-22 23q-30 28 -7 55z" glyph-name="afii10100" horiz-adv-x="815" unicode="ѓ"/><glyph d="M90 512q0 137 39 242.5t104.5 163t141.5 86t160 28.5q205 0 329 -145q29 -31 0 -60l-53 -53q-27 -27 -57 0q-104 94 -219 94q-100 0 -171 -60t-94 -190q-2 -14 2 -20t10.5 -7t16.5 -1h231q23 0 32 -9.5t9 -31.5v-74q0 -23 -9 -32t-32 -9h-231q-10 0 -16.5 -1t-10.5 -7 t-2 -20q23 -129 93.5 -189.5t171.5 -60.5q115 0 219 94q31 27 57 0l53 -53q29 -29 0 -60q-125 -145 -329 -145q-84 0 -160 28.5t-141.5 86t-104.5 163t-39 242.5z" glyph-name="afii10101" horiz-adv-x="954" unicode="є"/><glyph d="M274 778q-10 -66 47.5 -103.5t176.5 -78.5q63 -23 94 -34t85 -39.5t80.5 -55.5t51.5 -70t27 -96q8 -147 -100.5 -233t-293.5 -78q-184 6 -352 104q-31 18 -12 60l33 67q20 41 63 19q102 -53 186 -74q68 -12 134.5 -12t115.5 31.5t52 88.5q2 49 -39 88t-76 53.5t-127 47.5 q-18 6 -27 10q-133 47 -208.5 108.5t-80.5 176.5q-4 137 103.5 214t273.5 62q147 -14 273 -82q31 -16 12 -59l-33 -68q-14 -27 -65 -8q-117 49 -209 53q-169 8 -185 -92z" glyph-name="afii10102" horiz-adv-x="907" unicode="ѕ"/><glyph d="M102 1284q0 49 34 84t83 35t84 -35t35 -84t-35 -83t-84 -34t-83 34t-34 83zM303 983v-942q0 -23 -9 -32t-32 -9h-90q-23 0 -32 9t-9 32v942q0 23 9.5 32t31.5 9h90q23 0 32 -9t9 -32z" glyph-name="afii10103" horiz-adv-x="434" unicode="і"/><glyph d="M303 983v-942q0 -23 -9 -32t-32 -9h-90q-23 0 -32 9t-9 32v942q0 23 9.5 32t31.5 9h90q23 0 32 -9t9 -32zM-92 1284q0 49 33.5 84t83 35t84 -35t34.5 -84t-34.5 -83t-84 -34t-83 34t-33.5 83zM291 1284q0 49 33.5 84t83 35t84 -35t34.5 -84t-34.5 -83t-84 -34t-83 34 t-33.5 83z" glyph-name="afii10104" horiz-adv-x="434" unicode="ї"/><glyph d="M131 983q0 23 9.5 32t31.5 9h90q23 0 32 -9t9 -32v-1176q0 -137 -90 -226t-211 -91q-141 -2 -229 96q-25 29 -28 43.5t15 36.5l47 47q31 31 58 -2q49 -57 119 -57q57 0 102 42t45 111v1176zM100 1284q0 49 34 84t83 35t84 -35t35 -84t-35 -83t-84 -34t-83 34t-34 83z" glyph-name="afii10105" horiz-adv-x="434" unicode="ј"/><glyph d="M924 745q0 -31 5 -35.5t36 -4.5h82q178 0 285.5 -87.5t107.5 -265.5t-108.5 -265t-284.5 -87h-254q-23 0 -32 9t-9 32v778q0 31 -5.5 36t-35.5 5h-316q-31 0 -36 -5t-5 -36v-434q0 -86 -11 -149.5t-40 -120t-87 -86t-144 -29.5q-23 0 -32 9t-9 32v82q0 23 9 31t32 10 q33 2 55.5 18.5t33.5 37t16 59t6 64.5t1 75v565q0 23 9.5 32t31.5 9h658q23 0 32 -9t9 -32v-238zM1049 541h-84q-31 0 -36 -5.5t-5 -35.5v-295q0 -31 5 -36t36 -5h84q223 0 223 188.5t-223 188.5z" glyph-name="afii10106" horiz-adv-x="1529" unicode="љ"/><glyph d="M133 41v942q0 23 9.5 32t31.5 9h657q23 0 32 -9t9 -32v-238q0 -31 5.5 -35.5t35.5 -4.5h82q178 0 286 -87.5t108 -265.5t-109 -265t-285 -87h-254q-23 0 -32 9t-9 32v778q0 31 -5 36t-36 5h-315q-31 0 -36 -5t-5 -36v-778q0 -23 -9 -32t-32 -9h-88q-23 0 -32 9t-9 32z M997 541h-84q-31 0 -36 -5.5t-5 -35.5v-295q0 -31 5.5 -36t35.5 -5h84q223 0 223 188.5t-223 188.5z" glyph-name="afii10107" horiz-adv-x="1478" unicode="њ"/><glyph d="M270 1106q0 20 -20 20h-180q-23 0 -32 9.5t-9 31.5v66q0 23 9 32t32 9h180q20 0 20 20v99q0 23 9.5 32t31.5 9h90q23 0 32 -9.5t9 -31.5v-99q0 -20 21 -20h180q23 0 32 -9.5t9 -31.5v-66q0 -23 -9 -32t-32 -9h-180q-20 0 -21 -20v-160q104 78 224 86q152 10 281.5 -86 t129.5 -250v-245v-11v-67q0 -371 -323 -371q-43 0 -37 43l14 94q4 27 37 27q137 0 137 207v258q0 113 -71.5 177t-180.5 60q-117 -6 -211 -82v-745q0 -23 -9 -32t-32 -9h-90q-23 0 -32 9t-9 32v1065z" glyph-name="afii10108" horiz-adv-x="1150" unicode="ћ"/><glyph d="M172 0q-23 0 -32 9t-9 32v942q0 23 9.5 32t31.5 9h90q23 0 32 -9t9 -32v-397q0 -6 3 -9.5t8 -2.5t8 6l331 415q23 29 60 29h114q18 0 22.5 -12.5t-7.5 -28.5l-301 -377q-8 -10 0 -24l327 -541q10 -16 5 -28.5t-25 -12.5h-109q-35 0 -51 29l-262 432q-8 14 -20 0l-87 -107 q-16 -23 -16 -69v-244q0 -23 -9 -32t-32 -9h-90zM344 1247l207 228q29 33 59 2l43 -43q29 -29 0 -58l-221 -213q-27 -27 -59 6l-23 23q-29 28 -6 55z" glyph-name="afii10109" horiz-adv-x="905" unicode="ќ"/><glyph d="M494 274l262 719q8 23 15 27t30 4h90q14 0 20.5 -1t15.5 -9t-1 -25l-484 -1308q-33 -88 -101.5 -138.5t-143 -51.5t-150.5 26q-39 16 -27 51l27 74q10 33 43 20q164 -57 219 94l82 228q12 33 0 63l-350 942q-8 23 2 29t33 6h90q23 0 30 -4t15 -27l262 -719q2 -8 10.5 -8 t10.5 8zM475 1159q-115 0 -184.5 74t-73.5 190q-2 25 7 30t32 5h53q25 0 32 -5t9 -30q4 -68 38 -105.5t87 -37.5t87 38t38 105q2 25 9 30t32 5h53q23 0 32 -5t7 -30q-4 -117 -73.5 -190.5t-184.5 -73.5z" glyph-name="afii10110" horiz-adv-x="966" unicode="ў"/><glyph d="M344 156h422q31 0 36 5t5 36v786q0 23 9 32t32 9h90q23 0 32 -9t9 -32v-942q0 -23 -9 -32t-32 -9h-256q-31 0 -36 -5t-5 -36v-211q0 -23 -9 -32t-32 -9h-90q-23 0 -32 9.5t-9 31.5v211q0 31 -5 36t-36 5h-256q-23 0 -32 9t-9 32v942q0 23 9.5 32t31.5 9h90q23 0 32 -9 t9 -32v-786q0 -31 5 -36t36 -5z" glyph-name="afii10193" horiz-adv-x="1110" unicode="џ"/><glyph d="M989 1434q16 0 23.5 -1t16.5 -10.5t13 -29.5l287 -1043q4 -10 12.5 -10t12.5 10l278 1043q4 18 16.5 28.5t23.5 11.5t34 1h86q39 0 27 -41l-375 -1352q-6 -29 -17.5 -35t-35.5 -6h-74q-16 0 -23.5 1t-16.5 10t-13 30l-308 1059q-4 10 -12 10t-12 -10l-291 -1059 q-6 -29 -17.5 -35t-35.5 -6h-90q-16 0 -23.5 1t-16.5 10t-14 30l-374 1352q-12 41 26 41h103q20 0 28.5 -2t16.5 -10.5t12 -28.5l279 -1043q4 -10 12 -10t12 10l287 1043q6 29 17 35t36 6h90zM893 1886l207 -227q23 -27 -6 -55l-23 -23q-33 -33 -59 -6l-221 213q-29 29 0 57 l43 43q30 31 59 -2z" glyph-name="Wgrave" horiz-adv-x="1888" unicode="Ẁ"/><glyph d="M977 37l-236 659q-4 8 -10 8.5t-10 -8.5l-236 -659q-8 -23 -16 -30t-29 -7h-67q-20 0 -29.5 7t-15.5 30l-287 952q-6 23 3 29t32 6h90q16 0 22.5 -1t12.5 -8t10 -22l192 -665q2 -8 10.5 -8.5t10.5 8.5l235 659q8 23 16.5 30t29.5 7h53q20 0 28.5 -7t16.5 -30l235 -659 q2 -8 10.5 -8.5t10.5 8.5l192 665q4 14 10.5 21.5t12.5 8.5t22 1h90q14 0 20.5 -1t15 -9t-0.5 -25l-286 -952q-6 -23 -15.5 -30t-29.5 -7h-68q-20 0 -28.5 6t-16.5 31zM680 1477l207 -228q23 -27 -6 -55l-23 -23q-33 -33 -59 -6l-221 213q-29 29 0 58l43 43q30 31 59 -2z " glyph-name="wgrave" horiz-adv-x="1462" unicode="ẁ"/><glyph d="M989 1434q16 0 23.5 -1t16.5 -10.5t13 -29.5l287 -1043q4 -10 12.5 -10t12.5 10l278 1043q4 18 16.5 28.5t23.5 11.5t34 1h86q39 0 27 -41l-375 -1352q-6 -29 -17.5 -35t-35.5 -6h-74q-16 0 -23.5 1t-16.5 10t-13 30l-308 1059q-4 10 -12 10t-12 -10l-291 -1059 q-6 -29 -17.5 -35t-35.5 -6h-90q-16 0 -23.5 1t-16.5 10t-14 30l-374 1352q-12 41 26 41h103q20 0 28.5 -2t16.5 -10.5t12 -28.5l279 -1043q4 -10 12 -10t12 10l287 1043q6 29 17 35t36 6h90zM788 1659l207 227q29 33 60 2l43 -43q29 -29 0 -57l-221 -213q-27 -27 -60 6 l-22 23q-30 28 -7 55z" glyph-name="Wacute" horiz-adv-x="1888" unicode="Ẃ"/><glyph d="M977 37l-236 659q-4 8 -10 8.5t-10 -8.5l-236 -659q-8 -23 -16 -30t-29 -7h-67q-20 0 -29.5 7t-15.5 30l-287 952q-6 23 3 29t32 6h90q16 0 22.5 -1t12.5 -8t10 -22l192 -665q2 -8 10.5 -8.5t10.5 8.5l235 659q8 23 16.5 30t29.5 7h53q20 0 28.5 -7t16.5 -30l235 -659 q2 -8 10.5 -8.5t10.5 8.5l192 665q4 14 10.5 21.5t12.5 8.5t22 1h90q14 0 20.5 -1t15 -9t-0.5 -25l-286 -952q-6 -23 -15.5 -30t-29.5 -7h-68q-20 0 -28.5 6t-16.5 31zM575 1249l207 228q29 33 60 2l43 -43q29 -29 0 -58l-221 -213q-27 -27 -60 6l-22 23q-30 28 -7 55z" glyph-name="wacute" horiz-adv-x="1462" unicode="ẃ"/><glyph d="M989 1434q16 0 23.5 -1t16.5 -10.5t13 -29.5l287 -1043q4 -10 12.5 -10t12.5 10l278 1043q4 18 16.5 28.5t23.5 11.5t34 1h86q39 0 27 -41l-375 -1352q-6 -29 -17.5 -35t-35.5 -6h-74q-16 0 -23.5 1t-16.5 10t-13 30l-308 1059q-4 10 -12 10t-12 -10l-291 -1059 q-6 -29 -17.5 -35t-35.5 -6h-90q-16 0 -23.5 1t-16.5 10t-14 30l-374 1352q-12 41 26 41h103q20 0 28.5 -2t16.5 -10.5t12 -28.5l279 -1043q4 -10 12 -10t12 10l287 1043q6 29 17 35t36 6h90zM635 1694q0 49 33.5 83.5t83 34.5t84 -34.5t34.5 -83.5t-34.5 -83t-84 -34 t-83 34t-33.5 83zM1018 1694q0 49 33.5 83.5t83 34.5t84 -34.5t34.5 -83.5t-34.5 -83t-84 -34t-83 34t-33.5 83z" glyph-name="Wdieresis" horiz-adv-x="1888" unicode="Ẅ"/><glyph d="M977 37l-236 659q-4 8 -10 8.5t-10 -8.5l-236 -659q-8 -23 -16 -30t-29 -7h-67q-20 0 -29.5 7t-15.5 30l-287 952q-6 23 3 29t32 6h90q16 0 22.5 -1t12.5 -8t10 -22l192 -665q2 -8 10.5 -8.5t10.5 8.5l235 659q8 23 16.5 30t29.5 7h53q20 0 28.5 -7t16.5 -30l235 -659 q2 -8 10.5 -8.5t10.5 8.5l192 665q4 14 10.5 21.5t12.5 8.5t22 1h90q14 0 20.5 -1t15 -9t-0.5 -25l-286 -952q-6 -23 -15.5 -30t-29.5 -7h-68q-20 0 -28.5 6t-16.5 31zM422 1284q0 49 33.5 84t83 35t84 -35t34.5 -84t-34.5 -83t-84 -34t-83 34t-33.5 83zM805 1284 q0 49 33.5 84t83 35t84 -35t34.5 -84t-34.5 -83t-84 -34t-83 34t-33.5 83z" glyph-name="wdieresis" horiz-adv-x="1462" unicode="ẅ"/><glyph d="M584 870l311 535q12 20 19.5 24.5t31.5 4.5h105q16 0 22 -11.5t-4 -29.5l-410 -688v-664q0 -23 -9 -32t-32 -9h-94q-23 0 -32 9t-9 32v664l-409 688q-10 18 -4 29.5t22 11.5h105q25 0 32 -4.5t19 -24.5l311 -535q13 -20 25 0zM479 1886l207 -227q23 -27 -6 -55l-23 -23 q-33 -33 -59 -6l-221 213q-29 29 0 57l43 43q30 31 59 -2z" glyph-name="Ygrave" horiz-adv-x="1142" unicode="Ỳ"/><glyph d="M494 274l262 719q8 23 15 27t30 4h90q14 0 20.5 -1t15.5 -9t-1 -25l-484 -1308q-33 -88 -101.5 -138.5t-143 -51.5t-150.5 26q-39 16 -27 51l27 74q10 33 43 20q164 -57 219 94l82 228q12 33 0 63l-350 942q-8 23 2 29t33 6h90q23 0 30 -4t15 -27l262 -719q2 -8 10.5 -8 t10.5 8zM430 1477l207 -228q23 -27 -6 -55l-23 -23q-33 -33 -59 -6l-221 213q-29 29 0 58l43 43q30 31 59 -2z" glyph-name="ygrave" horiz-adv-x="966" unicode="ỳ"/><glyph d="M102 604q0 23 9.5 32t31.5 9h879q23 0 32 -9t9 -32v-82q0 -23 -9.5 -32t-31.5 -9h-879q-23 0 -32 9.5t-9 31.5v82z" glyph-name="endash" horiz-adv-x="1165" unicode="–"/><glyph d="M102 604q0 23 9.5 32t31.5 9h1145q23 0 32 -9t9 -32v-82q0 -23 -9 -32t-32 -9h-1145q-23 0 -32 9.5t-9 31.5v82z" glyph-name="emdash" horiz-adv-x="1431" unicode="—"/><glyph d="M315 1284q0 -47 -33.5 -82t-80.5 -35q-49 0 -85 34t-40 83q-12 139 139 346q18 29 51 10q18 -14 21.5 -20t-4.5 -31q-84 -131 -76 -170q2 -16 20 -22q88 -37 88 -113z" glyph-name="quoteleft" horiz-adv-x="389" unicode="‘"/><glyph d="M66 1360q0 47 33.5 82t80.5 35q49 0 85 -34t40 -83q12 -139 -139 -346q-18 -29 -51 -10q-18 14 -21.5 20t4.5 31q84 131 76 170q-2 16 -20 22q-88 37 -88 113z" glyph-name="quoteright" horiz-adv-x="389" unicode="’"/><glyph d="M74 80q0 47 33.5 82t80.5 35q49 0 85 -34t40 -83q12 -139 -139 -346q-18 -29 -51 -10q-18 14 -21.5 20t4.5 31q84 131 76 170q-2 16 -20 22q-88 37 -88 113z" glyph-name="quotesinglbase" horiz-adv-x="389" unicode="‚"/><glyph d="M584 1286q0 -47 -34 -82t-81 -35q-49 0 -85 34t-40 83q-12 139 139 346q18 29 52 10q18 -14 21 -20t-5 -31q-84 -131 -76 -170q2 -16 21 -22q88 -37 88 -113zM307 1286q0 -47 -33.5 -82t-80.5 -35q-49 0 -85 34t-40 83q-12 139 139 346q18 29 51 10q18 -14 21.5 -20 t-5.5 -31q-84 -131 -75 -170q2 -16 20 -22q88 -37 88 -113z" glyph-name="quotedblleft" horiz-adv-x="649" unicode="“"/><glyph d="M66 1360q0 47 33.5 82t80.5 35q49 0 85 -34t40 -83q12 -139 -139 -346q-18 -29 -51 -10q-18 14 -21.5 20t4.5 31q84 131 76 170q-2 16 -20 22q-88 37 -88 113zM342 1360q0 47 34 82t81 35q49 0 85 -34t40 -83q12 -139 -140 -346q-18 -29 -51 -10q-18 14 -21 20t5 31 q84 131 76 170q-2 16 -21 22q-88 37 -88 113z" glyph-name="quotedblright" horiz-adv-x="649" unicode="”"/><glyph d="M66 80q0 47 33.5 82t80.5 35q49 0 85 -34t40 -83q12 -139 -139 -346q-18 -29 -51 -10q-18 14 -21.5 20t4.5 31q84 131 76 170q-2 16 -20 22q-88 37 -88 113zM342 80q0 47 34 82t81 35q49 0 85 -34t40 -83q12 -139 -140 -346q-18 -29 -51 -10q-18 14 -21 20t5 31 q84 131 76 170q-2 16 -21 22q-88 37 -88 113z" glyph-name="quotedblbase" horiz-adv-x="649" unicode="„"/><glyph d="M295 918q0 20 -21 20h-184q-23 0 -32 9t-9 32v82q0 23 9.5 32t31.5 9h184q20 0 21 20v271q0 23 9 32t32 9h94q23 0 32 -9.5t9 -31.5v-271q0 -20 21 -20h182q23 0 32 -9.5t9 -31.5v-82q0 -23 -9.5 -32t-31.5 -9h-182q-20 0 -21 -20v-1475q0 -23 -9 -32t-32 -9h-94 q-23 0 -32 9t-9 32v1475z" glyph-name="dagger" horiz-adv-x="763" unicode="†"/><glyph d="M41 752q0 90 63.5 153.5t153.5 63.5t153.5 -63.5t63.5 -153.5t-63.5 -153.5t-153.5 -63.5t-153.5 63.5t-63.5 153.5z" glyph-name="bullet" horiz-adv-x="516" unicode="•"/><glyph d="M72 108.5q0 49.5 33.5 84t83 34.5t84 -34.5t34.5 -84t-34.5 -83t-84 -33.5t-83 33.5t-33.5 83z" glyph-name="onedotenleader" horiz-adv-x="376" unicode="․"/><glyph d="M72 108.5q0 49.5 33.5 84t83 34.5t84 -34.5t34.5 -84t-34.5 -83t-84 -33.5t-83 33.5t-33.5 83zM449 108.5q0 49.5 33.5 84t82.5 34.5t84 -34.5t35 -84t-35 -83t-84 -33.5t-82.5 33.5t-33.5 83z" glyph-name="twodotenleader" horiz-adv-x="753" unicode="‥"/><glyph d="M72 108.5q0 49.5 33.5 84t83 34.5t84 -34.5t34.5 -84t-34.5 -83t-84 -33.5t-83 33.5t-33.5 83zM446 108.5q0 49.5 34 84t83 34.5t84 -34.5t35 -84t-35 -83t-84 -33.5t-83 33.5t-34 83zM825 108.5q0 49.5 34 84t83 34.5t84 -34.5t35 -84t-35 -83t-84 -33.5t-83 33.5 t-34 83z" glyph-name="ellipsis" horiz-adv-x="1130" unicode="…"/><glyph d="M231 45l555 1344q10 25 19.5 35t32.5 10h92q45 0 26 -45l-555 -1344q-8 -18 -12 -26.5t-13 -13.5t-24 -5h-92q-47 0 -29 45zM291 1020q-84 0 -146.5 62.5t-62.5 146.5q0 88 62.5 150.5t146.5 62.5q88 0 150.5 -62.5t62.5 -150.5q0 -84 -62.5 -146.5t-150.5 -62.5z M219 1226.5q0 -28.5 21.5 -50t50 -21.5t50 21.5t21.5 50t-21.5 50t-50 21.5t-50 -21.5t-21.5 -50zM887 -8q-84 0 -146.5 62.5t-62.5 146.5q0 88 62.5 150.5t146.5 62.5q88 0 150.5 -62.5t62.5 -150.5q0 -84 -62.5 -146.5t-150.5 -62.5zM815 198.5q0 -28.5 21.5 -50t50 -21.5 t50 21.5t21.5 50t-21.5 50t-50 21.5t-50 -21.5t-21.5 -50zM1417 -8q-84 0 -146.5 62.5t-62.5 146.5q0 88 62.5 150.5t146.5 62.5q88 0 150.5 -62.5t62.5 -150.5q0 -84 -62.5 -146.5t-150.5 -62.5zM1346 198.5q0 -28.5 21.5 -50t50 -21.5t50 21.5t21.5 50t-21.5 50t-50 21.5 t-50 -21.5t-21.5 -50z" glyph-name="perthousand" horiz-adv-x="1712" unicode="‰"/><glyph d="M90 489q-23 23 0 46l391 380q14 12 25.5 7.5t11.5 -19.5v-149q0 -27 -20 -47l-189 -183q-12 -12 0 -24l189 -183q20 -20 20 -47v-149q0 -14 -11 -19.5t-26 7.5z" glyph-name="guilsinglleft" horiz-adv-x="612" unicode="‹"/><glyph d="M522 489l-391 -380q-14 -12 -25.5 -7.5t-11.5 19.5v149q0 27 21 47l188 183q12 12 0 24l-188 183q-20 20 -21 47v149q0 14 11.5 19.5t25.5 -7.5l391 -380q23 -23 0 -46z" glyph-name="guilsinglright" horiz-adv-x="612" unicode="›"/><glyph d="M193 322q-23 0 -32 9t-9 31l-11 1031q0 23 9.5 32t31.5 9h94q23 0 32 -9.5t9 -31.5l-10 -1031q0 -23 -9 -31.5t-32 -8.5h-73zM113 108.5q0 49.5 33.5 84t83 34.5t84 -34.5t34.5 -84t-34.5 -83t-84 -33.5t-83 33.5t-33.5 83zM498 322q-23 0 -32 9t-9 31l-11 1031 q0 23 9.5 32t31.5 9h95q23 0 32 -9.5t9 -31.5l-11 -1031q0 -23 -9 -31.5t-32 -8.5h-73zM418 108.5q0 49.5 33.5 84t83 34.5t84 -34.5t34.5 -84t-34.5 -83t-84 -33.5t-83 33.5t-33.5 83z" glyph-name="exclamdbl" horiz-adv-x="763" unicode="‼"/><glyph d="M74 451l299 1345q6 27 14 36t25 9h90q35 0 24 -41l-299 -1345q-6 -27 -14 -36t-25 -9h-90q-34 0 -24 41z" glyph-name="fraction" horiz-adv-x="600" unicode="⁄"/><glyph d="M573 1142.5q0 -149.5 -64.5 -224t-171 -74.5t-171 74.5t-64.5 224t64.5 224.5t171 75t171 -75t64.5 -224.5zM338 948q119 0 119 194.5t-119 194.5t-119 -194.5t119 -194.5z" glyph-name="uni2070" horiz-adv-x="675" unicode="⁰"/><glyph d="M274 1223l-88 -133q-6 -10 4 -11h86q8 0 9 8v134q0 4 -3.5 5t-7.5 -3zM399 868q0 -16 -16 -16h-82q-16 0 -16 16v107q0 8 -9 8h-217q-16 0 -16 16v35q0 14 6 25l246 362q8 12 20 13h68q16 0 16 -17v-330q0 -8 9 -8h18q16 0 16 -16v-64q0 -16 -16 -16h-18q-8 0 -9 -8v-107 z" glyph-name="uni2074" horiz-adv-x="520" unicode="⁴"/><glyph d="M233 844q-109 0 -155 53q-10 14 0 25l41 51q12 14 24 2q41 -33 88 -33q43 0 74 29.5t31 85.5q0 53 -34 81.5t-91 28.5h-102q-16 0 -17 17v233q0 16 17 17h303q16 0 16 -17v-63q0 -16 -16 -17h-189q-16 0 -16 -18v-39q0 -16 16 -16h17q207 0 209 -207q0 -102 -59 -157.5 t-157 -55.5z" glyph-name="uni2075" horiz-adv-x="516" unicode="⁵"/><glyph d="M383 1337h-45q-152 0 -152 -131q55 37 118 37t113 -53t50 -143q0 -102 -56.5 -152.5t-140.5 -50.5q-88 0 -143 52t-55 144v144q0 250 266 250h45q16 0 16 -17v-63q0 -17 -16 -17zM270 932q82 0 82 112q0 115 -82 115q-84 0 -84 -115q0 -112 84 -112z" glyph-name="uni2076" horiz-adv-x="538" unicode="⁶"/><glyph d="M82 868l190 459q4 10 -6 10h-205q-16 0 -16 17v63q0 16 16 17h324q16 0 16 -17v-53q0 -8 -4 -21l-198 -475q-6 -16 -19 -16h-84q-20 0 -14 16z" glyph-name="uni2077" horiz-adv-x="430" unicode="⁷"/><glyph d="M285 844q-86 0 -146.5 50t-60.5 122q0 47 26.5 88t69.5 61q-74 41 -74 125q0 63 53.5 107.5t131 44.5t131 -44t53.5 -108q0 -84 -74 -125q43 -20 70 -61t27 -88q0 -72 -60.5 -122t-146.5 -50zM285 940q37 0 64.5 24.5t27.5 61.5t-27.5 61.5t-64.5 24.5t-64.5 -24.5 t-27.5 -61.5t27.5 -61.5t64.5 -24.5zM284.5 1208q30.5 0 52 19.5t21.5 50.5t-21.5 51.5t-52 20.5t-52 -20.5t-21.5 -51.5t21.5 -50.5t52 -19.5z" glyph-name="uni2078" horiz-adv-x="569" unicode="⁸"/><glyph d="M139 948h62q152 0 151 131q-55 -37 -117.5 -37t-112.5 53.5t-50 143.5q0 102 56 152.5t140 50.5q88 0 143.5 -52.5t55.5 -144.5v-143q0 -250 -266 -250h-62q-16 0 -16 16v64q0 16 16 16zM268 1354q-82 0 -82 -113q0 -115 82 -115q84 0 84 115q0 113 -84 113z" glyph-name="uni2079" horiz-adv-x="538" unicode="⁹"/><glyph d="M203 1364v-442q0 -92 69 -101q18 -2 19 -18v-66q0 -18 -19 -18q-70 4 -122 42t-52 113v537q0 76 52.5 114t121.5 42q18 0 19 -19v-65q0 -16 -19 -19q-69 -8 -69 -100z" glyph-name="uni207D" horiz-adv-x="378" unicode="⁽"/><glyph d="M164 1364q0 92 -70 100q-18 2 -18 19v65q0 18 18 19q70 -4 122 -42t52 -114v-537q0 -76 -52 -113.5t-122 -41.5q-18 0 -18 18v66q0 16 18 18q70 8 70 101v442z" glyph-name="uni207E" horiz-adv-x="378" unicode="⁾"/><glyph d="M573 -2.5q0 -149.5 -64.5 -224t-171 -74.5t-171 74.5t-64.5 224t64.5 224.5t171 75t171 -75t64.5 -224.5zM338 -197q119 0 119 195t-119 195t-119 -195t119 -195z" glyph-name="uni2080" horiz-adv-x="675" unicode="₀"/><glyph d="M33 166l114 115q8 8 21 8h78q16 0 16 -17v-548q0 -16 -16 -17h-82q-16 0 -17 17v419l-45 -45q-12 -12 -24 0l-45 45q-12 13 0 23z" glyph-name="uni2081" horiz-adv-x="405" unicode="₁"/><glyph d="M92 215q45 63 116 78.5t128 -17t72 -98.5q14 -63 -17 -116.5t-76 -85t-85 -72.5t-40 -78v-4q0 -14 2.5 -16.5t14.5 -2.5h190q16 0 17 -16v-63q0 -16 -17 -17h-303q-18 0 -18 17v77q0 76 42 135.5t89 88t77.5 64.5t14.5 73q-14 33 -50 36t-81 -44q-14 -18 -29 -7l-43 35 q-16 15 -4 33z" glyph-name="uni2082" horiz-adv-x="499" unicode="₂"/><glyph d="M229 -25h-10q-16 0 -16 17v61q0 16 16 17h23q49 0 69.5 34.5t1.5 65.5q-16 29 -54 32t-81 -38q-10 -12 -22 0l-45 45q-10 10 2 22q92 98 200 56q84 -33 103 -113q18 -80 -47 -145q78 -47 86 -132t-47 -137q-57 -59 -146.5 -62t-171.5 66q-12 12 0 25l41 45q12 12 25 2 q66 -43 114.5 -37t69 49t-10 85t-100.5 42z" glyph-name="uni2083" horiz-adv-x="524" unicode="₃"/><glyph d="M274 78l-88 -133q-6 -10 4 -11h86q8 0 9 9v133q0 4 -3.5 5t-7.5 -3zM399 -276q0 -16 -16 -17h-82q-16 0 -16 17v106q0 8 -9 8h-217q-16 0 -16 17v34q0 14 6 25l246 362q8 12 20 13h68q16 0 16 -17v-329q0 -8 9 -9h18q16 0 16 -16v-63q0 -16 -16 -17h-18q-8 0 -9 -8v-106z " glyph-name="uni2084" horiz-adv-x="520" unicode="₄"/><glyph d="M233 -301q-109 0 -155 53q-10 14 0 25l41 51q12 12 24 2q41 -33 88 -33q43 0 74 30t31 85q0 53 -34 82t-91 29h-102q-16 0 -17 16v233q0 16 17 17h303q16 0 16 -17v-63q0 -16 -16 -16h-189q-16 0 -16 -19v-39q0 -16 16 -16h17q207 0 209 -207q0 -102 -59 -157.5 t-157 -55.5z" glyph-name="uni2085" horiz-adv-x="516" unicode="₅"/><glyph d="M383 193h-45q-152 0 -152 -132q55 37 118 37t113 -53t50 -143q0 -102 -56.5 -152.5t-140.5 -50.5q-88 0 -143 52t-55 145v143q0 250 266 250h45q16 0 16 -17v-63q0 -16 -16 -16zM270 -213q82 0 82 113q0 115 -82 114q-84 0 -84 -114q0 -113 84 -113z" glyph-name="uni2086" horiz-adv-x="538" unicode="₆"/><glyph d="M82 -276l190 458q4 10 -6 11h-205q-16 0 -16 16v63q0 16 16 17h324q16 0 16 -17v-53q0 -8 -4 -20l-198 -475q-6 -16 -19 -17h-84q-20 1 -14 17z" glyph-name="uni2087" horiz-adv-x="430" unicode="₇"/><glyph d="M285 -301q-86 0 -146.5 50t-60.5 122q0 47 26.5 88t69.5 61q-74 41 -74 125q0 63 53.5 107.5t131 44.5t131 -44t53.5 -108q0 -84 -74 -125q43 -20 70 -61t27 -88q0 -72 -60.5 -122t-146.5 -50zM285 -205q37 0 64.5 24.5t27.5 61.5t-27.5 61.5t-64.5 24.5t-64.5 -24.5 t-27.5 -61.5t27.5 -61.5t64.5 -24.5zM284.5 63q30.5 0 52 19.5t21.5 50.5t-21.5 51.5t-52 20.5t-52 -20.5t-21.5 -51.5t21.5 -50.5t52 -19.5z" glyph-name="uni2088" horiz-adv-x="569" unicode="₈"/><glyph d="M139 -197h62q152 0 151 131q-55 -37 -117.5 -36.5t-112.5 53.5t-50 143q0 102 56 152.5t140 50.5q88 0 143.5 -52t55.5 -145v-143q0 -250 -266 -250h-62q-16 0 -16 17v63q0 16 16 16zM268 209q-82 0 -82 -113q0 -115 82 -114q84 0 84 114q0 113 -84 113z" glyph-name="uni2089" horiz-adv-x="538" unicode="₉"/><glyph d="M203 217v-442q0 -92 69 -101q18 -2 19 -18v-66q0 -18 -19 -18q-70 4 -122 42t-52 114v536q0 76 52.5 114t121.5 42q18 0 19 -19v-65q0 -16 -19 -19q-69 -8 -69 -100z" glyph-name="uni208D" horiz-adv-x="378" unicode="₍"/><glyph d="M164 217q0 92 -70 100q-18 2 -18 19v65q0 18 18 19q70 -4 122 -42t52 -114v-536q0 -76 -52 -114t-122 -42q-18 0 -18 18v66q0 16 18 18q70 8 70 101v442z" glyph-name="uni208E" horiz-adv-x="378" unicode="₎"/><glyph d="M172 664q0 20 -20 20h-82q-23 0 -32 9t-9 32v74q0 23 9 32t32 9h82q20 0 20 20v39q0 20 -20 21h-82q-23 0 -32 9t-9 32v73q0 23 9 32t32 9h82q20 0 20 21v297q0 23 9 32t32 9h94q23 0 32 -9.5t9 -31.5v-297q0 -20 21 -21h297q23 0 32 -9t9 -32v-73q0 -23 -9.5 -32 t-31.5 -9h-297q-20 0 -21 -21v-39q0 -20 21 -20h297q23 0 32 -9.5t9 -31.5v-74q0 -23 -9.5 -32t-31.5 -9h-297q-20 0 -21 -20v-459q0 -31 5 -36t36 -5h496q23 0 32 -9.5t9 -31.5v-82q0 -23 -9.5 -32t-31.5 -9h-672q-23 0 -32 9t-9 32v623z" glyph-name="lira" horiz-adv-x="958" unicode="₤"/><glyph d="M793 1278q-334 0 -416 -367q-2 -20 20 -20h391q23 0 32 -9.5t9 -31.5v-53q0 -23 -9 -32t-32 -9h-403q-20 0 -20 -21v-37q0 -20 20 -20h403q23 0 32 -9.5t9 -31.5v-53q0 -23 -9 -32t-32 -9h-391q-23 0 -20 -21q88 -367 416 -366q195 0 325 131q29 29 58 0l55 -56 q27 -27 0 -57q-164 -182 -438 -182q-221 0 -380 131t-216 403q-2 16 -21 17h-90q-23 0 -32 9t-9 32v53q0 23 9 32t32 9h82q20 0 20 20v37q0 20 -20 21h-82q-23 0 -32 9t-9 32v53q0 23 9 32t32 9h90q18 0 21 16q45 266 206.5 400.5t389.5 134.5q274 0 438 -182q27 -31 0 -58 l-55 -55q-29 -29 -58 0q-130 131 -325 131z" glyph-name="Euro" horiz-adv-x="1318" unicode="€"/><glyph d="M2062 1087v-100q0 -168 -89 -261t-226 -93t-226 93t-89 261v100q0 168 89 261.5t226 93.5t226 -93.5t89 -261.5zM1747 778q178 0 178 242v31q0 242 -178 241q-174 0 -174 -241v-31q0 -242 174 -242zM1432 471q0 23 9 32t32 9h550q23 0 32 -9t9 -32v-82q0 -23 -9 -32 t-32 -9h-550q-23 0 -32 9.5t-9 31.5v82zM283 1434q20 0 39 -25l735 -1032q8 -10 15 -8t7 12v1012q0 23 9.5 32t31.5 9h94q23 0 32 -9.5t9 -31.5v-1352q0 -23 -9 -32t-32 -9h-69q-20 0 -39 25l-735 1032q-8 10 -15.5 8t-7.5 -12v-1012q0 -23 -9 -32t-32 -9h-94q-23 0 -32 9 t-9 32v1352q0 23 9 32t32 9h70z" glyph-name="afii61352" horiz-adv-x="2187" unicode="№"/><glyph d="M82 1417q0 16 16 17h365q16 0 16 -17v-74q0 -16 -16 -16h-111q-12 0 -14 -2t-2 -12v-441q0 -20 -19 -20h-73q-18 0 -19 20v441q0 10 -2 12t-12 2h-113q-16 0 -16 16v74zM846 852q-14 0 -19 12l-133 316q-2 8 -8 4q-2 0 -2 -4l-27 -308q0 -20 -20 -20h-70q-8 0 -12 5 t-4 11v4l45 545q0 16 16 17h58q12 0 16 -11l168 -399q2 -4 6 -4t6 4l168 399q4 10 17 11h57q8 0 12 -4.5t4 -8.5v-4l45 -545q2 -20 -16 -20h-70l-20 20l-27 308q0 6 -6 6q-2 -2 -4 -6l-133 -316q-4 -12 -19 -12h-28z" glyph-name="trademark" horiz-adv-x="1245" unicode="™"/><glyph d="M1159 221q8 76 -32 120t-103 44q-23 0 -23 23v55q0 23 23 22q59 0 90 35t27 84q-4 68 -53.5 98.5t-107.5 20.5t-95 -49q-16 -14 -31 0l-35 35q-16 16 0 32q74 80 191 80q94 0 166.5 -60.5t72.5 -156.5q0 -109 -78 -168q113 -78 101 -207q-12 -111 -85 -172t-181 -61 q-127 0 -207 86q-16 20 0 37l35 37q14 14 34 -2q78 -70 178.5 -48.5t112.5 115.5zM416 43l299 1346q6 27 14 36t25 9h53q35 0 24 -41l-299 -1346q-6 -27 -14 -36t-24 -9h-54q-34 0 -24 41zM106 1262l162 161q10 10 23 11h69q23 0 23 -23v-772q0 -23 -23 -23h-69 q-25 0 -25 23v635l-88 -86q-16 -12 -31 2l-41 41q-16 15 0 31z" glyph-name="onethird" horiz-adv-x="1370" unicode="⅓"/><glyph d="M549 43l299 1346q6 27 14 36t25 9h53q35 0 25 -41l-299 -1346q-6 -27 -14.5 -36t-24.5 -9h-54q-34 0 -24 41zM326 1438q88 6 157.5 -46.5t69.5 -144.5q0 -59 -35 -111.5t-85 -91t-100 -77.5t-85 -92.5t-35 -112.5v-8q0 -18 3 -21.5t22 -3.5h286q25 0 25 -22v-64 q0 -23 -25 -22h-405q-23 0 -23 22v94q0 82 37 153t89 117t103.5 84.5t86 77.5t30.5 78q-6 76 -83.5 90.5t-137.5 -45.5q-16 -16 -33 0l-34 35q-14 16 2 33q66 72 170 78zM1292 221q8 76 -31.5 120t-103.5 44q-23 0 -22 23v55q0 23 22 22q59 0 90 35t27 84q-4 68 -53.5 98.5 t-107.5 20.5t-95 -49q-14 -14 -31 0l-35 35q-16 16 0 32q74 80 191 80q94 0 166.5 -60.5t72.5 -156.5q0 -109 -77 -168q113 -78 100 -207q-12 -111 -85 -172t-181 -61q-127 0 -207 86q-16 20 0 37l35 37q14 14 34 -2q78 -70 178.5 -48.5t112.5 115.5z" glyph-name="twothirds" horiz-adv-x="1503" unicode="⅔"/><glyph d="M1047 823q106 0 173.5 -62.5t67.5 -146.5q0 -117 -102 -174q61 -29 97 -87t36 -124q0 -96 -75 -164.5t-193 -68.5h-9q-119 0 -193.5 68.5t-74.5 164.5q0 66 37 124.5t96 86.5q-104 59 -104 174q0 84 67.5 146.5t173.5 62.5h3zM891 233.5q0 -65.5 42 -107.5t114 -42h2 q70 0 111.5 43t41.5 106.5t-42 106.5t-111 43h-2q-72 0 -114 -42t-42 -107.5zM918 612q0 -53 34.5 -85.5t91.5 -32.5h3q57 0 92 32.5t35 85.5q0 51 -35 86t-92 35h-3q-57 0 -91.5 -35t-34.5 -86zM416 43l299 1346q6 27 14 36t25 9h53q35 0 24 -41l-299 -1346q-6 -27 -14 -36 t-24 -9h-54q-34 0 -24 41zM106 1262l162 161q10 10 23 11h69q23 0 23 -23v-772q0 -23 -23 -23h-69q-25 0 -25 23v635l-88 -86q-16 -12 -31 2l-41 41q-16 15 0 31z" glyph-name="oneeighth" horiz-adv-x="1425" unicode="⅛"/><glyph d="M367 1278h-25q-23 0 -32 9t-9 32v82q0 23 9 32t32 9h25q283 0 447.5 -154.5t164.5 -482.5v-356q0 -223 -129 -340t-315.5 -117t-315.5 116.5t-129 340.5v32q0 227 137.5 353.5t317.5 107.5q139 -12 262 -131v23q0 129 -38 220t-104.5 138t-139 66.5t-158.5 19.5z M534.5 156q122.5 0 197.5 81.5t75 229.5q0 150 -75 231.5t-197.5 81.5t-197.5 -82t-75 -231q0 -147 75 -229t197.5 -82z" glyph-name="partialdiff" horiz-adv-x="1069" unicode="∂"/><glyph d="M102 797q0 23 9.5 32t31.5 9h615q23 0 32 -9.5t9 -31.5v-82q0 -23 -9.5 -32t-31.5 -9h-615q-23 0 -32 9t-9 32v82z" glyph-name="minus" horiz-adv-x="901" unicode="−"/><glyph d="M514 834q-113 43 -145 43q-86 0 -144 -93q-12 -18 -32 -6l-105 60q-16 10 -8 30q35 78 115.5 130.5t169.5 50.5q66 -2 210 -64q98 -43 146 -43q86 0 143 92q12 18 33 6l104 -59q16 -10 9 -31q-35 -78 -116 -130t-169 -50q-66 3 -211 64zM514 512q-113 43 -145 43 q-86 0 -144 -92q-12 -18 -32 -6l-105 59q-16 10 -8 31q35 78 115.5 130t169.5 50q66 -2 210 -63q98 -43 146 -43q86 0 143 92q12 18 33 6l104 -60q16 -10 9 -30q-35 -78 -116 -130.5t-169 -49.5q-66 2 -211 63z" glyph-name="approxequal" horiz-adv-x="1089" unicode="≈"/><glyph d="M317 -225q0 47 34 81.5t81 34.5q49 0 85 -33.5t40 -82.5q12 -139 -139 -346q-18 -29 -51 -11q-18 14 -21.5 20.5t4.5 31.5q84 131 76 170q-2 16 -20 22q-89 37 -89 113zM274 778q-10 -66 47.5 -103.5t176.5 -78.5q63 -23 94 -34t85 -39.5t80.5 -55.5t51.5 -70t27 -96 q8 -147 -100.5 -233t-293.5 -78q-184 6 -352 104q-31 18 -12 60l33 67q20 41 63 19q102 -53 186 -74q68 -12 134.5 -12t115.5 31.5t52 88.5q2 49 -39 88t-76 53.5t-127 47.5q-18 6 -27 10q-133 47 -208.5 108.5t-80.5 176.5q-4 137 103.5 214t273.5 62q147 -14 273 -82 q31 -16 12 -59l-33 -68q-14 -27 -65 -8q-117 49 -209 53q-169 8 -185 -92z" glyph-name="glyph476" horiz-adv-x="907"/><glyph d="M922 41q0 -23 -9.5 -32t-31.5 -9h-90q-23 0 -32 9t-9 32v53q-98 -90 -215 -102q-176 -16 -310.5 117t-134.5 403t134 403.5t311 116.5q117 -12 215 -102v63q2 31 41 31h90q23 0 32 -9t9 -32v-942zM535 868q-119 6 -196 -82t-77 -274t77 -274t196 -82q117 6 215 106v500 q-98 100 -215 106z" glyph-name="a.aalt"/><glyph d="M922 41q0 -23 -9.5 -32t-31.5 -9h-90q-23 0 -32 9t-9 32v53q-98 -90 -215 -102q-176 -16 -310.5 117t-134.5 403t134 403.5t311 116.5q117 -12 215 -102v63q2 31 41 31h90q23 0 32 -9t9 -32v-942zM535 868q-119 6 -196 -82t-77 -274t77 -274t196 -82q117 6 215 106v500 q-98 100 -215 106zM383 1249l207 228q29 33 59 2l43 -43q29 -29 0 -58l-221 -213q-27 -27 -59 6l-23 23q-29 28 -6 55z" glyph-name="aacute.aalt"/><glyph d="M922 41q0 -23 -9.5 -32t-31.5 -9h-90q-23 0 -32 9t-9 32v53q-98 -90 -215 -102q-176 -16 -310.5 117t-134.5 403t134 403.5t311 116.5q117 -12 215 -102v63q2 31 41 31h90q23 0 32 -9t9 -32v-942zM535 868q-119 6 -196 -82t-77 -274t77 -274t196 -82q117 6 215 106v500 q-98 100 -215 106zM534.5 1159q-114.5 0 -184 74t-74.5 190q-2 25 6.5 30t32.5 5h54q25 0 32 -5t9 -30q4 -68 37.5 -105.5t87 -37.5t87 38t37.5 105q2 25 9.5 30t31.5 5h54q25 0 33 -5t6 -30q-4 -117 -74 -190.5t-184.5 -73.5z" glyph-name="abreve.aalt"/><glyph d="M922 41q0 -23 -9.5 -32t-31.5 -9h-90q-23 0 -32 9t-9 32v53q-98 -90 -215 -102q-176 -16 -310.5 117t-134.5 403t134 403.5t311 116.5q117 -12 215 -102v53q0 23 9 32t32 9h90q23 0 32 -9t9 -32v-942zM535 868q-119 6 -196 -82t-77 -274t77 -274t196 -82q117 6 215 106 v500q-98 100 -215 106zM272 1266l234 213q29 29 57 0l234 -213q31 -27 0 -58l-43 -43q-31 -31 -58 0l-143 156q-18 18 -37 0l-143 -156q-27 -31 -58 0l-43 43q-31 31 0 58z" glyph-name="acircumflex.aalt"/><glyph d="M922 41q0 -23 -9.5 -32t-31.5 -9h-90q-23 0 -32 9t-9 32v53q-98 -90 -215 -102q-176 -16 -310.5 117t-134.5 403t134 403.5t311 116.5q117 -12 215 -102v53q0 23 9 32t32 9h90q23 0 32 -9t9 -32v-942zM535 868q-119 6 -196 -82t-77 -274t77 -274t196 -82q117 6 215 106 v500q-98 100 -215 106zM225 1284q0 49 34 84t83 35t84 -35t35 -84t-35 -83t-84 -34t-83 34t-34 83zM608 1284q0 49 34 84t83 35t84 -35t35 -84t-35 -83t-84 -34t-83 34t-34 83z" glyph-name="adieresis.aalt"/><glyph d="M922 41q0 -23 -9.5 -32t-31.5 -9h-90q-23 0 -32 9t-9 32v53q-98 -90 -215 -102q-176 -16 -310.5 117t-134.5 403t134 403.5t311 116.5q117 -12 215 -102v53q0 23 9 32t32 9h90q23 0 32 -9t9 -32v-942zM535 868q-119 6 -196 -82t-77 -274t77 -274t196 -82q117 6 215 106 v500q-98 100 -215 106zM483 1477l207 -228q23 -27 -6 -55l-22 -23q-33 -33 -60 -6l-221 213q-29 29 0 58l43 43q30 31 59 -2z" glyph-name="agrave.aalt"/><glyph d="M922 41q0 -23 -9.5 -32t-31.5 -9h-90q-23 0 -32 9t-9 32v53q-98 -90 -215 -102q-176 -16 -310.5 117t-134.5 403t134 403.5t311 116.5q117 -12 215 -102v63q2 31 41 31h90q23 0 32 -9t9 -32v-942zM535 868q-119 6 -196 -82t-77 -274t77 -274t196 -82q117 6 215 106v500 q-98 100 -215 106zM293 1266q0 23 9 32t32 9h407q23 0 32 -9.5t9 -31.5v-49q0 -23 -9 -32t-32 -9h-407q-23 0 -32 9t-9 32v49z" glyph-name="amacron.aalt"/><glyph d="M922 41q0 -23 -9.5 -32t-31.5 -9h-2q-51 -33 -72 -83t5 -97t99 -62q29 -4 21 -32l-21 -88q-6 -23 -32 -21q-113 12 -173.5 92t-48 176.5t92.5 151.5v4v53q-98 -90 -215 -102q-176 -16 -310.5 117t-134.5 403t134 403.5t311 116.5q117 -12 215 -102v53q0 23 9 32t32 9h90 q23 0 32 -9t9 -32v-942zM535 868q-119 6 -196 -82t-77 -274t77 -274t196 -82q117 6 215 106v500q-98 100 -215 106z" glyph-name="aogonek.aalt" horiz-adv-x="1064"/><glyph d="M922 41q0 -23 -9.5 -32t-31.5 -9h-90q-23 0 -32 9t-9 32v53q-98 -90 -215 -102q-176 -16 -310.5 117t-134.5 403t134 403.5t311 116.5q117 -12 215 -102v63q2 31 41 31h90q23 0 32 -9t9 -32v-942zM535 868q-119 6 -196 -82t-77 -274t77 -274t196 -82q117 6 215 106v500 q-98 100 -215 106zM346 1337.5q0 77.5 55.5 133t133 55.5t133 -55.5t55.5 -133t-55.5 -133t-133 -55.5t-133 55.5t-55.5 133zM463 1337.5q0 -28.5 21.5 -50t50 -21.5t50 21.5t21.5 50t-21.5 50t-50 21.5t-50 -21.5t-21.5 -50z" glyph-name="aring.aalt"/><glyph d="M922 41q0 -23 -9.5 -32t-31.5 -9h-90q-23 0 -32 9t-9 32v53q-98 -90 -215 -102q-176 -16 -310.5 117t-134.5 403t134 403.5t311 116.5q117 -12 215 -102v53v10q2 31 41 31h90q23 0 32 -9t9 -32v-942zM535 868q-119 6 -196 -82t-77 -274t77 -274t196 -82q117 6 215 106 v500q-98 100 -215 106zM676 1157q-53 0 -112.5 23.5t-95.5 43t-78 10.5t-77 -63q-12 -18 -32 -6l-78 49q-18 12 -8 31q70 129 198 129q51 0 109.5 -23.5t94.5 -43t79 -11t80 63.5q12 18 32 6l78 -49q18 -12 8 -31q-69 -129 -198 -129z" glyph-name="atilde.aalt"/><glyph d="M487 1032q168 0 285 -117.5t117 -275.5v-598q0 -23 -9.5 -32t-31.5 -9h-90q-23 0 -32 9t-9 32v33q-100 -74 -232 -82q-164 -10 -285.5 83t-121.5 257t122 257t285 83q127 -8 232 -82v51q0 98 -69.5 162.5t-164.5 64.5q-131 0 -217 -86q-29 -29 -55 0l-51 52q-29 29 0 59 q122 139 327 139zM489 133q125 2 228 86v225q-102 80 -228 86q-104 4 -171.5 -51t-67.5 -147t67.5 -147.5t171.5 -51.5z" glyph-name="afii10065.aalt" horiz-adv-x="999"/><glyph d="M922 41q0 -23 -9.5 -32t-31.5 -9h-90q-23 0 -32 9t-9 32v53q-98 -90 -215 -102q-176 -16 -310.5 117t-134.5 403t134 403.5t311 116.5q117 -12 215 -102v463q0 23 9 32t32 9h90q23 0 32 -9.5t9 -31.5v-1352zM535 868q-119 6 -196 -82t-77 -274t77 -274t196 -82 q117 6 215 106v500q-98 100 -215 106z" glyph-name="d.aalt"/><glyph d="M922 41q0 -23 -9.5 -32t-31.5 -9h-90q-23 0 -32 9t-9 32v53q-98 -90 -215 -102q-176 -16 -310.5 117t-134.5 403t134 403.5t311 116.5q117 -12 215 -102v463q0 23 9 32t32 9h90q23 0 32 -9.5t9 -31.5v-1352zM535 868q-119 6 -196 -82t-77 -274t77 -274t196 -82 q117 6 215 106v500q-98 100 -215 106zM983 1462q0 47 34 82t81 35q49 0 85 -34t40 -83q12 -139 -140 -346q-18 -29 -51 -10q-18 14 -21 20.5t5 30.5q84 131 76 170q-2 16 -21 23q-88 36 -88 112z" glyph-name="dcaron.aalt" horiz-adv-x="1204"/><glyph d="M750 1393q0 23 9 32t32 9h90q23 0 32 -9.5t9 -31.5v-107q0 -20 20 -20h66q23 0 32 -9.5t9 -31.5v-66q0 -23 -9.5 -32t-31.5 -9h-66q-20 0 -20 -20v-1057q0 -23 -9.5 -32t-31.5 -9h-90q-23 0 -32 9t-9 32v53q-98 -90 -215 -102q-176 -16 -310.5 117t-134.5 403t134 403.5 t311 116.5q117 -12 215 -102v168q0 20 -21 20h-197q-23 0 -31.5 9.5t-8.5 31.5v66q0 23 9 32t31 9h197q20 0 21 20v107zM535 868q-119 6 -196 -82t-77 -274t77 -274t196 -82q117 6 215 106v500q-98 100 -215 106z" glyph-name="dcroat.aalt"/><glyph d="M750 94q-98 -90 -215 -102q-176 -16 -310.5 117t-134.5 403t134 403.5t311 116.5q117 -12 215 -102v53v10q2 31 41 31h90q23 0 32 -9t9 -32v-1098q0 -158 -117 -275.5t-285 -117.5q-205 0 -327 139q-29 31 0 60l51 51q27 29 55 0q86 -86 217 -86q94 0 164 64.5t70 162.5 v148v10v53zM535 868q-119 6 -196 -82t-77 -274t77 -274t196 -82q117 6 215 106v500q-98 100 -215 106z" glyph-name="g.aalt"/><glyph d="M922 41v-10v-146q0 -158 -117 -275.5t-285 -117.5q-205 0 -327 139q-29 31 0 60l51 51q27 29 55 0q86 -86 217 -86q94 0 164 64.5t70 162.5v148v10v53q-98 -90 -215 -102q-176 -16 -310.5 117t-134.5 403t134 403.5t311 116.5q117 -12 215 -102v53q0 23 9 32t32 9h90 q23 0 32 -9t9 -32v-942zM535 868q-119 6 -196 -82t-77 -274t77 -274t196 -82q117 6 215 106v500q-98 100 -215 106zM534.5 1159q-114.5 0 -184 74t-74.5 190q-2 25 6.5 30t32.5 5h54q25 0 32 -5t9 -30q4 -68 37.5 -105.5t87 -37.5t87 38t37.5 105q2 25 9.5 30t31.5 5h54 q25 0 33 -5t6 -30q-4 -117 -74 -190.5t-184.5 -73.5z" glyph-name="gbreve.aalt"/></font>
</defs>
</svg>
