<?xml version="1.0" encoding="UTF-8" standalone="no"?>
<!DOCTYPE svg PUBLIC "-//W3C//DTD SVG 1.1//EN" "http://www.w3.org/Graphics/SVG/1.1/DTD/svg11.dtd">
<svg width="100%" height="100%" viewBox="0 0 1024 1024" version="1.1" xmlns="http://www.w3.org/2000/svg" xmlns:xlink="http://www.w3.org/1999/xlink" xml:space="preserve" xmlns:serif="http://www.serif.com/" style="fill-rule:evenodd;clip-rule:evenodd;stroke-linejoin:round;stroke-miterlimit:1.41421;">
    <path d="M512,0c282.58,0 512,229.42 512,512c0,282.58 -229.42,512 -512,512c-282.58,0 -512,-229.42 -512,-512c0,-282.58 229.42,-512 512,-512Zm21.671,453.409c-7.491,0 -13.021,0.535 -16.588,1.605c-16.766,8.918 -29.072,16.587 -36.92,23.008c-16.053,12.486 -31.213,27.111 -45.482,43.877l-31.035,6.956c27.484,-37.099 58.003,-66.172 91.557,-87.218c33.555,-21.047 59.969,-31.57 79.243,-31.57c8.204,0 14.358,2.053 18.46,6.158c4.102,4.105 6.153,9.368 6.153,15.789c0,17.49 -9.988,46.58 -29.964,87.268c-2.497,4.994 -8.389,17.833 -17.675,38.518c-21.42,46.719 -44.269,90.941 -68.548,132.666c-7.854,13.556 -16.424,29.605 -25.709,48.149c-4.995,9.983 -9.456,18.363 -13.386,25.141c-11.058,18.549 -16.587,32.283 -16.587,41.201c0,2.497 0.981,4.726 2.943,6.688c1.962,1.962 4.369,2.943 7.223,2.943c3.924,0 9.896,-2.14 17.917,-6.421c13.405,-7.134 29.397,-18.995 47.978,-35.583c18.58,-16.587 34.957,-35.582 49.131,-56.986l23.56,0c-10.818,19.263 -26.765,41.38 -47.839,66.35c-21.075,24.971 -45.042,44.947 -71.902,59.929c-20.143,11.415 -38.049,17.123 -53.717,17.123c-11.933,0 -20.698,-2.408 -26.294,-7.224c-5.596,-4.815 -8.394,-11.147 -8.394,-18.995c0,-27.467 20.154,-79.192 60.464,-155.173l86.148,-162.665c8.918,-16.766 15.16,-29.965 18.728,-39.596c2.14,-6.064 3.21,-10.167 3.21,-12.307c0,-1.784 -0.892,-4.994 -2.675,-9.631Zm30.499,-240.252c0,-12.485 4.816,-23.632 14.448,-33.442c9.631,-9.81 20.868,-14.715 33.71,-14.715c12.128,0 22.473,4.281 31.034,12.842c8.562,8.561 12.842,18.371 12.842,29.429c0,14.269 -5.35,27.29 -16.052,39.061c-6.421,6.778 -18.193,10.167 -35.315,10.167c-11.416,0 -21.047,-3.924 -28.895,-11.772c-7.848,-7.848 -11.772,-18.371 -11.772,-31.57Z"/>
</svg>
