
<svg 
        width="323px" 
        height="133px" 
        viewBox="0 0 323 133" 
        xmlns="http://www.w3.org/2000/svg" 
>
<style>
 <![CDATA[ 

 svg 
 {
 
 }

 ]]> 
</style>


    <g id="menalib-logo" transform="matrix(0.38943,0,0,0.38943,-183.908,-139.017)">
        <g id="menalib-icon-old" transform="matrix(0.724881,0,0,0.724881,484.063,356.975)">
            <path d="M145.133,30.893C145.133,30.893 109.996,3.717 105.179,0C100.363,3.717 65.487,30.893 65.487,30.893C23.341,63.419 0,107.534 0,153.533L0,397.306L20.506,397.306L20.506,176.541C20.506,135.068 41.716,95.292 79.715,65.966C79.715,65.966 111.394,41.464 115.737,38.112C120.079,41.464 151.643,65.966 151.643,65.966C189.642,95.292 210.806,135.068 210.806,176.541L210.806,153.533C210.806,107.534 187.279,63.419 145.133,30.893" style="fill:rgb(83,96,46);fill-rule:nonzero;"/>
            <path d="M151.608,65.966C151.608,65.966 119.935,41.464 115.593,38.112C111.25,41.464 79.678,65.966 79.678,65.966C41.679,95.292 20.507,135.067 20.507,176.541L20.507,397.306L43.474,397.306L43.474,201.695C43.474,165.252 62.187,130.302 95.577,104.532C95.577,104.532 123.451,83.003 127.267,80.058C131.082,83.003 158.819,104.532 158.819,104.532C192.209,130.302 210.806,165.252 210.806,201.695L210.806,176.541C210.806,135.067 189.608,95.292 151.608,65.966" style="fill:rgb(159,193,111);fill-rule:nonzero;"/>
            <path d="M158.807,104.533C158.807,104.533 130.985,83.004 127.169,80.058C123.354,83.004 95.539,104.533 95.539,104.533C62.15,130.302 43.474,165.252 43.474,201.695L43.474,397.305L64.8,397.305L64.8,223.689C64.8,191.645 80.708,160.914 110.068,138.255C110.068,138.255 134.305,119.324 137.66,116.735C141.014,119.324 165.248,138.255 165.248,138.255C194.608,160.914 210.806,191.645 210.806,223.689L210.806,201.695C210.806,165.252 192.197,130.302 158.807,104.533" style="fill:rgb(194,226,143);fill-rule:nonzero;"/>
            <path d="M83.666,244.259C83.666,216.22 98.117,189.329 123.807,169.503C123.807,169.503 145.279,152.938 148.216,150.671C151.151,152.938 172.471,169.503 172.471,169.503C193.133,185.449 207.525,205.966 210.806,227.975L210.806,223.689C210.806,191.646 194.461,160.914 165.102,138.255C165.102,138.255 140.647,119.324 137.292,116.736C133.937,119.324 110.031,138.255 110.031,138.255C80.672,160.914 64.801,191.646 64.801,223.689L64.801,397.306L83.666,397.306L83.666,244.259Z" style="fill:rgb(237,252,200);fill-rule:nonzero;"/>
        </g>
        <g id="menalib-text" transform="matrix(5.00266,0,0,5.00266,-3209.83,-605.69)">
            <path id="menalib-m" d="M763.869,225.828L768.202,243.575L768.302,243.575L772.685,225.828L778.844,225.828L778.844,250L774.146,250L774.146,242.978L774.544,233.581L774.444,233.564L769.829,250L766.691,250L762.126,233.697L762.026,233.714L762.441,242.978L762.441,250L757.743,250L757.743,225.828L763.869,225.828Z" style="fill:rgb(83,96,46);fill-rule:nonzero;"/>
            <g id="menalib-enalib">
                <path id="menalib-e" d="M795.603,239.392L787.485,239.392L787.485,246.231L797.03,246.231L797.03,250L782.753,250L782.753,225.828L796.997,225.828L796.997,229.613L787.485,229.613L787.485,235.623L795.603,235.623L795.603,239.392Z" style="fill:rgb(83,96,46);fill-rule:nonzero;"/>
                <path id="menalib-n" d="M817.424,250L812.726,250L805.339,234.544L805.239,234.577L805.239,250L800.507,250L800.507,225.828L805.239,225.828L812.627,241.268L812.726,241.234L812.726,225.828L817.424,225.828L817.424,250Z" style="fill:rgb(83,96,46);fill-rule:nonzero;"/>
                <path id="menalib-a" d="M832.283,244.87L825.908,244.87L824.613,250L819.848,250L826.655,225.828L831.569,225.828L838.359,250L833.594,250L832.283,244.87ZM826.871,241.068L831.32,241.068L829.145,232.519L829.046,232.519L826.871,241.068Z" style="fill:rgb(83,96,46);fill-rule:nonzero;"/>
                <path id="menalib-l" d="M845.306,246.231L854.138,246.231L854.138,250L840.575,250L840.575,225.828L845.306,225.828L845.306,246.231Z" style="fill:rgb(83,96,46);fill-rule:nonzero;"/>
                <rect id="menalib-i" x="856.745" y="225.828" width="4.698" height="24.172" style="fill:rgb(83,96,46);fill-rule:nonzero;"/>
                <path id="menalib-b" d="M865.361,250L865.361,225.828L872.483,225.828C874.973,225.828 876.919,226.382 878.319,227.488C879.719,228.595 880.419,230.244 880.419,232.436C880.419,233.587 880.164,234.608 879.655,235.499C879.146,236.389 878.382,237.056 877.364,237.499C878.637,237.798 879.578,238.445 880.186,239.441C880.795,240.437 881.099,241.605 881.099,242.944C881.099,245.257 880.438,247.012 879.116,248.207C877.793,249.402 875.898,250 873.429,250L865.361,250ZM870.093,239.342L870.093,246.231L873.429,246.231C874.426,246.231 875.17,245.955 875.662,245.401C876.155,244.848 876.401,244.023 876.401,242.928C876.401,241.777 876.191,240.891 875.77,240.271C875.35,239.652 874.675,239.342 873.745,239.342L870.093,239.342ZM870.093,236.038L872.699,236.038C873.662,236.016 874.401,235.736 874.915,235.2C875.43,234.663 875.687,233.891 875.687,232.884C875.687,231.755 875.422,230.928 874.89,230.402C874.359,229.876 873.557,229.613 872.483,229.613L870.093,229.613L870.093,236.038Z" style="fill:rgb(83,96,46);fill-rule:nonzero;"/>
            </g>
        </g>
        <g id="slogan-text" transform="matrix(1.06854,0,0,1.06854,-187.672,-352.19)">
            <g id="slogan-the">
                <path id="slogan-the-t" d="M635.661,956.614L628.54,956.614L628.54,981.366L624.674,981.366L624.674,956.614L617.592,956.614L617.592,953.644L635.661,953.644L635.661,956.614Z" style="fill:rgb(70,80,39);fill-rule:nonzero;"/>
                <path id="slogan-the-h" d="M664.347,981.366L660.501,981.366L660.501,969.142L649.877,969.142L649.877,981.366L646.011,981.366L646.011,953.644L649.877,953.644L649.877,966.191L660.501,966.191L660.501,953.644L664.347,953.644L664.347,981.366Z" style="fill:rgb(70,80,39);fill-rule:nonzero;"/>
                <path id="slogan-the-e" d="M690.901,968.495L680.619,968.495L680.619,978.434L692.538,978.434L692.538,981.366L676.754,981.366L676.754,953.644L692.424,953.644L692.424,956.614L680.619,956.614L680.619,965.544L690.901,965.544L690.901,968.495Z" style="fill:rgb(70,80,39);fill-rule:nonzero;"/>
            </g>
            <g id="slogan-middle">
                <path id="slogan-middle-m" d="M723.541,953.644L730.015,976.263L730.129,976.263L736.621,953.644L741.61,953.644L741.61,981.366L737.783,981.366L737.783,970.723L738.126,960.06L738.011,960.041L731.347,981.366L728.796,981.366L722.151,960.06L722.037,960.079L722.399,970.723L722.399,981.366L718.571,981.366L718.571,953.644L723.541,953.644Z" style="fill:rgb(70,80,39);fill-rule:nonzero;"/>
                <rect id="slogan-middle-i" x="754.188" y="953.644" width="3.846" height="27.722" style="fill:rgb(70,80,39);fill-rule:nonzero;"/>
                <path id="slogan-middle-d1" d="M770.708,981.366L770.708,953.644L778.324,953.644C781.269,953.644 783.671,954.754 785.531,956.976C787.391,959.197 788.32,962.053 788.32,965.544L788.32,969.485C788.32,972.988 787.391,975.844 785.531,978.053C783.671,980.262 781.269,981.366 778.324,981.366L770.708,981.366ZM774.573,956.614L774.573,978.434L778.191,978.434C780.133,978.434 781.666,977.602 782.789,975.94C783.913,974.277 784.474,972.125 784.474,969.485L784.474,965.506C784.474,962.891 783.913,960.755 782.789,959.099C781.666,957.442 780.133,956.614 778.191,956.614L774.573,956.614Z" style="fill:rgb(70,80,39);fill-rule:nonzero;"/>
                <path id="slogan-middle-d2" d="M799.699,981.366L799.699,953.644L807.315,953.644C810.26,953.644 812.663,954.754 814.522,956.976C816.382,959.197 817.311,962.053 817.311,965.544L817.311,969.485C817.311,972.988 816.382,975.844 814.522,978.053C812.663,980.262 810.26,981.366 807.315,981.366L799.699,981.366ZM803.565,956.614L803.565,978.434L807.182,978.434C809.124,978.434 810.657,977.602 811.78,975.94C812.904,974.277 813.465,972.125 813.465,969.485L813.465,965.506C813.465,962.891 812.904,960.755 811.78,959.099C810.657,957.442 809.124,956.614 807.182,956.614L803.565,956.614Z" style="fill:rgb(70,80,39);fill-rule:nonzero;"/>
                <path id="slogan-middle-l" d="M832.556,978.434L843.37,978.434L843.37,981.366L828.691,981.366L828.691,953.644L832.556,953.644L832.556,978.434Z" style="fill:rgb(70,80,39);fill-rule:nonzero;"/>
                <path id="slogan-middle-e" d="M867.963,968.495L857.682,968.495L857.682,978.434L869.601,978.434L869.601,981.366L853.817,981.366L853.817,953.644L869.486,953.644L869.486,956.614L857.682,956.614L857.682,965.544L867.963,965.544L867.963,968.495Z" style="fill:rgb(70,80,39);fill-rule:nonzero;"/>
            </g>
            <g id="slogan-east">
                <path id="slogan-east-e" d="M909.876,968.495L899.594,968.495L899.594,978.434L911.513,978.434L911.513,981.366L895.729,981.366L895.729,953.644L911.399,953.644L911.399,956.614L899.594,956.614L899.594,965.544L909.876,965.544L909.876,968.495Z" style="fill:rgb(70,80,39);fill-rule:nonzero;"/>
                <path id="slogan-east-a" d="M934.735,974.359L925.9,974.359L923.882,981.366L919.96,981.366L928.49,953.644L932.222,953.644L940.676,981.366L936.753,981.366L934.735,974.359ZM926.795,971.294L933.859,971.294L930.394,959.184L930.28,959.184L926.795,971.294Z" style="fill:rgb(70,80,39);fill-rule:nonzero;"/>
                <path id="slogan-east-s" d="M963.479,974.397C963.479,973.09 963.111,972.017 962.374,971.18C961.638,970.342 960.35,969.606 958.509,968.971C955.869,968.171 953.844,967.127 952.435,965.839C951.026,964.55 950.322,962.846 950.322,960.727C950.322,958.543 951.106,956.75 952.673,955.348C954.241,953.945 956.256,953.244 958.719,953.244C961.283,953.244 963.349,954.053 964.916,955.671C966.484,957.29 967.242,959.241 967.191,961.526L967.153,961.64L963.441,961.64C963.441,960.028 963.025,958.718 962.193,957.709C961.362,956.7 960.191,956.195 958.681,956.195C957.246,956.195 956.139,956.617 955.358,957.461C954.577,958.305 954.187,959.381 954.187,960.688C954.187,961.869 954.606,962.862 955.444,963.668C956.281,964.474 957.665,965.207 959.594,965.867C962.12,966.654 964.043,967.727 965.364,969.085C966.684,970.443 967.344,972.201 967.344,974.359C967.344,976.631 966.563,978.434 965.002,979.767C963.441,981.099 961.391,981.766 958.852,981.766C956.377,981.766 954.216,981.033 952.369,979.567C950.522,978.101 949.63,976.035 949.694,973.369L949.732,973.255L953.445,973.255C953.445,975.159 953.943,976.568 954.939,977.482C955.936,978.396 957.24,978.853 958.852,978.853C960.299,978.853 961.432,978.45 962.251,977.644C963.069,976.838 963.479,975.755 963.479,974.397Z" style="fill:rgb(70,80,39);fill-rule:nonzero;"/>
                <path id="slogan-east-t" d="M994.564,956.614L987.443,956.614L987.443,981.366L983.578,981.366L983.578,956.614L976.495,956.614L976.495,953.644L994.564,953.644L994.564,956.614Z" style="fill:rgb(70,80,39);fill-rule:nonzero;"/>
            </g>
            <g id="slogan-virtual">
                <path id="slogan-virtual-v" d="M1027.95,975.235L1028.33,976.853L1028.44,976.853L1028.84,975.254L1034.5,953.644L1038.59,953.644L1030.25,981.366L1026.52,981.366L1018.2,953.644L1022.31,953.644L1027.95,975.235Z" style="fill:rgb(70,80,39);fill-rule:nonzero;"/>
                <rect id="slogan-virtual-i" x="1049.02" y="953.644" width="3.846" height="27.722" style="fill:rgb(70,80,39);fill-rule:nonzero;"/>
                <path id="slogan-virtual-r" d="M1069.4,969.428L1069.4,981.366L1065.54,981.366L1065.54,953.663L1074.16,953.663C1076.79,953.663 1078.82,954.342 1080.26,955.7C1081.69,957.058 1082.41,959.007 1082.41,961.545C1082.41,962.992 1082.07,964.255 1081.41,965.334C1080.74,966.413 1079.78,967.257 1078.52,967.867C1079.91,968.336 1080.9,969.133 1081.52,970.256C1082.14,971.379 1082.44,972.766 1082.44,974.416L1082.44,976.834C1082.44,977.685 1082.53,978.475 1082.7,979.205C1082.87,979.935 1083.17,980.509 1083.59,980.928L1083.59,981.366L1079.61,981.366C1079.18,980.947 1078.9,980.316 1078.78,979.471C1078.66,978.627 1078.6,977.736 1078.6,976.796L1078.6,974.454C1078.6,972.906 1078.25,971.681 1077.54,970.78C1076.84,969.878 1075.87,969.428 1074.64,969.428L1069.4,969.428ZM1069.4,966.477L1073.97,966.477C1075.53,966.477 1076.68,966.055 1077.43,965.21C1078.17,964.366 1078.54,963.17 1078.54,961.621C1078.54,960.035 1078.18,958.804 1077.46,957.928C1076.73,957.052 1075.63,956.614 1074.16,956.614L1069.4,956.614L1069.4,966.477Z" style="fill:rgb(70,80,39);fill-rule:nonzero;"/>
                <path id="slogan-virtual-t" d="M1109.21,956.614L1102.09,956.614L1102.09,981.366L1098.22,981.366L1098.22,956.614L1091.14,956.614L1091.14,953.644L1109.21,953.644L1109.21,956.614Z" style="fill:rgb(70,80,39);fill-rule:nonzero;"/>
                <path id="slogan-virtual-u" d="M1136.77,953.644L1136.77,972.855C1136.77,975.724 1135.95,977.926 1134.31,979.462C1132.66,980.998 1130.51,981.766 1127.86,981.766C1125.25,981.766 1123.13,980.998 1121.52,979.462C1119.91,977.926 1119.1,975.724 1119.1,972.855L1119.1,953.644L1122.93,953.644L1122.93,972.855C1122.93,974.835 1123.37,976.327 1124.26,977.329C1125.15,978.332 1126.35,978.834 1127.86,978.834C1129.43,978.834 1130.67,978.351 1131.57,977.387C1132.47,976.422 1132.92,974.911 1132.92,972.855L1132.92,953.644L1136.77,953.644Z" style="fill:rgb(70,80,39);fill-rule:nonzero;"/>
                <path id="slogan-virtual-a" d="M1160.85,974.359L1152.02,974.359L1150,981.366L1146.08,981.366L1154.61,953.644L1158.34,953.644L1166.79,981.366L1162.87,981.366L1160.85,974.359ZM1152.91,971.294L1159.97,971.294L1156.51,959.184L1156.39,959.184L1152.91,971.294Z" style="fill:rgb(70,80,39);fill-rule:nonzero;"/>
                <path id="slogan-virtual-l" d="M1180.78,978.434L1191.59,978.434L1191.59,981.366L1176.91,981.366L1176.91,953.644L1180.78,953.644L1180.78,978.434Z" style="fill:rgb(70,80,39);fill-rule:nonzero;"/>
            </g>
            <g id="slogan-library">
                <path id="slogan-library-l" d="M1221.41,978.434L1232.23,978.434L1232.23,981.366L1217.55,981.366L1217.55,953.644L1221.41,953.644L1221.41,978.434Z" style="fill:rgb(70,80,39);fill-rule:nonzero;"/>
                <rect id="slogan-library-i" x="1242.94" y="953.644" width="3.846" height="27.722" style="fill:rgb(70,80,39);fill-rule:nonzero;"/>
                <path id="slogan-library-b" d="M1259.46,981.366L1259.46,953.644L1267.19,953.644C1269.81,953.644 1271.85,954.266 1273.31,955.51C1274.78,956.754 1275.51,958.619 1275.51,961.107C1275.51,962.427 1275.18,963.592 1274.51,964.601C1273.85,965.61 1272.92,966.35 1271.74,966.819C1273.24,967.149 1274.39,967.933 1275.2,969.171C1276,970.408 1276.41,971.859 1276.41,973.521C1276.41,976.073 1275.69,978.018 1274.25,979.357C1272.81,980.696 1270.82,981.366 1268.28,981.366L1259.46,981.366ZM1263.33,968.438L1263.33,978.434L1268.28,978.434C1269.65,978.434 1270.7,978.012 1271.45,977.168C1272.19,976.323 1272.56,975.114 1272.56,973.54C1272.56,971.979 1272.24,970.738 1271.61,969.818C1270.98,968.898 1270,968.438 1268.68,968.438L1263.33,968.438ZM1263.33,965.658L1267.57,965.658C1268.84,965.658 1269.84,965.274 1270.56,964.506C1271.29,963.738 1271.65,962.631 1271.65,961.184C1271.65,959.66 1271.27,958.518 1270.51,957.756C1269.76,956.995 1268.65,956.614 1267.19,956.614L1263.33,956.614L1263.33,965.658Z" style="fill:rgb(70,80,39);fill-rule:nonzero;"/>
                <path id="slogan-library-r1" d="M1291.71,969.428L1291.71,981.366L1287.84,981.366L1287.84,953.663L1296.47,953.663C1299.1,953.663 1301.13,954.342 1302.56,955.7C1304,957.058 1304.71,959.007 1304.71,961.545C1304.71,962.992 1304.38,964.255 1303.71,965.334C1303.05,966.413 1302.09,967.257 1300.83,967.867C1302.21,968.336 1303.21,969.133 1303.83,970.256C1304.44,971.379 1304.75,972.766 1304.75,974.416L1304.75,976.834C1304.75,977.685 1304.84,978.475 1305.01,979.205C1305.18,979.935 1305.48,980.509 1305.89,980.928L1305.89,981.366L1301.91,981.366C1301.48,980.947 1301.21,980.316 1301.09,979.471C1300.96,978.627 1300.9,977.736 1300.9,976.796L1300.9,974.454C1300.9,972.906 1300.55,971.681 1299.85,970.78C1299.14,969.878 1298.18,969.428 1296.94,969.428L1291.71,969.428ZM1291.71,966.477L1296.28,966.477C1297.84,966.477 1298.99,966.055 1299.73,965.21C1300.48,964.366 1300.85,963.17 1300.85,961.621C1300.85,960.035 1300.49,958.804 1299.76,957.928C1299.04,957.052 1297.94,956.614 1296.47,956.614L1291.71,956.614L1291.71,966.477Z" style="fill:rgb(70,80,39);fill-rule:nonzero;"/>
                <path id="slogan-library-a" d="M1329.59,974.359L1320.76,974.359L1318.74,981.366L1314.82,981.366L1323.35,953.644L1327.08,953.644L1335.53,981.366L1331.61,981.366L1329.59,974.359ZM1321.65,971.294L1328.72,971.294L1325.25,959.184L1325.14,959.184L1321.65,971.294Z" style="fill:rgb(70,80,39);fill-rule:nonzero;"/>
                <path id="slogan-library-r2" d="M1349.52,969.428L1349.52,981.366L1345.65,981.366L1345.65,953.663L1354.28,953.663C1356.91,953.663 1358.94,954.342 1360.37,955.7C1361.81,957.058 1362.52,959.007 1362.52,961.545C1362.52,962.992 1362.19,964.255 1361.52,965.334C1360.86,966.413 1359.9,967.257 1358.64,967.867C1360.02,968.336 1361.02,969.133 1361.64,970.256C1362.25,971.379 1362.56,972.766 1362.56,974.416L1362.56,976.834C1362.56,977.685 1362.65,978.475 1362.82,979.205C1362.99,979.935 1363.29,980.509 1363.7,980.928L1363.7,981.366L1359.73,981.366C1359.29,980.947 1359.02,980.316 1358.9,979.471C1358.78,978.627 1358.72,977.736 1358.72,976.796L1358.72,974.454C1358.72,972.906 1358.36,971.681 1357.66,970.78C1356.95,969.878 1355.99,969.428 1354.76,969.428L1349.52,969.428ZM1349.52,966.477L1354.09,966.477C1355.65,966.477 1356.8,966.055 1357.55,965.21C1358.29,964.366 1358.66,963.17 1358.66,961.621C1358.66,960.035 1358.3,958.804 1357.57,957.928C1356.85,957.052 1355.75,956.614 1354.28,956.614L1349.52,956.614L1349.52,966.477Z" style="fill:rgb(70,80,39);fill-rule:nonzero;"/>
                <path id="slogan-library-y" d="M1381.61,967.105L1381.73,967.105L1387.4,953.644L1391.69,953.644L1383.54,971.389L1383.54,981.366L1379.69,981.366L1379.69,971.141L1371.64,953.644L1375.96,953.644L1381.61,967.105Z" style="fill:rgb(70,80,39);fill-rule:nonzero;"/>
            </g>
        </g>
    </g>
</svg>
