<?xml version="1.0" encoding="iso-8859-1"?>
<!-- Generator: Adobe Illustrator 16.0.0, SVG Export Plug-In . SVG Version: 6.00 Build 0)  -->
<!DOCTYPE svg PUBLIC "-//W3C//DTD SVG 1.1//EN" "http://www.w3.org/Graphics/SVG/1.1/DTD/svg11.dtd">
<svg xmlns="http://www.w3.org/2000/svg" xmlns:xlink="http://www.w3.org/1999/xlink" version="1.1" id="Capa_1" x="0px" y="0px" width="512px" height="512px" viewBox="0 0 55.502 55.502" style="enable-background:new 0 0 55.502 55.502;" xml:space="preserve">
<g>
	<g>
		<path d="M19.579,24.982c2.258,0,4.095-1.837,4.095-4.095c0-2.258-1.837-4.094-4.095-4.094c-2.259,0-4.096,1.836-4.096,4.094    C15.483,23.145,17.32,24.982,19.579,24.982z M19.579,18.794c1.154,0,2.095,0.938,2.095,2.094c0,1.156-0.939,2.095-2.095,2.095    c-1.156,0-2.096-0.938-2.096-2.095C17.484,19.732,18.424,18.794,19.579,18.794z" fill="#008d9a"/>
		<path d="M34.731,16.794c-2.26,0-4.096,1.836-4.096,4.094c0,2.258,1.836,4.095,4.096,4.095c2.258,0,4.096-1.837,4.096-4.095    C38.827,18.63,36.987,16.794,34.731,16.794z M34.731,22.982c-1.154,0-2.096-0.938-2.096-2.095c0-1.155,0.938-2.094,2.096-2.094    c1.154,0,2.096,0.938,2.096,2.094C36.826,22.044,35.889,22.982,34.731,22.982z" fill="#008d9a"/>
		<path d="M51.061,11.644c0.387,0,0.737-0.223,0.903-0.573l2.771-5.868c0.209-0.444,0.064-0.977-0.34-1.254l-4.374-2.988    c-0.281-0.193-0.644-0.229-0.957-0.094l-5.653,2.424C42.818,1.392,41.064,0,38.973,0c-2.229,0-4.095,1.573-4.554,3.668H21.038    C20.578,1.573,18.714,0,16.483,0c-2.085,0-3.834,1.383-4.431,3.272L6.44,0.867c-0.312-0.134-0.675-0.1-0.958,0.094L1.107,3.948    c-0.405,0.277-0.55,0.81-0.34,1.254l2.774,5.868c0.166,0.351,0.518,0.573,0.903,0.573h4.226l2.519,1.385L9.502,34.371    c-0.143,0.986-0.208,1.822-0.208,2.631c0,10.201,8.299,18.5,18.5,18.5s18.501-8.299,18.501-18.5c0-0.809-0.066-1.645-0.201-2.566    l-1.697-21.451l2.438-1.34L51.061,11.644L51.061,11.644z M38.975,2c1.116,0,2.071,0.691,2.469,1.668h-4.938    C36.899,2.691,37.856,2,38.975,2z M16.484,2c1.117,0,2.072,0.691,2.47,1.668h-4.939C14.412,2.691,15.367,2,16.484,2z M9.411,9.768    C9.264,9.686,9.098,9.644,8.929,9.644H5.08L2.94,5.12l3.217-2.197l5.98,2.563c0.25,0.25,0.616,0.354,0.968,0.261    c0.07-0.02,0.138-0.046,0.199-0.077h14.929c0.137,3.203,0.355,13.981-2.435,21.042c-0.792,2.005-2.013,3.31-3.629,3.874    c-3.33,1.164-7.436-0.992-7.915-1.252l-2.218-1.658l1.197-15.13c0.031-0.393-0.17-0.767-0.515-0.955L9.411,9.768z M46.095,9.768    l-3.229,1.775c-0.344,0.188-0.545,0.563-0.514,0.956l1.756,22.153c0.127,0.895,0.188,1.641,0.188,2.35    c0,9.102-7.401,16.502-16.5,16.502c-9.102,0-16.501-7.4-16.501-16.502c0-0.709,0.06-1.455,0.193-2.41l0.361-4.56l1.261,0.94    c0.032,0.023,0.064,0.045,0.099,0.064c0.167,0.096,3.317,1.887,6.798,1.887c0.931,0,1.886-0.127,2.812-0.451    c2.194-0.764,3.822-2.457,4.838-5.029c2.941-7.444,2.732-18.335,2.578-21.776h12.498c0.136,0,0.271-0.027,0.396-0.081l6.217-2.665    l3.219,2.197l-2.141,4.524h-3.849C46.407,9.644,46.243,9.687,46.095,9.768z" fill="#008d9a"/>
		<circle cx="24.274" cy="46.394" r="1.96" fill="#008d9a"/>
		<circle cx="33.345" cy="46.394" r="1.96" fill="#008d9a"/>
	</g>
</g>
<g>
</g>
<g>
</g>
<g>
</g>
<g>
</g>
<g>
</g>
<g>
</g>
<g>
</g>
<g>
</g>
<g>
</g>
<g>
</g>
<g>
</g>
<g>
</g>
<g>
</g>
<g>
</g>
<g>
</g>
</svg>
