<?xml version="1.0" encoding="utf-8"?>
<!-- Generator: Adobe Illustrator 19.2.1, SVG Export Plug-In . SVG Version: 6.00 Build 0)  -->
<svg version="1.1" id="Ebene_1" xmlns="http://www.w3.org/2000/svg" xmlns:xlink="http://www.w3.org/1999/xlink" x="0px" y="0px"
	 viewBox="0 0 65 65" style="enable-background:new 0 0 65 65;" xml:space="preserve">
<style type="text/css">
	.st0{fill:#7F7F7F;}
</style>
<title>justcow</title>
<path class="st0" d="M14.2,17.1c0.6-0.7,1.5-0.4,2.3-0.2C27.2,19,38,18.7,48.8,17.5c2.3-0.3,4.5-0.8,6.1-2.8
	c2.4,2.8,3.1,6.5,5.4,9.2c0.9,1-0.2,2.8-1.7,2.6c-2-0.3-3.8,0.5-5.8,0c-1.4-0.3-2.1,0.8-2.7,2c-1.4,2.7-1.5,6.3-4.1,8.3
	s-3.9,12.6-4,12.9c-3.6,0.1-3-1.4-3-4.8c0.1-2.5-0.5-4.7-0.1-7c0.1-0.8-0.4-1.5-1.2-1.6c-0.1,0-0.2,0-0.2,0
	c-0.8-0.1-9.4,1.7-12.7-0.3c-0.9-0.5-4.1,0.4-4.3,1.8c-1.3,3.7,0.4,9.9,1,12.1c-1.3,0.5-1.9,0.4-2.3-0.9c-1-3.2-1.4-5.4-2.6-8.7
	c-2.3,3.3-1.9,6.5-2,10c-1.8,0.3-2.5-0.3-2.1-2.1c1.2-5.3,0.5-18.1,0.1-18.3s-0.9,12.6-1,12.5c-1.8-0.6,0.1-9.7,0.3-13.5
	C11.8,28.9,11.6,19.8,14.2,17.1z"/>
</svg>
