<svg id="Ebene_1" data-name="Ebene 1" xmlns="http://www.w3.org/2000/svg" viewBox="0 0 50 35.67"><title>justcow</title><path class="cls-1" d="M37,49c0.64-.66,1.48-0.37,2.28-0.21C50,50.89,60.79,50.58,71.6,49.4c2.32-.25,4.53-0.82,6.06-2.81,2.45,2.81,3.07,6.51,5.45,9.22,0.92,1.05-.2,2.8-1.71,2.57-2-.3-3.84.45-5.8,0-1.45-.35-2.14.84-2.73,2-1.38,2.7-1.54,6.33-4.06,8.25s-3.9,12.56-4,12.88c-3.61.13-3-1.38-3-4.81,0.13-2.48-.47-4.68-0.12-7a1.4,1.4,0,0,0-1.42-1.6c-0.78-.11-9.39,1.74-12.69-0.25-0.86-.52-4.09.36-4.35,1.81-1.35,3.67.38,9.91,1,12.12-1.32.49-1.9,0.37-2.32-.88-1-3.15-1.4-5.37-2.64-8.73-2.29,3.32-1.94,6.46-2,10-1.84.26-2.45-.27-2.12-2.12,1.17-5.35.48-18.08,0.07-18.33S34.32,74.29,34.2,74.24c-1.76-.62.07-9.67,0.29-13.45C34.56,60.81,34.35,51.72,37,49Z" transform="translate(-33.45 -46.6)" fill="#7f7f7f"/></svg>