<?xml version="1.0" standalone="no"?>
<!DOCTYPE svg PUBLIC "-//W3C//DTD SVG 20010904//EN"
 "http://www.w3.org/TR/2001/REC-SVG-20010904/DTD/svg10.dtd">
<svg version="1.0" xmlns="http://www.w3.org/2000/svg"
 width="1280.000000pt" height="1280.000000pt" viewBox="0 0 1280.000000 1280.000000"
 preserveAspectRatio="xMidYMid meet">
<metadata>
Created by potrace 1.11, written by Peter Selinger 2001-2013
</metadata>
<g transform="translate(0.000000,1280.000000) scale(0.100000,-0.100000)"
fill="#000000" stroke="none">
<path d="M7686 12738 c-10 -29 -22 -62 -27 -73 -5 -11 -27 -70 -48 -132 -22
-61 -45 -121 -51 -132 -6 -12 -8 -21 -4 -21 3 0 2 -6 -3 -12 -6 -7 -18 -38
-28 -68 -10 -30 -21 -59 -25 -65 -5 -5 -9 -13 -9 -17 -3 -19 -22 -74 -76 -218
-26 -69 -47 -129 -49 -135 -1 -5 -4 -14 -7 -20 -10 -17 -43 -120 -38 -121 2 0
-3 -9 -11 -18 -8 -10 -15 -23 -16 -30 -3 -13 -57 -163 -139 -386 -32 -85 -68
-184 -81 -220 -13 -36 -30 -83 -38 -105 -131 -359 -188 -513 -193 -525 -3 -8
-7 -19 -8 -25 -2 -5 -26 -71 -54 -146 -28 -74 -51 -138 -51 -142 0 -3 -5 -18
-12 -34 -6 -15 -12 -30 -13 -33 -1 -3 -4 -12 -8 -20 -18 -44 -77 -209 -77
-215 0 -4 -6 -21 -14 -38 -14 -33 -56 -144 -60 -162 -2 -5 -7 -21 -13 -35 -5
-14 -27 -72 -47 -130 -21 -58 -42 -114 -47 -125 -5 -11 -21 -54 -35 -95 -15
-41 -31 -86 -37 -100 -5 -14 -11 -32 -13 -40 -2 -8 -7 -23 -13 -35 -5 -11 -46
-121 -91 -245 -96 -266 -130 -358 -140 -385 -13 -32 -46 -123 -76 -205 -55
-154 -85 -235 -91 -250 -17 -43 -54 -147 -55 -157 -1 -7 -4 -13 -8 -13 -4 0
-7 -6 -8 -12 -2 -27 -8 -47 -19 -59 -6 -8 -11 -16 -11 -19 1 -8 -12 -53 -29
-95 -8 -22 -19 -49 -23 -60 -4 -11 -15 -42 -25 -70 -9 -27 -20 -59 -25 -70
-17 -40 -43 -112 -65 -175 -24 -69 -91 -255 -102 -280 -3 -8 -7 -19 -9 -25 -1
-5 -7 -23 -14 -40 -6 -16 -11 -32 -12 -35 0 -3 -4 -11 -10 -17 -6 -7 -8 -13
-4 -13 4 0 0 -13 -9 -30 -8 -16 -15 -31 -14 -32 0 -2 -5 -16 -11 -33 -7 -16
-13 -34 -14 -40 -2 -5 -8 -23 -15 -40 -6 -16 -15 -41 -20 -55 -5 -14 -13 -34
-17 -45 -4 -11 -8 -22 -9 -25 -1 -3 -4 -12 -8 -20 -8 -21 -122 -334 -168 -463
-22 -60 -42 -113 -45 -118 -3 -5 -7 -17 -9 -26 -2 -10 -20 -61 -40 -113 -20
-52 -42 -113 -50 -135 -8 -22 -30 -83 -50 -135 -20 -52 -43 -117 -51 -145 -9
-27 -20 -54 -25 -59 -5 -6 -9 -16 -9 -22 0 -7 -5 -25 -12 -41 -6 -15 -12 -30
-13 -33 -1 -3 -5 -14 -9 -25 -13 -34 -19 -50 -22 -60 -9 -28 -74 -207 -92
-251 -11 -29 -19 -54 -16 -56 2 -3 -2 -11 -11 -18 -8 -7 -15 -21 -15 -31 0
-10 -5 -30 -12 -46 -6 -15 -12 -30 -13 -33 -1 -6 -43 -119 -52 -140 -3 -8 -7
-21 -9 -28 -2 -11 -30 -86 -55 -147 -7 -18 -34 -91 -80 -220 -10 -27 -29 -81
-44 -120 -14 -38 -39 -107 -55 -151 -15 -45 -33 -91 -39 -103 -7 -12 -9 -21
-5 -21 3 0 2 -6 -3 -12 -6 -7 -20 -40 -31 -73 -11 -33 -41 -116 -67 -185 -26
-69 -47 -131 -48 -137 0 -7 -4 -13 -9 -13 -5 0 -7 -4 -4 -8 3 -5 -1 -19 -8
-33 -7 -13 -14 -28 -15 -34 -7 -20 -10 -31 -30 -85 -27 -78 -80 -222 -88 -240
-3 -8 -7 -19 -9 -25 -1 -5 -23 -66 -49 -135 -25 -69 -53 -143 -60 -165 -8 -22
-23 -65 -35 -95 -12 -30 -23 -62 -25 -70 -11 -40 -38 -106 -48 -119 -7 -8 -10
-15 -8 -15 5 -1 -26 -97 -47 -146 -9 -19 -17 -40 -18 -47 -1 -6 -28 -81 -59
-165 -74 -200 -90 -242 -91 -248 0 -3 -5 -16 -11 -30 -6 -14 -43 -115 -83
-225 -40 -110 -84 -229 -97 -265 -14 -36 -35 -94 -48 -130 -13 -36 -40 -110
-60 -165 -20 -55 -41 -112 -45 -126 -4 -15 -15 -42 -23 -60 -8 -19 -42 -113
-77 -209 -34 -96 -68 -188 -75 -205 -7 -16 -22 -57 -33 -90 -11 -33 -26 -73
-33 -90 -7 -16 -13 -34 -15 -40 -1 -5 -9 -29 -18 -53 l-15 -42 1032 2 c679 2
1032 6 1033 13 0 6 5 21 11 35 6 14 30 79 53 145 24 66 48 131 53 145 6 14 11
27 12 30 1 3 4 12 8 20 3 8 15 42 27 75 12 33 36 96 52 140 16 44 31 85 32 90
2 6 6 17 9 25 4 8 29 78 57 155 28 77 57 156 65 175 18 46 86 232 90 245 1 6
5 17 8 25 4 8 36 96 72 195 36 99 69 187 72 195 3 8 7 20 9 25 7 23 67 183 80
212 8 17 14 34 14 38 0 3 32 92 71 197 39 105 72 196 74 202 2 11 6 22 37 96
8 19 15 39 15 43 1 7 147 407 180 492 8 22 19 49 23 60 11 28 54 149 56 155 1
7 12 35 34 90 10 25 20 54 22 65 1 11 6 22 9 25 3 3 18 39 32 80 31 90 59 166
87 240 12 30 22 60 23 65 3 13 25 71 43 112 8 17 14 33 14 36 0 3 5 18 11 34
6 15 10 28 9 28 0 0 11 31 25 69 15 39 27 75 28 80 1 6 4 13 7 16 3 3 20 46
37 95 48 136 122 337 132 360 22 48 136 371 133 378 -1 4 2 7 8 7 6 0 9 3 8 8
-2 6 23 81 55 162 6 14 11 30 13 35 1 6 21 60 44 120 22 61 42 115 44 120 4
13 16 45 26 70 26 63 70 189 70 201 0 8 4 14 8 14 5 0 9 6 9 13 0 12 123 354
148 412 7 17 29 75 48 130 19 55 47 132 62 170 72 193 97 261 98 273 0 6 4 12
9 12 4 0 7 3 6 8 -2 4 2 21 9 37 13 35 120 326 170 465 18 52 38 104 43 115 9
19 48 128 54 150 2 6 6 17 9 25 8 19 47 123 97 262 21 59 43 115 48 125 6 10
10 22 10 26 0 4 5 20 10 35 6 15 27 72 47 127 20 55 41 108 46 117 5 10 9 22
9 27 0 5 5 22 12 38 6 15 12 31 13 36 2 4 4 9 5 12 1 3 3 8 4 13 2 10 44 122
55 147 5 11 19 49 31 85 22 66 25 73 54 145 8 22 38 103 66 180 28 77 53 147
57 155 3 8 7 18 8 23 2 4 3 8 5 10 1 1 3 9 5 17 2 8 9 29 16 45 6 17 13 35 15
40 6 19 62 170 75 200 6 17 14 38 16 48 1 10 10 34 19 55 10 20 18 42 20 47 1
6 43 120 92 255 50 135 100 272 112 305 12 33 25 67 28 75 3 8 6 17 7 20 1 6
43 120 52 140 3 8 7 20 9 25 1 6 37 102 79 215 42 113 78 210 79 215 2 6 8 21
13 35 6 14 20 54 33 90 13 36 27 76 33 90 5 14 11 30 13 35 1 6 44 120 94 255
50 135 92 253 93 263 1 9 4 17 8 17 4 0 11 14 14 32 4 18 11 39 16 48 4 8 20
49 35 90 15 41 40 111 56 155 17 44 41 109 53 145 22 59 61 165 143 387 16 45
28 84 24 87 -3 3 -1 6 5 6 6 0 13 10 16 23 4 19 52 152 72 200 7 16 -46 17
-1032 17 l-1039 0 -18 -52z"/>
</g>
</svg>
