<?xml version="1.0" standalone="no"?>
<!DOCTYPE svg PUBLIC "-//W3C//DTD SVG 1.1//EN" "http://www.w3.org/Graphics/SVG/1.1/DTD/svg11.dtd">
<svg xmlns="http://www.w3.org/2000/svg"><metadata>This SVG WebFont was generated by YouWorkForThem.
Copyright (c) 2014 by B\u0142 a\u017C ej Ostoja Lniski. All rights reserved.</metadata><defs><font horiz-adv-x="1036" id="ywftsvg"><font-face ascent="1434" bbox="-177.755 -598 2050 1898" cap-height="1434" descent="-614" font-family="" font-stretch="normal" font-weight="400" panose-1="0 0 0 0 0 0 0 0 0 0" underline-position="0" underline-thickness="0" unicode-range="U+0020-2248" units-per-em="2048" x-height="1024"/><missing-glyph d="M61 -598v2038h828v-2038h-828z" horiz-adv-x="950"/><glyph d="M61 -598v2038h828v-2038h-828z" glyph-name=".notdef" horiz-adv-x="950"/><glyph glyph-name="glyph1" horiz-adv-x="0"/><glyph glyph-name="glyph2" horiz-adv-x="681"/><glyph glyph-name="space" horiz-adv-x="411" unicode=" "/><glyph d="M162 59.5q0 28.5 19.5 49t48 20.5t49 -20.5t20.5 -49t-20.5 -48t-49 -19.5t-48 19.5t-19.5 48zM229.5 322q-32.5 0 -32.5 40l-11 1031q0 23 9.5 32t31.5 9h4q23 0 32 -9.5t9 -31.5l-10 -1031q0 -40 -32.5 -40z" glyph-name="exclam" horiz-adv-x="458" unicode="!"/><glyph d="M150 1497h45q35 0 28 -39l-28 -303q-4 -31 -22.5 -31t-22.5 31l-29 303q-6 39 29 39zM393 1497h45q35 0 29 -39l-29 -303q-4 -31 -22.5 -31t-22.5 31l-28 303q-7 39 28 39z" glyph-name="quotedbl" horiz-adv-x="587" unicode="&quot;"/><glyph d="M538 0q-26 0 -32 7t-4 32l59 491h-409q-25 0 -31 6.5t-6 31t6 30.5t31 6h419l37 303h-401q-25 0 -31 6.5t-6 31t6 30.5t31 6h409l52 414q2 27 10 33t34 6t31 -7.5t2 -31.5l-51 -414h287l51 414q2 27 10 33t34 6t31 -7.5t3 -31.5l-51 -414h389q25 0 31 -6t6 -30.5t-6 -31 t-31 -6.5h-397l-37 -303h379q25 0 31 -6t6 -30.5t-6.5 -31t-30.5 -6.5h-389l-60 -491q-4 -27 -10 -33t-32 -6t-32 7t-4 32l60 491h-287l-59 -491q-4 -27 -10 -33t-32 -6zM686 907l-37 -303h287l37 303h-287z" glyph-name="numbersign" horiz-adv-x="1599" unicode="#"/><glyph d="M567 66q154 0 250 89t96 198t-74.5 184t-181 126.5t-213 105.5t-181.5 139t-75 205t88.5 213t251.5 112v102q0 25 6.5 31t31 6t30.5 -6t6 -31v-98q88 0 172 -24.5t123 -49.5l41 -25q20 -14 8 -36l-10 -19q-12 -20 -37 -4q-137 84 -301 84t-248 -78t-84 -178t75 -175 t181.5 -126t213 -105.5t181 -138.5t74.5 -194q0 -158 -111.5 -263.5t-277.5 -115.5v-100q0 -25 -6 -31t-30.5 -6t-31 6t-6.5 31v100q-216 10 -374 149q-25 21 -1 51q23 30 50 5q152 -133 364 -133z" glyph-name="dollar" horiz-adv-x="1107" unicode="$"/><glyph d="M293 1020q-86 0 -148.5 62.5t-62.5 148.5t62.5 148.5t148.5 62.5t148.5 -62.5t62.5 -148.5t-62.5 -148.5t-148.5 -62.5zM299 0q-41 0 -25 39l562 1356q10 27 20 33t32 6t28 -6.5t-3 -32.5l-561 -1356q-10 -27 -18 -33t-35 -6zM141 1228.5q0 -61.5 44 -105.5t105.5 -44 t105.5 44t44 105.5t-44 105.5t-105.5 44t-105.5 -44t-44 -105.5zM889 -8q-86 0 -148.5 62.5t-62.5 148.5t62.5 148.5t148.5 62.5t148.5 -62.5t62.5 -148.5t-62.5 -148.5t-148.5 -62.5zM737 200.5q0 -61.5 44 -105.5t105.5 -44t105.5 44t44 105.5t-44 105.5t-105.5 44 t-105.5 -44t-44 -105.5z" glyph-name="percent" horiz-adv-x="1181" unicode="%"/><glyph d="M121 416q0 256 172 348q-143 84 -143 303q2 182 113.5 278.5t277.5 96.5t284 -131q23 -25 3 -45t-31 -20.5t-29 18.5q-98 104 -236 104t-223.5 -82t-85.5 -215t56.5 -201.5t158.5 -68.5q25 0 31 -6.5t6 -31t-6 -30.5t-31 -6h-10q-109 -4 -171 -88.5t-62 -234.5t94 -243 t246 -93t245.5 93t93.5 255v233q0 25 6.5 31t30.5 6h162q25 0 31 -6t6 -30.5t-6 -31t-31 -6.5h-88q-25 0 -31 -6t-6 -31v-159q0 -207 -121 -315.5t-295 -106.5t-292.5 109.5t-118.5 312.5z" glyph-name="ampersand" horiz-adv-x="1122" unicode="&amp;"/><glyph d="M150 1497h45q35 0 28 -39l-28 -303q-4 -31 -22.5 -31t-22.5 31l-29 303q-6 39 29 39z" glyph-name="quotesingle" horiz-adv-x="344" unicode="'"/><glyph d="M299 1296v-1167q0 -76 9 -121t50 -84t119 -41q23 -2 28 -9t5 -29t-7 -28.5t-26 -6.5q-131 0 -193.5 77.5t-62.5 239.5v1171q0 162 62.5 240t193.5 78q18 0 25.5 -7t7.5 -29t-5 -29t-28 -9q-111 -4 -144.5 -67.5t-33.5 -178.5z" glyph-name="parenleft" horiz-adv-x="612" unicode="("/><glyph d="M313 129v1167q0 76 -9 121t-50 84t-119 41q-23 2 -28 9t-5 29t7.5 29t25.5 7q131 0 193.5 -78t62.5 -240v-1171q0 -162 -62.5 -239.5t-193.5 -77.5q-18 0 -25.5 7t-7.5 28t5.5 28.5t27.5 9.5q111 4 144.5 67.5t33.5 178.5z" glyph-name="parenright" horiz-adv-x="612" unicode=")"/><glyph d="M397 1731q0 25 6.5 30.5t31 5.5t30.5 -6t6 -30v-205l145 145q18 16 27.5 16.5t26 -16t16.5 -26t-16 -25.5l-146 -145h205q25 0 31 -6.5t6 -31t-6 -30.5t-31 -6h-207l148 -146q16 -16 16 -25t-16 -28q-18 -16 -27.5 -16t-26.5 16l-145 146v-207q0 -25 -6 -31t-30.5 -6 t-31 6t-6.5 31v207l-145 -146q-16 -16 -25.5 -16t-27.5 16q-16 18 -16.5 27.5t16.5 25.5l145 146h-205q-25 0 -31 6t-6 30.5t6.5 31t30.5 6.5h205l-145 145q-16 16 -16.5 25.5t16 26t26 16t27.5 -16.5l145 -145v205z" glyph-name="asterisk" horiz-adv-x="868" unicode="*"/><glyph d="M414 698q0 20 -21 21h-254q-25 0 -31 6t-6 30.5t6.5 31t30.5 6.5h254q20 0 21 20v264q0 25 6 31t30.5 6t30.5 -6t6 -31v-264q0 -20 21 -20h254q25 0 31 -6.5t6 -31t-6.5 -30.5t-30.5 -6h-254q-20 0 -21 -21v-264q0 -25 -6 -31t-30.5 -6t-30.5 6.5t-6 30.5v264z" glyph-name="plus" horiz-adv-x="901" unicode="+"/><glyph d="M121 51q0 37 19.5 57.5t47.5 20.5q57 0 78 -57q29 -90 -84 -250q-20 -29 -36.5 -16.5t0 39t29.5 53t13 56.5t-22 40q-45 20 -45 57z" glyph-name="comma" horiz-adv-x="389" unicode=","/><glyph d="M571 528h-442q-18 0 -22.5 6.5t-4.5 31t4.5 30.5t22.5 6h442q18 0 22.5 -6t4.5 -30.5t-4.5 -31t-22.5 -6.5z" glyph-name="hyphen" horiz-adv-x="700" unicode="-"/><glyph d="M121 59.5q0 28.5 19.5 49t48 20.5t49 -20.5t20.5 -49t-20.5 -48t-49 -19.5t-48 19.5t-19.5 48z" glyph-name="period" horiz-adv-x="376" unicode="."/><glyph d="M154 0q-26 0 -31.5 7t-3.5 32l166 1356q2 27 10 33t34 6t31 -7.5t2 -31.5l-165 -1356q-4 -27 -10.5 -33t-32.5 -6z" glyph-name="slash" horiz-adv-x="481" unicode="/"/><glyph d="M671.5 -8q-241.5 0 -376.5 162.5t-135 474.5v176q0 311 135 474t376.5 163t377 -163t135.5 -474v-176q0 -311 -135.5 -474t-377 -163zM672 1368q-434 0 -434 -577v-148q0 -578 434 -577.5t434 577.5v148q0 577 -434 577z" glyph-name="zero" horiz-adv-x="1343" unicode="0"/><glyph d="M455 39q0 -27 -6.5 -33t-33 -6t-32.5 6t-6 33v1282l-246 -248q-18 -16 -28.5 -15t-26.5 17q-23 27 0 49l289 291q18 19 48 19t36 -6.5t6 -32.5v-1356z" glyph-name="one" horiz-adv-x="675" unicode="1"/><glyph d="M217 111q0 -25 6 -31t31 -6h557q25 0 31 -6.5t6 -31t-6 -30.5t-31 -6h-635q-25 0 -31 6t-6 31v180q0 100 44 193.5t133.5 185.5t255.5 236.5t175 266.5t-68 195.5t-199 73.5t-226 -108q-18 -18 -28 -19t-30 19t3 47q123 135 274 135t250.5 -92.5t99.5 -247.5 t-151.5 -286.5t-240.5 -212.5t-151.5 -186.5t-62.5 -217.5v-88z" glyph-name="two" horiz-adv-x="991" unicode="2"/><glyph d="M539 763.5q0 24.5 6 31t30 6.5q102 0 159 68.5t57 201.5t-85.5 215t-223.5 82t-236 -104q-18 -18 -28.5 -18.5t-31.5 20.5t2 45q119 131 285 131t277.5 -96.5t113.5 -278.5q0 -219 -143 -303q172 -92 172 -348q0 -207 -121.5 -315.5t-305.5 -108.5t-316 145q-22 25 -2 45 t30 20.5t29 -18.5q47 -51 121.5 -84.5t150.5 -33.5q152 2 246 95t94 243t-64.5 234.5t-179.5 88.5q-25 0 -30.5 6t-5.5 30.5z" glyph-name="three" horiz-adv-x="1054" unicode="3"/><glyph d="M684 395h-557q-23 0 -32 9.5t-9 31.5v2q0 41 16 64l613 903q12 20 21 24.5t29.5 4.5t27 -7.5t6.5 -33.5v-887q0 -25 6 -31t31 -6h38q25 0 31 -6t6 -30.5t-6 -31t-31 -6.5h-38q-25 0 -31 -6t-6 -31v-319q0 -27 -6.5 -33t-33 -6t-32.5 6t-6 33v319q0 25 -6 31t-31 6z M684 469q25 0 31 6t6 31v749q0 8 -6 10.5t-10 -5.5l-523 -771q-14 -20 8 -20h494z" glyph-name="four" unicode="4"/><glyph d="M454 -8q-184 0 -304 133q-22 25 -2 45t30 20t29 -18q100 -106 256 -105t248 100t92 282v26q0 184 -93.5 283.5t-248.5 99.5h-221q-25 0 -31 6t-6 31v502q0 25 6 31t31 6h532q25 0 31 -6.5t6 -31t-6 -30.5t-31 -6h-455q-25 0 -30.5 -6t-5.5 -31v-354q0 -25 6 -31t30 -6 h144q180 0 298 -115t118 -330v-51q0 -219 -119.5 -331.5t-303.5 -112.5z" glyph-name="five" horiz-adv-x="1015" unicode="5"/><glyph d="M139 449v356q0 305 157 471t404 166h2q25 0 31 -6t6 -31t-6 -31t-31 -6h-2q-190 0 -295.5 -91t-148.5 -208t-43 -276v-58q45 104 138 156.5t190 52.5q176 0 282.5 -118.5t106.5 -338.5v-38q0 -219 -109.5 -338t-286 -119t-286 119t-109.5 338zM534.5 66 q147.5 0 234.5 101t87 294v14q0 193 -86 292t-235.5 99t-235.5 -99t-86 -292v-14q0 -193 87 -294t234.5 -101z" glyph-name="six" horiz-adv-x="1069" unicode="6"/><glyph d="M776 1434q23 0 30 -6.5t7 -28.5v-15q0 -37 -6 -53l-516 -1292q-10 -27 -18.5 -33t-31.5 -6t-28.5 6t2.5 33l518 1296q8 25 -14 25h-608q-25 0 -31 6t-6 30.5t6 31t31 6.5h665z" glyph-name="seven" horiz-adv-x="884" unicode="7"/><glyph d="M1001 397q0 -176 -112.5 -290.5t-308.5 -114.5h-17q-197 0 -309.5 114.5t-112.5 290.5q0 127 62.5 226.5t175.5 144.5q-92 47 -139 134t-47 183q0 139 95 248t275 109h17q180 0 275 -108.5t95 -248.5q0 -96 -48 -183t-140 -134q115 -45 177 -144.5t62 -226.5zM580 729 h-33q-154 -6 -243 -97.5t-89 -235.5t93 -237t255 -93h17q162 0 255 93t93 238.5t-93.5 238.5t-254.5 93zM563 803h31q139 4 211 88.5t72 194.5t-76 196t-221 86h-17q-145 0 -221 -87t-76 -195.5t76 -195.5t221 -87z" glyph-name="eight" horiz-adv-x="1142" unicode="8"/><glyph d="M930 985v-356q0 -305 -157 -471t-404 -166h-99q-25 0 -31 6t-6 30.5t6.5 31t30.5 6.5h99q190 0 295.5 91t148.5 207.5t43 276.5v57q-45 -104 -138 -156.5t-190 -52.5q-176 0 -282.5 119t-106.5 338v39q0 219 109.5 338t286 119t286 -119t109.5 -338zM534.5 1368 q-147.5 0 -234.5 -101.5t-87 -293.5v-15q0 -193 86 -292t235.5 -99t235.5 99.5t86 291.5v15q0 193 -87 294t-234.5 101z" glyph-name="nine" horiz-adv-x="1069" unicode="9"/><glyph d="M121 59.5q0 28.5 19.5 49t48 20.5t49 -20.5t20.5 -49t-20.5 -48t-49 -19.5t-48 19.5t-19.5 48zM121 661.5q0 28.5 19.5 49t48 20.5t49 -20.5t20.5 -49t-20.5 -48t-49 -19.5t-48 19.5t-19.5 48z" glyph-name="colon" horiz-adv-x="376" unicode=":"/><glyph d="M121 51q0 37 19.5 57.5t47.5 20.5q57 0 78 -57q29 -90 -84 -250q-20 -29 -36.5 -16.5t0 39t29.5 53t13 56.5t-22 40q-45 20 -45 57zM121 661.5q0 28.5 19.5 49t48 20.5t49 -20.5t20.5 -49t-20.5 -48t-49 -19.5t-48 19.5t-19.5 48z" glyph-name="semicolon" horiz-adv-x="389" unicode=";"/><glyph d="M119 757.5q0 16.5 12 26.5l447 361q12 10 22 6t10 -18v-48q0 -25 -22 -41l-344 -274q-16 -12 0 -25l344 -274q23 -16 22 -41v-47q0 -14 -10 -18.5t-22 6.5l-447 360q-12 10 -12 26.5z" glyph-name="less" horiz-adv-x="712" unicode="&lt;"/><glyph d="M803 817h-664q-25 0 -31 6t-6 31t6.5 31t30.5 6h664q25 0 31 -6t6 -31t-6 -31t-31 -6zM803 621h-664q-25 0 -31 6t-6 30.5t6.5 30.5t30.5 6h664q25 0 31 -6t6 -30.5t-6 -30.5t-31 -6z" glyph-name="equal" horiz-adv-x="942" unicode="="/><glyph d="M594 757.5q0 -16.5 -12 -26.5l-447 -360q-12 -10 -22.5 -6t-10.5 18v47q0 25 23 41l344 274q16 12 0 25l-344 274q-23 16 -23 41v48q0 14 10.5 18t22.5 -6l447 -361q12 -10 12 -26.5z" glyph-name="greater" horiz-adv-x="712" unicode=">"/><glyph d="M332 59.5q0 28.5 19.5 49t48 20.5t49 -20.5t20.5 -49t-20.5 -48t-49 -19.5t-48 19.5t-19.5 48zM360 418q0 121 32 212t78 143t123 129t77 199t-75 194.5t-195 72.5t-226 -108q-18 -18 -28 -19t-30 19t3 47q123 135 275 135t251.5 -93.5t99.5 -245.5t-76.5 -227 t-153.5 -161.5t-77 -298.5v-21q0 -27 -6 -33t-32.5 -6t-33 6.5t-6.5 32.5v23z" glyph-name="question" horiz-adv-x="864" unicode="?"/><glyph d="M1348 987q0 25 6 31t30.5 6t30.5 -6t6 -31v-952q0 -137 99 -150q104 -12 223 107q191 189 199 508v8q0 352 -250 602t-602.5 250t-601 -249t-248.5 -602t246.5 -601t600.5 -250h5q37 0 36 -35v-6q0 -35 -36 -35h-2q-250 0 -464 124t-338 338t-124 464t124 464t338 338 t463.5 124t463.5 -124t338 -338t124 -464v-23q-4 -315 -198 -520q-135 -143 -275 -148q-184 -7 -194 203v115q-117 -133 -274 -144t-263 112.5t-106 345.5v126q0 221 106.5 345t262.5 113t274 -144v98zM778 588v-152q0 -178 85 -277t232 -93t253 145v602q-106 139 -253 145 t-232 -93t-85 -277z" glyph-name="at" horiz-adv-x="2193" unicode="@"/><glyph d="M346 422q-20 0 -27.5 -5t-13.5 -24l-123 -352q-10 -29 -19 -35t-34 -6q-41 0 -27 41l469 1352q10 29 20.5 35t30.5 6t33 -4t23 -37l469 -1352q16 -41 -27 -41q-30 0 -38.5 10t-14.5 31l-123 352q-6 18 -13 23.5t-28 5.5h-557zM624.5 1317q-10.5 0 -12.5 -10l-266 -789 q-8 -23 14 -22h529q23 0 14 22l-266 789q-2 10 -12.5 10z" glyph-name="A" horiz-adv-x="1249" unicode="A"/><glyph d="M258 0q-25 0 -31 6t-6 31v1360q0 25 6 31t31 6h369q193 0 301 -95.5t108 -261.5q0 -231 -196 -317q242 -80 241 -363q0 -397 -471 -397h-352zM336 719q-25 0 -31 -6t-6 -31v-571q0 -25 6 -31t31 -6h268q213 0 307.5 83t94.5 240q0 313 -381 322h-289zM299 829 q0 -25 6 -30.5t31 -5.5h299q168 0 247 82.5t79 201.5t-78 201t-248 82h-299q-25 0 -31 -6t-6 -31v-494z" glyph-name="B" horiz-adv-x="1220" unicode="B"/><glyph d="M217 791v-148q0 -276 131 -426.5t341 -150.5t351 141q18 18 28.5 18t27 -16t16.5 -25.5t-16 -25.5q-166 -166 -404 -166t-395.5 166t-157.5 471v176q0 305 158 471t395 166t404 -166q16 -16 16 -25.5t-16.5 -26t-26.5 -16.5t-29 19q-141 141 -351 141t-341 -150.5 t-131 -426.5z" glyph-name="C" horiz-adv-x="1226" unicode="C"/><glyph d="M649 0h-391q-25 0 -31 6t-6 31v1360q0 25 6 31t31 6h391q250 0 406.5 -163t156.5 -466v-176q0 -303 -156.5 -466t-406.5 -163zM299 111q0 -25 6 -31t31 -6h313q225 0 355.5 146.5t130.5 422.5v148q0 276 -130.5 422.5t-355.5 146.5h-313q-25 0 -31 -6t-6 -31v-1212z" glyph-name="D" horiz-adv-x="1351" unicode="D"/><glyph d="M221 1397q0 25 6 31t31 6h684q25 0 31 -6.5t6 -31t-6 -30.5t-31 -6h-606q-25 0 -31 -6t-6 -31v-494q0 -25 6 -30.5t31 -5.5h504q25 0 31 -6.5t6 -31t-6.5 -30.5t-30.5 -6h-504q-25 0 -31 -6t-6 -31v-571q0 -25 6 -31t31 -6h606q25 0 31 -6.5t6 -31t-6 -30.5t-31 -6h-684 q-25 0 -31 6t-6 31v1360z" glyph-name="E" horiz-adv-x="1114" unicode="E"/><glyph d="M221 1397q0 25 6 31t31 6h684q25 0 31 -6.5t6 -31t-6 -30.5t-31 -6h-606q-25 0 -31 -6t-6 -31v-494q0 -25 6 -30.5t31 -5.5h504q25 0 31 -6.5t6 -31t-6.5 -30.5t-30.5 -6h-504q-25 0 -31 -6t-6 -31v-643q0 -27 -6 -33t-33 -6t-33 6t-6 33v1358z" glyph-name="F" horiz-adv-x="1073" unicode="F"/><glyph d="M1180 356q0 -123 -134.5 -243.5t-343.5 -120.5q-248 0 -405.5 166t-157.5 471v176q0 305 158 471t395 166t404 -166q16 -16 16 -25.5t-16.5 -26t-26.5 -16.5t-29 19q-141 141 -351 141t-341 -150.5t-131 -426.5v-148q0 -276 131 -426.5t354 -150.5q100 0 181.5 32.5 t150 104t68.5 149.5v330q0 25 -6 31t-31 6h-279q-25 0 -30.5 6t-5.5 30.5t6 31t30 6.5h357q25 0 31 -6.5t6 -30.5v-400z" glyph-name="G" horiz-adv-x="1318" unicode="G"/><glyph d="M1032 682q0 25 -6 31t-31 6h-659q-25 0 -31 -6t-6 -31v-643q0 -27 -6 -33t-33 -6t-33 6t-6 33v1356q0 27 6 33t33 6t33 -6.5t6 -32.5v-566q0 -25 6 -30.5t31 -5.5h659q25 0 31 6t6 30v566q0 27 6 33t33 6t33 -6.5t6 -32.5v-1356q0 -27 -6 -33t-33 -6t-33 6t-6 33v643z " glyph-name="H" horiz-adv-x="1331" unicode="H"/><glyph d="M299 39q0 -27 -6 -33t-33 -6t-33 6t-6 33v1356q0 27 6 33t33 6t33 -6.5t6 -32.5v-1356z" glyph-name="I" horiz-adv-x="520" unicode="I"/><glyph d="M709 1395v-1067q0 -150 -99.5 -243t-260.5 -93t-267 117q-23 25 -6 43l12 12q25 25 45 0q90 -98 215 -98t204 72.5t79 197.5v1059q0 27 6 33t32.5 6t33 -6t6.5 -33z" glyph-name="J" horiz-adv-x="888" unicode="J"/><glyph d="M299 676q0 -12 8 -14.5t15 6.5l659 751q12 14 41 15h31q16 0 19 -12.5t-7 -22.5l-543 -615q-12 -14 -12 -21t12 -24l543 -704q10 -10 7 -22.5t-19 -12.5h-33q-29 0 -41 14l-516 670q-12 18 -29 0l-112 -129q-23 -27 -23 -61v-455q0 -27 -6 -33t-33 -6t-33 6t-6 33v1356 q0 27 6 33t33 6t33 -6.5t6 -32.5v-719z" glyph-name="K" horiz-adv-x="1140" unicode="K"/><glyph d="M258 0q-25 0 -31 6t-6 31v1358q0 27 6 33t33 6t33 -6.5t6 -32.5v-1284q0 -25 6 -31t31 -6h508q25 0 31 -6.5t6 -31t-6.5 -30.5t-30.5 -6h-586z" glyph-name="L" horiz-adv-x="954" unicode="L"/><glyph d="M831.5 0q-32.5 0 -43.5 29l-409 1159q-4 12 -13.5 11t-9.5 -13l-96 -1145q-2 -23 -10 -32t-30.5 -9t-31 9t-6.5 32l113 1352q2 27 10.5 34t28.5 7t26.5 -4.5t12.5 -20.5l448 -1266q2 -8 10.5 -8t10.5 8l448 1266q6 16 13 20.5t27 4.5t28 -7.5t10 -33.5l113 -1352 q2 -23 -6.5 -32t-31 -9t-30.5 9t-10 32l-96 1145q0 12 -9.5 13t-13.5 -11l-410 -1159q-10 -29 -42.5 -29z" glyph-name="M" horiz-adv-x="1662" unicode="M"/><glyph d="M256 1434q22 0 29.5 -3.5t19.5 -21.5l801 -1225q6 -10 14 -8t8 12v1207q0 27 6.5 33t33 6t32.5 -6.5t6 -32.5v-1356q0 -27 -6 -33t-30 -6t-29.5 3t-18.5 22l-800 1224q-6 10 -14.5 8t-8.5 -12v-1206q0 -27 -6 -33t-33 -6t-33 6t-6 33v1356q0 27 6.5 33t28.5 6z" glyph-name="N" horiz-adv-x="1427" unicode="N"/><glyph d="M702.5 -8q-247.5 0 -405.5 166t-158 471v176q0 305 158 471t405.5 166t405.5 -166t158 -471v-176q0 -305 -158 -471t-405.5 -166zM702.5 1368q-223.5 0 -354.5 -150.5t-131 -426.5v-148q0 -276 131 -426.5t354.5 -150.5t354.5 150.5t131 426.5v148q0 276 -131 426.5 t-354.5 150.5z" glyph-name="O" horiz-adv-x="1404" unicode="O"/><glyph d="M299 487v-448q0 -27 -6 -33t-33 -6t-33 6t-6 33v1358q0 25 6 31t31 6h317q233 0 352.5 -127t119.5 -328t-119 -328t-353 -127h-239q-25 0 -31 -6t-6 -31zM569 1360h-233q-25 0 -31 -6t-6 -31v-688q0 -25 6 -31t31 -6h233q207 0 304.5 107.5t97.5 273.5t-97.5 273.5 t-304.5 107.5z" glyph-name="P" horiz-adv-x="1163" unicode="P"/><glyph d="M702 -8q-248 0 -405.5 166t-157.5 471v176q0 305 158 471t405.5 166t405.5 -166t158 -471v-176q0 -219 -85 -368.5t-233 -217.5l228 -371q23 -41 -27 -41q-25 0 -33 6.5t-29 38.5l-208 340q-85 -24 -177 -24zM702.5 1368q-223.5 0 -354.5 -150.5t-131 -426.5v-148 q0 -276 131 -426.5t354.5 -150.5t354.5 150.5t131 426.5v148q0 276 -131 426.5t-354.5 150.5z" glyph-name="Q" horiz-adv-x="1404" unicode="Q"/><glyph d="M299 586v-547q0 -27 -6 -33t-33 -6t-33 6t-6 33v1358q0 25 6 31t31 6h371q238 0 354.5 -105.5t116.5 -300.5q0 -352 -357 -399l351 -588q10 -18 4 -29.5t-23 -11.5h-14q-25 0 -32 4t-19 25l-353 594h-321q-25 0 -31 -6t-6 -31zM623 1360h-287q-25 0 -31 -6t-6 -31v-590 q0 -25 6 -31t31 -6h287q401 0 401 332t-401 332z" glyph-name="R" horiz-adv-x="1241" unicode="R"/><glyph d="M547 66q154 0 250 89t96 198t-75 184t-181.5 126.5t-213 105.5t-181 139t-74.5 212t107.5 224.5t306.5 97.5q88 0 172 -24.5t123 -49.5l41 -25q20 -14 8 -36l-11 -19q-12 -20 -36 -4q-137 84 -301 84t-248 -78t-84 -178t74.5 -175t181 -126t213 -105.5t181.5 -138.5 t75 -194q0 -166 -124 -273.5t-302 -107.5q-238 -1 -412 151q-23 20 -6 43l8 11q20 27 47 2q152 -133 365 -133z" glyph-name="S" horiz-adv-x="1087" unicode="S"/><glyph d="M553 1323v-1284q0 -27 -6 -33t-33 -6t-33 6t-6 33v1284q0 25 -6 31t-31 6h-327q-25 0 -31 6t-6 30.5t6 31t31 6.5h807q25 0 30.5 -6.5t5.5 -31t-6 -30.5t-30 -6h-328q-25 0 -31 -6t-6 -31z" glyph-name="T" horiz-adv-x="1028" unicode="T"/><glyph d="M180 539v854q0 23 9.5 32t31.5 9q37 -2 37 -41v-863q0 -242 121 -353t293 -111t292.5 111.5t120.5 352.5v863q0 39 37 41q23 0 32 -9.5t9 -31.5v-854q0 -354 -172.5 -450.5t-319 -96.5t-319 97t-172.5 450z" glyph-name="U" horiz-adv-x="1343" unicode="U"/><glyph d="M628 0q-20 0 -33 3.5t-24 37.5l-469 1352q-14 41 26 41t46 -12.5t12 -28.5l426 -1254q2 -10 12.5 -10t12.5 10l426 1254q10 29 19.5 35t37.5 6q41 0 27 -41l-469 -1352q-10 -29 -20 -35t-30 -6z" glyph-name="V" horiz-adv-x="1249" unicode="V"/><glyph d="M921.5 1434q16.5 0 25.5 -1t19.5 -11.5t14.5 -28.5l328 -1248q5 -21 13.5 -14.5t10.5 14.5l328 1248q8 29 17.5 35t37.5 6q39 0 27 -41l-369 -1352q-8 -29 -19.5 -35t-31.5 -6t-34 2t-21 39l-334 1270q-5 21 -14 14.5t-11 -14.5l-334 -1270q-6 -29 -17.5 -35t-31.5 -6 t-33 2t-24 39l-369 1352q-12 41 27 41q34 0 42.5 -10.5t12.5 -30.5l328 -1248q5 -21 13.5 -14.5t11.5 14.5l327 1248q4 18 14.5 28.5t19.5 11.5t25.5 1z" glyph-name="W" horiz-adv-x="1843" unicode="W"/><glyph d="M127 0h-4q-16 0 -22.5 11.5t3.5 29.5l400 668q12 18 0 36l-379 648q-10 18 -4 29.5t22 11.5h4q25 0 32 -4.5t20 -24.5l344 -596q12 -20 24 0l344 596q12 20 19.5 24.5t32.5 4.5h4q16 0 22 -11.5t-4 -29.5l-379 -648q-12 -18 0 -36l400 -668q10 -18 4 -29.5t-23 -11.5h-4 q-25 0 -32 4t-19 25l-365 614q-12 20 -24 0l-365 -614q-12 -20 -19 -24.5t-32 -4.5z" glyph-name="X" horiz-adv-x="1110" unicode="X"/><glyph d="M594 39q0 -27 -6 -33t-33 -6t-33 6t-6 33v666l-410 688q-10 18 -3.5 29.5t22.5 11.5h8q25 0 32 -4.5t19 -24.5l359 -604q12 -20 24 0l359 604q12 20 19 24.5t32 4.5h8q16 0 22.5 -11.5t-3.5 -29.5l-410 -688v-666z" glyph-name="Y" horiz-adv-x="1110" unicode="Y"/><glyph d="M139 1360q-25 0 -31 6t-6 30.5t6.5 31t30.5 6.5h754q23 0 32 -9.5t9 -32t-10 -40.5l-736 -1258q-12 -20 9 -20h675q25 0 31 -6.5t6 -31t-6 -30.5t-31 -6h-741q-23 0 -32 9t-9 31.5t10 41.5l736 1257q12 20 -9 21h-688z" glyph-name="Z" horiz-adv-x="1024" unicode="Z"/><glyph d="M299 -297q0 -25 6 -31t31 -6h229q25 0 31 -6t6 -30.5t-6 -31t-31 -6.5h-307q-25 0 -31 6.5t-6 30.5v1968q0 25 6 31t31 6h307q25 0 31 -6t6 -30.5t-6 -30.5t-31 -6h-229q-25 0 -31 -6.5t-6 -30.5v-1821z" glyph-name="bracketleft" horiz-adv-x="704" unicode="["/><glyph d="M153 1434q26 0 34 -6.5t10 -32.5l165 -1356q2 -25 -4 -32t-32 -7t-31.5 6t-9.5 33l-166 1356q-2 25 3 32t31 7z" glyph-name="backslash" horiz-adv-x="481" unicode="\"/><glyph d="M406 -297v1821q0 25 -6.5 31t-30.5 6h-230q-25 0 -31 6t-6 30.5t6.5 30.5t30.5 6h307q25 0 31 -6t6 -31v-1968q0 -25 -6 -31t-31 -6h-307q-25 0 -31 6.5t-6 31t6.5 30.5t30.5 6h230q25 0 31 6t6 31z" glyph-name="bracketright" horiz-adv-x="704" unicode="]"/><glyph d="M145 760q-16 0 -22 11t4 30l358 606q16 27 44 27t44 -27l359 -606q10 -18 4 -29.5t-23 -11.5h-22q-29 0 -43 26l-299 512q-8 14 -19.5 14t-19.5 -14l-299 -512q-14 -27 -43 -26h-23z" glyph-name="asciicircum" horiz-adv-x="1058" unicode="^"/><glyph d="M985 -74h-846q-25 0 -31 6.5t-6 31t6.5 30.5t30.5 6h846q25 0 31 -6t6 -30.5t-6 -31t-31 -6.5z" glyph-name="underscore" horiz-adv-x="1124" unicode="_"/><glyph d="M266 1569l-225 211q-29 25 -2 51.5t51 -2.5l211 -225q27 -29 10.5 -45.5t-45.5 10.5z" glyph-name="grave" horiz-adv-x="348" unicode="`"/><glyph d="M840 37q0 -25 -6.5 -31t-31 -6t-30.5 6t-6 31v80q-106 -113 -267 -124t-271.5 82t-110.5 250.5t110.5 252t268.5 83.5t270 -124v151q0 125 -80 197.5t-204 72.5t-216 -98q-20 -25 -45 0l-12 12q-16 18 6 43q106 117 267 117t259.5 -93t98.5 -243v-659zM193 325.5 q0 -135.5 93 -205t230 -61.5t250 125v283q-113 117 -250 125t-230 -61.5t-93 -205z" glyph-name="a" horiz-adv-x="999" unicode="a"/><glyph d="M254 37q0 -25 -6 -31t-30.5 -6t-31 6t-6.5 31v1360q0 25 6.5 31t31 6t30.5 -6.5t6 -30.5v-508q118 133 274 144t262.5 -112.5t106.5 -345.5v-126q0 -221 -106.5 -345t-262.5 -113t-274 144v-98zM823 436v152q0 178 -85.5 277t-231.5 93t-252 -145v-602q106 -139 252 -145 t231.5 93t85.5 277z" glyph-name="b" unicode="b"/><glyph d="M213 563v-102q0 -186 86 -290.5t228 -104.5t247 114q27 29 53.5 2.5t-0.5 -57.5q-121 -133 -296 -133t-283.5 118.5t-108.5 338.5v126q0 219 108.5 338t283.5 119t296 -133q27 -31 0.5 -57.5t-53.5 2.5q-104 114 -246 114t-228.5 -104.5t-86.5 -290.5z" glyph-name="c" horiz-adv-x="954" unicode="c"/><glyph d="M782 37v98q-118 -133 -274 -144t-262.5 112.5t-106.5 345.5v126q0 221 106.5 345t262.5 113t274 -144v508q0 25 6.5 31t31 6t30.5 -6.5t6 -30.5v-1360q0 -25 -6 -31t-30.5 -6t-31 6t-6.5 31zM213 588v-152q0 -178 85.5 -277t231.5 -93t252 145v602q-106 139 -252 145 t-231.5 -93t-85.5 -277z" glyph-name="d" unicode="d"/><glyph d="M254 479q-39 0 -41 -18q0 -186 86 -290.5t228 -104.5t247 114q27 29 53.5 2.5t-0.5 -57.5q-121 -133 -296 -133t-283.5 118.5t-108.5 338.5v126q0 219 108.5 338t268.5 119t266.5 -118.5t106.5 -338.5v-55q0 -23 -9.5 -32t-31.5 -9h-594zM514 958q-129 0 -212 -94 t-89 -276v-23q0 -14 8 -17t33 -3h520q31 0 36 5t5 15v23q-6 182 -89 276t-212 94z" glyph-name="e" horiz-adv-x="1028" unicode="e"/><glyph d="M524 899h-172q-25 0 -31 -6t-6 -31v-825q0 -25 -6 -31t-30.5 -6t-30.5 6t-6 31v825q0 25 -6.5 31t-30.5 6h-74q-25 0 -31 6t-6 31t6 31t31 6h74q25 0 31 6t6 31v190q0 102 69 172t173 70t175 -82q27 -30 1 -56t-50 1q-64 63 -128 63t-115.5 -45t-51.5 -139v-174 q0 -25 6.5 -31t30.5 -6h172q25 0 31 -6t6 -31t-6 -31t-31 -6z" glyph-name="f" horiz-adv-x="667" unicode="f"/><glyph d="M536.5 -498q-174.5 0 -293 78t-118.5 205t106 186q-106 66 -106 197q0 63 31.5 118.5t87.5 86.5q-102 113 -102 271t116.5 273t276.5 115q98 0 183 -46t140 -124v125q0 25 5 31t30 6t30 -6t5 -31v-348q0 -164 -116 -278.5t-277 -114.5q-127 0 -232 76 q-55 -18 -82.5 -62.5t-27.5 -98.5t43 -104.5t133 -52.5h336q117 0 180 -66.5t63 -148.5q0 -131 -118.5 -209t-293 -78zM215 638q0 -134 92.5 -226.5t226.5 -92.5t227 92.5t93 226.5t-93 227t-227 93t-226.5 -93t-92.5 -227zM536.5 -430q135.5 0 236.5 57.5t101 161.5 q0 51 -38.5 97t-122.5 46h-357q-84 -2 -120.5 -47t-36.5 -96q0 -104 101 -161.5t236.5 -57.5z" glyph-name="g" horiz-adv-x="1060" unicode="g"/><glyph d="M254 37q0 -25 -6 -31t-30.5 -6t-31 6t-6.5 31v1360q0 25 6.5 31t31 6t30.5 -6.5t6 -30.5v-484q121 109 261 119t248.5 -80t108.5 -247v-668q0 -25 -6 -31t-30.5 -6t-30.5 6t-6 31v668q0 119 -84 189t-214 64t-247 -118v-803z" glyph-name="h" horiz-adv-x="1032" unicode="h"/><glyph d="M254 37q0 -25 -6 -31t-30.5 -6t-31 6t-6.5 31v950q0 25 6.5 31t31 6t30.5 -6t6 -31v-950zM150 1235q0 29 19 49.5t48 20.5t49.5 -20.5t20.5 -49.5t-20.5 -48.5t-49.5 -19.5t-48 19.5t-19 48.5z" glyph-name="i" horiz-adv-x="434" unicode="i"/><glyph d="M180 987q0 25 6.5 31t31 6t30.5 -6t6 -31v-1253q0 -102 -69.5 -172t-173.5 -70t-175 82q-27 30 -1 56t50 -1q63 -63 127 -63t116 45t52 139v1237zM150 1235q0 29 19 49.5t48 20.5t49.5 -20.5t20.5 -49.5t-20.5 -48.5t-49.5 -19.5t-48 19.5t-19 48.5z" glyph-name="j" horiz-adv-x="434" unicode="j"/><glyph d="M254 455q0 -14 8 -12.5t10 6.5l435 546q23 29 57 29h10q18 0 22.5 -12.5t-8.5 -28.5l-299 -377q-8 -10 0 -24l326 -541q10 -16 5 -28.5t-25 -12.5h-7q-35 0 -51 29l-299 495q-8 14 -20 0l-148 -184q-16 -23 -16 -70v-233q0 -25 -6 -31t-30.5 -6t-31 6t-6.5 31v1360 q0 25 6.5 31t31 6t30.5 -6.5t6 -30.5v-942z" glyph-name="k" horiz-adv-x="901" unicode="k"/><glyph d="M233 1397v-1057q0 -141 56.5 -203.5t173.5 -62.5q25 0 31 -6.5t6 -31t-6.5 -30.5t-30.5 -6q-162 0 -232.5 88t-70.5 258v1051q0 25 6 31t30.5 6t30.5 -6t6 -31z" glyph-name="l" horiz-adv-x="573" unicode="l"/><glyph d="M254 37q0 -25 -6 -31t-30.5 -6t-31 6t-6.5 31v950q0 25 6.5 31t31 6t30.5 -6t6 -31v-74q121 109 254 119q186 12 291 -119q121 109 261 119t248.5 -80t108.5 -247v-668q0 -25 -6 -31t-30.5 -6t-31 6t-6.5 31v668q0 119 -83.5 189t-206.5 64t-230 -96q12 -41 13 -94v-731 q0 -25 -6.5 -31t-31 -6t-30.5 6t-6 31v725q0 92 -55 137q-78 63 -207 58t-246 -117v-803z" glyph-name="m" horiz-adv-x="1576" unicode="m"/><glyph d="M254 37q0 -25 -6 -31t-30.5 -6t-31 6t-6.5 31v950q0 25 6.5 31t31 6t30.5 -6t6 -31v-74q121 109 261 119t248.5 -80t108.5 -247v-668q0 -25 -6 -31t-30.5 -6t-30.5 6t-6 31v668q0 119 -84 189t-214 64t-247 -118v-803z" glyph-name="n" horiz-adv-x="1032" unicode="n"/><glyph d="M930 575v-126q0 -219 -109.5 -338t-286 -119t-286 118.5t-109.5 338.5v126q0 219 109.5 338t286 119t286 -119t109.5 -338zM534.5 66q147.5 0 234.5 101t87 294v102q0 193 -87 294t-234.5 101t-234.5 -101t-87 -294v-102q0 -193 87 -294t234.5 -101z" glyph-name="o" horiz-adv-x="1069" unicode="o"/><glyph d="M254 987v-98q118 133 274 144t262.5 -112.5t106.5 -345.5v-126q0 -221 -106.5 -345t-262.5 -113t-274 144v-600q0 -25 -6 -31t-30.5 -6t-31 6.5t-6.5 30.5v1452q0 25 6.5 31t31 6t30.5 -6t6 -31zM823 436v152q0 178 -85.5 277t-231.5 93t-252 -145v-602 q106 -139 252 -145t231.5 93t85.5 277z" glyph-name="p" unicode="p"/><glyph d="M782 -465v600q-118 -133 -274 -144t-262.5 112.5t-106.5 345.5v126q0 221 106.5 345t262.5 113t274 -144v98q0 25 6.5 31t31 6t30.5 -6t6 -31v-1452q0 -25 -6 -31t-30.5 -6t-31 6t-6.5 31zM213 588v-152q0 -178 85.5 -277t231.5 -93t252 145v602q-106 139 -252 145 t-231.5 -93t-85.5 -277z" glyph-name="q" unicode="q"/><glyph d="M254 37q0 -25 -6 -31t-30.5 -6t-31 6t-6.5 31v950q0 25 6.5 31t31 6t30.5 -6t6 -31v-67q141 112 262 112t203 -61q23 -16 27 -28.5t-11 -31.5q-27 -35 -55 -12q-74 59 -186 59t-240 -108v-813z" glyph-name="r" horiz-adv-x="815" unicode="r"/><glyph d="M215 784q0 -68 55.5 -115.5t135 -79.5t160.5 -67t141.5 -93t66.5 -138q10 -135 -82 -217t-255 -82t-320 84q-33 16 -16 51t59 14q156 -75 276 -75t191 52t71 133t-55 133t-135 84t-161 65.5t-140.5 90t-65.5 136.5q-8 119 77 195.5t218 76.5t264 -69q27 -15 14 -43 t-23.5 -29.5t-33.5 10.5q-107 57 -215 57t-167.5 -53t-59.5 -121z" glyph-name="s" horiz-adv-x="894" unicode="s"/><glyph d="M242 852q0 25 -6.5 31t-30.5 6h-74q-25 0 -31 6t-6 30.5t6 31t31 6.5h74q25 0 31 6t6 30v207q0 25 6 31t30.5 6t30.5 -6t6 -31v-207q0 -25 6.5 -30.5t30.5 -5.5h172q25 0 31 -6.5t6 -31t-6 -30.5t-31 -6h-172q-25 0 -31 -6t-6 -31v-602q0 -94 51.5 -139t115.5 -45t128 63 q25 27 51 1t-2 -56q-72 -82 -175 -82t-172.5 69.5t-69.5 171.5v619z" glyph-name="t" horiz-adv-x="770" unicode="t"/><glyph d="M233 319q0 -127 74 -193t197 -62t258 120v803q0 25 6 31t30.5 6t31 -6t6.5 -31v-950q0 -25 -6.5 -31t-31 -6t-30.5 6t-6 31v82q-139 -117 -270 -127t-231.5 77t-100.5 250v668q0 25 6 31t30.5 6t30.5 -6t6 -31v-668z" glyph-name="u" horiz-adv-x="1015" unicode="u"/><glyph d="M483 0h-16q-20 0 -28.5 7t-16.5 30l-340 952q-8 23 2 29t35 6t35 -31l313 -895q2 -8 8 -8l8 8l314 895q10 31 35 31t36 -9t0 -26l-340 -952q-8 -23 -16 -30t-29 -7z" glyph-name="v" horiz-adv-x="950" unicode="v"/><glyph d="M721 895q-6 0 -8 -8l-260 -850q-8 -23 -16.5 -30t-28.5 -7h-13q-20 0 -29.5 7t-15.5 30l-270 952q-10 35 31 35q22 0 29 -8t12 -23l243 -876q2 -8 8.5 -8t8.5 8l266 870q12 37 41 37h4q29 0 41 -37l266 -870q2 -8 8 -8t9 8l243 876q8 27 17.5 29t23.5 2q41 0 31 -35 l-270 -952q-6 -23 -15.5 -30t-29.5 -7h-13q-20 0 -28.5 7t-16.5 30l-260 850q-2 8 -8 8z" glyph-name="w" horiz-adv-x="1441" unicode="w"/><glyph d="M108 0q-22 0 -28 12.5t6 28.5l346 475q8 12 0 23l-323 444q-12 16 -5.5 28.5t28.5 12.5t30 -5t31 -36l278 -387q10 -14 21 0l278 387q23 31 31.5 36t30.5 5t28 -12.5t-6 -28.5l-324 -444q-8 -10 0 -23l347 -475q12 -16 6 -28.5t-29 -12.5t-31 5t-30 36l-301 418 q-10 14 -21 0l-301 -418q-23 -31 -31.5 -36t-30.5 -5z" glyph-name="x" horiz-adv-x="962" unicode="x"/><glyph d="M113 1024q33 0 43 -31l313 -893q8 -20 16 0l314 893q10 31 43 31q40 0 28 -35l-467 -1321q-39 -111 -117.5 -152.5t-176.5 -11.5q-23 8 -27 17t4 35t39 18q82 -25 135 12t78 103l94 262q10 33 0 63l-348 975q-12 35 29 35z" glyph-name="y" horiz-adv-x="952" unicode="y"/><glyph d="M713 950h-553q-25 0 -31 6.5t-6 31t6 30.5t31 6h620q25 0 31 -6t6 -36t-8 -42l-610 -848q-4 -6 -2 -12t10 -6h553q25 0 31 -6.5t6 -31t-6.5 -30.5t-30.5 -6h-621q-25 0 -31 6t-6 36t9 42l610 848q4 6 2 12t-10 6z" glyph-name="z" horiz-adv-x="919" unicode="z"/><glyph d="M346 535v-623q0 -76 9.5 -121t50 -84t118.5 -41q23 -2 28 -9t5 -29t-7 -29t-26 -7q-131 0 -193.5 78t-62.5 240v618q0 86 -24.5 137.5t-100.5 53.5h-4q-25 0 -31 6t-6 30.5t6.5 31t30.5 6.5h4q76 2 100.5 53t24.5 137v416q0 162 62.5 239.5t193.5 77.5q18 0 25.5 -7 t7.5 -29t-5 -28.5t-28 -9.5q-111 -4 -144.5 -67.5t-33.5 -177.5v-420q0 -133 -74 -221q74 -88 74 -221z" glyph-name="braceleft" horiz-adv-x="659" unicode="{"/><glyph d="M299 -559q0 -27 -6 -33t-33 -6t-33 6t-6 33v2054q0 27 6 33t33 6t33 -6t6 -33v-2054z" glyph-name="bar" horiz-adv-x="520" unicode="|"/><glyph d="M313 977v420q0 76 -9 121t-50 83.5t-119 40.5q-23 2 -28 9t-5 29t7.5 29t25.5 7q131 0 193.5 -77.5t62.5 -239.5v-416q0 -86 24.5 -137t100.5 -53h4q25 0 31 -6.5t6 -31t-6 -30.5t-31 -6h-4q-76 -2 -100.5 -53.5t-24.5 -137.5v-618q0 -162 -62.5 -240t-193.5 -78 q-18 0 -25.5 7.5t-7.5 28.5t5.5 28.5t27.5 9.5q111 4 144.5 67.5t33.5 178.5v623q0 133 74 221q-74 88 -74 221z" glyph-name="braceright" horiz-adv-x="659" unicode="}"/><glyph d="M362 852q70 0 188 -60.5t179 -60.5q96 0 164 107q12 18 33 6l28 -17q18 -12 9 -30q-80 -145 -238 -146q-70 0 -187.5 60.5t-179.5 60.5q-96 2 -163 -106q-12 -18 -33 -7l-29 17q-18 12 -8 31q79 145 237 145z" glyph-name="asciitilde" horiz-adv-x="1087" unicode="~"/><glyph d="M164 964.5q0 28.5 19.5 48t48 19.5t49 -19.5t20.5 -48t-20.5 -49t-49 -20.5t-48 20.5t-19.5 49zM231.5 702q32.5 0 32.5 -40l10 -1031q0 -23 -9 -32t-32 -9h-4q-23 0 -32 9.5t-9 31.5l11 1031q0 40 32.5 40z" glyph-name="exclamdown" horiz-adv-x="462" unicode="¡"/><glyph d="M213 461q0 -186 86 -290.5t228 -104.5t247 114q27 29 53.5 2.5t-0.5 -57.5q-106 -119 -258 -131v-100q0 -25 -6 -31t-30.5 -6t-30.5 6t-6 31v100q-162 10 -259.5 129t-97.5 326v126q0 207 97.5 325t259.5 130v100q0 25 6 31t30.5 6t30.5 -6t6 -31v-100q152 -16 258 -131 q27 -31 0.5 -57.5t-53.5 2.5q-104 114 -246 114t-228.5 -104t-86.5 -291v-102z" glyph-name="cent" horiz-adv-x="954" unicode="¢"/><glyph d="M336 754h289q25 0 31 -6.5t6 -31t-6.5 -30.5t-30.5 -6h-289q-25 0 -31 -6t-6 -31v-532q0 -25 6 -31t31 -6h508q25 0 31 -6.5t6 -31t-6.5 -30.5t-30.5 -6h-586q-25 0 -31 6t-6 31v618q-2 25 -37 25h-73q-25 0 -31 6t-6 30.5t6 31t31 6.5h73q25 0 31 6t6 31v124 q0 248 74 370t219 147q29 4 37 -2t12 -34t-26 -34q-119 -25 -178.5 -123t-59.5 -321v-127q0 -25 6 -31t31 -6z" glyph-name="sterling" horiz-adv-x="933" unicode="£"/><glyph d="M516 297q0 25 -6 31t-31 6h-96q-25 0 -31 6t-6 30.5t6 31t31 6.5h96q25 0 31 6t6 30v60q0 20 -7 26.5t-30 6.5h-96q-25 0 -31 6t-6 30.5t6 30.5t31 6h96q25 0 31 6.5t6 30.5v58l-410 688q-10 18 -3.5 29.5t22.5 11.5h8q25 0 32 -4.5t19 -24.5l359 -604q12 -20 24 0 l359 604q12 20 19 24.5t32 4.5h8q16 0 22.5 -11.5t-3.5 -29.5l-410 -688v-58q0 -25 6 -31t31 -6h96q25 0 31 -6t6 -30.5t-6 -30.5t-31 -6h-96q-23 0 -30 -6.5t-7 -26.5v-60q0 -25 6 -30.5t31 -5.5h96q25 0 31 -6.5t6 -31t-6 -30.5t-31 -6h-96q-25 0 -31 -6t-6 -31v-258 q0 -27 -6 -33t-33 -6t-33 6t-6 33v258z" glyph-name="yen" horiz-adv-x="1110" unicode="¥"/><glyph d="M448 1442q134 0 265 -70q27 -14 13 -42t-24 -30t-32 11q-106 57 -214 57t-168.5 -53t-60.5 -121t55.5 -116t135.5 -79.5t160.5 -66.5t141 -93.5t66.5 -138.5q12 -156 -106 -237q98 -74 106 -172q10 -135 -82 -217t-254 -82t-321 84q-33 16 -14 51q16 35 57 14 q156 -75 277 -75t191.5 52t70.5 133t-55.5 133t-135.5 84t-160.5 65.5t-140 90t-65.5 136.5q-12 150 120 227q-112 73 -120 187t76 191t218 77zM227 780.5q0 -53.5 40 -95.5t86 -64.5t129 -58.5t124 -56q104 50 104 152t-73.5 151.5t-161.5 85t-117 49.5q-63 -20 -97 -65 t-34 -98.5z" glyph-name="section" horiz-adv-x="907" unicode="§"/><glyph d="M340 1613q0 28 18.5 46t45 18t46 -19.5t19.5 -46t-18.5 -45t-46.5 -18.5t-46 18.5t-18 46.5zM72 1613q0 28 18 46t46 18t46.5 -19.5t18.5 -46t-18.5 -45t-47.5 -18.5t-46 18.5t-17 46.5z" glyph-name="dieresis" horiz-adv-x="538" unicode="¨"/><glyph d="M164 717q0 297 211 508t508 211t506.5 -211t209.5 -508t-209.5 -507t-506.5 -210t-508 210t-211 507zM229 714.5q0 -270.5 191.5 -462t462 -191.5t462 191.5t191.5 462t-191.5 462t-462 191.5t-462 -191.5t-191.5 -462zM494 782q0 219 108.5 338t283.5 119t296 -133 q27 -31 0 -57.5t-54 2.5q-104 115 -246 115t-228.5 -105t-86.5 -291v-102q0 -186 86.5 -291t228.5 -105t246 115q27 29 53.5 2t0.5 -57q-121 -133 -296 -133t-283.5 118.5t-108.5 337.5v127z" glyph-name="copyright" horiz-adv-x="1763" unicode="©"/><glyph d="M471 1229q0 72 -41.5 112.5t-109.5 40.5t-115 -49q-12 -17 -32 3q-19 19 -7 34q60 66 152 66t151 -53.5t59 -137.5v-373q0 -20 -28.5 -20t-28.5 20v37q-61 -55 -149 -61t-149.5 44t-61.5 144t61 144.5t149 45.5t150 -63v66zM166 1036q0 -78 47 -112.5t122 -27.5t136 62 v156q-67 54 -139 62t-119 -27t-47 -113z" glyph-name="ordfeminine" horiz-adv-x="632" unicode="ª"/><glyph d="M510 844v-25q0 -27 -21 -47l-256 -248q-12 -12 0 -24l256 -248q20 -20 21 -47v-25q0 -14 -10.5 -18t-20.5 6l-329 321q-23 23 0 46l329 321q10 10 20.5 6t10.5 -18zM870 844v-25q0 -27 -20 -47l-256 -248q-12 -12 0 -24l256 -248q20 -20 20 -47v-25q0 -14 -10 -18t-20 6 l-330 321q-23 23 0 46l330 321q10 10 20 6t10 -18z" glyph-name="guillemotleft" horiz-adv-x="972" unicode="«"/><glyph d="M1067 526h-928q-25 0 -31 6.5t-6 31t6.5 30.5t30.5 6h928q25 0 31 -6t6 -30.5t-6 -31t-31 -6.5z" glyph-name="uni00AD" horiz-adv-x="1206" unicode="­"/><glyph d="M164 717q0 297 211 508t508 211t506.5 -211t209.5 -508t-209.5 -507t-506.5 -210t-508 210t-211 507zM229 714.5q0 -270.5 191.5 -462t462 -191.5t462 191.5t191.5 462t-191.5 462t-462 191.5t-462 -191.5t-191.5 -462zM872 1217q160 0 242 -71t82 -191q0 -239 -240 -271 l234 -395q14 -27 -10 -27h-25q-20 0 -33 21l-235 395h-176q-20 0 -23.5 -3t-3.5 -26v-360q0 -27 -27 -27h-12q-27 0 -27 27v901q0 27 27 27h227zM684 1120v-352q0 -18 3 -21.5t24 -3.5h174q250 0 250 204t-250 204h-174q-20 0 -23.5 -4t-3.5 -27z" glyph-name="registered" horiz-adv-x="1763" unicode="®"/><glyph d="M33 1593.5q0 20.5 8 26.5t33 6h383q25 0 33 -6t8 -26.5t-8.5 -26.5t-32.5 -6h-383q-25 0 -33 6t-8 26.5z" glyph-name="macron" horiz-adv-x="530" unicode="¯"/><glyph d="M313 1020q-86 0 -148.5 62.5t-62.5 148.5t62.5 148.5t148.5 62.5t148.5 -62.5t62.5 -148.5t-62.5 -148.5t-148.5 -62.5zM162 1228.5q0 -61.5 44 -105.5t105.5 -44t105.5 44t44 105.5t-44 105.5t-105.5 44t-105.5 -44t-44 -105.5z" glyph-name="degree" horiz-adv-x="626" unicode="°"/><glyph d="M399 1308q0 -58 -36.5 -103.5t-80.5 -78t-81 -84t-37 -106.5v-10q0 -14 2 -16.5t14 -2.5h201q16 0 16 -16v-23q0 -16 -16 -16h-260q-18 0 -19 16v72q0 66 37 123t118.5 116t83.5 113q3 53 -45 88.5t-128 -30.5q-12 -10 -23 0l-14 14q-8 8 2 22q47 52 113 54t109.5 -36 t43.5 -96z" glyph-name="uni00B2" horiz-adv-x="499" unicode="²"/><glyph d="M250 1133q-16 0 -17 16v22q0 16 17 17q72 0 98.5 49t0 99t-82.5 50t-102 -43q-12 -12 -25 3l-14 14q-10 10 0 24q47 52 128 56t127 -49.5t38 -122t-66 -107.5q66 -39 75 -116.5t-45 -139t-141 -57.5t-135 57q-10 14 0 25l15 14q14 14 24 2q43 -41 108 -43t98.5 55.5 t6 116t-107.5 58.5z" glyph-name="uni00B3" horiz-adv-x="524" unicode="³"/><glyph d="M80 1571q-29 -27 -45.5 -10.5t10.5 45.5l211 225q25 29 51.5 2t-2.5 -51z" glyph-name="acute" horiz-adv-x="348" unicode="´"/><glyph d="M1243 -557v1880q0 25 -6 31t-31 6h-366q-23 0 -30 -7t-7 -30v-1880q0 -27 -6 -33t-33 -6t-33 6t-6 33v1063q0 51 -8 59t-60 8h-149q-174 0 -300 125.5t-126 303.5t115.5 305t281.5 127h1047q25 0 31 -6.5t6 -31t-6.5 -30.5t-30.5 -6h-168q-25 0 -31 -6t-6 -31v-1880 q0 -27 -6 -33t-33 -6t-33 6t-6 33z" glyph-name="paragraph" horiz-adv-x="1644" unicode="¶"/><glyph d="M121 753.5q0 28.5 19.5 49t48 20.5t49 -20.5t20.5 -49t-20.5 -48t-49 -19.5t-48 19.5t-19.5 48z" glyph-name="periodcentered" horiz-adv-x="376" unicode="·"/><glyph d="M428 -297q0 -111 -102.5 -167t-196.5 1q-13 9 -2 36q12 27 31 17q78 -33 139 6.5t61 103.5t-43 104t-102 34t-98 -63q-9 -15 -27 -11l-6 3q-27 6 -21 28l72 232h68l-47 -158q100 55 187 0t87 -166z" glyph-name="cedilla" horiz-adv-x="468" unicode="¸"/><glyph d="M219 1434q16 0 17 -17v-549q0 -16 -17 -16h-29q-16 0 -16 16v480l-74 -76q-12 -12 -24 0l-17 16q-10 11 0 23l115 114q8 8 21 9h24z" glyph-name="uni00B9" horiz-adv-x="432" unicode="¹"/><glyph d="M565 1178v-70q0 -125 -65.5 -192.5t-166 -67.5t-166 67.5t-65.5 192.5v70q0 125 65.5 192.5t166 67.5t166 -67.5t65.5 -192.5zM334 905q170 0 170 223v29q0 223 -170 223t-170 -223v-29q0 -223 170 -223z" glyph-name="ordmasculine" horiz-adv-x="667" unicode="º"/><glyph d="M463 180v25q0 27 20 47l256 248q12 12 0 24l-256 248q-20 20 -20 47v25q0 14 10 18t21 -6l329 -321q23 -23 0 -46l-329 -321q-10 -10 -20.5 -6t-10.5 18zM102 180v25q0 27 21 47l256 248q12 12 0 24l-256 248q-20 20 -21 47v25q0 14 10.5 18t20.5 -6l330 -321 q23 -23 0 -46l-330 -321q-10 -10 -20.5 -6t-10.5 18z" glyph-name="guillemotright" horiz-adv-x="972" unicode="»"/><glyph d="M780 1434q35 0 25 -41l-299 -1348q-6 -27 -14.5 -36t-24.5 -9q-35 0 -25 41l299 1348q6 27 14.5 36t24.5 9zM1083 274q10 0 11 13v407q0 11 -9 2l-276 -409q-10 -12 4 -13h270zM1157 23q0 -23 -22 -23h-17q-25 0 -24 23v184q0 12 -11 12h-331q-23 0 -23 23v8q0 23 10 37 l346 514q10 16 31 16h19q23 0 22 -22v-508q0 -12 12 -13h27q23 0 23 -22v-10q0 -23 -23 -23h-27q-12 0 -12 -12v-184zM334 1434q23 0 22 -23v-772q0 -23 -22 -23h-17q-25 0 -24 23v696l-119 -116q-16 -12 -31 2l-10 10q-14 15 0 31l162 161q10 10 22 11h17z" glyph-name="onequarter" horiz-adv-x="1341" unicode="¼"/><glyph d="M780 1434q35 0 25 -41l-299 -1348q-6 -27 -14.5 -36t-24.5 -9q-35 0 -25 41l299 1348q6 27 14.5 36t24.5 9zM992 817q91 0 149.5 -53t58.5 -141t-86 -162t-171 -152t-85 -196v-33q0 -18 3 -21.5t22 -3.5h299q25 0 24 -22v-10q0 -23 -24 -23h-363q-23 0 -22 23v100 q0 80 54 158.5t172 172.5t118 173q0 59 -44 97t-107 38t-116 -53q-16 -16 -35 2t-1 37q63 69 154 69zM334 1434q23 0 22 -23v-772q0 -23 -22 -23h-17q-25 0 -24 23v696l-119 -116q-16 -12 -31 2l-10 10q-14 15 0 31l162 161q10 10 22 11h17z" glyph-name="onehalf" horiz-adv-x="1329" unicode="½"/><glyph d="M961 1434q35 0 24 -41l-299 -1348q-6 -27 -14 -36t-25 -9q-34 0 -24 41l299 1348q6 27 14 36t25 9zM1264 274q10 0 10 13v407q0 10 -8 2l-277 -409q-10 -12 4 -13h271zM1337 23q0 -23 -22 -23h-17q-25 0 -24 23v184q0 12 -10 12h-332q-23 0 -23 23v8q0 23 11 37l346 514 q10 16 30 16h19q23 0 22 -22v-508q0 -12 13 -13h26q23 0 23 -22v-10q0 -23 -23 -23h-26q-12 0 -13 -12v-184zM512 849q0 79 -36 128t-99 49q-23 0 -23 23v14q0 23 23 22q57 0 88 42t31 109t-49 107.5t-125 40.5t-129 -55q-14 -17 -35 4q-20 20 -4 37q66 72 167 72 t168.5 -57.5t67.5 -161.5t-82 -166q98 -68 98 -191t-71.5 -186.5t-183.5 -63.5t-185 78q-16 21 4 41t37 0q56 -63 144 -63t141 49t53 128z" glyph-name="threequarters" horiz-adv-x="1521" unicode="¾"/><glyph d="M532 962.5q0 -28.5 -19 -49t-48 -20.5t-49.5 20.5t-20.5 49t20.5 48t49.5 19.5t48 -19.5t19 -48zM504 604q0 -121 -32 -212t-78 -143t-122.5 -129.5t-76.5 -198.5q0 -122 74.5 -194.5t195.5 -72.5t225 108q18 18 28 18.5t30 -19.5t-3 -46q-123 -135 -275 -135 t-251.5 93.5t-99.5 245.5t76.5 227t153.5 161.5t77 298.5v21q0 27 6 33t33 6t33 -6.5t6 -32.5v-23z" glyph-name="questiondown" horiz-adv-x="864" unicode="¿"/><glyph d="M346 422q-20 0 -27.5 -5t-13.5 -24l-123 -352q-10 -29 -19 -35t-34 -6q-41 0 -27 41l469 1352q10 29 20.5 35t30.5 6t33 -4t23 -37l469 -1352q16 -41 -27 -41q-30 0 -38.5 10t-14.5 31l-123 352q-6 18 -13 23.5t-28 5.5h-557zM624.5 1317q-10.5 0 -12.5 -10l-266 -789 q-8 -23 14 -22h529q23 0 14 22l-266 789q-2 10 -12.5 10zM719 1595l-225 211q-29 25 -2.5 51.5t51.5 -2.5l211 -225q27 -29 10.5 -45.5t-45.5 10.5z" glyph-name="Agrave" horiz-adv-x="1249" unicode="À"/><glyph d="M346 422q-20 0 -27.5 -5t-13.5 -24l-123 -352q-10 -29 -19 -35t-34 -6q-41 0 -27 41l469 1352q10 29 20.5 35t30.5 6t33 -4t23 -37l469 -1352q16 -41 -27 -41q-30 0 -38.5 10t-14.5 31l-123 352q-6 18 -13 23.5t-28 5.5h-557zM624.5 1317q-10.5 0 -12.5 -10l-266 -789 q-8 -23 14 -22h529q23 0 14 22l-266 789q-2 10 -12.5 10zM535 1595q-29 -27 -45.5 -10t10.5 45l211 225q25 29 51 2.5t-2 -51.5z" glyph-name="Aacute" horiz-adv-x="1249" unicode="Á"/><glyph d="M346 422q-20 0 -27.5 -5t-13.5 -24l-123 -352q-10 -29 -19 -35t-34 -6q-41 0 -27 41l469 1352q10 29 20.5 35t30.5 6t33 -4t23 -37l469 -1352q16 -41 -27 -41q-30 0 -38.5 10t-14.5 31l-123 352q-6 18 -13 23.5t-28 5.5h-557zM624.5 1317q-10.5 0 -12.5 -10l-266 -789 q-8 -23 14 -22h529q23 0 14 22l-266 789q-2 10 -12.5 10zM624.5 1860q10.5 0 20.5 -11l217 -207q29 -25 2.5 -51t-51.5 2l-178 191q-6 6 -10 6t-11 -6l-178 -191q-25 -29 -51.5 -2t2.5 51l217 207q10 11 20.5 11z" glyph-name="Acircumflex" horiz-adv-x="1249" unicode="Â"/><glyph d="M346 422q-20 0 -27.5 -5t-13.5 -24l-123 -352q-10 -29 -19 -35t-34 -6q-41 0 -27 41l469 1352q10 29 20.5 35t30.5 6t33 -4t23 -37l469 -1352q16 -41 -27 -41q-30 0 -38.5 10t-14.5 31l-123 352q-6 18 -13 23.5t-28 5.5h-557zM624.5 1317q-10.5 0 -12.5 -10l-266 -789 q-8 -23 14 -22h529q23 0 14 22l-266 789q-2 10 -12.5 10zM752 1577q-59 0 -137 54.5t-115 54.5q-59 0 -119 -95q-12 -18 -33 -6l-14 8q-18 12 -8 31q74 123 170 123q57 0 136 -54.5t116 -54.5q59 0 118 95q12 18 33 6l14 -8q18 -12 9 -31q-74 -123 -170 -123z" glyph-name="Atilde" horiz-adv-x="1249" unicode="Ã"/><glyph d="M346 422q-20 0 -27.5 -5t-13.5 -24l-123 -352q-10 -29 -19 -35t-34 -6q-41 0 -27 41l469 1352q10 29 20.5 35t30.5 6t33 -4t23 -37l469 -1352q16 -41 -27 -41q-30 0 -38.5 10t-14.5 31l-123 352q-6 18 -13 23.5t-28 5.5h-557zM624.5 1317q-10.5 0 -12.5 -10l-266 -789 q-8 -23 14 -22h529q23 0 14 22l-266 789q-2 10 -12.5 10zM694 1641q0 28 18.5 46.5t46.5 18.5t46 -19.5t18 -46t-18.5 -45t-47 -18.5t-46 18t-17.5 46zM426 1641q0 28 18.5 46.5t45 18.5t46 -19.5t19.5 -46t-18.5 -45t-46.5 -18.5t-46 18t-18 46z" glyph-name="Adieresis" horiz-adv-x="1249" unicode="Ä"/><glyph d="M346 422q-20 0 -27.5 -5t-13.5 -24l-123 -352q-10 -29 -19 -35t-34 -6q-41 0 -27 41l469 1352q10 29 20.5 35t30.5 6t33 -4t23 -37l469 -1352q16 -41 -27 -41q-30 0 -38.5 10t-14.5 31l-123 352q-6 18 -13 23.5t-28 5.5h-557zM624.5 1317q-10.5 0 -12.5 -10l-266 -789 q-8 -23 14 -22h529q23 0 14 22l-266 789q-2 10 -12.5 10zM520 1737q0 -43 31 -74t74 -31t73.5 31t30.5 74t-30.5 73.5t-73.5 30.5t-74 -30.5t-31 -73.5zM465 1736.5q0 67.5 46 114.5t113.5 47t114.5 -47t47 -114.5t-47 -113.5t-114.5 -46t-113.5 46t-46 113.5z" glyph-name="Aring" horiz-adv-x="1249" unicode="Å"/><glyph d="M625 385q0 25 -6.5 31t-30.5 6h-242q-20 0 -27.5 -5t-13.5 -24l-123 -352q-10 -29 -19 -35t-34 -6q-41 0 -27 41l469 1352q10 29 20.5 35t33.5 6h721q25 0 30.5 -6.5t5.5 -31t-6 -30.5t-30 -6h-607q-25 0 -31 -6t-6 -31v-494q0 -25 6.5 -30.5t30.5 -5.5h504q25 0 31 -6.5 t6 -31t-6 -30.5t-31 -6h-504q-25 0 -31 -6t-6 -31v-571q0 -25 6.5 -31t30.5 -6h607q25 0 30.5 -6.5t5.5 -31t-6 -30.5t-30 -6h-684q-25 0 -31 6t-6 31v348zM588 496q25 0 31 6t6 30v785q-8 0 -13 -10l-266 -789q-8 -23 14 -22h228z" glyph-name="AE" horiz-adv-x="1517" unicode="Æ"/><glyph d="M139 629v176q0 305 158 471t395 166t404 -166q16 -16 16 -25.5t-16.5 -26t-26.5 -16.5t-29 19q-141 141 -351 141t-341 -150.5t-131 -426.5v-148q0 -276 131 -426.5t341 -150.5t351 141q18 18 28.5 18t27 -16t16.5 -25.5t-16 -25.5q-166 -166 -394 -166q-23 0 -67 4 l-37 -127q100 55 187 0t87 -166t-102 -167t-197 1q-13 9 -2 36q12 27 31 17q78 -33 139.5 6.5t61.5 103.5t-43 104t-102.5 34t-98.5 -63q-9 -15 -27 -11l-6 3q-27 6 -20 28l63 209q-195 41 -312.5 202t-117.5 423z" glyph-name="Ccedilla" horiz-adv-x="1226" unicode="Ç"/><glyph d="M221 1397q0 25 6 31t31 6h684q25 0 31 -6.5t6 -31t-6 -30.5t-31 -6h-606q-25 0 -31 -6t-6 -31v-494q0 -25 6 -30.5t31 -5.5h504q25 0 31 -6.5t6 -31t-6.5 -30.5t-30.5 -6h-504q-25 0 -31 -6t-6 -31v-571q0 -25 6 -31t31 -6h606q25 0 31 -6.5t6 -31t-6 -30.5t-31 -6h-684 q-25 0 -31 6t-6 31v1360zM670 1595l-226 211q-29 25 -2 51.5t52 -2.5l211 -225q27 -29 10.5 -45.5t-45.5 10.5z" glyph-name="Egrave" horiz-adv-x="1114" unicode="È"/><glyph d="M221 1397q0 25 6 31t31 6h684q25 0 31 -6.5t6 -31t-6 -30.5t-31 -6h-606q-25 0 -31 -6t-6 -31v-494q0 -25 6 -30.5t31 -5.5h504q25 0 31 -6.5t6 -31t-6.5 -30.5t-30.5 -6h-504q-25 0 -31 -6t-6 -31v-571q0 -25 6 -31t31 -6h606q25 0 31 -6.5t6 -31t-6 -30.5t-31 -6h-684 q-25 0 -31 6t-6 31v1360zM524 1595q-29 -27 -45 -10t10 45l211 225q25 29 51.5 2.5t-1.5 -51.5z" glyph-name="Eacute" horiz-adv-x="1114" unicode="É"/><glyph d="M221 1397q0 25 6 31t31 6h684q25 0 31 -6.5t6 -31t-6 -30.5t-31 -6h-606q-25 0 -31 -6t-6 -31v-494q0 -25 6 -30.5t31 -5.5h504q25 0 31 -6.5t6 -31t-6.5 -30.5t-30.5 -6h-504q-25 0 -31 -6t-6 -31v-571q0 -25 6 -31t31 -6h606q25 0 31 -6.5t6 -31t-6 -30.5t-31 -6h-684 q-25 0 -31 6t-6 31v1360zM598 1860q10 0 20 -11l218 -207q29 -25 2 -51t-52 2l-178 191q-6 6 -10 6t-10 -6l-178 -191q-25 -29 -51.5 -2t1.5 51l218 207q10 11 20 11z" glyph-name="Ecircumflex" horiz-adv-x="1114" unicode="Ê"/><glyph d="M221 1397q0 25 6 31t31 6h684q25 0 31 -6.5t6 -31t-6 -30.5t-31 -6h-606q-25 0 -31 -6t-6 -31v-494q0 -25 6 -30.5t31 -5.5h504q25 0 31 -6.5t6 -31t-6.5 -30.5t-30.5 -6h-504q-25 0 -31 -6t-6 -31v-571q0 -25 6 -31t31 -6h606q25 0 31 -6.5t6 -31t-6 -30.5t-31 -6h-684 q-25 0 -31 6t-6 31v1360zM668 1641q0 28 18.5 46.5t45 18.5t46 -19.5t19.5 -46t-18.5 -45t-46.5 -18.5t-46 18t-18 46zM399 1641q0 28 18.5 46.5t46.5 18.5t46 -19.5t18 -46t-18 -45t-47 -18.5t-46.5 18t-17.5 46z" glyph-name="Edieresis" horiz-adv-x="1114" unicode="Ë"/><glyph d="M299 39q0 -27 -6 -33t-33 -6t-33 6t-6 33v1356q0 27 6 33t33 6t33 -6.5t6 -32.5v-1356zM352 1595l-225 211q-29 25 -2 51.5t51 -2.5l211 -225q27 -29 10.5 -45.5t-45.5 10.5z" glyph-name="Igrave" horiz-adv-x="520" unicode="Ì"/><glyph d="M299 39q0 -27 -6 -33t-33 -6t-33 6t-6 33v1356q0 27 6 33t33 6t33 -6.5t6 -32.5v-1356zM166 1595q-29 -27 -45.5 -10t10.5 45l211 225q25 29 51.5 2.5t-2.5 -51.5z" glyph-name="Iacute" horiz-adv-x="520" unicode="Í"/><glyph d="M299 39q0 -27 -6 -33t-33 -6t-33 6t-6 33v1356q0 27 6 33t33 6t33 -6.5t6 -32.5v-1356zM260 1860q10 0 21 -11l217 -207q29 -25 2 -51t-51 2l-179 191q-6 6 -10 6t-10 -6l-178 -191q-25 -29 -51.5 -2t2.5 51l217 207q10 11 20 11z" glyph-name="Icircumflex" horiz-adv-x="520" unicode="Î"/><glyph d="M299 39q0 -27 -6 -33t-33 -6t-33 6t-6 33v1356q0 27 6 33t33 6t33 -6.5t6 -32.5v-1356zM330 1641q0 28 18 46.5t46 18.5t46.5 -19.5t18.5 -46t-18.5 -45t-47 -18.5t-46 18t-17.5 46zM61 1641q0 28 18.5 46.5t45.5 18.5t46 -19.5t19 -46t-18 -45t-46 -18.5t-46.5 18 t-18.5 46z" glyph-name="Idieresis" horiz-adv-x="520" unicode="Ï"/><glyph d="M221 901q0 25 -6 31t-31 6h-73q-25 0 -31 6t-6 30.5t6 31t31 6.5h73q25 0 31 6t6 31v348q0 25 6 31t31 6h391q250 0 406.5 -163t156.5 -466v-176q0 -303 -156.5 -466t-406.5 -163h-391q-25 0 -31 6t-6 31v864zM299 901v-790q0 -25 6 -31t31 -6h313q225 0 355.5 146.5 t130.5 422.5v148q0 276 -130.5 422.5t-355.5 146.5h-313q-25 0 -31 -6t-6 -31v-274q0 -25 6 -31t31 -6h172q25 0 31 -6.5t6 -31t-6.5 -30.5t-30.5 -6h-172q-25 0 -31 -6t-6 -31z" glyph-name="Eth" horiz-adv-x="1351" unicode="Ð"/><glyph d="M256 1434q22 0 29.5 -3.5t19.5 -21.5l801 -1225q6 -10 14 -8t8 12v1207q0 27 6.5 33t33 6t32.5 -6.5t6 -32.5v-1356q0 -27 -6 -33t-30 -6t-29.5 3t-18.5 22l-800 1224q-6 10 -14.5 8t-8.5 -12v-1206q0 -27 -6 -33t-33 -6t-33 6t-6 33v1356q0 27 6.5 33t28.5 6zM840 1577 q-59 0 -137 54.5t-115 54.5q-59 0 -119 -95q-12 -18 -33 -6l-14 8q-18 12 -8 31q74 123 170 123q57 0 136 -54.5t116 -54.5q59 0 118 95q12 18 33 6l14 -8q18 -12 9 -31q-74 -123 -170 -123z" glyph-name="Ntilde" horiz-adv-x="1427" unicode="Ñ"/><glyph d="M702.5 -8q-247.5 0 -405.5 166t-158 471v176q0 305 158 471t405.5 166t405.5 -166t158 -471v-176q0 -305 -158 -471t-405.5 -166zM702.5 1368q-223.5 0 -354.5 -150.5t-131 -426.5v-148q0 -276 131 -426.5t354.5 -150.5t354.5 150.5t131 426.5v148q0 276 -131 426.5 t-354.5 150.5zM795 1595l-226 211q-29 25 -2 51.5t51 -2.5l211 -225q27 -29 11 -45.5t-45 10.5z" glyph-name="Ograve" horiz-adv-x="1404" unicode="Ò"/><glyph d="M702.5 -8q-247.5 0 -405.5 166t-158 471v176q0 305 158 471t405.5 166t405.5 -166t158 -471v-176q0 -305 -158 -471t-405.5 -166zM702.5 1368q-223.5 0 -354.5 -150.5t-131 -426.5v-148q0 -276 131 -426.5t354.5 -150.5t354.5 150.5t131 426.5v148q0 276 -131 426.5 t-354.5 150.5zM659 1595q-29 -27 -45 -10t11 45l211 225q25 29 51 2.5t-2 -51.5z" glyph-name="Oacute" horiz-adv-x="1404" unicode="Ó"/><glyph d="M702.5 -8q-247.5 0 -405.5 166t-158 471v176q0 305 158 471t405.5 166t405.5 -166t158 -471v-176q0 -305 -158 -471t-405.5 -166zM702.5 1368q-223.5 0 -354.5 -150.5t-131 -426.5v-148q0 -276 131 -426.5t354.5 -150.5t354.5 150.5t131 426.5v148q0 276 -131 426.5 t-354.5 150.5zM702.5 1860q10.5 0 20.5 -11l217 -207q29 -25 2 -51t-51 2l-178 191q-6 6 -10.5 6t-10.5 -6l-178 -191q-25 -29 -51.5 -2t2.5 51l217 207q10 11 20.5 11z" glyph-name="Ocircumflex" horiz-adv-x="1404" unicode="Ô"/><glyph d="M702.5 -8q-247.5 0 -405.5 166t-158 471v176q0 305 158 471t405.5 166t405.5 -166t158 -471v-176q0 -305 -158 -471t-405.5 -166zM702.5 1368q-223.5 0 -354.5 -150.5t-131 -426.5v-148q0 -276 131 -426.5t354.5 -150.5t354.5 150.5t131 426.5v148q0 276 -131 426.5 t-354.5 150.5zM829 1577q-59 0 -136 54.5t-113 54.5q-61 0 -117 -95q-12 -18 -33 -6l-14 8q-18 12 -8 31q70 123 167 123q55 0 134 -54.5t116 -54.5q57 0 117 95q12 18 33 6l14 -8q18 -12 8 -31q-74 -123 -168 -123z" glyph-name="Otilde" horiz-adv-x="1404" unicode="Õ"/><glyph d="M702.5 -8q-247.5 0 -405.5 166t-158 471v176q0 305 158 471t405.5 166t405.5 -166t158 -471v-176q0 -305 -158 -471t-405.5 -166zM702.5 1368q-223.5 0 -354.5 -150.5t-131 -426.5v-148q0 -276 131 -426.5t354.5 -150.5t354.5 150.5t131 426.5v148q0 276 -131 426.5 t-354.5 150.5zM772 1641q0 28 18.5 46.5t46.5 18.5t46 -19.5t18 -46t-18.5 -45t-47 -18.5t-46 18t-17.5 46zM504 1641q0 28 18.5 46.5t45 18.5t46 -19.5t19.5 -46t-18.5 -45t-46.5 -18.5t-46 18t-18 46z" glyph-name="Odieresis" horiz-adv-x="1404" unicode="Ö"/><glyph d="M440 766q-10 -10 0 -21l205 -204q18 -23 0 -41l-8 -8q-20 -20 -41 0l-205 204q-10 10 -20 0l-205 -204q-23 -20 -43 0l-10 10q-18 18 4 39l202 204q10 10 0 21l-202 205q-20 20 4 45q24 24 45 4l205 -203q10 -10 20 0l205 205q23 20 43 0l8 -8q20 -20 0 -41z" glyph-name="multiply" horiz-adv-x="761" unicode="×"/><glyph d="M139 629v176q0 305 158 471t405 166q199 0 336 -105l33 52q23 33 31 39t32 6q48 0 25 -41l-63 -105q170 -174 170 -483v-176q0 -305 -158 -471t-406 -166q-199 0 -340 104l-30 -51q-20 -33 -29 -39t-33 -6q-49 0 -26 41l63 104q-168 172 -168 484zM1188 791 q0 276 -135 430l-650 -1059q121 -96 299 -96q223 0 354.5 150.5t131.5 426.5v148zM702 1368q-223 0 -354 -150.5t-131 -426.5v-148q0 -279 133 -430l649 1059q-121 96 -297 96z" glyph-name="Oslash" horiz-adv-x="1404" unicode="Ø"/><glyph d="M180 539v854q0 23 9.5 32t31.5 9q37 -2 37 -41v-863q0 -242 121 -353t293 -111t292.5 111.5t120.5 352.5v863q0 39 37 41q23 0 32 -9.5t9 -31.5v-854q0 -354 -172.5 -450.5t-319 -96.5t-319 97t-172.5 450zM723 1595l-225 211q-29 25 -2.5 51.5t51.5 -2.5l211 -225 q27 -29 10.5 -45.5t-45.5 10.5z" glyph-name="Ugrave" horiz-adv-x="1343" unicode="Ù"/><glyph d="M180 539v854q0 23 9.5 32t31.5 9q37 -2 37 -41v-863q0 -242 121 -353t293 -111t292.5 111.5t120.5 352.5v863q0 39 37 41q23 0 32 -9.5t9 -31.5v-854q0 -354 -172.5 -450.5t-319 -96.5t-319 97t-172.5 450zM618 1595q-29 -27 -45 -10t11 45l211 225q25 29 51 2.5 t-2 -51.5z" glyph-name="Uacute" horiz-adv-x="1343" unicode="Ú"/><glyph d="M180 539v854q0 23 9.5 32t31.5 9q37 -2 37 -41v-863q0 -242 121 -353t293 -111t292.5 111.5t120.5 352.5v863q0 39 37 41q23 0 32 -9.5t9 -31.5v-854q0 -354 -172.5 -450.5t-319 -96.5t-319 97t-172.5 450zM672 1860q10 0 20 -11l217 -207q29 -25 2.5 -51t-51.5 2 l-178 191q-6 6 -10 6t-10 -6l-179 -191q-25 -29 -51 -2t2 51l217 207q11 11 21 11z" glyph-name="Ucircumflex" horiz-adv-x="1343" unicode="Û"/><glyph d="M180 539v854q0 23 9.5 32t31.5 9q37 -2 37 -41v-863q0 -242 121 -353t293 -111t292.5 111.5t120.5 352.5v863q0 39 37 41q23 0 32 -9.5t9 -31.5v-854q0 -354 -172.5 -450.5t-319 -96.5t-319 97t-172.5 450zM741 1641q0 28 18.5 46.5t45 18.5t46 -19.5t19.5 -46t-18 -45 t-46 -18.5t-46.5 18t-18.5 46zM473 1641q0 28 18.5 46.5t46.5 18.5t46 -19.5t18 -46t-18.5 -45t-47 -18.5t-46 18t-17.5 46z" glyph-name="Udieresis" horiz-adv-x="1343" unicode="Ü"/><glyph d="M594 39q0 -27 -6 -33t-33 -6t-33 6t-6 33v666l-410 688q-10 18 -3.5 29.5t22.5 11.5h8q25 0 32 -4.5t19 -24.5l359 -604q12 -20 24 0l359 604q12 20 19 24.5t32 4.5h8q16 0 22.5 -11.5t-3.5 -29.5l-410 -688v-666zM502 1595q-29 -27 -45.5 -10t10.5 45l211 225 q25 29 51.5 2.5t-2.5 -51.5z" glyph-name="Yacute" horiz-adv-x="1110" unicode="Ý"/><glyph d="M221 1395q0 27 6 33t33 6t33 -6.5t6 -32.5v-201q0 -25 6 -31t31 -6h239q233 0 352.5 -122t119.5 -320.5t-119 -320.5t-353 -122h-239q-25 0 -31 -6t-6 -30v-197q0 -27 -6 -33t-33 -6t-33 6t-6 33v1356zM336 1083q-25 0 -31 -6t-6 -30v-664q0 -25 6 -31t31 -6h233 q209 0 305.5 102.5t96.5 266.5t-96.5 266t-305.5 102h-233z" glyph-name="Thorn" horiz-adv-x="1142" unicode="Þ"/><glyph d="M217 37q0 -25 -6 -31t-30.5 -6t-31 6t-6.5 31v1014q0 254 179 350q141 77 295 21q212 -76 212 -294q0 -60 -27.5 -126t-89 -141.5t-61.5 -132.5q0 -58 28 -98t65.5 -71t104 -86.5t66.5 -165.5q0 -188 -237 -293q-25 -10 -34 -5t-18 25t-5 32t30 22q190 76 191 219 q0 81 -66.5 133t-132 108t-65.5 164t61 176t89 125.5t28 119.5q0 137 -122 201t-247 12q-170 -70 -170 -297v-1012z" glyph-name="germandbls" horiz-adv-x="1013" unicode="ß"/><glyph d="M840 37q0 -25 -6.5 -31t-31 -6t-30.5 6t-6 31v80q-106 -113 -267 -124t-271.5 82t-110.5 250.5t110.5 252t268.5 83.5t270 -124v151q0 125 -80 197.5t-204 72.5t-216 -98q-20 -25 -45 0l-12 12q-16 18 6 43q106 117 267 117t259.5 -93t98.5 -243v-659zM193 325.5 q0 -135.5 93 -205t230 -61.5t250 125v283q-113 117 -250 125t-230 -61.5t-93 -205zM612 1186l-225 211q-29 25 -2 51.5t51 -2.5l211 -225q27 -29 10.5 -45.5t-45.5 10.5z" glyph-name="agrave" horiz-adv-x="999" unicode="à"/><glyph d="M840 37q0 -25 -6.5 -31t-31 -6t-30.5 6t-6 31v80q-106 -113 -267 -124t-271.5 82t-110.5 250.5t110.5 252t268.5 83.5t270 -124v151q0 125 -80 197.5t-204 72.5t-216 -98q-20 -25 -45 0l-12 12q-16 18 6 43q106 117 267 117t259.5 -93t98.5 -243v-659zM193 325.5 q0 -135.5 93 -205t230 -61.5t250 125v283q-113 117 -250 125t-230 -61.5t-93 -205zM426 1186q-29 -27 -45 -10.5t10 45.5l211 225q25 29 51.5 2t-2.5 -51z" glyph-name="aacute" horiz-adv-x="999" unicode="á"/><glyph d="M840 37q0 -25 -6.5 -31t-31 -6t-30.5 6t-6 31v80q-106 -113 -267 -124t-271.5 82t-110.5 250.5t110.5 252t268.5 83.5t270 -124v151q0 125 -80 197.5t-204 72.5t-216 -98q-20 -25 -45 0l-12 12q-16 18 6 43q106 117 267 117t259.5 -93t98.5 -243v-659zM193 325.5 q0 -135.5 93 -205t230 -61.5t250 125v283q-113 117 -250 125t-230 -61.5t-93 -205zM520 1450q10 0 21 -10l217 -207q29 -25 2 -51.5t-51 2.5l-179 190q-6 6 -10 6t-10 -6l-178 -190q-25 -29 -51.5 -2.5t2.5 51.5l217 207q10 10 20 10z" glyph-name="acircumflex" horiz-adv-x="999" unicode="â"/><glyph d="M840 37q0 -25 -6.5 -31t-31 -6t-30.5 6t-6 31v80q-106 -113 -267 -124t-271.5 82t-110.5 250.5t110.5 252t268.5 83.5t270 -124v151q0 125 -80 197.5t-204 72.5t-216 -98q-20 -25 -45 0l-12 12q-16 18 6 43q106 117 267 117t259.5 -93t98.5 -243v-659zM193 325.5 q0 -135.5 93 -205t230 -61.5t250 125v283q-113 117 -250 125t-230 -61.5t-93 -205zM649 1167q-59 0 -137 54.5t-115 54.5q-59 0 -118 -94q-12 -18 -33 -6l-15 8q-18 12 -8 30q74 123 170 123q57 0 136 -54t116 -54q59 0 119 94q12 18 33 6l14 -8q18 -12 8 -31 q-74 -123 -170 -123z" glyph-name="atilde" horiz-adv-x="999" unicode="ã"/><glyph d="M840 37q0 -25 -6.5 -31t-31 -6t-30.5 6t-6 31v80q-106 -113 -267 -124t-271.5 82t-110.5 250.5t110.5 252t268.5 83.5t270 -124v151q0 125 -80 197.5t-204 72.5t-216 -98q-20 -25 -45 0l-12 12q-16 18 6 43q106 117 267 117t259.5 -93t98.5 -243v-659zM193 325.5 q0 -135.5 93 -205t230 -61.5t250 125v283q-113 117 -250 125t-230 -61.5t-93 -205zM590 1232q0 28 18.5 46t45 18t46 -19.5t19.5 -46t-18.5 -45t-46.5 -18.5t-46 18.5t-18 46.5zM322 1232q0 28 18 46t46 18t46.5 -19.5t18.5 -46t-18.5 -45t-47.5 -18.5t-46 18.5t-17 46.5z " glyph-name="adieresis" horiz-adv-x="999" unicode="ä"/><glyph d="M840 37q0 -25 -6.5 -31t-31 -6t-30.5 6t-6 31v80q-106 -113 -267 -124t-271.5 82t-110.5 250.5t110.5 252t268.5 83.5t270 -124v151q0 125 -80 197.5t-204 72.5t-216 -98q-20 -25 -45 0l-12 12q-16 18 6 43q106 117 267 117t259.5 -93t98.5 -243v-659zM193 325.5 q0 -135.5 93 -205t230 -61.5t250 125v283q-113 117 -250 125t-230 -61.5t-93 -205zM360 1327.5q0 67.5 46.5 114.5t114 47t114.5 -47t47 -114.5t-47 -114t-114.5 -46.5t-114 46.5t-46.5 114zM416 1327q0 -43 30.5 -73.5t73.5 -30.5t74 30.5t31 73.5t-31 74t-74 31t-73.5 -31 t-30.5 -74z" glyph-name="aring" horiz-adv-x="999" unicode="å"/><glyph d="M766 688q0 125 -80 197.5t-204 72.5t-216 -98q-20 -25 -45 0l-12 12q-16 18 6 43q106 117 281 117q104 0 189 -50t124 -138q51 92 134 140t181 48q162 0 268.5 -118.5t106.5 -338.5v-55q0 -23 -9 -32t-32 -9h-618v-192q49 -221 301 -221q139 0 243 114q27 29 53.5 2.5 t0.5 -57.5q-120 -133 -304 -133t-294 131v-86q0 -25 -6.5 -31t-31 -6t-30.5 6t-6 31v76q-124 -111 -268 -121t-262.5 84t-118.5 251t110.5 251t268.5 83t270 -124v151zM193 325.5q0 -135.5 93 -205t230 -61.5t250 125v283q-113 117 -250 125t-230 -61.5t-93 -205zM840 545 h544q31 0 36 5t5 15v23q-6 182 -89.5 276t-199.5 94q-237 0 -296 -245v-168z" glyph-name="ae" horiz-adv-x="1640" unicode="æ"/><glyph d="M139 449v126q0 219 108.5 338t283.5 119t296 -133q27 -31 0.5 -57.5t-53.5 2.5q-104 114 -246 114t-228.5 -104t-86.5 -291v-102q0 -186 86 -290.5t228 -104.5t247 114q27 29 53.5 2.5t-0.5 -57.5q-121 -133 -295 -133q-18 0 -51 4l-37 -127q100 55 187.5 0t87.5 -166 t-102.5 -167t-196.5 1q-13 9 -2 36q12 27 31 17q78 -33 139 6.5t61 103.5t-43 104t-102.5 34t-97.5 -63q-9 -15 -27 -11l-6 3q-27 6 -21 28l66 211q-129 35 -204 148.5t-75 294.5z" glyph-name="ccedilla" horiz-adv-x="954" unicode="ç"/><glyph d="M254 479q-39 0 -41 -18q0 -186 86 -290.5t228 -104.5t247 114q27 29 53.5 2.5t-0.5 -57.5q-121 -133 -296 -133t-283.5 118.5t-108.5 338.5v126q0 219 108.5 338t268.5 119t266.5 -118.5t106.5 -338.5v-55q0 -23 -9.5 -32t-31.5 -9h-594zM514 958q-129 0 -212 -94 t-89 -276v-23q0 -14 8 -17t33 -3h520q31 0 36 5t5 15v23q-6 182 -89 276t-212 94zM606 1186l-225 211q-29 25 -2 51.5t51 -2.5l211 -225q27 -29 10.5 -45.5t-45.5 10.5z" glyph-name="egrave" horiz-adv-x="1028" unicode="è"/><glyph d="M254 479q-39 0 -41 -18q0 -186 86 -290.5t228 -104.5t247 114q27 29 53.5 2.5t-0.5 -57.5q-121 -133 -296 -133t-283.5 118.5t-108.5 338.5v126q0 219 108.5 338t268.5 119t266.5 -118.5t106.5 -338.5v-55q0 -23 -9.5 -32t-31.5 -9h-594zM514 958q-129 0 -212 -94 t-89 -276v-23q0 -14 8 -17t33 -3h520q31 0 36 5t5 15v23q-6 182 -89 276t-212 94zM461 1186q-29 -27 -45.5 -10.5t10.5 45.5l211 225q25 29 51.5 2t-2.5 -51z" glyph-name="eacute" horiz-adv-x="1028" unicode="é"/><glyph d="M254 479q-39 0 -41 -18q0 -186 86 -290.5t228 -104.5t247 114q27 29 53.5 2.5t-0.5 -57.5q-121 -133 -296 -133t-283.5 118.5t-108.5 338.5v126q0 219 108.5 338t268.5 119t266.5 -118.5t106.5 -338.5v-55q0 -23 -9.5 -32t-31.5 -9h-594zM514 958q-129 0 -212 -94 t-89 -276v-23q0 -14 8 -17t33 -3h520q31 0 36 5t5 15v23q-6 182 -89 276t-212 94zM514 1450q10 0 21 -10l217 -207q29 -25 2 -51.5t-52 2.5l-178 190q-6 6 -10 6t-10 -6l-178 -190q-25 -29 -51.5 -2.5t1.5 51.5l218 207q10 10 20 10z" glyph-name="ecircumflex" horiz-adv-x="1028" unicode="ê"/><glyph d="M254 479q-39 0 -41 -18q0 -186 86 -290.5t228 -104.5t247 114q27 29 53.5 2.5t-0.5 -57.5q-121 -133 -296 -133t-283.5 118.5t-108.5 338.5v126q0 219 108.5 338t268.5 119t266.5 -118.5t106.5 -338.5v-55q0 -23 -9.5 -32t-31.5 -9h-594zM514 958q-129 0 -212 -94 t-89 -276v-23q0 -14 8 -17t33 -3h520q31 0 36 5t5 15v23q-6 182 -89 276t-212 94zM584 1232q0 28 18 46t46 18t46.5 -19.5t18.5 -46t-18.5 -45t-47.5 -18.5t-46 18.5t-17 46.5zM315 1232q0 28 18.5 46t45.5 18t46 -19.5t19 -46t-18 -45t-46 -18.5t-46.5 18.5t-18.5 46.5z " glyph-name="edieresis" horiz-adv-x="1028" unicode="ë"/><glyph d="M254 37q0 -25 -6 -31t-30.5 -6t-31 6t-6.5 31v950q0 25 6.5 31t31 6t30.5 -6t6 -31v-950zM309 1186l-225 211q-29 25 -2 51.5t51 -2.5l211 -225q27 -29 10.5 -45.5t-45.5 10.5z" glyph-name="igrave" horiz-adv-x="434" unicode="ì"/><glyph d="M254 37q0 -25 -6 -31t-30.5 -6t-31 6t-6.5 31v950q0 25 6.5 31t31 6t30.5 -6t6 -31v-950zM123 1186q-29 -27 -45.5 -10.5t10.5 45.5l211 225q25 29 51.5 2t-2.5 -51z" glyph-name="iacute" horiz-adv-x="434" unicode="í"/><glyph d="M254 37q0 -25 -6 -31t-30.5 -6t-31 6t-6.5 31v950q0 25 6.5 31t31 6t30.5 -6t6 -31v-950zM217 1450q10 0 21 -10l217 -207q29 -25 2 -51.5t-51 2.5l-179 190q-6 6 -10 6t-10 -6l-178 -190q-25 -29 -51.5 -2.5t2.5 51.5l217 207q10 10 20 10z" glyph-name="icircumflex" horiz-adv-x="434" unicode="î"/><glyph d="M254 37q0 -25 -6 -31t-30.5 -6t-31 6t-6.5 31v950q0 25 6.5 31t31 6t30.5 -6t6 -31v-950zM287 1232q0 28 18.5 46t45 18t46 -19.5t19.5 -46t-18.5 -45t-46.5 -18.5t-46 18.5t-18 46.5zM18 1232q0 28 18.5 46t46.5 18t46 -19.5t18 -46t-18 -45t-47 -18.5t-46.5 18.5 t-17.5 46.5z" glyph-name="idieresis" horiz-adv-x="434" unicode="ï"/><glyph d="M930 805v-356q0 -219 -109.5 -338t-286 -119t-286 118.5t-109.5 338.5v34q0 219 109.5 338t286.5 119q217 0 321 -180v33q0 326 -180 473l-187 -146q-20 -14 -28.5 -13t-24.5 19t-14 27.5t22 26.5l168 129q-106 59 -243 59h-2q-25 0 -31 6t-6 31t6 31t31 6h2 q174 0 305 -84l76 59q20 16 29 15.5t23 -20.5t13.5 -28t-20.5 -24l-60 -47q195 -172 195 -508zM534.5 66q147.5 0 234.5 101t87 294v10q0 193 -87 294t-234.5 101t-234.5 -101t-87 -294v-10q0 -193 87 -294t234.5 -101z" glyph-name="eth" horiz-adv-x="1069" unicode="ð"/><glyph d="M254 37q0 -25 -6 -31t-30.5 -6t-31 6t-6.5 31v950q0 25 6.5 31t31 6t30.5 -6t6 -31v-74q121 109 261 119t248.5 -80t108.5 -247v-668q0 -25 -6 -31t-30.5 -6t-30.5 6t-6 31v668q0 119 -84 189t-214 64t-247 -118v-803zM649 1167q-57 0 -132 52.5t-111 52.5 q-57 0 -115 -92q-12 -14 -31 -4l-14 6q-18 12 -8 30q70 117 163 117q57 0 133 -51t111 -51q63 0 115 90q14 17 47 -2q16 -12 8 -31q-72 -117 -166 -117z" glyph-name="ntilde" horiz-adv-x="1032" unicode="ñ"/><glyph d="M930 575v-126q0 -219 -109.5 -338t-286 -119t-286 118.5t-109.5 338.5v126q0 219 109.5 338t286 119t286 -119t109.5 -338zM534.5 66q147.5 0 234.5 101t87 294v102q0 193 -87 294t-234.5 101t-234.5 -101t-87 -294v-102q0 -193 87 -294t234.5 -101zM627 1186l-226 211 q-29 25 -2 51.5t52 -2.5l211 -225q27 -29 10.5 -45.5t-45.5 10.5z" glyph-name="ograve" horiz-adv-x="1069" unicode="ò"/><glyph d="M930 575v-126q0 -219 -109.5 -338t-286 -119t-286 118.5t-109.5 338.5v126q0 219 109.5 338t286 119t286 -119t109.5 -338zM534.5 66q147.5 0 234.5 101t87 294v102q0 193 -87 294t-234.5 101t-234.5 -101t-87 -294v-102q0 -193 87 -294t234.5 -101zM481 1186 q-29 -27 -45 -10.5t10 45.5l211 225q25 29 51.5 2t-1.5 -51z" glyph-name="oacute" horiz-adv-x="1069" unicode="ó"/><glyph d="M930 575v-126q0 -219 -109.5 -338t-286 -119t-286 118.5t-109.5 338.5v126q0 219 109.5 338t286 119t286 -119t109.5 -338zM534.5 66q147.5 0 234.5 101t87 294v102q0 193 -87 294t-234.5 101t-234.5 -101t-87 -294v-102q0 -193 87 -294t234.5 -101zM534.5 1450 q10.5 0 20.5 -10l217 -207q29 -25 2.5 -51.5t-51.5 2.5l-178 190q-6 6 -10.5 6t-10.5 -6l-178 -190q-25 -29 -51.5 -2.5t2.5 51.5l217 207q10 10 20.5 10z" glyph-name="ocircumflex" horiz-adv-x="1069" unicode="ô"/><glyph d="M930 575v-126q0 -219 -109.5 -338t-286 -119t-286 118.5t-109.5 338.5v126q0 219 109.5 338t286 119t286 -119t109.5 -338zM534.5 66q147.5 0 234.5 101t87 294v102q0 193 -87 294t-234.5 101t-234.5 -101t-87 -294v-102q0 -193 87 -294t234.5 -101zM653 1165 q-57 0 -132 52.5t-111 52.5q-57 0 -115 -92q-12 -14 -31 -4l-14 6q-18 12 -8 30q70 117 164 117q57 0 132.5 -51t110.5 -51q63 0 115 90q14 17 47 -2q16 -12 8 -31q-72 -117 -166 -117z" glyph-name="otilde" horiz-adv-x="1069" unicode="õ"/><glyph d="M930 575v-126q0 -219 -109.5 -338t-286 -119t-286 118.5t-109.5 338.5v126q0 219 109.5 338t286 119t286 -119t109.5 -338zM534.5 66q147.5 0 234.5 101t87 294v102q0 193 -87 294t-234.5 101t-234.5 -101t-87 -294v-102q0 -193 87 -294t234.5 -101zM604 1232 q0 28 18.5 46t46.5 18t46 -19.5t18 -46t-18.5 -45t-47 -18.5t-46 18.5t-17.5 46.5zM336 1232q0 28 18.5 46t45 18t46 -19.5t19.5 -46t-18.5 -45t-46.5 -18.5t-46 18.5t-18 46.5z" glyph-name="odieresis" horiz-adv-x="1069" unicode="ö"/><glyph d="M383 452.5q0 28.5 19.5 49t48 20.5t49 -20.5t20.5 -49t-20.5 -48t-49 -19.5t-48 19.5t-19.5 48zM383 1054.5q0 28.5 19.5 49t48 20.5t49 -20.5t20.5 -49t-20.5 -48t-49 -19.5t-48 19.5t-19.5 48zM762 719h-623q-25 0 -31 6t-6 30.5t6.5 31t30.5 6.5h623q25 0 31 -6.5 t6 -31t-6 -30.5t-31 -6z" glyph-name="divide" horiz-adv-x="901" unicode="÷"/><glyph d="M930 575v-126q0 -219 -109.5 -338t-280.5 -119t-272 98l-39 -53q-25 -35 -33 -40t-30 -5t-28.5 12t3.5 29l80 110q-82 119 -82 306v126q0 219 109.5 338t279.5 119t273 -98l39 53q25 33 33 39t30 6t28.5 -12t-3.5 -29l-82 -110q84 -120 84 -306zM540 66q142 0 229 101 t87 294v102q0 154 -57 252l-486 -663q85 -86 227 -86zM213 461q0 -154 57 -252l486 661q-84 88 -226 88t-229.5 -101t-87.5 -294v-102z" glyph-name="oslash" horiz-adv-x="1069" unicode="ø"/><glyph d="M762 37v82q-139 -117 -270 -127t-231.5 77t-100.5 250v668q0 25 6 31t30.5 6t30.5 -6t6 -31v-668q0 -127 74 -193t197 -62t258 120v803q0 25 6 31t30.5 6t31 -6t6.5 -31v-950q0 -25 -6.5 -31t-31 -6t-30.5 6t-6 31zM590 1186l-225 211q-29 25 -2.5 51.5t51.5 -2.5 l211 -225q27 -29 10.5 -45.5t-45.5 10.5z" glyph-name="ugrave" horiz-adv-x="1015" unicode="ù"/><glyph d="M762 37v82q-139 -117 -270 -127t-231.5 77t-100.5 250v668q0 25 6 31t30.5 6t30.5 -6t6 -31v-668q0 -127 74 -193t197 -62t258 120v803q0 25 6 31t30.5 6t31 -6t6.5 -31v-950q0 -25 -6.5 -31t-31 -6t-30.5 6t-6 31zM403 1186q-29 -27 -45 -10.5t11 45.5l211 225 q25 29 51 2t-2 -51z" glyph-name="uacute" horiz-adv-x="1015" unicode="ú"/><glyph d="M762 37v82q-139 -117 -270 -127t-231.5 77t-100.5 250v668q0 25 6 31t30.5 6t30.5 -6t6 -31v-668q0 -127 74 -193t197 -62t258 120v803q0 25 6 31t30.5 6t31 -6t6.5 -31v-950q0 -25 -6.5 -31t-31 -6t-30.5 6t-6 31zM497.5 1450q10.5 0 20.5 -10l217 -207 q29 -25 2.5 -51.5t-51.5 2.5l-178 190q-6 6 -10 6t-11 -6l-178 -190q-25 -29 -51.5 -2.5t2.5 51.5l217 207q10 10 20.5 10z" glyph-name="ucircumflex" horiz-adv-x="1015" unicode="û"/><glyph d="M762 37v82q-139 -117 -270 -127t-231.5 77t-100.5 250v668q0 25 6 31t30.5 6t30.5 -6t6 -31v-668q0 -127 74 -193t197 -62t258 120v803q0 25 6 31t30.5 6t31 -6t6.5 -31v-950q0 -25 -6.5 -31t-31 -6t-30.5 6t-6 31zM299 1232q0 28 18.5 46t45 18t46 -19.5t19.5 -46 t-18.5 -45t-46.5 -18.5t-46 18.5t-18 46.5zM567 1232q0 28 18.5 46t46.5 18t46 -19.5t18 -46t-18.5 -45t-47 -18.5t-46 18.5t-17.5 46.5z" glyph-name="udieresis" horiz-adv-x="1015" unicode="ü"/><glyph d="M113 1024q33 0 43 -31l313 -893q8 -20 16 0l314 893q10 31 43 31q40 0 28 -35l-467 -1321q-39 -111 -117.5 -152.5t-176.5 -11.5q-23 8 -27 17t4 35t39 18q82 -25 135 12t78 103l94 262q10 33 0 63l-348 975q-12 35 29 35zM383 1186q-29 -27 -45 -10.5t10 45.5l211 225 q25 29 51.5 2t-2.5 -51z" glyph-name="yacute" horiz-adv-x="952" unicode="ý"/><glyph d="M254 1397v-508q118 133 274 144t262.5 -112.5t106.5 -345.5v-126q0 -221 -106.5 -345t-262.5 -113t-274 144v-467q0 -25 -6 -31t-30.5 -6t-31 6.5t-6.5 30.5v1729q0 25 6.5 31t31 6t30.5 -6t6 -31zM823 436v152q0 178 -85.5 277t-231.5 93t-252 -145v-602 q106 -139 252 -145t231.5 93t85.5 277z" glyph-name="thorn" unicode="þ"/><glyph d="M113 1024q33 0 43 -31l313 -893q8 -20 16 0l314 893q10 31 43 31q40 0 28 -35l-467 -1321q-39 -111 -117.5 -152.5t-176.5 -11.5q-23 8 -27 17t4 35t39 18q82 -25 135 12t78 103l94 262q10 33 0 63l-348 975q-12 35 29 35zM547 1232q0 28 18.5 46t46.5 18t46 -19.5 t18 -46t-18.5 -45t-47 -18.5t-46 18.5t-17.5 46.5zM279 1232q0 28 18 46t45 18t46.5 -19.5t19.5 -46t-18.5 -45t-46.5 -18.5t-46 18.5t-18 46.5z" glyph-name="ydieresis" horiz-adv-x="952" unicode="ÿ"/><glyph d="M346 422q-20 0 -27.5 -5t-13.5 -24l-123 -352q-10 -29 -19 -35t-34 -6q-41 0 -27 41l469 1352q10 29 20.5 35t30.5 6t33 -4t23 -37l469 -1352q16 -41 -27 -41q-30 0 -38.5 10t-14.5 31l-123 352q-6 18 -13 23.5t-28 5.5h-557zM624.5 1317q-10.5 0 -12.5 -10l-266 -789 q-8 -23 14 -22h529q23 0 14 22l-266 789q-2 10 -12.5 10zM393 1617.5q0 20.5 8.5 27t32.5 6.5h383q25 0 33 -6.5t8 -27t-8 -26.5t-33 -6h-383q-25 0 -33 6t-8 26.5z" glyph-name="Amacron" horiz-adv-x="1249" unicode="Ā"/><glyph d="M766 688q0 125 -80 197.5t-204 72.5t-216 -98q-20 -25 -45 0l-12 12q-16 18 6 43q106 117 267 117t259.5 -93t98.5 -243v-659q0 -25 -6.5 -31t-31 -6t-30.5 6t-6 31v80q-106 -113 -267 -124t-271.5 82t-110.5 250.5t110.5 252t268.5 83.5t270 -124v151zM193 325.5 q0 -135.5 93 -205t230 -61.5t250 125v283q-113 117 -250 125t-230 -61.5t-93 -205zM289 1208.5q0 20.5 8 26.5t33 6h383q25 0 33 -6t8 -26.5t-8.5 -26.5t-32.5 -6h-383q-25 0 -33 6t-8 26.5z" glyph-name="amacron" horiz-adv-x="999" unicode="ā"/><glyph d="M346 422q-20 0 -27.5 -5t-13.5 -24l-123 -352q-10 -29 -19 -35t-34 -6q-41 0 -27 41l469 1352q10 29 20.5 35t30.5 6t33 -4t23 -37l469 -1352q16 -41 -27 -41q-30 0 -38.5 10t-14.5 31l-123 352q-6 18 -13 23.5t-28 5.5h-557zM624.5 1317q-10.5 0 -12.5 -10l-266 -789 q-8 -23 14 -22h529q23 0 14 22l-266 789q-2 10 -12.5 10zM825 1843q36 0 33 -35q-4 -109 -72.5 -170t-161 -61t-161 61.5t-72.5 169.5q-4 35 33 35q20 0 27.5 -5t9.5 -30q4 -74 47 -120t116.5 -46t116.5 46.5t47 119.5q2 25 9.5 30t27.5 5z" glyph-name="Abreve" horiz-adv-x="1249" unicode="Ă"/><glyph d="M840 37q0 -25 -6.5 -31t-31 -6t-30.5 6t-6 31v80q-106 -113 -267 -124t-271.5 82t-110.5 250.5t110.5 252t268.5 83.5t270 -124v151q0 125 -80 197.5t-204 72.5t-216 -98q-20 -25 -45 0l-12 12q-16 18 6 43q106 117 267 117t259.5 -93t98.5 -243v-659zM193 325.5 q0 -135.5 93 -205t230 -61.5t250 125v283q-113 117 -250 125t-230 -61.5t-93 -205zM721 1434q36 0 33 -35q-4 -109 -73 -170.5t-161 -61.5t-160.5 61.5t-72.5 170.5q-4 35 32 35q20 0 27.5 -5.5t9.5 -29.5q4 -74 47 -120t117 -46t117 46t47 120q2 25 9 30t28 5z" glyph-name="abreve" horiz-adv-x="999" unicode="ă"/><glyph d="M346 422q-20 0 -27.5 -5t-13.5 -24l-123 -352q-10 -29 -19 -35t-34 -6q-41 0 -27 41l469 1352q10 29 20.5 35t30.5 6t33 -4t23 -37l469 -1352q16 -41 -27 -41h-2q-66 -25 -89 -87.5t10.5 -120.5t117.5 -73q27 -4 21 -32l-4 -19q-6 -23 -33 -20q-104 14 -154.5 89t-27 162 t109.5 136q-2 2 -2 6l-123 352q-6 18 -13 23.5t-28 5.5h-557zM624.5 1317q-10.5 0 -12.5 -10l-266 -789q-8 -23 14 -22h529q23 0 14 22l-266 789q-2 10 -12.5 10z" glyph-name="Aogonek" horiz-adv-x="1249" unicode="Ą"/><glyph d="M840 37q0 -25 -6.5 -31t-28.5 -6q-66 -25 -89.5 -87.5t10.5 -120.5t118 -73q27 -4 20 -32l-4 -19q-6 -23 -33 -20q-80 10 -129 60t-57 111.5t23.5 124t101.5 97.5v76q-106 -113 -267 -124t-271.5 82t-110.5 250.5t110.5 252t268.5 83.5t270 -124v151q0 125 -80 197.5 t-204 72.5t-216 -98q-20 -25 -45 0l-12 12q-16 18 6 43q106 117 267 117t259.5 -93t98.5 -243v-659zM193 325.5q0 -135.5 93 -205t230 -61.5t250 125v283q-113 117 -250 125t-230 -61.5t-93 -205z" glyph-name="aogonek" horiz-adv-x="999" unicode="ą"/><glyph d="M217 643q0 -276 131 -426.5t341 -150.5t351 141q18 18 28.5 18t27 -16t16.5 -25.5t-16 -25.5q-166 -166 -404 -166t-395.5 166t-157.5 471v176q0 305 158 471t395 166t404 -166q16 -16 16 -25.5t-16.5 -26t-26.5 -16.5t-29 19q-141 141 -351 141t-341 -150.5t-131 -426.5 v-148zM608 1595q-29 -27 -45 -10t10 45l211 225q25 29 51.5 2.5t-1.5 -51.5z" glyph-name="Cacute" horiz-adv-x="1226" unicode="Ć"/><glyph d="M213 461q0 -186 86 -290.5t228 -104.5t247 114q27 29 53.5 2.5t-0.5 -57.5q-121 -133 -296 -133t-283.5 118.5t-108.5 338.5v126q0 219 108.5 338t283.5 119t296 -133q27 -31 0.5 -57.5t-53.5 2.5q-104 114 -246 114t-228.5 -104t-86.5 -291v-102zM436 1186 q-29 -27 -45 -10.5t10 45.5l211 225q25 29 51.5 2t-1.5 -51z" glyph-name="cacute" horiz-adv-x="954" unicode="ć"/><glyph d="M217 791v-148q0 -276 131 -426.5t341 -150.5t351 141q18 18 28.5 18t27 -16t16.5 -25.5t-16 -25.5q-166 -166 -404 -166t-395.5 166t-157.5 471v176q0 305 158 471t395 166t404 -166q16 -16 16 -25.5t-16.5 -26t-26.5 -16.5t-29 19q-141 141 -351 141t-341 -150.5 t-131 -426.5zM682 1860q10 0 20 -11l218 -207q29 -25 2 -51t-52 2l-178 191q-6 6 -10 6t-10 -6l-178 -191q-25 -29 -51.5 -2t1.5 51l218 207q10 11 20 11z" glyph-name="Ccircumflex" horiz-adv-x="1226" unicode="Ĉ"/><glyph d="M213 461q0 -186 86 -290.5t228 -104.5t247 114q27 29 53.5 2.5t-0.5 -57.5q-121 -133 -296 -133t-283.5 118.5t-108.5 338.5v126q0 219 108.5 338t283.5 119t296 -133q27 -31 0.5 -57.5t-53.5 2.5q-104 114 -246 114t-228.5 -104t-86.5 -291v-102zM499.5 1450 q10.5 0 20.5 -10l217 -207q29 -25 2.5 -51.5t-51.5 2.5l-178 190q-6 6 -10 6t-11 -6l-178 -190q-25 -29 -51.5 -2.5t2.5 51.5l217 207q10 10 20.5 10z" glyph-name="ccircumflex" horiz-adv-x="954" unicode="ĉ"/><glyph d="M217 643q0 -276 131 -426.5t341 -150.5t351 141q18 18 28.5 18t27 -16t16.5 -25.5t-16 -25.5q-166 -166 -404 -166t-395.5 166t-157.5 471v176q0 305 158 471t395 166t404 -166q16 -16 16 -25.5t-16.5 -26t-26.5 -16.5t-29 19q-141 141 -351 141t-341 -150.5t-131 -426.5 v-148zM618 1641q0 28 18.5 46.5t45.5 18.5t46.5 -19.5t19.5 -46t-18.5 -45t-46.5 -18.5t-46.5 18t-18.5 46z" glyph-name="Cdotaccent" horiz-adv-x="1226" unicode="Ċ"/><glyph d="M213 461q0 -186 86 -290.5t228 -104.5t247 114q27 29 53.5 2.5t-0.5 -57.5q-121 -133 -296 -133t-283.5 118.5t-108.5 338.5v126q0 219 108.5 338t283.5 119t296 -133q27 -31 0.5 -57.5t-53.5 2.5q-104 114 -246 114t-228.5 -104t-86.5 -291v-102zM436 1232q0 28 18.5 46 t46.5 18t46 -19.5t18 -46t-18.5 -45t-47 -18.5t-46 18.5t-17.5 46.5z" glyph-name="cdotaccent" horiz-adv-x="954" unicode="ċ"/><glyph d="M217 643q0 -276 131 -426.5t341 -150.5t351 141q18 18 28.5 18t27 -16t16.5 -25.5t-16 -25.5q-166 -166 -404 -166t-395.5 166t-157.5 471v176q0 305 158 471t395 166t404 -166q16 -16 16 -25.5t-16.5 -26t-26.5 -16.5t-29 19q-141 141 -351 141t-341 -150.5t-131 -426.5 v-148zM682 1577q-10 0 -20 10l-218 207q-29 25 -2 51.5t52 -2.5l178 -190q6 -6 10 -6t10 6l178 190q25 29 51.5 2.5t-1.5 -51.5l-218 -207q-10 -10 -20 -10z" glyph-name="Ccaron" horiz-adv-x="1226" unicode="Č"/><glyph d="M213 461q0 -186 86 -290.5t228 -104.5t247 114q27 29 53.5 2.5t-0.5 -57.5q-121 -133 -296 -133t-283.5 118.5t-108.5 338.5v126q0 219 108.5 338t283.5 119t296 -133q27 -31 0.5 -57.5t-53.5 2.5q-104 114 -246 114t-228.5 -104t-86.5 -291v-102zM499.5 1167 q-10.5 0 -20.5 11l-217 206q-29 25 -2 51.5t51 -1.5l178 -191q6 -6 10.5 -6t10.5 6l178 191q25 29 51.5 2t-2.5 -52l-217 -206q-10 -11 -20.5 -11z" glyph-name="ccaron" horiz-adv-x="954" unicode="č"/><glyph d="M649 0h-391q-25 0 -31 6t-6 31v1360q0 25 6 31t31 6h391q250 0 406.5 -163t156.5 -466v-176q0 -303 -156.5 -466t-406.5 -163zM299 111q0 -25 6 -31t31 -6h313q225 0 355.5 146.5t130.5 422.5v148q0 276 -130.5 422.5t-355.5 146.5h-313q-25 0 -31 -6t-6 -31v-1212z M639 1577q-10 0 -21 10l-217 207q-29 25 -2 51.5t52 -2.5l178 -190q6 -6 10 -6t10 6l178 190q25 29 51.5 2.5t-1.5 -51.5l-218 -207q-10 -10 -20 -10z" glyph-name="Dcaron" horiz-adv-x="1351" unicode="Ď"/><glyph d="M782 37v98q-118 -133 -274 -144t-262.5 112.5t-106.5 345.5v126q0 221 106.5 345t262.5 113t274 -144v508q0 25 6.5 31t31 6t30.5 -6.5t6 -30.5v-1360q0 -25 -6 -31t-30.5 -6t-31 6t-6.5 31zM213 588v-152q0 -178 85.5 -277t231.5 -93t252 145v602q-106 139 -252 145 t-231.5 -93t-85.5 -277zM1038 1467q0 37 19.5 57t48.5 20q57 0 78 -57q29 -90 -84 -250q-20 -29 -36.5 -16.5t-0.5 39t29.5 53t13.5 56.5t-23 40q-45 21 -45 58z" glyph-name="dcaron" horiz-adv-x="1204" unicode="ď"/><glyph d="M221 901q0 25 -6 31t-31 6h-73q-25 0 -31 6t-6 30.5t6 31t31 6.5h73q25 0 31 6t6 31v348q0 25 6 31t31 6h391q250 0 406.5 -163t156.5 -466v-176q0 -303 -156.5 -466t-406.5 -163h-391q-25 0 -31 6t-6 31v864zM299 901v-790q0 -25 6 -31t31 -6h313q225 0 355.5 146.5 t130.5 422.5v148q0 276 -130.5 422.5t-355.5 146.5h-313q-25 0 -31 -6t-6 -31v-274q0 -25 6 -31t31 -6h172q25 0 31 -6.5t6 -31t-6.5 -30.5t-30.5 -6h-172q-25 0 -31 -6t-6 -31z" glyph-name="Dcroat" horiz-adv-x="1351" unicode="Đ"/><glyph d="M573 1229h172q25 0 31 6t6 31v131q0 25 6.5 31t31 6t30.5 -6.5t6 -30.5v-131q0 -25 6 -31t31 -6h74q25 0 31 -6t6 -31t-6.5 -31t-30.5 -6h-74q-25 0 -31 -6t-6 -31v-1081q0 -25 -6 -31t-30.5 -6t-31 6t-6.5 31v98q-118 -133 -274 -144t-262.5 112.5t-106.5 345.5v126 q0 221 106.5 345t262.5 113t274 -144v229q0 25 -6 31t-31 6h-172q-25 0 -30.5 6t-5.5 31t5.5 31t30.5 6zM213 588v-152q0 -178 85.5 -277t231.5 -93t252 145v602q-106 139 -252 145t-231.5 -93t-85.5 -277z" glyph-name="dcroat" unicode="đ"/><glyph d="M221 1397q0 25 6 31t31 6h684q25 0 31 -6.5t6 -31t-6 -30.5t-31 -6h-606q-25 0 -31 -6t-6 -31v-494q0 -25 6 -30.5t31 -5.5h504q25 0 31 -6.5t6 -31t-6.5 -30.5t-30.5 -6h-504q-25 0 -31 -6t-6 -31v-571q0 -25 6 -31t31 -6h606q25 0 31 -6.5t6 -31t-6 -30.5t-31 -6h-684 q-25 0 -31 6t-6 31v1360zM367 1617.5q0 20.5 8 27t33 6.5h383q25 0 32.5 -6.5t7.5 -27t-8 -26.5t-32 -6h-383q-25 0 -33 6t-8 26.5z" glyph-name="Emacron" horiz-adv-x="1114" unicode="Ē"/><glyph d="M254 479q-39 0 -41 -18q0 -186 86 -290.5t228 -104.5t247 114q27 29 53.5 2.5t-0.5 -57.5q-121 -133 -296 -133t-283.5 118.5t-108.5 338.5v126q0 219 108.5 338t268.5 119t266.5 -118.5t106.5 -338.5v-55q0 -23 -9.5 -32t-31.5 -9h-594zM514 958q-129 0 -212 -94 t-89 -276v-23q0 -14 8 -17t33 -3h520q31 0 36 5t5 15v23q-6 182 -89 276t-212 94zM283 1208.5q0 20.5 8 26.5t33 6h383q25 0 33 -6t8 -26.5t-8.5 -26.5t-32.5 -6h-383q-25 0 -33 6t-8 26.5z" glyph-name="emacron" horiz-adv-x="1028" unicode="ē"/><glyph d="M221 1397q0 25 6 31t31 6h684q25 0 31 -6.5t6 -31t-6 -30.5t-31 -6h-606q-25 0 -31 -6t-6 -31v-494q0 -25 6 -30.5t31 -5.5h504q25 0 31 -6.5t6 -31t-6.5 -30.5t-30.5 -6h-504q-25 0 -31 -6t-6 -31v-571q0 -25 6 -31t31 -6h606q25 0 31 -6.5t6 -31t-6 -30.5t-31 -6h-684 q-25 0 -31 6t-6 31v1360zM799 1843q37 0 32 -35q-4 -109 -72.5 -170t-160.5 -61t-160.5 61.5t-72.5 169.5q-4 35 32 35q20 0 27.5 -5t9.5 -30q4 -74 47 -120t117 -46t117 46.5t47 119.5q2 25 9 30t28 5z" glyph-name="Ebreve" horiz-adv-x="1114" unicode="Ĕ"/><glyph d="M254 479q-39 0 -41 -18q0 -186 86 -290.5t228 -104.5t247 114q27 29 53.5 2.5t-0.5 -57.5q-121 -133 -296 -133t-283.5 118.5t-108.5 338.5v126q0 219 108.5 338t268.5 119t266.5 -118.5t106.5 -338.5v-55q0 -23 -9.5 -32t-31.5 -9h-594zM514 958q-129 0 -212 -94 t-89 -276v-23q0 -14 8 -17t33 -3h520q31 0 36 5t5 15v23q-6 182 -89 276t-212 94zM715 1434q36 0 33 -35q-4 -109 -73 -170.5t-161 -61.5t-160.5 61.5t-72.5 170.5q-4 35 32 35q20 0 27.5 -5.5t9.5 -29.5q4 -74 47 -120t117 -46t117 46t47 120q2 25 9 30t28 5z" glyph-name="ebreve" horiz-adv-x="1028" unicode="ĕ"/><glyph d="M221 1397q0 25 6 31t31 6h684q25 0 31 -6.5t6 -31t-6 -30.5t-31 -6h-606q-25 0 -31 -6t-6 -31v-494q0 -25 6 -30.5t31 -5.5h504q25 0 31 -6.5t6 -31t-6.5 -30.5t-30.5 -6h-504q-25 0 -31 -6t-6 -31v-571q0 -25 6 -31t31 -6h606q25 0 31 -6.5t6 -31t-6 -30.5t-31 -6h-684 q-25 0 -31 6t-6 31v1360zM535 1641q0 28 18 46.5t46 18.5t46.5 -19.5t18.5 -46t-18.5 -45t-47.5 -18.5t-46 18t-17 46z" glyph-name="Edotaccent" horiz-adv-x="1114" unicode="Ė"/><glyph d="M254 479q-39 0 -41 -18q0 -186 86 -290.5t228 -104.5t247 114q27 29 53.5 2.5t-0.5 -57.5q-121 -133 -296 -133t-283.5 118.5t-108.5 338.5v126q0 219 108.5 338t268.5 119t266.5 -118.5t106.5 -338.5v-55q0 -23 -9.5 -32t-31.5 -9h-594zM514 958q-129 0 -212 -94 t-89 -276v-23q0 -14 8 -17t33 -3h520q31 0 36 5t5 15v23q-6 182 -89 276t-212 94zM451 1232q0 28 18 46t45 18t46.5 -19.5t19.5 -46t-18.5 -45t-46.5 -18.5t-46 18.5t-18 46.5z" glyph-name="edotaccent" horiz-adv-x="1028" unicode="ė"/><glyph d="M221 1397q0 25 6 31t31 6h684q25 0 31 -6.5t6 -31t-6 -30.5t-31 -6h-606q-25 0 -31 -6t-6 -31v-494q0 -25 6 -30.5t31 -5.5h504q25 0 31 -6.5t6 -31t-6.5 -30.5t-30.5 -6h-504q-25 0 -31 -6t-6 -31v-571q0 -25 6 -31t31 -6h606q25 0 31 -6.5t6 -31t-6 -30.5t-31 -6h-39 q-66 -25 -89 -87.5t10.5 -120.5t117.5 -73q27 -4 21 -32l-5 -19q-6 -23 -32 -20q-92 12 -143.5 75.5t-44.5 141.5t67 135h-547q-25 0 -31 6t-6 31v1360z" glyph-name="Eogonek" horiz-adv-x="1114" unicode="Ę"/><glyph d="M254 479q-39 0 -41 -18q0 -186 86 -290.5t228 -104.5t247 114q27 29 53.5 2.5t-0.5 -57.5q-90 -100 -213 -125q-66 -25 -89 -87.5t10.5 -120.5t117.5 -73q27 -4 21 -32l-4 -19q-6 -23 -33 -20q-92 12 -142.5 73.5t-46 137t59.5 133.5q-166 8 -267.5 126t-101.5 331v126 q0 219 108.5 338t268.5 119t266.5 -118.5t106.5 -338.5v-55q0 -23 -9.5 -32t-31.5 -9h-594zM514 958q-129 0 -212 -94t-89 -276v-23q0 -14 8 -17t33 -3h520q31 0 36 5t5 15v23q-6 182 -89 276t-212 94z" glyph-name="eogonek" horiz-adv-x="1028" unicode="ę"/><glyph d="M221 1397q0 25 6 31t31 6h684q25 0 31 -6.5t6 -31t-6 -30.5t-31 -6h-606q-25 0 -31 -6t-6 -31v-494q0 -25 6 -30.5t31 -5.5h504q25 0 31 -6.5t6 -31t-6.5 -30.5t-30.5 -6h-504q-25 0 -31 -6t-6 -31v-571q0 -25 6 -31t31 -6h606q25 0 31 -6.5t6 -31t-6 -30.5t-31 -6h-684 q-25 0 -31 6t-6 31v1360zM598 1577q-10 0 -20 10l-218 207q-29 25 -2 51.5t52 -2.5l178 -190q6 -6 10 -6t10 6l178 190q25 29 51.5 2.5t-1.5 -51.5l-218 -207q-10 -10 -20 -10z" glyph-name="Ecaron" horiz-adv-x="1114" unicode="Ě"/><glyph d="M254 479q-39 0 -41 -18q0 -186 86 -290.5t228 -104.5t247 114q27 29 53.5 2.5t-0.5 -57.5q-121 -133 -296 -133t-283.5 118.5t-108.5 338.5v126q0 219 108.5 338t268.5 119t266.5 -118.5t106.5 -338.5v-55q0 -23 -9.5 -32t-31.5 -9h-594zM514 958q-129 0 -212 -94 t-89 -276v-23q0 -14 8 -17t33 -3h520q31 0 36 5t5 15v23q-6 182 -89 276t-212 94zM514 1167q-10 0 -20 11l-218 206q-29 25 -2 51.5t52 -1.5l178 -191q6 -6 10 -6t10 6l178 191q25 29 51.5 2t-1.5 -52l-217 -206q-11 -11 -21 -11z" glyph-name="ecaron" horiz-adv-x="1028" unicode="ě"/><glyph d="M1180 356q0 -123 -134.5 -243.5t-343.5 -120.5q-248 0 -405.5 166t-157.5 471v176q0 305 158 471t395 166t404 -166q16 -16 16 -25.5t-16.5 -26t-26.5 -16.5t-29 19q-141 141 -351 141t-341 -150.5t-131 -426.5v-148q0 -276 131 -426.5t354 -150.5q100 0 181.5 32.5 t150 104t68.5 149.5v330q0 25 -6 31t-31 6h-279q-25 0 -30.5 6t-5.5 30.5t6 31t30 6.5h357q25 0 31 -6.5t6 -30.5v-400zM688 1860q10 0 21 -11l217 -207q29 -25 2 -51t-51 2l-179 191q-6 6 -10 6t-10 -6l-178 -191q-25 -29 -51.5 -2t2.5 51l217 207q10 11 20 11z" glyph-name="Gcircumflex" horiz-adv-x="1318" unicode="Ĝ"/><glyph d="M536.5 -498q-174.5 0 -293 78t-118.5 205t106 186q-106 66 -106 197q0 63 31.5 118.5t87.5 86.5q-102 113 -102 271t116.5 273t276.5 115q98 0 183 -46t140 -124v125q0 25 5 31t30 6t30 -6t5 -31v-348q0 -164 -116 -278.5t-277 -114.5q-127 0 -232 76 q-55 -18 -82.5 -62.5t-27.5 -98.5t45 -105.5t139 -51.5h328q117 0 180 -66.5t63 -148.5q0 -131 -118.5 -209t-293 -78zM215 638q0 -134 92.5 -226.5t226.5 -92.5t227 92.5t93 226.5t-93 227t-227 93t-226.5 -93t-92.5 -227zM536.5 -430q135.5 0 236.5 57.5t101 161.5 q0 51 -38.5 97t-122.5 46h-357q-84 -2 -120.5 -47t-36.5 -96q0 -104 101 -161.5t236.5 -57.5zM538.5 1450q10.5 0 20.5 -10l217 -207q29 -25 2.5 -51.5t-51.5 2.5l-178 190q-6 6 -10 6t-11 -6l-178 -190q-25 -29 -51.5 -2.5t2.5 51.5l217 207q10 10 20.5 10z" glyph-name="gcircumflex" horiz-adv-x="1060" unicode="ĝ"/><glyph d="M1180 356q0 -123 -134.5 -243.5t-343.5 -120.5q-248 0 -405.5 166t-157.5 471v176q0 305 158 471t395 166t404 -166q16 -16 16 -25.5t-16.5 -26t-26.5 -16.5t-29 19q-141 141 -351 141t-341 -150.5t-131 -426.5v-148q0 -276 131 -426.5t354 -150.5q100 0 181.5 32.5 t150 104t68.5 149.5v330q0 25 -6 31t-31 6h-279q-25 0 -30.5 6t-5.5 30.5t6 31t30 6.5h357q25 0 31 -6.5t6 -30.5v-400zM889 1843q36 0 33 -35q-4 -109 -73 -170t-161 -61t-160.5 61.5t-72.5 169.5q-4 35 32 35q20 0 27.5 -5t9.5 -30q4 -74 47 -120t117 -46t117 46.5 t47 119.5q2 25 9 30t28 5z" glyph-name="Gbreve" horiz-adv-x="1318" unicode="Ğ"/><glyph d="M536.5 -498q-174.5 0 -293 78t-118.5 205t106 186q-106 66 -106 197q0 63 31.5 118.5t87.5 86.5q-102 113 -102 271t116.5 273t276.5 115q98 0 183 -46t140 -124v125q0 25 5 31t30 6t30 -6t5 -31v-348q0 -164 -116 -278.5t-277 -114.5q-127 0 -232 76 q-55 -18 -82.5 -62.5t-27.5 -98.5t43 -104.5t133 -52.5h336q117 0 180 -66.5t63 -148.5q0 -131 -118.5 -209t-293 -78zM215 638q0 -134 92.5 -226.5t226.5 -92.5t227 92.5t93 226.5t-93 227t-227 93t-226.5 -93t-92.5 -227zM536.5 -430q135.5 0 236.5 57.5t101 161.5 q0 51 -38.5 97t-122.5 46h-357q-84 -2 -120.5 -47t-36.5 -96q0 -104 101 -161.5t236.5 -57.5zM739 1434q36 0 33 -35q-4 -109 -72.5 -170.5t-161 -61.5t-161 61.5t-72.5 170.5q-4 35 33 35q20 0 27.5 -5.5t9.5 -29.5q4 -74 47 -120t116.5 -46t116.5 46t47 120q2 25 9.5 30 t27.5 5z" glyph-name="gbreve" horiz-adv-x="1060" unicode="ğ"/><glyph d="M1180 356q0 -123 -134.5 -243.5t-343.5 -120.5q-248 0 -405.5 166t-157.5 471v176q0 305 158 471t395 166t404 -166q16 -16 16 -25.5t-16.5 -26t-26.5 -16.5t-29 19q-141 141 -351 141t-341 -150.5t-131 -426.5v-148q0 -276 131 -426.5t354 -150.5q100 0 181.5 32.5 t150 104t68.5 149.5v330q0 25 -6 31t-31 6h-279q-25 0 -30.5 6t-5.5 30.5t6 31t30 6.5h357q25 0 31 -6.5t6 -30.5v-400zM625 1641q0 28 18.5 46.5t46.5 18.5t46 -19.5t18 -46t-18.5 -45t-47.5 -18.5t-46 18t-17 46z" glyph-name="Gdotaccent" horiz-adv-x="1318" unicode="Ġ"/><glyph d="M536.5 -498q-174.5 0 -293 78t-118.5 205t106 186q-106 66 -106 197q0 63 31.5 118.5t87.5 86.5q-102 113 -102 271t116.5 273t276.5 115q98 0 183 -46t140 -124v125q0 25 5 31t30 6t30 -6t5 -31v-348q0 -164 -116 -278.5t-277 -114.5q-127 0 -232 76 q-55 -18 -82.5 -62.5t-27.5 -98.5t43 -104.5t133 -52.5h336q117 0 180 -66.5t63 -148.5q0 -131 -118.5 -209t-293 -78zM215 638q0 -134 92.5 -226.5t226.5 -92.5t227 92.5t93 226.5t-93 227t-227 93t-226.5 -93t-92.5 -227zM536.5 -430q135.5 0 236.5 57.5t101 161.5 q0 51 -38.5 97t-122.5 46h-357q-84 -2 -120.5 -47t-36.5 -96q0 -104 101 -161.5t236.5 -57.5zM475 1232q0 28 18.5 46t45 18t46 -19.5t19.5 -46t-18 -45t-46 -18.5t-46.5 18.5t-18.5 46.5z" glyph-name="gdotaccent" horiz-adv-x="1060" unicode="ġ"/><glyph d="M1180 356q0 -123 -134.5 -243.5t-343.5 -120.5q-248 0 -405.5 166t-157.5 471v176q0 305 158 471t395 166t404 -166q16 -16 16 -25.5t-16.5 -26t-26.5 -16.5t-29 19q-141 141 -351 141t-341 -150.5t-131 -426.5v-148q0 -276 131 -426.5t354 -150.5q100 0 181.5 32.5 t150 104t68.5 149.5v330q0 25 -6 31t-31 6h-279q-25 0 -30.5 6t-5.5 30.5t6 31t30 6.5h357q25 0 31 -6.5t6 -30.5v-400zM610 -221q0 37 19.5 57.5t48.5 20.5q55 0 78 -58q29 -90 -84 -250q-20 -29 -37 -16.5t-0.5 39.5t30 53.5t13.5 56t-23 39.5q-45 21 -45 58z" glyph-name="Gcommaaccent" horiz-adv-x="1318" unicode="Ģ"/><glyph d="M536.5 -498q-174.5 0 -293 78t-118.5 205t106 186q-106 66 -106 197q0 63 31.5 118.5t87.5 86.5q-102 113 -102 271t116.5 273t276.5 115q98 0 183 -46t140 -124v125q0 25 5 31t30 6t30 -6t5 -31v-348q0 -164 -116 -278.5t-277 -114.5q-127 0 -232 76 q-55 -18 -82.5 -62.5t-27.5 -97.5t43 -104.5t131 -53.5h338q117 0 180 -66.5t63 -148.5q0 -131 -118.5 -209t-293 -78zM215 638q0 -134 92.5 -226.5t226.5 -92.5t227 92.5t93 226.5t-93 227t-227 93t-226.5 -93t-92.5 -227zM536.5 -430q135.5 0 236.5 57.5t101 161.5 q0 51 -38.5 97t-122.5 46h-357q-84 -2 -120.5 -47t-36.5 -96q0 -104 101 -161.5t236.5 -57.5zM625 1245q0 -37 -19.5 -57.5t-48.5 -20.5q-57 0 -78 58q-29 90 84 250q20 29 36.5 16.5t0.5 -39.5t-29.5 -53.5t-13.5 -56t23 -39.5q45 -21 45 -58z" glyph-name="gcommaaccent" horiz-adv-x="1060" unicode="ģ"/><glyph d="M1032 682q0 25 -6 31t-31 6h-659q-25 0 -31 -6t-6 -31v-643q0 -27 -6 -33t-33 -6t-33 6t-6 33v1356q0 27 6 33t33 6t33 -6.5t6 -32.5v-566q0 -25 6 -30.5t31 -5.5h659q25 0 31 6t6 30v566q0 27 6 33t33 6t33 -6.5t6 -32.5v-1356q0 -27 -6 -33t-33 -6t-33 6t-6 33v643z M665.5 1860q10.5 0 20.5 -11l217 -207q29 -25 2.5 -51t-51.5 2l-178 191q-6 6 -10 6t-11 -6l-178 -191q-25 -29 -51.5 -2t2.5 51l217 207q10 11 20.5 11z" glyph-name="Hcircumflex" horiz-adv-x="1331" unicode="Ĥ"/><glyph d="M254 37q0 -25 -6 -31t-30.5 -6t-31 6t-6.5 31v1360q0 25 6.5 31t31 6t30.5 -6.5t6 -30.5v-484q121 109 261 119t248.5 -80t108.5 -247v-668q0 -25 -6 -31t-30.5 -6t-30.5 6t-6 31v668q0 119 -84 189t-214 64t-247 -118v-803zM217 1864q10 0 21 -11l217 -206 q29 -25 2 -51.5t-51 1.5l-179 191q-6 6 -10 6t-10 -6l-178 -191q-25 -29 -51.5 -2t2.5 52l217 206q10 11 20 11z" glyph-name="hcircumflex" horiz-adv-x="1032" unicode="ĥ"/><glyph d="M1032 682q0 25 -6 31t-31 6h-659q-25 0 -31 -6t-6 -31v-643q0 -27 -6 -33t-33 -6t-33 6t-6 33v1044q0 25 -6 31t-31 6h-78q-25 0 -30.5 6.5t-5.5 31t6 30.5t30 6h78q25 0 31 6t6 31v164q0 27 6 33t33 6t33 -6.5t6 -32.5v-164q0 -25 6 -31t31 -6h659q25 0 31 6t6 31v164 q0 27 6 33t33 6t33 -6.5t6 -32.5v-164q0 -25 6 -31t31 -6h78q25 0 31 -6t6 -30.5t-6.5 -31t-30.5 -6.5h-78q-25 0 -31 -6t-6 -31v-1044q0 -27 -6 -33t-33 -6t-33 6t-6 33v643zM1032 1083q0 25 -6 31t-31 6h-659q-25 0 -31 -6t-6 -31v-254q0 -25 6 -30.5t31 -5.5h659 q25 0 31 6t6 30v254z" glyph-name="Hbar" horiz-adv-x="1331" unicode="Ħ"/><glyph d="M180 1118q0 25 -6 31t-31 6h-73q-25 0 -31 6t-6 31t6 31t31 6h73q25 0 31 6t6 31v131q0 25 6.5 31t31 6t30.5 -6.5t6 -30.5v-131q0 -25 6 -31t31 -6h172q25 0 31 -6t6 -31t-6.5 -31t-30.5 -6h-172q-25 0 -31 -6t-6 -31v-205q121 109 261 119t248.5 -80t108.5 -247v-668 q0 -25 -6 -31t-30.5 -6t-30.5 6t-6 31v668q0 119 -84 189t-214 64t-247 -118v-803q0 -25 -6 -31t-30.5 -6t-31 6t-6.5 31v1081z" glyph-name="hbar" horiz-adv-x="1032" unicode="ħ"/><glyph d="M299 39q0 -27 -6 -33t-33 -6t-33 6t-6 33v1356q0 27 6 33t33 6t33 -6.5t6 -32.5v-1356zM389 1577q-59 0 -137 54.5t-115 54.5q-59 0 -119 -95q-12 -18 -32 -6l-15 8q-18 12 -8 31q74 123 170 123q57 0 136 -54.5t116 -54.5q59 0 119 95q12 18 33 6l14 -8q18 -12 8 -31 q-74 -123 -170 -123z" glyph-name="Itilde" horiz-adv-x="520" unicode="Ĩ"/><glyph d="M254 37q0 -25 -6 -31t-30.5 -6t-31 6t-6.5 31v950q0 25 6.5 31t31 6t30.5 -6t6 -31v-950zM346 1167q-59 0 -137 54.5t-115 54.5q-59 0 -119 -94q-12 -18 -32 -6l-15 8q-18 12 -8 30q74 123 170 123q57 0 136 -54t116 -54q59 0 119 94q12 18 33 6l14 -8q18 -12 8 -31 q-74 -123 -170 -123z" glyph-name="itilde" horiz-adv-x="434" unicode="ĩ"/><glyph d="M299 39q0 -27 -6 -33t-33 -6t-33 6t-6 33v1356q0 27 6 33t33 6t33 -6.5t6 -32.5v-1356zM29 1617.5q0 20.5 8 27t33 6.5h383q25 0 33 -6.5t8 -27t-8.5 -26.5t-32.5 -6h-383q-25 0 -33 6t-8 26.5z" glyph-name="Imacron" horiz-adv-x="520" unicode="Ī"/><glyph d="M254 37q0 -25 -6 -31t-30.5 -6t-31 6t-6.5 31v950q0 25 6.5 31t31 6t30.5 -6t6 -31v-950zM-14 1208.5q0 20.5 8 26.5t33 6h383q25 0 33 -6t8 -26.5t-8.5 -26.5t-32.5 -6h-383q-25 0 -33 6t-8 26.5z" glyph-name="imacron" horiz-adv-x="434" unicode="ī"/><glyph d="M299 39q0 -27 -6 -33t-33 -6t-33 6t-6 33v1356q0 27 6 33t33 6t33 -6.5t6 -32.5v-1356zM461 1843q36 0 33 -35q-4 -109 -73 -170t-161 -61t-160.5 61.5t-72.5 169.5q-4 35 32 35q20 0 27.5 -5t9.5 -30q4 -74 47 -120t117 -46t117 46.5t47 119.5q2 25 9 30t28 5z" glyph-name="Ibreve" horiz-adv-x="520" unicode="Ĭ"/><glyph d="M254 37q0 -25 -6 -31t-30.5 -6t-31 6t-6.5 31v950q0 25 6.5 31t31 6t30.5 -6t6 -31v-950zM418 1434q36 0 33 -35q-4 -109 -73 -170.5t-161 -61.5t-160.5 61.5t-72.5 170.5q-4 35 32 35q20 0 27.5 -5.5t9.5 -29.5q4 -74 47 -120t117 -46t117 46t47 120q2 25 9 30t28 5z " glyph-name="ibreve" horiz-adv-x="434" unicode="ĭ"/><glyph d="M299 39q0 -27 -6 -33t-33 -6q-66 -25 -89.5 -87.5t10.5 -120.5t118 -73q27 -4 20 -32l-4 -19q-6 -23 -32 -20q-80 10 -129.5 60t-57.5 111.5t24 124t101 97.5v1354q0 27 6 33t33 6t33 -6.5t6 -32.5v-1356z" glyph-name="Iogonek" horiz-adv-x="520" unicode="Į"/><glyph d="M254 37q0 -25 -6 -31t-29 -6q-66 -25 -89.5 -87.5t10.5 -120.5t118 -73q27 -4 21 -32l-5 -19q-6 -23 -32 -20q-106 14 -155.5 91t-24 166t117.5 136v946q0 25 6.5 31t31 6t30.5 -6t6 -31v-950zM150 1235q0 29 19 49.5t48 20.5t49.5 -20.5t20.5 -49.5t-20.5 -48.5 t-49.5 -19.5t-48 19.5t-19 48.5z" glyph-name="iogonek" horiz-adv-x="434" unicode="į"/><glyph d="M299 39q0 -27 -6 -33t-33 -6t-33 6t-6 33v1356q0 27 6 33t33 6t33 -6.5t6 -32.5v-1356zM197 1641q0 28 18 46.5t45 18.5t46.5 -19.5t19.5 -46t-18.5 -45t-46.5 -18.5t-46 18t-18 46z" glyph-name="Idotaccent" horiz-adv-x="520" unicode="İ"/><glyph d="M254 37q0 -25 -6 -31t-30.5 -6t-31 6t-6.5 31v950q0 25 6.5 31t31 6t30.5 -6t6 -31v-950z" glyph-name="dotlessi" horiz-adv-x="434" unicode="ı"/><glyph d="M987 1395q0 27 6 33t33 6t33 -6.5t6 -32.5v-1067q0 -150 -99.5 -243t-259.5 -93t-268 117q-23 25 -6 43l12 12q25 25 45 0q89 -98 215 -98t204.5 72.5t78.5 197.5v1059zM299 39q0 -27 -6 -33t-33 -6t-33 6t-6 33v1356q0 27 6 33t33 6t33 -6.5t6 -32.5v-1356z" glyph-name="IJ" horiz-adv-x="1245" unicode="Ĳ"/><glyph d="M428 987q0 25 6 31t30.5 6t31 -6t6.5 -31v-1253q0 -102 -70 -172t-174 -70t-174 82q-27 30 -2 56t51 -1q63 -63 127 -63t116 45t52 139v1237zM254 37q0 -25 -6 -31t-30.5 -6t-31 6t-6.5 31v950q0 25 6.5 31t31 6t30.5 -6t6 -31v-950zM150 1235q0 29 19 49.5t48 20.5 t49.5 -20.5t20.5 -49.5t-20.5 -48.5t-49.5 -19.5t-48 19.5t-19 48.5zM397 1235q0 29 19.5 49.5t48.5 20.5t49.5 -20.5t20.5 -49.5t-20.5 -48.5t-49.5 -19.5t-48.5 19.5t-19.5 48.5z" glyph-name="ij" horiz-adv-x="681" unicode="ĳ"/><glyph d="M631 1395q0 27 6 33t32.5 6t33 -6.5t6.5 -32.5v-1067q0 -150 -99.5 -243t-260.5 -93t-267 117q-23 25 -6 43l12 12q25 25 45 0q90 -98 215 -98t204 72.5t79 197.5v1059zM669.5 1860q10.5 0 20.5 -11l217 -207q29 -25 2.5 -51t-51.5 2l-178 191q-6 6 -10 6t-11 -6 l-178 -191q-25 -29 -51.5 -2t2.5 51l217 207q10 11 20.5 11z" glyph-name="Jcircumflex" horiz-adv-x="888" unicode="Ĵ"/><glyph d="M254 987v-1253q0 -102 -69.5 -172t-173.5 -70t-175 82q-27 30 -1 56t50 -1q63 -63 127 -63t116 45t52 139v1237q0 25 6.5 31t31 6t30.5 -6t6 -31zM217 1450q10 0 21 -10l217 -207q29 -25 2 -51.5t-51 2.5l-179 190q-6 6 -10 6t-10 -6l-178 -190q-25 -29 -51.5 -2.5 t2.5 51.5l217 207q10 10 20 10z" glyph-name="jcircumflex" horiz-adv-x="434" unicode="ĵ"/><glyph d="M299 494v-455q0 -27 -6 -33t-33 -6t-33 6t-6 33v1356q0 27 6 33t33 6t33 -6.5t6 -32.5v-719q0 -12 8 -14.5t15 6.5l659 751q12 14 41 15h31q16 0 19 -12.5t-7 -22.5l-543 -615q-12 -14 -12 -21t12 -24l543 -704q10 -10 7 -22.5t-19 -12.5h-33q-29 0 -41 14l-516 670 q-12 18 -29 0l-112 -129q-23 -26 -23 -61zM541 -219q0 37 19.5 57.5t47.5 20.5q55 0 78 -58q29 -90 -84 -250q-20 -29 -36.5 -16.5t0 39.5t29.5 53.5t13 56t-22 40.5q-45 20 -45 57z" glyph-name="Kcommaaccent" horiz-adv-x="1140" unicode="Ķ"/><glyph d="M254 455q0 -14 8 -12.5t10 6.5l435 546q23 29 57 29h10q18 0 22.5 -12.5t-8.5 -28.5l-299 -377q-8 -10 0 -24l326 -541q10 -16 5 -28.5t-25 -12.5h-7q-35 0 -51 29l-299 495q-8 14 -20 0l-148 -184q-16 -23 -16 -70v-233q0 -25 -6 -31t-30.5 -6t-31 6t-6.5 31v1360 q0 25 6.5 31t31 6t30.5 -6.5t6 -30.5v-942zM389 -221q0 37 19.5 57.5t48.5 20.5q55 0 78 -58q29 -90 -84 -250q-20 -29 -37 -16.5t-0.5 39.5t30 53.5t13.5 56t-23 39.5q-45 21 -45 58z" glyph-name="kcommaaccent" horiz-adv-x="901" unicode="ķ"/><glyph d="M258 0q-25 0 -31 6t-6 31v1358q0 27 6 33t33 6t33 -6.5t6 -32.5v-1284q0 -25 6 -31t31 -6h508q25 0 31 -6.5t6 -31t-6.5 -30.5t-30.5 -6h-586zM166 1595q-29 -27 -45.5 -10t10.5 45l211 225q25 29 51.5 2.5t-2.5 -51.5z" glyph-name="Lacute" horiz-adv-x="954" unicode="Ĺ"/><glyph d="M233 1397v-1057q0 -141 56.5 -203.5t173.5 -62.5q25 0 31 -6.5t6 -31t-6.5 -30.5t-30.5 -6q-162 0 -232.5 88t-70.5 258v1051q0 25 6 31t30.5 6t30.5 -6t6 -31zM102 1595q-29 -27 -45 -10t11 45l211 225q25 29 51 2.5t-2 -51.5z" glyph-name="lacute" horiz-adv-x="573" unicode="ĺ"/><glyph d="M258 0q-25 0 -31 6t-6 31v1358q0 27 6 33t33 6t33 -6.5t6 -32.5v-1284q0 -25 6 -31t31 -6h508q25 0 31 -6.5t6 -31t-6.5 -30.5t-30.5 -6h-586zM461 -221q0 37 19.5 57.5t47.5 20.5q57 0 78 -58q29 -90 -84 -250q-20 -29 -36.5 -16.5t0 39.5t29.5 53.5t13 56t-22 39.5 q-45 21 -45 58z" glyph-name="Lcommaaccent" horiz-adv-x="954" unicode="Ļ"/><glyph d="M233 1397v-1057q0 -141 56.5 -203.5t173.5 -62.5q25 0 31 -6.5t6 -31t-6.5 -30.5t-30.5 -6q-162 0 -232.5 88t-70.5 258v1051q0 25 6 31t30.5 6t30.5 -6t6 -31zM272 -221q0 37 19.5 57.5t48.5 20.5q57 0 78 -58q29 -90 -84 -250q-20 -29 -36.5 -16.5t-0.5 39.5t29.5 53.5 t13.5 56t-23 39.5q-45 21 -45 58z" glyph-name="lcommaaccent" horiz-adv-x="573" unicode="ļ"/><glyph d="M258 0q-25 0 -31 6t-6 31v1358q0 27 6 33t33 6t33 -6.5t6 -32.5v-1284q0 -25 6 -31t31 -6h508q25 0 31 -6.5t6 -31t-6.5 -30.5t-30.5 -6h-586zM260 1577q-10 0 -20 10l-217 207q-29 25 -2.5 51.5t51.5 -2.5l178 -190q6 -6 10 -6t10 6l179 190q25 29 51 2.5t-2 -51.5 l-217 -207q-11 -10 -21 -10z" glyph-name="Lcaron" horiz-adv-x="954" unicode="Ľ"/><glyph d="M233 1397v-1057q0 -141 56.5 -203.5t173.5 -62.5q25 0 31 -6.5t6 -31t-6.5 -30.5t-30.5 -6q-162 0 -232.5 88t-70.5 258v1051q0 25 6 31t30.5 6t30.5 -6t6 -31zM410 1469q0 37 19.5 57t47.5 20q55 0 78 -57q29 -90 -84 -250q-20 -29 -36.5 -16.5t0 39t29.5 53t13 56.5 t-22 40q-45 21 -45 58z" glyph-name="lcaron" horiz-adv-x="573" unicode="ľ"/><glyph d="M258 0q-25 0 -31 6t-6 31v1358q0 27 6 33t33 6t33 -6.5t6 -32.5v-1284q0 -25 6 -31t31 -6h508q25 0 31 -6.5t6 -31t-6.5 -30.5t-30.5 -6h-586zM471 966.5q0 28.5 18.5 47t45 18.5t46 -18t19.5 -46t-18 -46.5t-46 -18.5t-46.5 17.5t-18.5 46z" glyph-name="Ldot" horiz-adv-x="954" unicode="Ŀ"/><glyph d="M233 1397v-1057q0 -141 56.5 -203.5t173.5 -62.5q25 0 31 -6.5t6 -31t-6.5 -30.5t-30.5 -6q-162 0 -232.5 88t-70.5 258v1051q0 25 6 31t30.5 6t30.5 -6t6 -31zM379 753.5q0 28.5 19.5 49t48 20.5t49 -20.5t20.5 -49t-20.5 -48t-49 -19.5t-48 19.5t-19.5 48z" glyph-name="ldot" horiz-adv-x="573" unicode="ŀ"/><glyph d="M221 1395q0 27 6 33t33 6t33 -6.5t6 -32.5v-600l264 116q23 10 31 8.5t18 -23.5t6 -30t-28 -18l-291 -129v-608q0 -25 6 -31t31 -6h508q25 0 31 -6.5t6 -31t-6.5 -30.5t-30.5 -6h-586q-25 0 -31 6t-6 31v647l-141 -61q-23 -10 -32 -7.5t-16 20.5t-7 28t28 22l168 74v635z " glyph-name="Lslash" horiz-adv-x="954" unicode="Ł"/><glyph d="M274 1397q0 25 6.5 31t31 6t30.5 -6.5t6 -30.5v-520l193 86q16 8 27.5 8t21.5 -25q10 -20 6 -28.5t-29 -18.5l-219 -96v-463q0 -141 56.5 -203.5t173.5 -62.5q25 0 30.5 -6.5t5.5 -31t-6 -30.5t-30 -6q-162 0 -233 88t-71 258v424l-143 -63q-23 -10 -32 -7.5t-16 20.5 t-7 28t28 22l170 74v553z" glyph-name="lslash" horiz-adv-x="688" unicode="ł"/><glyph d="M256 1434q22 0 29.5 -3.5t19.5 -21.5l801 -1225q6 -10 14 -8t8 12v1207q0 27 6.5 33t33 6t32.5 -6.5t6 -32.5v-1356q0 -27 -6 -33t-30 -6t-29.5 3t-18.5 22l-800 1224q-6 10 -14.5 8t-8.5 -12v-1206q0 -27 -6 -33t-33 -6t-33 6t-6 33v1356q0 27 6.5 33t28.5 6zM657 1595 q-29 -27 -45 -10t11 45l211 225q25 29 51 2.5t-2 -51.5z" glyph-name="Nacute" horiz-adv-x="1427" unicode="Ń"/><glyph d="M254 37q0 -25 -6 -31t-30.5 -6t-31 6t-6.5 31v950q0 25 6.5 31t31 6t30.5 -6t6 -31v-74q121 109 261 119t248.5 -80t108.5 -247v-668q0 -25 -6 -31t-30.5 -6t-30.5 6t-6 31v668q0 119 -84 189t-214 64t-247 -118v-803zM473 1186q-29 -27 -45 -10.5t10 45.5l211 225 q25 29 51.5 2t-2.5 -51z" glyph-name="nacute" horiz-adv-x="1032" unicode="ń"/><glyph d="M256 1434q22 0 29.5 -3.5t19.5 -21.5l801 -1225q6 -10 14 -8t8 12v1207q0 27 6.5 33t33 6t32.5 -6.5t6 -32.5v-1356q0 -27 -6 -33t-30 -6t-29.5 3t-18.5 22l-800 1224q-6 10 -14.5 8t-8.5 -12v-1206q0 -27 -6 -33t-33 -6t-33 6t-6 33v1356q0 27 6.5 33t28.5 6zM633 -219 q0 37 19.5 57.5t47.5 20.5q57 0 78 -58q29 -90 -84 -250q-20 -29 -36.5 -16.5t0 39.5t29.5 53.5t13 56t-22 40.5q-45 20 -45 57z" glyph-name="Ncommaaccent" horiz-adv-x="1427" unicode="Ņ"/><glyph d="M254 37q0 -25 -6 -31t-30.5 -6t-31 6t-6.5 31v950q0 25 6.5 31t31 6t30.5 -6t6 -31v-74q121 109 261 119t248.5 -80t108.5 -247v-668q0 -25 -6 -31t-30.5 -6t-30.5 6t-6 31v668q0 119 -84 189t-214 64t-247 -118v-803zM442 -223q0 37 19.5 57.5t48.5 20.5q55 0 78 -58 q29 -90 -84 -250q-20 -29 -36.5 -16.5t-0.5 39.5t29.5 53.5t13.5 56t-23 39.5q-45 21 -45 58z" glyph-name="ncommaaccent" horiz-adv-x="1032" unicode="ņ"/><glyph d="M256 1434q22 0 29.5 -3.5t19.5 -21.5l801 -1225q6 -10 14 -8t8 12v1207q0 27 6.5 33t33 6t32.5 -6.5t6 -32.5v-1356q0 -27 -6 -33t-30 -6t-29.5 3t-18.5 22l-800 1224q-6 10 -14.5 8t-8.5 -12v-1206q0 -27 -6 -33t-33 -6t-33 6t-6 33v1356q0 27 6.5 33t28.5 6z M710.5 1577q-10.5 0 -20.5 10l-217 207q-29 25 -2 51.5t51 -2.5l178 -190q6 -6 10.5 -6t10.5 6l178 190q25 29 51.5 2.5t-2.5 -51.5l-217 -207q-10 -10 -20.5 -10z" glyph-name="Ncaron" horiz-adv-x="1427" unicode="Ň"/><glyph d="M254 37q0 -25 -6 -31t-30.5 -6t-31 6t-6.5 31v950q0 25 6.5 31t31 6t30.5 -6t6 -31v-74q121 109 261 119t248.5 -80t108.5 -247v-668q0 -25 -6 -31t-30.5 -6t-30.5 6t-6 31v668q0 119 -84 189t-214 64t-247 -118v-803zM514 1167q-10 0 -20 11l-218 206q-29 25 -2 51.5 t52 -1.5l178 -191q6 -6 10 -6t10 6l178 191q25 29 51.5 2t-1.5 -52l-217 -206q-11 -11 -21 -11z" glyph-name="ncaron" horiz-adv-x="1032" unicode="ň"/><glyph d="M274 37q0 -25 -6 -31t-30.5 -6t-30.5 6t-6 31v950q0 25 6 31t30.5 6t30.5 -6t6 -31v-74q121 109 261 119t249 -80t109 -247v-668q0 -25 -6 -31t-31 -6t-31 6t-6 31v668q0 119 -83.5 189t-213.5 64t-248 -118v-803zM16 1467q0 37 19.5 57t48.5 20q55 0 78 -57 q29 -90 -84 -250q-20 -29 -36.5 -16.5t-0.5 39t29.5 53t13.5 56.5t-23 40q-45 21 -45 58z" glyph-name="napostrophe" horiz-adv-x="1052" unicode="ŉ"/><glyph d="M702.5 -8q-247.5 0 -405.5 166t-158 471v176q0 305 158 471t405.5 166t405.5 -166t158 -471v-176q0 -305 -158 -471t-405.5 -166zM702.5 1368q-223.5 0 -354.5 -150.5t-131 -426.5v-148q0 -276 131 -426.5t354.5 -150.5t354.5 150.5t131 426.5v148q0 276 -131 426.5 t-354.5 150.5zM471 1617.5q0 20.5 8 27t33 6.5h383q25 0 33 -6.5t8 -27t-8 -26.5t-33 -6h-383q-25 0 -33 6t-8 26.5z" glyph-name="Omacron" horiz-adv-x="1404" unicode="Ō"/><glyph d="M930 575v-126q0 -219 -109.5 -338t-286 -119t-286 118.5t-109.5 338.5v126q0 219 109.5 338t286 119t286 -119t109.5 -338zM534.5 66q147.5 0 234.5 101t87 294v102q0 193 -87 294t-234.5 101t-234.5 -101t-87 -294v-102q0 -193 87 -294t234.5 -101zM303 1208.5 q0 20.5 8 26.5t33 6h383q25 0 33 -6t8 -26.5t-8 -26.5t-33 -6h-383q-25 0 -33 6t-8 26.5z" glyph-name="omacron" horiz-adv-x="1069" unicode="ō"/><glyph d="M702.5 -8q-247.5 0 -405.5 166t-158 471v176q0 305 158 471t405.5 166t405.5 -166t158 -471v-176q0 -305 -158 -471t-405.5 -166zM702.5 1368q-223.5 0 -354.5 -150.5t-131 -426.5v-148q0 -276 131 -426.5t354.5 -150.5t354.5 150.5t131 426.5v148q0 276 -131 426.5 t-354.5 150.5zM903 1843q36 0 33 -35q-4 -109 -72.5 -170t-161 -61t-161 61.5t-72.5 169.5q-4 35 33 35q20 0 27.5 -5t9.5 -30q4 -74 47 -120t116.5 -46t116.5 46.5t47 119.5q2 25 9.5 30t27.5 5z" glyph-name="Obreve" horiz-adv-x="1404" unicode="Ŏ"/><glyph d="M930 575v-126q0 -219 -109.5 -338t-286 -119t-286 118.5t-109.5 338.5v126q0 219 109.5 338t286 119t286 -119t109.5 -338zM534.5 66q147.5 0 234.5 101t87 294v102q0 193 -87 294t-234.5 101t-234.5 -101t-87 -294v-102q0 -193 87 -294t234.5 -101zM735 1434 q36 0 33 -35q-4 -109 -72.5 -170.5t-161 -61.5t-161 61.5t-72.5 170.5q-4 35 33 35q20 0 27.5 -5.5t9.5 -29.5q4 -74 47 -120t116.5 -46t116.5 46t47 120q2 25 9.5 30t27.5 5z" glyph-name="obreve" horiz-adv-x="1069" unicode="ŏ"/><glyph d="M702.5 -8q-247.5 0 -405.5 166t-158 471v176q0 305 158 471t405.5 166t405.5 -166t158 -471v-176q0 -305 -158 -471t-405.5 -166zM702.5 1368q-223.5 0 -354.5 -150.5t-131 -426.5v-148q0 -276 131 -426.5t354.5 -150.5t354.5 150.5t131 426.5v148q0 276 -131 426.5 t-354.5 150.5zM492 1595q-29 -27 -45.5 -10t10.5 45l211 225q25 29 51 2.5t-2 -51.5zM831 1595q-29 -27 -45 -10t11 45l211 225q25 29 51 2.5t-2 -51.5z" glyph-name="Ohungarumlaut" horiz-adv-x="1404" unicode="Ő"/><glyph d="M930 575v-126q0 -219 -109.5 -338t-286 -119t-286 118.5t-109.5 338.5v126q0 219 109.5 338t286 119t286 -119t109.5 -338zM534.5 66q147.5 0 234.5 101t87 294v102q0 193 -87 294t-234.5 101t-234.5 -101t-87 -294v-102q0 -193 87 -294t234.5 -101zM322 1186 q-29 -27 -45.5 -10.5t10.5 45.5l211 225q25 29 51 2t-2 -51zM662 1186q-29 -27 -45.5 -10.5t10.5 45.5l211 225q25 29 51 2t-2 -51z" glyph-name="ohungarumlaut" horiz-adv-x="1069" unicode="ő"/><glyph d="M1266 1323v-496q0 -23 6 -28.5t31 -5.5h503q25 0 31 -6.5t6 -31t-6 -30.5t-31 -6h-503q-25 0 -31 -6t-6 -31v-571q0 -25 6 -31t31 -6h606q25 0 31 -6.5t6 -31t-6.5 -30.5t-30.5 -6h-684q-25 0 -31 6t-6 31v235q-72 -137 -198 -208.5t-288 -71.5q-248 0 -405.5 166 t-157.5 471v176q0 305 158 471t405 166q160 0 287 -72t199 -209v236q0 25 6 31t31 6h684q25 0 31 -6.5t6 -31t-6.5 -30.5t-30.5 -6h-606q-25 0 -31 -6t-6 -31zM702.5 1368q-223.5 0 -354.5 -150.5t-131 -426.5v-148q0 -276 131 -426.5t354.5 -150.5t354.5 150.5t131 426.5 v148q0 276 -131 426.5t-354.5 150.5z" glyph-name="OE" horiz-adv-x="2080" unicode="Œ"/><glyph d="M971 479q-39 0 -41 -18v-19q4 -178 90 -277t226 -99t245 114q27 29 53.5 2.5t-0.5 -57.5q-121 -133 -295 -133q-125 0 -218 60.5t-138 176.5q-45 -117 -139.5 -177t-218.5 -60q-176 0 -286 118.5t-110 338.5v126q0 219 109.5 338t286.5 119q125 0 219 -61.5t139 -177.5 q45 117 135 178t203 61q162 0 268.5 -118.5t106.5 -338.5v-55q0 -23 -9.5 -32t-31.5 -9h-594zM534 66q146 0 232 100t90 295v102q0 193 -87 294t-234.5 101t-234.5 -101t-87 -294v-102q0 -193 87.5 -294t233.5 -101zM1231 958q-129 0 -212 -94t-89 -276v-23q0 -14 8 -17 t33 -3h520q31 0 36 5t5 15v23q-6 182 -89 276t-212 94z" glyph-name="oe" horiz-adv-x="1744" unicode="œ"/><glyph d="M299 586v-547q0 -27 -6 -33t-33 -6t-33 6t-6 33v1358q0 25 6 31t31 6h371q238 0 354.5 -105.5t116.5 -300.5q0 -352 -357 -399l351 -588q10 -18 4 -29.5t-23 -11.5h-14q-25 0 -32 4t-19 25l-353 594h-321q-25 0 -31 -6t-6 -31zM623 1360h-287q-25 0 -31 -6t-6 -31v-590 q0 -25 6 -31t31 -6h287q401 0 401 332t-401 332zM541 1595q-29 -27 -45.5 -10t10.5 45l211 225q25 29 51.5 2.5t-2.5 -51.5z" glyph-name="Racute" horiz-adv-x="1241" unicode="Ŕ"/><glyph d="M254 37q0 -25 -6 -31t-30.5 -6t-31 6t-6.5 31v950q0 25 6.5 31t31 6t30.5 -6t6 -31v-67q141 112 262 112t203 -61q23 -16 27 -28.5t-11 -31.5q-27 -35 -55 -12q-74 59 -186 59t-240 -108v-813zM123 1186q-29 -27 -45.5 -10.5t10.5 45.5l211 225q25 29 51.5 2t-2.5 -51z " glyph-name="racute" horiz-adv-x="815" unicode="ŕ"/><glyph d="M299 586v-547q0 -27 -6 -33t-33 -6t-33 6t-6 33v1358q0 25 6 31t31 6h371q238 0 354.5 -105.5t116.5 -300.5q0 -352 -357 -399l351 -588q10 -18 4 -29.5t-23 -11.5h-14q-25 0 -32 4t-19 25l-353 594h-321q-25 0 -31 -6t-6 -31zM623 1360h-287q-25 0 -31 -6t-6 -31v-590 q0 -25 6 -31t31 -6h287q401 0 401 332t-401 332zM549 -221q0 37 19.5 57.5t47.5 20.5q55 0 78 -58q29 -90 -84 -250q-20 -29 -36.5 -16.5t0 39.5t29.5 53.5t13 56t-22 39.5q-45 21 -45 58z" glyph-name="Rcommaaccent" horiz-adv-x="1241" unicode="Ŗ"/><glyph d="M254 37q0 -25 -6 -31t-30.5 -6t-31 6t-6.5 31v950q0 25 6.5 31t31 6t30.5 -6t6 -31v-67q141 112 262 112t203 -61q23 -16 27 -28.5t-11 -31.5q-27 -35 -55 -12q-74 59 -186 59t-240 -108v-813zM141 -221q0 37 19.5 57.5t48.5 20.5q57 0 78 -58q29 -90 -84 -250 q-20 -29 -36.5 -16.5t-0.5 39.5t29.5 53.5t13.5 56t-23 39.5q-45 21 -45 58z" glyph-name="rcommaaccent" horiz-adv-x="815" unicode="ŗ"/><glyph d="M299 586v-547q0 -27 -6 -33t-33 -6t-33 6t-6 33v1358q0 25 6 31t31 6h371q238 0 354.5 -105.5t116.5 -300.5q0 -352 -357 -399l351 -588q10 -18 4 -29.5t-23 -11.5h-14q-25 0 -32 4t-19 25l-353 594h-321q-25 0 -31 -6t-6 -31zM623 1360h-287q-25 0 -31 -6t-6 -31v-590 q0 -25 6 -31t31 -6h287q401 0 401 332t-401 332zM598 1577q-10 0 -20 10l-218 207q-29 25 -2 51.5t52 -2.5l178 -190q6 -6 10 -6t10 6l178 190q25 29 51.5 2.5t-1.5 -51.5l-218 -207q-10 -10 -20 -10z" glyph-name="Rcaron" horiz-adv-x="1241" unicode="Ř"/><glyph d="M254 37q0 -25 -6 -31t-30.5 -6t-31 6t-6.5 31v950q0 25 6.5 31t31 6t30.5 -6t6 -31v-67q141 112 262 112t203 -61q23 -16 27 -28.5t-11 -31.5q-27 -35 -55 -12q-74 59 -186 59t-240 -108v-813zM217 1167q-10 0 -20 11l-217 206q-29 25 -2.5 51.5t51.5 -1.5l178 -191 q6 -6 10 -6t10 6l179 191q25 29 51 2t-2 -52l-217 -206q-11 -11 -21 -11z" glyph-name="rcaron" horiz-adv-x="815" unicode="ř"/><glyph d="M547 66q154 0 250 89t96 198t-75 184t-181.5 126.5t-213 105.5t-181 139t-74.5 212t107.5 224.5t306.5 97.5q88 0 172 -24.5t123 -49.5l41 -25q20 -14 8 -36l-11 -19q-12 -20 -36 -4q-137 84 -301 84t-248 -78t-84 -178t74.5 -175t181 -126t213 -105.5t181.5 -138.5 t75 -194q0 -166 -124 -273.5t-302 -107.5q-238 -1 -412 151q-23 20 -6 43l8 11q20 27 47 2q152 -133 365 -133zM510 1595q-29 -27 -45 -10t10 45l211 225q25 29 51.5 2.5t-2.5 -51.5z" glyph-name="Sacute" horiz-adv-x="1087" unicode="Ś"/><glyph d="M215 784q0 -68 55.5 -115.5t135 -79.5t160.5 -67t141.5 -93t66.5 -138q10 -135 -82 -217t-255 -82t-320 84q-33 16 -16 51t59 14q156 -75 276 -75t191 52t71 133t-55 133t-135 84t-161 65.5t-140.5 90t-65.5 136.5q-8 119 77 195.5t218 76.5t264 -69q27 -15 14 -43 t-23.5 -29.5t-33.5 10.5q-107 57 -215 57t-167.5 -53t-59.5 -121zM371 1186q-29 -27 -45.5 -10.5t10.5 45.5l211 225q25 29 51.5 2t-2.5 -51z" glyph-name="sacute" horiz-adv-x="894" unicode="ś"/><glyph d="M547 66q154 0 250 89t96 198t-75 184t-181.5 126.5t-213 105.5t-181 139t-74.5 212t107.5 224.5t306.5 97.5q88 0 172 -24.5t123 -49.5l41 -25q20 -14 8 -36l-11 -19q-12 -20 -36 -4q-137 84 -301 84t-248 -78t-84 -178t74.5 -175t181 -126t213 -105.5t181.5 -138.5 t75 -194q0 -166 -124 -273.5t-302 -107.5q-238 -1 -412 151q-23 20 -6 43l8 11q20 27 47 2q152 -133 365 -133zM565 1860q10 0 21 -11l217 -207q29 -25 2 -51t-51 2l-179 191q-6 6 -10 6t-10 -6l-178 -191q-25 -29 -51.5 -2t2.5 51l217 207q10 11 20 11z" glyph-name="Scircumflex" horiz-adv-x="1087" unicode="Ŝ"/><glyph d="M215 784q0 -68 55.5 -115.5t135 -79.5t160.5 -67t141.5 -93t66.5 -138q10 -135 -82 -217t-255 -82t-320 84q-33 16 -16 51t59 14q156 -75 276 -75t191 52t71 133t-55 133t-135 84t-161 65.5t-140.5 90t-65.5 136.5q-8 119 77 195.5t218 76.5t264 -69q27 -15 14 -43 t-23.5 -29.5t-33.5 10.5q-107 57 -215 57t-167.5 -53t-59.5 -121zM444.5 1450q10.5 0 20.5 -10l217 -207q29 -25 2 -51.5t-51 2.5l-178 190q-6 6 -10.5 6t-10.5 -6l-178 -190q-25 -29 -51.5 -2.5t2.5 51.5l217 207q10 10 20.5 10z" glyph-name="scircumflex" horiz-adv-x="894" unicode="ŝ"/><glyph d="M547 66q154 0 250 89t96 198t-75 184t-181.5 126.5t-213 105.5t-181 139t-74.5 212t107.5 224.5t306.5 97.5q88 0 172 -24.5t123 -49.5l41 -25q20 -14 8 -36l-11 -19q-12 -20 -36 -4q-137 84 -301 84t-248 -78t-84 -178t74.5 -175t181 -126t213 -105.5t181.5 -138.5 t75 -194q0 -164 -119 -270.5t-293 -110.5l-37 -123q100 55 187.5 0t87.5 -166t-102.5 -167t-196.5 1q-13 9 -2 36q12 27 30 17q78 -33 139.5 6.5t61.5 103.5t-43 104t-102.5 34t-98.5 -63q-8 -15 -26 -11l-6 3q-27 6 -21 28l62 199q-209 16 -359 149q-23 20 -6 43l8 11 q20 27 47 2q152 -133 365 -133z" glyph-name="Scedilla" horiz-adv-x="1087" unicode="Ş"/><glyph d="M698 251q0 81 -55 133t-135 84t-161 65.5t-140.5 90t-65.5 136.5q-8 119 77 195.5t218 76.5t264 -69q27 -15 14 -43t-23.5 -29.5t-33.5 10.5q-107 57 -215 57t-167.5 -53t-59.5 -121t55.5 -115.5t135 -79.5t160.5 -67t141.5 -93t66.5 -138q10 -135 -82 -217t-254 -82 q-27 0 -39 2l-37 -125q100 55 187.5 0t87.5 -166t-102.5 -167t-196.5 1q-13 9 -2 36q12 27 31 17q78 -33 139 6.5t61 103.5t-43 104t-102.5 34t-97.5 -63q-9 -15 -27 -11l-6 3q-27 6 -21 28l64 205q-104 16 -217 76q-33 16 -16 51t59 14q156 -75 276 -75t191 52t71 133z" glyph-name="scedilla" horiz-adv-x="894" unicode="ş"/><glyph d="M547 66q154 0 250 89t96 198t-75 184t-181.5 126.5t-213 105.5t-181 139t-74.5 212t107.5 224.5t306.5 97.5q88 0 172 -24.5t123 -49.5l41 -25q20 -14 8 -36l-11 -19q-12 -20 -36 -4q-137 84 -301 84t-248 -78t-84 -178t74.5 -175t181 -126t213 -105.5t181.5 -138.5 t75 -194q0 -166 -124 -273.5t-302 -107.5q-238 -1 -412 151q-23 20 -6 43l8 11q20 27 47 2q152 -133 365 -133zM555 1577q-10 0 -20 10l-218 207q-29 25 -2 51.5t52 -2.5l178 -190q6 -6 10 -6t10 6l178 190q25 29 51.5 2.5t-1.5 -51.5l-218 -207q-10 -10 -20 -10z" glyph-name="Scaron" horiz-adv-x="1087" unicode="Š"/><glyph d="M215 784q0 -68 55.5 -115.5t135 -79.5t160.5 -67t141.5 -93t66.5 -138q10 -135 -82 -217t-255 -82t-320 84q-33 16 -16 51t59 14q156 -75 276 -75t191 52t71 133t-55 133t-135 84t-161 65.5t-140.5 90t-65.5 136.5q-8 119 77 195.5t218 76.5t264 -69q27 -15 14 -43 t-23.5 -29.5t-33.5 10.5q-107 57 -215 57t-167.5 -53t-59.5 -121zM444.5 1167q-10.5 0 -20.5 11l-217 206q-29 25 -2.5 51.5t51.5 -1.5l178 -191q6 -6 10.5 -6t10.5 6l178 191q25 29 51.5 2t-2.5 -52l-217 -206q-10 -11 -20.5 -11z" glyph-name="scaron" horiz-adv-x="894" unicode="š"/><glyph d="M553 1323v-1284q0 -27 -8 -35l-43 -145q100 55 187 -1t87 -166t-102.5 -166t-196.5 1q-12 8 -6 24l8 19q8 20 27 10q78 -33 139.5 6.5t61.5 103.5t-43 104t-102.5 34t-98.5 -64q-9 -16 -33 -8q-27 6 -20 29l69 223q-4 6 -4 31v1284q0 25 -6 31t-31 6h-327q-25 0 -31 6 t-6 30.5t6 31t31 6.5h807q25 0 30.5 -6.5t5.5 -31t-6 -30.5t-30 -6h-328q-25 0 -31 -6t-6 -31z" glyph-name="Tcommaaccent" horiz-adv-x="1028" unicode="Ţ"/><glyph d="M242 852q0 25 -6.5 31t-30.5 6h-74q-25 0 -31 6t-6 30.5t6 31t31 6.5h74q25 0 31 6t6 30v207q0 25 6 31t30.5 6t30.5 -6t6 -31v-207q0 -25 6.5 -30.5t30.5 -5.5h172q25 0 31 -6.5t6 -31t-6 -30.5t-31 -6h-172q-25 0 -31 -6t-6 -31v-594q0 -94 51.5 -139t115.5 -45t128 63 q25 27 51 1t-2 -56q-72 -82 -180 -82h-20l-43 -141q100 55 187 -1t87 -166t-102.5 -166t-196.5 1q-12 8 -6 24l8 19q8 20 27 10q78 -33 139.5 6.5t61.5 103.5t-43 104t-102.5 34t-98.5 -64q-9 -16 -33 -8q-27 6 -20 29l71 229q-70 27 -111.5 88.5t-41.5 139.5v610z" glyph-name="tcommaaccent" horiz-adv-x="770" unicode="ţ"/><glyph d="M553 1323v-1284q0 -27 -6 -33t-33 -6t-33 6t-6 33v1284q0 25 -6 31t-31 6h-327q-25 0 -31 6t-6 30.5t6 31t31 6.5h807q25 0 30.5 -6.5t5.5 -31t-6 -30.5t-30 -6h-328q-25 0 -31 -6t-6 -31zM514 1577q-10 0 -20 10l-218 207q-29 25 -2 51.5t52 -2.5l178 -190q6 -6 10 -6 t10 6l178 190q25 29 51.5 2.5t-1.5 -51.5l-217 -207q-11 -10 -21 -10z" glyph-name="Tcaron" horiz-adv-x="1028" unicode="Ť"/><glyph d="M242 852q0 25 -6.5 31t-30.5 6h-74q-25 0 -31 6t-6 30.5t6 31t31 6.5h74q25 0 31 6t6 30v207q0 25 6 31t30.5 6t30.5 -6t6 -31v-207q0 -25 6.5 -30.5t30.5 -5.5h172q25 0 31 -6.5t6 -31t-6 -30.5t-31 -6h-172q-25 0 -31 -6t-6 -31v-602q0 -94 51.5 -139t115.5 -45t128 63 q25 27 51 1t-2 -56q-72 -82 -175 -82t-172.5 69.5t-69.5 171.5v619zM606 1469q0 37 19.5 57t48.5 20q55 0 78 -57q29 -90 -84 -250q-20 -29 -37 -16.5t-0.5 39t30 53t13.5 56.5t-23 40q-45 21 -45 58z" glyph-name="tcaron" horiz-adv-x="770" unicode="ť"/><glyph d="M553 1049q0 -25 6 -31t31 -6h172q25 0 31 -6.5t6 -31t-6.5 -30.5t-30.5 -6h-172q-25 0 -31 -6t-6 -31v-862q0 -27 -6 -33t-33 -6t-33 6t-6 33v862q0 25 -6 31t-31 6h-172q-25 0 -31 6t-6 30.5t6.5 31t30.5 6.5h172q25 0 31 6t6 31v274q0 25 -6 31t-31 6h-327q-25 0 -31 6 t-6 30.5t6 31t31 6.5h807q25 0 30.5 -6.5t5.5 -31t-6 -30.5t-30 -6h-328q-25 0 -31 -6t-6 -31v-274z" glyph-name="Tbar" horiz-adv-x="1028" unicode="Ŧ"/><glyph d="M242 580q0 25 -6.5 30.5t-30.5 5.5h-74q-25 0 -31 6.5t-6 31t6 30.5t31 6h74q25 0 31 6t6 31v125q0 25 -6.5 31t-30.5 6h-74q-25 0 -31 6t-6 30.5t6 31t31 6.5h74q25 0 31 6t6 30v207q0 25 6 31t30.5 6t30.5 -6t6 -31v-207q0 -25 6.5 -30.5t30.5 -5.5h172q25 0 31 -6.5 t6 -31t-6 -30.5t-31 -6h-172q-25 0 -31 -6t-6 -31v-125q0 -25 6.5 -31t30.5 -6h172q25 0 31 -6t6 -30.5t-6 -31t-31 -6.5h-172q-25 0 -31 -6t-6 -30v-330q0 -94 51.5 -139t115.5 -45t128 63q25 27 51 1t-2 -56q-72 -82 -175 -82t-172.5 69.5t-69.5 171.5v347z" glyph-name="tbar" horiz-adv-x="770" unicode="ŧ"/><glyph d="M180 539v854q0 23 9.5 32t31.5 9q37 -2 37 -41v-863q0 -242 121 -353t293 -111t292.5 111.5t120.5 352.5v863q0 39 37 41q23 0 32 -9.5t9 -31.5v-854q0 -354 -172.5 -450.5t-319 -96.5t-319 97t-172.5 450zM801 1577q-59 0 -137 54.5t-115 54.5q-59 0 -119 -95 q-12 -18 -33 -6l-14 8q-18 12 -8 31q74 123 170 123q57 0 136 -54.5t116 -54.5q59 0 118 95q12 18 33 6l15 -8q18 -12 8 -31q-74 -123 -170 -123z" glyph-name="Utilde" horiz-adv-x="1343" unicode="Ũ"/><glyph d="M762 37v82q-139 -117 -270 -127t-231.5 77t-100.5 250v668q0 25 6 31t30.5 6t30.5 -6t6 -31v-668q0 -127 74 -193t197 -62t258 120v803q0 25 6 31t30.5 6t31 -6t6.5 -31v-950q0 -25 -6.5 -31t-31 -6t-30.5 6t-6 31zM623 1167q-57 0 -132 52.5t-112 52.5q-57 0 -115 -92 q-12 -14 -31 -4l-14 6q-18 12 -8 30q70 117 164 117q57 0 133 -51t110 -51q63 0 115 90q14 17 47 -2q16 -12 8 -31q-71 -117 -165 -117z" glyph-name="utilde" horiz-adv-x="1015" unicode="ũ"/><glyph d="M180 539v854q0 23 9.5 32t31.5 9q37 -2 37 -41v-863q0 -242 121 -353t293 -111t292.5 111.5t120.5 352.5v863q0 39 37 41q23 0 32 -9.5t9 -31.5v-854q0 -354 -172.5 -450.5t-319 -96.5t-319 97t-172.5 450zM440 1617.5q0 20.5 8.5 27t32.5 6.5h383q25 0 33 -6.5t8 -27 t-8 -26.5t-33 -6h-383q-25 0 -33 6t-8 26.5z" glyph-name="Umacron" horiz-adv-x="1343" unicode="Ū"/><glyph d="M762 37v82q-139 -117 -270 -127t-231.5 77t-100.5 250v668q0 25 6 31t30.5 6t30.5 -6t6 -31v-668q0 -127 74 -193t197 -62t258 120v803q0 25 6 31t30.5 6t31 -6t6.5 -31v-950q0 -25 -6.5 -31t-31 -6t-30.5 6t-6 31zM266 1208.5q0 20.5 8.5 26.5t32.5 6h383q25 0 33 -6 t8 -26.5t-8 -26.5t-33 -6h-383q-25 0 -33 6t-8 26.5z" glyph-name="umacron" horiz-adv-x="1015" unicode="ū"/><glyph d="M180 539v854q0 23 9.5 32t31.5 9q37 -2 37 -41v-863q0 -242 121 -353t293 -111t292.5 111.5t120.5 352.5v863q0 39 37 41q23 0 32 -9.5t9 -31.5v-854q0 -354 -172.5 -450.5t-319 -96.5t-319 97t-172.5 450zM872 1843q36 0 33 -35q-4 -109 -72.5 -170t-160.5 -61 t-161 61.5t-73 169.5q-4 35 33 35q20 0 27.5 -5t9.5 -30q4 -74 47 -120t116.5 -46t116.5 46.5t48 119.5q2 25 9 30t27 5z" glyph-name="Ubreve" horiz-adv-x="1343" unicode="Ŭ"/><glyph d="M762 37v82q-139 -117 -270 -127t-231.5 77t-100.5 250v668q0 25 6 31t30.5 6t30.5 -6t6 -31v-668q0 -127 74 -193t197 -62t258 120v803q0 25 6 31t30.5 6t31 -6t6.5 -31v-950q0 -25 -6.5 -31t-31 -6t-30.5 6t-6 31zM698 1434q36 0 33 -35q-4 -109 -72.5 -170.5 t-160.5 -61.5t-161 61.5t-73 170.5q-4 35 33 35q20 0 27.5 -5.5t9.5 -29.5q4 -74 47 -120t116.5 -46t116.5 46t48 120q2 25 9 30t27 5z" glyph-name="ubreve" horiz-adv-x="1015" unicode="ŭ"/><glyph d="M180 539v854q0 23 9.5 32t31.5 9q37 -2 37 -41v-863q0 -242 121 -353t293 -111t292.5 111.5t120.5 352.5v863q0 39 37 41q23 0 32 -9.5t9 -31.5v-854q0 -354 -172.5 -450.5t-319 -96.5t-319 97t-172.5 450zM567 1737q0 -43 31 -74t74 -31t73.5 31t30.5 74t-30.5 73.5 t-73.5 30.5t-74 -30.5t-31 -73.5zM512 1736.5q0 67.5 46 114.5t113.5 47t115 -47t47.5 -114.5t-47.5 -113.5t-115 -46t-113.5 46t-46 113.5z" glyph-name="Uring" horiz-adv-x="1343" unicode="Ů"/><glyph d="M762 37v82q-139 -117 -270 -127t-231.5 77t-100.5 250v668q0 25 6 31t30.5 6t30.5 -6t6 -31v-668q0 -127 74 -193t197 -62t258 120v803q0 25 6 31t30.5 6t31 -6t6.5 -31v-950q0 -25 -6.5 -31t-31 -6t-30.5 6t-6 31zM338 1327.5q0 67.5 46 114.5t113.5 47t114.5 -47 t47 -114.5t-47 -114t-114.5 -46.5t-113.5 46.5t-46 114zM393 1327q0 -43 31 -73.5t74 -30.5t73.5 30.5t30.5 73.5t-30.5 74t-73.5 31t-74 -31t-31 -74z" glyph-name="uring" horiz-adv-x="1015" unicode="ů"/><glyph d="M180 539v854q0 23 9.5 32t31.5 9q37 -2 37 -41v-863q0 -242 121 -353t293 -111t292.5 111.5t120.5 352.5v863q0 39 37 41q23 0 32 -9.5t9 -31.5v-854q0 -354 -172.5 -450.5t-319 -96.5t-319 97t-172.5 450zM451 1595q-29 -27 -45.5 -10t10.5 45l211 225q25 29 51.5 2.5 t-2.5 -51.5zM791 1595q-29 -27 -45.5 -10t10.5 45l211 225q25 29 51 2.5t-2 -51.5z" glyph-name="Uhungarumlaut" horiz-adv-x="1343" unicode="Ű"/><glyph d="M233 319q0 -127 74 -193t197 -62t258 120v803q0 25 6 31t30.5 6t31 -6t6.5 -31v-950q0 -25 -6.5 -31t-31 -6t-30.5 6t-6 31v82q-139 -117 -270 -127t-231.5 77t-100.5 250v668q0 25 6 31t30.5 6t30.5 -6t6 -31v-668zM575 1186q-29 -27 -45 -10.5t11 45.5l211 225 q25 29 51 2t-2 -51zM236 1186q-29 -27 -45.5 -10.5t10.5 45.5l211 225q25 29 51 2t-2 -51z" glyph-name="uhungarumlaut" horiz-adv-x="1015" unicode="ű"/><glyph d="M1163 539q0 -285 -130.5 -406t-291.5 -137q-61 -29 -80.5 -89.5t15.5 -116.5t117 -71q27 -4 20 -32l-4 -19q-6 -23 -33 -20q-92 12 -142 73.5t-46 137t59 133.5q-176 8 -279.5 91t-145.5 193.5t-42 262.5v854q0 23 9.5 32t31.5 9q37 -2 37 -41v-863q0 -242 121 -353 t293 -111t292.5 111.5t120.5 352.5v863q0 39 37 41q23 0 32 -9.5t9 -31.5v-854z" glyph-name="Uogonek" horiz-adv-x="1343" unicode="Ų"/><glyph d="M836 37q0 -25 -6.5 -31t-28.5 -6q-66 -25 -89.5 -87.5t10.5 -120.5t118 -73q27 -4 20 -32l-4 -19q-6 -23 -33 -20q-80 10 -129 60t-57 111.5t23.5 124t101.5 97.5v78q-139 -117 -270 -127t-231.5 77t-100.5 250v668q0 25 6 31t30.5 6t30.5 -6t6 -31v-668q0 -127 74 -193 t197 -62t258 120v803q0 25 6 31t30.5 6t31 -6t6.5 -31v-950z" glyph-name="uogonek" horiz-adv-x="1015" unicode="ų"/><glyph d="M921.5 1434q16.5 0 25.5 -1t19.5 -11.5t14.5 -28.5l328 -1248q5 -21 13.5 -14.5t10.5 14.5l328 1248q8 29 17.5 35t37.5 6q39 0 27 -41l-369 -1352q-8 -29 -19.5 -35t-31.5 -6t-34 2t-21 39l-334 1270q-5 21 -14 14.5t-11 -14.5l-334 -1270q-6 -29 -17.5 -35t-31.5 -6 t-33 2t-24 39l-369 1352q-12 41 27 41q34 0 42.5 -10.5t12.5 -30.5l328 -1248q5 -21 13.5 -14.5t11.5 14.5l327 1248q4 18 14.5 28.5t19.5 11.5t25.5 1zM921.5 1860q10.5 0 20.5 -11l217 -207q29 -25 2.5 -51t-51.5 2l-178 191q-6 6 -10 6t-11 -6l-178 -191 q-25 -29 -51.5 -2t2.5 51l217 207q10 11 20.5 11z" glyph-name="Wcircumflex" horiz-adv-x="1843" unicode="Ŵ"/><glyph d="M721 895q-6 0 -8 -8l-260 -850q-8 -23 -16.5 -30t-28.5 -7h-13q-20 0 -29.5 7t-15.5 30l-270 952q-10 35 31 35q22 0 29 -8t12 -23l243 -876q2 -8 8.5 -8t8.5 8l266 870q12 37 41 37h4q29 0 41 -37l266 -870q2 -8 8 -8t9 8l243 876q8 27 17.5 29t23.5 2q41 0 31 -35 l-270 -952q-6 -23 -15.5 -30t-29.5 -7h-13q-20 0 -28.5 7t-16.5 30l-260 850q-2 8 -8 8zM721 1450q10 0 20 -10l217 -207q29 -25 2.5 -51.5t-51.5 2.5l-178 190q-6 6 -10 6t-10 -6l-179 -190q-25 -29 -51 -2.5t2 51.5l217 207q11 10 21 10z" glyph-name="wcircumflex" horiz-adv-x="1441" unicode="ŵ"/><glyph d="M594 39q0 -27 -6 -33t-33 -6t-33 6t-6 33v666l-410 688q-10 18 -3.5 29.5t22.5 11.5h8q25 0 32 -4.5t19 -24.5l359 -604q12 -20 24 0l359 604q12 20 19 24.5t32 4.5h8q16 0 22.5 -11.5t-3.5 -29.5l-410 -688v-666zM555 1860q10 0 20 -11l218 -207q29 -25 2 -51t-52 2 l-178 191q-6 6 -10 6t-10 -6l-178 -191q-25 -29 -51.5 -2t1.5 51l218 207q10 11 20 11z" glyph-name="Ycircumflex" horiz-adv-x="1110" unicode="Ŷ"/><glyph d="M113 1024q33 0 43 -31l313 -893q8 -20 16 0l314 893q10 31 43 31q40 0 28 -35l-467 -1321q-39 -111 -117.5 -152.5t-176.5 -11.5q-23 8 -27 17t4 35t39 18q82 -25 135 12t78 103l94 262q10 33 0 63l-348 975q-12 35 29 35zM477 1450q10 0 21 -10l217 -207q29 -25 2 -51.5 t-51 2.5l-179 190q-6 6 -10 6t-10 -6l-178 -190q-25 -29 -51.5 -2.5t2.5 51.5l217 207q10 10 20 10z" glyph-name="ycircumflex" horiz-adv-x="952" unicode="ŷ"/><glyph d="M594 39q0 -27 -6 -33t-33 -6t-33 6t-6 33v666l-410 688q-10 18 -3.5 29.5t22.5 11.5h8q25 0 32 -4.5t19 -24.5l359 -604q12 -20 24 0l359 604q12 20 19 24.5t32 4.5h8q16 0 22.5 -11.5t-3.5 -29.5l-410 -688v-666zM625 1641q0 28 18.5 46.5t46.5 18.5t46 -19.5t18 -46 t-18.5 -45t-47.5 -18.5t-46 18t-17 46zM356 1641q0 28 18.5 46.5t45 18.5t46 -19.5t19.5 -46t-18 -45t-46 -18.5t-46.5 18t-18.5 46z" glyph-name="Ydieresis" horiz-adv-x="1110" unicode="Ÿ"/><glyph d="M139 1360q-25 0 -31 6t-6 30.5t6.5 31t30.5 6.5h754q23 0 32 -9.5t9 -32t-10 -40.5l-736 -1258q-12 -20 9 -20h675q25 0 31 -6.5t6 -31t-6 -30.5t-31 -6h-741q-23 0 -32 9t-9 31.5t10 41.5l736 1257q12 20 -9 21h-688zM459 1595q-29 -27 -45.5 -10t10.5 45l211 225 q25 29 51.5 2.5t-2.5 -51.5z" glyph-name="Zacute" horiz-adv-x="1024" unicode="Ź"/><glyph d="M713 950h-553q-25 0 -31 6.5t-6 31t6 30.5t31 6h620q25 0 31 -6t6 -36t-8 -42l-610 -848q-4 -6 -2 -12t10 -6h553q25 0 31 -6.5t6 -31t-6.5 -30.5t-30.5 -6h-621q-25 0 -31 6t-6 36t9 42l610 848q4 6 2 12t-10 6zM401 1186q-29 -27 -45 -10.5t11 45.5l211 225q25 29 51 2 t-2 -51z" glyph-name="zacute" horiz-adv-x="919" unicode="ź"/><glyph d="M139 1360q-25 0 -31 6t-6 30.5t6.5 31t30.5 6.5h754q23 0 32 -9.5t9 -32t-10 -40.5l-736 -1258q-12 -20 9 -20h675q25 0 31 -6.5t6 -31t-6 -30.5t-31 -6h-741q-23 0 -32 9t-9 31.5t10 41.5l736 1257q12 20 -9 21h-688zM449 1641q0 28 18 46.5t46 18.5t46.5 -19.5 t18.5 -46t-18.5 -45t-47.5 -18.5t-46 18t-17 46z" glyph-name="Zdotaccent" horiz-adv-x="1024" unicode="Ż"/><glyph d="M713 950h-553q-25 0 -31 6.5t-6 31t6 30.5t31 6h620q25 0 31 -6t6 -36t-8 -42l-610 -848q-4 -6 -2 -12t10 -6h553q25 0 31 -6.5t6 -31t-6.5 -30.5t-30.5 -6h-621q-25 0 -31 6t-6 36t9 42l610 848q4 6 2 12t-10 6zM395 1232q0 28 18.5 46t46.5 18t46 -19.5t18 -46 t-18.5 -45t-47 -18.5t-46 18.5t-17.5 46.5z" glyph-name="zdotaccent" horiz-adv-x="919" unicode="ż"/><glyph d="M139 1360q-25 0 -31 6t-6 30.5t6.5 31t30.5 6.5h754q23 0 32 -9.5t9 -32t-10 -40.5l-736 -1258q-12 -20 9 -20h675q25 0 31 -6.5t6 -31t-6 -30.5t-31 -6h-741q-23 0 -32 9t-9 31.5t10 41.5l736 1257q12 20 -9 21h-688zM512 1577q-10 0 -20 10l-218 207q-29 25 -2 51.5 t52 -2.5l178 -190q6 -6 10 -6t10 6l178 190q25 29 51.5 2.5t-1.5 -51.5l-218 -207q-10 -10 -20 -10z" glyph-name="Zcaron" horiz-adv-x="1024" unicode="Ž"/><glyph d="M713 950h-553q-25 0 -31 6.5t-6 31t6 30.5t31 6h620q25 0 31 -6t6 -36t-8 -42l-610 -848q-4 -6 -2 -12t10 -6h553q25 0 31 -6.5t6 -31t-6.5 -30.5t-30.5 -6h-621q-25 0 -31 6t-6 36t9 42l610 848q4 6 2 12t-10 6zM459 1167q-10 0 -21 11l-217 206q-29 25 -2 51.5t51 -1.5 l179 -191q6 -6 10 -6t10 6l178 191q25 29 51.5 2t-2.5 -52l-217 -206q-10 -11 -20 -11z" glyph-name="zcaron" horiz-adv-x="919" unicode="ž"/><glyph d="M625 385q0 25 -6.5 31t-30.5 6h-242q-20 0 -27.5 -5t-13.5 -24l-123 -352q-10 -29 -19 -35t-34 -6q-41 0 -27 41l469 1352q10 29 20.5 35t33.5 6h721q25 0 30.5 -6.5t5.5 -31t-6 -30.5t-30 -6h-607q-25 0 -31 -6t-6 -31v-494q0 -25 6.5 -30.5t30.5 -5.5h504q25 0 31 -6.5 t6 -31t-6 -30.5t-31 -6h-504q-25 0 -31 -6t-6 -31v-571q0 -25 6.5 -31t30.5 -6h607q25 0 30.5 -6.5t5.5 -31t-6 -30.5t-30 -6h-684q-25 0 -31 6t-6 31v348zM588 496q25 0 31 6t6 30v785q-8 0 -13 -10l-266 -789q-8 -23 14 -22h228zM860 1595q-29 -27 -45 -10t10 45l211 225 q25 29 51.5 2.5t-2.5 -51.5z" glyph-name="AEacute" horiz-adv-x="1517" unicode="Ǽ"/><glyph d="M766 688q0 125 -80 197.5t-204 72.5t-216 -98q-20 -25 -45 0l-12 12q-16 18 6 43q106 117 281 117q104 0 189 -50t124 -138q51 92 134 140t181 48q162 0 268.5 -118.5t106.5 -338.5v-55q0 -23 -9 -32t-32 -9h-618v-192q49 -221 301 -221q139 0 243 114q27 29 53.5 2.5 t0.5 -57.5q-120 -133 -304 -133t-294 131v-86q0 -25 -6.5 -31t-31 -6t-30.5 6t-6 31v76q-124 -111 -268 -121t-262.5 84t-118.5 251t110.5 251t268.5 83t270 -124v151zM193 325.5q0 -135.5 93 -205t230 -61.5t250 125v283q-113 117 -250 125t-230 -61.5t-93 -205zM840 545 h544q31 0 36 5t5 15v23q-6 182 -89.5 276t-199.5 94q-237 0 -296 -245v-168zM709 1186q-29 -27 -45.5 -10.5t10.5 45.5l211 225q25 29 51.5 2t-2.5 -51z" glyph-name="aeacute" horiz-adv-x="1640" unicode="ǽ"/><glyph d="M547 66q154 0 250 89t96 198t-75 184t-181.5 126.5t-213 105.5t-181 139t-74.5 212t107.5 224.5t306.5 97.5q88 0 172 -24.5t123 -49.5l41 -25q20 -14 8 -36l-11 -19q-12 -20 -36 -4q-137 84 -301 84t-248 -78t-84 -178t74.5 -175t181 -126t213 -105.5t181.5 -138.5 t75 -194q0 -166 -124 -273.5t-302 -107.5q-238 -1 -412 151q-23 20 -6 43l8 11q20 27 47 2q152 -133 365 -133zM477 -221q0 37 19.5 57.5t48.5 20.5q57 0 78 -58q29 -90 -84 -250q-20 -29 -37 -16.5t-0.5 39.5t30 53.5t13.5 56t-23 39.5q-45 21 -45 58z" glyph-name="Scommaaccent" horiz-adv-x="1087" unicode="Ș"/><glyph d="M215 784q0 -68 55.5 -115.5t135 -79.5t160.5 -67t141.5 -93t66.5 -138q10 -135 -82 -217t-255 -82t-320 84q-33 16 -16 51t59 14q156 -75 276 -75t191 52t71 133t-55 133t-135 84t-161 65.5t-140.5 90t-65.5 136.5q-8 119 77 195.5t218 76.5t264 -69q27 -15 14 -43 t-23.5 -29.5t-33.5 10.5q-107 57 -215 57t-167.5 -53t-59.5 -121zM356 -221q0 37 19.5 57.5t48.5 20.5q57 0 78 -58q29 -90 -84 -250q-20 -29 -36.5 -16.5t-0.5 39.5t29.5 53.5t13.5 56t-23 39.5q-45 21 -45 58z" glyph-name="scommaaccent" horiz-adv-x="894" unicode="ș"/><glyph d="M553 1323v-1284q0 -27 -6 -33t-33 -6t-33 6t-6 33v1284q0 25 -6 31t-31 6h-327q-25 0 -31 6t-6 30.5t6 31t31 6.5h807q25 0 30.5 -6.5t5.5 -31t-6 -30.5t-30 -6h-328q-25 0 -31 -6t-6 -31zM432 -221q0 37 19.5 57.5t48.5 20.5q57 0 78 -58q29 -90 -84 -250 q-20 -29 -37 -16.5t-0.5 39.5t30 53.5t13.5 56t-23 39.5q-45 21 -45 58z" glyph-name="uni021A" horiz-adv-x="1028" unicode="Ț"/><glyph d="M242 852q0 25 -6.5 31t-30.5 6h-74q-25 0 -31 6t-6 30.5t6 31t31 6.5h74q25 0 31 6t6 30v207q0 25 6 31t30.5 6t30.5 -6t6 -31v-207q0 -25 6.5 -30.5t30.5 -5.5h172q25 0 31 -6.5t6 -31t-6 -30.5t-31 -6h-172q-25 0 -31 -6t-6 -31v-602q0 -94 51.5 -139t115.5 -45t128 63 q25 27 51 1t-2 -56q-72 -82 -175 -82t-172.5 69.5t-69.5 171.5v619zM365 -221q0 37 19 57.5t48 20.5q55 0 78 -58q29 -90 -84 -250q-20 -29 -36.5 -16.5t0 39.5t29.5 53.5t13 56t-22 39.5q-45 21 -45 58z" glyph-name="uni021B" horiz-adv-x="770" unicode="ț"/><glyph d="M254 987v-1253q0 -102 -69.5 -172t-173.5 -70t-175 82q-27 30 -1 56t50 -1q63 -63 127 -63t116 45t52 139v1237q0 25 6.5 31t31 6t30.5 -6t6 -31z" glyph-name="uni0237" horiz-adv-x="434" unicode="ȷ"/><glyph d="M315.5 1823q10.5 0 20.5 -11l217 -206q29 -25 2 -51.5t-51 1.5l-178 191q-6 6 -10.5 6t-10.5 -6l-178 -191q-25 -29 -51.5 -2t2.5 52l217 206q10 11 20.5 11z" glyph-name="circumflex" horiz-adv-x="630" unicode="ˆ"/><glyph d="M315.5 1559q-10.5 0 -20.5 10l-217 207q-29 25 -2.5 51t51.5 -2l178 -191q6 -6 10 -6t11 6l178 191q25 29 51.5 2t-2.5 -51l-217 -207q-10 -10 -20.5 -10z" glyph-name="caron" horiz-adv-x="630" unicode="ˇ"/><glyph d="M471 1802q36 0 33 -35q-4 -109 -73 -170t-161 -61t-160.5 61.5t-72.5 169.5q-4 35 33 35q20 0 27 -5t9 -30q4 -74 47.5 -119.5t117 -45.5t116.5 46t47 119q2 25 9.5 30t27.5 5z" glyph-name="breve" horiz-adv-x="548" unicode="˘"/><glyph d="M82 1208.5q0 28.5 18.5 47t45 18.5t46 -18.5t19.5 -46.5t-18.5 -46t-46.5 -18t-46 17.5t-18 46z" glyph-name="dotaccent" horiz-adv-x="290" unicode="˙"/><glyph d="M141 1667q0 -43 31 -73.5t74 -30.5t73.5 30.5t30.5 73.5t-30.5 74t-73.5 31t-74 -31t-31 -74zM86 1667q0 68 46 115t113.5 47t115 -47t47.5 -115t-47.5 -114t-115 -46t-113.5 46t-46 114z" glyph-name="ring" horiz-adv-x="493" unicode="˚"/><glyph d="M170 57v-57q-66 -25 -89.5 -87.5t10.5 -120.5t118 -73q27 -4 20 -32l-4 -19q-6 -23 -32 -20q-84 12 -134.5 67.5t-53.5 121t39 128.5t126 92z" glyph-name="ogonek" horiz-adv-x="309" unicode="˛"/><glyph d="M471 1550q-59 0 -137 54.5t-115 54.5q-59 0 -119 -94q-12 -18 -32 -6l-15 8q-18 12 -8 30q74 123 170 123q57 0 136 -54t116 -54q59 0 119 94q12 18 32 6l15 -8q18 -12 8 -31q-74 -123 -170 -123z" glyph-name="tilde" horiz-adv-x="684" unicode="˜"/><glyph d="M92 1569q-29 -27 -45 -10.5t10 45.5l211 225q25 29 51.5 2t-2.5 -51zM432 1569q-29 -27 -45 -10.5t10 45.5l211 225q25 29 51.5 2t-2.5 -51z" glyph-name="hungarumlaut" horiz-adv-x="708" unicode="˝"/><glyph d="M221 1397q0 25 6 31t31 6h684q25 0 31 -6.5t6 -31t-6 -30.5t-31 -6h-606q-25 0 -31 -6t-6 -31v-494q0 -25 6 -30.5t31 -5.5h504q25 0 31 -6.5t6 -31t-6.5 -30.5t-30.5 -6h-504q-25 0 -31 -6t-6 -31v-571q0 -25 6 -31t31 -6h606q25 0 31 -6.5t6 -31t-6 -30.5t-31 -6h-684 q-25 0 -31 6t-6 31v1360zM668 1641q0 28 18.5 46.5t45 18.5t46 -19.5t19.5 -46t-18.5 -45t-46.5 -18.5t-46 18t-18 46zM399 1641q0 28 18.5 46.5t46.5 18.5t46 -19.5t18 -46t-18 -45t-47 -18.5t-46.5 18t-17.5 46z" glyph-name="afii10023" horiz-adv-x="1114" unicode="Ё"/><glyph d="M444 1323v-401q119 98 261 109t251 -83t109 -252v-348q0 -348 -246 -348q-40 0 -38.5 13.5t1.5 29.5q4 31 37 31q166 0 166 231v416q0 111 -88 177t-211 60t-242 -112v-807q0 -27 -6 -33t-32.5 -6t-32.5 6t-6 33v1284q0 25 -6.5 31t-30.5 6h-219q-25 0 -31 6t-6 30.5 t6 31t31 6.5h589q25 0 31 -6.5t6 -31t-6 -30.5t-31 -6h-219q-25 0 -31 -6t-6 -31z" glyph-name="afii10051" horiz-adv-x="1204" unicode="Ђ"/><glyph d="M299 39q0 -27 -6 -33t-33 -6t-33 6t-6 33v1358q0 25 6 31t31 6h623q25 0 31 -6.5t6 -31t-6.5 -30.5t-30.5 -6h-545q-25 0 -31 -6t-6 -31v-1284zM492 1595q-29 -27 -45.5 -10t10.5 45l211 225q25 29 51 2.5t-2 -51.5z" glyph-name="afii10052" horiz-adv-x="991" unicode="Ѓ"/><glyph d="M254 754h334q25 0 31 -6.5t6 -31t-6.5 -30.5t-30.5 -6h-334q-25 0 -31 -6t-6 -31q0 -276 131 -426.5t341 -150.5t351 141q18 18 28.5 18t27 -16t16.5 -25.5t-16 -25.5q-166 -166 -404 -166t-395.5 166t-157.5 471v176q0 305 158 471t395 166t404 -166q16 -16 16 -25.5 t-16.5 -26t-26.5 -16.5t-29 19q-141 141 -351 141t-341 -150.5t-131 -426.5q0 -25 6 -31t31 -6z" glyph-name="afii10053" horiz-adv-x="1226" unicode="Є"/><glyph d="M547 66q154 0 250 89t96 198t-75 184t-181.5 126.5t-213 105.5t-181 139t-74.5 212t107.5 224.5t306.5 97.5q88 0 172 -24.5t123 -49.5l41 -25q20 -14 8 -36l-11 -19q-12 -20 -36 -4q-137 84 -301 84t-248 -78t-84 -178t74.5 -175t181 -126t213 -105.5t181.5 -138.5 t75 -194q0 -166 -124 -273.5t-302 -107.5q-238 -1 -412 151q-23 20 -6 43l8 11q20 27 47 2q152 -133 365 -133z" glyph-name="afii10054" horiz-adv-x="1087" unicode="Ѕ"/><glyph d="M299 39q0 -27 -6 -33t-33 -6t-33 6t-6 33v1356q0 27 6 33t33 6t33 -6.5t6 -32.5v-1356z" glyph-name="afii10055" horiz-adv-x="520" unicode="І"/><glyph d="M299 39q0 -27 -6 -33t-33 -6t-33 6t-6 33v1356q0 27 6 33t33 6t33 -6.5t6 -32.5v-1356zM330 1641q0 28 18 46.5t46 18.5t46.5 -19.5t18.5 -46t-18.5 -45t-47 -18.5t-46 18t-17.5 46zM61 1641q0 28 18.5 46.5t45.5 18.5t46 -19.5t19 -46t-18 -45t-46 -18.5t-46.5 18 t-18.5 46z" glyph-name="afii10056" horiz-adv-x="520" unicode="Ї"/><glyph d="M709 1395v-1067q0 -150 -99.5 -243t-260.5 -93t-267 117q-23 25 -6 43l12 12q25 25 45 0q90 -98 215 -98t204 72.5t79 197.5v1059q0 27 6 33t32.5 6t33 -6t6.5 -33z" glyph-name="afii10057" horiz-adv-x="888" unicode="Ј"/><glyph d="M1065 1323q0 25 -6 31t-31 6h-575q-25 0 -31 -6t-6 -31v-987q0 -152 -82 -243t-223 -93h-2q-23 0 -29 6t-6 30.5t6 31t31 6.5q104 4 165.5 74.5t61.5 195.5v1053q0 25 6 31t31 6h731q25 0 31 -6.5t6 -30.5v-533q0 -25 6 -31t31 -6h223q219 0 337 -111.5t118 -285.5v-33 q0 -174 -118 -285.5t-337 -111.5h-301q-25 0 -31 6t-6 31v1286zM1180 754q-25 0 -31 -6.5t-6 -30.5v-606q0 -25 6 -31t31 -6h217q195 0 290 92t95 231v33q0 139 -95.5 231.5t-289.5 92.5h-217z" glyph-name="afii10058" horiz-adv-x="1974" unicode="Љ"/><glyph d="M1032 1395q0 27 6 33t33 6t33 -6.5t6 -32.5v-566q0 -25 6 -30.5t31 -5.5h223q219 0 337 -111t118 -285t-118 -285.5t-337 -111.5h-301q-25 0 -31 6t-6 31v645q0 25 -6 31t-31 6h-659q-25 0 -31 -6t-6 -31v-643q0 -27 -6 -33t-33 -6t-33 6t-6 33v1356q0 27 6 33t33 6 t33 -6.5t6 -32.5v-566q0 -25 6 -30.5t31 -5.5h659q25 0 31 6t6 30v566zM1147 74h217q195 0 290 92t95 231.5t-95 230.5t-290 91h-217q-25 0 -31 -6t-6 -31v-571q0 -25 6 -31t31 -6z" glyph-name="afii10059" horiz-adv-x="1941" unicode="Њ"/><glyph d="M440 37q0 -25 -6 -31t-30.5 -6t-30.5 6t-6 31v1286q0 25 -6.5 31t-30.5 6h-219q-25 0 -31 6t-6 30.5t6 31t31 6.5h585q25 0 31 -6.5t6 -31t-6 -30.5t-31 -6h-219q-25 0 -31 -6t-6 -31v-416q131 115 266 125t244 -80t109 -247v-668q0 -25 -6 -31t-31 -6t-31 6t-6 31v668 q0 119 -84 188t-210 65t-251 -120v-801z" glyph-name="afii10060" horiz-adv-x="1198" unicode="Ћ"/><glyph d="M299 676q0 -12 8 -14.5t15 6.5l659 751q12 14 41 15h31q16 0 19 -12.5t-7 -22.5l-543 -615q-12 -14 -12 -21t12 -24l543 -704q10 -10 7 -22.5t-19 -12.5h-33q-29 0 -41 14l-516 670q-12 18 -29 0l-112 -129q-23 -27 -23 -61v-455q0 -27 -6 -33t-33 -6t-33 6t-6 33v1356 q0 27 6 33t33 6t33 -6.5t6 -32.5v-719zM545 1595q-29 -27 -45.5 -10t10.5 45l211 225q25 29 51.5 2.5t-2.5 -51.5z" glyph-name="afii10061" horiz-adv-x="1140" unicode="Ќ"/><glyph d="M131 1434q33 0 43 -31l330 -940q8 -20 16 0l330 940q10 31 43 31q41 0 29 -35l-437 -1233q-39 -111 -117.5 -152t-177.5 -10q-23 8 -26.5 17t4.5 35t39 18q82 -25 135 10.5t78 101.5l47 127q10 31 0 64l-365 1022q-12 35 29 35zM713 1843q37 0 32 -35q-4 -109 -72.5 -170 t-160.5 -61t-160.5 61.5t-72.5 169.5q-4 35 32 35q20 0 27.5 -5t9.5 -30q4 -74 47 -120t117 -46t117 46.5t47 119.5q2 25 9 30t28 5z" glyph-name="afii10062" horiz-adv-x="1024" unicode="Ў"/><glyph d="M741 -37v-280q0 -27 -6 -33t-32.5 -6t-32.5 6t-6 33v280q0 25 -6.5 31t-30.5 6h-369q-25 0 -31 6t-6 31v1358q0 27 6 33t33 6t33 -6.5t6 -32.5v-1284q0 -25 6 -31t31 -6h725q25 0 31 6t6 31v1284q0 27 6 33t32.5 6t33 -6.5t6.5 -32.5v-1358q0 -25 -6.5 -31t-30.5 -6h-361 q-25 0 -31 -6t-6 -31z" glyph-name="afii10145" horiz-adv-x="1396" unicode="Џ"/><glyph d="M346 422q-20 0 -27.5 -5t-13.5 -24l-123 -352q-10 -29 -19 -35t-34 -6q-41 0 -27 41l469 1352q10 29 20.5 35t30.5 6t33 -4t23 -37l469 -1352q16 -41 -27 -41q-30 0 -38.5 10t-14.5 31l-123 352q-6 18 -13 23.5t-28 5.5h-557zM624.5 1317q-10.5 0 -12.5 -10l-266 -789 q-8 -23 14 -22h529q23 0 14 22l-266 789q-2 10 -12.5 10z" glyph-name="afii10017" horiz-adv-x="1249" unicode="А"/><glyph d="M336 754q-25 0 -31 -6.5t-6 -30.5v-606q0 -25 6 -31t31 -6h287q195 0 290 92t95 231v33q0 139 -95.5 231.5t-289.5 92.5h-287zM299 864q0 -25 6 -31t31 -6h293q219 0 336.5 -111.5t117.5 -285.5v-33q0 -174 -117.5 -285.5t-336.5 -111.5h-371q-25 0 -31 6t-6 31v1360 q0 25 6 31t31 6h684q25 0 31 -6.5t6 -31t-6 -30.5t-31 -6h-606q-25 0 -31 -6t-6 -31v-459z" glyph-name="afii10018" horiz-adv-x="1200" unicode="Б"/><glyph d="M258 0q-25 0 -31 6t-6 31v1360q0 25 6 31t31 6h369q193 0 301 -95.5t108 -261.5q0 -231 -196 -317q242 -80 241 -363q0 -397 -471 -397h-352zM336 719q-25 0 -31 -6t-6 -31v-571q0 -25 6 -31t31 -6h268q213 0 307.5 83t94.5 240q0 313 -381 322h-289zM299 829 q0 -25 6 -30.5t31 -5.5h299q168 0 247 82.5t79 201.5t-78 201t-248 82h-299q-25 0 -31 -6t-6 -31v-494z" glyph-name="afii10019" horiz-adv-x="1220" unicode="В"/><glyph d="M299 39q0 -27 -6 -33t-33 -6t-33 6t-6 33v1358q0 25 6 31t31 6h623q25 0 31 -6.5t6 -31t-6.5 -30.5t-30.5 -6h-545q-25 0 -31 -6t-6 -31v-1284z" glyph-name="afii10020" horiz-adv-x="991" unicode="Г"/><glyph d="M1339 0h-1149q-25 0 -30.5 -6t-5.5 -31v-280q0 -27 -6.5 -33t-33 -6t-32.5 6t-6 33v354q0 25 6 31t31 6h213q6 23 37 132.5t83 446t52 744.5q0 25 6 31t31 6h620q25 0 31 -6.5t6 -30.5v-1286q0 -25 6 -31t31 -6h188q25 0 31 -6.5t6 -30.5v-354q0 -27 -6 -33t-32.5 -6 t-33 6t-6.5 33v280q0 25 -6 31t-31 6zM1077 74q25 0 31 6t6 31v1212q0 25 -6 31t-31 6h-465q-25 0 -31 -6t-6 -31q0 -307 -41.5 -619.5t-82.5 -470.5l-43 -159h669z" glyph-name="afii10021" horiz-adv-x="1529" unicode="Д"/><glyph d="M221 1397q0 25 6 31t31 6h684q25 0 31 -6.5t6 -31t-6 -30.5t-31 -6h-606q-25 0 -31 -6t-6 -31v-494q0 -25 6 -30.5t31 -5.5h504q25 0 31 -6.5t6 -31t-6.5 -30.5t-30.5 -6h-504q-25 0 -31 -6t-6 -31v-571q0 -25 6 -31t31 -6h606q25 0 31 -6.5t6 -31t-6 -30.5t-31 -6h-684 q-25 0 -31 6t-6 31v1360z" glyph-name="afii10022" horiz-adv-x="1114" unicode="Е"/><glyph d="M950 676q0 -12 8.5 -14.5t14.5 6.5l659 751q12 14 41 15h31q16 0 19 -12.5t-7 -22.5l-542 -615q-12 -14 -12.5 -21t12.5 -24l542 -704q10 -10 7 -22.5t-19 -12.5h-33q-29 0 -41 14l-516 670q-12 18 -29 0l-112 -129q-23 -27 -23 -61v-455q0 -27 -6 -33t-32.5 -6t-33 6 t-6.5 33v455q0 35 -22 61l-113 129q-16 18 -28 0l-516 -670q-12 -14 -41 -14h-33q-16 0 -19.5 12.5t6.5 22.5l543 704q12 16 12.5 23.5t-12.5 21.5l-543 615q-10 10 -7 22.5t20 12.5h31q29 0 40 -15l660 -751q6 -8 14 -6t8 14v719q0 27 6.5 33t33 6t32.5 -6.5t6 -32.5v-719z " glyph-name="afii10024" horiz-adv-x="1822" unicode="Ж"/><glyph d="M555 727q-25 0 -31 6t-6 30.5t6 31t31 6.5q102 0 158.5 68.5t56.5 201.5t-85 215t-223 82t-237 -104q-18 -18 -28.5 -18.5t-30.5 20.5t2 45q119 131 285 131t277.5 -96.5t113.5 -278.5q0 -219 -144 -303q172 -92 172 -348q0 -207 -121 -315.5t-305 -108.5t-317 145 q-23 25 -3 45t31 20.5t29 -18.5q47 -51 122 -84.5t151 -33.5q152 2 246 95t94 243t-62.5 234.5t-171.5 88.5h-10z" glyph-name="afii10025" horiz-adv-x="1013" unicode="З"/><glyph d="M1170 1434q24 0 30 -6.5t6 -32.5v-1356q0 -27 -6 -33t-32.5 -6t-33 6t-6.5 33v1206q0 10 -7 13.5t-15 -9.5l-801 -1224q-12 -18 -19 -21.5t-30 -3.5t-29 6t-6 33v1356q0 27 6 33t33 6t33 -6.5t6 -32.5v-1207q0 -10 7 -13t16 9l800 1225q12 18 18 21.5t30 3.5z" glyph-name="afii10026" horiz-adv-x="1427" unicode="И"/><glyph d="M1170 1434q24 0 30 -6.5t6 -32.5v-1356q0 -27 -6 -33t-32.5 -6t-33 6t-6.5 33v1206q0 10 -7 13.5t-15 -9.5l-801 -1224q-12 -18 -19 -21.5t-30 -3.5t-29 6t-6 33v1356q0 27 6 33t33 6t33 -6.5t6 -32.5v-1207q0 -10 7 -13t16 9l800 1225q12 18 18 21.5t30 3.5zM913 1843 q36 0 33 -35q-4 -109 -72.5 -170t-160.5 -61t-161 61.5t-73 169.5q-4 35 33 35q20 0 27.5 -5t9.5 -30q4 -74 47 -120t116.5 -46t116.5 46.5t48 119.5q2 25 9 30t27 5z" glyph-name="afii10027" horiz-adv-x="1427" unicode="Й"/><glyph d="M299 676q0 -12 8 -14.5t15 6.5l659 751q12 14 41 15h31q16 0 19 -12.5t-7 -22.5l-543 -615q-12 -14 -12 -21t12 -24l543 -704q10 -10 7 -22.5t-19 -12.5h-33q-29 0 -41 14l-516 670q-12 18 -29 0l-112 -129q-23 -27 -23 -61v-455q0 -27 -6 -33t-33 -6t-33 6t-6 33v1356 q0 27 6 33t33 6t33 -6.5t6 -32.5v-719z" glyph-name="afii10028" horiz-adv-x="1140" unicode="К"/><glyph d="M1143 39q0 -27 -6.5 -33t-33 -6t-32.5 6t-6 33v1284q0 25 -6 31t-31 6h-575q-25 0 -31 -6t-6 -31v-987q0 -152 -82 -243t-223 -93h-2q-23 0 -29 6t-6 30.5t6 31t31 6.5q104 4 165.5 74.5t61.5 195.5v1053q0 25 6 31t31 6h731q25 0 31 -6.5t6 -30.5v-1358z" glyph-name="afii10029" horiz-adv-x="1363" unicode="Л"/><glyph d="M831.5 0q-32.5 0 -43.5 29l-409 1159q-4 12 -13.5 11t-9.5 -13l-96 -1145q-2 -23 -10 -32t-30.5 -9t-31 9t-6.5 32l113 1352q2 23 10.5 32t28.5 9t26.5 -4.5t12.5 -20.5l448 -1266q2 -8 10.5 -8t10.5 8l448 1266q6 16 13 20.5t27 4.5t28 -9.5t10 -31.5l113 -1352 q2 -23 -6.5 -32t-31 -9t-30.5 9t-10 32l-96 1145q0 12 -9.5 13t-13.5 -11l-410 -1159q-10 -29 -42.5 -29z" glyph-name="afii10030" horiz-adv-x="1662" unicode="М"/><glyph d="M1032 682q0 25 -6 31t-31 6h-659q-25 0 -31 -6t-6 -31v-643q0 -27 -6 -33t-33 -6t-33 6t-6 33v1356q0 27 6 33t33 6t33 -6.5t6 -32.5v-566q0 -25 6 -30.5t31 -5.5h659q25 0 31 6t6 30v566q0 27 6 33t33 6t33 -6.5t6 -32.5v-1356q0 -27 -6 -33t-33 -6t-33 6t-6 33v643z " glyph-name="afii10031" horiz-adv-x="1331" unicode="Н"/><glyph d="M702.5 -8q-247.5 0 -405.5 166t-158 471v176q0 305 158 471t405.5 166t405.5 -166t158 -471v-176q0 -305 -158 -471t-405.5 -166zM702.5 1368q-223.5 0 -354.5 -150.5t-131 -426.5v-148q0 -276 131 -426.5t354.5 -150.5t354.5 150.5t131 426.5v148q0 276 -131 426.5 t-354.5 150.5z" glyph-name="afii10032" horiz-adv-x="1404" unicode="О"/><glyph d="M1176 39q0 -27 -6.5 -33t-33 -6t-32.5 6t-6 33v1284q0 25 -6.5 31t-30.5 6h-725q-25 0 -31 -6t-6 -31v-1284q0 -27 -6 -33t-33 -6t-33 6t-6 33v1358q0 25 6 31t31 6h881q25 0 31 -6.5t6 -30.5v-1358z" glyph-name="afii10033" horiz-adv-x="1396" unicode="П"/><glyph d="M299 487v-448q0 -27 -6 -33t-33 -6t-33 6t-6 33v1358q0 25 6 31t31 6h317q233 0 352.5 -127t119.5 -328t-119 -328t-353 -127h-239q-25 0 -31 -6t-6 -31zM569 1360h-233q-25 0 -31 -6t-6 -31v-688q0 -25 6 -31t31 -6h233q207 0 304.5 107.5t97.5 273.5t-97.5 273.5 t-304.5 107.5z" glyph-name="afii10034" horiz-adv-x="1163" unicode="Р"/><glyph d="M217 791v-148q0 -276 131 -426.5t341 -150.5t351 141q18 18 28.5 18t27 -16t16.5 -25.5t-16 -25.5q-166 -166 -404 -166t-395.5 166t-157.5 471v176q0 305 158 471t395 166t404 -166q16 -16 16 -25.5t-16.5 -26t-26.5 -16.5t-29 19q-141 141 -351 141t-341 -150.5 t-131 -426.5z" glyph-name="afii10035" horiz-adv-x="1226" unicode="С"/><glyph d="M553 1323v-1284q0 -27 -6 -33t-33 -6t-33 6t-6 33v1284q0 25 -6 31t-31 6h-327q-25 0 -31 6t-6 30.5t6 31t31 6.5h807q25 0 30.5 -6.5t5.5 -31t-6 -30.5t-30 -6h-328q-25 0 -31 -6t-6 -31z" glyph-name="afii10036" horiz-adv-x="1028" unicode="Т"/><glyph d="M131 1434q33 0 43 -31l330 -940q8 -20 16 0l330 940q10 31 43 31q41 0 29 -35l-437 -1233q-39 -111 -117.5 -152t-177.5 -10q-23 8 -26.5 17t4.5 35t39 18q82 -25 135 10.5t78 101.5l47 127q10 31 0 64l-365 1022q-12 35 29 35z" glyph-name="afii10037" horiz-adv-x="1024" unicode="У"/><glyph d="M139 719q0 285 160 443.5t403 158.5h64q25 0 31 6t6 31v39q0 25 6 31t30.5 6t31 -6.5t6.5 -30.5v-39q0 -25 6 -31t30 -6h64q244 0 403.5 -158.5t159.5 -446.5t-159.5 -445.5t-403.5 -157.5h-64q-25 0 -30.5 -6.5t-5.5 -30.5v-39q0 -25 -6.5 -31t-31 -6t-30.5 6t-6 31v39 q0 25 -6 31t-31 6h-82q-238 6 -391.5 163.5t-153.5 442.5zM702 1247q-217 0 -351 -139t-134 -391t134 -391.5t351 -139.5h64q25 0 31 6.5t6 30.5v987q0 25 -6 31t-31 6h-64zM877 1210v-987q0 -25 6 -31t30 -6h64q217 0 351 139.5t134 391.5t-134 391t-351 139h-64 q-25 0 -30.5 -6t-5.5 -31z" glyph-name="afii10038" horiz-adv-x="1679" unicode="Ф"/><glyph d="M127 0h-4q-16 0 -22.5 11.5t3.5 29.5l400 668q12 18 0 36l-379 648q-10 18 -4 29.5t22 11.5h4q25 0 32 -4.5t20 -24.5l344 -596q12 -20 24 0l344 596q12 20 19.5 24.5t32.5 4.5h4q16 0 22 -11.5t-4 -29.5l-379 -648q-12 -18 0 -36l400 -668q10 -18 4 -29.5t-23 -11.5h-4 q-25 0 -32 4t-19 25l-365 614q-12 20 -24 0l-365 -614q-12 -20 -19 -24.5t-32 -4.5z" glyph-name="afii10039" horiz-adv-x="1110" unicode="Х"/><glyph d="M1294 -317v280q0 25 -6 31t-31 6h-999q-25 0 -31 6t-6 31v1358q0 27 6 33t33 6t33 -6.5t6 -32.5v-1284q0 -25 6 -31t31 -6h659q25 0 31 6t6 31v1284q0 27 6 33t33 6t33 -6.5t6 -32.5v-1284q0 -25 6 -31t31 -6h188q25 0 31 -6.5t6 -30.5v-354q0 -27 -6 -33t-32.5 -6t-33 6 t-6.5 33z" glyph-name="afii10040" horiz-adv-x="1447" unicode="Ц"/><glyph d="M991 39q0 -27 -6 -33t-32.5 -6t-33 6t-6.5 33v647q-162 -141 -344 -148t-307 91t-125 303v463q0 27 6.5 33t33 6t32.5 -6.5t6 -32.5v-463q0 -162 106.5 -244t253.5 -78q100 2 192.5 50.5t145.5 107.5v627q0 27 6.5 33t33 6t32.5 -6.5t6 -32.5v-1356z" glyph-name="afii10041" horiz-adv-x="1210" unicode="Ч"/><glyph d="M336 74h500q25 0 30.5 6t5.5 31v1284q0 27 6.5 33t33 6t32.5 -6.5t6 -32.5v-1284q0 -25 6.5 -31t30.5 -6h500q25 0 31 6t6 31v1284q0 27 6 33t32.5 6t33 -6.5t6.5 -32.5v-1358q0 -25 -6.5 -31t-30.5 -6h-1307q-25 0 -31 6t-6 31v1358q0 27 6 33t33 6t33 -6.5t6 -32.5 v-1284q0 -25 6 -31t31 -6z" glyph-name="afii10042" horiz-adv-x="1822" unicode="Ш"/><glyph d="M221 1395q0 27 6 33t33 6t33 -6.5t6 -32.5v-1284q0 -25 6 -31t31 -6h500q25 0 30.5 6t5.5 31v1284q0 27 6.5 33t33 6t32.5 -6.5t6 -32.5v-1284q0 -25 6.5 -31t30.5 -6h500q25 0 31 6t6 31v1284q0 27 6 33t32.5 6t33 -6.5t6.5 -32.5v-1284q0 -25 6 -31t30 -6h189 q25 0 31 -6.5t6 -30.5v-354q0 -27 -6.5 -33t-33 -6t-32.5 6t-6 33v280q0 25 -6 31t-31 6h-1491q-25 0 -31 6t-6 31v1358z" glyph-name="afii10043" horiz-adv-x="1939" unicode="Щ"/><glyph d="M444 864q0 -25 6.5 -31t30.5 -6h293q219 0 337 -111.5t118 -285.5v-33q0 -174 -118 -285.5t-337 -111.5h-371q-25 0 -30.5 6t-5.5 31v1286q0 25 -6.5 31t-30.5 6h-219q-25 0 -31 6t-6 30.5t6 31t31 6.5h297q25 0 30.5 -6.5t5.5 -30.5v-533zM481 754q-25 0 -31 -6.5 t-6 -30.5v-606q0 -25 6.5 -31t30.5 -6h287q195 0 290 92t95 231v33q0 139 -95 231.5t-290 92.5h-287z" glyph-name="afii10044" horiz-adv-x="1345" unicode="Ъ"/><glyph d="M336 754q-25 0 -31 -6.5t-6 -30.5v-606q0 -25 6 -31t31 -6h287q195 0 290 92t95 231v33q0 139 -95.5 231.5t-289.5 92.5h-287zM299 864q0 -25 6 -31t31 -6h293q219 0 336.5 -111.5t117.5 -285.5v-33q0 -174 -117.5 -285.5t-336.5 -111.5h-371q-25 0 -31 6t-6 31v1358 q0 27 6 33t33 6t33 -6.5t6 -32.5v-531zM1419 39q0 -27 -6 -33t-32.5 -6t-33 6t-6.5 33v1356q0 27 6.5 33t33 6t32.5 -6.5t6 -32.5v-1356z" glyph-name="afii10045" horiz-adv-x="1640" unicode="Ы"/><glyph d="M336 754q-25 0 -31 -6.5t-6 -30.5v-606q0 -25 6 -31t31 -6h287q195 0 290 92t95 231v33q0 139 -95.5 231.5t-289.5 92.5h-287zM299 864q0 -25 6 -31t31 -6h293q219 0 336.5 -111.5t117.5 -285.5v-33q0 -174 -117.5 -285.5t-336.5 -111.5h-371q-25 0 -31 6t-6 31v1358 q0 27 6 33t33 6t33 -6.5t6 -32.5v-531z" glyph-name="afii10046" horiz-adv-x="1200" unicode="Ь"/><glyph d="M639 754h334q25 0 31 6t6 31q0 276 -131 426.5t-341 150.5t-352 -141q-18 -18 -28.5 -18.5t-26.5 16t-16 26t16 25.5q165 166 403 166t395.5 -166t157.5 -471v-176q0 -305 -157.5 -471t-395.5 -166t-403 166q-16 16 -16 25.5t16 25.5t26.5 16t28.5 -18q141 -141 351 -141 t341.5 150.5t131.5 426.5q0 25 -6.5 31t-30.5 6h-334q-25 0 -31 6t-6 30.5t6 31t31 6.5z" glyph-name="afii10047" horiz-adv-x="1226" unicode="Э"/><glyph d="M641 643q0 25 -6 31t-31 6h-268q-25 0 -31 -6t-6 -31v-604q0 -27 -6 -33t-33 -6t-33 6t-6 33v1356q0 27 6 33t33 6t33 -6.5t6 -32.5v-604q0 -25 6 -31t31 -6h268q25 0 31 6t6 31v14q0 305 157.5 471t405.5 166t405.5 -166t157.5 -471v-176q0 -305 -157.5 -471 t-405.5 -166t-405.5 166t-157.5 471v14zM719 791v-148q0 -276 131 -426.5t354 -150.5t354.5 150.5t131.5 426.5v148q0 276 -131.5 426.5t-354.5 150.5t-354 -150.5t-131 -426.5z" glyph-name="afii10048" horiz-adv-x="1906" unicode="Ю"/><glyph d="M942 39v547q0 25 -6 31t-31 6h-321l-353 -594q-12 -20 -19 -24.5t-32 -4.5h-14q-16 0 -22.5 11.5t3.5 29.5l351 588q-356 47 -357 399q0 195 117 300.5t354 105.5h371q25 0 31 -6.5t6 -30.5v-1358q0 -27 -6 -33t-33 -6t-33 6t-6 33zM905 1360h-287q-401 0 -401 -332 t401 -332h287q25 0 31 6.5t6 30.5v590q0 25 -6 31t-31 6z" glyph-name="afii10049" horiz-adv-x="1241" unicode="Я"/><glyph d="M840 37q0 -25 -6.5 -31t-31 -6t-30.5 6t-6 31v80q-106 -113 -267 -124t-271.5 82t-110.5 250.5t110.5 252t268.5 83.5t270 -124v151q0 125 -80 197.5t-204 72.5t-216 -98q-20 -25 -45 0l-12 12q-16 18 6 43q106 117 267 117t259.5 -93t98.5 -243v-659zM193 325.5 q0 -135.5 93 -205t230 -61.5t250 125v283q-113 117 -250 125t-230 -61.5t-93 -205z" glyph-name="afii10065" horiz-adv-x="999" unicode="а"/><glyph d="M534.5 66q147.5 0 234.5 101t87 294v102q0 193 -87 294t-234.5 101t-234.5 -101t-87 -294v-102q0 -193 87 -294t234.5 -101zM139 885q0 236 107.5 327t322.5 91q117 0 152 13t43 77q4 25 11 33t31 8t32 -10t3 -44t-21.5 -65t-46 -57.5t-212.5 -26.5q-182 0 -265 -82 t-83 -264v-33q104 180 322 180q176 0 285.5 -118.5t109.5 -338.5v-126q0 -219 -109.5 -338t-286 -119t-286 118.5t-109.5 338.5v436z" glyph-name="afii10066" horiz-adv-x="1069" unicode="б"/><glyph d="M217 0q-25 0 -31 6t-6 31v950q0 25 6.5 31t30.5 6h244q137 0 223 -65.5t86 -202.5q0 -172 -135 -236q135 -72 135 -241q0 -139 -87 -209t-222 -70h-244zM291 485q-25 0 -31 -6t-6 -30v-338q0 -25 6 -31t31 -6h176q98 0 163.5 51t65.5 153t-63.5 153.5t-159.5 53.5h-182z M291 559h182q223 4 223 195q0 102 -64.5 149t-164.5 47h-176q-25 0 -31 -6t-6 -31v-317q0 -25 6 -31t31 -6z" glyph-name="afii10067" horiz-adv-x="909" unicode="в"/><glyph d="M217 1024h490q25 0 30.5 -6t5.5 -30.5t-6 -31t-30 -6.5h-416q-25 0 -31 -6t-6 -31v-876q0 -25 -6 -31t-30.5 -6t-31 6t-6.5 31v950q0 25 6 31t31 6z" glyph-name="afii10068" horiz-adv-x="817" unicode="г"/><glyph d="M147 0q-25 0 -30.5 -6t-5.5 -31v-186q0 -25 -6.5 -31t-31 -6t-30.5 6t-6 31v260q0 25 6 31t31 6h108q6 12 17.5 34.5t76 224.5t64.5 654q0 25 6 31t31 6h467q25 0 31 -6t6 -31v-876q0 -25 6 -31t31 -6h131q25 0 30.5 -6.5t5.5 -30.5v-260q0 -25 -6 -31t-30.5 -6t-30.5 6 t-6 31v186q0 25 -6.5 31t-30.5 6h-828zM414 913q0 -231 -44 -469.5t-112 -369.5h512q25 0 31 6t6 31v802q0 25 -6 31t-31 6h-319q-25 0 -31 -6t-6 -31z" glyph-name="afii10069" horiz-adv-x="1163" unicode="д"/><glyph d="M254 479q-39 0 -41 -18q0 -186 86 -290.5t228 -104.5t247 114q27 29 53.5 2.5t-0.5 -57.5q-121 -133 -296 -133t-283.5 118.5t-108.5 338.5v126q0 219 108.5 338t268.5 119t266.5 -118.5t106.5 -338.5v-55q0 -23 -9.5 -32t-31.5 -9h-594zM514 958q-129 0 -212 -94 t-89 -276v-23q0 -14 8 -17t33 -3h520q31 0 36 5t5 15v23q-6 182 -89 276t-212 94z" glyph-name="afii10070" horiz-adv-x="1028" unicode="е"/><glyph d="M684 1024q25 0 31 -6t6 -31v-532q0 -14 8 -12.5t10 6.5l435 546q23 29 57 29h10q18 0 22.5 -12.5t-8.5 -28.5l-299 -377q-8 -10 0 -24l326 -541q10 -16 5 -28.5t-25 -12.5h-7q-35 0 -51 29l-299 495q-8 14 -20 0l-148 -184q-16 -23 -16 -70v-233q0 -25 -6 -31t-31 -6 t-31 6t-6 31v233q0 47 -16 70l-148 184q-12 14 -20 0l-299 -495q-16 -29 -51 -29h-7q-20 0 -25 12.5t5 28.5l326 541q8 14 0 24l-299 377q-12 16 -8 28.5t22 12.5h10q35 0 58 -29l434 -546q7 -13 12.5 -6.5t5.5 12.5v532q0 25 6 31t31 6z" glyph-name="afii10072" horiz-adv-x="1368" unicode="ж"/><glyph d="M434 475q-25 0 -31 6t-6 31t6.5 31t30.5 6h43q70 0 126 32.5t63 112.5q10 117 -68 190.5t-198 73.5t-226 -108q-18 -18 -28 -18.5t-30 19.5t3 46q123 135 277 135t251.5 -96t87.5 -248q-8 -117 -108 -176q100 -59 108 -176q10 -152 -87.5 -248t-251.5 -96t-277 135 q-23 27 -3 46t30 19.5t28 -18.5q104 -108 226 -108t199 73.5t67 190.5q-6 76 -60.5 109.5t-122.5 35.5h-49z" glyph-name="afii10073" horiz-adv-x="882" unicode="з"/><glyph d="M254 154q0 -6 6 -8.5t10 4.5l545 839q16 25 26.5 30t34.5 5t29.5 -6t5.5 -31v-950q0 -25 -6 -31t-30.5 -6t-30.5 6t-6 31v833q0 6 -6.5 8.5t-10.5 -4.5l-545 -839q-16 -25 -26 -30t-34 -5t-30 6t-6 31v950q0 25 6.5 31t31 6t30.5 -6t6 -31v-833z" glyph-name="afii10074" horiz-adv-x="1091" unicode="и"/><glyph d="M254 154q0 -6 6 -8.5t10 4.5l545 839q16 25 26.5 30t34.5 5t29.5 -6t5.5 -31v-950q0 -25 -6 -31t-30.5 -6t-30.5 6t-6 31v833q0 6 -6.5 8.5t-10.5 -4.5l-545 -839q-16 -25 -26 -30t-34 -5t-30 6t-6 31v950q0 25 6.5 31t31 6t30.5 -6t6 -31v-833zM745 1434q36 0 33 -35 q-4 -109 -72.5 -170.5t-160.5 -61.5t-161 61.5t-73 170.5q-4 35 33 35q20 0 27.5 -5.5t9.5 -29.5q4 -74 47 -120t116.5 -46t117 46t47.5 120q2 25 9 30t27 5z" glyph-name="afii10075" horiz-adv-x="1091" unicode="й"/><glyph d="M254 455q0 -14 8 -12.5t10 6.5l435 546q23 29 57 29h10q18 0 22.5 -12.5t-8.5 -28.5l-299 -377q-8 -10 0 -24l326 -541q10 -16 5 -28.5t-25 -12.5h-7q-35 0 -51 29l-299 495q-8 14 -20 0l-148 -184q-16 -23 -16 -70v-233q0 -25 -6 -31t-30.5 -6t-31 6t-6.5 31v950 q0 25 6.5 31t31 6t30.5 -6t6 -31v-532z" glyph-name="afii10076" horiz-adv-x="901" unicode="к"/><glyph d="M231 987q0 25 6.5 31t30.5 6h570q25 0 30.5 -6t5.5 -31v-950q0 -25 -6 -31t-30.5 -6t-30.5 6t-6 31v876q0 25 -6.5 31t-30.5 6h-422q-25 0 -31 -6t-6 -31v-524q0 -217 -19.5 -258t-50 -86t-133.5 -45q-25 0 -33 7t-8 29.5t8.5 30t32.5 7.5q66 2 97.5 44t31.5 165v704z " glyph-name="afii10077" horiz-adv-x="1054" unicode="л"/><glyph d="M647 125q8 0 10 8l361 856q10 25 21 30t37 5t32 -6t6 -31v-950q0 -25 -6 -31t-30.5 -6t-31 6t-6.5 31v776q0 4 -5 9t-11 -7l-330 -780q-10 -25 -18 -30t-28.5 -5t-29 5t-18.5 30l-330 780q-6 12 -11 7t-5 -9v-776q0 -25 -6 -31t-30.5 -6t-31 6t-6.5 31v950q0 25 7 31 t33 6t36 -5t20 -30l361 -856q2 -8 10 -8z" glyph-name="afii10078" horiz-adv-x="1294" unicode="м"/><glyph d="M291 487q-25 0 -31 -6t-6 -30v-414q0 -25 -6 -31t-30.5 -6t-31 6t-6.5 31v950q0 25 6.5 31t31 6t30.5 -6t6 -31v-389q0 -25 6 -31t31 -6h528q25 0 31 6t6 31v389q0 25 6 31t31 6t31 -6t6 -31v-950q0 -25 -6 -31t-31 -6t-31 6t-6 31v414q0 25 -6 30.5t-31 5.5h-528z" glyph-name="afii10079" horiz-adv-x="1110" unicode="н"/><glyph d="M930 575v-126q0 -219 -109.5 -338t-286 -119t-286 118.5t-109.5 338.5v126q0 219 109.5 338t286 119t286 -119t109.5 -338zM534.5 66q147.5 0 234.5 101t87 294v102q0 193 -87 294t-234.5 101t-234.5 -101t-87 -294v-102q0 -193 87 -294t234.5 -101z" glyph-name="afii10080" horiz-adv-x="1069" unicode="о"/><glyph d="M217 1024h676q25 0 31 -6t6 -31v-950q0 -25 -6 -31t-31 -6t-31 6t-6 31v876q0 25 -6 31t-31 6h-528q-25 0 -31 -6t-6 -31v-876q0 -25 -6 -31t-30.5 -6t-31 6t-6.5 31v950q0 25 6 31t31 6z" glyph-name="afii10081" horiz-adv-x="1110" unicode="п"/><glyph d="M254 987v-98q118 133 274 144t262.5 -112.5t106.5 -345.5v-126q0 -221 -106.5 -345t-262.5 -113t-274 144v-600q0 -25 -6 -31t-30.5 -6t-31 6.5t-6.5 30.5v1452q0 25 6.5 31t31 6t30.5 -6t6 -31zM823 436v152q0 178 -85.5 277t-231.5 93t-252 -145v-602 q106 -139 252 -145t231.5 93t85.5 277z" glyph-name="afii10082" unicode="р"/><glyph d="M213 563v-102q0 -186 86 -290.5t228 -104.5t247 114q27 29 53.5 2.5t-0.5 -57.5q-121 -133 -296 -133t-283.5 118.5t-108.5 338.5v126q0 219 108.5 338t283.5 119t296 -133q27 -31 0.5 -57.5t-53.5 2.5q-104 114 -246 114t-228.5 -104.5t-86.5 -290.5z" glyph-name="afii10083" horiz-adv-x="954" unicode="с"/><glyph d="M791 1024q25 0 30.5 -6t5.5 -30.5t-6 -31t-30 -6.5h-267q-25 0 -31 -6t-6 -31v-876q0 -25 -6 -31t-30.5 -6t-30.5 6t-6 31v876q0 25 -6.5 31t-30.5 6h-266q-25 0 -31 6.5t-6 31t6 30.5t31 6h680z" glyph-name="afii10084" horiz-adv-x="901" unicode="т"/><glyph d="M113 1024q33 0 43 -31l313 -893q8 -20 16 0l314 893q10 31 43 31q40 0 28 -35l-467 -1321q-39 -111 -117.5 -152.5t-176.5 -11.5q-23 8 -27 17t4 35t39 18q82 -25 135 12t78 103l94 262q10 33 0 63l-348 975q-12 35 29 35z" glyph-name="afii10085" horiz-adv-x="952" unicode="у"/><glyph d="M535 0q-176 0 -286 119t-110 338v110q0 219 109.5 338t286.5 119h55q25 0 31 6t6 31v24q0 27 6 33t32.5 6t33 -6t6.5 -33v-24q0 -25 6 -31t30 -6h56q176 0 285.5 -119t109.5 -338v-110q0 -219 -109.5 -338t-285.5 -119h-56q-25 0 -30.5 -6t-5.5 -31v-24q0 -27 -6.5 -33 t-33 -6t-32.5 6t-6 33v24q0 25 -6.5 31t-30.5 6h-55zM741 74h56q147 0 234 101t87 294v86q0 193 -87 294t-234 101h-56q-25 0 -30.5 -6t-5.5 -31v-802q0 -25 5.5 -31t30.5 -6zM590 74q25 0 31 6t6 31v802q0 25 -6.5 31t-30.5 6h-55q-147 0 -234.5 -101t-87.5 -294v-86 q0 -193 87 -294t235 -101h55z" glyph-name="afii10086" horiz-adv-x="1331" unicode="ф"/><glyph d="M106 0q-22 0 -28 12.5t6 28.5l346 475q8 12 0 23l-324 444q-12 16 -6 28.5t29 12.5t31 -5t30 -36l279 -387q10 -14 20 0l279 387q23 31 31 36t30 5t28.5 -12.5t-5.5 -28.5l-324 -444q-8 -10 0 -23l346 -475q12 -16 6 -28.5t-28 -12.5t-30.5 5t-30.5 36l-302 418 q-10 14 -20 0l-301 -418q-23 -31 -31.5 -36t-30.5 -5z" glyph-name="afii10087" horiz-adv-x="958" unicode="х"/><glyph d="M819 74q25 0 31 6t6 31v876q0 25 6 31t31 6t31 -6t6 -31v-876q0 -25 6 -31t31 -6h131q25 0 31 -6.5t6 -30.5v-260q0 -25 -6.5 -31t-31 -6t-30.5 6t-6 31v186q0 25 -6 31t-31 6h-805q-25 0 -31 6t-6 31v950q0 25 6.5 31t31 6t30.5 -6t6 -31v-876q0 -25 6 -31t31 -6h526z " glyph-name="afii10088" horiz-adv-x="1212" unicode="ц"/><glyph d="M213 623q0 -119 82 -188.5t203 -66.5t241 107v512q0 25 6.5 31t31 6t30.5 -6t6 -31v-950q0 -25 -6 -31t-30.5 -6t-31 6t-6.5 31v369q-127 -102 -239 -111q-147 -10 -254 80t-107 248v364q0 25 6.5 31t31 6t30.5 -6t6 -31v-364z" glyph-name="afii10089" horiz-adv-x="993" unicode="ч"/><glyph d="M217 0q-25 0 -31 6t-6 31v950q0 25 6.5 31t31 6t30.5 -6t6 -31v-876q0 -25 6 -31t31 -6h381q25 0 31 6t6 31v876q0 25 6 31t30.5 6t30.5 -6t6 -31v-876q0 -25 6.5 -31t30.5 -6h381q25 0 31 6t6 31v876q0 25 6 31t30.5 6t31 -6t6.5 -31v-950q0 -25 -6.5 -31t-30.5 -6 h-1057z" glyph-name="afii10090" horiz-adv-x="1490" unicode="ш"/><glyph d="M1200 74q25 0 31 6t6 31v876q0 25 6 31t30.5 6t31 -6t6.5 -31v-876q0 -25 6 -31t31 -6h131q25 0 31 -6.5t6 -30.5v-260q0 -25 -6.5 -31t-31 -6t-30.5 6t-6 31v186q0 25 -6 31t-31 6h-1188q-25 0 -31 6t-6 31v950q0 25 6.5 31t31 6t30.5 -6t6 -31v-876q0 -25 6 -31t31 -6 h381q25 0 31 6t6 31v876q0 25 6 31t30.5 6t30.5 -6t6 -31v-876q0 -25 6.5 -31t30.5 -6h381z" glyph-name="afii10091" horiz-adv-x="1593" unicode="щ"/><glyph d="M295 913q0 25 -6 31t-31 6h-154q-25 0 -30.5 6.5t-5.5 31t6 30.5t30 6h228q25 0 31 -6t6 -31v-276q0 -25 6 -31t31 -6h106q162 0 267.5 -85t105.5 -253t-105.5 -252t-267.5 -84h-180q-25 0 -31 6t-6 31v876zM520 74q131 0 211 62.5t80 199.5t-80 200.5t-211 63.5h-114 q-25 0 -31 -6t-6 -31v-452q0 -25 6 -31t31 -6h114z" glyph-name="afii10092" horiz-adv-x="1024" unicode="ъ"/><glyph d="M1126 37q0 -25 -6 -31t-30.5 -6t-30.5 6t-6 31v950q0 25 6 31t30.5 6t30.5 -6t6 -31v-950zM180 987q0 25 6.5 31t31 6t30.5 -6t6 -31v-276q0 -25 6 -31t31 -6h106q162 0 267.5 -85t105.5 -253t-105.5 -252t-267.5 -84h-180q-25 0 -31 6t-6 31v950zM406 74 q131 0 210.5 62.5t79.5 199.5t-79.5 200.5t-210.5 63.5h-115q-25 0 -31 -6t-6 -31v-452q0 -25 6 -31t31 -6h115z" glyph-name="afii10093" horiz-adv-x="1306" unicode="ы"/><glyph d="M180 987q0 25 6.5 31t31 6t30.5 -6t6 -31v-276q0 -25 6 -31t31 -6h106q162 0 267.5 -85t105.5 -253t-105.5 -252t-267.5 -84h-180q-25 0 -31 6t-6 31v950zM406 74q131 0 210.5 62.5t79.5 199.5t-79.5 200.5t-210.5 63.5h-115q-25 0 -31 -6t-6 -31v-452q0 -25 6 -31t31 -6 h115z" glyph-name="afii10094" horiz-adv-x="909" unicode="ь"/><glyph d="M705 549q23 0 29.5 6t6.5 27q-4 178 -90 277t-226 99t-245 -114q-27 -29 -53.5 -2.5t0.5 57.5q121 133 296 133t283.5 -118.5t108.5 -338.5v-126q0 -219 -108.5 -338t-283.5 -119t-296 133q-27 31 0 57.5t53 -2.5q104 -114 244 -114t226.5 99t90.5 277q0 20 -7 26.5 t-29 6.5h-236q-25 0 -31 6t-6 31t6 31t31 6h236z" glyph-name="afii10095" horiz-adv-x="933" unicode="э"/><glyph d="M254 588q0 -25 6 -31t31 -6h201q23 0 29.5 4t6.5 20q0 219 110 338t286 119t285.5 -118.5t109.5 -338.5v-126q0 -219 -109.5 -338t-285.5 -119t-286 118.5t-110 338.5q0 18 -8 23t-28 5h-201q-25 0 -31 -6t-6 -31v-403q0 -25 -6 -31t-30.5 -6t-31 6t-6.5 31v950 q0 25 6.5 31t31 6t30.5 -6t6 -31v-399zM923.5 66q147.5 0 234.5 101t87 294v102q0 193 -87 294t-234.5 101t-234.5 -101t-87 -294v-102q0 -193 87 -294t234.5 -101z" glyph-name="afii10096" horiz-adv-x="1458" unicode="ю"/><glyph d="M770 987v-950q0 -25 -6 -31t-30.5 -6t-31 6t-6.5 31v276q0 25 -6 31t-31 6h-147q-90 0 -158 23l-131 -336q-10 -25 -17 -31t-34 -6q-41 0 -27 37l142 366q-147 89 -147 271t105 266t267 84h221q25 0 31 -6t6 -31zM659 950h-155q-131 0 -211 -62.5t-80 -199.5t80 -200.5 t211 -63.5h155q25 0 31 6t6 31v452q0 25 -6 31t-31 6z" glyph-name="afii10097" horiz-adv-x="948" unicode="я"/><glyph d="M254 479q-39 0 -41 -18q0 -186 86 -290.5t228 -104.5t247 114q27 29 53.5 2.5t-0.5 -57.5q-121 -133 -296 -133t-283.5 118.5t-108.5 338.5v126q0 219 108.5 338t268.5 119t266.5 -118.5t106.5 -338.5v-55q0 -23 -9.5 -32t-31.5 -9h-594zM514 958q-129 0 -212 -94 t-89 -276v-23q0 -14 8 -17t33 -3h520q31 0 36 5t5 15v23q-6 182 -89 276t-212 94zM584 1232q0 28 18 46t46 18t46.5 -19.5t18.5 -46t-18.5 -45t-47.5 -18.5t-46 18.5t-17 46.5zM315 1232q0 28 18.5 46t45.5 18t46 -19.5t19 -46t-18 -45t-46 -18.5t-46.5 18.5t-18.5 46.5z " glyph-name="afii10071" horiz-adv-x="1028" unicode="ё"/><glyph d="M432 1237h176q25 0 31 -6t6 -30.5t-6 -31t-31 -6.5h-176q-25 0 -31 -6t-6 -31v-204q119 98 261 109t251 -83t109 -252v-704q0 -348 -246 -348q-40 0 -38.5 13t1.5 30q4 31 37 30q166 0 166 232v772q0 111 -88 177t-211 60t-242 -112v-807q0 -27 -6 -33t-32.5 -6t-33 6 t-6.5 33v1087q0 25 -6 31t-30 6h-177q-25 0 -30.5 6.5t-5.5 31t6 30.5t30 6h177q25 0 30.5 6t5.5 31v121q0 27 6.5 33t33 6t32.5 -6.5t6 -32.5v-121q0 -25 6 -31t31 -6z" glyph-name="afii10099" horiz-adv-x="1150" unicode="ђ"/><glyph d="M254 37q0 -25 -6 -31t-30.5 -6t-31 6t-6.5 31v950q0 25 6.5 31t31 6t30.5 -6t6 -31v-67q141 112 262 112t203 -61q23 -16 27 -28.5t-11 -31.5q-27 -35 -55 -12q-74 59 -186 59t-240 -108v-813zM123 1186q-29 -27 -45.5 -10.5t10.5 45.5l211 225q25 29 51.5 2t-2.5 -51z " glyph-name="afii10100" horiz-adv-x="815" unicode="ѓ"/><glyph d="M250 475q-23 0 -30 -6t-7 -27q4 -178 90 -277t226 -99t245 114q27 29 53.5 2.5t-0.5 -57.5q-121 -133 -296 -133t-283.5 118.5t-108.5 338.5v126q0 219 108.5 338t283.5 119t296 -133q27 -31 0.5 -57.5t-53.5 2.5q-104 114 -244 114t-226.5 -99t-90.5 -277q0 -20 7 -26.5 t30 -6.5h235q25 0 31 -6t6 -31t-6 -31t-31 -6h-235z" glyph-name="afii10101" horiz-adv-x="954" unicode="є"/><glyph d="M215 784q0 -68 55.5 -115.5t135 -79.5t160.5 -67t141.5 -93t66.5 -138q10 -135 -82 -217t-255 -82t-320 84q-33 16 -16 51t59 14q156 -75 276 -75t191 52t71 133t-55 133t-135 84t-161 65.5t-140.5 90t-65.5 136.5q-8 119 77 195.5t218 76.5t264 -69q27 -15 14 -43 t-23.5 -29.5t-33.5 10.5q-107 57 -215 57t-167.5 -53t-59.5 -121z" glyph-name="afii10102" horiz-adv-x="894" unicode="ѕ"/><glyph d="M254 37q0 -25 -6 -31t-30.5 -6t-31 6t-6.5 31v950q0 25 6.5 31t31 6t30.5 -6t6 -31v-950zM150 1235q0 29 19 49.5t48 20.5t49.5 -20.5t20.5 -49.5t-20.5 -48.5t-49.5 -19.5t-48 19.5t-19 48.5z" glyph-name="afii10103" horiz-adv-x="434" unicode="і"/><glyph d="M254 37q0 -25 -6 -31t-30.5 -6t-31 6t-6.5 31v950q0 25 6.5 31t31 6t30.5 -6t6 -31v-950zM287 1232q0 28 18.5 46t45 18t46 -19.5t19.5 -46t-18.5 -45t-46.5 -18.5t-46 18.5t-18 46.5zM18 1232q0 28 18.5 46t46.5 18t46 -19.5t18 -46t-18 -45t-47 -18.5t-46.5 18.5 t-17.5 46.5z" glyph-name="afii10104" horiz-adv-x="434" unicode="ї"/><glyph d="M180 987q0 25 6.5 31t31 6t30.5 -6t6 -31v-1253q0 -102 -69.5 -172t-173.5 -70t-175 82q-27 30 -1 56t50 -1q63 -63 127 -63t116 45t52 139v1237zM150 1235q0 29 19 49.5t48 20.5t49.5 -20.5t20.5 -49.5t-20.5 -48.5t-49.5 -19.5t-48 19.5t-19 48.5z" glyph-name="afii10105" horiz-adv-x="434" unicode="ј"/><glyph d="M231 987q0 25 6.5 31t30.5 6h570q25 0 30.5 -6t5.5 -31v-276q0 -25 6.5 -31t30.5 -6h107q162 0 267.5 -85t105.5 -253t-105.5 -252t-267.5 -84h-180q-25 0 -31 6t-6 31v876q0 25 -6.5 31t-30.5 6h-422q-25 0 -31 -6t-6 -31v-524q0 -217 -19.5 -258t-50 -86t-133.5 -45 q-25 0 -33 7t-8 29.5t8.5 30t32.5 7.5q66 2 97.5 44t31.5 165v704zM1026 74q131 0 211 62.5t80 199.5t-80 200.5t-211 63.5h-115q-25 0 -31 -6t-6 -31v-452q0 -25 6.5 -31t30.5 -6h115z" glyph-name="afii10106" horiz-adv-x="1529" unicode="љ"/><glyph d="M750 913q0 25 -6.5 31t-30.5 6h-422q-25 0 -31 -6t-6 -31v-876q0 -25 -6 -31t-30.5 -6t-31 6t-6.5 31v950q0 25 6.5 31t30.5 6h569q25 0 31 -6t6 -31v-276q0 -25 6.5 -31t30.5 -6h107q162 0 267 -85t105 -253t-105.5 -252t-266.5 -84h-181q-25 0 -30.5 6t-5.5 31v876z M975 74q131 0 211 62.5t80 199.5t-80 200.5t-211 63.5h-115q-25 0 -31 -6t-6 -31v-452q0 -25 6.5 -31t30.5 -6h115z" glyph-name="afii10107" horiz-adv-x="1478" unicode="њ"/><glyph d="M432 1237h176q25 0 31 -6t6 -30.5t-6 -31t-31 -6.5h-176q-25 0 -31 -6t-6 -31v-204q119 98 261 109t251 -83t109 -252v-348q0 -348 -246 -348q-40 0 -38.5 13.5t1.5 29.5q4 31 37 31q166 0 166 231v416q0 111 -88 177t-211 60t-242 -112v-807q0 -27 -6 -33t-32.5 -6 t-33 6t-6.5 33v1087q0 25 -6 31t-30 6h-177q-25 0 -30.5 6.5t-5.5 31t6 30.5t30 6h177q25 0 30.5 6t5.5 31v121q0 27 6.5 33t33 6t32.5 -6.5t6 -32.5v-121q0 -25 6 -31t31 -6z" glyph-name="afii10108" horiz-adv-x="1150" unicode="ћ"/><glyph d="M254 270v-233q0 -25 -6 -31t-30.5 -6t-31 6t-6.5 31v950q0 25 6.5 31t31 6t30.5 -6t6 -31v-532q0 -14 8 -12.5t10 6.5l435 546q23 29 57 29h10q18 0 22.5 -12.5t-8.5 -28.5l-299 -377q-8 -10 0 -24l326 -541q10 -16 5 -28.5t-25 -12.5h-7q-35 0 -51 29l-299 495 q-8 14 -20 0l-148 -184q-16 -23 -16 -70zM406 1186q-29 -27 -45.5 -10.5t10.5 45.5l211 225q25 29 51 2t-2 -51z" glyph-name="afii10109" horiz-adv-x="901" unicode="ќ"/><glyph d="M113 1024q33 0 43 -31l313 -893q8 -20 16 0l314 893q10 31 43 31q40 0 28 -35l-467 -1321q-39 -111 -117.5 -152.5t-176.5 -11.5q-23 8 -27 17t4 35t39 18q82 -25 135 12t78 103l94 262q10 33 0 63l-348 975q-12 35 29 35zM678 1434q36 0 33 -35q-4 -109 -73 -170.5 t-161 -61.5t-160.5 61.5t-72.5 170.5q-4 35 32 35q20 0 27.5 -5.5t9.5 -29.5q4 -74 47 -120t117 -46t117 46t47 120q2 25 9 30t28 5z" glyph-name="afii10110" horiz-adv-x="952" unicode="ў"/><glyph d="M518 -37q0 25 -6 31t-31 6h-264q-25 0 -31 6t-6 31v950q0 25 6.5 31t31 6t30.5 -6t6 -31v-876q0 -25 6 -31t31 -6h528q25 0 31 6t6 31v876q0 25 6 31t31 6t31 -6t6 -31v-950q0 -25 -6 -31t-31 -6h-264q-25 0 -31 -6t-6 -31v-186q0 -25 -6 -31t-31 -6t-31 6t-6 31v186z " glyph-name="afii10193" horiz-adv-x="1110" unicode="џ"/><glyph d="M921.5 1434q16.5 0 25.5 -1t19.5 -11.5t14.5 -28.5l328 -1248q5 -21 13.5 -14.5t10.5 14.5l328 1248q8 29 17.5 35t37.5 6q39 0 27 -41l-369 -1352q-8 -29 -19.5 -35t-31.5 -6t-34 2t-21 39l-334 1270q-5 21 -14 14.5t-11 -14.5l-334 -1270q-6 -29 -17.5 -35t-31.5 -6 t-33 2t-24 39l-369 1352q-12 41 27 41q34 0 42.5 -10.5t12.5 -30.5l328 -1248q5 -21 13.5 -14.5t11.5 14.5l327 1248q4 18 14.5 28.5t19.5 11.5t25.5 1zM1018 1597l-225 211q-29 25 -2.5 51.5t51.5 -1.5l211 -226q27 -29 10.5 -45.5t-45.5 10.5z" glyph-name="Wgrave" horiz-adv-x="1843" unicode="Ẁ"/><glyph d="M721 895q-6 0 -8 -8l-260 -850q-8 -23 -16.5 -30t-28.5 -7h-13q-20 0 -29.5 7t-15.5 30l-270 952q-10 35 31 35q22 0 29 -8t12 -23l243 -876q2 -8 8.5 -8t8.5 8l266 870q12 37 41 37h4q29 0 41 -37l266 -870q2 -8 8 -8t9 8l243 876q8 27 17.5 29t23.5 2q41 0 31 -35 l-270 -952q-6 -23 -15.5 -30t-29.5 -7h-13q-20 0 -28.5 7t-16.5 30l-260 850q-2 8 -8 8zM817 1186l-225 211q-29 25 -2.5 51.5t51.5 -2.5l211 -225q27 -29 10.5 -45.5t-45.5 10.5z" glyph-name="wgrave" horiz-adv-x="1441" unicode="ẁ"/><glyph d="M921.5 1434q16.5 0 25.5 -1t19.5 -11.5t14.5 -28.5l328 -1248q5 -21 13.5 -14.5t10.5 14.5l328 1248q8 29 17.5 35t37.5 6q39 0 27 -41l-369 -1352q-8 -29 -19.5 -35t-31.5 -6t-34 2t-21 39l-334 1270q-5 21 -14 14.5t-11 -14.5l-334 -1270q-6 -29 -17.5 -35t-31.5 -6 t-33 2t-24 39l-369 1352q-12 41 27 41q34 0 42.5 -10.5t12.5 -30.5l328 -1248q5 -21 13.5 -14.5t11.5 14.5l327 1248q4 18 14.5 28.5t19.5 11.5t25.5 1zM827 1595q-29 -27 -45 -10t11 45l211 225q25 29 51 2.5t-2 -51.5z" glyph-name="Wacute" horiz-adv-x="1843" unicode="Ẃ"/><glyph d="M721 895q-6 0 -8 -8l-260 -850q-8 -23 -16.5 -30t-28.5 -7h-13q-20 0 -29.5 7t-15.5 30l-270 952q-10 35 31 35q22 0 29 -8t12 -23l243 -876q2 -8 8.5 -8t8.5 8l266 870q12 37 41 37h4q29 0 41 -37l266 -870q2 -8 8 -8t9 8l243 876q8 27 17.5 29t23.5 2q41 0 31 -35 l-270 -952q-6 -23 -15.5 -30t-29.5 -7h-13q-20 0 -28.5 7t-16.5 30l-260 850q-2 8 -8 8zM627 1186q-29 -27 -45.5 -10.5t10.5 45.5l211 225q25 29 51.5 2t-2.5 -51z" glyph-name="wacute" horiz-adv-x="1441" unicode="ẃ"/><glyph d="M921.5 1434q16.5 0 25.5 -1t19.5 -11.5t14.5 -28.5l328 -1248q5 -21 13.5 -14.5t10.5 14.5l328 1248q8 29 17.5 35t37.5 6q39 0 27 -41l-369 -1352q-8 -29 -19.5 -35t-31.5 -6t-34 2t-21 39l-334 1270q-5 21 -14 14.5t-11 -14.5l-334 -1270q-6 -29 -17.5 -35t-31.5 -6 t-33 2t-24 39l-369 1352q-12 41 27 41q34 0 42.5 -10.5t12.5 -30.5l328 -1248q5 -21 13.5 -14.5t11.5 14.5l327 1248q4 18 14.5 28.5t19.5 11.5t25.5 1zM991 1641q0 28 18.5 46.5t45 18.5t46 -19.5t19.5 -46t-18 -45t-46 -18.5t-46.5 18t-18.5 46zM723 1641q0 28 18.5 46.5 t46.5 18.5t46 -19.5t18 -46t-18.5 -45t-47 -18.5t-46 18t-17.5 46z" glyph-name="Wdieresis" horiz-adv-x="1843" unicode="Ẅ"/><glyph d="M721 895q-6 0 -8 -8l-260 -850q-8 -23 -16.5 -30t-28.5 -7h-13q-20 0 -29.5 7t-15.5 30l-270 952q-10 35 31 35q22 0 29 -8t12 -23l243 -876q2 -8 8.5 -8t8.5 8l266 870q12 37 41 37h4q29 0 41 -37l266 -870q2 -8 8 -8t9 8l243 876q8 27 17.5 29t23.5 2q41 0 31 -35 l-270 -952q-6 -23 -15.5 -30t-29.5 -7h-13q-20 0 -28.5 7t-16.5 30l-260 850q-2 8 -8 8zM791 1232q0 28 18 46t45 18t46.5 -19.5t19.5 -46t-18.5 -45t-46.5 -18.5t-46 18.5t-18 46.5zM522 1232q0 28 18.5 46t46.5 18t46 -19.5t18 -46t-18.5 -45t-47 -18.5t-46 18.5 t-17.5 46.5z" glyph-name="wdieresis" horiz-adv-x="1441" unicode="ẅ"/><glyph d="M594 39q0 -27 -6 -33t-33 -6t-33 6t-6 33v666l-410 688q-10 18 -3.5 29.5t22.5 11.5h8q25 0 32 -4.5t19 -24.5l359 -604q12 -20 24 0l359 604q12 20 19 24.5t32 4.5h8q16 0 22.5 -11.5t-3.5 -29.5l-410 -688v-666zM606 1595l-225 211q-29 25 -2 51.5t51 -2.5l211 -225 q27 -29 10.5 -45.5t-45.5 10.5z" glyph-name="Ygrave" horiz-adv-x="1110" unicode="Ỳ"/><glyph d="M113 1024q33 0 43 -31l313 -893q8 -20 16 0l314 893q10 31 43 31q40 0 28 -35l-467 -1321q-39 -111 -117.5 -152.5t-176.5 -11.5q-23 8 -27 17t4 35t39 18q82 -25 135 12t78 103l94 262q10 33 0 63l-348 975q-12 35 29 35zM573 1186l-225 211q-29 25 -2 51.5t51 -2.5 l211 -225q27 -29 10.5 -45.5t-45.5 10.5z" glyph-name="ygrave" horiz-adv-x="952" unicode="ỳ"/><glyph d="M1026 526h-887q-25 0 -31 6.5t-6 31t6.5 30.5t30.5 6h887q25 0 31 -6t6 -30.5t-6 -31t-31 -6.5z" glyph-name="endash" horiz-adv-x="1165" unicode="–"/><glyph d="M1292 526h-1153q-25 0 -31 6.5t-6 31t6.5 30.5t30.5 6h1153q25 0 31 -6t6 -30.5t-6 -31t-31 -6.5z" glyph-name="emdash" horiz-adv-x="1431" unicode="—"/><glyph d="M270 1282q0 -37 -19.5 -57.5t-47.5 -20.5q-55 0 -78 58q-29 90 84 249q20 29 36.5 17t0 -39t-29.5 -53.5t-13 -56t22 -40.5q45 -20 45 -57z" glyph-name="quoteleft" horiz-adv-x="389" unicode="‘"/><glyph d="M121 1364q0 37 19.5 57.5t47.5 20.5q57 0 78 -58q29 -90 -84 -249q-20 -29 -36.5 -17t0 39t29.5 53.5t13 56t-22 40.5q-45 20 -45 57z" glyph-name="quoteright" horiz-adv-x="389" unicode="’"/><glyph d="M121 51q0 37 19.5 57.5t47.5 20.5q57 0 78 -57q29 -90 -84 -250q-20 -29 -36.5 -16.5t0 39t29.5 53t13 56.5t-22 40q-45 20 -45 57z" glyph-name="quotesinglbase" horiz-adv-x="389" unicode="‚"/><glyph d="M530 1282q0 -37 -19 -57.5t-48 -20.5q-55 0 -78 58q-29 90 84 249q20 29 36.5 17t0 -39t-29.5 -53.5t-13 -56t22 -40.5q45 -20 45 -57zM270 1282q0 -37 -19.5 -57.5t-47.5 -20.5q-55 0 -78 58q-29 90 84 249q20 29 36.5 17t0 -39t-29.5 -53.5t-13 -56t22 -40.5 q45 -20 45 -57z" glyph-name="quotedblleft" horiz-adv-x="649" unicode="“"/><glyph d="M121 1364q0 37 19.5 57.5t47.5 20.5q57 0 78 -58q29 -90 -84 -249q-20 -29 -36.5 -17t0 39t29.5 53.5t13 56t-22 40.5q-45 20 -45 57zM381 1364q0 37 19.5 57.5t48.5 20.5q57 0 77 -58q29 -90 -84 -249q-20 -29 -36.5 -17t0 39t30 53.5t13.5 56t-23 40.5q-45 20 -45 57z " glyph-name="quotedblright" horiz-adv-x="649" unicode="”"/><glyph d="M121 51q0 37 19.5 57.5t47.5 20.5q57 0 78 -57q29 -90 -84 -250q-20 -29 -36.5 -16.5t0 39t29.5 53t13 56.5t-22 40q-45 20 -45 57zM381 51q0 37 19.5 57.5t48.5 20.5q57 0 77 -57q29 -90 -84 -250q-20 -29 -36.5 -16.5t0 39t30 53t13.5 56.5t-23 40q-45 20 -45 57z" glyph-name="quotedblbase" horiz-adv-x="649" unicode="„"/><glyph d="M420 1397v-303q0 -25 6 -31t31 -6h172q25 0 31 -6.5t6 -31t-6.5 -30.5t-30.5 -6h-172q-25 0 -31 -6t-6 -31v-1505q0 -25 -6 -31t-31 -6t-31 6t-6 31v1505q0 25 -6 31t-31 6h-172q-25 0 -31 6t-6 30.5t6.5 31t30.5 6.5h172q25 0 31 6t6 31v303q0 25 6 31t31 6t31 -6t6 -31 z" glyph-name="dagger" horiz-adv-x="763" unicode="†"/><glyph d="M121 751.5q0 57.5 40 97.5t97 40t97 -40t40 -97.5t-40 -97.5t-97 -40t-97 40t-40 97.5z" glyph-name="bullet" horiz-adv-x="518" unicode="•"/><glyph d="M121 59.5q0 28.5 19.5 49t48 20.5t49 -20.5t20.5 -49t-20.5 -48t-49 -19.5t-48 19.5t-19.5 48z" glyph-name="onedotenleader" horiz-adv-x="376" unicode="․"/><glyph d="M121 59.5q0 28.5 19.5 49t48 20.5t49 -20.5t20.5 -49t-20.5 -48t-49 -19.5t-48 19.5t-19.5 48zM498 59.5q0 28.5 19.5 49t48 20.5t49 -20.5t20.5 -49t-20.5 -48t-49 -19.5t-48 19.5t-19.5 48z" glyph-name="twodotenleader" horiz-adv-x="753" unicode="‥"/><glyph d="M121 59.5q0 28.5 19.5 49t48 20.5t49 -20.5t20.5 -49t-20.5 -48t-49 -19.5t-48 19.5t-19.5 48zM498 59.5q0 28.5 19.5 49t48 20.5t49 -20.5t20.5 -49t-20.5 -48t-49 -19.5t-48 19.5t-19.5 48zM874 59.5q0 28.5 19.5 49t48.5 20.5t49.5 -20.5t20.5 -49t-20.5 -48 t-49.5 -19.5t-48.5 19.5t-19.5 48z" glyph-name="ellipsis" horiz-adv-x="1130" unicode="…"/><glyph d="M293 1020q-86 0 -148.5 62.5t-62.5 148.5t62.5 148.5t148.5 62.5t148.5 -62.5t62.5 -148.5t-62.5 -148.5t-148.5 -62.5zM299 0q-41 0 -25 39l562 1356q10 27 20 33t32 6t28 -6.5t-3 -32.5l-561 -1356q-10 -27 -18 -33t-35 -6zM141 1228.5q0 -61.5 44 -105.5t105.5 -44 t105.5 44t44 105.5t-44 105.5t-105.5 44t-105.5 -44t-44 -105.5zM889 -8q-86 0 -148.5 62.5t-62.5 148.5t62.5 148.5t148.5 62.5t148.5 -62.5t62.5 -148.5t-62.5 -148.5t-148.5 -62.5zM737 200.5q0 -61.5 44 -105.5t105.5 -44t105.5 44t44 105.5t-44 105.5t-105.5 44 t-105.5 -44t-44 -105.5zM1419 -8q-86 0 -148.5 62.5t-62.5 148.5t62.5 148.5t148.5 62.5t148.5 -62.5t62.5 -148.5t-62.5 -148.5t-148.5 -62.5zM1268 200.5q0 -61.5 44 -105.5t105.5 -44t105.5 44t44 105.5t-44 105.5t-105.5 44t-105.5 -44t-44 -105.5z" glyph-name="perthousand" horiz-adv-x="1712" unicode="‰"/><glyph d="M510 844v-25q0 -27 -21 -47l-256 -248q-12 -12 0 -24l256 -248q20 -20 21 -47v-25q0 -14 -10.5 -18t-20.5 6l-329 321q-23 23 0 46l329 321q10 10 20.5 6t10.5 -18z" glyph-name="guilsinglleft" horiz-adv-x="612" unicode="‹"/><glyph d="M102 180v25q0 27 21 47l256 248q12 12 0 24l-256 248q-20 20 -21 47v25q0 14 10.5 18t20.5 -6l330 -321q23 -23 0 -46l-330 -321q-10 -10 -20.5 -6t-10.5 18z" glyph-name="guilsinglright" horiz-adv-x="612" unicode="›"/><glyph d="M162 59.5q0 28.5 19.5 49t48 20.5t49 -20.5t20.5 -49t-20.5 -48t-49 -19.5t-48 19.5t-19.5 48zM229.5 322q-32.5 0 -32.5 40l-11 1031q0 23 9.5 32t31.5 9h4q23 0 32 -9.5t9 -31.5l-10 -1031q0 -40 -32.5 -40zM467 59.5q0 28.5 19.5 49t48 20.5t49 -20.5t20.5 -49 t-20.5 -48t-49 -19.5t-48 19.5t-19.5 48zM534.5 322q-32.5 0 -32.5 40l-10 1031q0 23 9 32t31 9h5q23 0 32 -9.5t9 -31.5l-11 -1031q0 -40 -32.5 -40z" glyph-name="exclamdbl" horiz-adv-x="743" unicode="‼"/><glyph d="M455 1841h4q35 0 24 -41l-299 -1345q-6 -27 -14 -36t-25 -9h-4q-34 0 -24 41l299 1345q6 27 14 36t25 9z" glyph-name="fraction" horiz-adv-x="600" unicode="⁄"/><glyph d="M553 1178v-70q0 -127 -58.5 -193.5t-156.5 -66.5t-156.5 66.5t-58.5 193.5v70q0 127 58.5 193.5t156.5 66.5t156.5 -66.5t58.5 -193.5zM338 905q82 0 118 54.5t36 168.5v29q0 115 -36 169t-118 54t-118 -54t-36 -169v-29q0 -115 36 -169t118 -54z" glyph-name="uni2070" horiz-adv-x="675" unicode="⁰"/><glyph d="M137 1059h166q8 0 8 8v248q0 4 -4 5t-6 -3l-168 -248q-6 -10 4 -10zM373 872q0 -16 -17 -16h-28q-16 0 -17 16v123q0 8 -8 9h-233q-16 0 -17 16v14q0 14 6 25l246 362q10 12 21 13h30q16 0 17 -17v-350q0 -8 8 -8h18q16 0 17 -17v-22q0 -16 -17 -16h-18q-8 0 -8 -9v-123z " glyph-name="uni2074" horiz-adv-x="520" unicode="⁴"/><glyph d="M422 1026q0 -96 -55.5 -139t-136.5 -39t-128 57q-10 14 0 25l15 14q14 14 24 2q47 -43 99 -43q123 0 122 131v10q0 76 -32.5 106t-102.5 30h-92q-16 0 -16 16v221q0 16 16 17h242q16 0 16 -17v-22q0 -16 -16 -17h-180q-16 0 -17 -18v-109q0 -16 17 -16h41q184 0 184 -184 v-25z" glyph-name="uni2075" horiz-adv-x="516" unicode="⁵"/><glyph d="M338 1382q-76 0 -129 -53t-51 -147q48 51 116 53t115 -47t47 -137v-17q0 -88 -47 -137t-118.5 -49t-120 49t-48.5 137v144q0 125 67 192.5t169 67.5h4q16 0 16 -17v-22q0 -16 -16 -17h-4zM159 1042q0 -138 110 -139q110 0 110 138t-109 139q-111 0 -111 -138z" glyph-name="uni2076" horiz-adv-x="538" unicode="⁶"/><glyph d="M303 1378h-225q-16 0 -17 17v22q0 16 17 17h280q16 0 17 -17v-24q0 -8 -4 -21l-199 -504q-6 -16 -18 -16h-31q-20 0 -14 16l200 500q4 10 -6 10z" glyph-name="uni2077" horiz-adv-x="413" unicode="⁷"/><glyph d="M381 1165q96 -45 96 -161q0 -58 -51 -107t-135 -49h-10q-84 0 -135.5 49t-51.5 107q0 116 96 161q-74 41 -74 113t44.5 116t124.5 44h2q80 0 124 -44t44 -116t-74 -113zM156 1016q0 -49 32.5 -82t96.5 -33h2q63 0 96 33t33 82t-34 84t-95 35h-2q-61 0 -95 -35t-34 -84z M178 1288q0 -98 107 -98h2q106 0 106 98q0 39 -27.5 67.5t-78.5 28.5h-2q-51 0 -79 -28.5t-28 -67.5z" glyph-name="uni2078" horiz-adv-x="571" unicode="⁸"/><glyph d="M160 903h41q76 0 129 53.5t51 147.5q-47 -51 -116 -53t-116 47t-47 137v16q0 88 47.5 137.5t119 49.5t119.5 -49.5t48 -137.5v-143q0 -125 -66.5 -192.5t-168.5 -67.5h-41q-16 0 -17 16v23q1 16 17 16zM269 1382q-109 0 -109 -138t110 -138t109 138q0 138 -110 138z" glyph-name="uni2079" horiz-adv-x="538" unicode="⁹"/><glyph d="M115 1395q0 139 131 147q18 0 18 -18v-23q0 -16 -18 -18q-70 -8 -70 -92v-496q0 -84 70 -92q18 -2 18 -19v-22q0 -18 -18 -19q-61 4 -96 41t-35 107v504z" glyph-name="uni207D" horiz-adv-x="378" unicode="⁽"/><glyph d="M190 1391q0 84 -69 92q-18 2 -19 18v23q0 18 19 18q61 -4 96 -41t35 -106v-504q0 -70 -35 -106.5t-96 -41.5q-18 0 -19 19v22q0 16 19 19q70 8 69 92v496z" glyph-name="uni207E" horiz-adv-x="378" unicode="⁾"/><glyph d="M553 35v-70q0 -127 -58.5 -193.5t-156.5 -66.5t-156.5 66.5t-58.5 193.5v70q0 127 58.5 193.5t156.5 66.5t156.5 -66.5t58.5 -193.5zM338 -238q82 0 118 54.5t36 169.5v28q0 115 -36 169.5t-118 54.5t-118 -54.5t-36 -169.5v-28q0 -115 36 -169.5t118 -54.5z" glyph-name="uni2080" horiz-adv-x="675" unicode="₀"/><glyph d="M195 289h24q16 0 17 -17v-548q0 -16 -17 -17h-29q-16 0 -16 17v479l-74 -76q-12 -12 -24 0l-17 16q-10 13 0 23l115 115q8 8 21 8z" glyph-name="uni2081" horiz-adv-x="430" unicode="₁"/><glyph d="M399 164q0 -57 -36.5 -103.5t-80.5 -79t-81 -84t-37 -106.5v-10q0 -14 2 -16.5t14 -2.5h201q16 0 16 -16v-22q0 -16 -16 -17h-260q-18 0 -19 17v71q0 66 37 123t118.5 116t84.5 122q2 45 -46.5 80.5t-127.5 -31.5q-12 -10 -23 0l-14 14q-8 8 2 23q47 51 113 53t109.5 -36 t43.5 -95z" glyph-name="uni2082" horiz-adv-x="499" unicode="₂"/><glyph d="M244 -14q-16 0 -17 16v23q0 16 17 16q72 0 98.5 49t-0.5 99.5t-82 50.5t-102 -43q-10 -12 -25 2l-14 14q-10 10 0 25q47 53 128 56t127 -50.5t37.5 -122t-65.5 -107.5q66 -39 75 -116.5t-45 -139t-142 -57.5t-134 57q-10 14 0 25l15 14q12 14 24 2q43 -41 108 -43 t98.5 55.5t6 116t-107.5 58.5z" glyph-name="uni2083" horiz-adv-x="528" unicode="₃"/><glyph d="M137 -86h166q8 0 8 8v248q0 4 -4 5t-6 -3l-168 -248q-6 -10 4 -10zM373 -272q0 -16 -17 -17h-28q-16 0 -17 17v122q0 8 -8 9h-233q-16 0 -17 16v14q0 14 6 25l246 362q10 12 21 13h30q16 0 17 -17v-350q0 -8 8 -8h18q16 0 17 -16v-23q0 -16 -17 -16h-18q-8 0 -8 -9v-122z " glyph-name="uni2084" horiz-adv-x="520" unicode="₄"/><glyph d="M422 -119q0 -96 -55.5 -139t-136.5 -39t-128 57q-10 14 0 25l15 14q14 12 24 2q47 -43 99 -43q123 0 122 131v11q0 76 -32.5 105.5t-102.5 29.5h-92q-16 0 -16 16v221q0 16 16 17h242q16 0 16 -17v-22q0 -16 -16 -17h-180q-16 0 -17 -18v-109q0 -16 17 -16h41 q184 0 184 -184v-25z" glyph-name="uni2085" horiz-adv-x="516" unicode="₅"/><glyph d="M340 240q-76 0 -129 -53.5t-51 -147.5q48 51 116 53t115 -47t47 -137v-17q0 -88 -47 -137t-118.5 -49t-120 49t-48.5 137v144q0 125 67 192.5t169 67.5h4q16 0 16 -16v-23q0 -16 -16 -16h-4zM271 -240q110 0 110 138t-110 139q-110 -1 -110 -139t110 -138z" glyph-name="uni2086" horiz-adv-x="540" unicode="₆"/><glyph d="M303 233h-225q-16 0 -17 17v22q0 16 17 17h280q16 0 17 -17v-24q0 -8 -4 -21l-199 -503q-6 -16 -18 -17h-31q-20 1 -14 17l200 499q4 10 -6 10z" glyph-name="uni2087" horiz-adv-x="434" unicode="₇"/><glyph d="M381 23q96 -45 96 -161q0 -58 -51 -107.5t-135 -49.5h-10q-84 0 -135.5 49.5t-51.5 107.5q0 115 96 161q-74 41 -74 112t44.5 115.5t124.5 44.5h2q80 0 124 -44t44 -116t-74 -112zM156 -127q0 -49 32.5 -82t96.5 -33h2q63 0 96 33t33 82t-34 84t-95 35h-2q-61 0 -95 -35 t-34 -84zM178 145q0 -98 107 -98h2q106 0 106 98q0 39 -27.5 68t-78.5 29h-2q-51 0 -79 -29t-28 -68z" glyph-name="uni2088" horiz-adv-x="571" unicode="₈"/><glyph d="M162 -240h41q76 0 129 53.5t51 147.5q-47 -51 -116 -53t-116 47t-47 137v17q0 88 47.5 137t119 49t119.5 -49t48 -137v-144q0 -125 -66.5 -192.5t-168.5 -67.5h-41q-16 0 -17 16v23q1 16 17 16zM271 240q-109 0 -109 -138t110 -139q110 1 109 139q0 138 -110 138z" glyph-name="uni2089" horiz-adv-x="540" unicode="₉"/><glyph d="M115 252q0 139 131 147q18 0 18 -18v-23q0 -16 -18 -18q-70 -8 -70 -92v-496q0 -84 70 -92q18 -2 18 -18v-23q0 -18 -18 -18q-61 4 -96 40.5t-35 106.5v504z" glyph-name="uni208D" horiz-adv-x="378" unicode="₍"/><glyph d="M188 248q0 84 -69 92q-18 2 -19 18v23q0 18 19 18q61 -4 96 -40.5t35 -106.5v-504q0 -70 -35 -106.5t-96 -40.5q-18 0 -19 18v23q0 16 19 18q70 8 69 92v496z" glyph-name="uni208E" horiz-adv-x="378" unicode="₎"/><glyph d="M221 700q0 25 -6 31t-31 6h-73q-25 0 -31 6.5t-6 31t6 30.5t31 6h73q25 0 31 6t6 31v63q0 25 -6 31t-31 6h-73q-25 0 -31 6.5t-6 31t6 30.5t31 6h73q25 0 31 6t6 31v336q0 27 6 33t33 6t33 -6.5t6 -32.5v-336q0 -25 6 -31t31 -6h289q25 0 31 -6t6 -30.5t-6.5 -31 t-30.5 -6.5h-289q-25 0 -31 -6t-6 -31v-63q0 -25 6 -31t31 -6h289q25 0 31 -6t6 -30.5t-6.5 -31t-30.5 -6.5h-289q-25 0 -31 -6t-6 -31v-589q0 -25 6 -31t31 -6h508q25 0 31 -6.5t6 -31t-6.5 -30.5t-30.5 -6h-586q-25 0 -31 6t-6 31v663z" glyph-name="lira" horiz-adv-x="937" unicode="₤"/><glyph d="M299 688q0 -25 6 -31t31 -6h397q25 0 31 -6t6 -30.5t-6 -30.5t-31 -6h-393q-23 0 -31 -4.5t-6 -20.5q20 -236 148.5 -361.5t328.5 -125.5t342 141q18 18 28.5 18t27 -16t16.5 -25.5t-16 -25.5q-166 -166 -396 -166t-385 147.5t-174 419.5q-2 18 -35 19h-77q-25 0 -31 6 t-6 30.5t6 30.5t31 6h73q25 0 31 6.5t6 30.5v57q0 25 -6 31t-31 6h-73q-25 0 -31 6.5t-6 31t6 30.5t31 6h77q33 0 35 18q18 272 173 420t385 148t397 -166q16 -16 16 -25.5t-16.5 -26t-26.5 -16.5t-29 19q-141 141 -342 141t-328.5 -126t-148.5 -361q-2 -16 6 -20.5t31 -4.5 h393q25 0 31 -6t6 -30.5t-6 -31t-31 -6.5h-397q-25 0 -31 -6t-6 -31v-57z" glyph-name="Euro" horiz-adv-x="1302" unicode="€"/><glyph d="M2050 1100v-96q0 -162 -86 -252t-217 -90t-217 90t-86 252v96q0 162 86 252t217 90t217 -90t86 -252zM1746.5 725q106.5 0 169 72.5t62.5 212.5v80q0 141 -62.5 213.5t-169 72.5t-168.5 -72.5t-62 -213.5v-80q0 -139 62 -212t168.5 -73zM256 1434q22 0 29.5 -3.5 t19.5 -21.5l801 -1225q8 -12 15 -9t7 13v1207q0 27 6.5 33t33 6t32.5 -6.5t6 -32.5v-1356q0 -27 -6 -33t-30 -6t-29.5 3t-18.5 22l-800 1224q-8 12 -15.5 9t-7.5 -13v-1206q0 -27 -6 -33t-33 -6t-33 6t-6 33v1356q0 27 6.5 33t28.5 6zM2013 395h-532q-25 0 -31 6.5t-6 31 t6 30.5t31 6h532q25 0 31 -6t6 -30.5t-6 -31t-31 -6.5z" glyph-name="afii61352" horiz-adv-x="2187" unicode="№"/><glyph d="M102 1417q0 16 17 17h332q16 0 16 -17v-24q0 -16 -16 -17h-119q-12 0 -14.5 -2t-2.5 -12v-490q0 -20 -18 -20h-25q-18 0 -18 20v490q0 10 -2 12t-12 2h-121q-16 0 -17 17v24zM1047 1434q16 0 16 -13v-4l45 -545q2 -20 -16 -20h-21l-20 20l-33 398q0 6 -6 6q-2 -2 -4 -6 l-160 -406q-4 -12 -19 -12h-12q-14 0 -18 12l-160 406q-2 8 -8 4q-2 0 -2 -4l-33 -398q0 -20 -21 -20h-20q-16 0 -16 16v4l45 545q0 16 16 17h25q12 0 16 -11l176 -458q2 -4 6 -4t6 4l177 458q4 10 16 11h25z" glyph-name="trademark" horiz-adv-x="1200" unicode="™"/><glyph d="M780 1434q35 0 25 -41l-299 -1348q-6 -27 -14.5 -36t-24.5 -9q-35 0 -25 41l299 1348q6 27 14.5 36t24.5 9zM1186 229q0 79 -36 128t-99 49q-23 0 -23 22v14q0 23 23 23q57 0 87.5 42.5t30.5 108.5t-49 107t-125 41t-129 -55q-14 -16 -35 4t-4 37q66 72 167 72t169 -58 t68 -162t-82 -166q98 -68 98 -190t-71.5 -186t-184.5 -64t-184 78q-16 21 4 41t37 0q57 -63 144 -63t140.5 49t53.5 128zM334 1434q23 0 22 -23v-772q0 -23 -22 -23h-17q-25 0 -24 23v696l-119 -116q-16 -12 -31 2l-10 10q-14 15 0 31l162 161q10 10 22 11h17z" glyph-name="onethird" horiz-adv-x="1370" unicode="⅓"/><glyph d="M913 1434q35 0 25 -41l-299 -1348q-6 -27 -14.5 -36t-24.5 -9q-35 0 -25 41l299 1348q6 27 14.5 36t24.5 9zM320 1442q92 0 151 -54t59 -122t-35.5 -119t-86 -94t-136.5 -120.5t-86 -199.5v-33q0 -18 3.5 -21t19.5 -3h303q23 0 23 -23v-10q0 -23 -23 -22h-367 q-23 0 -22 22v100q0 126 86 208.5t173 156t87 137.5q0 65 -44.5 103t-106.5 38t-117 -55q-16 -16 -34 4q-19 20 -3 37q64 70 156 70zM1319 229q0 79 -36 128t-99 49q-23 0 -23 22v14q0 23 23 23q57 0 88 42.5t31 108.5t-49.5 107t-125.5 41t-129 -55q-14 -16 -34 4t-4 37 q66 72 167 72t168.5 -58t67.5 -162t-82 -166q98 -68 98 -190t-72 -186t-184 -64t-184 78q-16 21 4 41t37 0q57 -63 145 -63t140.5 49t52.5 128z" glyph-name="twothirds" horiz-adv-x="1503" unicode="⅔"/><glyph d="M780 1434q35 0 25 -41l-299 -1348q-6 -27 -14.5 -36t-24.5 -9q-35 0 -25 41l299 1348q6 27 14.5 36t24.5 9zM1049 823q111 0 168 -60.5t57 -148.5q0 -121 -94 -174q123 -59 123 -211q0 -98 -66 -165.5t-182 -67.5h-17q-117 0 -182 67.5t-65 150.5q0 168 122 226 q-92 51 -92 174q0 88 57.5 148.5t168.5 60.5h2zM854 229.5q0 -79.5 47 -129t141 -49.5h11q94 0 140 49.5t46 129t-46 129t-140 49.5h-11q-94 0 -141 -49.5t-47 -129zM883 614.5q0 -67.5 40 -108.5t119 -41h11q80 0 118.5 41t38.5 108.5t-37.5 109.5t-119.5 42h-11 q-82 0 -120.5 -42t-38.5 -109.5zM334 1434q23 0 22 -23v-772q0 -23 -22 -23h-17q-25 0 -24 23v696l-119 -116q-16 -12 -31 2l-10 10q-14 15 0 31l162 161q10 10 22 11h17z" glyph-name="oneeighth" horiz-adv-x="1425" unicode="⅛"/><glyph d="M930 805v-356q0 -219 -109.5 -338t-286 -119t-286 118.5t-109.5 338.5v34q0 219 109.5 338t286.5 119q217 0 321 -180v33q0 160 -43 276.5t-148.5 207.5t-295.5 91h-2q-25 0 -31 6t-6 31t6 31t31 6h2q248 0 404.5 -166t156.5 -471zM534.5 66q147.5 0 234.5 101t87 294v10 q0 193 -87 294t-234.5 101t-234.5 -101t-87 -294v-10q0 -193 87 -294t234.5 -101z" glyph-name="partialdiff" horiz-adv-x="1069" unicode="∂"/><glyph d="M762 719h-623q-25 0 -31 6t-6 30.5t6.5 31t30.5 6.5h623q25 0 31 -6.5t6 -31t-6 -30.5t-31 -6z" glyph-name="minus" horiz-adv-x="901" unicode="−"/><glyph d="M362 1010q70 0 188 -60.5t179 -60.5q96 0 164 106q12 18 33 6l28 -16q18 -12 9 -31q-80 -145 -238 -145q-70 0 -187.5 60.5t-179.5 60.5q-96 2 -163 -107q-12 -18 -33 -6l-29 17q-18 12 -8 30q79 146 237 146zM362 688q70 0 188 -60.5t179 -60.5q96 0 164 107q12 18 33 6 l28 -16q18 -12 9 -31q-80 -145 -238 -146q-70 0 -187.5 60.5t-179.5 60.5q-96 2 -163 -106q-12 -18 -33 -6l-29 16q-18 12 -8 31q79 145 237 145z" glyph-name="approxequal" horiz-adv-x="1087" unicode="≈"/><glyph d="M360 -221q0 37 19.5 57.5t48.5 20.5q55 0 78 -58q29 -90 -84 -250q-20 -29 -36.5 -16.5t-0.5 39.5t29.5 53.5t13.5 56t-22 39.5q-46 21 -46 58zM215 784q0 -68 55.5 -115.5t135 -79.5t160.5 -67t141.5 -93t66.5 -138q10 -135 -82 -217t-255 -82t-320 84q-33 16 -16 51 t59 14q156 -75 276 -75t191 52t71 133t-55 133t-135 84t-161 65.5t-140.5 90t-65.5 136.5q-8 119 77 195.5t218 76.5t264 -69q27 -15 14 -43t-23.5 -29.5t-33.5 10.5q-107 57 -215 57t-167.5 -53t-59.5 -121z" glyph-name="glyph476" horiz-adv-x="894"/><glyph d="M782 37v98q-118 -133 -274 -144t-262.5 112.5t-106.5 345.5v126q0 221 106.5 345t262.5 113t274 -144v98q0 25 6.5 31t31 6t30.5 -6t6 -31v-950q0 -25 -6 -31t-30.5 -6t-31 6t-6.5 31zM213 588v-152q0 -178 85.5 -277t231.5 -93t252 145v602q-106 139 -252 145 t-231.5 -93t-85.5 -277z" glyph-name="a.aalt"/><glyph d="M782 37v98q-118 -133 -274 -144t-262.5 112.5t-106.5 345.5v126q0 221 106.5 345t262.5 113t274 -144v98q0 25 6.5 31t31 6t30.5 -6t6 -31v-950q0 -25 -6 -31t-30.5 -6t-31 6t-6.5 31zM213 588v-152q0 -178 85.5 -277t231.5 -93t252 145v602q-106 139 -252 145 t-231.5 -93t-85.5 -277zM412 1186q-29 -27 -45.5 -10.5t10.5 45.5l211 225q25 29 51.5 2t-2.5 -51z" glyph-name="aacute.aalt"/><glyph d="M782 37v98q-118 -133 -274 -144t-262.5 112.5t-106.5 345.5v126q0 221 106.5 345t262.5 113t274 -144v98q0 25 6.5 31t31 6t30.5 -6t6 -31v-950q0 -25 -6 -31t-30.5 -6t-31 6t-6.5 31zM213 588v-152q0 -178 85.5 -277t231.5 -93t252 145v602q-106 139 -252 145 t-231.5 -93t-85.5 -277zM707 1434q36 0 32 -35q-4 -109 -72.5 -170.5t-160.5 -61.5t-161 61.5t-73 170.5q-4 35 33 35q20 0 27.5 -5.5t9.5 -29.5q4 -74 47 -120t117 -46t117 46t47 120q2 25 9 30t28 5z" glyph-name="abreve.aalt"/><glyph d="M782 37v98q-118 -133 -274 -144t-262.5 112.5t-106.5 345.5v126q0 221 106.5 345t262.5 113t274 -144v98q0 25 6.5 31t31 6t30.5 -6t6 -31v-950q0 -25 -6 -31t-30.5 -6t-31 6t-6.5 31zM213 588v-152q0 -178 85.5 -277t231.5 -93t252 145v602q-106 139 -252 145 t-231.5 -93t-85.5 -277zM506 1450q10 0 20 -10l217 -207q29 -25 2.5 -51.5t-51.5 2.5l-178 190q-6 6 -10 6t-10 -6l-179 -190q-25 -29 -51 -2.5t2 51.5l217 207q11 10 21 10z" glyph-name="acircumflex.aalt"/><glyph d="M782 37v98q-118 -133 -274 -144t-262.5 112.5t-106.5 345.5v126q0 221 106.5 345t262.5 113t274 -144v98q0 25 6.5 31t31 6t30.5 -6t6 -31v-950q0 -25 -6 -31t-30.5 -6t-31 6t-6.5 31zM213 588v-152q0 -178 85.5 -277t231.5 -93t252 145v602q-106 139 -252 145 t-231.5 -93t-85.5 -277zM575 1232q0 28 18.5 46t46.5 18t46.5 -19.5t18.5 -46t-18.5 -45t-47.5 -18.5t-46.5 18.5t-17.5 46.5zM307 1232q0 28 18.5 46t45 18t46 -19.5t19.5 -46t-18 -45t-46 -18.5t-46.5 18.5t-18.5 46.5z" glyph-name="adieresis.aalt"/><glyph d="M782 37v98q-118 -133 -274 -144t-262.5 112.5t-106.5 345.5v126q0 221 106.5 345t262.5 113t274 -144v98q0 25 6.5 31t31 6t30.5 -6t6 -31v-950q0 -25 -6 -31t-30.5 -6t-31 6t-6.5 31zM213 588v-152q0 -178 85.5 -277t231.5 -93t252 145v602q-106 139 -252 145 t-231.5 -93t-85.5 -277zM600 1186l-225 211q-29 25 -2.5 51.5t51.5 -2.5l211 -225q27 -29 10.5 -45.5t-45.5 10.5z" glyph-name="agrave.aalt"/><glyph d="M782 37v98q-118 -133 -274 -144t-262.5 112.5t-106.5 345.5v126q0 221 106.5 345t262.5 113t274 -144v98q0 25 6.5 31t31 6t30.5 -6t6 -31v-950q0 -25 -6 -31t-30.5 -6t-31 6t-6.5 31zM213 588v-152q0 -178 85.5 -277t231.5 -93t252 145v602q-106 139 -252 145 t-231.5 -93t-85.5 -277zM274 1208.5q0 20.5 8.5 26.5t32.5 6h383q25 0 33 -6t8 -26.5t-8 -26.5t-33 -6h-383q-25 0 -33 6t-8 26.5z" glyph-name="amacron.aalt"/><glyph d="M782 987q0 25 6.5 31t31 6t30.5 -6t6 -31v-950q0 -25 -6 -31t-31 -6q-66 -25 -89 -87.5t10.5 -120.5t117.5 -73q27 -4 21 -32l-5 -19q-6 -23 -32 -20q-106 14 -156.5 92t-23 167t119.5 134v94q-118 -133 -274 -144t-262.5 112.5t-106.5 345.5v126q0 221 106.5 345 t262.5 113t274 -144v98zM213 588v-152q0 -178 85.5 -277t231.5 -93t252 145v602q-106 139 -252 145t-231.5 -93t-85.5 -277z" glyph-name="aogonek.aalt"/><glyph d="M782 37v98q-118 -133 -274 -144t-262.5 112.5t-106.5 345.5v126q0 221 106.5 345t262.5 113t274 -144v98q0 25 6.5 31t31 6t30.5 -6t6 -31v-950q0 -25 -6 -31t-30.5 -6t-31 6t-6.5 31zM213 588v-152q0 -178 85.5 -277t231.5 -93t252 145v602q-106 139 -252 145 t-231.5 -93t-85.5 -277zM346 1327.5q0 67.5 46 114.5t113.5 47t115 -47t47.5 -114.5t-47.5 -114t-115 -46.5t-113.5 46.5t-46 114zM401 1327q0 -43 31 -73.5t74 -30.5t73.5 30.5t30.5 73.5t-30.5 74t-73.5 31t-74 -31t-31 -74z" glyph-name="aring.aalt"/><glyph d="M782 37v98q-118 -133 -274 -144t-262.5 112.5t-106.5 345.5v126q0 221 106.5 345t262.5 113t274 -144v98q0 25 6.5 31t31 6t30.5 -6t6 -31v-950q0 -25 -6 -31t-30.5 -6t-31 6t-6.5 31zM213 588v-152q0 -178 85.5 -277t231.5 -93t252 145v602q-106 139 -252 145 t-231.5 -93t-85.5 -277zM645 1167q-59 0 -137 54.5t-115 54.5q-59 0 -119 -94q-12 -18 -32 -6l-15 8q-18 12 -8 30q74 123 170 123q57 0 136 -54t116 -54q59 0 119 94q12 18 33 6l14 -8q18 -12 8 -31q-74 -123 -170 -123z" glyph-name="atilde.aalt"/><glyph d="M840 37q0 -25 -6.5 -31t-31 -6t-30.5 6t-6 31v80q-106 -113 -267 -124t-271.5 82t-110.5 250.5t110.5 252t268.5 83.5t270 -124v151q0 125 -80 197.5t-204 72.5t-216 -98q-20 -25 -45 0l-12 12q-16 18 6 43q106 117 267 117t259.5 -93t98.5 -243v-659zM193 325.5 q0 -135.5 93 -205t230 -61.5t250 125v283q-113 117 -250 125t-230 -61.5t-93 -205z" glyph-name="afii10065.aalt" horiz-adv-x="999"/><glyph d="M782 37v98q-118 -133 -274 -144t-262.5 112.5t-106.5 345.5v126q0 221 106.5 345t262.5 113t274 -144v508q0 25 6.5 31t31 6t30.5 -6.5t6 -30.5v-1360q0 -25 -6 -31t-30.5 -6t-31 6t-6.5 31zM213 588v-152q0 -178 85.5 -277t231.5 -93t252 145v602q-106 139 -252 145 t-231.5 -93t-85.5 -277z" glyph-name="d.aalt"/><glyph d="M782 37v98q-118 -133 -274 -144t-262.5 112.5t-106.5 345.5v126q0 221 106.5 345t262.5 113t274 -144v508q0 25 6.5 31t31 6t30.5 -6.5t6 -30.5v-1360q0 -25 -6 -31t-30.5 -6t-31 6t-6.5 31zM213 588v-152q0 -178 85.5 -277t231.5 -93t252 145v602q-106 139 -252 145 t-231.5 -93t-85.5 -277zM1038 1467q0 37 19.5 57t48.5 20q57 0 78 -57q29 -90 -84 -250q-20 -29 -36.5 -16.5t-0.5 39t29.5 53t13.5 56.5t-23 40q-45 21 -45 58z" glyph-name="dcaron.aalt" horiz-adv-x="1204"/><glyph d="M573 1229h172q25 0 31 6t6 31v131q0 25 6.5 31t31 6t30.5 -6.5t6 -30.5v-131q0 -25 6 -31t31 -6h74q25 0 31 -6t6 -31t-6.5 -31t-30.5 -6h-74q-25 0 -31 -6t-6 -31v-1081q0 -25 -6 -31t-30.5 -6t-31 6t-6.5 31v98q-118 -133 -274 -144t-262.5 112.5t-106.5 345.5v126 q0 221 106.5 345t262.5 113t274 -144v229q0 25 -6 31t-31 6h-172q-25 0 -30.5 6t-5.5 31t5.5 31t30.5 6zM213 588v-152q0 -178 85.5 -277t231.5 -93t252 145v602q-106 139 -252 145t-231.5 -93t-85.5 -277z" glyph-name="dcroat.aalt"/><glyph d="M782 -164v299q-118 -133 -274 -144t-262.5 112.5t-106.5 345.5v126q0 221 106.5 345t262.5 113t274 -144v98q0 25 6.5 31t31 6t30.5 -6t6 -31v-1159q0 -150 -97 -243t-245 -93q-184 0 -281 135q-16 24 11 51q27 25 49 -6q86 -106 221 -106q104 0 186 70.5t82 199.5z M213 588v-152q0 -178 85.5 -277t231.5 -93t252 145v602q-106 139 -252 145t-231.5 -93t-85.5 -277z" glyph-name="g.aalt"/><glyph d="M782 -164v299q-118 -133 -274 -144t-262.5 112.5t-106.5 345.5v126q0 221 106.5 345t262.5 113t274 -144v98q0 25 6.5 31t31 6t30.5 -6t6 -31v-1159q0 -150 -97 -243t-245 -93q-184 0 -281 135q-16 24 11 51q27 25 49 -6q86 -106 221 -106q104 0 186 70.5t82 199.5z M213 588v-152q0 -178 85.5 -277t231.5 -93t252 145v602q-106 139 -252 145t-231.5 -93t-85.5 -277zM725 1434q36 0 33 -35q-4 -109 -73 -170.5t-161 -61.5t-160.5 61.5t-72.5 170.5q-4 35 33 35q20 0 27 -5.5t9 -29.5q4 -74 47.5 -120t117 -46t116.5 46t47 120q2 25 9.5 30 t27.5 5z" glyph-name="gbreve.aalt"/><glyph d="M782 -164v299q-118 -133 -274 -144t-262.5 112.5t-106.5 345.5v126q0 221 106.5 345t262.5 113t274 -144v98q0 25 6.5 31t31 6t30.5 -6t6 -31v-1159q0 -150 -97 -243t-245 -93q-184 0 -281 135q-16 24 11 51q27 25 49 -6q86 -106 221 -106q104 0 186 70.5t82 199.5z M213 588v-152q0 -178 85.5 -277t231.5 -93t252 145v602q-106 139 -252 145t-231.5 -93t-85.5 -277zM524.5 1450q10.5 0 20.5 -10l217 -207q29 -25 2 -51.5t-51 2.5l-178 190q-6 6 -10.5 6t-10.5 -6l-178 -190q-25 -29 -51.5 -2.5t2.5 51.5l217 207q10 10 20.5 10z" glyph-name="gcircumflex.aalt"/><glyph d="M782 -164v299q-118 -133 -274 -144t-262.5 112.5t-106.5 345.5v126q0 221 106.5 345t262.5 113t274 -144v98q0 25 6.5 31t31 6t30.5 -6t6 -31v-1159q0 -150 -97 -243t-245 -93q-184 0 -281 135q-16 24 11 51q27 25 49 -6q86 -106 221 -106q104 0 186 70.5t82 199.5z M213 588v-152q0 -178 85.5 -277t231.5 -93t252 145v602q-106 139 -252 145t-231.5 -93t-85.5 -277zM610 1245q0 -37 -19.5 -57.5t-47.5 -20.5q-55 0 -78 58q-29 90 84 250q20 29 36.5 16.5t0 -39.5t-29.5 -53.5t-13 -56t22 -39.5q45 -21 45 -58z" glyph-name="gcommaaccent.aalt"/><glyph d="M782 -164v299q-118 -133 -274 -144t-262.5 112.5t-106.5 345.5v126q0 221 106.5 345t262.5 113t274 -144v98q0 25 6.5 31t31 6t30.5 -6t6 -31v-1159q0 -150 -97 -243t-245 -93q-184 0 -281 135q-16 24 11 51q27 25 49 -6q86 -106 221 -106q104 0 186 70.5t82 199.5z M213 588v-152q0 -178 85.5 -277t231.5 -93t252 145v602q-106 139 -252 145t-231.5 -93t-85.5 -277zM461 1232q0 28 18.5 46t46.5 18t46 -19.5t18 -46t-18.5 -45t-47 -18.5t-46 18.5t-17.5 46.5z" glyph-name="gdotaccent.aalt"/><glyph d="M254 37q0 -25 -6 -31t-30.5 -6t-31 6t-6.5 31v1360q0 25 6.5 31t31 6t30.5 -6.5t6 -30.5v-1360z" glyph-name="l.aalt" horiz-adv-x="434"/><glyph d="M254 37q0 -25 -6 -31t-30.5 -6t-31 6t-6.5 31v1360q0 25 6.5 31t31 6t30.5 -6.5t6 -30.5v-1360zM123 1593q-29 -27 -45.5 -10.5t10.5 45.5l211 225q25 29 51.5 2.5t-2.5 -51.5z" glyph-name="lacute.aalt" horiz-adv-x="434"/><glyph d="M254 37q0 -25 -6 -31t-30.5 -6t-31 6t-6.5 31v1360q0 25 6.5 31t31 6t30.5 -6.5t6 -30.5v-1360zM440 1469q0 37 19.5 57t48.5 20q57 0 78 -57q29 -90 -84 -250q-20 -29 -36.5 -16.5t-0.5 39t29.5 53t13.5 56.5t-23 40q-45 21 -45 58z" glyph-name="lcaron.aalt" horiz-adv-x="604"/><glyph d="M254 37q0 -25 -6 -31t-30.5 -6t-31 6t-6.5 31v1360q0 25 6.5 31t31 6t30.5 -6.5t6 -30.5v-1360zM133 -223q0 37 19.5 57.5t48.5 20.5q57 0 78 -58q29 -90 -84 -250q-20 -29 -37 -16.5t-0.5 39.5t30 53.5t13.5 56t-23 39.5q-45 21 -45 58z" glyph-name="lcommaaccent.aalt" horiz-adv-x="434"/><glyph d="M254 37q0 -25 -6 -31t-30.5 -6t-31 6t-6.5 31v1360q0 25 6.5 31t31 6t30.5 -6.5t6 -30.5v-1360zM401 753.5q0 28.5 19.5 49t48.5 20.5t49.5 -20.5t20.5 -49t-20.5 -48t-49.5 -19.5t-48.5 19.5t-19.5 48z" glyph-name="ldot.aalt" horiz-adv-x="555"/><glyph d="M274 1397q0 25 6.5 31t31 6t30.5 -6.5t6 -30.5v-518l144 63q16 8 27.5 8t21.5 -22t6 -30.5t-29 -18.5l-170 -76v-766q0 -25 -6 -31t-30.5 -6t-31 6t-6.5 31v733l-145 -63q-23 -10 -32 -7.5t-16 20.5t-7 28t28 22l172 76v551z" glyph-name="lslash.aalt" horiz-adv-x="620"/><glyph d="M111 1024q33 0 43 -31l313 -893q8 -20 16 0l314 893q10 31 43 31q41 0 28 -35l-516 -1460q-10 -31 -35 -31t-35.5 9.5t-0.5 25.5l149 418q10 33 0 63l-348 975q-12 35 29 35z" glyph-name="y.aalt" horiz-adv-x="950"/><glyph d="M111 1024q33 0 43 -31l313 -893q8 -20 16 0l314 893q10 31 43 31q41 0 28 -35l-516 -1460q-10 -31 -35 -31t-35.5 9.5t-0.5 25.5l149 418q10 33 0 63l-348 975q-12 35 29 35zM381 1186q-29 -27 -45.5 -10.5t10.5 45.5l211 225q25 29 51.5 2t-2.5 -51z" glyph-name="yacute.aalt" horiz-adv-x="950"/><glyph d="M111 1024q33 0 43 -31l313 -893q8 -20 16 0l314 893q10 31 43 31q41 0 28 -35l-516 -1460q-10 -31 -35 -31t-35.5 9.5t-0.5 25.5l149 418q10 33 0 63l-348 975q-12 35 29 35zM475 1450q10 0 21 -10l217 -207q29 -25 2 -51.5t-51 2.5l-179 190q-6 6 -10 6t-10 -6 l-178 -190q-25 -29 -51.5 -2.5t2.5 51.5l217 207q10 10 20 10z" glyph-name="ycircumflex.aalt" horiz-adv-x="950"/><glyph d="M111 1024q33 0 43 -31l313 -893q8 -20 16 0l314 893q10 31 43 31q41 0 28 -35l-516 -1460q-10 -31 -35 -31t-35.5 9.5t-0.5 25.5l149 418q10 33 0 63l-348 975q-12 35 29 35zM545 1232q0 28 18.5 46t45 18t46 -19.5t19.5 -46t-18.5 -45t-46.5 -18.5t-46 18.5t-18 46.5z M276 1232q0 28 18.5 46t46.5 18t46.5 -19.5t18.5 -46t-18.5 -45t-47.5 -18.5t-46.5 18.5t-17.5 46.5z" glyph-name="ydieresis.aalt" horiz-adv-x="950"/><glyph d="M111 1024q33 0 43 -31l313 -893q8 -20 16 0l314 893q10 31 43 31q41 0 28 -35l-516 -1460q-10 -31 -35 -31t-35.5 9.5t-0.5 25.5l149 418q10 33 0 63l-348 975q-12 35 29 35zM567 1186l-225 211q-29 25 -2 51.5t51 -2.5l211 -225q27 -29 10.5 -45.5t-45.5 10.5z" glyph-name="ygrave.aalt" horiz-adv-x="950"/></font>
</defs>
</svg>
