<?xml version="1.0" standalone="no"?>
<!DOCTYPE svg PUBLIC "-//W3C//DTD SVG 1.1//EN" "http://www.w3.org/Graphics/SVG/1.1/DTD/svg11.dtd">
<svg xmlns="http://www.w3.org/2000/svg"><metadata>This SVG WebFont was generated by YouWorkForThem.
Copyright (c) 2014 by B\u0142 a\u017C ej Ostoja Lniski. All rights reserved.</metadata><defs><font horiz-adv-x="506" id="ywftsvg"><font-face ascent="700" bbox="-122.923 -292 1109.64 1251.54" cap-height="700" descent="-300" font-family="Merlo Thin Italic" font-stretch="normal" font-style="italic" font-weight="400" panose-1="0 0 0 0 0 0 0 0 0 0" underline-position="-50" underline-thickness="50" unicode-range="U+0020-2248" units-per-em="1000" x-height="500"/><missing-glyph d="M-26 -292l192 995h404l-193 -995h-403zM-12 1116q-10 -9 -15 -3t6 15l129 114q10 9 13 9.5t10 -5.5q5 -7 3.5 -10t-12.5 -12z" horiz-adv-x="464"/><glyph d="M-26 -292l192 995h404l-193 -995h-403zM-12 1116q-10 -9 -15 -3t6 15l129 114q10 9 13 9.5t10 -5.5q5 -7 3.5 -10t-12.5 -12z" glyph-name=".notdef" horiz-adv-x="464"/><glyph glyph-name=".null" horiz-adv-x="0"/><glyph glyph-name="nonmarkingreturn" horiz-adv-x="333"/><glyph glyph-name="space" horiz-adv-x="201" unicode=" "/><glyph d="M91 21q2 11 10.5 18t18.5 7q11 0 17 -7.5t4 -17.5q-2 -11 -11 -18t-19 -7q-11 0 -16.5 7.5t-3.5 17.5zM142 157q-9 0 -5 20l93 503q2 12 5.5 16t12.5 4t11 -4.5t-1 -15.5l-103 -503q-4 -20 -13 -20z" glyph-name="exclam" horiz-adv-x="224" unicode="!"/><glyph d="M224 731h2q15 0 10 -19l-39 -148q-1 -7 -7 -5q-4 1 -3 5l19 148q2 19 18 19zM327 731h2q15 0 10 -19l-39 -148q-1 -7 -7 -5q-4 1 -3 5l19 148q2 19 18 19z" glyph-name="quotedbl" horiz-adv-x="269" unicode="&quot;"/><glyph d="M742 287q12 0 9 -10t-13 -10h-203l-78 -248q-4 -13 -6.5 -16t-10.5 -3q-7 0 -8 3t3 16l78 248h-156l-78 -248q-4 -13 -6.5 -16t-10.5 -3q-7 0 -8 3t3 16l78 248h-217q-12 0 -9 10t13 10h219l52 164h-212q-7 0 -8.5 2t-0.5 8q2 10 13 10h215l66 210q4 12 7 15.5t11 3.5 q7 0 7.5 -3t-3.5 -16l-66 -210h156l66 210q4 12 7 15.5t11 3.5q7 0 7.5 -3t-3.5 -16l-66 -210h205q7 0 8.5 -2t0.5 -8q-2 -10 -13 -10h-208l-52 -164h201zM415 451l-52 -164h156l52 164h-156z" glyph-name="numbersign" horiz-adv-x="781" unicode="#"/><glyph d="M79 66q-8 9 1 17q9 9 18 0q23 -25 66.5 -45.5t100.5 -20.5q79 0 138.5 47.5t71.5 114.5q7 37 -6.5 66.5t-40 50t-60 39t-67.5 37.5t-61 41t-41 54t-8 72q10 62 62 108.5t135 54.5l11 57q2 11 13 11q7 0 8.5 -2t0.5 -9l-11 -55h9q40 0 77.5 -11t54.5 -23l17 -11 q7 -5 1 -14q-7 -10 -18 -3q-61 41 -135 41q-90 0 -142 -44t-60 -97q-8 -50 22 -88t76.5 -63.5l93 -51t74.5 -65t18 -92.5q-16 -78 -79.5 -129.5t-145.5 -55.5l-11 -56q-2 -11 -13 -11q-7 0 -8.5 2t-0.5 9l11 55q-108 4 -172 70z" glyph-name="dollar" horiz-adv-x="528" unicode="$"/><glyph d="M238 498q-41 0 -65.5 30.5t-16.5 71.5q8 43 44.5 73.5t77.5 30.5q43 0 67.5 -30.5t16.5 -73.5q-8 -41 -44.5 -71.5t-79.5 -30.5zM177 600q-7 -34 12 -57.5t53 -23.5t62.5 23.5t35.5 57.5t-12.5 58t-53.5 24t-62 -24t-35 -58zM432 -4q-41 0 -65.5 30.5t-16.5 71.5 q8 43 44.5 73.5t77.5 30.5q43 0 67.5 -30.5t16.5 -73.5q-8 -41 -44.5 -71.5t-79.5 -30.5zM371 98q-7 -34 12 -57.5t53 -23.5t62.5 23.5t35.5 57.5q6 34 -13.5 58t-53.5 24t-62 -24t-34 -58zM144 19l403 662q8 13 11.5 16t12.5 3q4 0 5.5 -0.5t1.5 -2.5t-1.5 -5.5t-5.5 -10.5 l-403 -662q-8 -13 -11 -16t-12 -3q-5 0 -6.5 1t-0.5 5.5t6 12.5z" glyph-name="percent" horiz-adv-x="577" unicode="%"/><glyph d="M492 192q-21 -94 -84.5 -145t-147.5 -51q-83 0 -127 51t-29 145q12 74 48 119t80 62q-34 15 -47 54t1 110q19 80 74.5 122.5t121.5 44.5q87 3 138 -66q6 -9 -3 -16q-8 -7 -14 1q-45 64 -124 61q-60 -2 -107 -41t-64 -105q-17 -68 3 -110.5t80 -44.5q11 0 8 -10t-12 -10 q-62 0 -106 -48t-55 -124q-13 -79 24 -127t114 -48q76 0 131.5 47.5t74.5 127.5l24 125q2 11 13 11h81q12 0 9 -10t-13 -10h-60q-10 0 -12 -10z" glyph-name="ampersand" horiz-adv-x="548" unicode="&amp;"/><glyph d="M225 731h2q15 0 10 -19l-39 -148q-1 -7 -7 -5q-4 1 -3 5l19 148q2 19 18 19z" glyph-name="quotesingle" horiz-adv-x="168" unicode="'"/><glyph d="M264 651l-118 -606q-12 -65 5.5 -91.5t64.5 -26.5h1q12 0 9 -11q-3 -9 -13 -9h-1q-114 0 -88 136l118 610q27 136 142 136h1q12 0 9 -9q-3 -11 -13 -11h-1q-47 0 -75 -26.5t-41 -91.5z" glyph-name="parenleft" horiz-adv-x="299" unicode="("/><glyph d="M169 45l118 606q13 65 -5 91.5t-65 26.5h-1q-12 0 -9 11q3 9 13 9h1q115 0 88 -136l-118 -610q-26 -136 -142 -136h-1q-12 0 -9 9q3 11 13 11h1q47 0 75.5 26.5t40.5 91.5z" glyph-name="parenright" horiz-adv-x="299" unicode=")"/><glyph d="M195 692q-7 0 -8.5 2t-0.5 8q2 10 13 10h125l-72 89q-6 8 3 15t15 0l72 -91l25 127q2 11 12 11t8 -11l-25 -127l108 91q9 8 15 0t-3 -15l-107 -89h126q7 0 8.5 -2t0.5 -8q-2 -10 -13 -10h-128l73 -90q6 -8 -2 -15q-9 -7 -15 1l-72 88l-25 -126q-2 -11 -12 -11t-8 11 l25 126l-106 -88q-10 -9 -15 -1q-6 7 4 15l106 90h-127z" glyph-name="asterisk" horiz-adv-x="424" unicode="*"/><glyph d="M305 389q-1 -7 0 -8.5t8 -1.5h133q12 0 9 -10t-13 -10h-133q-10 0 -12 -10l-26 -138q-2 -11 -13 -11q-6 0 -7.5 2t0.5 9l26 138q1 7 0 8.5t-8 1.5h-133q-7 0 -8.5 2t-0.5 8q3 10 13 10h133q10 0 12 10l27 138q2 11 12 11t8 -11z" glyph-name="plus" horiz-adv-x="440" unicode="+"/><glyph d="M71 21q2 12 12 19t19 6q35 -4 16 -56q-15 -41 -50 -76q-8 -8 -12 -4q-3 3 2 11q11 14 16 21t13 21t7 22.5t-10 11.5q-16 6 -13 24z" glyph-name="comma" horiz-adv-x="190" unicode=","/><glyph d="M82 276q2 11 10 11h226q9 0 7 -11t-9 -11h-227q-9 0 -7 11z" glyph-name="hyphen" horiz-adv-x="342" unicode="-"/><glyph d="M71 21q2 11 10.5 18t18.5 7q11 0 17 -7.5t4 -17.5q-2 -11 -11 -18t-19 -7q-11 0 -16.5 7.5t-3.5 17.5z" glyph-name="period" horiz-adv-x="184" unicode="."/><glyph d="M301 681l-209 -662q-4 -13 -6.5 -16t-10.5 -3q-7 0 -8 3t3 16l209 662q4 12 7 15.5t11 3.5q7 0 7.5 -3t-3.5 -16z" glyph-name="slash" horiz-adv-x="235" unicode="/"/><glyph d="M644 383l-13 -66q-31 -161 -110.5 -241t-193.5 -80t-162.5 80t-17.5 241l13 66q31 161 110.5 241t193.5 80t162.5 -80t17.5 -241zM182 381l-12 -62q-30 -152 13 -227.5t148 -75.5t177 75.5t102 227.5l12 62q29 152 -14 227.5t-148 75.5t-177 -75.5t-101 -227.5z" glyph-name="zero" horiz-adv-x="656" unicode="0"/><glyph d="M322 670l-165 -140q-14 -11 -20 -3t8 19l171 145q10 9 21 9h2q7 0 8.5 -2t-0.5 -9l-131 -678q-2 -11 -13 -11q-7 0 -8.5 2t-0.5 9z" glyph-name="one" horiz-adv-x="330" unicode="1"/><glyph d="M117 102l-14 -72q-1 -7 0.5 -8.5t8.5 -1.5h288q12 0 9 -10q-1 -4 -2 -6t-3 -3t-7 -1h-310q-7 0 -8.5 2t-0.5 9l18 95q9 48 39.5 93t69 77.5t83.5 67.5t83.5 63.5t68 65.5t38.5 74q14 58 -16.5 97.5t-92.5 39.5q-68 0 -137 -61q-10 -9 -16 -1q-5 7 5 16q72 66 152 66 q67 0 105 -43t22 -114q-11 -48 -50.5 -92.5t-90 -81.5t-101 -75.5t-90.5 -89t-51 -106.5z" glyph-name="two" horiz-adv-x="484" unicode="2"/><glyph d="M341 373q3 10 12 10q61 2 97 44.5t46 110.5q10 66 -22.5 105t-92.5 41q-72 2 -146 -61q-10 -8 -16 -1q-5 7 5 16q75 69 162 66q66 -2 105 -44.5t27 -122.5q-10 -66 -40 -107.5t-70 -56.5q37 -17 55.5 -62t2.5 -119q-21 -94 -85.5 -146t-145.5 -50q-90 3 -142 75 q-6 9 2 16q9 7 15 -1q48 -67 128 -70q75 -2 131 46.5t75 128.5q18 76 -7.5 124t-87.5 48q-11 0 -8 10z" glyph-name="three" horiz-adv-x="515" unicode="3"/><glyph d="M92 201q-7 0 -8.5 2t-0.5 8q1 13 13 26l393 452q10 11 18 11q7 0 8.5 -2t-0.5 -9l-89 -458q-1 -7 0 -8.5t8 -1.5h36q12 0 10 -10t-13 -10h-36q-10 0 -12 -10l-35 -180q-2 -11 -13 -11q-7 0 -8.5 2t-0.5 9l35 180q1 7 0 8.5t-8 1.5h-297zM404 231l80 412q1 4 -1.5 5 t-5.5 -3l-361 -414q-8 -10 2 -10h274q10 0 12 10z" glyph-name="four" unicode="4"/><glyph d="M314 447q82 0 126 -52.5t29 -146.5l-11 -53q-21 -94 -85 -146.5t-146 -52.5q-92 0 -137 66q-6 8 2 15q9 8 15 -2q42 -59 123 -59q76 0 132 49t74 129l11 55q12 80 -24.5 129t-112.5 49h-109q-7 0 -8.5 2t-0.5 9l48 251q2 11 14 11h260q12 0 9 -10t-13 -10h-239 q-10 0 -12 -10l-42 -213q-1 -7 0 -8.5t8 -1.5h89z" glyph-name="five" horiz-adv-x="496" unicode="5"/><glyph d="M493 238l-4 -19q-21 -108 -82.5 -165.5t-146.5 -57.5q-86 0 -125 57.5t-18 165.5l34 174q29 150 118.5 230.5t210.5 80.5q12 0 9 -10t-13 -10q-37 0 -72.5 -9t-72 -30t-67 -53t-55 -82.5t-36.5 -113.5l-10 -54q63 119 187 119q85 0 124.5 -57.5t18.5 -165.5zM264 16 q73 0 128 50t73 143l8 39q18 93 -18 143t-109 50t-128 -50t-73 -143l-8 -39q-18 -93 18 -143t109 -50z" glyph-name="six" horiz-adv-x="522" unicode="6"/><glyph d="M115 19l385 649q8 12 -4 12h-311q-7 0 -8.5 2t-0.5 8q2 10 13 10h329q7 0 8.5 -2t0.5 -8q-2 -16 -8 -26l-382 -645q-6 -11 -7.5 -13t-5 -4t-9.5 -2q-4 0 -5.5 0.5t-1.5 2.5t1.5 5.5t5.5 10.5z" glyph-name="seven" horiz-adv-x="432" unicode="7"/><glyph d="M113 191q12 66 55 115.5t109 68.5q-48 19 -65.5 62.5t-7.5 96.5q14 70 68 120t143 50t124 -50t21 -120q-11 -53 -45 -96.5t-91 -62.5q59 -19 83 -68.5t12 -115.5q-17 -85 -81 -140t-160 -55t-139 55t-26 140zM349 364q-87 0 -143.5 -49t-70.5 -124q-15 -74 22.5 -123.5 t124.5 -49.5t143.5 49t71.5 124q14 74 -23 123.5t-125 49.5zM411 682q-80 0 -126.5 -44t-58.5 -104q-11 -60 18 -104t110 -44q80 0 126.5 44t57.5 104q12 60 -17.5 104t-109.5 44z" glyph-name="eight" horiz-adv-x="558" unicode="8"/><glyph d="M164 462l4 19q21 108 82.5 165.5t146.5 57.5q86 0 125 -57.5t18 -165.5l-34 -174q-29 -150 -118.5 -230.5t-210.5 -80.5h-48q-11 0 -8 10t12 10h48q37 0 72.5 9t72 30t67 53t55 82.5t36.5 113.5l10 54q-63 -119 -187 -119q-85 0 -124.5 57.5t-18.5 165.5zM393 684 q-73 0 -128 -50t-73 -143l-8 -39q-18 -93 18 -143t109 -50t128 50t73 143l8 39q18 93 -18 143t-109 50z" glyph-name="nine" horiz-adv-x="522" unicode="9"/><glyph d="M71 21q2 11 10.5 18t18.5 7q11 0 17 -7.5t4 -17.5q-2 -11 -11 -18t-19 -7q-11 0 -16.5 7.5t-3.5 17.5zM129 323q2 11 11 18t19 7q11 0 16.5 -7.5t3.5 -17.5q-2 -11 -11 -18t-19 -7q-11 0 -16.5 7.5t-3.5 17.5z" glyph-name="colon" horiz-adv-x="184" unicode=":"/><glyph d="M129 323q2 11 11 18t19 7q11 0 16.5 -7.5t3.5 -17.5q-2 -11 -11 -18t-19 -7q-11 0 -16.5 7.5t-3.5 17.5zM71 21q2 12 12 19t19 6q35 -4 16 -56q-15 -41 -50 -76q-8 -8 -12 -4q-3 3 2 11q11 14 16 21t13 21t7 22.5t-10 11.5q-16 6 -13 24z" glyph-name="semicolon" horiz-adv-x="190" unicode=";"/><glyph d="M140 370q2 8 9 13l239 165q7 5 12 2.5t3 -9.5q-4 -13 -15 -20l-210 -145q-9 -6 -3 -12l154 -145q10 -8 7 -21q-2 -7 -7 -8.5t-10 2.5l-175 165q-6 5 -4 13z" glyph-name="less" horiz-adv-x="348" unicode="&lt;"/><glyph d="M112 321q2 11 13 11h338q7 0 8.5 -2t0.5 -9q-2 -11 -13 -11h-338q-7 0 -8.5 2t-0.5 9zM131 417q2 11 13 11h338q7 0 8.5 -2t0.5 -9q-2 -11 -14 -11h-338q-7 0 -8.5 2t0.5 9z" glyph-name="equal" horiz-adv-x="460" unicode="="/><glyph d="M350 370q-2 -8 -8 -13l-239 -165q-6 -5 -11 -2.5t-4 9.5q3 12 15 20l210 145q9 6 3 12l-154 145q-10 8 -7 20q2 8 7 10t10 -3l175 -165q5 -5 3 -13z" glyph-name="greater" horiz-adv-x="348" unicode=">"/><glyph d="M223 210q11 53 34 95t50 68.5t53.5 51t49 55t30.5 67.5q14 58 -16.5 97.5t-92.5 39.5q-68 0 -137 -61q-10 -8 -16 -1q-5 7 5 16q72 66 152 66q67 0 105 -43t22 -114q-9 -40 -31 -72.5t-49 -56.5t-54 -50.5t-50 -66.5t-33 -91l-5 -25q-2 -11 -13 -11q-7 0 -8.5 2t-0.5 9z M174 21q2 11 10.5 18t18.5 7q11 0 17 -7.5t4 -17.5q-2 -11 -11 -18t-19 -7q-11 0 -16.5 7.5t-3.5 17.5z" glyph-name="question" horiz-adv-x="422" unicode="?"/><glyph d="M406 281q21 108 83.5 167t146.5 56q69 -3 116 -57l9 42q2 11 12 11t8 -11l-97 -493q-12 -61 36 -67q54 -7 131 52q107 83 149 218q7 24 12 49q23 117 -15.5 216.5t-127 157.5t-205.5 58t-228 -58t-188 -157.5t-100 -216.5t15.5 -216.5t127 -157.5t205.5 -58h2q12 0 9 -10 t-13 -10h-2q-122 0 -214.5 60.5t-133 165t-16.5 226.5t104.5 226.5t197 165t238.5 60.5t214.5 -60.5t133 -165t16.5 -226.5q-30 -155 -145 -259q-83 -74 -155 -78q-61 -3 -68 51q-3 19 2 43l10 47q-67 -53 -138 -56q-86 -3 -125.5 56t-18.5 167zM428 292l-16 -84 q-18 -94 19 -145t109 -48q76 3 140 60l68 350q-41 57 -116 60q-71 3 -128.5 -48t-75.5 -145z" glyph-name="at" horiz-adv-x="1071" unicode="@"/><glyph d="M441 700q7 0 9 -1.5t3 -9.5l105 -678q1 -11 -11 -11t-13 11l-30 189q-2 9 -4.5 11.5t-12.5 2.5h-282q-15 0 -23 -14l-102 -189q-6 -11 -17 -11q-13 0 -7 11l367 678q6 11 18 11zM206 245q-6 -11 5 -11h278q10 0 9 11l-61 406q-1 3 -3 4.5t-4.5 0.5t-4.5 -5z" glyph-name="A" horiz-adv-x="610" unicode="A"/><glyph d="M127 0q-7 0 -8.5 2t-0.5 9l131 678q2 11 14 11h180q96 0 135.5 -48t25.5 -122q-12 -57 -49.5 -100t-98.5 -60q66 -19 89.5 -70.5t11.5 -109.5q-14 -75 -76 -132.5t-170 -57.5h-184zM535 190q8 25 2.5 54.5t-19 54.5t-48 42t-84.5 18h-169q-10 0 -12 -10l-62 -319 q-1 -7 0 -8.5t8 -1.5h165q97 0 152 53t67 117zM213 389q-1 -7 0 -8.5t8 -1.5h170q80 2 129.5 45t61.5 106q12 64 -22.5 107t-118.5 43h-161q-10 0 -12 -10z" glyph-name="B" horiz-adv-x="596" unicode="B"/><glyph d="M158 309q-29 -150 27 -223t167 -70q105 3 185 85q7 7 13 0q8 -7 -1 -16q-86 -86 -201 -89q-119 -3 -181.5 74.5t-31.5 236.5l17 86q31 159 123 236.5t210 74.5q113 -3 167 -89q6 -9 -5 -16q-9 -6 -16 5q-49 77 -150 80q-109 3 -194 -70t-113 -223z" glyph-name="C" horiz-adv-x="599" unicode="C"/><glyph d="M660 393l-17 -86q-29 -150 -119 -228.5t-217 -78.5h-180q-7 0 -8.5 2t-0.5 9l131 678q2 11 14 11h180q127 0 186.5 -78.5t30.5 -228.5zM268 670l-125 -640q-1 -7 0 -8.5t8 -1.5h155q121 0 204.5 73.5t111.5 215.5l16 82q27 142 -27.5 215.5t-175.5 73.5h-155 q-10 0 -12 -10z" glyph-name="D" horiz-adv-x="660" unicode="D"/><glyph d="M493 369q-1 -10 -13 -10h-263q-10 0 -12 -10l-62 -319q-1 -7 0 -8.5t8 -1.5h313q12 0 9 -10q-1 -10 -12 -10h-334q-7 0 -8.5 2t-0.5 9l131 678q2 11 14 11h334q7 0 8.5 -2t0.5 -8q-2 -10 -13 -10h-313q-10 0 -12 -10l-55 -281q-1 -7 0 -8.5t8 -1.5h263q7 0 8.5 -2t0.5 -8 z" glyph-name="E" horiz-adv-x="544" unicode="E"/><glyph d="M493 369q-1 -10 -13 -10h-263q-10 0 -12 -10l-65 -338q-2 -11 -13 -11q-7 0 -8.5 2t-0.5 9l131 678q2 11 14 11h334q7 0 8.5 -2t0.5 -8q-2 -10 -13 -10h-313q-10 0 -12 -10l-55 -281q-1 -7 0 -8.5t8 -1.5h263q7 0 8.5 -2t0.5 -8z" glyph-name="F" horiz-adv-x="524" unicode="F"/><glyph d="M481 684q-109 3 -194 -70t-113 -223l-16 -82q-29 -150 27 -223t167 -70q52 2 96.5 22t71.5 47.5t42.5 53t18.5 43.5l32 167q1 7 0 8.5t-8 1.5h-153q-12 0 -9 10t13 10h174q7 0 8.5 -2t0.5 -9l-37 -188q-4 -22 -21.5 -50.5t-47.5 -58.5t-79 -51.5t-106 -23.5 q-119 -3 -181.5 74.5t-31.5 236.5l17 86q31 159 123 236.5t210 74.5q113 -3 167 -89q6 -9 -5 -16q-9 -6 -16 5q-49 77 -150 80z" glyph-name="G" horiz-adv-x="644" unicode="G"/><glyph d="M579 349q1 7 0 8.5t-8 1.5h-354q-10 0 -12 -10l-65 -338q-2 -11 -13 -11q-7 0 -8.5 2t-0.5 9l131 678q2 11 14 11q7 0 8.5 -2t-0.5 -9l-58 -300q-1 -7 0 -8.5t8 -1.5h354q10 0 12 10l58 300q2 11 14 11q7 0 8.5 -2t-0.5 -9l-131 -678q-2 -11 -13 -11q-7 0 -8.5 2t-0.5 9z " glyph-name="H" horiz-adv-x="650" unicode="H"/><glyph d="M127 0q-7 0 -8.5 2t-0.5 9l131 678q2 11 14 11q7 0 8.5 -2t-0.5 -9l-131 -678q-2 -11 -13 -11z" glyph-name="I" horiz-adv-x="254" unicode="I"/><glyph d="M175 16q58 0 108.5 38.5t63.5 107.5l102 527q2 11 14 11q7 0 8.5 -2t-0.5 -9l-101 -524q-15 -77 -72.5 -123t-126.5 -46q-80 0 -120 56q-6 8 2 15q10 8 16 -2q34 -49 106 -49z" glyph-name="J" horiz-adv-x="434" unicode="J"/><glyph d="M448 80l-154 271q-5 9 -14 0l-77 -72q-13 -12 -17 -30l-46 -238q-2 -11 -13 -11q-7 0 -8.5 2t-0.5 9l131 678q2 11 14 11q7 0 8.5 -2t-0.5 -9l-73 -378q-1 -6 2.5 -7t7.5 3l410 382q12 11 24 11q4 0 6 -1.5t1.5 -4t-3.5 -5.5l-328 -306q-7 -7 -8 -10.5t4 -11.5l153 -269 l47 -81q1 -3 1 -5.5t-3 -4t-7 -1.5q-7 0 -9.5 1.5t-7.5 9.5z" glyph-name="K" horiz-adv-x="557" unicode="K"/><glyph d="M127 0q-7 0 -8.5 2t-0.5 9l131 678q2 11 14 11q7 0 8.5 -2t-0.5 -9l-128 -659q-1 -7 0 -8.5t8 -1.5h265q12 0 9 -10q-1 -4 -2 -6t-3 -3t-7 -1h-286z" glyph-name="L" horiz-adv-x="466" unicode="L"/><glyph d="M409 43q1 -4 4.5 -4t5.5 4l347 646q6 11 17 11q6 0 8 -2t1 -9l-75 -678q-1 -11 -10 -11q-8 0 -10 1.5t-1 9.5l69 616q0 3 -1.5 4.5t-4 0.5t-4.5 -4l-332 -617q-5 -11 -17 -11t-13 11l-92 617q-1 5 -6 5t-6 -6l-169 -616q-2 -8 -4.5 -9.5t-10.5 -1.5q-9 0 -6 11l187 678 q3 11 15 11q10 0 11 -11z" glyph-name="M" horiz-adv-x="812" unicode="M"/><glyph d="M558 9l-287 634q-1 4 -4.5 3t-4.5 -6l-122 -629q-2 -11 -13 -11q-7 0 -8.5 2t-0.5 9l131 678q2 11 14 11q7 0 11 -9l287 -634q1 -4 4.5 -3t4.5 6l122 629q2 11 14 11q7 0 8.5 -2t-0.5 -9l-131 -678q-2 -11 -13 -11q-7 0 -12 9z" glyph-name="N" horiz-adv-x="697" unicode="N"/><glyph d="M686 393l-17 -86q-31 -158 -120 -234.5t-207 -76.5t-178 77t-29 234l17 86q31 158 120 234.5t207 76.5q56 0 100 -17.5t74.5 -55t38.5 -96.5t-6 -142zM174 391l-16 -82q-29 -148 24.5 -220.5t163.5 -72.5t191.5 72.5t110.5 220.5l16 82q29 148 -25 220.5t-164 72.5 t-191 -72.5t-110 -220.5z" glyph-name="O" horiz-adv-x="686" unicode="O"/><glyph d="M596 482q-19 -98 -88 -158t-183 -60h-126q-10 0 -12 -10l-47 -243q-2 -11 -13 -11q-7 0 -8.5 2t-0.5 9l131 678q2 11 14 11h147q114 0 159.5 -60t26.5 -158zM574 482q17 87 -24 142.5t-144 55.5h-126q-10 0 -12 -10l-73 -376q-1 -7 0 -8.5t8 -1.5h126q103 0 165.5 55.5 t79.5 142.5z" glyph-name="P" horiz-adv-x="568" unicode="P"/><glyph d="M686 393l-17 -86q-22 -116 -77 -188t-132 -102l78 -186q4 -11 -9 -11q-8 0 -10 1.5t-6 9.5l-76 179q-42 -14 -95 -14q-56 0 -100 17.5t-74.5 55t-38.5 96.5t6 142l17 86q31 158 120 234.5t207 76.5q56 0 100 -17.5t74.5 -55t38.5 -96.5t-6 -142zM174 391l-16 -82 q-29 -148 24.5 -220.5t163.5 -72.5t191.5 72.5t110.5 220.5l16 82q29 148 -25 220.5t-164 72.5t-191 -72.5t-110 -220.5z" glyph-name="Q" horiz-adv-x="686" unicode="Q"/><glyph d="M523 0q-8 0 -10 1.5t-6 9.5l-122 301h-177q-10 0 -12 -10l-56 -291q-2 -11 -13 -11q-7 0 -8.5 2t-0.5 9l131 678q2 11 14 11h172q230 0 192 -194q-33 -172 -217 -192l122 -303q4 -11 -9 -11zM605 506q34 174 -172 174h-153q-10 0 -12 -10l-64 -328q-1 -7 0 -8.5t8 -1.5 h153q206 0 240 174z" glyph-name="R" horiz-adv-x="606" unicode="R"/><glyph d="M79 67q-8 9 1 16q9 9 18 0q63 -66 167 -66q79 0 138.5 47.5t71.5 114.5q7 37 -6.5 66.5t-40 50t-60 39t-67.5 37.5t-61 41t-41 54t-8 72q11 68 71.5 116.5t156.5 48.5q40 0 77.5 -11t54.5 -23l17 -11q7 -5 1 -14q-7 -10 -18 -3q-61 41 -135 41q-90 0 -142 -44t-60 -97 q-8 -50 22 -88t76.5 -63.5l93 -51t74.5 -65t18 -92.5q-16 -82 -84 -134t-154 -52q-63 0 -111 22.5t-70 48.5z" glyph-name="S" horiz-adv-x="528" unicode="S"/><glyph d="M251 0q-7 0 -8.5 2t-0.5 9l128 659q1 7 0 8.5t-8 1.5h-177q-7 0 -8.5 2t-0.5 8q2 10 13 10h396q7 0 8.5 -2t0.5 -8q-2 -10 -13 -10h-177q-10 0 -12 -10l-128 -659q-2 -11 -13 -11z" glyph-name="T" horiz-adv-x="502" unicode="T"/><glyph d="M671 689q2 11 14 11q7 0 8.5 -2t-0.5 -9l-84 -436q-15 -74 -47 -127t-73.5 -80t-81 -38.5t-80.5 -11.5q-32 0 -60.5 7t-57.5 24t-45.5 46t-24.5 73.5t6 106.5l84 436q2 11 14 11q7 0 8.5 -2t-0.5 -9l-85 -440q-11 -65 -3.5 -109.5t33.5 -72.5t59.5 -40t74.5 -12 q89 0 160.5 57t95.5 177z" glyph-name="U" horiz-adv-x="656" unicode="U"/><glyph d="M211 689l97 -640q0 -3 2.5 -4.5t5.5 0t4 4.5l345 640q6 11 17 11q12 0 6 -11l-367 -678q-6 -11 -16 -11q-11 0 -12 11l-105 678q-1 6 2 8.5t10 2.5q5 0 7 -1t2.5 -2.5t1.5 -7.5z" glyph-name="V" horiz-adv-x="610" unicode="V"/><glyph d="M586 700q11 0 12 -11l51 -640q0 -3 2 -4.5t4.5 0t3.5 4.5l296 640q5 11 18 11q11 0 5 -11l-317 -678q-5 -11 -16 -11q-12 0 -13 11l-51 640q0 3 -2 4t-4.5 0t-3.5 -4l-299 -640q-6 -11 -17 -11t-12 11l-55 678q-1 11 11 11q7 0 9 -1.5t3 -9.5l48 -640q0 -3 2 -4.5t4.5 0 t3.5 4.5l299 640q6 11 18 11z" glyph-name="W" horiz-adv-x="900" unicode="W"/><glyph d="M340 326q-4 10 -12 0l-249 -315q-9 -11 -19 -11q-14 0 -5 11l266 335q7 10 3 18l-127 325q-4 11 10 11q7 0 9 -1.5t5 -9.5l118 -306q4 -10 12 0l236 306q9 11 20 11q13 0 4 -11l-253 -325q-7 -10 -3 -18l136 -335q4 -11 -9 -11q-7 0 -9 1.5t-6 9.5z" glyph-name="X" horiz-adv-x="542" unicode="X"/><glyph d="M349 374l246 315q9 11 20 11q13 0 4 -11l-271 -345l-64 -333q-2 -11 -13 -11t-9 11l64 333l-137 345q-4 11 9 11q7 0 9.5 -1.5t5.5 -9.5l124 -315q4 -10 12 0z" glyph-name="Y" horiz-adv-x="542" unicode="Y"/><glyph d="M574 668l-494 -640q-6 -8 1 -8h349q12 0 9 -10t-13 -10h-365q-11 0 -10 10q2 12 10 22l494 640q6 8 -1 8h-355q-7 0 -8.5 2t-0.5 8q2 10 13 10h372q7 0 8.5 -2t0.5 -8q-2 -12 -10 -22z" glyph-name="Z" horiz-adv-x="500" unicode="Z"/><glyph d="M88 -199q-7 0 -8.5 2t-0.5 9l189 975q2 11 14 11h150q12 0 9 -10t-13 -10h-129q-10 0 -12 -10l-182 -937q-1 -7 0 -8.5t8 -1.5h129q12 0 9 -10t-13 -10h-150z" glyph-name="bracketleft" horiz-adv-x="344" unicode="["/><glyph d="M150 19l49 662q1 12 3 15.5t9 3.5t9 -3t1 -16l-49 -662q-1 -13 -2.5 -16t-8.5 -3q-8 0 -10 3.5t-1 15.5z" glyph-name="backslash" horiz-adv-x="235" unicode="\"/><glyph d="M191 -188q-2 -11 -13 -11h-150q-12 0 -9 10t13 10h129q10 0 12 10l182 937q1 7 0 8.5t-8 1.5h-129q-12 0 -9 10t13 10h150q7 0 8.5 -2t-0.5 -9z" glyph-name="bracketright" horiz-adv-x="344" unicode="]"/><glyph d="M378 655l-209 -271q-10 -13 -21 -13q-16 0 -3 17l231 299q11 13 19 13q4 0 5.5 -0.5t3 -3t4.5 -9.5l115 -299q7 -17 -9 -17q-12 0 -17 13l-103 271q-2 5 -7 5t-9 -5z" glyph-name="asciicircum" horiz-adv-x="517" unicode="^"/><glyph d="M47 -11q2 11 14 11h427q7 0 8.5 -2t-0.5 -9q-2 -11 -13 -11h-427q-7 0 -8.5 2t-0.5 9z" glyph-name="underscore" horiz-adv-x="549" unicode="_"/><glyph d="M288 764l-93 108q-7 9 -7 12t7 10q9 6 12 5.5t9 -9.5l86 -114q7 -9 0 -15t-14 3z" glyph-name="grave" horiz-adv-x="170" unicode="`"/><glyph d="M400 0q-10 0 -8 11l8 41q-67 -53 -138 -56q-85 -3 -125 56t-19 167l12 62q21 108 83.5 167t146.5 56q69 -3 116 -57l9 42q2 11 12 11t8 -11l-93 -478q-2 -11 -12 -11zM152 292l-16 -84q-18 -94 19 -145t109 -48q76 3 140 60l68 350q-41 57 -116 60q-71 3 -128.5 -48 t-75.5 -145z" glyph-name="a" unicode="a"/><glyph d="M106 0q-10 0 -8 11l131 678q2 11 13 11q6 0 7.5 -2t-0.5 -9l-47 -242q68 54 138 57q86 3 125.5 -56t18.5 -167l-12 -62q-21 -108 -83.5 -167t-146.5 -56q-70 3 -116 56l-8 -41q-2 -11 -12 -11zM466 292q18 94 -19 145t-109 48q-76 -3 -140 -60l-68 -350q41 -57 116 -60 q72 -3 129 48t75 145z" glyph-name="b" unicode="b"/><glyph d="M136 208q-18 -93 18 -143t108 -50q76 0 142 59q10 10 15 3q6 -7 -2 -15q-73 -66 -157 -66q-85 0 -124 57.5t-18 165.5l12 62q21 108 82 165.5t146 57.5t132 -66q5 -8 -3 -15q-8 -6 -15 3q-42 59 -118 59q-72 0 -128 -50t-74 -143z" glyph-name="c" horiz-adv-x="466" unicode="c"/><glyph d="M400 0q-10 0 -8 11l8 41q-67 -53 -138 -56q-86 -3 -125.5 56t-18.5 167l12 62q21 108 83.5 167t146.5 56q69 -3 116 -57l47 242q2 11 13 11q6 0 7.5 -2t-0.5 -9l-131 -678q-2 -11 -12 -11zM152 292l-16 -84q-18 -94 19 -145t109 -48q76 3 140 60l68 350q-41 57 -116 60 q-71 3 -128.5 -48t-75.5 -145z" glyph-name="d" unicode="d"/><glyph d="M118 219l12 62q20 104 78 163.5t140 59.5q69 0 102 -41t18 -114q-10 -54 -40 -81t-94 -27h-182q-10 0 -12 -10l-4 -23q-17 -94 18.5 -143.5t107.5 -49.5q73 0 134 59q9 9 15 3q7 -7 -2 -15q-68 -66 -149 -66q-85 0 -124 57.5t-18 165.5zM449 347q13 67 -16.5 102.5 t-87.5 35.5q-68 0 -121.5 -51t-71.5 -142l-4 -23q-1 -6 0.5 -8t7.5 -2h181q56 0 79.5 22.5t32.5 65.5z" glyph-name="e" horiz-adv-x="478" unicode="e"/><glyph d="M260 590l-22 -114q-1 -7 0 -8.5t8 -1.5h101q12 0 9 -9t-12 -9h-101q-10 0 -12 -10l-131 -672q-2 -11 -12 -11t-8 11l131 672q1 7 0 8.5t-8 1.5h-53q-7 0 -9 2t-1 7q3 9 13 9h53q10 0 12 10l22 115q10 50 49 81.5t80 31.5q55 0 82 -41q5 -8 -2 -14t-14 2q-26 34 -69 34 q-33 0 -65.5 -26t-40.5 -69z" glyph-name="f" horiz-adv-x="326" unicode="f"/><glyph d="M399 51q-67 -53 -137 -56q-86 -3 -125.5 56t-18.5 167l12 62q21 108 83.5 167t146.5 56q69 -3 116 -57l8 42q2 11 12 11t8 -11l-110 -567q-15 -78 -69.5 -123.5t-122.5 -45.5q-45 0 -75 19.5t-42 48.5q-5 12 3 16q11 5 14 -4q9 -26 37 -43.5t67 -17.5q57 0 106 38.5 t62 108.5zM264 14q76 3 140 60l68 350q-41 57 -116 60q-72 3 -129 -48t-75 -145l-16 -84q-18 -94 19 -145t109 -48z" glyph-name="g" unicode="g"/><glyph d="M462 330q13 75 -18 115t-101 40q-74 0 -144 -55l-81 -419q-2 -11 -12 -11t-8 11l131 678q2 11 13 11q6 0 7.5 -2t-0.5 -9l-46 -240q73 55 149 55q74 0 109.5 -45t20.5 -126l-62 -322q-2 -11 -12 -11t-8 11z" glyph-name="h" horiz-adv-x="504" unicode="h"/><glyph d="M106 0q-10 0 -8 11l93 478q2 11 12 11t8 -11l-93 -478q-2 -11 -12 -11zM198 598q1 10 9.5 17t18.5 7t16 -7t4 -17t-10.5 -17t-18.5 -7t-15.5 7t-3.5 17z" glyph-name="i" horiz-adv-x="212" unicode="i"/><glyph d="M-35 -229q32 0 64 26t40 69l9 45l1 4l112 574q2 11 12 11t8 -11l-122 -624q-10 -50 -49 -81.5t-79 -31.5q-55 0 -82 41q-5 7 3 14q7 6 14 -2q26 -34 69 -34zM198 598q6 24 28 24q10 0 16 -7t4 -17t-10.5 -17t-18.5 -7t-15.5 7t-3.5 17z" glyph-name="j" horiz-adv-x="212" unicode="j"/><glyph d="M106 0q-10 0 -8 11l131 678q2 11 13 11q6 0 7.5 -2t-0.5 -9l-95 -490q0 -3 1 -4.5t3.5 -1t4.5 2.5l290 293q11 11 22 11q4 0 5.5 -1.5t0.5 -4.5t-5 -6l-190 -192q-5 -5 -2 -12l111 -272q5 -12 -7 -12q-10 0 -15 11l-106 258q-3 7 -10 0l-101 -102q-11 -12 -15 -34 l-23 -122q-2 -11 -12 -11z" glyph-name="k" horiz-adv-x="440" unicode="k"/><glyph d="M227 0h-1q-59 0 -93 33.5t-21 102.5l107 553q2 11 13 11q6 0 7.5 -2t-0.5 -9l-107 -552q-12 -62 17 -90t80 -28h1q12 0 9 -10q-3 -9 -12 -9z" glyph-name="l" horiz-adv-x="280" unicode="l"/><glyph d="M390 0q-10 0 -8 11l69 359q10 48 -1 66q-29 49 -107 49q-74 0 -144 -55l-81 -419q-2 -11 -12 -11t-8 11l93 478q2 11 12 11t8 -11l-8 -40q73 55 149 55q83 0 117 -55q73 55 149 55q74 0 109.5 -45t20.5 -126l-62 -322q-2 -11 -12 -11t-8 11l62 319q13 75 -18 115t-101 40 q-65 0 -135 -48q6 -22 -2 -64l-70 -362q-2 -11 -12 -11z" glyph-name="m" horiz-adv-x="770" unicode="m"/><glyph d="M462 330q13 75 -18 115t-101 40q-74 0 -144 -55l-81 -419q-2 -11 -12 -11t-8 11l93 478q2 11 12 11t8 -11l-8 -40q73 55 149 55q74 0 109.5 -45t20.5 -126l-62 -322q-2 -11 -12 -11t-8 11z" glyph-name="n" horiz-adv-x="504" unicode="n"/><glyph d="M500 281l-12 -62q-21 -108 -82 -165.5t-146 -57.5t-124 57.5t-18 165.5l12 62q21 108 82 165.5t146 57.5t124 -57.5t18 -165.5zM263 15q73 0 129 50t74 143l16 84q18 93 -18 143t-109 50t-129 -50t-74 -143l-16 -84q-18 -93 18 -143t109 -50z" glyph-name="o" horiz-adv-x="522" unicode="o"/><glyph d="M58 -245q-10 0 -8 11l141 723q2 11 12 11t8 -11l-9 -42q68 54 138 57q86 3 125.5 -56t18.5 -167l-12 -62q-21 -108 -83.5 -167t-146.5 -56q-70 3 -116 56l-56 -286q-2 -11 -12 -11zM466 292q18 94 -19 145t-109 48q-76 -3 -140 -60l-68 -350q41 -57 116 -60q72 -3 129 48 t75 145z" glyph-name="p" unicode="p"/><glyph d="M352 -245q-10 0 -8 11l56 286q-67 -53 -138 -56q-86 -3 -125.5 56t-18.5 167l12 62q21 108 83.5 167t146.5 56q69 -3 116 -57l9 42q2 11 12 11t8 -11l-141 -723q-2 -11 -12 -11zM152 292l-16 -84q-18 -94 19 -145t109 -48q76 3 140 60l68 350q-41 57 -116 60 q-71 3 -128.5 -48t-75.5 -145z" glyph-name="q" unicode="q"/><glyph d="M106 0q-10 0 -8 11l93 478q2 11 12 11t8 -11l-8 -40q76 55 150 55q56 0 90 -30q11 -11 3 -20q-8 -8 -21 2q-34 29 -85 29q-32 0 -71.5 -16t-69.5 -39l-81 -419q-2 -11 -12 -11z" glyph-name="r" horiz-adv-x="398" unicode="r"/><glyph d="M79 54q67 -39 139 -39q64 0 108 33t50 86q4 34 -19.5 59t-58.5 41.5l-70 33t-58 43t-20 62.5q5 57 51 94t112 37q63 0 119 -33q8 -5 3 -14t-15 -3q-54 31 -110 31q-59 1 -96.5 -31t-42.5 -77q-3 -32 20.5 -56t58.5 -40.5t70 -33.5t57.5 -45.5t18.5 -67.5 q-8 -60 -57.5 -99t-123.5 -39q-82 0 -149 40q-8 5 -3 15q5 9 16 3z" glyph-name="s" horiz-adv-x="438" unicode="s"/><glyph d="M237 471q-1 -7 0 -8.5t8 -1.5h101q12 0 9 -9t-12 -9h-101q-10 0 -12 -10l-63 -323q-8 -43 14 -69t54 -26q44 0 83 34q9 8 14 2q5 -7 -2 -14q-43 -41 -98 -41q-41 0 -68 31.5t-17 81.5l63 324q1 7 0 8.5t-8 1.5h-53q-7 0 -9 2t-1 7q3 9 13 9h53q10 0 12 10l24 125 q2 11 12 11t8 -11z" glyph-name="t" horiz-adv-x="376" unicode="t"/><glyph d="M201 489l-62 -319q-14 -75 17 -115t101 -40q65 0 135 48l83 426q2 11 12 11t8 -11l-93 -478q-2 -11 -12 -11t-8 11l6 32q-70 -47 -140 -47q-74 0 -109.5 45t-20.5 126l63 322q2 11 12 11t8 -11z" glyph-name="u" horiz-adv-x="496" unicode="u"/><glyph d="M234 32q2 -10 8 0l251 457q5 11 15 11q12 0 4 -14l-258 -468q-6 -11 -10 -14.5t-12 -3.5t-11.5 3.5t-4.5 14.5l-76 468q-3 14 10 14q5 0 7.5 -2t3.5 -9z" glyph-name="v" horiz-adv-x="464" unicode="v"/><glyph d="M452 500q5 0 7 -2.5t3 -15.5l48 -450q0 -2 1.5 -3t3.5 -0.5t3 3.5l217 457q4 11 14 11q12 0 5 -14l-224 -468q-8 -18 -22 -18q-9 0 -11.5 3.5t-4.5 14.5l-46 440q-1 4 -3.5 3.5t-4.5 -3.5l-218 -440q-6 -12 -9.5 -15t-12.5 -3t-12 3.5t-4 14.5l-42 468q-1 14 11 14 q5 0 7 -2t3 -9l39 -457q0 -5 5 -4q2 1 3 4l222 450q6 12 9 15t9 3h4z" glyph-name="w" horiz-adv-x="706" unicode="w"/><glyph d="M507 486l-205 -223q-6 -6 -3 -11l126 -238q8 -14 -4 -14q-10 0 -16 11l-119 225q-3 7 -10 0l-205 -225q-10 -11 -20 -11q-14 0 0 14l218 238q6 6 3 11l-119 223q-8 14 5 14q10 0 16 -11l111 -210q3 -7 10 0l193 210q10 11 20 11q13 0 -1 -14z" glyph-name="x" horiz-adv-x="472" unicode="x"/><glyph d="M97 -231l114 207q9 17 7 31l-78 479q-3 14 10 14q5 0 7.5 -2t3.5 -9l73 -457q1 -4 3.5 -3.5t4.5 3.5l251 457q5 11 15 11q12 0 4 -14l-396 -720q-7 -11 -15 -11q-12 0 -4 14z" glyph-name="y" horiz-adv-x="464" unicode="y"/><glyph d="M174 500h305q11 0 9 -11q-3 -11 -11 -21l-391 -440q-8 -9 1 -9h288q7 0 8.5 -2t0.5 -8q-3 -9 -12 -9h-306q-10 0 -9 11t10 21l391 440q8 9 -1 9h-287q-12 0 -9 10q2 9 13 9z" glyph-name="z" horiz-adv-x="449" unicode="z"/><glyph d="M253 477q-16 -79 -65 -108q38 -30 23 -108l-62 -322q-13 -65 5 -91.5t65 -26.5h1q12 0 9 -10t-13 -10h-1q-115 0 -89 136l63 321q20 100 -50 100h-2q-12 0 -14.5 2t-1.5 9t4.5 9t15.5 2h2q69 0 89 100l43 222q26 136 141 136h1q12 0 9 -10q-2 -10 -12 -10h-1 q-47 0 -75.5 -26.5t-40.5 -91.5z" glyph-name="braceleft" horiz-adv-x="322" unicode="{"/><glyph d="M70 -292q-7 0 -8.5 2t-0.5 9l198 1019q2 11 13 11q7 0 8.5 -2t0.5 -9l-198 -1019q-2 -11 -13 -11z" glyph-name="bar" horiz-adv-x="254" unicode="|"/><glyph d="M211 261q15 78 65 108q-38 31 -23 108l44 223q12 65 -5.5 91.5t-64.5 26.5h-1q-12 0 -10 10q3 10 13 10h1q115 0 89 -136l-43 -222q-20 -100 49 -100h2q12 0 14.5 -2t1.5 -9t-4.5 -9t-15.5 -2h-2q-68 0 -88 -100l-63 -321q-26 -136 -141 -136h-1q-12 0 -9 10t13 10h1 q47 0 75 26.5t41 91.5z" glyph-name="braceright" horiz-adv-x="322" unicode="}"/><glyph d="M249 410q34 0 88.5 -34t87.5 -33q50 2 93 59q6 9 14 4q8 -4 1 -14q-50 -68 -116 -68q-34 0 -88 34t-87 33q-50 -2 -93 -59q-7 -9 -15 -4q-7 5 0 14q50 68 115 68z" glyph-name="asciitilde" horiz-adv-x="525" unicode="~"/><glyph d="M239 479q-2 -11 -10.5 -18t-18.5 -7q-11 0 -17 7.5t-4 17.5q2 11 11 18t19 7q11 0 16.5 -7.5t3.5 -17.5zM188 343q9 0 5 -20l-93 -503q-2 -12 -5.5 -16t-12.5 -4t-11 4.5t1 15.5l103 503q4 20 13 20z" glyph-name="exclamdown" horiz-adv-x="226" unicode="¡"/><glyph d="M136 208q-18 -93 18 -143t108 -50q76 0 142 59q9 9 15 3q7 -7 -2 -15q-69 -62 -148 -66l-11 -55q-2 -11 -12 -11t-8 11l11 55q-80 4 -116 61.5t-15 161.5l12 62q21 104 78.5 161.5t138.5 61.5l11 55q2 11 12 11t8 -11l-11 -55q78 -4 123 -66q5 -8 -3 -15q-8 -6 -15 3 q-42 59 -118 59q-72 0 -128 -50t-74 -143z" glyph-name="cent" horiz-adv-x="466" unicode="¢"/><glyph d="M109 350q1 4 2 6t3 3t7 1h54q10 0 12 10l19 94q19 100 61 152t110 65q16 3 20 2t3 -9q-1 -9 -16 -11q-66 -12 -102.5 -60t-53.5 -135l-19 -98q-1 -7 0 -8.5t8 -1.5h158q13 0 10 -10t-13 -10h-158q-10 0 -12 -10l-59 -300q-1 -7 0 -8.5t8 -1.5h265q12 0 9 -10q-1 -4 -2 -6 t-3 -3t-7 -1h-286q-7 0 -8.5 2t-0.5 9l62 319q1 7 0 8.5t-8 1.5h-54q-12 0 -9 10z" glyph-name="sterling" horiz-adv-x="456" unicode="£"/><glyph d="M229 280q1 10 13 10h64q10 0 12 10l8 44l-137 345q-4 11 10 11q7 0 9 -1.5t5 -9.5l124 -315q4 -10 12 0l246 315q9 11 20 11q13 0 4 -11l-271 -345l-8 -44q-1 -7 0 -8.5t8 -1.5h64q7 0 8.5 -2t0.5 -8q-3 -10 -13 -10h-64q-10 0 -12 -10l-11 -59q-1 -6 0.5 -8t7.5 -2h64 q7 0 8.5 -2t0.5 -8q-2 -10 -13 -10h-64q-10 0 -12 -10l-29 -150q-2 -11 -13 -11q-7 0 -8.5 2t-0.5 9l29 150q1 7 0 8.5t-8 1.5h-64q-7 0 -8.5 2t-0.5 8q2 10 13 10h64q10 0 12 10l11 59q1 7 0 8.5t-8 1.5h-64q-12 0 -9 10z" glyph-name="yen" horiz-adv-x="542" unicode="¥"/><glyph d="M160 373q6 78 85 114q-51 36 -46 86q5 57 51 94t112 37q64 0 119 -33q9 -5 3 -14q-6 -8 -15 -3q-54 31 -110 31q-59 1 -96.5 -31t-42.5 -77q-3 -32 20.5 -56t58.5 -40.5t70 -33.5t57.5 -45.5t17.5 -67.5q-9 -75 -77 -113q44 -36 39 -87q-8 -60 -57.5 -99t-123.5 -39 q-82 0 -149 40q-9 6 -3 15q5 9 16 3q67 -39 139 -39q64 0 108 33t50 86q4 34 -19.5 59t-58.5 41.5l-70 33t-58 43t-20 62.5zM181 377q-3 -28 14.5 -50t40.5 -34t59.5 -29.5t55.5 -30.5q65 33 73 101q3 22 -5.5 40t-27.5 32t-37.5 24t-46.5 23.5t-44 22.5q-35 -13 -57 -39.5 t-25 -59.5z" glyph-name="section" horiz-adv-x="443" unicode="§"/><glyph d="M325 787q2 10 10.5 17t18.5 7t15.5 -7.5t3.5 -16.5q-6 -24 -28 -24q-10 0 -16 7t-4 17zM195 787q2 10 10.5 17t18.5 7t15.5 -7t3.5 -17q-1 -10 -9.5 -17t-18.5 -7t-16 7t-4 17z" glyph-name="dieresis" horiz-adv-x="263" unicode="¨"/><glyph d="M148 350q28 145 151 248t268 103t227.5 -102.5t54.5 -248.5q-28 -145 -150.5 -247.5t-267.5 -102.5t-228 102.5t-55 247.5zM329 309q-19 -93 17.5 -143t108.5 -50q76 0 142 59q9 9 15 3q7 -7 -3 -15q-71 -66 -157 -66q-85 0 -123.5 57.5t-17.5 165.5l12 62 q21 108 82 165.5t146 57.5q86 0 131 -66q6 -8 -3 -15q-8 -6 -14 3q-42 59 -119 59q-72 0 -127.5 -50t-73.5 -143zM168 350q-27 -137 50.5 -233.5t214.5 -96.5t253 96.5t143 233.5q26 137 -52 234t-215 97t-252.5 -97t-141.5 -234z" glyph-name="copyright" horiz-adv-x="861" unicode="©"/><glyph d="M345 561l9 47q7 36 -11.5 56t-52.5 20q-38 0 -70 -27q-8 -7 -13 0q-4 5 4 12q35 32 84 32q40 0 61.5 -26t13.5 -67l-36 -182q-1 -5 -1.5 -6.5t-2.5 -2.5t-6 -1q-6 0 -7 1.5t1 8.5l5 25q-42 -36 -88 -37q-41 -2 -66.5 23.5t-16.5 68.5t43.5 69t75.5 24q45 -1 74 -38z M326 467l15 78q-27 35 -70 38q-35 2 -64.5 -18.5t-36.5 -58.5t14.5 -58.5t56.5 -18.5q43 3 85 38z" glyph-name="ordfeminine" horiz-adv-x="309" unicode="ª"/><glyph d="M126 239q-9 11 4 22l183 149q7 5 11.5 3t2.5 -9q-2 -9 -14 -19l-159 -129q-7 -6 -2 -12l109 -129q8 -10 6 -19q-2 -7 -6.5 -9t-9.5 3zM302 239q-9 11 4 22l183 149q7 5 11.5 3t2.5 -9q-2 -9 -14 -19l-159 -129q-7 -6 -2 -12l109 -129q8 -10 6 -19q-2 -7 -6.5 -9t-9.5 3z " glyph-name="guillemotleft" horiz-adv-x="475" unicode="«"/><glyph d="M103 275q2 11 13 11h467q7 0 8.5 -2t0.5 -9q-2 -11 -13 -11h-467q-7 0 -8.5 2t-0.5 9z" glyph-name="uni00AD" horiz-adv-x="589" unicode="­"/><glyph d="M148 350q28 145 151 248t268 103t227.5 -102.5t54.5 -248.5q-28 -145 -150.5 -247.5t-267.5 -102.5t-228 102.5t-55 247.5zM168 350q-27 -137 50.5 -233.5t214.5 -96.5t253 96.5t143 233.5q26 137 -52 234t-215 97t-252.5 -97t-141.5 -234zM390 318l-34 -177 q-2 -13 -14 -13q-7 0 -8.5 2.5t0.5 10.5l86 441q2 12 15 12h113q77 0 108 -34.5t19 -97.5q-21 -113 -140 -129l77 -192q2 -5 -1 -9t-8 -4h-1q-11 0 -14 9l-77 193h-106q-8 0 -11 -2t-4 -10zM546 573h-94q-8 0 -10 -2t-4 -10l-39 -197q-2 -6 -1 -9t3 -3.5t8 -0.5h94 q130 0 150 111q22 111 -107 111z" glyph-name="registered" horiz-adv-x="861" unicode="®"/><glyph d="M176 767q-7 0 -8.5 2t-0.5 9q2 11 13 11h205q7 0 8.5 -2t0.5 -9q-2 -11 -13 -11h-205z" glyph-name="macron" horiz-adv-x="259" unicode="¯"/><glyph d="M248 498q-41 0 -65.5 30.5t-16.5 71.5q8 43 44.5 73.5t77.5 30.5q43 0 67.5 -30.5t16.5 -73.5q-8 -41 -44.5 -71.5t-79.5 -30.5zM187 600q-7 -34 12 -57.5t53 -23.5t62.5 23.5t35.5 57.5t-12.5 58t-53.5 24t-62 -24t-35 -58z" glyph-name="degree" horiz-adv-x="306" unicode="°"/><glyph d="M258 702q29 0 46 -19t11 -48q-5 -22 -28.5 -45t-49.5 -39.5t-50 -42t-29 -53.5l-3 -13q-1 -6 0 -7.5t8 -1.5h107q7 0 6 -9q-1 -8 -10 -8h-127q-8 0 -7 8l7 35q5 28 29.5 55t50.5 44.5t49.5 38.5t27.5 38q5 22 -8.5 35.5t-35.5 13.5t-46 -19q-7 -5 -12 1q-4 6 2 11 q26 25 62 25z" glyph-name="twosuperior" horiz-adv-x="244" unicode="²"/><glyph d="M282 499q5 24 -4.5 41.5t-31.5 17.5q-8 0 -6 11q1 8 10 8q20 0 34 15t17 35q6 26 -9 41.5t-40 15.5q-26 0 -49 -20q-7 -6 -13 2q-4 5 2 11q26 25 64 25q33 0 52.5 -20t12.5 -55q-7 -37 -41 -59q31 -25 21 -69q-7 -40 -36 -62.5t-65 -22.5q-40 0 -61 28q-4 7 4 13 q7 6 12 0q18 -23 48 -23q28 0 50.5 18t28.5 49z" glyph-name="threesuperior" horiz-adv-x="256" unicode="³"/><glyph d="M181 764q-11 -9 -16 -3t6 15l130 114q10 9 14 10t9 -6t4 -10t-12 -12z" glyph-name="acute" horiz-adv-x="170" unicode="´"/><glyph d="M882 700q12 0 9 -10t-13 -10h-99q-10 0 -12 -10l-185 -950q-2 -11 -13 -11q-7 0 -8.5 2t-0.5 9l185 950q1 7 0 8.5t-8 1.5h-211q-10 0 -12 -10l-185 -950q-2 -11 -13 -11q-7 0 -8.5 2t-0.5 9l103 527q4 25 1 29t-28 4h-81q-85 0 -134.5 61t-32.5 149q17 86 85.5 148 t149.5 62h512z" glyph-name="paragraph" horiz-adv-x="803" unicode="¶"/><glyph d="M138 368q2 11 11 18t19 7q11 0 16.5 -7.5t3.5 -17.5q-2 -11 -11 -18t-19 -7q-11 0 -16.5 7.5t-3.5 17.5z" glyph-name="periodcentered" horiz-adv-x="184" unicode="·"/><glyph d="M19 -110q-7 2 -3 10l58 112l19 1l-41 -82q55 32 97 5t32 -78q-12 -60 -67 -86.5t-95 5.5q-6 4 -1 12q7 11 14 5q32 -26 76 -4.5t53 67.5q6 31 -14 52.5t-53.5 19.5t-61.5 -34q-6 -7 -13 -5z" glyph-name="cedilla" horiz-adv-x="229" unicode="¸"/><glyph d="M158 640l68 57q4 3 9 3h3q7 0 6 -8l-52 -268q-1 -8 -10 -8h-4q-7 0 -6 8l48 246l-51 -43q-7 -6 -13 2q-5 6 2 11z" glyph-name="onesuperior" horiz-adv-x="211" unicode="¹"/><glyph d="M378 577l-7 -34q-12 -61 -48 -94t-85 -33t-72 33t-11 94l7 34q12 61 47.5 94t84.5 33t72.5 -33t11.5 -94zM242 434q42 0 70.5 27.5t38.5 81.5l7 34q10 54 -7.5 81.5t-59.5 27.5t-70.5 -27.5t-38.5 -81.5l-7 -34q-10 -54 7.5 -81.5t59.5 -27.5z" glyph-name="ordmasculine" horiz-adv-x="316" unicode="º"/><glyph d="M441 239l-183 -149q-6 -5 -11 -3t-3 9q2 9 14 19l159 129q7 6 2 12l-109 129q-8 10 -6 19q2 7 6.5 9t9.5 -3l125 -149q9 -11 -4 -22zM265 239l-183 -149q-6 -5 -11 -3t-3 9q2 9 14 19l159 129q7 6 2 12l-109 129q-8 10 -6 19q2 7 6.5 9t9.5 -3l125 -149q9 -11 -4 -22z " glyph-name="guillemotright" horiz-adv-x="475" unicode="»"/><glyph d="M581 105l-19 -96q-2 -9 -11 -9q-6 0 -8 1.5t-1 7.5l19 96q1 6 -4 6h-164q-11 0 -9 11t9 18l218 251q7 8 16 8q6 0 8 -1.5t1 -7.5l-49 -254q-1 -6 5 -6h16q9 0 6 -9q-6 -9 -10 -10h-16q-6 0 -7 -6zM606 360l-195 -224q-6 -6 1 -6h149q5 0 6 6l43 223q0 5 -4 1zM224 20 l274 658q6 14 9 18t9 4h2q10 0 2 -20l-274 -658q-12 -21 -17 -22h-2q-11 0 -3 20zM184 616l95 79q6 5 16 5q8 0 7 -10l-74 -379q-2 -10 -12 -10q-7 0 -8.5 2t0.5 8l70 361l-83 -70q-9 -7 -14 0q-6 7 3 14z" glyph-name="onequarter" horiz-adv-x="655" unicode="¼"/><glyph d="M224 20l274 658q6 14 9 18t9 4h2q10 0 2 -20l-274 -658q-12 -21 -17 -22h-2q-11 0 -3 20zM184 616l95 79q6 5 16 5q4 0 5.5 -0.5t2 -3t-0.5 -6.5l-74 -379q-2 -10 -12 -10q-7 0 -8.5 2t0.5 8l70 361l-83 -70q-9 -7 -14 0q-6 7 3 14zM405 0q-12 0 -9 11l10 53q8 39 41 76 t68.5 60t68 53t38.5 57q8 34 -9.5 54t-52.5 20t-69 -29q-11 -8 -16 -2q-5 7 5 16q43 34 86 34q41 0 63 -26t12 -67q-8 -32 -40.5 -64t-68 -55t-68 -58.5t-39.5 -73.5l-5 -27q-1 -5 -1.5 -7t0.5 -3.5t3 -1.5h7h148q7 0 8.5 -2t0.5 -8q-2 -10 -12 -10h-169z" glyph-name="onehalf" horiz-adv-x="649" unicode="½"/><glyph d="M312 20l274 658q6 14 9 18t9 4h2q10 0 2 -20l-274 -658q-12 -21 -17 -22h-2q-11 0 -3 20zM294 704q44 1 72.5 -27t18.5 -79q-9 -50 -58 -82q46 -36 34 -97q-11 -56 -52.5 -88t-91.5 -30q-55 2 -83 34q-8 9 1 16q8 7 14 -2q23 -28 72 -29q44 -2 77 24.5t43 74.5 q7 36 -9 61t-50 25q-10 0 -9 10q1 11 13 11q31 0 52 21t27 51q9 43 -13 65.5t-61 21.5q-42 -2 -71 -26q-11 -8 -16 -2q-5 7 5 16q37 29 85 31zM668 105l-19 -96q-2 -9 -11 -9q-6 0 -8 1.5t-1 7.5l19 96q2 6 -4 6h-164q-11 0 -9 11t9 18l218 251q7 8 16 8q6 0 8 -1.5t1 -7.5 l-49 -254q-2 -6 5 -6h16q9 0 6 -9q-6 -9 -10 -10h-16q-6 0 -7 -6zM693 360l-195 -224q-6 -6 1 -6h149q4 0 6 6l43 223q0 5 -4 1z" glyph-name="threequarters" horiz-adv-x="743" unicode="¾"/><glyph d="M295 289q-11 -53 -34 -95t-50 -68.5t-53.5 -51t-49 -55t-30.5 -67.5q-14 -58 16.5 -97.5t92.5 -39.5q68 0 137 61q10 8 16 1q5 -7 -5 -16q-72 -66 -152 -66q-67 0 -105 43t-22 114q9 40 31 72.5t49 56.5t54 50.5t50 66.5t33 91l5 25q2 11 13 11q7 0 8.5 -2t0.5 -9z M344 478q-2 -11 -10.5 -18t-18.5 -7q-11 0 -17 7.5t-4 17.5q2 11 11 18t19 7q11 0 16.5 -7.5t3.5 -17.5z" glyph-name="questiondown" horiz-adv-x="422" unicode="¿"/><glyph d="M441 700q7 0 9 -1.5t3 -9.5l105 -678q1 -11 -11 -11t-13 11l-30 189q-2 9 -4.5 11.5t-12.5 2.5h-282q-15 0 -23 -14l-102 -189q-6 -11 -17 -11q-13 0 -7 11l367 678q6 11 18 11zM206 245q-6 -11 5 -11h278q10 0 9 11l-61 406q-1 3 -3 4.5t-4.5 0.5t-4.5 -5zM512 780 l-93 108q-7 9 -7 12t7 10q9 6 12 5.5t9 -9.5l86 -114q8 -9 0 -15q-7 -6 -14 3z" glyph-name="Agrave" horiz-adv-x="610" unicode="À"/><glyph d="M441 700q7 0 9 -1.5t3 -9.5l105 -678q1 -11 -11 -11t-13 11l-30 189q-2 9 -4.5 11.5t-12.5 2.5h-282q-15 0 -23 -14l-102 -189q-6 -11 -17 -11q-13 0 -7 11l367 678q6 11 18 11zM206 245q-6 -11 5 -11h278q10 0 9 11l-61 406q-1 3 -3 4.5t-4.5 0.5t-4.5 -5zM406 780 q-11 -9 -16 -3t6 15l130 114q10 9 14 10t9 -6t4 -10t-12 -12z" glyph-name="Aacute" horiz-adv-x="610" unicode="Á"/><glyph d="M441 700q7 0 9 -1.5t3 -9.5l105 -678q1 -11 -11 -11t-13 11l-30 189q-2 9 -4.5 11.5t-12.5 2.5h-282q-15 0 -23 -14l-102 -189q-6 -11 -17 -11q-13 0 -7 11l367 678q6 11 18 11zM206 245q-6 -11 5 -11h278q10 0 9 11l-61 406q-1 3 -3 4.5t-4.5 0.5t-4.5 -5zM471 878 l-108 -94q-10 -9 -13 -9.5t-10 5.5q-4 7 -3 10t12 12l124 100q7 5 12 0l86 -100q7 -9 7 -12t-8 -10q-8 -6 -11 -5.5t-10 9.5l-70 94q-3 5 -8 0z" glyph-name="Acircumflex" horiz-adv-x="610" unicode="Â"/><glyph d="M441 700q7 0 9 -1.5t3 -9.5l105 -678q1 -11 -11 -11t-13 11l-30 189q-2 9 -4.5 11.5t-12.5 2.5h-282q-15 0 -23 -14l-102 -189q-6 -11 -17 -11q-13 0 -7 11l367 678q6 11 18 11zM206 245q-6 -11 5 -11h278q10 0 9 11l-61 406q-1 3 -3 4.5t-4.5 0.5t-4.5 -5zM513 774 q-26 1 -57 27t-49 27q-33 2 -72 -44q-7 -9 -15 -4q-7 5 -1 14q44 56 91 54q23 -1 53.5 -27t52.5 -27q34 -1 72 44q8 10 16 4q6 -5 0 -14q-43 -54 -91 -54z" glyph-name="Atilde" horiz-adv-x="610" unicode="Ã"/><glyph d="M441 700q7 0 9 -1.5t3 -9.5l105 -678q1 -11 -11 -11t-13 11l-30 189q-2 9 -4.5 11.5t-12.5 2.5h-282q-15 0 -23 -14l-102 -189q-6 -11 -17 -11q-13 0 -7 11l367 678q6 11 18 11zM206 245q-6 -11 5 -11h278q10 0 9 11l-61 406q-1 3 -3 4.5t-4.5 0.5t-4.5 -5zM500 798 q2 10 10.5 17t18.5 7t15.5 -7.5t3.5 -16.5q-6 -24 -28 -24q-10 0 -16 7t-4 17zM370 798q2 10 10.5 17t18.5 7t15.5 -7t3.5 -17q-1 -10 -9.5 -17t-18.5 -7t-16 7t-4 17z" glyph-name="Adieresis" horiz-adv-x="610" unicode="Ä"/><glyph d="M441 700q7 0 9 -1.5t3 -9.5l105 -678q1 -11 -11 -11t-13 11l-30 189q-2 9 -4.5 11.5t-12.5 2.5h-282q-15 0 -23 -14l-102 -189q-6 -11 -17 -11q-13 0 -7 11l367 678q6 11 18 11zM206 245q-6 -11 5 -11h278q10 0 9 11l-61 406q-1 3 -3 4.5t-4.5 0.5t-4.5 -5zM413 848 q-5 -23 8.5 -39.5t36.5 -16.5t43 16.5t24 39.5q5 23 -8.5 39.5t-36.5 16.5t-43 -16.5t-24 -39.5zM395 848q6 31 31.5 52.5t56.5 21.5t48.5 -21.5t11.5 -52.5t-32 -52.5t-57 -21.5t-48 21.5t-11 52.5z" glyph-name="Aring" horiz-adv-x="610" unicode="Å"/><glyph d="M344 204q1 7 0 8.5t-8 1.5h-131q-15 0 -23 -14l-102 -189q-6 -11 -17 -11q-13 0 -7 11l367 678q6 11 18 11h345q12 0 9 -10t-13 -10h-313q-10 0 -12 -10l-55 -281q-1 -7 0 -8.5t8 -1.5h263q7 0 8.5 -2t0.5 -8q-1 -10 -13 -10h-263q-10 0 -12 -10l-62 -319q-1 -7 0 -8.5 t8 -1.5h313q7 0 8.5 -2t0.5 -8q-1 -10 -12 -10h-334q-7 0 -8.5 2t-0.5 9zM206 245q-6 -11 5 -11h129q10 0 12 10l80 412q-4 0 -7 -5z" glyph-name="AE" horiz-adv-x="733" unicode="Æ"/><glyph d="M236 -110q-7 2 -3 10l52 100q-91 17 -134 93.5t-16 213.5l17 86q31 159 123 236.5t210 74.5q113 -3 167 -89q6 -9 -5 -16q-9 -6 -16 5q-49 77 -150 80q-109 3 -194 -70t-113 -223l-16 -82q-29 -150 27 -223t167 -70q105 3 185 85q7 7 13 0q8 -7 -1 -16q-86 -86 -201 -89 q-16 0 -46 2l-33 -67q55 32 97 5t32 -78q-12 -60 -67 -86.5t-95 5.5q-6 4 -1 12q7 11 14 5q32 -26 76 -4.5t53 67.5q6 31 -14 52.5t-53.5 19.5t-61.5 -34q-6 -7 -13 -5z" glyph-name="Ccedilla" horiz-adv-x="599" unicode="Ç"/><glyph d="M493 369q-1 -10 -13 -10h-263q-10 0 -12 -10l-62 -319q-1 -7 0 -8.5t8 -1.5h313q12 0 9 -10q-1 -10 -12 -10h-334q-7 0 -8.5 2t-0.5 9l131 678q2 11 14 11h334q7 0 8.5 -2t0.5 -8q-2 -10 -13 -10h-313q-10 0 -12 -10l-55 -281q-1 -7 0 -8.5t8 -1.5h263q7 0 8.5 -2t0.5 -8 zM488 780l-93 108q-7 9 -7 12t7 10q9 6 12 5.5t9 -9.5l86 -114q7 -9 0 -15t-14 3z" glyph-name="Egrave" horiz-adv-x="544" unicode="È"/><glyph d="M493 369q-1 -10 -13 -10h-263q-10 0 -12 -10l-62 -319q-1 -7 0 -8.5t8 -1.5h313q12 0 9 -10q-1 -10 -12 -10h-334q-7 0 -8.5 2t-0.5 9l131 678q2 11 14 11h334q7 0 8.5 -2t0.5 -8q-2 -10 -13 -10h-313q-10 0 -12 -10l-55 -281q-1 -7 0 -8.5t8 -1.5h263q7 0 8.5 -2t0.5 -8 zM401 780q-11 -9 -16 -3t6 15l130 114q10 9 14 10t9 -6t4 -10t-12 -12z" glyph-name="Eacute" horiz-adv-x="544" unicode="É"/><glyph d="M493 369q-1 -10 -13 -10h-263q-10 0 -12 -10l-62 -319q-1 -7 0 -8.5t8 -1.5h313q12 0 9 -10q-1 -10 -12 -10h-334q-7 0 -8.5 2t-0.5 9l131 678q2 11 14 11h334q7 0 8.5 -2t0.5 -8q-2 -10 -13 -10h-313q-10 0 -12 -10l-55 -281q-1 -7 0 -8.5t8 -1.5h263q7 0 8.5 -2t0.5 -8 zM458 878l-108 -94q-10 -9 -13 -9.5t-10 5.5q-4 7 -3 10t12 12l124 100q7 5 12 0l86 -100q7 -9 7 -12t-8 -10q-8 -6 -11 -5.5t-10 9.5l-70 94q-3 5 -8 0z" glyph-name="Ecircumflex" horiz-adv-x="544" unicode="Ê"/><glyph d="M493 369q-1 -10 -13 -10h-263q-10 0 -12 -10l-62 -319q-1 -7 0 -8.5t8 -1.5h313q12 0 9 -10q-1 -10 -12 -10h-334q-7 0 -8.5 2t-0.5 9l131 678q2 11 14 11h334q7 0 8.5 -2t0.5 -8q-2 -10 -13 -10h-313q-10 0 -12 -10l-55 -281q-1 -7 0 -8.5t8 -1.5h263q7 0 8.5 -2t0.5 -8 zM487 798q2 10 10.5 17t18.5 7t15.5 -7.5t3.5 -16.5q-6 -24 -28 -24q-10 0 -16 7t-4 17zM357 798q2 10 10.5 17t18.5 7t15.5 -7t3.5 -17q-1 -10 -9.5 -17t-18.5 -7t-16 7t-4 17z" glyph-name="Edieresis" horiz-adv-x="544" unicode="Ë"/><glyph d="M127 0q-7 0 -8.5 2t-0.5 9l131 678q2 11 14 11q7 0 8.5 -2t-0.5 -9l-131 -678q-2 -11 -13 -11zM333 780l-93 108q-7 9 -7 12t7 10q9 6 12 5.5t9 -9.5l86 -114q7 -9 0 -15t-14 3z" glyph-name="Igrave" horiz-adv-x="254" unicode="Ì"/><glyph d="M127 0q-7 0 -8.5 2t-0.5 9l131 678q2 11 14 11q7 0 8.5 -2t-0.5 -9l-131 -678q-2 -11 -13 -11zM225 780q-11 -9 -16 -3t6 15l130 114q10 9 14 10t9 -6t4 -10t-12 -12z" glyph-name="Iacute" horiz-adv-x="254" unicode="Í"/><glyph d="M127 0q-7 0 -8.5 2t-0.5 9l131 678q2 11 14 11q7 0 8.5 -2t-0.5 -9l-131 -678q-2 -11 -13 -11zM294 878l-108 -94q-10 -9 -13 -9.5t-10 5.5q-4 7 -3 10t12 12l124 100q7 5 12 0l86 -100q7 -9 7 -12t-8 -10q-8 -6 -11 -5.5t-10 9.5l-70 94q-3 5 -8 0z" glyph-name="Icircumflex" horiz-adv-x="254" unicode="Î"/><glyph d="M127 0q-7 0 -8.5 2t-0.5 9l131 678q2 11 14 11q7 0 8.5 -2t-0.5 -9l-131 -678q-2 -11 -13 -11zM323 798q2 10 10.5 17t18.5 7t15.5 -7.5t3.5 -16.5q-6 -24 -28 -24q-10 0 -16 7t-4 17zM193 798q2 10 10.5 17t18.5 7t15.5 -7t3.5 -17q-1 -10 -9.5 -17t-18.5 -7t-16 7 t-4 17z" glyph-name="Idieresis" horiz-adv-x="254" unicode="Ï"/><glyph d="M134 476q2 10 13 10h53q10 0 12 10l37 193q2 11 14 11h180q127 0 186.5 -78.5t30.5 -228.5l-17 -86q-29 -150 -119 -228.5t-217 -78.5h-180q-7 0 -8.5 2t-0.5 9l86 445q1 7 0 8.5t-8 1.5h-53q-7 0 -8.5 2t-0.5 8zM268 670l-34 -174q-1 -7 0 -8.5t8 -1.5h101q7 0 8.5 -2 t0.5 -8q-2 -10 -13 -10h-101q-10 0 -12 -10l-83 -426q-1 -7 0 -8.5t8 -1.5h155q121 0 204.5 73.5t111.5 215.5l16 82q27 142 -27.5 215.5t-175.5 73.5h-155q-10 0 -12 -10z" glyph-name="Eth" horiz-adv-x="660" unicode="Ð"/><glyph d="M558 9l-287 634q-1 4 -4.5 3t-4.5 -6l-122 -629q-2 -11 -13 -11q-7 0 -8.5 2t-0.5 9l131 678q2 11 14 11q7 0 11 -9l287 -634q1 -4 4.5 -3t4.5 6l122 629q2 11 14 11q7 0 8.5 -2t-0.5 -9l-131 -678q-2 -11 -13 -11q-7 0 -12 9zM557 774q-26 1 -57 27t-49 27 q-33 2 -72 -44q-7 -9 -15 -4q-7 5 -1 14q44 56 91 54q23 -1 53.5 -27t52.5 -27q34 -1 72 44q8 10 16 4q6 -5 0 -14q-43 -54 -91 -54z" glyph-name="Ntilde" horiz-adv-x="697" unicode="Ñ"/><glyph d="M686 393l-17 -86q-31 -158 -120 -234.5t-207 -76.5t-178 77t-29 234l17 86q31 158 120 234.5t207 76.5q56 0 100 -17.5t74.5 -55t38.5 -96.5t-6 -142zM174 391l-16 -82q-29 -148 24.5 -220.5t163.5 -72.5t191.5 72.5t110.5 220.5l16 82q29 148 -25 220.5t-164 72.5 t-191 -72.5t-110 -220.5zM549 780l-93 108q-7 9 -7 12t7 10q9 6 12 5.5t9 -9.5l86 -114q7 -9 0 -15t-14 3z" glyph-name="Ograve" horiz-adv-x="686" unicode="Ò"/><glyph d="M686 393l-17 -86q-31 -158 -120 -234.5t-207 -76.5t-178 77t-29 234l17 86q31 158 120 234.5t207 76.5q56 0 100 -17.5t74.5 -55t38.5 -96.5t-6 -142zM174 391l-16 -82q-29 -148 24.5 -220.5t163.5 -72.5t191.5 72.5t110.5 220.5l16 82q29 148 -25 220.5t-164 72.5 t-191 -72.5t-110 -220.5zM467 780q-11 -9 -16 -3t6 15l130 114q10 9 14 10t9 -6t4 -10t-12 -12z" glyph-name="Oacute" horiz-adv-x="686" unicode="Ó"/><glyph d="M686 393l-17 -86q-31 -158 -120 -234.5t-207 -76.5t-178 77t-29 234l17 86q31 158 120 234.5t207 76.5q56 0 100 -17.5t74.5 -55t38.5 -96.5t-6 -142zM174 391l-16 -82q-29 -148 24.5 -220.5t163.5 -72.5t191.5 72.5t110.5 220.5l16 82q29 148 -25 220.5t-164 72.5 t-191 -72.5t-110 -220.5zM509 878l-108 -94q-10 -9 -13 -9.5t-10 5.5q-4 7 -3 10t12 12l124 100q7 5 12 0l86 -100q7 -9 7 -12t-8 -10q-8 -6 -11 -5.5t-10 9.5l-70 94q-3 5 -8 0z" glyph-name="Ocircumflex" horiz-adv-x="686" unicode="Ô"/><glyph d="M686 393l-17 -86q-31 -158 -120 -234.5t-207 -76.5t-178 77t-29 234l17 86q31 158 120 234.5t207 76.5q56 0 100 -17.5t74.5 -55t38.5 -96.5t-6 -142zM174 391l-16 -82q-29 -148 24.5 -220.5t163.5 -72.5t191.5 72.5t110.5 220.5l16 82q29 148 -25 220.5t-164 72.5 t-191 -72.5t-110 -220.5zM551 774q-25 1 -56 27t-49 27q-32 2 -71 -44q-7 -9 -15 -4q-7 5 -1 14q44 56 90 54q23 -1 53 -27t52 -27q34 -1 72 44q6 10 15 4q6 -5 0 -14q-41 -54 -90 -54z" glyph-name="Otilde" horiz-adv-x="686" unicode="Õ"/><glyph d="M686 393l-17 -86q-31 -158 -120 -234.5t-207 -76.5t-178 77t-29 234l17 86q31 158 120 234.5t207 76.5q56 0 100 -17.5t74.5 -55t38.5 -96.5t-6 -142zM174 391l-16 -82q-29 -148 24.5 -220.5t163.5 -72.5t191.5 72.5t110.5 220.5l16 82q29 148 -25 220.5t-164 72.5 t-191 -72.5t-110 -220.5zM538 798q2 10 10.5 17t18.5 7t15.5 -7.5t3.5 -16.5q-6 -24 -28 -24q-10 0 -16 7t-4 17zM408 798q2 10 10.5 17t18.5 7t15.5 -7t3.5 -17q-1 -10 -9.5 -17t-18.5 -7t-16 7t-4 17z" glyph-name="Odieresis" horiz-adv-x="686" unicode="Ö"/><glyph d="M261 349q-4 5 -10 0l-124 -105q-13 -10 -19 -3q-6 8 6 17l125 106q6 5 2 10l-84 105q-8 9 1 17t17 -3l84 -104q4 -5 10 0l126 105q12 10 18 3t-5 -17l-127 -106q-6 -5 -2 -10l85 -105q7 -10 -1 -17q-7 -5 -9.5 -4t-8.5 7z" glyph-name="multiply" horiz-adv-x="379" unicode="×"/><glyph d="M124 11l45 56q-65 81 -34 240l17 86q31 158 120 234.5t207 76.5q103 0 159 -56l33 41q8 11 22 11q13 0 3 -11l-44 -55q65 -82 34 -241l-17 -86q-31 -158 -120 -234.5t-207 -76.5q-104 0 -160 56l-33 -41q-9 -11 -21 -11q-14 0 -4 11zM664 391q29 147 -28 223l-439 -544 q51 -54 149 -54q110 0 191.5 72.5t110.5 220.5zM174 391l-16 -82q-29 -149 26 -223l439 543q-52 55 -148 55q-110 0 -191 -72.5t-110 -220.5z" glyph-name="Oslash" horiz-adv-x="686" unicode="Ø"/><glyph d="M671 689q2 11 14 11q7 0 8.5 -2t-0.5 -9l-84 -436q-15 -74 -47 -127t-73.5 -80t-81 -38.5t-80.5 -11.5q-32 0 -60.5 7t-57.5 24t-45.5 46t-24.5 73.5t6 106.5l84 436q2 11 14 11q7 0 8.5 -2t-0.5 -9l-85 -440q-11 -65 -3.5 -109.5t33.5 -72.5t59.5 -40t74.5 -12 q89 0 160.5 57t95.5 177zM514 780l-93 108q-7 9 -7 12t7 10q9 6 12 5.5t9 -9.5l86 -114q8 -9 0 -15q-7 -6 -14 3z" glyph-name="Ugrave" horiz-adv-x="656" unicode="Ù"/><glyph d="M671 689q2 11 14 11q7 0 8.5 -2t-0.5 -9l-84 -436q-15 -74 -47 -127t-73.5 -80t-81 -38.5t-80.5 -11.5q-32 0 -60.5 7t-57.5 24t-45.5 46t-24.5 73.5t6 106.5l84 436q2 11 14 11q7 0 8.5 -2t-0.5 -9l-85 -440q-11 -65 -3.5 -109.5t33.5 -72.5t59.5 -40t74.5 -12 q89 0 160.5 57t95.5 177zM447 780q-11 -9 -16 -3t6 15l130 114q10 9 14 10t9 -6t4 -10t-12 -12z" glyph-name="Uacute" horiz-adv-x="656" unicode="Ú"/><glyph d="M671 689q2 11 14 11q7 0 8.5 -2t-0.5 -9l-84 -436q-15 -74 -47 -127t-73.5 -80t-81 -38.5t-80.5 -11.5q-32 0 -60.5 7t-57.5 24t-45.5 46t-24.5 73.5t6 106.5l84 436q2 11 14 11q7 0 8.5 -2t-0.5 -9l-85 -440q-11 -65 -3.5 -109.5t33.5 -72.5t59.5 -40t74.5 -12 q89 0 160.5 57t95.5 177zM494 878l-108 -94q-10 -9 -13 -9.5t-10 5.5q-4 7 -3 10t12 12l124 100q7 5 12 0l86 -100q7 -9 7 -12t-8 -10q-8 -6 -11 -5.5t-10 9.5l-70 94q-3 5 -8 0z" glyph-name="Ucircumflex" horiz-adv-x="656" unicode="Û"/><glyph d="M671 689q2 11 14 11q7 0 8.5 -2t-0.5 -9l-84 -436q-15 -74 -47 -127t-73.5 -80t-81 -38.5t-80.5 -11.5q-32 0 -60.5 7t-57.5 24t-45.5 46t-24.5 73.5t6 106.5l84 436q2 11 14 11q7 0 8.5 -2t-0.5 -9l-85 -440q-11 -65 -3.5 -109.5t33.5 -72.5t59.5 -40t74.5 -12 q89 0 160.5 57t95.5 177zM523 798q2 10 10.5 17t18.5 7t15.5 -7.5t3.5 -16.5q-6 -24 -28 -24q-10 0 -16 7t-4 17zM393 798q2 10 10.5 17t18.5 7t15.5 -7t3.5 -17q-1 -10 -9.5 -17t-18.5 -7t-16 7t-4 17z" glyph-name="Udieresis" horiz-adv-x="656" unicode="Ü"/><glyph d="M349 374l246 315q9 11 20 11q13 0 4 -11l-271 -345l-64 -333q-2 -11 -13 -11t-9 11l64 333l-137 345q-4 11 9 11q7 0 9.5 -1.5t5.5 -9.5l124 -315q4 -10 12 0zM390 780q-11 -9 -16 -3t6 15l130 114q10 9 14 10t9 -6t4 -10t-12 -12z" glyph-name="Yacute" horiz-adv-x="542" unicode="Ý"/><glyph d="M249 689q2 11 14 11q7 0 8.5 -2t-0.5 -9l-22 -114q-1 -7 0 -8.5t8 -1.5h126q114 0 160 -59.5t27 -156.5t-88 -156.5t-183 -59.5h-126q-10 0 -12 -10l-21 -112q-2 -11 -13 -11q-7 0 -8.5 2t-0.5 9zM303 153q103 0 165.5 54.5t79.5 141.5q18 87 -24 141.5t-145 54.5h-126 q-10 0 -12 -10l-72 -372q-1 -7 0 -8.5t8 -1.5h126z" glyph-name="Thorn" horiz-adv-x="558" unicode="Þ"/><glyph d="M80 11l102 525q21 108 111 150q74 34 143 6q67 -28 72 -97q1 -18 -3 -38q-7 -35 -26.5 -66t-39.5 -49.5t-38 -43t-23 -48.5q-5 -26 4 -47t25 -35.5t32.5 -29.5t25.5 -37t3 -51q-19 -94 -141 -135q-15 -5 -15 4q0 7 1.5 9.5t10.5 5.5q49 17 82 43t42 73q5 24 -4.5 44 t-26 34t-32.5 29.5t-24.5 39t-2.5 53.5q5 28 24 54t38.5 44.5t38.5 46.5t25 58q15 76 -45 112q-55 34 -123 10q-79 -28 -107 -114q-5 -15 -8 -30l-101 -520q-2 -11 -12 -11t-8 11z" glyph-name="germandbls" horiz-adv-x="499" unicode="ß"/><glyph d="M400 0h-4h-1l-3 2l-1 1q0 4 1 8l8 41q-12 -10 -18 -14l-20 -12q-6 -4 -20 -10l-10 -5q-6 -1 -11 -4q-20 -6 -40 -9h-3l-1 -1q-3 0 -8 -0.5t-7 -0.5q-17 0 -25 1q-38 3 -61 17l-6 4q-68 45 -58 159q2 19 6 42l12 62q4 22 13 52l7 19q47 116 146 144q6 2 8 2l15 3 q10 2 16 2q2 0 4.5 0.5t3.5 0.5h17h4q2 0 5.5 -0.5t5.5 -0.5q20 -5 27 -7q3 0 7 -2q2 0 3 -1q13 -5 23 -12q1 0 3 -1q17 -12 27 -22q2 -1 3.5 -3t4 -4.5l3.5 -3.5l9 42q1 11 12 11h3h2l1 -1l1 -1q1 -1 1 -3v-4v-2l-93 -478q-3 -10 -7 -11h-2h-3zM152 292l-16 -84 q-8 -41 -5 -70q2 -27 8 -43q0 -2 2 -6q8 -20 22 -37l9 -8q12 -10 19 -14l10 -5q4 -2 6 -2q4 -2 6 -2l12 -3q12 -3 25 -3h14q13 0 19 1l8 2q23 4 48 14l10 5q2 1 4 2.5t3 1.5q4 1 7 4q6 3 7 4l9 6l7 5q9 6 18 15l68 350l-12 15q-10 10 -22 19l-12 7q-18 10 -41 15q-8 2 -11 2 l-1 1h-2q-2 0 -7 0.5t-8 0.5h-14q-2 0 -6.5 -0.5t-6.5 -0.5l-14 -2q-24 -5 -45 -16l-6 -3q-4 -3 -12 -7q-8 -5 -23 -18q-29 -26 -48 -61q-20 -39 -29 -85zM422 580l-135 108q-11 9 -12 12t4 10t9 6t14 -10l130 -114q11 -9 6 -15t-16 3z" glyph-name="agrave" unicode="à"/><glyph d="M400 0q-10 0 -8 11l8 41q-67 -53 -138 -56q-85 -3 -125 56t-19 167l12 62q21 108 83.5 167t146.5 56q69 -3 116 -57l9 42q2 11 12 11t8 -11l-93 -478q-2 -11 -12 -11zM152 292l-16 -84q-18 -94 19 -145t109 -48q76 3 140 60l68 350q-41 57 -116 60q-71 3 -128.5 -48 t-75.5 -145zM307 580q-11 -9 -16 -3t6 15l130 114q10 9 14 10t9 -6t4 -10t-12 -12z" glyph-name="aacute" unicode="á"/><glyph d="M400 0q-10 0 -8 11l8 41q-67 -53 -138 -56q-85 -3 -125 56t-19 167l12 62q21 108 83.5 167t146.5 56q69 -3 116 -57l9 42q2 11 12 11t8 -11l-93 -478q-2 -11 -12 -11zM152 292l-16 -84q-18 -94 19 -145t109 -48q76 3 140 60l68 350q-41 57 -116 60q-71 3 -128.5 -48 t-75.5 -145zM374 678l-108 -94q-10 -9 -13 -9.5t-10 5.5q-4 7 -3 10t12 12l124 100q7 5 12 0l86 -100q7 -9 7 -12t-8 -10q-8 -6 -11 -5.5t-10 9.5l-70 94q-3 5 -8 0z" glyph-name="acircumflex" unicode="â"/><glyph d="M400 0q-10 0 -8 11l8 41q-67 -53 -138 -56q-85 -3 -125 56t-19 167l12 62q21 108 83.5 167t146.5 56q69 -3 116 -57l9 42q2 11 12 11t8 -11l-93 -478q-2 -11 -12 -11zM152 292l-16 -84q-18 -94 19 -145t109 -48q76 3 140 60l68 350q-41 57 -116 60q-71 3 -128.5 -48 t-75.5 -145zM423 574q-26 1 -57 27t-49 27q-33 2 -72 -44q-7 -9 -15 -4q-7 5 -1 14q44 56 91 54q23 -1 53.5 -27t52.5 -27q34 -1 72 44q8 10 16 4q6 -5 0 -14q-43 -54 -91 -54z" glyph-name="atilde" unicode="ã"/><glyph d="M400 0q-10 0 -8 11l8 41q-67 -53 -138 -56q-85 -3 -125 56t-19 167l12 62q21 108 83.5 167t146.5 56q69 -3 116 -57l9 42q2 11 12 11t8 -11l-93 -478q-2 -11 -12 -11zM152 292l-16 -84q-18 -94 19 -145t109 -48q76 3 140 60l68 350q-41 57 -116 60q-71 3 -128.5 -48 t-75.5 -145zM403 598q2 10 10.5 17t18.5 7t15.5 -7.5t3.5 -16.5q-6 -24 -28 -24q-10 0 -16 7t-4 17zM273 598q2 10 10.5 17t18.5 7t15.5 -7t3.5 -17q-1 -10 -9.5 -17t-18.5 -7t-16 7t-4 17z" glyph-name="adieresis" unicode="ä"/><glyph d="M400 0q-10 0 -8 11l8 41q-67 -53 -138 -56q-85 -3 -125 56t-19 167l12 62q21 108 83.5 167t146.5 56q69 -3 116 -57l9 42q2 11 12 11t8 -11l-93 -478q-2 -11 -12 -11zM152 292l-16 -84q-18 -94 19 -145t109 -48q76 3 140 60l68 350q-41 57 -116 60q-71 3 -128.5 -48 t-75.5 -145zM316 648q-5 -23 8.5 -39.5t36.5 -16.5t43 16.5t24 39.5q5 23 -8.5 39.5t-36.5 16.5t-43 -16.5t-24 -39.5zM298 648q6 31 31.5 52.5t56.5 21.5t48.5 -21.5t11.5 -52.5t-32 -52.5t-57 -21.5t-48 21.5t-11 52.5z" glyph-name="aring" unicode="å"/><glyph d="M558 -4q-109 0 -140 90l-14 -75q-2 -11 -12 -11t-8 11l9 46q-30 -27 -72.5 -44t-83.5 -17q-73 0 -114 47t-27 117q13 70 72 116.5t132 46.5q41 0 77 -17.5t55 -43.5l15 76q13 69 -22.5 108t-93.5 39q-69 0 -127 -50q-10 -8 -15 -2q-5 7 4 15q61 56 141 56 q53 0 90.5 -29.5t44.5 -80.5q64 110 177 110q69 0 102 -41t18 -114q-10 -54 -40 -81t-94 -27h-184l-19 -102q3 -61 38.5 -92.5t92.5 -31.5q73 0 134 59q10 10 15 3q6 -7 -2 -15q-68 -66 -149 -66zM116 160q-12 -61 23 -103t102 -42q85 0 155 60l33 169q-46 60 -131 60 q-67 0 -119 -41.5t-63 -102.5zM643 485q-54 0 -99.5 -32.5t-72.5 -92.5l-19 -101h183q56 0 79.5 22.5t32.5 65.5q13 67 -16.5 102.5t-87.5 35.5z" glyph-name="ae" horiz-adv-x="776" unicode="æ"/><glyph d="M161 -110q-7 2 -3 10l52 102q-60 15 -85 70.5t-7 146.5l12 62q21 108 82 165.5t146 57.5t132 -66q5 -8 -3 -15q-8 -6 -15 3q-42 59 -118 59q-72 0 -128 -50t-74 -143l-16 -84q-18 -93 18 -143t108 -50q76 0 142 59q10 10 15 3q6 -7 -2 -15q-73 -66 -157 -66q-17 0 -32 3 l-34 -68q55 32 97 5t32 -78q-12 -60 -67 -86.5t-95 5.5q-6 4 -1 12q7 11 14 5q32 -26 76 -4.5t53 67.5q6 31 -14 52.5t-53.5 19.5t-61.5 -34q-6 -7 -13 -5z" glyph-name="ccedilla" horiz-adv-x="466" unicode="ç"/><glyph d="M118 219l12 62q20 104 78 163.5t140 59.5q69 0 102 -41t18 -114q-10 -54 -40 -81t-94 -27h-182q-10 0 -12 -10l-4 -23q-17 -94 18.5 -143.5t107.5 -49.5q73 0 134 59q9 9 15 3q7 -7 -2 -15q-68 -66 -149 -66q-85 0 -124 57.5t-18 165.5zM449 347q13 67 -16.5 102.5 t-87.5 35.5q-68 0 -121.5 -51t-71.5 -142l-4 -23q-1 -6 0.5 -8t7.5 -2h181q56 0 79.5 22.5t32.5 65.5zM406 580l-93 108q-7 9 -7 12t7 10q9 6 12 5.5t9 -9.5l86 -114q8 -9 0 -15q-7 -6 -14 3z" glyph-name="egrave" horiz-adv-x="478" unicode="è"/><glyph d="M118 219l12 62q20 104 78 163.5t140 59.5q69 0 102 -41t18 -114q-10 -54 -40 -81t-94 -27h-182q-10 0 -12 -10l-4 -23q-17 -94 18.5 -143.5t107.5 -49.5q73 0 134 59q9 9 15 3q7 -7 -2 -15q-68 -66 -149 -66q-85 0 -124 57.5t-18 165.5zM449 347q13 67 -16.5 102.5 t-87.5 35.5q-68 0 -121.5 -51t-71.5 -142l-4 -23q-1 -6 0.5 -8t7.5 -2h181q56 0 79.5 22.5t32.5 65.5zM319 580q-11 -9 -16 -3t6 15l130 114q10 9 14 10t9 -6t4 -10t-12 -12z" glyph-name="eacute" horiz-adv-x="478" unicode="é"/><glyph d="M118 219l12 62q20 104 78 163.5t140 59.5q69 0 102 -41t18 -114q-10 -54 -40 -81t-94 -27h-182q-10 0 -12 -10l-4 -23q-17 -94 18.5 -143.5t107.5 -49.5q73 0 134 59q9 9 15 3q7 -7 -2 -15q-68 -66 -149 -66q-85 0 -124 57.5t-18 165.5zM449 347q13 67 -16.5 102.5 t-87.5 35.5q-68 0 -121.5 -51t-71.5 -142l-4 -23q-1 -6 0.5 -8t7.5 -2h181q56 0 79.5 22.5t32.5 65.5zM366 677l-108 -94q-10 -9 -13 -9.5t-10 5.5q-4 7 -3 10t12 12l124 100q7 5 12 0l86 -100q7 -9 7 -12t-8 -10q-8 -6 -11 -5.5t-10 9.5l-70 94q-3 5 -8 0z" glyph-name="ecircumflex" horiz-adv-x="478" unicode="ê"/><glyph d="M118 219l12 62q20 104 78 163.5t140 59.5q69 0 102 -41t18 -114q-10 -54 -40 -81t-94 -27h-182q-10 0 -12 -10l-4 -23q-17 -94 18.5 -143.5t107.5 -49.5q73 0 134 59q9 9 15 3q7 -7 -2 -15q-68 -66 -149 -66q-85 0 -124 57.5t-18 165.5zM449 347q13 67 -16.5 102.5 t-87.5 35.5q-68 0 -121.5 -51t-71.5 -142l-4 -23q-1 -6 0.5 -8t7.5 -2h181q56 0 79.5 22.5t32.5 65.5zM395 598q2 10 10.5 17t18.5 7t15.5 -7.5t3.5 -16.5q-6 -24 -28 -24q-10 0 -16 7t-4 17zM265 598q2 10 10.5 17t18.5 7t15.5 -7t3.5 -17q-1 -10 -9.5 -17t-18.5 -7t-16 7 t-4 17z" glyph-name="edieresis" horiz-adv-x="478" unicode="ë"/><glyph d="M106 0q-10 0 -8 11l93 478q2 11 12 11t8 -11l-93 -478q-2 -11 -12 -11zM274 580l-93 108q-7 9 -7 12t7 10q9 6 12 5.5t9 -9.5l86 -114q8 -9 0 -15q-7 -6 -14 3z" glyph-name="igrave" horiz-adv-x="212" unicode="ì"/><glyph d="M106 0q-10 0 -8 11l93 478q2 11 12 11t8 -11l-93 -478q-2 -11 -12 -11zM167 580q-11 -9 -16 -3t6 15l130 114q10 9 14 10t9 -6t4 -10t-12 -12z" glyph-name="iacute" horiz-adv-x="212" unicode="í"/><glyph d="M106 0q-10 0 -8 11l93 478q2 11 12 11t8 -11l-93 -478q-2 -11 -12 -11zM234 677l-108 -94q-10 -9 -13 -9.5t-10 5.5q-4 7 -3 10t12 12l124 100q7 5 12 0l86 -100q7 -9 7 -12t-8 -10q-8 -6 -11 -5.5t-10 9.5l-70 94q-3 5 -8 0z" glyph-name="icircumflex" horiz-adv-x="212" unicode="î"/><glyph d="M106 0q-10 0 -8 11l93 478q2 11 12 11t8 -11l-93 -478q-2 -11 -12 -11zM263 598q2 10 10.5 17t18.5 7t15.5 -7.5t3.5 -16.5q-6 -24 -28 -24q-10 0 -16 7t-4 17zM133 598q2 10 10.5 17t18.5 7t15.5 -7t3.5 -17q-1 -10 -9.5 -17t-18.5 -7t-16 7t-4 17z" glyph-name="idieresis" horiz-adv-x="212" unicode="ï"/><glyph d="M319 550q-5 9 4 15l118 80q-53 39 -131 39q-12 0 -9 10t13 10q89 0 146 -46l50 34q9 6 15 -2q6 -9 -4 -15l-45 -31q79 -82 47 -251l-34 -174q-21 -108 -82.5 -165.5t-146.5 -57.5q-86 0 -125 57.5t-18 165.5l4 19q21 108 82.5 165.5t146.5 57.5q60 0 97 -31t44 -88l10 54 q31 160 -45 235l-122 -83q-10 -7 -15 2zM264 16q73 0 128 50t73 143l8 39q18 93 -18 143t-109 50t-128 -50t-73 -143l-8 -39q-18 -93 18 -143t109 -50z" glyph-name="eth" horiz-adv-x="522" unicode="ð"/><glyph d="M462 330q13 75 -18 115t-101 40q-74 0 -144 -55l-81 -419q-2 -11 -12 -11t-8 11l93 478q2 11 12 11t8 -11l-8 -40q73 55 149 55q74 0 109.5 -45t20.5 -126l-62 -322q-2 -11 -12 -11t-8 11zM419 574q-26 1 -56 25.5t-47 25.5q-31 2 -70 -42q-6 -9 -14 -4q-7 5 -1 14 q43 54 88 52q22 -1 51.5 -26t50.5 -26q34 -1 70 42q8 10 16 4q5 -5 0 -14q-41 -51 -88 -51z" glyph-name="ntilde" horiz-adv-x="504" unicode="ñ"/><glyph d="M500 281l-12 -62q-21 -108 -82 -165.5t-146 -57.5t-124 57.5t-18 165.5l12 62q21 108 82 165.5t146 57.5t124 -57.5t18 -165.5zM263 15q73 0 129 50t74 143l16 84q18 93 -18 143t-109 50t-129 -50t-74 -143l-16 -84q-18 -93 18 -143t109 -50zM428 580l-93 108q-7 9 -7 12 t7 10q9 6 12 5.5t9 -9.5l86 -114q7 -9 0 -15t-14 3z" glyph-name="ograve" horiz-adv-x="522" unicode="ò"/><glyph d="M500 281l-12 -62q-21 -108 -82 -165.5t-146 -57.5t-124 57.5t-18 165.5l12 62q21 108 82 165.5t146 57.5t124 -57.5t18 -165.5zM263 15q73 0 129 50t74 143l16 84q18 93 -18 143t-109 50t-129 -50t-74 -143l-16 -84q-18 -93 18 -143t109 -50zM341 580q-11 -9 -16 -3t6 15 l130 114q10 9 14 10t9 -6t4 -10t-12 -12z" glyph-name="oacute" horiz-adv-x="522" unicode="ó"/><glyph d="M500 281l-12 -62q-21 -108 -82 -165.5t-146 -57.5t-124 57.5t-18 165.5l12 62q21 108 82 165.5t146 57.5t124 -57.5t18 -165.5zM263 15q73 0 129 50t74 143l16 84q18 93 -18 143t-109 50t-129 -50t-74 -143l-16 -84q-18 -93 18 -143t109 -50zM388 677l-108 -94 q-10 -9 -13 -9.5t-10 5.5q-4 7 -3 10t12 12l124 100q7 5 12 0l86 -100q7 -9 7 -12t-8 -10q-8 -6 -11 -5.5t-10 9.5l-70 94q-3 5 -8 0z" glyph-name="ocircumflex" horiz-adv-x="522" unicode="ô"/><glyph d="M500 281l-12 -62q-21 -108 -82 -165.5t-146 -57.5t-124 57.5t-18 165.5l12 62q21 108 82 165.5t146 57.5t124 -57.5t18 -165.5zM263 15q73 0 129 50t74 143l16 84q18 93 -18 143t-109 50t-129 -50t-74 -143l-16 -84q-18 -93 18 -143t109 -50zM429 573q-26 1 -56 25.5 t-47 25.5q-31 2 -70 -42q-6 -9 -14 -4q-7 5 -1 14q43 54 88 52q22 -1 51.5 -26t50.5 -26q34 -1 70 42q8 10 16 4q5 -5 0 -14q-41 -51 -88 -51z" glyph-name="otilde" horiz-adv-x="522" unicode="õ"/><glyph d="M500 281l-12 -62q-21 -108 -82 -165.5t-146 -57.5t-124 57.5t-18 165.5l12 62q21 108 82 165.5t146 57.5t124 -57.5t18 -165.5zM263 15q73 0 129 50t74 143l16 84q18 93 -18 143t-109 50t-129 -50t-74 -143l-16 -84q-18 -93 18 -143t109 -50zM417 598q2 10 10.5 17 t18.5 7t15.5 -7.5t3.5 -16.5q-6 -24 -28 -24q-10 0 -16 7t-4 17zM287 598q2 10 10.5 17t18.5 7t15.5 -7t3.5 -17q-1 -10 -9.5 -17t-18.5 -7t-16 7t-4 17z" glyph-name="odieresis" horiz-adv-x="522" unicode="ö"/><glyph d="M237 218q2 11 10.5 18t18.5 7q11 0 17 -7.5t4 -17.5q-2 -11 -11 -18t-19 -7q-11 0 -16.5 7.5t-3.5 17.5zM295 520q2 11 11 18t19 7q11 0 16.5 -7.5t3.5 -17.5q-2 -11 -11 -18t-19 -7q-11 0 -16.5 7.5t-3.5 17.5zM121 369q2 11 13 11h318q7 0 8.5 -2t0.5 -9 q-2 -11 -13 -11h-318q-7 0 -8.5 2t-0.5 9z" glyph-name="divide" horiz-adv-x="440" unicode="÷"/><glyph d="M541 490l-52 -56q30 -58 11 -153l-12 -62q-21 -108 -82 -165.5t-146 -57.5t-123 55l-40 -44q-10 -11 -20 -11q-12 0 0 14l51 55q-29 57 -10 154l12 62q21 108 82 165.5t146 57.5q83 0 123 -55l40 44q10 11 20 11q12 0 0 -14zM263 15q73 0 129 50t74 143l16 84 q15 78 -8 125l-322 -350q34 -52 111 -52zM136 208q-15 -78 7 -126l322 350q-35 53 -110 53q-73 0 -129 -50t-74 -143z" glyph-name="oslash" horiz-adv-x="522" unicode="ø"/><glyph d="M201 489l-62 -319q-14 -75 17 -115t101 -40q65 0 135 48l83 426q2 11 12 11t8 -11l-93 -478q-2 -11 -12 -11t-8 11l6 32q-70 -47 -140 -47q-74 0 -109.5 45t-20.5 126l63 322q2 11 12 11t8 -11zM410 580l-93 108q-7 9 -7 12t7 10q9 6 12 5.5t9 -9.5l86 -114q7 -9 0 -15 t-14 3z" glyph-name="ugrave" horiz-adv-x="496" unicode="ù"/><glyph d="M201 489l-62 -319q-14 -75 17 -115t101 -40q65 0 135 48l83 426q2 11 12 11t8 -11l-93 -478q-2 -11 -12 -11t-8 11l6 32q-70 -47 -140 -47q-74 0 -109.5 45t-20.5 126l63 322q2 11 12 11t8 -11zM303 580q-11 -9 -16 -3t6 15l130 114q10 9 14 10t9 -6t4 -10t-12 -12z" glyph-name="uacute" horiz-adv-x="496" unicode="ú"/><glyph d="M201 489l-62 -319q-14 -75 17 -115t101 -40q65 0 135 48l83 426q2 11 12 11t8 -11l-93 -478q-2 -11 -12 -11t-8 11l6 32q-70 -47 -140 -47q-74 0 -109.5 45t-20.5 126l63 322q2 11 12 11t8 -11zM370 677l-108 -94q-10 -9 -13 -9.5t-10 5.5q-4 7 -3 10t12 12l124 100 q7 5 12 0l86 -100q7 -9 7 -12t-8 -10q-8 -6 -11 -5.5t-10 9.5l-70 94q-3 5 -8 0z" glyph-name="ucircumflex" horiz-adv-x="496" unicode="û"/><glyph d="M201 489l-62 -319q-14 -75 17 -115t101 -40q65 0 135 48l83 426q2 11 12 11t8 -11l-93 -478q-2 -11 -12 -11t-8 11l6 32q-70 -47 -140 -47q-74 0 -109.5 45t-20.5 126l63 322q2 11 12 11t8 -11zM399 598q2 10 10.5 17t18.5 7t15.5 -7.5t3.5 -16.5q-6 -24 -28 -24 q-10 0 -16 7t-4 17zM269 598q2 10 10.5 17t18.5 7t15.5 -7t3.5 -17q-1 -10 -9.5 -17t-18.5 -7t-16 7t-4 17z" glyph-name="udieresis" horiz-adv-x="496" unicode="ü"/><glyph d="M97 -231l114 207q9 17 7 31l-78 479q-3 14 10 14q5 0 7.5 -2t3.5 -9l73 -457q1 -4 3.5 -3.5t4.5 3.5l251 457q5 11 15 11q12 0 4 -14l-396 -720q-7 -11 -15 -11q-12 0 -4 14zM292 580q-11 -9 -16 -3t6 15l130 114q10 9 14 10t9 -6t4 -10t-12 -12z" glyph-name="yacute" horiz-adv-x="464" unicode="ý"/><glyph d="M71 -180q-10 0 -8 11l166 858q2 11 13 11q6 0 7.5 -2t-0.5 -9l-47 -242q68 54 138 57q86 3 125.5 -56t18.5 -167l-12 -62q-21 -108 -83.5 -167t-146.5 -56q-70 3 -116 56l-43 -221q-2 -11 -12 -11zM466 292q18 94 -19 145t-109 48q-76 -3 -140 -60l-68 -350 q41 -57 116 -60q72 -3 129 48t75 145z" glyph-name="thorn" unicode="þ"/><glyph d="M97 -231l114 207q9 17 7 31l-78 479q-3 14 10 14q5 0 7.5 -2t3.5 -9l73 -457q1 -4 3.5 -3.5t4.5 3.5l251 457q5 11 15 11q12 0 4 -14l-396 -720q-7 -11 -15 -11q-12 0 -4 14zM388 598q2 10 10.5 17t18.5 7t15.5 -7.5t3.5 -16.5q-6 -24 -28 -24q-10 0 -16 7t-4 17z M258 598q2 10 10.5 17t18.5 7t15.5 -7t3.5 -17q-1 -10 -9.5 -17t-18.5 -7t-16 7t-4 17z" glyph-name="ydieresis" horiz-adv-x="464" unicode="ÿ"/><glyph d="M441 700q7 0 9 -1.5t3 -9.5l105 -678q1 -11 -11 -11t-13 11l-30 189q-2 9 -4.5 11.5t-12.5 2.5h-282q-15 0 -23 -14l-102 -189q-6 -11 -17 -11q-13 0 -7 11l367 678q6 11 18 11zM206 245q-6 -11 5 -11h278q10 0 9 11l-61 406q-1 3 -3 4.5t-4.5 0.5t-4.5 -5zM354 778 q-7 0 -8.5 2t-0.5 9q2 11 13 11h205q7 0 8.5 -2t0.5 -9q-2 -11 -13 -11h-205z" glyph-name="Amacron" horiz-adv-x="610" unicode="Ā"/><glyph d="M400 0q-10 0 -8 11l8 41q-67 -53 -138 -56q-85 -3 -125 56t-19 167l12 62q21 108 83.5 167t146.5 56q69 -3 116 -57l9 42q2 11 12 11t8 -11l-93 -478q-2 -11 -12 -11zM152 292l-16 -84q-18 -94 19 -145t109 -48q76 3 140 60l68 350q-41 57 -116 60q-71 3 -128.5 -48 t-75.5 -145zM262 578q-7 0 -8.5 2t-0.5 9q2 11 13 11h205q7 0 8.5 -2t0.5 -9q-2 -11 -13 -11h-205z" glyph-name="amacron" unicode="ā"/><glyph d="M441 700q7 0 9 -1.5t3 -9.5l105 -678q1 -11 -11 -11t-13 11l-30 189q-2 9 -4.5 11.5t-12.5 2.5h-282q-15 0 -23 -14l-102 -189q-6 -11 -17 -11q-13 0 -7 11l367 678q6 11 18 11zM206 245q-6 -11 5 -11h278q10 0 9 11l-61 406q-1 3 -3 4.5t-4.5 0.5t-4.5 -5zM454 774 q-42 0 -67 27t-19 80q2 17 13 17q7 0 8.5 -2.5t-0.5 -14.5q-5 -39 13.5 -63t55.5 -24t65 24t38 63q3 12 5.5 14.5t10.5 2.5q10 0 5 -17q-13 -53 -49 -80t-79 -27z" glyph-name="Abreve" horiz-adv-x="610" unicode="Ă"/><glyph d="M400 0q-10 0 -8 11l8 41q-67 -53 -138 -56q-85 -3 -125 56t-19 167l12 62q21 108 83.5 167t146.5 56q69 -3 116 -57l9 42q2 11 12 11t8 -11l-93 -478q-2 -11 -12 -11zM152 292l-16 -84q-18 -94 19 -145t109 -48q76 3 140 60l68 350q-41 57 -116 60q-71 3 -128.5 -48 t-75.5 -145zM357 574q-42 0 -67 27t-19 80q2 17 13 17q7 0 8.5 -2.5t-0.5 -14.5q-5 -39 13.5 -63t55.5 -24t65 24t38 63q3 12 5.5 14.5t10.5 2.5q10 0 5 -17q-13 -53 -49 -80t-79 -27z" glyph-name="abreve" unicode="ă"/><glyph d="M441 700q7 0 9 -1.5t3 -9.5l105 -678q0 -10 -5 -11q-27 -8 -45 -30t-21.5 -45t11 -43t45.5 -26q11 -2 7 -14q-4 -10 -18 -8q-46 7 -61.5 42t3 74.5t60.5 57.5v3l-30 189q-2 9 -4.5 11.5t-12.5 2.5h-282q-15 0 -23 -14l-102 -189q-6 -11 -17 -11q-13 0 -7 11l367 678 q6 11 18 11zM206 245q-6 -11 5 -11h278q10 0 9 11l-61 406q-1 3 -3 4.5t-4.5 0.5t-4.5 -5z" glyph-name="Aogonek" horiz-adv-x="610" unicode="Ą"/><glyph d="M400 0q-37 -11 -56 -43t-7.5 -62.5t53.5 -38.5q11 -2 7 -14q-4 -10 -18 -8q-36 6 -54 30t-15 52.5t24.5 56t57.5 39.5l8 40q-67 -53 -138 -56q-86 -3 -125.5 56t-18.5 167l12 62q21 108 83.5 167t146.5 56q69 -3 116 -57l9 42q2 11 12 11t8 -11l-93 -478q-2 -11 -12 -11z M152 292l-16 -84q-18 -94 19 -145t109 -48q76 3 140 60l68 350q-41 57 -116 60q-71 3 -128.5 -48t-75.5 -145z" glyph-name="aogonek" unicode="ą"/><glyph d="M158 309q-29 -150 27 -223t167 -70q105 3 185 85q7 7 13 0q8 -7 -1 -16q-86 -86 -201 -89q-119 -3 -181.5 74.5t-31.5 236.5l17 86q31 159 123 236.5t210 74.5q113 -3 167 -89q6 -9 -5 -16q-9 -6 -16 5q-49 77 -150 80q-109 3 -194 -70t-113 -223zM442 780q-11 -9 -16 -3 t6 15l130 114q10 9 14 10t9 -6t4 -10t-12 -12z" glyph-name="Cacute" horiz-adv-x="599" unicode="Ć"/><glyph d="M136 208q-18 -93 18 -143t108 -50q76 0 142 59q10 10 15 3q6 -7 -2 -15q-73 -66 -157 -66q-85 0 -124 57.5t-18 165.5l12 62q21 108 82 165.5t146 57.5t132 -66q5 -8 -3 -15q-8 -6 -15 3q-42 59 -118 59q-72 0 -128 -50t-74 -143zM319 580q-11 -9 -16 -3t6 15l130 114 q10 9 14 10t9 -6t4 -10t-12 -12z" glyph-name="cacute" horiz-adv-x="466" unicode="ć"/><glyph d="M158 309q-29 -150 27 -223t167 -70q105 3 185 85q7 7 13 0q8 -7 -1 -16q-86 -86 -201 -89q-119 -3 -181.5 74.5t-31.5 236.5l17 86q31 159 123 236.5t210 74.5q113 -3 167 -89q6 -9 -5 -16q-9 -6 -16 5q-49 77 -150 80q-109 3 -194 -70t-113 -223zM499 878l-108 -94 q-10 -9 -13 -9.5t-10 5.5q-4 7 -3 10t12 12l124 100q7 5 12 0l86 -100q7 -9 7 -12t-8 -10q-8 -6 -11 -5.5t-10 9.5l-70 94q-3 5 -8 0z" glyph-name="Ccircumflex" horiz-adv-x="599" unicode="Ĉ"/><glyph d="M136 208q-18 -93 18 -143t108 -50q76 0 142 59q10 10 15 3q6 -7 -2 -15q-73 -66 -157 -66q-85 0 -124 57.5t-18 165.5l12 62q21 108 82 165.5t146 57.5t132 -66q5 -8 -3 -15q-8 -6 -15 3q-42 59 -118 59q-72 0 -128 -50t-74 -143zM371 678l-108 -94q-10 -9 -13 -9.5 t-10 5.5q-4 7 -3 10t12 12l124 100q7 5 12 0l86 -100q7 -9 7 -12t-8 -10q-8 -6 -11 -5.5t-10 9.5l-70 94q-3 5 -8 0z" glyph-name="ccircumflex" horiz-adv-x="466" unicode="ĉ"/><glyph d="M158 309q-29 -150 27 -223t167 -70q105 3 185 85q7 7 13 0q8 -7 -1 -16q-86 -86 -201 -89q-119 -3 -181.5 74.5t-31.5 236.5l17 86q31 159 123 236.5t210 74.5q113 -3 167 -89q6 -9 -5 -16q-9 -6 -16 5q-49 77 -150 80q-109 3 -194 -70t-113 -223zM463 798q2 10 10.5 17 t18.5 7t15.5 -7t3.5 -17q-1 -10 -9.5 -17t-18.5 -7t-16 7t-4 17z" glyph-name="Cdotaccent" horiz-adv-x="599" unicode="Ċ"/><glyph d="M136 208q-18 -93 18 -143t108 -50q76 0 142 59q10 10 15 3q6 -7 -2 -15q-73 -66 -157 -66q-85 0 -124 57.5t-18 165.5l12 62q21 108 82 165.5t146 57.5t132 -66q5 -8 -3 -15q-8 -6 -15 3q-42 59 -118 59q-72 0 -128 -50t-74 -143zM335 598q2 10 10.5 17t18.5 7t15.5 -7 t3.5 -17q-1 -10 -9.5 -17t-18.5 -7t-16 7t-4 17z" glyph-name="cdotaccent" horiz-adv-x="466" unicode="ċ"/><glyph d="M158 309q-29 -150 27 -223t167 -70q105 3 185 85q7 7 13 0q8 -7 -1 -16q-86 -86 -201 -89q-119 -3 -181.5 74.5t-31.5 236.5l17 86q31 159 123 236.5t210 74.5q113 -3 167 -89q6 -9 -5 -16q-9 -6 -16 5q-49 77 -150 80q-109 3 -194 -70t-113 -223zM413 895l71 -95 q3 -3 6 0l109 95q10 9 13 9.5t9 -5.5q5 -7 4 -10t-12 -12l-124 -100q-7 -5 -12 0l-86 100q-7 9 -7 12t7 10q9 6 12 5.5t10 -9.5z" glyph-name="Ccaron" horiz-adv-x="599" unicode="Č"/><glyph d="M136 208q-18 -93 18 -143t108 -50q76 0 142 59q10 10 15 3q6 -7 -2 -15q-73 -66 -157 -66q-85 0 -124 57.5t-18 165.5l12 62q21 108 82 165.5t146 57.5t132 -66q5 -8 -3 -15q-8 -6 -15 3q-42 59 -118 59q-72 0 -128 -50t-74 -143zM286 696l71 -95q3 -3 6 0l109 95 q10 9 13 9.5t9 -5.5q5 -7 4 -10t-12 -12l-124 -100q-7 -5 -12 0l-86 100q-7 9 -7 12t7 10q9 6 12 5.5t10 -9.5z" glyph-name="ccaron" horiz-adv-x="466" unicode="č"/><glyph d="M660 393l-17 -86q-29 -150 -119 -228.5t-217 -78.5h-180q-7 0 -8.5 2t-0.5 9l131 678q2 11 14 11h180q127 0 186.5 -78.5t30.5 -228.5zM268 670l-125 -640q-1 -7 0 -8.5t8 -1.5h155q121 0 204.5 73.5t111.5 215.5l16 82q27 142 -27.5 215.5t-175.5 73.5h-155 q-10 0 -12 -10zM392 895l71 -95q3 -3 6 0l109 95q10 9 13 9.5t9 -5.5q5 -7 4 -10t-12 -12l-124 -100q-7 -5 -12 0l-86 100q-7 9 -7 12t7 10q9 6 12 5.5t10 -9.5z" glyph-name="Dcaron" horiz-adv-x="660" unicode="Ď"/><glyph d="M400 0q-10 0 -8 11l8 41q-67 -53 -138 -56q-86 -3 -125.5 56t-18.5 167l12 62q21 108 83.5 167t146.5 56q69 -3 116 -57l47 242q2 11 13 11q6 0 7.5 -2t-0.5 -9l-131 -678q-2 -11 -12 -11zM152 292l-16 -84q-18 -94 19 -145t109 -48q76 3 140 60l68 350q-41 57 -116 60 q-71 3 -128.5 -48t-75.5 -145zM655 729q2 12 12.5 19t19.5 6q35 -4 16 -56q-15 -41 -50 -76q-8 -8 -12 -4q-3 3 2 11q11 14 16 21t13 21t7 22.5t-10 11.5q-17 6 -14 24z" glyph-name="dcaron" horiz-adv-x="588" unicode="ď"/><glyph d="M134 476q2 10 13 10h53q10 0 12 10l37 193q2 11 14 11h180q127 0 186.5 -78.5t30.5 -228.5l-17 -86q-29 -150 -119 -228.5t-217 -78.5h-180q-7 0 -8.5 2t-0.5 9l86 445q1 7 0 8.5t-8 1.5h-53q-7 0 -8.5 2t-0.5 8zM268 670l-34 -174q-1 -7 0 -8.5t8 -1.5h101q7 0 8.5 -2 t0.5 -8q-2 -10 -13 -10h-101q-10 0 -12 -10l-83 -426q-1 -7 0 -8.5t8 -1.5h155q121 0 204.5 73.5t111.5 215.5l16 82q27 142 -27.5 215.5t-175.5 73.5h-155q-10 0 -12 -10z" glyph-name="Dcroat" horiz-adv-x="660" unicode="Đ"/><glyph d="M506 601l17 88q2 11 13 11q6 0 7.5 -2t-0.5 -9l-17 -88q-1 -7 0 -8.5t8 -1.5h53q7 0 9 -2t1 -7q-3 -9 -13 -9h-53q-10 0 -12 -10l-108 -552q-2 -11 -12 -11t-8 11l9 41q-67 -53 -138 -56q-86 -3 -125.5 56t-18.5 167l12 62q21 108 83.5 167t146.5 56q69 -3 116 -57 l23 116q1 7 0 8.5t-8 1.5h-101q-12 0 -9 9t12 9h101q10 0 12 10zM152 292l-16 -84q-18 -94 19 -145t109 -48q76 3 140 60l68 350q-41 57 -116 60q-71 3 -128.5 -48t-75.5 -145z" glyph-name="dcroat" unicode="đ"/><glyph d="M493 369q-1 -10 -13 -10h-263q-10 0 -12 -10l-62 -319q-1 -7 0 -8.5t8 -1.5h313q12 0 9 -10q-1 -10 -12 -10h-334q-7 0 -8.5 2t-0.5 9l131 678q2 11 14 11h334q7 0 8.5 -2t0.5 -8q-2 -10 -13 -10h-313q-10 0 -12 -10l-55 -281q-1 -7 0 -8.5t8 -1.5h263q7 0 8.5 -2t0.5 -8 zM341 778q-7 0 -8.5 2t-0.5 9q2 11 13 11h205q7 0 8.5 -2t0.5 -9q-2 -11 -13 -11h-205z" glyph-name="Emacron" horiz-adv-x="544" unicode="Ē"/><glyph d="M118 219l12 62q20 104 78 163.5t140 59.5q69 0 102 -41t18 -114q-10 -54 -40 -81t-94 -27h-182q-10 0 -12 -10l-4 -23q-17 -94 18.5 -143.5t107.5 -49.5q73 0 134 59q9 9 15 3q7 -7 -2 -15q-68 -66 -149 -66q-85 0 -124 57.5t-18 165.5zM449 347q13 67 -16.5 102.5 t-87.5 35.5q-68 0 -121.5 -51t-71.5 -142l-4 -23q-1 -6 0.5 -8t7.5 -2h181q56 0 79.5 22.5t32.5 65.5zM249 578q-7 0 -8.5 2t-0.5 9q2 11 13 11h205q7 0 8.5 -2t0.5 -9q-2 -11 -13 -11h-205z" glyph-name="emacron" horiz-adv-x="478" unicode="ē"/><glyph d="M493 369q-1 -10 -13 -10h-263q-10 0 -12 -10l-62 -319q-1 -7 0 -8.5t8 -1.5h313q12 0 9 -10q-1 -10 -12 -10h-334q-7 0 -8.5 2t-0.5 9l131 678q2 11 14 11h334q7 0 8.5 -2t0.5 -8q-2 -10 -13 -10h-313q-10 0 -12 -10l-55 -281q-1 -7 0 -8.5t8 -1.5h263q7 0 8.5 -2t0.5 -8 zM441 774q-42 0 -67 27t-19 80q2 17 13 17q7 0 8.5 -2.5t-0.5 -14.5q-5 -39 13.5 -63t55.5 -24t65 24t38 63q3 12 5.5 14.5t10.5 2.5q10 0 5 -17q-13 -53 -49 -80t-79 -27z" glyph-name="Ebreve" horiz-adv-x="544" unicode="Ĕ"/><glyph d="M118 219l12 62q20 104 78 163.5t140 59.5q69 0 102 -41t18 -114q-10 -54 -40 -81t-94 -27h-182q-10 0 -12 -10l-4 -23q-17 -94 18.5 -143.5t107.5 -49.5q73 0 134 59q9 9 15 3q7 -7 -2 -15q-68 -66 -149 -66q-85 0 -124 57.5t-18 165.5zM449 347q13 67 -16.5 102.5 t-87.5 35.5q-68 0 -121.5 -51t-71.5 -142l-4 -23q-1 -6 0.5 -8t7.5 -2h181q56 0 79.5 22.5t32.5 65.5zM349 574q-42 0 -67 27t-19 80q2 17 13 17q7 0 8.5 -2.5t-0.5 -14.5q-5 -39 13.5 -63t55.5 -24t65 24t38 63q3 12 5.5 14.5t10.5 2.5q10 0 5 -17q-13 -53 -49 -80t-79 -27 z" glyph-name="ebreve" horiz-adv-x="478" unicode="ĕ"/><glyph d="M493 369q-1 -10 -13 -10h-263q-10 0 -12 -10l-62 -319q-1 -7 0 -8.5t8 -1.5h313q12 0 9 -10q-1 -10 -12 -10h-334q-7 0 -8.5 2t-0.5 9l131 678q2 11 14 11h334q7 0 8.5 -2t0.5 -8q-2 -10 -13 -10h-313q-10 0 -12 -10l-55 -281q-1 -7 0 -8.5t8 -1.5h263q7 0 8.5 -2t0.5 -8 zM422 798q2 10 10.5 17t18.5 7t15.5 -7t3.5 -17q-1 -10 -9.5 -17t-18.5 -7t-16 7t-4 17z" glyph-name="Edotaccent" horiz-adv-x="544" unicode="Ė"/><glyph d="M118 219l12 62q20 104 78 163.5t140 59.5q69 0 102 -41t18 -114q-10 -54 -40 -81t-94 -27h-182q-10 0 -12 -10l-4 -23q-17 -94 18.5 -143.5t107.5 -49.5q73 0 134 59q9 9 15 3q7 -7 -2 -15q-68 -66 -149 -66q-85 0 -124 57.5t-18 165.5zM449 347q13 67 -16.5 102.5 t-87.5 35.5q-68 0 -121.5 -51t-71.5 -142l-4 -23q-1 -6 0.5 -8t7.5 -2h181q56 0 79.5 22.5t32.5 65.5zM330 598q2 10 10.5 17t18.5 7t15.5 -7t3.5 -17q-1 -10 -9.5 -17t-18.5 -7t-16 7t-4 17z" glyph-name="edotaccent" horiz-adv-x="478" unicode="ė"/><glyph d="M493 369q-1 -10 -13 -10h-263q-10 0 -12 -10l-62 -319q-1 -7 0 -8.5t8 -1.5h313q12 0 9 -10q-1 -10 -12 -10h-20q-27 -8 -45 -30t-21.5 -45t11 -43t45.5 -26q11 -2 7 -14q-4 -10 -18 -8q-43 7 -59.5 38.5t-3 68.5t48.5 59h-279q-7 0 -8.5 2t-0.5 9l131 678q2 11 14 11 h334q7 0 8.5 -2t0.5 -8q-2 -10 -13 -10h-313q-10 0 -12 -10l-55 -281q-1 -7 0 -8.5t8 -1.5h263q7 0 8.5 -2t0.5 -8z" glyph-name="Eogonek" horiz-adv-x="544" unicode="Ę"/><glyph d="M118 219l12 62q20 104 78 163.5t140 59.5q69 0 102 -41t18 -114q-10 -54 -40 -81t-94 -27h-182q-10 0 -12 -10l-4 -23q-17 -94 18.5 -143.5t107.5 -49.5q73 0 134 59q9 9 15 3q7 -7 -2 -15q-54 -53 -115 -63q-35 -12 -53 -43.5t-6 -61.5t53 -38q11 -2 7 -14 q-4 -10 -18 -8q-41 7 -58 37t-6 66t44 59q-84 2 -122 59t-17 164zM449 347q13 67 -16.5 102.5t-87.5 35.5q-68 0 -121.5 -51t-71.5 -142l-4 -23q-1 -6 0.5 -8t7.5 -2h181q56 0 79.5 22.5t32.5 65.5z" glyph-name="eogonek" horiz-adv-x="478" unicode="ę"/><glyph d="M493 369q-1 -10 -13 -10h-263q-10 0 -12 -10l-62 -319q-1 -7 0 -8.5t8 -1.5h313q12 0 9 -10q-1 -10 -12 -10h-334q-7 0 -8.5 2t-0.5 9l131 678q2 11 14 11h334q7 0 8.5 -2t0.5 -8q-2 -10 -13 -10h-313q-10 0 -12 -10l-55 -281q-1 -7 0 -8.5t8 -1.5h263q7 0 8.5 -2t0.5 -8 zM372 896l71 -95q3 -3 6 0l109 95q10 9 13 9.5t9 -5.5q5 -7 4 -10t-12 -12l-124 -100q-7 -5 -12 0l-86 100q-7 9 -7 12t7 10q9 6 12 5.5t10 -9.5z" glyph-name="Ecaron" horiz-adv-x="544" unicode="Ě"/><glyph d="M118 219l12 62q20 104 78 163.5t140 59.5q69 0 102 -41t18 -114q-10 -54 -40 -81t-94 -27h-182q-10 0 -12 -10l-4 -23q-17 -94 18.5 -143.5t107.5 -49.5q73 0 134 59q9 9 15 3q7 -7 -2 -15q-68 -66 -149 -66q-85 0 -124 57.5t-18 165.5zM449 347q13 67 -16.5 102.5 t-87.5 35.5q-68 0 -121.5 -51t-71.5 -142l-4 -23q-1 -6 0.5 -8t7.5 -2h181q56 0 79.5 22.5t32.5 65.5zM280 695l71 -95q3 -3 6 0l109 95q10 9 13 9.5t9 -5.5q5 -7 4 -10t-12 -12l-124 -100q-7 -5 -12 0l-86 100q-7 9 -7 12t7 10q9 6 12 5.5t10 -9.5z" glyph-name="ecaron" horiz-adv-x="478" unicode="ě"/><glyph d="M481 684q-109 3 -194 -70t-113 -223l-16 -82q-29 -150 27 -223t167 -70q52 2 96.5 22t71.5 47.5t42.5 53t18.5 43.5l32 167q1 7 0 8.5t-8 1.5h-153q-12 0 -9 10t13 10h174q7 0 8.5 -2t0.5 -9l-37 -188q-4 -22 -21.5 -50.5t-47.5 -58.5t-79 -51.5t-106 -23.5 q-119 -3 -181.5 74.5t-31.5 236.5l17 86q31 159 123 236.5t210 74.5q113 -3 167 -89q6 -9 -5 -16q-9 -6 -16 5q-49 77 -150 80zM502 878l-108 -94q-10 -9 -13 -9.5t-10 5.5q-4 7 -3 10t12 12l124 100q7 5 12 0l86 -100q7 -9 7 -12t-8 -10q-8 -6 -11 -5.5t-10 9.5l-70 94 q-3 5 -8 0z" glyph-name="Gcircumflex" horiz-adv-x="644" unicode="Ĝ"/><glyph d="M399 51q-67 -53 -137 -56q-86 -3 -125.5 56t-18.5 167l12 62q21 108 83.5 167t146.5 56q69 -3 116 -57l8 42q2 11 12 11t8 -11l-110 -567q-15 -78 -69.5 -123.5t-122.5 -45.5q-45 0 -75 19.5t-42 48.5q-5 12 3 16q11 5 14 -4q9 -26 37 -43.5t67 -17.5q57 0 106 38.5 t62 108.5zM264 14q76 3 140 60l68 350q-41 57 -116 60q-72 3 -129 -48t-75 -145l-16 -84q-18 -94 19 -145t109 -48zM383 677l-108 -94q-10 -9 -13 -9.5t-10 5.5q-4 7 -3 10t12 12l124 100q7 5 12 0l86 -100q7 -9 7 -12t-8 -10q-8 -6 -11 -5.5t-10 9.5l-70 94q-3 5 -8 0z" glyph-name="gcircumflex" unicode="ĝ"/><glyph d="M481 684q-109 3 -194 -70t-113 -223l-16 -82q-29 -150 27 -223t167 -70q52 2 96.5 22t71.5 47.5t42.5 53t18.5 43.5l32 167q1 7 0 8.5t-8 1.5h-153q-12 0 -9 10t13 10h174q7 0 8.5 -2t0.5 -9l-37 -188q-4 -22 -21.5 -50.5t-47.5 -58.5t-79 -51.5t-106 -23.5 q-119 -3 -181.5 74.5t-31.5 236.5l17 86q31 159 123 236.5t210 74.5q113 -3 167 -89q6 -9 -5 -16q-9 -6 -16 5q-49 77 -150 80zM485 774q-42 0 -67 27t-19 80q2 17 13 17q7 0 8.5 -2.5t-0.5 -14.5q-5 -39 13.5 -63t55.5 -24t65 24t38 63q3 12 5.5 14.5t10.5 2.5q10 0 5 -17 q-13 -53 -49 -80t-79 -27z" glyph-name="Gbreve" horiz-adv-x="644" unicode="Ğ"/><glyph d="M399 51q-67 -53 -137 -56q-86 -3 -125.5 56t-18.5 167l12 62q21 108 83.5 167t146.5 56q69 -3 116 -57l8 42q2 11 12 11t8 -11l-110 -567q-15 -78 -69.5 -123.5t-122.5 -45.5q-45 0 -75 19.5t-42 48.5q-5 12 3 16q11 5 14 -4q9 -26 37 -43.5t67 -17.5q57 0 106 38.5 t62 108.5zM264 14q76 3 140 60l68 350q-41 57 -116 60q-72 3 -129 -48t-75 -145l-16 -84q-18 -94 19 -145t109 -48zM366 574q-42 0 -67 27t-19 80q2 17 13 17q7 0 8.5 -2.5t-0.5 -14.5q-5 -39 13.5 -63t55.5 -24t65 24t38 63q3 12 5.5 14.5t10.5 2.5q10 0 5 -17 q-13 -53 -49 -80t-79 -27z" glyph-name="gbreve" unicode="ğ"/><glyph d="M481 684q-109 3 -194 -70t-113 -223l-16 -82q-29 -150 27 -223t167 -70q52 2 96.5 22t71.5 47.5t42.5 53t18.5 43.5l32 167q1 7 0 8.5t-8 1.5h-153q-12 0 -9 10t13 10h174q7 0 8.5 -2t0.5 -9l-37 -188q-4 -22 -21.5 -50.5t-47.5 -58.5t-79 -51.5t-106 -23.5 q-119 -3 -181.5 74.5t-31.5 236.5l17 86q31 159 123 236.5t210 74.5q113 -3 167 -89q6 -9 -5 -16q-9 -6 -16 5q-49 77 -150 80zM466 798q2 10 10.5 17t18.5 7t15.5 -7t3.5 -17q-1 -10 -9.5 -17t-18.5 -7t-16 7t-4 17z" glyph-name="Gdotaccent" horiz-adv-x="644" unicode="Ġ"/><glyph d="M399 51q-67 -53 -137 -56q-86 -3 -125.5 56t-18.5 167l12 62q21 108 83.5 167t146.5 56q69 -3 116 -57l8 42q2 11 12 11t8 -11l-110 -567q-15 -78 -69.5 -123.5t-122.5 -45.5q-45 0 -75 19.5t-42 48.5q-5 12 3 16q11 5 14 -4q9 -26 37 -43.5t67 -17.5q57 0 106 38.5 t62 108.5zM264 14q76 3 140 60l68 350q-41 57 -116 60q-72 3 -129 -48t-75 -145l-16 -84q-18 -94 19 -145t109 -48zM347 598q2 10 10.5 17t18.5 7t15.5 -7t3.5 -17q-1 -10 -9.5 -17t-18.5 -7t-16 7t-4 17z" glyph-name="gdotaccent" unicode="ġ"/><glyph d="M481 684q-109 3 -194 -70t-113 -223l-16 -82q-29 -150 27 -223t167 -70q52 2 96.5 22t71.5 47.5t42.5 53t18.5 43.5l32 167q1 7 0 8.5t-8 1.5h-153q-12 0 -9 10t13 10h174q7 0 8.5 -2t0.5 -9l-37 -188q-4 -22 -21.5 -50.5t-47.5 -58.5t-79 -51.5t-106 -23.5 q-119 -3 -181.5 74.5t-31.5 236.5l17 86q31 159 123 236.5t210 74.5q113 -3 167 -89q6 -9 -5 -16q-9 -6 -16 5q-49 77 -150 80zM286 -95q2 12 12.5 19t19.5 6q35 -4 16 -56q-15 -41 -50 -76q-8 -8 -12 -4q-3 3 2 11q11 14 16 21t13 21t7 22.5t-10 11.5q-17 6 -14 24z" glyph-name="Gcommaaccent" horiz-adv-x="644" unicode="Ģ"/><glyph d="M399 51q-67 -53 -137 -56q-86 -3 -125.5 56t-18.5 167l12 62q21 108 83.5 167t146.5 56q69 -3 116 -57l8 42q2 11 12 11t8 -11l-110 -567q-15 -78 -69.5 -123.5t-122.5 -45.5q-45 0 -75 19.5t-42 48.5q-5 12 3 16q11 5 14 -4q9 -26 37 -43.5t67 -17.5q57 0 106 38.5 t62 108.5zM264 14q76 3 140 60l68 350q-41 57 -116 60q-72 3 -129 -48t-75 -145l-16 -84q-18 -94 19 -145t109 -48zM405 599q-2 -12 -12 -19t-20 -6q-34 3 -16 54q14 42 50 78q8 8 12 4q3 -3 -2 -11q-11 -14 -16 -21t-13 -21t-7 -22.5t10 -11.5q17 -6 14 -24z" glyph-name="gcommaaccent" unicode="ģ"/><glyph d="M579 349q1 7 0 8.5t-8 1.5h-354q-10 0 -12 -10l-65 -338q-2 -11 -13 -11q-7 0 -8.5 2t-0.5 9l131 678q2 11 14 11q7 0 8.5 -2t-0.5 -9l-58 -300q-1 -7 0 -8.5t8 -1.5h354q10 0 12 10l58 300q2 11 14 11q7 0 8.5 -2t-0.5 -9l-131 -678q-2 -11 -13 -11q-7 0 -8.5 2t-0.5 9z M491 878l-108 -94q-10 -9 -13 -9.5t-10 5.5q-4 7 -3 10t12 12l124 100q7 5 12 0l86 -100q7 -9 7 -12t-8 -10q-8 -6 -11 -5.5t-10 9.5l-70 94q-3 5 -8 0z" glyph-name="Hcircumflex" horiz-adv-x="650" unicode="Ĥ"/><glyph d="M462 330q13 75 -18 115t-101 40q-74 0 -144 -55l-81 -419q-2 -11 -12 -11t-8 11l131 678q2 11 13 11q6 0 7.5 -2t-0.5 -9l-46 -240q73 55 149 55q74 0 109.5 -45t20.5 -126l-62 -322q-2 -11 -12 -11t-8 11zM273 879l-108 -94q-10 -9 -13 -9.5t-10 5.5q-4 7 -3 10t12 12 l124 100q7 5 12 0l86 -100q7 -9 7 -12t-8 -10q-8 -6 -11 -5.5t-10 9.5l-70 94q-3 5 -8 0z" glyph-name="hcircumflex" horiz-adv-x="504" unicode="ĥ"/><glyph d="M719 565q-1 -10 -13 -10h-55q-10 0 -12 -10l-103 -534q-2 -11 -13 -11q-7 0 -8.5 2t-0.5 9l65 338q1 7 0 8.5t-8 1.5h-354q-10 0 -12 -10l-65 -338q-2 -11 -13 -11q-7 0 -8.5 2t-0.5 9l103 534q1 7 0 8.5t-8 1.5h-55q-7 0 -8.5 2t-0.5 8q1 10 13 10h55q10 0 12 10l20 104 q2 11 14 11q7 0 8.5 -2t-0.5 -9l-20 -104q-1 -7 0 -8.5t8 -1.5h354q10 0 12 10l20 104q2 11 14 11q7 0 8.5 -2t-0.5 -9l-20 -104q-1 -7 0 -8.5t8 -1.5h55q7 0 8.5 -2t0.5 -8zM617 545q1 7 0 8.5t-8 1.5h-354q-10 0 -12 -10l-30 -156q-1 -7 0 -8.5t8 -1.5h354q10 0 12 10z " glyph-name="Hbar" horiz-adv-x="650" unicode="Ħ"/><glyph d="M462 333q14 74 -17.5 113.5t-101.5 38.5q-77 -2 -144 -54l-81 -420q-2 -11 -12 -11t-8 11l107 552q1 7 0 8.5t-8 1.5h-53q-12 0 -9 9t12 9h53q10 0 12 10l17 88q2 11 13 11q6 0 7.5 -2t-0.5 -9l-17 -88q-1 -7 0 -8.5t8 -1.5h101q7 0 9 -2t1 -7q-3 -9 -13 -9h-101 q-10 0 -12 -10l-22 -114q73 55 149 55q74 0 109.5 -45t20.5 -126l-62 -322q-2 -11 -12 -11t-8 11z" glyph-name="hbar" horiz-adv-x="504" unicode="ħ"/><glyph d="M127 0q-7 0 -8.5 2t-0.5 9l131 678q2 11 14 11q7 0 8.5 -2t-0.5 -9l-131 -678q-2 -11 -13 -11zM336 774q-26 1 -57 27t-49 27q-33 2 -72 -44q-7 -9 -15 -4q-7 5 -1 14q44 56 91 54q23 -1 53.5 -27t52.5 -27q34 -1 72 44q8 10 16 4q6 -5 0 -14q-43 -54 -91 -54z" glyph-name="Itilde" horiz-adv-x="254" unicode="Ĩ"/><glyph d="M106 0q-10 0 -8 11l93 478q2 11 12 11t8 -11l-93 -478q-2 -11 -12 -11zM276 574q-26 1 -57 27t-49 27q-33 2 -72 -44q-7 -9 -15 -4q-7 5 -1 14q44 56 91 54q23 -1 53.5 -27t52.5 -27q34 -1 72 44q8 10 16 4q6 -5 0 -14q-43 -54 -91 -54z" glyph-name="itilde" horiz-adv-x="212" unicode="ĩ"/><glyph d="M127 0q-7 0 -8.5 2t-0.5 9l131 678q2 11 14 11q7 0 8.5 -2t-0.5 -9l-131 -678q-2 -11 -13 -11zM176 778q-7 0 -8.5 2t-0.5 9q2 11 13 11h205q7 0 8.5 -2t0.5 -9q-2 -11 -13 -11h-205z" glyph-name="Imacron" horiz-adv-x="254" unicode="Ī"/><glyph d="M106 0q-10 0 -8 11l93 478q2 11 12 11t8 -11l-93 -478q-2 -11 -12 -11zM117 578q-7 0 -8.5 2t-0.5 9q2 11 13 11h205q7 0 8.5 -2t0.5 -9q-2 -11 -13 -11h-205z" glyph-name="imacron" horiz-adv-x="212" unicode="ī"/><glyph d="M127 0q-7 0 -8.5 2t-0.5 9l131 678q2 11 14 11q7 0 8.5 -2t-0.5 -9l-131 -678q-2 -11 -13 -11zM277 774q-42 0 -67 27t-19 80q2 17 13 17q7 0 8.5 -2.5t-0.5 -14.5q-5 -39 13.5 -63t55.5 -24t65 24t38 63q3 12 5.5 14.5t10.5 2.5q10 0 5 -17q-13 -53 -49 -80t-79 -27z " glyph-name="Ibreve" horiz-adv-x="254" unicode="Ĭ"/><glyph d="M106 0q-10 0 -8 11l93 478q2 11 12 11t8 -11l-93 -478q-2 -11 -12 -11zM217 574q-42 0 -67 27t-19 80q2 17 13 17q7 0 8.5 -2.5t-0.5 -14.5q-5 -39 13.5 -63t55.5 -24t65 24t38 63q3 12 5.5 14.5t10.5 2.5q10 0 5 -17q-13 -53 -49 -80t-79 -27z" glyph-name="ibreve" horiz-adv-x="212" unicode="ĭ"/><glyph d="M127 0q-27 -8 -45 -30t-21.5 -45t11 -43t45.5 -26q11 -2 7 -14q-4 -10 -18 -8q-36 6 -53.5 30t-14.5 52.5t24 56t56 39.5l131 677q2 11 14 11q7 0 8.5 -2t-0.5 -9l-131 -678q-2 -11 -13 -11z" glyph-name="Iogonek" horiz-adv-x="254" unicode="Į"/><glyph d="M106 0q-27 -8 -45 -30t-21.5 -45t11 -43t45.5 -26q11 -2 7 -14q-4 -10 -18 -8q-36 6 -53.5 30t-14.5 53t24.5 56.5t56.5 39.5l93 476q2 11 12 11t8 -11l-93 -478q-2 -11 -12 -11zM198 598q1 10 9.5 17t18.5 7t16 -7t4 -17t-10.5 -17t-18.5 -7t-15.5 7t-3.5 17z" glyph-name="iogonek" horiz-adv-x="212" unicode="į"/><glyph d="M127 0q-7 0 -8.5 2t-0.5 9l131 678q2 11 14 11q7 0 8.5 -2t-0.5 -9l-131 -678q-2 -11 -13 -11zM257 798q2 10 10.5 17t18.5 7t15.5 -7t3.5 -17q-1 -10 -9.5 -17t-18.5 -7t-16 7t-4 17z" glyph-name="Idotaccent" horiz-adv-x="254" unicode="İ"/><glyph d="M106 0q-10 0 -8 11l93 478q2 11 12 11t8 -11l-93 -478q-2 -11 -12 -11z" glyph-name="dotlessi" horiz-adv-x="212" unicode="ı"/><glyph d="M127 0q-7 0 -8.5 2t-0.5 9l131 678q2 11 14 11q7 0 8.5 -2t-0.5 -9l-131 -678q-2 -11 -13 -11zM349 16q58 0 108.5 38.5t63.5 107.5l102 527q2 11 14 11q7 0 8.5 -2t-0.5 -9l-101 -524q-15 -77 -72.5 -123t-126.5 -46q-80 0 -120 56q-6 8 2 15q10 8 16 -2q34 -49 106 -49 z" glyph-name="IJ" horiz-adv-x="608" unicode="Ĳ"/><glyph d="M106 0q-10 0 -8 11l93 478q2 11 12 11t8 -11l-93 -478q-2 -11 -12 -11zM198 598q1 10 9.5 17t18.5 7t16 -7t4 -17t-10.5 -17t-18.5 -7t-15.5 7t-3.5 17zM86 -229q32 0 64 26t40 69l9 45l1 4l112 574q2 11 12 11t8 -11l-122 -624q-10 -50 -49 -81.5t-79 -31.5 q-55 0 -82 41q-5 7 3 14q7 6 14 -2q26 -34 69 -34zM319 598q6 24 28 24q10 0 16 -7t4 -17t-10.5 -17t-18.5 -7t-15.5 7t-3.5 17z" glyph-name="ij" horiz-adv-x="333" unicode="ĳ"/><glyph d="M175 16q58 0 108.5 38.5t63.5 107.5l102 527q2 11 14 11q7 0 8.5 -2t-0.5 -9l-101 -524q-15 -77 -72.5 -123t-126.5 -46q-80 0 -120 56q-6 8 2 15q10 8 16 -2q34 -49 106 -49zM493 878l-108 -94q-10 -9 -13 -9.5t-10 5.5q-4 7 -3 10t12 12l124 100q7 5 12 0l86 -100 q7 -9 7 -12t-8 -10q-8 -6 -11 -5.5t-10 9.5l-70 94q-3 5 -8 0z" glyph-name="Jcircumflex" horiz-adv-x="434" unicode="Ĵ"/><glyph d="M191 489q2 11 12 11t8 -11l-112 -574l-1 -4l-9 -46q-10 -50 -49 -81.5t-79 -31.5q-55 0 -82 41q-5 7 3 14q7 6 14 -2q26 -34 69 -34q32 0 64 26t40 69zM234 677l-108 -94q-10 -9 -13 -9.5t-10 5.5q-4 7 -3 10t12 12l124 100q7 5 12 0l86 -100q7 -9 7 -12t-8 -10 q-8 -6 -11 -5.5t-10 9.5l-70 94q-3 5 -8 0z" glyph-name="jcircumflex" horiz-adv-x="212" unicode="ĵ"/><glyph d="M448 80l-154 271q-5 9 -14 0l-77 -72q-13 -12 -17 -30l-46 -238q-2 -11 -13 -11q-7 0 -8.5 2t-0.5 9l131 678q2 11 14 11q7 0 8.5 -2t-0.5 -9l-73 -378q-1 -6 2.5 -7t7.5 3l410 382q12 11 24 11q4 0 6 -1.5t1.5 -4t-3.5 -5.5l-328 -306q-7 -7 -8 -10.5t4 -11.5l153 -269 l47 -81q1 -3 1 -5.5t-3 -4t-7 -1.5q-7 0 -9.5 1.5t-7.5 9.5zM252 -94q2 12 12.5 19t19.5 6q35 -4 16 -56q-15 -41 -50 -76q-8 -8 -12 -4q-3 3 2 11q11 14 16 21t13 21t7 22.5t-10 11.5q-17 6 -14 24z" glyph-name="Kcommaaccent" horiz-adv-x="557" unicode="Ķ"/><glyph d="M106 0q-10 0 -8 11l131 678q2 11 13 11q6 0 7.5 -2t-0.5 -9l-95 -490q0 -3 1 -4.5t3.5 -1t4.5 2.5l290 293q11 11 22 11q4 0 5.5 -1.5t0.5 -4.5t-5 -6l-190 -192q-5 -5 -2 -12l111 -272q5 -12 -7 -12q-10 0 -15 11l-106 258q-3 7 -10 0l-101 -102q-11 -12 -15 -34 l-23 -122q-2 -11 -12 -11zM179 -95q2 12 12.5 19t19.5 6q35 -4 16 -56q-15 -41 -50 -76q-8 -8 -12 -4q-3 3 2 11q11 14 16 21t13 21t7 22.5t-10 11.5q-17 6 -14 24z" glyph-name="kcommaaccent" horiz-adv-x="440" unicode="ķ"/><glyph d="M127 0q-7 0 -8.5 2t-0.5 9l131 678q2 11 14 11q7 0 8.5 -2t-0.5 -9l-128 -659q-1 -7 0 -8.5t8 -1.5h265q12 0 9 -10q-1 -4 -2 -6t-3 -3t-7 -1h-286zM225 780q-11 -9 -16 -3t6 15l130 114q10 9 14 10t9 -6t4 -10t-12 -12z" glyph-name="Lacute" horiz-adv-x="466" unicode="Ĺ"/><glyph d="M227 0h-1q-59 0 -93 33.5t-21 102.5l107 553q2 11 13 11q6 0 7.5 -2t-0.5 -9l-107 -552q-12 -62 17 -90t80 -28h1q12 0 9 -10q-3 -9 -12 -9zM194 780q-11 -9 -16 -3t6 15l130 114q10 9 14 10t9 -6t4 -10t-12 -12z" glyph-name="lacute" horiz-adv-x="280" unicode="ĺ"/><glyph d="M127 0q-7 0 -8.5 2t-0.5 9l131 678q2 11 14 11q7 0 8.5 -2t-0.5 -9l-128 -659q-1 -7 0 -8.5t8 -1.5h265q12 0 9 -10q-1 -4 -2 -6t-3 -3t-7 -1h-286zM213 -95q2 12 12.5 19t19.5 6q35 -4 16 -56q-15 -41 -50 -76q-8 -8 -12 -4q-3 3 2 11q11 14 16 21t13 21t7 22.5 t-10 11.5q-17 6 -14 24z" glyph-name="Lcommaaccent" horiz-adv-x="466" unicode="Ļ"/><glyph d="M227 0h-1q-59 0 -93 33.5t-21 102.5l107 553q2 11 13 11q6 0 7.5 -2t-0.5 -9l-107 -552q-12 -62 17 -90t80 -28h1q12 0 9 -10q-3 -9 -12 -9zM122 -95q2 12 12.5 19t19.5 6q35 -4 16 -56q-15 -41 -50 -76q-8 -8 -12 -4q-3 3 2 11q11 14 16 21t13 21t7 22.5t-10 11.5 q-17 6 -14 24z" glyph-name="lcommaaccent" horiz-adv-x="280" unicode="ļ"/><glyph d="M127 0q-7 0 -8.5 2t-0.5 9l131 678q2 11 14 11q7 0 8.5 -2t-0.5 -9l-128 -659q-1 -7 0 -8.5t8 -1.5h265q12 0 9 -10q-1 -4 -2 -6t-3 -3t-7 -1h-286zM208 895l71 -95q3 -3 6 0l109 95q10 9 13 9.5t9 -5.5q5 -7 4 -10t-12 -12l-124 -100q-7 -5 -12 0l-86 100q-7 9 -7 12 t7 10q9 6 12 5.5t10 -9.5z" glyph-name="Lcaron" horiz-adv-x="466" unicode="Ľ"/><glyph d="M227 0h-1q-59 0 -93 33.5t-21 102.5l107 553q2 11 13 11q6 0 7.5 -2t-0.5 -9l-107 -552q-12 -62 17 -90t80 -28h1q12 0 9 -10q-3 -9 -12 -9zM348 730q2 12 12.5 19t19.5 6q35 -4 16 -56q-15 -41 -50 -76q-8 -8 -12 -4q-3 3 2 11q11 14 16 21t13 21t7 22.5t-10 11.5 q-17 6 -14 24z" glyph-name="lcaron" horiz-adv-x="280" unicode="ľ"/><glyph d="M127 0q-7 0 -8.5 2t-0.5 9l131 678q2 11 14 11q7 0 8.5 -2t-0.5 -9l-128 -659q-1 -7 0 -8.5t8 -1.5h265q12 0 9 -10q-1 -4 -2 -6t-3 -3t-7 -1h-286zM328 472q2 10 10.5 17t18.5 7t15.5 -7t3.5 -17q-1 -10 -9.5 -17t-18.5 -7t-16 7t-4 17z" glyph-name="Ldot" horiz-adv-x="466" unicode="Ŀ"/><glyph d="M227 0h-1q-59 0 -93 33.5t-21 102.5l107 553q2 11 13 11q6 0 7.5 -2t-0.5 -9l-107 -552q-12 -62 17 -90t80 -28h1q12 0 9 -10q-3 -9 -12 -9zM264 368q2 11 11 18t19 7q11 0 16.5 -7.5t3.5 -17.5q-2 -11 -11 -18t-19 -7q-11 0 -16.5 7.5t-3.5 17.5z" glyph-name="ldot" horiz-adv-x="280" unicode="ŀ"/><glyph d="M374 425l-167 -69l-64 -326q-1 -7 0 -8.5t8 -1.5h265q12 0 9 -10q-1 -4 -2 -6t-3 -3t-7 -1h-286q-7 0 -8.5 2t-0.5 9l65 335l-95 -38q-7 -3 -9 5t5 11l103 42l62 323q2 11 14 11q7 0 8.5 -2t-0.5 -9l-60 -313l159 65q7 2 9 -5q3 -8 -5 -11z" glyph-name="Lslash" horiz-adv-x="466" unicode="Ł"/><glyph d="M283 0h-1q-59 0 -93 33.5t-21 102.5l49 252l-96 -39q-7 -3 -9 5t5 11l104 42l54 282q2 11 13 11q6 0 7.5 -2t-0.5 -9l-53 -273l122 50q7 3 9 -5t-5 -11l-129 -53l-51 -260q-12 -62 17 -90t80 -28h1q12 0 9 -10q-3 -9 -12 -9z" glyph-name="lslash" horiz-adv-x="336" unicode="ł"/><glyph d="M558 9l-287 634q-1 4 -4.5 3t-4.5 -6l-122 -629q-2 -11 -13 -11q-7 0 -8.5 2t-0.5 9l131 678q2 11 14 11q7 0 11 -9l287 -634q1 -4 4.5 -3t4.5 6l122 629q2 11 14 11q7 0 8.5 -2t-0.5 -9l-131 -678q-2 -11 -13 -11q-7 0 -12 9zM466 780q-11 -9 -16 -3t6 15l130 114 q10 9 14 10t9 -6t4 -10t-12 -12z" glyph-name="Nacute" horiz-adv-x="697" unicode="Ń"/><glyph d="M462 330q13 75 -18 115t-101 40q-74 0 -144 -55l-81 -419q-2 -11 -12 -11t-8 11l93 478q2 11 12 11t8 -11l-8 -40q73 55 149 55q74 0 109.5 -45t20.5 -126l-62 -322q-2 -11 -12 -11t-8 11zM337 580q-11 -9 -16 -3t6 15l130 114q10 9 14 10t9 -6t4 -10t-12 -12z" glyph-name="nacute" horiz-adv-x="504" unicode="ń"/><glyph d="M558 9l-287 634q-1 4 -4.5 3t-4.5 -6l-122 -629q-2 -11 -13 -11q-7 0 -8.5 2t-0.5 9l131 678q2 11 14 11q7 0 11 -9l287 -634q1 -4 4.5 -3t4.5 6l122 629q2 11 14 11q7 0 8.5 -2t-0.5 -9l-131 -678q-2 -11 -13 -11q-7 0 -12 9zM297 -94q2 12 12.5 19t19.5 6q35 -4 16 -56 q-15 -41 -50 -76q-8 -8 -12 -4q-3 3 2 11q11 14 16 21t13 21t7 22.5t-10 11.5q-17 6 -14 24z" glyph-name="Ncommaaccent" horiz-adv-x="697" unicode="Ņ"/><glyph d="M462 330q13 75 -18 115t-101 40q-74 0 -144 -55l-81 -419q-2 -11 -12 -11t-8 11l93 478q2 11 12 11t8 -11l-8 -40q73 55 149 55q74 0 109.5 -45t20.5 -126l-62 -322q-2 -11 -12 -11t-8 11zM204 -95q2 12 12.5 19t19.5 6q35 -4 16 -56q-15 -41 -50 -76q-8 -8 -12 -4 q-3 3 2 11q11 14 16 21t13 21t7 22.5t-10 11.5q-17 6 -14 24z" glyph-name="ncommaaccent" horiz-adv-x="504" unicode="ņ"/><glyph d="M558 9l-287 634q-1 4 -4.5 3t-4.5 -6l-122 -629q-2 -11 -13 -11q-7 0 -8.5 2t-0.5 9l131 678q2 11 14 11q7 0 11 -9l287 -634q1 -4 4.5 -3t4.5 6l122 629q2 11 14 11q7 0 8.5 -2t-0.5 -9l-131 -678q-2 -11 -13 -11q-7 0 -12 9zM427 895l71 -95q3 -3 6 0l109 95 q10 9 13 9.5t9 -5.5q5 -7 4 -10t-12 -12l-124 -100q-7 -5 -12 0l-86 100q-7 9 -7 12t7 10q9 6 12 5.5t10 -9.5z" glyph-name="Ncaron" horiz-adv-x="697" unicode="Ň"/><glyph d="M462 330q13 75 -18 115t-101 40q-74 0 -144 -55l-81 -419q-2 -11 -12 -11t-8 11l93 478q2 11 12 11t8 -11l-8 -40q73 55 149 55q74 0 109.5 -45t20.5 -126l-62 -322q-2 -11 -12 -11t-8 11zM292 695l71 -95q3 -3 6 0l109 95q10 9 13 9.5t9 -5.5q5 -7 4 -10t-12 -12 l-124 -100q-7 -5 -12 0l-86 100q-7 9 -7 12t7 10q9 6 12 5.5t10 -9.5z" glyph-name="ncaron" horiz-adv-x="504" unicode="ň"/><glyph d="M472 330q13 75 -18 115t-101 40q-74 0 -144 -55l-81 -419q-2 -11 -12 -11t-8 11l93 478q2 11 12 11t8 -11l-8 -40q73 55 149 55q74 0 109.5 -45t20.5 -126l-62 -322q-2 -11 -12 -11t-8 11zM157 729q2 12 12.5 19t19.5 6q35 -4 16 -56q-15 -41 -50 -76q-8 -8 -12 -4 q-3 3 2 11q11 14 16 21t13 21t7 22.5t-10 11.5q-17 6 -14 24z" glyph-name="napostrophe" horiz-adv-x="514" unicode="ŉ"/><glyph d="M686 393l-17 -86q-31 -158 -120 -234.5t-207 -76.5t-178 77t-29 234l17 86q31 158 120 234.5t207 76.5q56 0 100 -17.5t74.5 -55t38.5 -96.5t-6 -142zM174 391l-16 -82q-29 -148 24.5 -220.5t163.5 -72.5t191.5 72.5t110.5 220.5l16 82q29 148 -25 220.5t-164 72.5 t-191 -72.5t-110 -220.5zM392 778q-7 0 -8.5 2t-0.5 9q2 11 13 11h205q7 0 8.5 -2t0.5 -9q-2 -11 -13 -11h-205z" glyph-name="Omacron" horiz-adv-x="686" unicode="Ō"/><glyph d="M500 281l-12 -62q-21 -108 -82 -165.5t-146 -57.5t-124 57.5t-18 165.5l12 62q21 108 82 165.5t146 57.5t124 -57.5t18 -165.5zM263 15q73 0 129 50t74 143l16 84q18 93 -18 143t-109 50t-129 -50t-74 -143l-16 -84q-18 -93 18 -143t109 -50zM271 578q-7 0 -8.5 2t-0.5 9 q2 11 13 11h205q7 0 8.5 -2t0.5 -9q-2 -11 -13 -11h-205z" glyph-name="omacron" horiz-adv-x="522" unicode="ō"/><glyph d="M686 393l-17 -86q-31 -158 -120 -234.5t-207 -76.5t-178 77t-29 234l17 86q31 158 120 234.5t207 76.5q56 0 100 -17.5t74.5 -55t38.5 -96.5t-6 -142zM174 391l-16 -82q-29 -148 24.5 -220.5t163.5 -72.5t191.5 72.5t110.5 220.5l16 82q29 148 -25 220.5t-164 72.5 t-191 -72.5t-110 -220.5zM492 774q-42 0 -67 27t-19 80q2 17 13 17q7 0 8.5 -2.5t-0.5 -14.5q-5 -39 13.5 -63t55.5 -24t65 24t38 63q3 12 5.5 14.5t10.5 2.5q10 0 5 -17q-13 -53 -49 -80t-79 -27z" glyph-name="Obreve" horiz-adv-x="686" unicode="Ŏ"/><glyph d="M500 281l-12 -62q-21 -108 -82 -165.5t-146 -57.5t-124 57.5t-18 165.5l12 62q21 108 82 165.5t146 57.5t124 -57.5t18 -165.5zM263 15q73 0 129 50t74 143l16 84q18 93 -18 143t-109 50t-129 -50t-74 -143l-16 -84q-18 -93 18 -143t109 -50zM371 574q-42 0 -67 27 t-19 80q2 17 13 17q7 0 8.5 -2.5t-0.5 -14.5q-5 -39 13.5 -63t55.5 -24t65 24t38 63q3 12 5.5 14.5t10.5 2.5q10 0 5 -17q-13 -53 -49 -80t-79 -27z" glyph-name="obreve" horiz-adv-x="522" unicode="ŏ"/><glyph d="M686 393l-17 -86q-31 -158 -120 -234.5t-207 -76.5t-178 77t-29 234l17 86q31 158 120 234.5t207 76.5q56 0 100 -17.5t74.5 -55t38.5 -96.5t-6 -142zM174 391l-16 -82q-29 -148 24.5 -220.5t163.5 -72.5t191.5 72.5t110.5 220.5l16 82q29 148 -25 220.5t-164 72.5 t-191 -72.5t-110 -220.5zM384 780q-11 -9 -16 -3t6 15l130 114q10 9 13.5 10t9.5 -6q5 -7 4 -10t-12 -12zM550 780q-11 -9 -16 -3t6 15l130 114q10 9 13.5 10t9.5 -6q5 -7 4 -10t-12 -12z" glyph-name="Ohungarumlaut" horiz-adv-x="686" unicode="Ő"/><glyph d="M500 281l-12 -62q-21 -108 -82 -165.5t-146 -57.5t-124 57.5t-18 165.5l12 62q21 108 82 165.5t146 57.5t124 -57.5t18 -165.5zM263 15q73 0 129 50t74 143l16 84q18 93 -18 143t-109 50t-129 -50t-74 -143l-16 -84q-18 -93 18 -143t109 -50zM262 580q-11 -9 -16 -3t6 15 l130 114q10 9 13.5 10t9.5 -6q5 -7 4 -10t-12 -12zM428 580q-11 -9 -16 -3t6 15l130 114q10 9 13.5 10t9.5 -6q5 -7 4 -10t-12 -12z" glyph-name="ohungarumlaut" horiz-adv-x="522" unicode="ő"/><glyph d="M965 369q-3 -10 -13 -10h-263q-10 0 -12 -10l-62 -319q-1 -7 0 -8.5t8 -1.5h313q12 0 9 -10q-1 -4 -2 -6t-3 -3t-7 -1h-334q-7 0 -8.5 2t-0.5 9l29 151q-47 -84 -119.5 -125t-157.5 -41q-56 0 -100 17.5t-74.5 55t-38.5 96.5t6 142l17 86q31 158 120 234.5t207 76.5 q85 0 142 -41t71 -125l29 151q2 11 14 11h334q7 0 8.5 -2t0.5 -8q-2 -10 -13 -10h-313q-10 0 -12 -10l-55 -281q-1 -7 0 -8.5t8 -1.5h263q12 0 9 -10zM666 406q24 140 -30 209t-161 69q-110 0 -191 -72.5t-110 -220.5l-16 -82q-29 -148 24.5 -220.5t163.5 -72.5t191.5 72.5 t110.5 220.5z" glyph-name="OE" horiz-adv-x="1016" unicode="Œ"/><glyph d="M610 -4q-66 0 -105 35.5t-43 102.5q-64 -138 -202 -138q-85 0 -124 57.5t-18 165.5l12 62q21 108 82 165.5t146 57.5q66 0 105 -35.5t44 -102.5q30 66 79 102t112 36q69 0 102 -41t18 -114q-10 -54 -40 -81t-94 -27h-182q-10 0 -12 -10l-4 -23q-18 -93 18 -143t108 -50 q73 0 134 59q9 9 15 3q7 -7 -2 -15q-68 -66 -149 -66zM263 15q73 0 129 50t74 143l16 84q18 93 -18 143t-109 50t-129 -50t-74 -143l-16 -84q-18 -93 18 -143t109 -50zM506 259h181q56 0 79.5 22.5t32.5 65.5q13 67 -16.5 102.5t-87.5 35.5q-68 0 -121.5 -51t-71.5 -142 l-4 -23q-1 -6 0.5 -8t7.5 -2z" glyph-name="oe" horiz-adv-x="828" unicode="œ"/><glyph d="M523 0q-8 0 -10 1.5t-6 9.5l-122 301h-177q-10 0 -12 -10l-56 -291q-2 -11 -13 -11q-7 0 -8.5 2t-0.5 9l131 678q2 11 14 11h172q230 0 192 -194q-33 -172 -217 -192l122 -303q4 -11 -9 -11zM605 506q34 174 -172 174h-153q-10 0 -12 -10l-64 -328q-1 -7 0 -8.5t8 -1.5 h153q206 0 240 174zM409 780q-11 -9 -16 -3t6 15l130 114q10 9 14 10t9 -6t4 -10t-12 -12z" glyph-name="Racute" horiz-adv-x="606" unicode="Ŕ"/><glyph d="M106 0q-10 0 -8 11l93 478q2 11 12 11t8 -11l-8 -40q76 55 150 55q56 0 90 -30q11 -11 3 -20q-8 -8 -21 2q-34 29 -85 29q-32 0 -71.5 -16t-69.5 -39l-81 -419q-2 -11 -12 -11zM166 580q-11 -9 -16 -3t6 15l130 114q10 9 14 10t9 -6t4 -10t-12 -12z" glyph-name="racute" horiz-adv-x="398" unicode="ŕ"/><glyph d="M523 0q-8 0 -10 1.5t-6 9.5l-122 301h-177q-10 0 -12 -10l-56 -291q-2 -11 -13 -11q-7 0 -8.5 2t-0.5 9l131 678q2 11 14 11h172q230 0 192 -194q-33 -172 -217 -192l122 -303q4 -11 -9 -11zM605 506q34 174 -172 174h-153q-10 0 -12 -10l-64 -328q-1 -7 0 -8.5t8 -1.5 h153q206 0 240 174zM256 -95q2 12 12.5 19t19.5 6q35 -4 16 -56q-15 -41 -50 -76q-8 -8 -12 -4q-3 3 2 11q11 14 16 21t13 21t7 22.5t-10 11.5q-17 6 -14 24z" glyph-name="Rcommaaccent" horiz-adv-x="606" unicode="Ŗ"/><glyph d="M106 0q-10 0 -8 11l93 478q2 11 12 11t8 -11l-8 -40q76 55 150 55q56 0 90 -30q11 -11 3 -20q-8 -8 -21 2q-34 29 -85 29q-32 0 -71.5 -16t-69.5 -39l-81 -419q-2 -11 -12 -11zM58 -95q2 12 12.5 19t19.5 6q35 -4 16 -56q-15 -41 -50 -76q-8 -8 -12 -4q-3 3 2 11 q11 14 16 21t13 21t7 22.5t-10 11.5q-17 6 -14 24z" glyph-name="rcommaaccent" horiz-adv-x="398" unicode="ŗ"/><glyph d="M523 0q-8 0 -10 1.5t-6 9.5l-122 301h-177q-10 0 -12 -10l-56 -291q-2 -11 -13 -11q-7 0 -8.5 2t-0.5 9l131 678q2 11 14 11h172q230 0 192 -194q-33 -172 -217 -192l122 -303q4 -11 -9 -11zM605 506q34 174 -172 174h-153q-10 0 -12 -10l-64 -328q-1 -7 0 -8.5t8 -1.5 h153q206 0 240 174zM372 895l71 -95q3 -3 6 0l109 95q10 9 13 9.5t9 -5.5q5 -7 4 -10t-12 -12l-124 -100q-7 -5 -12 0l-86 100q-7 9 -7 12t7 10q9 6 12 5.5t10 -9.5z" glyph-name="Rcaron" horiz-adv-x="606" unicode="Ř"/><glyph d="M106 0q-10 0 -8 11l93 478q2 11 12 11t8 -11l-8 -40q76 55 150 55q56 0 90 -30q11 -11 3 -20q-8 -8 -21 2q-34 29 -85 29q-32 0 -71.5 -16t-69.5 -39l-81 -419q-2 -11 -12 -11zM148 695l71 -95q3 -3 6 0l109 95q10 9 13 9.5t9 -5.5q5 -7 4 -10t-12 -12l-124 -100 q-7 -5 -12 0l-86 100q-7 9 -7 12t7 10q9 6 12 5.5t10 -9.5z" glyph-name="rcaron" horiz-adv-x="398" unicode="ř"/><glyph d="M79 67q-8 9 1 16q9 9 18 0q63 -66 167 -66q79 0 138.5 47.5t71.5 114.5q7 37 -6.5 66.5t-40 50t-60 39t-67.5 37.5t-61 41t-41 54t-8 72q11 68 71.5 116.5t156.5 48.5q40 0 77.5 -11t54.5 -23l17 -11q7 -5 1 -14q-7 -10 -18 -3q-61 41 -135 41q-90 0 -142 -44t-60 -97 q-8 -50 22 -88t76.5 -63.5l93 -51t74.5 -65t18 -92.5q-16 -82 -84 -134t-154 -52q-63 0 -111 22.5t-70 48.5zM391 780q-11 -9 -16 -3t6 15l130 114q10 9 14 10t9 -6t4 -10t-12 -12z" glyph-name="Sacute" horiz-adv-x="528" unicode="Ś"/><glyph d="M79 54q67 -39 139 -39q64 0 108 33t50 86q4 34 -19.5 59t-58.5 41.5l-70 33t-58 43t-20 62.5q5 57 51 94t112 37q63 0 119 -33q8 -5 3 -14t-15 -3q-54 31 -110 31q-59 1 -96.5 -31t-42.5 -77q-3 -32 20.5 -56t58.5 -40.5t70 -33.5t57.5 -45.5t18.5 -67.5 q-8 -60 -57.5 -99t-123.5 -39q-82 0 -149 40q-8 5 -3 15q5 9 16 3zM288 580q-11 -9 -16 -3t6 15l130 114q10 9 14 10t9 -6t4 -10t-12 -12z" glyph-name="sacute" horiz-adv-x="438" unicode="ś"/><glyph d="M79 67q-8 9 1 16q9 9 18 0q63 -66 167 -66q79 0 138.5 47.5t71.5 114.5q7 37 -6.5 66.5t-40 50t-60 39t-67.5 37.5t-61 41t-41 54t-8 72q11 68 71.5 116.5t156.5 48.5q40 0 77.5 -11t54.5 -23l17 -11q7 -5 1 -14q-7 -10 -18 -3q-61 41 -135 41q-90 0 -142 -44t-60 -97 q-8 -50 22 -88t76.5 -63.5l93 -51t74.5 -65t18 -92.5q-16 -82 -84 -134t-154 -52q-63 0 -111 22.5t-70 48.5zM439 878l-108 -94q-10 -9 -13 -9.5t-10 5.5q-4 7 -3 10t12 12l124 100q7 5 12 0l86 -100q7 -9 7 -12t-8 -10q-8 -6 -11 -5.5t-10 9.5l-70 94q-3 5 -8 0z" glyph-name="Scircumflex" horiz-adv-x="528" unicode="Ŝ"/><glyph d="M79 54q67 -39 139 -39q64 0 108 33t50 86q4 34 -19.5 59t-58.5 41.5l-70 33t-58 43t-20 62.5q5 57 51 94t112 37q63 0 119 -33q8 -5 3 -14t-15 -3q-54 31 -110 31q-59 1 -96.5 -31t-42.5 -77q-3 -32 20.5 -56t58.5 -40.5t70 -33.5t57.5 -45.5t18.5 -67.5 q-8 -60 -57.5 -99t-123.5 -39q-82 0 -149 40q-8 5 -3 15q5 9 16 3zM345 678l-108 -94q-10 -9 -13 -9.5t-10 5.5q-4 7 -3 10t12 12l124 100q7 5 12 0l86 -100q7 -9 7 -12t-8 -10q-8 -6 -11 -5.5t-10 9.5l-70 94q-3 5 -8 0z" glyph-name="scircumflex" horiz-adv-x="438" unicode="ŝ"/><glyph d="M196 -110q-7 2 -3 10l50 97q-57 3 -100.5 24.5t-63.5 45.5q-8 9 1 16q9 9 18 0q63 -66 167 -66q79 0 138.5 47.5t71.5 114.5q7 37 -6.5 66.5t-40 50t-60 39t-67.5 37.5t-61 41t-41 54t-8 72q11 68 71.5 116.5t156.5 48.5q40 0 77.5 -11t54.5 -23l17 -11q7 -5 1 -14 q-7 -10 -18 -3q-61 41 -135 41q-90 0 -142 -44t-60 -97q-8 -50 22 -88t76.5 -63.5l93 -51t74.5 -65t18 -92.5q-16 -82 -83.5 -133.5t-153.5 -52.5l-32 -65q55 32 97 5t32 -78q-12 -60 -67 -86.5t-95 5.5q-6 4 -1 12q7 11 14 5q32 -26 76 -4.5t53 67.5q6 31 -14 52.5 t-53.5 19.5t-61.5 -34q-6 -7 -13 -5z" glyph-name="Scedilla" horiz-adv-x="528" unicode="Ş"/><glyph d="M122 -110q-7 2 -3 10l51 99q-56 8 -104 37q-8 5 -3 15q5 9 16 3q67 -39 139 -39q64 0 108 33t50 86q4 34 -19.5 59t-58.5 41.5l-70 33t-58 43t-20 62.5q5 57 51 94t112 37q63 0 119 -33q8 -5 3 -14t-15 -3q-54 31 -110 31q-59 1 -96.5 -31t-42.5 -77q-3 -32 20.5 -56 t58.5 -40.5t70 -33.5t57.5 -45.5t18.5 -67.5q-8 -60 -57.5 -99t-123.5 -39q-5 0 -14 0.5t-13 0.5l-33 -66q55 32 97 5t32 -78q-12 -60 -67 -86.5t-95 5.5q-6 4 -1 12q7 11 14 5q32 -26 76 -4.5t53 67.5q6 31 -14 52.5t-53.5 19.5t-61.5 -34q-6 -7 -13 -5z" glyph-name="scedilla" horiz-adv-x="438" unicode="ş"/><glyph d="M79 67q-8 9 1 16q9 9 18 0q63 -66 167 -66q79 0 138.5 47.5t71.5 114.5q7 37 -6.5 66.5t-40 50t-60 39t-67.5 37.5t-61 41t-41 54t-8 72q11 68 71.5 116.5t156.5 48.5q40 0 77.5 -11t54.5 -23l17 -11q7 -5 1 -14q-7 -10 -18 -3q-61 41 -135 41q-90 0 -142 -44t-60 -97 q-8 -50 22 -88t76.5 -63.5l93 -51t74.5 -65t18 -92.5q-16 -82 -84 -134t-154 -52q-63 0 -111 22.5t-70 48.5zM348 895l71 -95q3 -3 6 0l109 95q10 9 13 9.5t9 -5.5q5 -7 4 -10t-12 -12l-124 -100q-7 -5 -12 0l-86 100q-7 9 -7 12t7 10q9 6 12 5.5t10 -9.5z" glyph-name="Scaron" horiz-adv-x="528" unicode="Š"/><glyph d="M79 54q67 -39 139 -39q64 0 108 33t50 86q4 34 -19.5 59t-58.5 41.5l-70 33t-58 43t-20 62.5q5 57 51 94t112 37q63 0 119 -33q8 -5 3 -14t-15 -3q-54 31 -110 31q-59 1 -96.5 -31t-42.5 -77q-3 -32 20.5 -56t58.5 -40.5t70 -33.5t57.5 -45.5t18.5 -67.5 q-8 -60 -57.5 -99t-123.5 -39q-82 0 -149 40q-8 5 -3 15q5 9 16 3zM259 695l71 -95q3 -3 6 0l109 95q10 9 13 9.5t9 -5.5q5 -7 4 -10t-12 -12l-124 -100q-7 -5 -12 0l-86 100q-7 9 -7 12t7 10q9 6 12 5.5t10 -9.5z" glyph-name="scaron" horiz-adv-x="438" unicode="š"/><glyph d="M188 -115q-7 2 -3 10l56 109q0 4 1 7l128 659q1 7 0 8.5t-8 1.5h-177q-7 0 -8.5 2t-0.5 8q2 10 13 10h396q7 0 8.5 -2t0.5 -8q-2 -10 -13 -10h-177q-10 0 -12 -10l-128 -659q-3 -9 -6 -10l-37 -75q55 32 97 5t32 -78q-12 -60 -67 -86.5t-95 5.5q-6 4 -1 12q7 11 14 5 q32 -26 76 -4.5t53 67.5q6 31 -14 52.5t-53.5 19.5t-61.5 -34q-6 -7 -13 -5z" glyph-name="uni0162" horiz-adv-x="502" unicode="Ţ"/><glyph d="M237 471q-1 -7 0 -8.5t8 -1.5h101q12 0 9 -9t-12 -9h-101q-10 0 -12 -10l-63 -323q-8 -43 14 -69t54 -26q44 0 83 34q9 8 14 2q5 -7 -2 -14q-43 -41 -98 -41q-7 0 -17 2l-36 -72q55 32 97 5t32 -78q-12 -60 -67 -86.5t-95 5.5q-6 4 -1 12q7 11 14 5q32 -26 76 -4.5 t53 67.5q6 31 -14 52.5t-53.5 19.5t-61.5 -34q-6 -7 -13 -5t-3 10l55 107q-29 11 -44 39.5t-7 67.5l63 324q1 7 0 8.5t-8 1.5h-53q-7 0 -9 2t-1 7q3 9 13 9h53q10 0 12 10l24 125q2 11 12 11t8 -11z" glyph-name="uni0163" horiz-adv-x="376" unicode="ţ"/><glyph d="M251 0q-7 0 -8.5 2t-0.5 9l128 659q1 7 0 8.5t-8 1.5h-177q-7 0 -8.5 2t-0.5 8q2 10 13 10h396q7 0 8.5 -2t0.5 -8q-2 -10 -13 -10h-177q-10 0 -12 -10l-128 -659q-2 -11 -13 -11zM331 895l71 -95q3 -3 6 0l109 95q10 9 13 9.5t9 -5.5q5 -7 4 -10t-12 -12l-124 -100 q-7 -5 -12 0l-86 100q-7 9 -7 12t7 10q9 6 12 5.5t10 -9.5z" glyph-name="Tcaron" horiz-adv-x="502" unicode="Ť"/><glyph d="M237 471q-1 -7 0 -8.5t8 -1.5h101q12 0 9 -9t-12 -9h-101q-10 0 -12 -10l-63 -323q-8 -43 14 -69t54 -26q44 0 83 34q9 8 14 2q5 -7 -2 -14q-43 -41 -98 -41q-41 0 -68 31.5t-17 81.5l63 324q1 7 0 8.5t-8 1.5h-53q-7 0 -9 2t-1 7q3 9 13 9h53q10 0 12 10l24 125 q2 11 12 11t8 -11zM444 730q2 12 12.5 19t19.5 6q35 -4 16 -56q-15 -41 -50 -76q-8 -8 -12 -4q-3 3 2 11q11 14 16 21t13 21t7 22.5t-10 11.5q-17 6 -14 24z" glyph-name="tcaron" horiz-adv-x="376" unicode="ť"/><glyph d="M210 476q2 10 13 10h101q10 0 12 10l34 174q1 7 0 8.5t-8 1.5h-177q-7 0 -8.5 2t-0.5 8q2 10 13 10h396q7 0 8.5 -2t0.5 -8q-2 -10 -13 -10h-177q-10 0 -12 -10l-34 -174q-1 -7 0 -8.5t8 -1.5h101q7 0 8.5 -2t0.5 -8q-2 -10 -13 -10h-101q-10 0 -12 -10l-86 -445 q-2 -11 -13 -11q-7 0 -8.5 2t-0.5 9l86 445q1 7 0 8.5t-8 1.5h-101q-7 0 -8.5 2t-0.5 8z" glyph-name="Tbar" horiz-adv-x="502" unicode="Ŧ"/><glyph d="M184 300q1 7 0 8.5t-8 1.5h-53q-12 0 -9 9t12 9h53q10 0 12 10l19 95q1 7 0 8.5t-8 1.5h-53q-7 0 -9 2t-1 7q3 9 13 9h53q10 0 12 10l24 125q2 11 12 11t8 -11l-24 -125q-1 -7 0 -8.5t8 -1.5h101q12 0 9 -9t-12 -9h-101q-10 0 -12 -10l-19 -95q-1 -7 0 -8.5t8 -1.5h101 q7 0 9 -2t1 -7q-3 -9 -13 -9h-101q-10 0 -12 -10l-37 -190q-8 -43 14 -69t54 -26q44 0 83 34q9 8 14 2q5 -7 -2 -14q-43 -41 -98 -41q-41 0 -68 31.5t-17 81.5z" glyph-name="tbar" horiz-adv-x="376" unicode="ŧ"/><glyph d="M671 689q2 11 14 11q7 0 8.5 -2t-0.5 -9l-84 -436q-15 -74 -47 -127t-73.5 -80t-81 -38.5t-80.5 -11.5q-32 0 -60.5 7t-57.5 24t-45.5 46t-24.5 73.5t6 106.5l84 436q2 11 14 11q7 0 8.5 -2t-0.5 -9l-85 -440q-11 -65 -3.5 -109.5t33.5 -72.5t59.5 -40t74.5 -12 q89 0 160.5 57t95.5 177zM536 774q-26 1 -57 27t-49 27q-33 2 -72 -44q-7 -9 -15 -4q-7 5 -1 14q44 56 91 54q23 -1 53.5 -27t52.5 -27q34 -1 72 44q8 10 16 4q6 -5 0 -14q-43 -54 -91 -54z" glyph-name="Utilde" horiz-adv-x="656" unicode="Ũ"/><glyph d="M201 489l-62 -319q-14 -75 17 -115t101 -40q65 0 135 48l83 426q2 11 12 11t8 -11l-93 -478q-2 -11 -12 -11t-8 11l6 32q-70 -47 -140 -47q-74 0 -109.5 45t-20.5 126l63 322q2 11 12 11t8 -11zM412 574q-26 1 -56 25.5t-47 25.5q-31 2 -70 -42q-6 -9 -14 -4q-7 5 -1 14 q43 54 88 52q22 -1 51.5 -26t50.5 -26q34 -1 70 42q8 10 16 4q5 -5 0 -14q-41 -51 -88 -51z" glyph-name="utilde" horiz-adv-x="496" unicode="ũ"/><glyph d="M671 689q2 11 14 11q7 0 8.5 -2t-0.5 -9l-84 -436q-15 -74 -47 -127t-73.5 -80t-81 -38.5t-80.5 -11.5q-32 0 -60.5 7t-57.5 24t-45.5 46t-24.5 73.5t6 106.5l84 436q2 11 14 11q7 0 8.5 -2t-0.5 -9l-85 -440q-11 -65 -3.5 -109.5t33.5 -72.5t59.5 -40t74.5 -12 q89 0 160.5 57t95.5 177zM377 778q-7 0 -8.5 2t-0.5 9q2 11 13 11h205q7 0 8.5 -2t0.5 -9q-2 -11 -13 -11h-205z" glyph-name="Umacron" horiz-adv-x="656" unicode="Ū"/><glyph d="M201 489l-62 -319q-14 -75 17 -115t101 -40q65 0 135 48l83 426q2 11 12 11t8 -11l-93 -478q-2 -11 -12 -11t-8 11l6 32q-70 -47 -140 -47q-74 0 -109.5 45t-20.5 126l63 322q2 11 12 11t8 -11zM253 578q-7 0 -8.5 2t-0.5 9q2 11 13 11h205q7 0 8.5 -2t0.5 -9 q-2 -11 -13 -11h-205z" glyph-name="umacron" horiz-adv-x="496" unicode="ū"/><glyph d="M671 689q2 11 14 11q7 0 8.5 -2t-0.5 -9l-84 -436q-15 -74 -47 -127t-73.5 -80t-81 -38.5t-80.5 -11.5q-32 0 -60.5 7t-57.5 24t-45.5 46t-24.5 73.5t6 106.5l84 436q2 11 14 11q7 0 8.5 -2t-0.5 -9l-85 -440q-11 -65 -3.5 -109.5t33.5 -72.5t59.5 -40t74.5 -12 q89 0 160.5 57t95.5 177zM477 774q-42 0 -67 27t-19 80q2 17 13 17q7 0 8.5 -2.5t-0.5 -14.5q-5 -39 13.5 -63t55.5 -24t65 24t38 63q3 12 5.5 14.5t10.5 2.5q10 0 5 -17q-13 -53 -49 -80t-79 -27z" glyph-name="Ubreve" horiz-adv-x="656" unicode="Ŭ"/><glyph d="M201 489l-62 -319q-14 -75 17 -115t101 -40q65 0 135 48l83 426q2 11 12 11t8 -11l-93 -478q-2 -11 -12 -11t-8 11l6 32q-70 -47 -140 -47q-74 0 -109.5 45t-20.5 126l63 322q2 11 12 11t8 -11zM353 574q-42 0 -67 27t-19 80q2 17 13 17q7 0 8.5 -2.5t-0.5 -14.5 q-5 -39 13.5 -63t55.5 -24t65 24t38 63q3 12 5.5 14.5t10.5 2.5q10 0 5 -17q-13 -53 -49 -80t-79 -27z" glyph-name="ubreve" horiz-adv-x="496" unicode="ŭ"/><glyph d="M671 689q2 11 14 11q7 0 8.5 -2t-0.5 -9l-84 -436q-15 -74 -47 -127t-73.5 -80t-81 -38.5t-80.5 -11.5q-32 0 -60.5 7t-57.5 24t-45.5 46t-24.5 73.5t6 106.5l84 436q2 11 14 11q7 0 8.5 -2t-0.5 -9l-85 -440q-11 -65 -3.5 -109.5t33.5 -72.5t59.5 -40t74.5 -12 q89 0 160.5 57t95.5 177zM436 848q-5 -23 8.5 -39.5t36.5 -16.5t43 16.5t24 39.5q5 23 -8.5 39.5t-36.5 16.5t-43 -16.5t-24 -39.5zM418 848q6 31 31.5 52.5t56.5 21.5t48.5 -21.5t11.5 -52.5t-32 -52.5t-57 -21.5t-48 21.5t-11 52.5z" glyph-name="Uring" horiz-adv-x="656" unicode="Ů"/><glyph d="M201 489l-62 -319q-14 -75 17 -115t101 -40q65 0 135 48l83 426q2 11 12 11t8 -11l-93 -478q-2 -11 -12 -11t-8 11l6 32q-70 -47 -140 -47q-74 0 -109.5 45t-20.5 126l63 322q2 11 12 11t8 -11zM312 648q-5 -23 8.5 -39.5t36.5 -16.5t43 16.5t24 39.5q5 23 -8.5 39.5 t-36.5 16.5t-43 -16.5t-24 -39.5zM294 648q6 31 31.5 52.5t56.5 21.5t48.5 -21.5t11.5 -52.5t-32 -52.5t-57 -21.5t-48 21.5t-11 52.5z" glyph-name="uring" horiz-adv-x="496" unicode="ů"/><glyph d="M671 689q2 11 14 11q7 0 8.5 -2t-0.5 -9l-84 -436q-15 -74 -47 -127t-73.5 -80t-81 -38.5t-80.5 -11.5q-32 0 -60.5 7t-57.5 24t-45.5 46t-24.5 73.5t6 106.5l84 436q2 11 14 11q7 0 8.5 -2t-0.5 -9l-85 -440q-11 -65 -3.5 -109.5t33.5 -72.5t59.5 -40t74.5 -12 q89 0 160.5 57t95.5 177zM364 780q-11 -9 -16 -3t6 15l130 114q10 9 13.5 10t9.5 -6q5 -7 4 -10t-12 -12zM530 780q-11 -9 -16 -3t6 15l130 114q10 9 13.5 10t9.5 -6q5 -7 4 -10t-12 -12z" glyph-name="Uhungarumlaut" horiz-adv-x="656" unicode="Ű"/><glyph d="M201 489l-62 -319q-14 -75 17 -115t101 -40q65 0 135 48l83 426q2 11 12 11t8 -11l-93 -478q-2 -11 -12 -11t-8 11l6 32q-70 -47 -140 -47q-74 0 -109.5 45t-20.5 126l63 322q2 11 12 11t8 -11zM220 580q-11 -9 -16 -3t6 15l130 114q10 9 13.5 10t9.5 -6q5 -7 4 -10 t-12 -12zM386 580q-11 -9 -16 -3t6 15l130 114q10 9 13.5 10t9.5 -6q5 -7 4 -10t-12 -12z" glyph-name="uhungarumlaut" horiz-adv-x="496" unicode="ű"/><glyph d="M671 689q2 11 14 11q7 0 8.5 -2t-0.5 -9l-84 -436q-25 -125 -93.5 -185t-152.5 -70q-35 -13 -52 -44t-5.5 -60.5t52.5 -37.5q11 -2 7 -14q-4 -10 -18 -8q-41 7 -58 37t-6 66t44 59q-32 0 -60.5 7t-57.5 24t-45.5 46t-24.5 73.5t6 106.5l84 436q2 11 14 11q7 0 8.5 -2 t-0.5 -9l-85 -440q-11 -65 -3.5 -109.5t33.5 -72.5t59.5 -40t74.5 -12q89 0 160.5 57t95.5 177z" glyph-name="Uogonek" horiz-adv-x="656" unicode="Ų"/><glyph d="M201 489l-62 -319q-14 -75 17 -115t101 -40q65 0 135 48l83 426q2 11 12 11t8 -11l-93 -478q-2 -11 -12 -11q-27 -8 -45 -30t-21.5 -45t11 -43t45.5 -26q11 -2 7 -14q-4 -10 -18 -8q-36 6 -53.5 30t-14.5 53t24.5 56.5t56.5 39.5l6 30q-70 -47 -140 -47q-74 0 -109.5 45 t-20.5 126l63 322q2 11 12 11t8 -11z" glyph-name="uogonek" horiz-adv-x="496" unicode="ų"/><glyph d="M586 700q11 0 12 -11l51 -640q0 -3 2 -4.5t4.5 0t3.5 4.5l296 640q5 11 18 11q11 0 5 -11l-317 -678q-5 -11 -16 -11q-12 0 -13 11l-51 640q0 3 -2 4t-4.5 0t-3.5 -4l-299 -640q-6 -11 -17 -11t-12 11l-55 678q-1 11 11 11q7 0 9 -1.5t3 -9.5l48 -640q0 -3 2 -4.5t4.5 0 t3.5 4.5l299 640q6 11 18 11zM616 878l-108 -94q-10 -9 -13 -9.5t-10 5.5q-4 7 -3 10t12 12l124 100q7 5 12 0l86 -100q7 -9 7 -12t-8 -10q-8 -6 -11 -5.5t-10 9.5l-70 94q-3 5 -8 0z" glyph-name="Wcircumflex" horiz-adv-x="900" unicode="Ŵ"/><glyph d="M452 500q5 0 7 -2.5t3 -15.5l48 -450q0 -2 1.5 -3t3.5 -0.5t3 3.5l217 457q4 11 14 11q12 0 5 -14l-224 -468q-8 -18 -22 -18q-9 0 -11.5 3.5t-4.5 14.5l-46 440q-1 4 -3.5 3.5t-4.5 -3.5l-218 -440q-6 -12 -9.5 -15t-12.5 -3t-12 3.5t-4 14.5l-42 468q-1 14 11 14 q5 0 7 -2t3 -9l39 -457q0 -5 5 -4q2 1 3 4l222 450q6 12 9 15t9 3h4zM480 677l-108 -94q-10 -9 -13 -9.5t-10 5.5q-4 7 -3 10t12 12l124 100q7 5 12 0l86 -100q7 -9 7 -12t-8 -10q-8 -6 -11 -5.5t-10 9.5l-70 94q-3 5 -8 0z" glyph-name="wcircumflex" horiz-adv-x="706" unicode="ŵ"/><glyph d="M349 374l246 315q9 11 20 11q13 0 4 -11l-271 -345l-64 -333q-2 -11 -13 -11t-9 11l64 333l-137 345q-4 11 9 11q7 0 9.5 -1.5t5.5 -9.5l124 -315q4 -10 12 0zM437 878l-108 -94q-10 -9 -13 -9.5t-10 5.5q-4 7 -3 10t12 12l124 100q7 5 12 0l86 -100q7 -9 7 -12t-8 -10 q-8 -6 -11 -5.5t-10 9.5l-70 94q-3 5 -8 0z" glyph-name="Ycircumflex" horiz-adv-x="542" unicode="Ŷ"/><glyph d="M97 -231l114 207q9 17 7 31l-78 479q-3 14 10 14q5 0 7.5 -2t3.5 -9l73 -457q1 -4 3.5 -3.5t4.5 3.5l251 457q5 11 15 11q12 0 4 -14l-396 -720q-7 -11 -15 -11q-12 0 -4 14zM359 677l-108 -94q-10 -9 -13 -9.5t-10 5.5q-4 7 -3 10t12 12l124 100q7 5 12 0l86 -100 q7 -9 7 -12t-8 -10q-8 -6 -11 -5.5t-10 9.5l-70 94q-3 5 -8 0z" glyph-name="ycircumflex" horiz-adv-x="464" unicode="ŷ"/><glyph d="M349 374l246 315q9 11 20 11q13 0 4 -11l-271 -345l-64 -333q-2 -11 -13 -11t-9 11l64 333l-137 345q-4 11 9 11q7 0 9.5 -1.5t5.5 -9.5l124 -315q4 -10 12 0zM466 798q2 10 10.5 17t18.5 7t15.5 -7.5t3.5 -16.5q-6 -24 -28 -24q-10 0 -16 7t-4 17zM336 798q2 10 10.5 17 t18.5 7t15.5 -7t3.5 -17q-1 -10 -9.5 -17t-18.5 -7t-16 7t-4 17z" glyph-name="Ydieresis" horiz-adv-x="542" unicode="Ÿ"/><glyph d="M574 668l-494 -640q-6 -8 1 -8h349q12 0 9 -10t-13 -10h-365q-11 0 -10 10q2 12 10 22l494 640q6 8 -1 8h-355q-7 0 -8.5 2t-0.5 8q2 10 13 10h372q7 0 8.5 -2t0.5 -8q-2 -12 -10 -22zM369 780q-11 -9 -16 -3t6 15l130 114q10 9 14 10t9 -6t4 -10t-12 -12z" glyph-name="Zacute" horiz-adv-x="500" unicode="Ź"/><glyph d="M174 500h305q11 0 9 -11q-3 -11 -11 -21l-391 -440q-8 -9 1 -9h288q7 0 8.5 -2t0.5 -8q-3 -9 -12 -9h-306q-10 0 -9 11t10 21l391 440q8 9 -1 9h-287q-12 0 -9 10q2 9 13 9zM302 580q-11 -9 -16 -3t6 15l130 114q10 9 14 10t9 -6t4 -10t-12 -12z" glyph-name="zacute" horiz-adv-x="449" unicode="ź"/><glyph d="M574 668l-494 -640q-6 -8 1 -8h349q12 0 9 -10t-13 -10h-365q-11 0 -10 10q2 12 10 22l494 640q6 8 -1 8h-355q-7 0 -8.5 2t-0.5 8q2 10 13 10h372q7 0 8.5 -2t0.5 -8q-2 -12 -10 -22zM380 798q2 10 10.5 17t18.5 7t15.5 -7t3.5 -17q-1 -10 -9.5 -17t-18.5 -7t-16 7 t-4 17z" glyph-name="Zdotaccent" horiz-adv-x="500" unicode="Ż"/><glyph d="M174 500h305q11 0 9 -11q-3 -11 -11 -21l-391 -440q-8 -9 1 -9h288q7 0 8.5 -2t0.5 -8q-3 -9 -12 -9h-306q-10 0 -9 11t10 21l391 440q8 9 -1 9h-287q-12 0 -9 10q2 9 13 9zM315 598q2 10 10.5 17t18.5 7t15.5 -7t3.5 -17q-1 -10 -9.5 -17t-18.5 -7t-16 7t-4 17z" glyph-name="zdotaccent" horiz-adv-x="449" unicode="ż"/><glyph d="M574 668l-494 -640q-6 -8 1 -8h349q12 0 9 -10t-13 -10h-365q-11 0 -10 10q2 12 10 22l494 640q6 8 -1 8h-355q-7 0 -8.5 2t-0.5 8q2 10 13 10h372q7 0 8.5 -2t0.5 -8q-2 -12 -10 -22zM330 895l71 -95q3 -3 6 0l109 95q10 9 13 9.5t9 -5.5q5 -7 4 -10t-12 -12l-124 -100 q-7 -5 -12 0l-86 100q-7 9 -7 12t7 10q9 6 12 5.5t10 -9.5z" glyph-name="Zcaron" horiz-adv-x="500" unicode="Ž"/><glyph d="M174 500h305q11 0 9 -11q-3 -11 -11 -21l-391 -440q-8 -9 1 -9h288q7 0 8.5 -2t0.5 -8q-3 -9 -12 -9h-306q-10 0 -9 11t10 21l391 440q8 9 -1 9h-287q-12 0 -9 10q2 9 13 9zM265 695l71 -95q3 -3 6 0l109 95q10 9 13 9.5t9 -5.5q5 -7 4 -10t-12 -12l-124 -100 q-7 -5 -12 0l-86 100q-7 9 -7 12t7 10q9 6 12 5.5t10 -9.5z" glyph-name="zcaron" horiz-adv-x="449" unicode="ž"/><glyph d="M344 204q1 7 0 8.5t-8 1.5h-131q-15 0 -23 -14l-102 -189q-6 -11 -17 -11q-13 0 -7 11l367 678q6 11 18 11h345q12 0 9 -10t-13 -10h-313q-10 0 -12 -10l-55 -281q-1 -7 0 -8.5t8 -1.5h263q7 0 8.5 -2t0.5 -8q-1 -10 -13 -10h-263q-10 0 -12 -10l-62 -319q-1 -7 0 -8.5 t8 -1.5h313q7 0 8.5 -2t0.5 -8q-1 -10 -12 -10h-334q-7 0 -8.5 2t-0.5 9zM206 245q-6 -11 5 -11h129q10 0 12 10l80 412q-4 0 -7 -5zM557 780q-11 -9 -16 -3t6 15l130 114q10 9 14 10t9 -6t4 -10t-12 -12z" glyph-name="AEacute" horiz-adv-x="733" unicode="Ǽ"/><glyph d="M558 -4q-109 0 -140 90l-14 -75q-2 -11 -12 -11t-8 11l9 46q-30 -27 -72.5 -44t-83.5 -17q-73 0 -114 47t-27 117q13 70 72 116.5t132 46.5q41 0 77 -17.5t55 -43.5l15 76q13 69 -22.5 108t-93.5 39q-69 0 -127 -50q-10 -8 -15 -2q-5 7 4 15q61 56 141 56 q53 0 90.5 -29.5t44.5 -80.5q64 110 177 110q69 0 102 -41t18 -114q-10 -54 -40 -81t-94 -27h-184l-19 -102q3 -61 38.5 -92.5t92.5 -31.5q73 0 134 59q10 10 15 3q6 -7 -2 -15q-68 -66 -149 -66zM116 160q-12 -61 23 -103t102 -42q85 0 155 60l33 169q-46 60 -131 60 q-67 0 -119 -41.5t-63 -102.5zM643 485q-54 0 -99.5 -32.5t-72.5 -92.5l-19 -101h183q56 0 79.5 22.5t32.5 65.5q13 67 -16.5 102.5t-87.5 35.5zM452 580q-11 -9 -16 -3t6 15l130 114q10 9 14 10t9 -6t4 -10t-12 -12z" glyph-name="aeacute" horiz-adv-x="776" unicode="ǽ"/><glyph d="M79 66q-7 9 1 17q9 9 18 0q23 -25 66.5 -45.5t100.5 -20.5q79 0 138.5 47.5t71.5 114.5q7 37 -6.5 66.5t-40 50t-60 39t-67.5 37.5t-61 41t-41 54t-8 72q11 68 71.5 116.5t156.5 48.5q40 0 77.5 -11t54.5 -23l17 -11q7 -5 1 -14q-7 -10 -18 -3q-61 41 -135 41 q-90 0 -142 -44t-60 -97q-8 -50 22 -88t76.5 -63.5l93 -51t74.5 -65t18 -92.5q-16 -82 -84 -134t-154 -52q-63 0 -109.5 22t-71.5 48zM218 -95q2 12 12.5 19t19.5 6q35 -4 16 -56q-15 -41 -50 -76q-8 -8 -12 -4q-3 3 2 11q11 14 16 21t13 21t7 22.5t-10 11.5q-17 6 -14 24z " glyph-name="uni0218" horiz-adv-x="528" unicode="Ș"/><glyph d="M79 54q67 -39 139 -39q64 0 108 33t50 86q4 34 -19.5 59t-58.5 41.5l-70 33t-58 43t-20 62.5q5 57 51 94t112 37q63 0 119 -33q9 -5 3 -14q-6 -8 -15 -3q-54 31 -110 31q-59 1 -96.5 -31t-42.5 -77q-3 -32 20.5 -56t58.5 -40.5t70 -33.5t57.5 -45.5t18.5 -67.5 q-8 -60 -57.5 -99t-123.5 -39q-82 0 -149 40q-9 6 -3 15q5 9 16 3zM164 -95q2 12 12.5 19t19.5 6q35 -4 16 -56q-15 -41 -50 -76q-8 -8 -12 -4q-3 3 2 11q11 14 16 21t13 21t7 22.5t-10 11.5q-17 6 -14 24z" glyph-name="uni0219" horiz-adv-x="438" unicode="ș"/><glyph d="M251 0q-7 0 -8.5 2t-0.5 9l128 659q1 7 0 8.5t-8 1.5h-177q-7 0 -8.5 2t-0.5 8q2 10 13 10h396q7 0 8.5 -2t0.5 -8q-2 -10 -13 -10h-177q-10 0 -12 -10l-128 -659q-2 -11 -13 -11zM199 -95q2 12 12.5 19t19.5 6q35 -4 16 -56q-15 -41 -50 -76q-8 -8 -12 -4q-3 3 2 11 q11 14 16 21t13 21t7 22.5t-10 11.5q-17 6 -14 24z" glyph-name="uni021A" horiz-adv-x="502" unicode="Ț"/><glyph d="M167 -95q2 12 12.5 19t19.5 6q35 -4 16 -56q-15 -41 -50 -76q-8 -8 -12 -4q-3 3 2 11q11 14 16 21t13 21t7 22.5t-10 11.5q-17 6 -14 24zM237 471q-1 -7 0 -8.5t8 -1.5h101q12 0 9 -9t-12 -9h-101q-10 0 -12 -10l-63 -323q-8 -43 14 -69t54 -26q44 0 83 34q9 8 14 2 q5 -7 -2 -14q-43 -41 -98 -41q-41 0 -68 31.5t-17 81.5l63 324q1 7 0 8.5t-8 1.5h-53q-7 0 -9 2t-1 7q3 9 13 9h53q10 0 12 10l24 125q2 11 12 11t8 -11z" glyph-name="uni021B" horiz-adv-x="376" unicode="ț"/><glyph d="M191 489q2 11 12 11t8 -11l-112 -574l-1 -4l-9 -46q-10 -50 -49 -81.5t-79 -31.5q-55 0 -82 41q-5 7 3 14q7 6 14 -2q26 -34 69 -34q32 0 64 26t40 69z" glyph-name="dotlessj" horiz-adv-x="212" unicode="ȷ"/><glyph d="M317 859l-108 -94q-10 -9 -13 -9.5t-10 5.5q-4 7 -3 10t12 12l124 100q7 5 12 0l86 -100q7 -9 7 -12t-8 -10q-8 -6 -11 -5.5t-10 9.5l-70 94q-3 5 -8 0z" glyph-name="circumflex" horiz-adv-x="308" unicode="ˆ"/><glyph d="M233 886l71 -95q3 -3 6 0l109 95q10 9 13 9.5t9 -5.5q5 -7 4 -10t-12 -12l-124 -100q-7 -5 -12 0l-86 100q-7 9 -7 12t7 10q9 6 12 5.5t10 -9.5z" glyph-name="caron" horiz-adv-x="308" unicode="ˇ"/><glyph d="M278 756q-42 0 -67 27t-19 80q2 17 13 17q7 0 8.5 -2.5t-0.5 -14.5q-5 -39 13.5 -63t55.5 -24t65 24t38 63q3 12 5.5 14.5t10.5 2.5q10 0 5 -17q-13 -53 -49 -80t-79 -27z" glyph-name="breve" horiz-adv-x="268" unicode="˘"/><glyph d="M161 590q2 10 10.5 17t18.5 7t15.5 -7t3.5 -17q-1 -10 -9.5 -17t-18.5 -7t-16 7t-4 17z" glyph-name="dotaccent" horiz-adv-x="142" unicode="˙"/><glyph d="M222 814q-5 -23 8.5 -39.5t36.5 -16.5t43 16.5t24 39.5q5 23 -8.5 39.5t-36.5 16.5t-43 -16.5t-24 -39.5zM204 814q6 31 31.5 52.5t56.5 21.5t48.5 -21.5t11.5 -52.5t-32 -52.5t-57 -21.5t-48 21.5t-11 52.5z" glyph-name="ring" horiz-adv-x="241" unicode="˚"/><glyph d="M82 15l1 -15q-27 -8 -45 -30t-21.5 -45t11 -43t45.5 -26q11 -2 7 -14q-4 -10 -18 -8q-37 6 -54 31t-13.5 54.5t27 57.5t60.5 38z" glyph-name="ogonek" horiz-adv-x="151" unicode="˛"/><glyph d="M373 761q-26 1 -57 27t-49 27q-33 2 -72 -44q-7 -9 -15 -4q-7 5 -1 14q44 56 91 54q23 -1 53.5 -27t52.5 -27q34 -1 72 44q8 10 16 4q6 -5 0 -14q-43 -54 -91 -54z" glyph-name="tilde" horiz-adv-x="334" unicode="˜"/><glyph d="M186 764q-11 -9 -16 -3t6 15l130 114q10 9 13.5 10t9.5 -6q5 -7 4 -10t-12 -12zM352 764q-11 -9 -16 -3t6 15l130 114q10 9 13.5 10t9.5 -6q5 -7 4 -10t-12 -12z" glyph-name="hungarumlaut" horiz-adv-x="346" unicode="˝"/><glyph d="M493 369q-1 -10 -13 -10h-263q-10 0 -12 -10l-62 -319q-1 -7 0 -8.5t8 -1.5h313q12 0 9 -10q-1 -10 -12 -10h-334q-7 0 -8.5 2t-0.5 9l131 678q2 11 14 11h334q7 0 8.5 -2t0.5 -8q-2 -10 -13 -10h-313q-10 0 -12 -10l-55 -281q-1 -7 0 -8.5t8 -1.5h263q7 0 8.5 -2t0.5 -8 zM487 798q2 10 10.5 17t18.5 7t15.5 -7.5t3.5 -16.5q-6 -24 -28 -24q-10 0 -16 7t-4 17zM357 798q2 10 10.5 17t18.5 7t15.5 -7t3.5 -17q-1 -10 -9.5 -17t-18.5 -7t-16 7t-4 17z" glyph-name="uni0401" horiz-adv-x="544" unicode="Ё"/><glyph d="M479 700q7 0 8.5 -2t0.5 -8q-2 -10 -13 -10h-124q-10 0 -12 -10l-43 -220q72 54 148 54q74 0 110 -45t21 -126l-32 -166q-32 -167 -140 -167q-11 0 -13.5 2t-0.5 9q3 10 18 10q86 0 111 131l34 177q14 75 -16.5 115t-100.5 40q-72 0 -143 -54l-81 -419q-2 -11 -13 -11 q-7 0 -8.5 2t-0.5 9l128 659q1 7 0 8.5t-8 1.5h-124q-7 0 -8.5 2t-0.5 8q1 10 13 10h290z" glyph-name="uni0402" horiz-adv-x="588" unicode="Ђ"/><glyph d="M567 700q7 0 8.5 -2t0.5 -8q-2 -10 -13 -10h-283q-10 0 -12 -10l-128 -659q-2 -11 -13 -11q-7 0 -8.5 2t-0.5 9l131 678q2 11 14 11h304zM385 780q-11 -9 -16 -3t6 15l130 114q10 9 14 10t9 -6t4 -10t-12 -12z" glyph-name="uni0403" horiz-adv-x="484" unicode="Ѓ"/><glyph d="M367 350q-3 -10 -13 -10h-180q-10 0 -12 -10l-4 -21q-29 -150 27 -223t167 -70q105 3 185 85q7 7 13 0q8 -7 -1 -16q-86 -86 -201 -89q-119 -3 -181.5 74.5t-31.5 236.5l17 86q31 159 123 236.5t210 74.5q115 -3 167 -89q5 -8 -5 -16q-9 -7 -13 0q-49 82 -153 85 q-109 3 -194 -70t-113 -223l-5 -21q-1 -7 0 -8.5t8 -1.5h180q13 0 10 -10z" glyph-name="uni0404" horiz-adv-x="599" unicode="Є"/><glyph d="M79 66q-7 9 1 17q9 9 18 0q23 -25 66.5 -45.5t100.5 -20.5q79 0 138.5 47.5t71.5 114.5q7 37 -6.5 66.5t-40 50t-60 39t-67.5 37.5t-61 41t-41 54t-8 72q11 68 71.5 116.5t156.5 48.5q40 0 77.5 -11t54.5 -23l17 -11q7 -5 1 -14q-7 -10 -18 -3q-61 41 -135 41 q-90 0 -142 -44t-60 -97q-8 -50 22 -88t76.5 -63.5l93 -51t74.5 -65t18 -92.5q-16 -82 -84 -134t-154 -52q-63 0 -109.5 22t-71.5 48z" glyph-name="uni0405" horiz-adv-x="528" unicode="Ѕ"/><glyph d="M127 0q-7 0 -8.5 2t-0.5 9l131 678q2 11 14 11q7 0 8.5 -2t-0.5 -9l-131 -678q-2 -11 -13 -11z" glyph-name="uni0406" horiz-adv-x="254" unicode="І"/><glyph d="M127 0q-7 0 -8.5 2t-0.5 9l131 678q2 11 14 11q7 0 8.5 -2t-0.5 -9l-131 -678q-2 -11 -13 -11zM324 798q2 10 10.5 17t18.5 7t15.5 -7.5t3.5 -16.5q-6 -24 -28 -24q-10 0 -16 7t-4 17zM194 798q2 10 10.5 17t18.5 7t15.5 -7t3.5 -17q-1 -10 -9.5 -17t-18.5 -7t-16 7 t-4 17z" glyph-name="uni0407" horiz-adv-x="254" unicode="Ї"/><glyph d="M175 16q58 0 108.5 38.5t63.5 107.5l102 527q2 11 14 11q7 0 8.5 -2t-0.5 -9l-101 -524q-15 -77 -72.5 -123t-126.5 -46q-80 0 -120 56q-6 8 2 15q10 8 16 -2q34 -49 106 -49z" glyph-name="uni0408" horiz-adv-x="434" unicode="Ј"/><glyph d="M675 700q7 0 8.5 -2t-0.5 -9l-55 -283q-1 -7 0 -8.5t8 -1.5h119q53 0 91 -12.5t57.5 -32.5t30.5 -46t9 -53.5t-5 -53.5q-7 -36 -22.5 -67.5t-44 -63t-78 -49.5t-114.5 -18h-140q-7 0 -8.5 2t-0.5 9l128 659q1 7 0 8.5t-8 1.5h-313q-10 0 -12 -10l-103 -527 q-13 -70 -61.5 -106.5t-106.5 -36.5h-1q-11 0 -10 10q3 10 13 10h1q50 0 90.5 30.5t52.5 93.5l106 545q2 11 14 11h355zM677 20q114 0 169 51.5t70 126.5q3 25 4.5 50t-9 48.5t-28.5 41t-53 28t-83 10.5h-114q-10 0 -12 -10l-66 -336q-1 -7 0 -8.5t8 -1.5h114z" glyph-name="uni0409" horiz-adv-x="964" unicode="Љ"/><glyph d="M736 379q53 0 91 -12t57.5 -31.5t30.5 -44.5t9.5 -51t-4.5 -50q-6 -34 -21.5 -64t-43.5 -60t-77.5 -48t-114.5 -18h-140q-7 0 -8.5 2t-0.5 9l65 338q1 7 0 8.5t-8 1.5h-354q-10 0 -12 -10l-65 -338q-2 -11 -13 -11q-7 0 -8.5 2t-0.5 9l131 678q2 11 14 11q7 0 8.5 -2 t-0.5 -9l-58 -300q-1 -7 0 -8.5t8 -1.5h354q10 0 12 10l58 300q2 11 14 11q7 0 8.5 -2t-0.5 -9l-58 -300q-1 -7 0 -8.5t8 -1.5h119zM613 359q-10 0 -12 -10l-62 -319q-1 -7 0 -8.5t8 -1.5h114q113 0 168.5 50t68.5 120q3 23 4 46.5t-9.5 45.5t-28.5 39t-53.5 27.5 t-83.5 10.5h-114z" glyph-name="uni040A" horiz-adv-x="948" unicode="Њ"/><glyph d="M477 700q7 0 8.5 -2t0.5 -8q-2 -10 -13 -10h-123q-10 0 -12 -10l-43 -220q72 54 148 54q74 0 110 -45t21 -126l-62 -322q-2 -11 -13 -11q-7 0 -8.5 2t-0.5 9l61 318q14 75 -16.5 115t-100.5 40q-72 0 -143 -54l-81 -419q-2 -11 -13 -11q-7 0 -8.5 2t-0.5 9l128 659 q1 7 0 8.5t-8 1.5h-123q-7 0 -8.5 2t-0.5 8q2 10 13 10h288z" glyph-name="uni040B" horiz-adv-x="585" unicode="Ћ"/><glyph d="M448 80l-154 271q-5 9 -14 0l-77 -72q-13 -12 -17 -30l-46 -238q-2 -11 -13 -11q-7 0 -8.5 2t-0.5 9l131 678q2 11 14 11q7 0 8.5 -2t-0.5 -9l-73 -378q-1 -6 2.5 -7t7.5 3l410 382q12 11 24 11q4 0 6 -1.5t1.5 -4t-3.5 -5.5l-328 -306q-7 -7 -8 -10.5t4 -11.5l153 -269 l47 -81q1 -3 1 -5.5t-3 -4t-7 -1.5q-7 0 -9.5 1.5t-7.5 9.5zM411 780q-11 -9 -16 -3t6 15l130 114q10 9 14 10t9 -6t4 -10t-12 -12z" glyph-name="uni040C" horiz-adv-x="557" unicode="Ќ"/><glyph d="M268 184l-81 505q-1 6 2 8.5t10 2.5t8.5 -1.5t3.5 -9.5l74 -473q2 -5 5.5 -5t6.5 5l258 473q6 11 18 11t6 -11l-333 -608q-31 -56 -67 -74t-82 -6q-10 2 -11.5 5.5t2.5 10.5q5 9 18 5q72 -22 121 67l35 64q8 15 6 31zM399 774q-42 0 -67 27t-19 80q2 17 13 17 q7 0 8.5 -2.5t-0.5 -14.5q-5 -39 13.5 -63t55.5 -24t65 24t38 63q3 12 5.5 14.5t10.5 2.5q10 0 5 -17q-13 -53 -49 -80t-79 -27z" glyph-name="uni040E" horiz-adv-x="500" unicode="Ў"/><glyph d="M330 -10q1 7 0 8.5t-8 1.5h-195q-7 0 -8.5 2t-0.5 9l131 678q2 11 14 11q7 0 8.5 -2t-0.5 -9l-128 -659q-1 -7 0 -8.5t8 -1.5h386q10 0 12 10l128 659q2 11 14 11q7 0 8.5 -2t-0.5 -9l-131 -678q-2 -11 -13 -11h-191q-10 0 -12 -10l-29 -147q-2 -11 -13 -11q-7 0 -8.5 2 t-0.5 9z" glyph-name="uni040F" horiz-adv-x="682" unicode="Џ"/><glyph d="M441 700q11 0 12 -11l105 -678q1 -11 -11 -11t-13 11l-30 189q-1 9 -4 11.5t-13 2.5h-282q-15 0 -23 -14l-102 -189q-6 -11 -17 -11q-13 0 -7 11l367 678q6 11 18 11zM206 245q-6 -11 5 -11h278q12 0 9 11l-61 406q0 3 -2.5 4.5t-5.5 0t-4 -4.5z" glyph-name="uni0410" horiz-adv-x="610" unicode="А"/><glyph d="M127 0q-7 0 -8.5 2t-0.5 9l131 678q2 11 14 11h334q7 0 8.5 -2t0.5 -8q-2 -10 -13 -10h-313q-11 0 -12 -10l-52 -264q-1 -7 0 -8.5t8 -1.5h153q53 0 91 -12.5t57.5 -32.5t30.5 -46t9 -53.5t-5 -53.5q-7 -36 -22.5 -67.5t-44 -63t-78 -49.5t-114.5 -18h-174zM299 20 q114 0 169 51.5t70 126.5q3 25 4.5 50t-9 48.5t-28.5 41t-53 28t-83 10.5h-148q-11 0 -12 -10l-66 -336q-1 -7 0 -8.5t8 -1.5h148z" glyph-name="uni0411" horiz-adv-x="586" unicode="Б"/><glyph d="M127 0q-7 0 -8.5 2t-0.5 9l131 678q2 11 14 11h180q96 0 135.5 -48t25.5 -122q-12 -57 -49.5 -100t-98.5 -60q66 -19 89.5 -70.5t11.5 -109.5q-14 -75 -76 -132.5t-170 -57.5h-184zM535 190q8 25 2.5 54.5t-19 54.5t-48 42t-84.5 18h-169q-10 0 -12 -10l-62 -319 q-1 -7 0 -8.5t8 -1.5h165q97 0 152 53t67 117zM213 389q-1 -7 0 -8.5t8 -1.5h170q80 2 129.5 45t61.5 106q12 64 -22.5 107t-118.5 43h-161q-11 0 -12 -10z" glyph-name="uni0412" horiz-adv-x="596" unicode="В"/><glyph d="M567 700q7 0 8.5 -2t0.5 -8q-2 -10 -13 -10h-283q-10 0 -12 -10l-128 -659q-2 -11 -13 -11q-7 0 -8.5 2t-0.5 9l131 678q2 11 14 11h304z" glyph-name="uni0413" horiz-adv-x="484" unicode="Г"/><glyph d="M77 0q-10 0 -12 -10l-29 -147q-2 -11 -13 -11q-7 0 -8.5 2t-0.5 9l32 166q2 11 13 11h107q147 304 218 669q2 11 14 11h300q7 0 8.5 -2t0.5 -9l-128 -659q-1 -7 0 -8.5t8 -1.5h107q7 0 8.5 -2t0.5 -9l-32 -166q-2 -11 -13 -11q-7 0 -8.5 2t-0.5 9l29 147q1 7 0 8.5 t-8 1.5h-593zM682 670q1 7 0 8.5t-8 1.5h-259q-10 0 -12 -10q-86 -387 -215 -650h357q10 0 12 10z" glyph-name="uni0414" horiz-adv-x="747" unicode="Д"/><glyph d="M493 369q-1 -10 -13 -10h-263q-10 0 -12 -10l-62 -319q-1 -7 0 -8.5t8 -1.5h313q12 0 9 -10q-1 -10 -12 -10h-334q-7 0 -8.5 2t-0.5 9l131 678q2 11 14 11h334q7 0 8.5 -2t0.5 -8q-2 -10 -13 -10h-313q-10 0 -12 -10l-55 -281q-1 -7 0 -8.5t8 -1.5h263q7 0 8.5 -2t0.5 -8 z" glyph-name="uni0415" horiz-adv-x="544" unicode="Е"/><glyph d="M139 92l259 269q11 12 4 22l-210 306q-2 4 0.5 7.5t9.5 3.5q8 0 10 -1.5t8 -9.5l262 -382q2 -4 6.5 -3t5.5 7l73 378q2 11 14 11q7 0 8.5 -2t-0.5 -9l-73 -378q-1 -6 2.5 -7t7.5 3l410 382q12 11 24 11q4 0 6 -1.5t1.5 -4t-3.5 -5.5l-328 -306q-7 -7 -8 -10.5t4 -11.5 l153 -269l47 -81q1 -3 1 -5.5t-3 -4t-7 -1.5q-7 0 -9.5 1.5t-7.5 9.5l-40 69l-153 270q-5 9 -14 0l-79 -73q-14 -14 -16 -30l-46 -236q-2 -11 -13 -11q-7 0 -8.5 2t-0.5 9l46 236q2 18 -6 30l-49 73q-6 9 -14 0l-259 -270l-66 -69q-11 -11 -21 -11q-6 0 -7.5 3.5t2.5 7.5z " glyph-name="uni0416" horiz-adv-x="890" unicode="Ж"/><glyph d="M341 373q3 10 12 10q61 2 97 44.5t46 110.5q10 66 -22.5 105t-92.5 41q-72 2 -146 -61q-10 -8 -16 -1q-5 7 5 16q75 69 162 66q66 -2 105 -44.5t27 -122.5q-10 -66 -40 -107.5t-70 -56.5q37 -17 55.5 -62t2.5 -119q-21 -94 -85.5 -146t-145.5 -50q-90 3 -142 75 q-6 9 2 16q9 7 15 -1q48 -67 128 -70q75 -2 131 46.5t75 128.5q18 76 -7.5 124t-87.5 48q-11 0 -8 10z" glyph-name="uni0417" horiz-adv-x="515" unicode="З"/><glyph d="M674 643l-533 -634q-7 -9 -14 -9t-8.5 2t-0.5 9l131 678q2 11 14 11q7 0 8.5 -2t-0.5 -9l-122 -629q-1 -5 2.5 -6t6.5 3l533 634q8 9 15 9t8.5 -2t-0.5 -9l-131 -678q-2 -11 -13 -11q-7 0 -8.5 2t-0.5 9l122 629q1 5 -2.5 6t-6.5 -3z" glyph-name="uni0418" horiz-adv-x="697" unicode="И"/><glyph d="M674 643l-533 -634q-7 -9 -14 -9t-8.5 2t-0.5 9l131 678q2 11 14 11q7 0 8.5 -2t-0.5 -9l-122 -629q-1 -5 2.5 -6t6.5 3l533 634q8 9 15 9t8.5 -2t-0.5 -9l-131 -678q-2 -11 -13 -11q-7 0 -8.5 2t-0.5 9l122 629q1 5 -2.5 6t-6.5 -3zM497 774q-42 0 -67 27t-19 80 q2 17 13 17q7 0 8.5 -2.5t-0.5 -14.5q-5 -39 13.5 -63t55.5 -24t65 24t38 63q3 12 5.5 14.5t10.5 2.5q10 0 5 -17q-13 -53 -49 -80t-79 -27z" glyph-name="uni0419" horiz-adv-x="697" unicode="Й"/><glyph d="M448 80l-154 271q-5 9 -14 0l-77 -72q-13 -12 -17 -30l-46 -238q-2 -11 -13 -11q-7 0 -8.5 2t-0.5 9l131 678q2 11 14 11q7 0 8.5 -2t-0.5 -9l-73 -378q-1 -6 2.5 -7t7.5 3l410 382q12 11 24 11q4 0 6 -1.5t1.5 -4t-3.5 -5.5l-328 -306q-7 -7 -8 -10.5t4 -11.5l153 -269 l47 -81q1 -3 1 -5.5t-3 -4t-7 -1.5q-7 0 -9.5 1.5t-7.5 9.5z" glyph-name="uni041A" horiz-adv-x="557" unicode="К"/><glyph d="M674 700q7 0 8.5 -2t0.5 -9l-131 -678q-2 -11 -13 -11q-7 0 -8.5 2t-0.5 9l128 659q1 7 0 8.5t-8 1.5h-313q-10 0 -12 -10l-103 -527q-13 -70 -61.5 -106.5t-106.5 -36.5h-1q-13 0 -10 10t13 10h1q50 0 90.5 30.5t52.5 93.5l106 545q2 11 14 11h354z" glyph-name="uni041B" horiz-adv-x="666" unicode="Л"/><glyph d="M409 43q1 -4 4.5 -4t5.5 4l347 646q6 11 17 11q6 0 8 -2t1 -9l-75 -678q-1 -11 -10 -11q-8 0 -10 1.5t-1 9.5l69 616q0 3 -1.5 4.5t-4 0.5t-4.5 -4l-332 -617q-5 -11 -17 -11t-13 11l-92 617q-1 5 -6 5t-6 -6l-169 -616q-2 -8 -4.5 -9.5t-10.5 -1.5q-9 0 -6 11l187 678 q3 11 15 11q10 0 11 -11z" glyph-name="uni041C" horiz-adv-x="812" unicode="М"/><glyph d="M579 349q1 7 0 8.5t-8 1.5h-354q-10 0 -12 -10l-65 -338q-2 -11 -13 -11q-7 0 -8.5 2t-0.5 9l131 678q2 11 14 11q7 0 8.5 -2t-0.5 -9l-58 -300q-1 -7 0 -8.5t8 -1.5h354q10 0 12 10l58 300q2 11 14 11q7 0 8.5 -2t-0.5 -9l-131 -678q-2 -11 -13 -11q-7 0 -8.5 2t-0.5 9z " glyph-name="uni041D" horiz-adv-x="650" unicode="Н"/><glyph d="M686 393l-17 -86q-31 -158 -120 -234.5t-207 -76.5t-178 77t-29 234l17 86q31 158 120 234.5t207 76.5q56 0 100 -17.5t74.5 -55t38.5 -96.5t-6 -142zM174 391l-16 -82q-29 -148 24.5 -220.5t163.5 -72.5t191.5 72.5t110.5 220.5l16 82q29 148 -25 220.5t-164 72.5 t-191 -72.5t-110 -220.5z" glyph-name="uni041E" horiz-adv-x="686" unicode="О"/><glyph d="M263 700h427q7 0 8.5 -2t0.5 -9l-131 -678q-2 -11 -13 -11q-7 0 -8.5 2t-0.5 9l128 659q1 7 0 8.5t-8 1.5h-386q-10 0 -12 -10l-128 -659q-2 -11 -13 -11q-7 0 -8.5 2t-0.5 9l131 678q2 11 14 11z" glyph-name="uni041F" horiz-adv-x="682" unicode="П"/><glyph d="M596 482q-19 -98 -88 -158t-183 -60h-126q-10 0 -12 -10l-47 -243q-2 -11 -13 -11q-7 0 -8.5 2t-0.5 9l131 678q2 11 14 11h147q114 0 159.5 -60t26.5 -158zM574 482q17 87 -24 142.5t-144 55.5h-126q-10 0 -12 -10l-73 -376q-1 -7 0 -8.5t8 -1.5h126q103 0 165.5 55.5 t79.5 142.5z" glyph-name="uni0420" horiz-adv-x="568" unicode="Р"/><glyph d="M158 309q-29 -150 27 -223t167 -70q105 3 185 85q7 7 13 0q8 -7 -1 -16q-86 -86 -201 -89q-119 -3 -181.5 74.5t-31.5 236.5l17 86q31 159 123 236.5t210 74.5q113 -3 167 -89q6 -9 -5 -16q-9 -6 -16 5q-49 77 -150 80q-109 3 -194 -70t-113 -223z" glyph-name="uni0421" horiz-adv-x="599" unicode="С"/><glyph d="M251 0q-7 0 -8.5 2t-0.5 9l128 659q1 7 0 8.5t-8 1.5h-177q-7 0 -8.5 2t-0.5 8q2 10 13 10h396q7 0 8.5 -2t0.5 -8q-2 -10 -13 -10h-177q-10 0 -12 -10l-128 -659q-2 -11 -13 -11z" glyph-name="uni0422" horiz-adv-x="502" unicode="Т"/><glyph d="M268 184l-81 505q-1 6 2 8.5t10 2.5t8.5 -1.5t3.5 -9.5l74 -473q2 -5 5.5 -5t6.5 5l258 473q6 11 18 11t6 -11l-333 -608q-31 -56 -67 -74t-82 -6q-10 2 -11.5 5.5t2.5 10.5q5 9 18 5q72 -22 121 67l35 64q8 15 6 31z" glyph-name="uni0423" horiz-adv-x="500" unicode="У"/><glyph d="M409 53q1 7 0 8.5t-8 1.5h-46q-115 0 -177 71t-34 216q28 144 117.5 215.5t204.5 71.5h46q10 0 12 10l8 42q2 11 14 11q7 0 8.5 -2t-0.5 -9l-8 -42q-1 -7 0 -8.5t8 -1.5h46q55 0 98.5 -16t75 -51t41.5 -89.5t-3 -130.5q-14 -74 -47 -131t-77 -90t-94 -49.5t-105 -16.5 h-46q-10 0 -12 -10l-8 -42q-2 -11 -13 -11q-7 0 -8.5 2t-0.5 9zM462 617q-106 0 -188 -67t-108 -200t30.5 -200t162.5 -67h46q10 0 12 10l99 514q1 7 0 8.5t-8 1.5h-46zM596 617h-46q-10 0 -12 -10l-99 -514q-1 -7 0 -8.5t8 -1.5h46q106 0 188.5 67t108.5 200t-31 200 t-163 67z" glyph-name="uni0424" horiz-adv-x="820" unicode="Ф"/><glyph d="M340 326q-4 10 -12 0l-249 -315q-9 -11 -19 -11q-14 0 -5 11l266 335q7 10 3 18l-127 325q-4 11 10 11q7 0 9 -1.5t5 -9.5l118 -306q4 -10 12 0l236 306q10 11 20 11q13 0 4 -11l-253 -325q-7 -10 -3 -18l136 -335q4 -11 -9 -11q-7 0 -9 1.5t-6 9.5z" glyph-name="uni0425" horiz-adv-x="542" unicode="Х"/><glyph d="M143 30q-1 -7 0 -8.5t8 -1.5h354q10 0 12 10l128 659q2 11 14 11q10 0 8 -11l-128 -659q-1 -7 0 -8.5t8 -1.5h106q12 0 10 -11l-32 -166q-2 -11 -13 -11q-7 0 -8.5 2t-0.5 9l29 147q1 7 0 8.5t-8 1.5h-503q-7 0 -8.5 2t-0.5 9l131 678q2 11 14 11q10 0 8 -11z" glyph-name="uni0426" horiz-adv-x="707" unicode="Ц"/><glyph d="M478 11q-2 -11 -13 -11q-7 0 -8.5 2t-0.5 9l64 331q-97 -75 -190 -80q-34 -2 -65.5 6.5t-60 28t-40.5 60.5t-1 97l45 235q2 11 14 11q7 0 8.5 -2t-0.5 -9l-47 -242q-17 -89 32 -129t125 -36q91 5 184 80l33 169l30 158q2 11 14 11q7 0 8.5 -2t-0.5 -9z" glyph-name="uni0427" horiz-adv-x="591" unicode="Ч"/><glyph d="M427 20q10 0 12 10l128 659q2 11 14 11q10 0 8 -11l-128 -659q-1 -7 0 -8.5t8 -1.5h276q10 0 12 10l128 659q2 11 14 11q10 0 8 -11l-131 -678q-2 -11 -13 -11h-636q-7 0 -8.5 2t-0.5 9l131 678q2 11 14 11q10 0 8 -11l-128 -659q-1 -7 0 -8.5t8 -1.5h276z" glyph-name="uni0428" horiz-adv-x="890" unicode="Ш"/><glyph d="M581 700q10 0 8 -11l-128 -659q-1 -7 0 -8.5t8 -1.5h276q10 0 12 10l128 659q2 11 14 11q10 0 8 -11l-128 -659q-1 -7 0 -8.5t8 -1.5h107q7 0 8.5 -2t0.5 -9l-32 -166q-2 -11 -13 -11q-7 0 -8.5 2t-0.5 9l29 147q1 7 0 8.5t-8 1.5h-743q-7 0 -8.5 2t-0.5 9l131 678 q2 11 14 11q10 0 8 -11l-128 -659q-1 -7 0 -8.5t8 -1.5h276q10 0 12 10l128 659q2 11 14 11z" glyph-name="uni0429" horiz-adv-x="947" unicode="Щ"/><glyph d="M198 0q-7 0 -8.5 2t-0.5 9l128 659q1 7 0 8.5t-8 1.5h-124q-7 0 -8.5 2t-0.5 8q2 10 13 10h145q10 0 8 -11l-55 -283q-1 -7 0 -8.5t8 -1.5h153q53 0 91 -12.5t57.5 -32.5t30.5 -46t9 -53.5t-5 -53.5q-7 -36 -22.5 -67.5t-44 -63t-78 -49.5t-114.5 -18h-174zM370 20 q114 0 169 51.5t70 126.5q3 25 4.5 50t-9 48.5t-28.5 41t-53 28t-83 10.5h-148q-10 0 -12 -10l-66 -336q-1 -7 0 -8.5t8 -1.5h148z" glyph-name="uni042A" horiz-adv-x="657" unicode="Ъ"/><glyph d="M790 689q2 11 14 11q7 0 8.5 -2t-0.5 -9l-131 -678q-2 -11 -13 -11q-7 0 -8.5 2t-0.5 9zM216 406q-1 -7 0 -8.5t8 -1.5h153q53 0 91 -12.5t57.5 -32.5t30.5 -46t9 -53.5t-5 -53.5q-7 -36 -22.5 -67.5t-44 -63t-78 -49.5t-114.5 -18h-174q-7 0 -8.5 2t-0.5 9l131 678 q2 11 14 11q7 0 8.5 -2t-0.5 -9zM299 20q114 0 169 51.5t70 126.5q3 25 4.5 50t-9 48.5t-28.5 41t-53 28t-83 10.5h-148q-10 0 -12 -10l-66 -336q-1 -7 0 -8.5t8 -1.5h148z" glyph-name="uni042B" horiz-adv-x="795" unicode="Ы"/><glyph d="M216 406q-1 -7 0 -8.5t8 -1.5h153q53 0 91 -12.5t57.5 -32.5t30.5 -46t9 -53.5t-5 -53.5q-7 -36 -22.5 -67.5t-44 -63t-78 -49.5t-114.5 -18h-174q-7 0 -8.5 2t-0.5 9l131 678q2 11 14 11q10 0 8 -11zM299 20q114 0 169 51.5t70 126.5q3 25 4.5 50t-9 48.5t-28.5 41 t-53 28t-83 10.5h-148q-10 0 -12 -10l-66 -336q-1 -7 0 -8.5t8 -1.5h148z" glyph-name="uni042C" horiz-adv-x="586" unicode="Ь"/><glyph d="M368 350q2 10 12 10h180q10 0 12 10l5 21q29 150 -27.5 223t-167.5 70q-105 -3 -185 -85q-7 -7 -13 0q-8 7 1 16q86 86 201 89q119 3 181.5 -74.5t31.5 -236.5l-17 -86q-31 -159 -123 -236.5t-210 -74.5q-115 3 -167 89q-6 9 5 16q9 6 13 0q49 -82 153 -85q109 -3 194 70 t114 223l4 21q1 7 0 8.5t-8 1.5h-180q-7 0 -8.5 2t-0.5 8z" glyph-name="uni042D" horiz-adv-x="599" unicode="Э"/><glyph d="M385 330q1 7 0 8.5t-8 1.5h-163q-10 0 -12 -10l-62 -319q-2 -11 -13 -11q-7 0 -8.5 2t-0.5 9l131 678q2 11 14 11q7 0 8.5 -2t-0.5 -9l-62 -319q-3 -10 8 -10h163q10 0 12 10l5 23q31 158 120 234.5t207 76.5q56 0 100 -17.5t74.5 -55t38.5 -96.5t-6 -142l-17 -86 q-31 -158 -120 -234.5t-207 -76.5q-56 0 -100 17.5t-74.5 55t-38.5 96.5t6 142zM419 391l-16 -82q-29 -148 24.5 -220.5t163.5 -72.5t191.5 72.5t110.5 220.5l16 82q29 148 -25 220.5t-164 72.5t-191 -72.5t-110 -220.5z" glyph-name="uni042E" horiz-adv-x="931" unicode="Ю"/><glyph d="M83 0q-15 0 -5 11l240 303q-176 20 -143 192q38 194 268 194h171q6 0 8 -2t1 -9l-131 -678q-2 -11 -13 -11q-7 0 -8.5 2t-0.5 9l56 291q1 7 0 8.5t-8 1.5h-178l-237 -301q-9 -11 -20 -11zM197 506q-34 -174 172 -174h153q10 0 12 10l64 328q1 7 0 8.5t-8 1.5h-153 q-206 0 -240 -174z" glyph-name="uni042F" horiz-adv-x="606" unicode="Я"/><glyph d="M400 0q-10 0 -8 11l8 41q-67 -53 -138 -56q-85 -3 -125 56t-19 167l12 62q21 108 83.5 167t146.5 56q69 -3 116 -57l9 42q2 11 12 11t8 -11l-93 -478q-2 -11 -12 -11zM152 292l-16 -84q-18 -94 19 -145t109 -48q76 3 140 60l68 350q-41 57 -116 60q-71 3 -128.5 -48 t-75.5 -145z" glyph-name="uni0430" unicode="а"/><glyph d="M155 409q24 124 80.5 171.5t159.5 47.5q66 0 87 7.5t32 44.5q10 19 15 20q9 0 9.5 -4.5t-3.5 -15.5q-6 -18 -12.5 -30t-17.5 -20t-19.5 -12t-26.5 -6t-30 -2.5t-38 -0.5q-101 0 -148.5 -47t-67.5 -153l-5 -24q30 57 79 88t109 31q85 0 124 -57.5t18 -165.5l-12 -62 q-21 -108 -82 -165.5t-146 -57.5t-124 57.5t-18 165.5zM263 15q73 0 129 50t74 143l16 84q18 93 -18 143t-109 50t-129 -50t-74 -143l-16 -84q-18 -93 18 -143t109 -50z" glyph-name="uni0431" horiz-adv-x="522" unicode="б"/><glyph d="M191 490q3 10 13 10h111q147 0 123 -131q-18 -88 -103 -115q74 -26 56 -130q-12 -56 -55 -90t-118 -34h-111q-13 0 -10 10zM129 19h91q130 0 151 108q23 117 -106 118h-92q-10 0 -12 -10l-40 -206q-1 -7 0 -8.5t8 -1.5zM219 481q-10 0 -12 -10l-38 -197q-1 -7 0 -8.5 t8 -1.5h98q123 3 144 109q10 49 -15.5 78.5t-93.5 29.5h-91z" glyph-name="uni0432" horiz-adv-x="444" unicode="в"/><glyph d="M204 500h239q7 0 8.5 -2t0.5 -8q-3 -9 -13 -9h-220q-10 0 -12 -10l-89 -460q-2 -11 -12 -11t-8 11l93 479q1 10 13 10z" glyph-name="uni0433" horiz-adv-x="399" unicode="г"/><glyph d="M4 -110l23 118q2 11 12 11h54q29 49 43.5 75t42 86.5t49.5 137t41 172.5q1 10 13 10h225q5 0 6.5 -0.5t3.5 -2.5t0 -7l-90 -461q-1 -7 0 -8.5t8 -1.5h80q10 0 8 -11l-23 -118q-2 -11 -12 -11t-8 11l20 100q1 7 0 8.5t-8 1.5h-436q-10 0 -12 -10l-20 -100q-2 -11 -12 -11 t-8 11zM407 29l86 442q1 7 0 8.5t-8 1.5h-188q-10 0 -12 -10q-17 -88 -38.5 -160.5t-48 -131t-41 -86t-42.5 -74.5h280q10 0 12 10z" glyph-name="uni0434" horiz-adv-x="568" unicode="д"/><glyph d="M118 219l12 62q20 104 78 163.5t140 59.5q69 0 102 -41t18 -114q-10 -54 -40 -81t-94 -27h-182q-10 0 -12 -10l-4 -23q-17 -94 18.5 -143.5t107.5 -49.5q73 0 134 59q9 9 15 3q7 -7 -2 -15q-68 -66 -149 -66q-85 0 -124 57.5t-18 165.5zM449 347q13 67 -16.5 102.5 t-87.5 35.5q-68 0 -121.5 -51t-71.5 -142l-4 -23q-1 -6 0.5 -8t7.5 -2h181q56 0 79.5 22.5t32.5 65.5z" glyph-name="uni0435" horiz-adv-x="478" unicode="е"/><glyph d="M431 500q10 0 8 -11l-57 -290q0 -3 1 -4.5t3.5 -1t4.5 2.5l290 293q11 11 22 11q4 0 5.5 -1.5t0.5 -4.5t-5 -6l-190 -192q-5 -5 -2 -12l111 -272q5 -12 -7 -12q-10 0 -15 11l-106 258q-3 7 -10 0l-101 -102q-11 -12 -15 -34l-23 -122q-2 -11 -12 -11t-8 11l23 122 q5 24 -1 34l-61 102q-4 8 -10 0l-206 -258q-9 -11 -19 -11q-5 0 -6.5 3t3.5 9l217 272q5 7 2 12l-116 192q-3 5 -0.5 8.5t7.5 3.5q11 0 18 -11l176 -293q1 -2 3 -2.5t4 1t2 4.5l57 290q2 11 12 11z" glyph-name="uni0436" horiz-adv-x="668" unicode="ж"/><glyph d="M257 240q-7 0 -8.5 2t-0.5 7q1 10 13 10q89 0 127 65q31 52 7 104q-27 57 -102 57q-72 0 -138 -59q-10 -10 -15 -3q-6 7 3 15q71 66 152 66q41 0 70.5 -15.5t43.5 -40t16 -54.5t-9 -58t-36 -51.5t-60 -34.5q62 -23 64 -85t-52.5 -115.5t-134.5 -53.5q-82 0 -127 66 q-6 8 2 15t15 -3q42 -59 114 -59q80 0 130 64q41 53 26 104q-17 57 -100 57z" glyph-name="uni0437" horiz-adv-x="431" unicode="з"/><glyph d="M497 453l-366 -436q-14 -17 -25 -17q-10 0 -8 11l93 478q2 11 12 11t8 -11l-86 -440q-1 -4 3 -4q3 0 5 2l365 436q15 17 26 17q10 0 8 -11l-93 -478q-2 -11 -12 -11t-8 11l85 440q1 3 -2 4t-5 -2z" glyph-name="uni0438" horiz-adv-x="533" unicode="и"/><glyph d="M497 453l-366 -436q-14 -17 -25 -17q-10 0 -8 11l93 478q2 11 12 11t8 -11l-86 -440q-1 -4 3 -4q3 0 5 2l365 436q15 17 26 17q6 0 7.5 -2t0.5 -9l-93 -478q-2 -11 -12 -11t-8 11l85 440q1 3 -2 4t-5 -2zM376 574q-42 0 -67 27t-19 80q2 17 13 17q7 0 8.5 -2.5 t-0.5 -14.5q-5 -39 13.5 -63t55.5 -24t65 24t38 63q3 12 5.5 14.5t10.5 2.5q10 0 5 -17q-13 -53 -49 -80t-79 -27z" glyph-name="uni0439" horiz-adv-x="533" unicode="й"/><glyph d="M106 0q-10 0 -8 11l93 478q2 11 12 11t8 -11l-57 -290q0 -3 1 -4.5t3.5 -1t4.5 2.5l290 293q11 11 22 11q4 0 5.5 -1.5t0.5 -4.5t-5 -6l-190 -192q-5 -5 -2 -12l111 -272q5 -12 -7 -12q-10 0 -15 11l-106 258q-3 7 -10 0l-101 -102q-11 -12 -15 -34l-23 -122 q-2 -11 -12 -11z" glyph-name="uni043A" horiz-adv-x="440" unicode="к"/><glyph d="M48 0h-1q-7 0 -9 2t-1 7q3 10 13 10h1q47 0 65.5 29t32.5 101l67 341q2 10 13 10h276q7 0 8.5 -1.5t0.5 -8.5l-93 -479q-2 -11 -12 -11t-8 11l89 460q1 7 0 8.5t-8 1.5h-238q-10 0 -12 -10l-64 -328q-15 -75 -40 -109t-80 -34z" glyph-name="uni043B" horiz-adv-x="515" unicode="л"/><glyph d="M216 483l101 -447q0 -2 2 -3.5t4 -0.5t4 4l275 447q8 13 11 15t10 2q6 0 7.5 -2t0.5 -9l-93 -478q-2 -11 -12 -11t-8 11l81 417q0 2 -1 3.5t-3.5 0.5t-3.5 -3l-253 -412q-7 -12 -10.5 -14.5t-11.5 -2.5t-10.5 2.5t-5.5 14.5l-93 412q0 2 -2 3t-4 -0.5t-2 -3.5l-81 -417 q-2 -11 -12 -11t-8 11l93 478q2 11 12 11q7 0 8.5 -2t4.5 -15z" glyph-name="uni043C" horiz-adv-x="632" unicode="м"/><glyph d="M472 237q1 7 0 8.5t-8 1.5h-290q-10 0 -12 -10l-44 -226q-2 -11 -12 -11t-8 11l93 478q2 11 12 11t8 -11l-42 -213q-1 -7 0 -8.5t8 -1.5h290q10 0 12 10l42 213q2 11 12 11t8 -11l-93 -478q-2 -11 -12 -11t-8 11z" glyph-name="uni043D" horiz-adv-x="542" unicode="н"/><glyph d="M500 281l-12 -62q-21 -108 -82 -165.5t-146 -57.5t-124 57.5t-18 165.5l12 62q21 108 82 165.5t146 57.5t124 -57.5t18 -165.5zM263 15q73 0 129 50t74 143l16 84q18 93 -18 143t-109 50t-129 -50t-74 -143l-16 -84q-18 -93 18 -143t109 -50z" glyph-name="uni043E" horiz-adv-x="522" unicode="о"/><glyph d="M204 500h328q7 0 8.5 -2t0.5 -8l-93 -479q-2 -11 -12 -11t-8 11l89 460q1 7 0 8.5t-8 1.5h-290q-10 0 -12 -10l-89 -460q-2 -11 -12 -11t-8 11l93 479q2 10 13 10z" glyph-name="uni043F" horiz-adv-x="542" unicode="п"/><glyph d="M58 -245q-10 0 -8 11l141 723q2 11 12 11t8 -11l-9 -42q68 54 138 57q86 3 125.5 -56t18.5 -167l-12 -62q-21 -108 -83.5 -167t-146.5 -56q-70 3 -116 56l-56 -286q-2 -11 -12 -11zM466 292q18 94 -19 145t-109 48q-76 -3 -140 -60l-68 -350q41 -57 116 -60q72 -3 129 48 t75 145z" glyph-name="uni0440" unicode="р"/><glyph d="M136 208q-18 -93 18 -143t108 -50q76 0 142 59q10 10 15 3q6 -7 -2 -15q-73 -66 -157 -66q-85 0 -124 57.5t-18 165.5l12 62q21 108 82 165.5t146 57.5t132 -66q5 -8 -3 -15q-8 -6 -15 3q-42 59 -118 59q-72 0 -128 -50t-74 -143z" glyph-name="uni0441" horiz-adv-x="466" unicode="с"/><glyph d="M301 471q1 7 0 8.5t-8 1.5h-147q-12 0 -9 9q3 10 13 10h334q12 0 9 -10q-3 -9 -13 -9h-147q-10 0 -12 -10l-89 -460q-2 -11 -12 -11t-8 11z" glyph-name="uni0442" horiz-adv-x="440" unicode="т"/><glyph d="M97 -231l114 207q9 17 7 31l-78 479q-3 14 10 14q5 0 7.5 -2t3.5 -9l73 -457q1 -4 3.5 -3.5t4.5 3.5l251 457q5 11 15 11q12 0 4 -14l-396 -720q-7 -11 -15 -11q-12 0 -4 14z" glyph-name="uni0443" horiz-adv-x="464" unicode="у"/><glyph d="M261 0q-85 0 -124 57.5t-18 165.5l10 54q21 108 82.5 165.5t146.5 57.5h44q10 0 12 10l5 28q2 11 12 11q6 0 7.5 -2t0.5 -9l-5 -28q-1 -7 0 -8.5t8 -1.5h52q81 -3 117.5 -60.5t15.5 -162.5l-10 -54q-21 -105 -79 -162.5t-139 -60.5h-54q-10 0 -12 -10l-6 -28 q-2 -11 -12 -11t-8 11l6 28q1 7 0 8.5t-8 1.5h-44zM308 19q10 0 12 10l86 442q1 7 0 8.5t-8 1.5h-44q-73 0 -129 -50t-74 -143l-14 -76q-18 -93 18 -143t109 -50h44zM426 471l-86 -442q-1 -7 0 -8.5t8 -1.5h51q71 2 124.5 52t71.5 141l14 76q17 89 -15.5 139t-101.5 54h-54 q-10 0 -12 -10z" glyph-name="uni0444" horiz-adv-x="650" unicode="ф"/><glyph d="M507 486l-205 -223q-6 -6 -3 -11l126 -238q8 -14 -4 -14q-10 0 -16 11l-119 225q-3 7 -10 0l-205 -225q-10 -11 -20 -11q-14 0 0 14l218 238q6 6 3 11l-119 223q-8 14 5 14q10 0 16 -11l111 -210q3 -7 10 0l193 210q10 11 20 11q13 0 -1 -14z" glyph-name="uni0445" horiz-adv-x="472" unicode="х"/><glyph d="M524 -110q-2 -11 -12 -11t-8 11l20 100q1 7 0 8.5t-8 1.5h-408q-4 0 -6.5 0.5t-3.5 3t0 6.5l94 479q2 11 12 11t8 -11l-90 -460q-1 -7 0 -8.5t8 -1.5h289q10 0 12 10l90 460q2 11 12 11t8 -11l-90 -460q-1 -7 0 -8.5t8 -1.5h80q10 0 8 -11z" glyph-name="uni0446" horiz-adv-x="592" unicode="ц"/><glyph d="M191 489l-32 -163q-14 -74 17.5 -114.5t101.5 -40.5q67 0 133 47l53 271q2 11 12 11t8 -11l-93 -478q-2 -11 -12 -11t-8 11l36 188q-68 -47 -139 -47q-74 0 -109.5 44.5t-20.5 126.5l33 166q2 11 12 11t8 -11z" glyph-name="uni0447" horiz-adv-x="485" unicode="ч"/><glyph d="M621 0h-514q-13 0 -10 10l94 479q2 11 12 11t8 -11l-90 -460q-1 -7 0 -8.5t8 -1.5h218q10 0 12 10l90 460q2 11 12 11t8 -11l-90 -460q-1 -7 0 -8.5t8 -1.5h218q10 0 12 10l90 460q2 11 12 11t8 -11l-94 -479q-1 -4 -2 -6t-3 -3t-7 -1z" glyph-name="uni0448" horiz-adv-x="728" unicode="ш"/><glyph d="M347 19q10 0 12 10l90 460q2 11 12 11t8 -11l-90 -460q-1 -7 0 -8.5t8 -1.5h218q10 0 12 10l90 460q2 11 12 11t8 -11l-90 -460q-1 -7 0 -8.5t8 -1.5h80q10 0 8 -11l-23 -118q-2 -11 -12 -11t-8 11l20 100q1 7 0 8.5t-8 1.5h-595q-13 0 -10 10l94 479q2 11 12 11t8 -11 l-90 -460q-1 -7 0 -8.5t8 -1.5h218z" glyph-name="uni0449" horiz-adv-x="778" unicode="щ"/><glyph d="M243 471q1 7 0 8.5t-8 1.5h-92q-12 0 -9 9q2 10 13 10h110q5 0 7 -0.5t3 -3t0 -6.5l-31 -159q-1 -7 0 -8.5t8 -1.5h71q169 0 140 -160q-31 -161 -202 -161h-90q-11 0 -10 10zM240 302q-10 0 -12 -10l-51 -263q-1 -7 0 -8.5t8 -1.5h70q152 0 180 142q25 141 -125 141h-70z " glyph-name="uni044A" horiz-adv-x="500" unicode="ъ"/><glyph d="M532 0q-10 0 -8 11l93 478q2 11 12 11t8 -11l-93 -478q-2 -11 -12 -11zM180 331q-1 -7 0 -8.5t8 -1.5h71q169 0 140 -160q-31 -161 -202 -161h-90q-5 0 -7 0.5t-3 3t0 6.5l94 479q2 11 12 11t8 -11zM184 302q-10 0 -12 -10l-51 -263q-1 -7 0 -8.5t8 -1.5h70 q152 0 180 142q25 141 -125 141h-70z" glyph-name="uni044B" horiz-adv-x="638" unicode="ы"/><glyph d="M180 331q-1 -7 0 -8.5t8 -1.5h71q169 0 140 -160q-31 -161 -202 -161h-90q-5 0 -7 0.5t-3 3t0 6.5l94 479q2 11 12 11t8 -11zM184 302q-10 0 -12 -10l-51 -263q-1 -7 0 -8.5t8 -1.5h70q152 0 180 142q25 141 -125 141h-70z" glyph-name="uni044C" horiz-adv-x="444" unicode="ь"/><glyph d="M422 269l4 23q18 93 -18 143t-108 50q-76 0 -142 -59q-10 -10 -15 -3q-6 7 3 15q71 66 156 66t124 -57.5t18 -165.5l-12 -62q-21 -108 -82 -165.5t-146 -57.5q-86 0 -131 66q-6 8 2 15t15 -3q42 -59 118 -59q72 0 128 50t74 143l4 23q1 6 -0.5 8t-7.5 2h-132q-7 0 -8.5 2 t-0.5 7q1 9 13 9h132q10 0 12 10z" glyph-name="uni044D" horiz-adv-x="456" unicode="э"/><glyph d="M450 -4q-85 0 -124 57.5t-18 165.5l3 13q1 7 0 8.5t-8 1.5h-130q-10 0 -12 -10l-43 -221q-2 -11 -12 -11t-8 11l93 478q2 11 12 11t8 -11l-43 -218q-1 -7 0 -8.5t8 -1.5h130q10 0 12 10l2 10q21 108 82 165.5t146 57.5t124 -57.5t18 -165.5l-12 -62q-21 -108 -82 -165.5 t-146 -57.5zM342 292l-16 -84q-18 -93 18 -143t109 -50t129 50t74 143l16 84q18 93 -18 143t-109 50t-129 -50t-74 -143z" glyph-name="uni044E" horiz-adv-x="712" unicode="ю"/><glyph d="M350 11l30 158q1 7 0 8.5t-8 1.5h-90q-45 0 -78 11l-104 -179q-6 -11 -17 -11t-3 14l108 184q-66 36 -46 141q33 161 203 161h109q7 0 8.5 -2t0.5 -8l-93 -479q-2 -11 -12 -11t-8 11zM287 198h89q10 0 12 10l51 263q1 7 0 8.5t-8 1.5h-89q-152 0 -180 -142 q-25 -141 125 -141z" glyph-name="uni044F" horiz-adv-x="463" unicode="я"/><glyph d="M118 219l12 62q20 104 78 163.5t140 59.5q69 0 102 -41t18 -114q-10 -54 -40 -81t-94 -27h-182q-10 0 -12 -10l-4 -23q-17 -94 18.5 -143.5t107.5 -49.5q73 0 134 59q9 9 15 3q7 -7 -2 -15q-68 -66 -149 -66q-85 0 -124 57.5t-18 165.5zM449 347q13 67 -16.5 102.5 t-87.5 35.5q-68 0 -121.5 -51t-71.5 -142l-4 -23q-1 -6 0.5 -8t7.5 -2h181q56 0 79.5 22.5t32.5 65.5zM395 598q2 10 10.5 17t18.5 7t15.5 -7.5t3.5 -16.5q-6 -24 -28 -24q-10 0 -16 7t-4 17zM265 598q2 10 10.5 17t18.5 7t15.5 -7t3.5 -17q-1 -10 -9.5 -17t-18.5 -7t-16 7 t-4 17z" glyph-name="uni0451" horiz-adv-x="478" unicode="ё"/><glyph d="M274 567q1 7 0 8.5t-8 1.5h-104q-7 0 -9 2t-1 7q3 9 13 9h104q10 0 12 10l16 84q2 11 13 11q6 0 7.5 -2t-0.5 -9l-16 -84q-1 -7 0 -8.5t8 -1.5h104q12 0 9 -9t-12 -9h-104q-10 0 -12 -10l-23 -117q72 54 149 54q74 0 109.5 -45t20.5 -126l-66 -340q-18 -93 -53.5 -130 t-85.5 -37q-11 0 -13.5 2t-0.5 9q3 10 18 10q87 0 112 131l69 352q13 75 -18 115t-101 40q-73 0 -144 -54l-81 -420q-2 -11 -12 -11t-8 11z" glyph-name="uni0452" horiz-adv-x="562" unicode="ђ"/><glyph d="M106 0q-10 0 -8 11l93 478q2 11 12 11t8 -11l-8 -40q76 55 150 55q56 0 90 -30q11 -11 3 -20q-8 -8 -21 2q-34 29 -85 29q-32 0 -71.5 -16t-69.5 -39l-81 -419q-2 -11 -12 -11zM167 580q-11 -9 -16 -3t6 15l130 114q10 9 14 10t9 -6t4 -10t-12 -12z" glyph-name="uni0453" horiz-adv-x="398" unicode="ѓ"/><glyph d="M152 292l-4 -23q-1 -7 0.5 -8.5t7.5 -1.5h132q7 0 8.5 -2t0.5 -7q-1 -9 -13 -9h-132q-10 0 -12 -10l-4 -23q-18 -93 18 -143t108 -50q76 0 142 59q10 10 15 3q6 -7 -2 -15q-73 -66 -157 -66q-85 0 -124 57.5t-18 165.5l12 62q21 108 82 165.5t146 57.5t132 -66 q5 -8 -3 -15q-8 -6 -15 3q-42 59 -118 59q-72 0 -128 -50t-74 -143z" glyph-name="uni0454" horiz-adv-x="466" unicode="є"/><glyph d="M79 54q67 -39 139 -39q64 0 108 33t50 86q4 34 -19.5 59t-58.5 41.5l-70 33t-58 43t-20 62.5q5 57 51 94t112 37q63 0 119 -33q8 -5 3 -14t-15 -3q-54 31 -110 31q-59 1 -96.5 -31t-42.5 -77q-3 -32 20.5 -56t58.5 -40.5t70 -33.5t57.5 -45.5t18.5 -67.5 q-8 -60 -57.5 -99t-123.5 -39q-82 0 -149 40q-8 5 -3 15q5 9 16 3z" glyph-name="uni0455" horiz-adv-x="438" unicode="ѕ"/><glyph d="M106 0q-10 0 -8 11l93 478q1 11 12 11q10 0 8 -11l-93 -478q-2 -11 -12 -11zM198 598q6 24 28 24q10 0 16 -7t4 -17t-10.5 -17t-18.5 -7t-15.5 7t-3.5 17z" glyph-name="uni0456" horiz-adv-x="212" unicode="і"/><glyph d="M106 0q-10 0 -8 11l93 478q2 11 12 11t8 -11l-93 -478q-2 -11 -12 -11zM263 598q2 10 10.5 17t18.5 7t15.5 -7.5t3.5 -16.5q-6 -24 -28 -24q-10 0 -16 7t-4 17zM133 598q2 10 10.5 17t18.5 7t15.5 -7t3.5 -17q-1 -10 -9.5 -17t-18.5 -7t-16 7t-4 17z" glyph-name="uni0457" horiz-adv-x="212" unicode="ї"/><glyph d="M-35 -229q32 0 64 26t40 69l122 623q2 11 12 11t8 -11l-122 -624q-10 -50 -49 -81.5t-79 -31.5q-55 0 -82 41q-5 7 3 14q7 6 14 -2q26 -34 69 -34zM198 598q6 24 28 24q10 0 16 -7t4 -17t-10.5 -17t-18.5 -7t-15.5 7t-3.5 17z" glyph-name="uni0458" horiz-adv-x="212" unicode="ј"/><glyph d="M48 0h-1q-7 0 -9 2t-1 7q3 10 13 10h1q47 0 65.5 29t32.5 101l67 341q2 10 13 10h276q7 0 8.5 -2t0.5 -8l-31 -159q-1 -7 0 -8.5t8 -1.5h71q169 0 140 -160q-31 -161 -202 -161h-89q-5 0 -7.5 0.5t-3.5 3t0 6.5l90 461q1 7 -0.5 8.5t-7.5 1.5h-238q-10 0 -12 -10 l-64 -328q-15 -75 -40 -109t-80 -34zM487 302q-10 0 -12 -10l-51 -263q-1 -7 0 -8.5t8 -1.5h70q152 0 180 142q25 141 -125 141h-70z" glyph-name="uni0459" horiz-adv-x="747" unicode="љ"/><glyph d="M465 471q1 7 0 8.5t-8 1.5h-238q-10 0 -12 -10l-89 -460q-2 -11 -12 -11t-8 11l93 479q3 10 13 10h276q11 0 9 -10l-31 -159q-1 -7 0 -8.5t8 -1.5h71q169 0 140 -160q-31 -161 -202 -161h-90q-11 0 -10 10zM462 302q-10 0 -12 -10l-51 -263q-3 -10 8 -10h70 q152 0 180 142q25 141 -125 141h-70z" glyph-name="uni045A" horiz-adv-x="722" unicode="њ"/><glyph d="M301 605q-1 -7 0 -8.5t8 -1.5h104q12 0 9 -9t-12 -9h-104q-10 0 -12 -10l-23 -117q72 54 149 54q74 0 109.5 -45t20.5 -126l-32 -166q-18 -93 -53.5 -130t-85.5 -37q-11 0 -13.5 2t-0.5 9q3 10 18 10q87 0 112 131l35 178q13 75 -18 115t-101 40q-73 0 -144 -54l-81 -420 q-2 -11 -12 -11t-8 11l108 556q1 7 0 8.5t-8 1.5h-104q-7 0 -9 2t-1 7q3 9 13 9h104q10 0 12 10l16 84q2 11 13 11q6 0 7.5 -2t-0.5 -9z" glyph-name="uni045B" horiz-adv-x="562" unicode="ћ"/><glyph d="M106 0q-10 0 -8 11l93 478q1 11 12 11q6 0 7.5 -2t0.5 -9l-57 -290q0 -3 1 -4.5t3.5 -1t4.5 2.5l290 293q11 11 22 11q4 0 5.5 -1.5t0.5 -4.5t-5 -6l-190 -192q-5 -5 -2 -12l111 -272q5 -12 -7 -12q-10 0 -15 11l-106 258q-3 7 -10 0l-101 -102q-11 -12 -15 -34l-23 -122 q-2 -11 -12 -11zM304 580q-11 -9 -16 -3t6 15l130 114q10 9 14 10t9 -6t4 -10t-12 -12z" glyph-name="uni045C" horiz-adv-x="440" unicode="ќ"/><glyph d="M342 574q-42 0 -67 27t-19 80q2 17 13 17q7 0 8.5 -2.5t-0.5 -14.5q-5 -39 13.5 -63t55.5 -24t65 24t38 63q3 12 5.5 14.5t10.5 2.5q10 0 5 -17q-13 -53 -49 -80t-79 -27zM97 -231l114 207q9 17 7 31l-78 479q-3 14 10 14q5 0 7.5 -2t3.5 -9l73 -457q1 -4 3.5 -3.5 t4.5 3.5l251 457q5 11 15 11q12 0 4 -14l-396 -720q-7 -11 -15 -11q-12 0 -4 14z" glyph-name="uni045E" horiz-adv-x="464" unicode="ў"/><glyph d="M211 489l-90 -460q-1 -7 0 -8.5t8 -1.5h290q10 0 12 10l90 460q2 11 12 11q11 0 8 -11l-94 -479q-2 -10 -12 -10h-144q-10 0 -12 -10l-20 -100q-2 -11 -12 -11t-8 11l20 100q1 7 0 8.5t-8 1.5h-144q-5 0 -7 0.5t-3 3t0 6.5l94 479q2 11 12 11t8 -11z" glyph-name="uni045F" horiz-adv-x="542" unicode="џ"/><glyph d="M586 700q11 0 12 -11l51 -640q0 -3 2 -4.5t4.5 0t3.5 4.5l296 640q5 11 18 11q11 0 5 -11l-317 -678q-5 -11 -16 -11q-12 0 -13 11l-51 640q0 3 -2 4t-4.5 0t-3.5 -4l-299 -640q-6 -11 -17 -11t-12 11l-55 678q-1 11 11 11q7 0 9 -1.5t3 -9.5l48 -640q0 -3 2 -4.5t4.5 0 t3.5 4.5l299 640q6 11 18 11zM655 780l-93 108q-7 9 -7 12t7 10q9 6 12 5.5t9 -9.5l86 -114q7 -9 0 -15t-14 3z" glyph-name="Wgrave" horiz-adv-x="900" unicode="Ẁ"/><glyph d="M452 500q5 0 7 -2.5t3 -15.5l48 -450q0 -2 1.5 -3t3.5 -0.5t3 3.5l217 457q4 11 14 11q12 0 5 -14l-224 -468q-8 -18 -22 -18q-9 0 -11.5 3.5t-4.5 14.5l-46 440q-1 4 -3.5 3.5t-4.5 -3.5l-218 -440q-6 -12 -9.5 -15t-12.5 -3t-12 3.5t-4 14.5l-42 468q-1 14 11 14 q5 0 7 -2t3 -9l39 -457q0 -5 5 -4q2 1 3 4l222 450q6 12 9 15t9 3h4zM520 580l-93 108q-7 9 -7 12t7 10q9 6 12 5.5t9 -9.5l86 -114q8 -9 0 -15q-7 -6 -14 3z" glyph-name="wgrave" horiz-adv-x="706" unicode="ẁ"/><glyph d="M586 700q11 0 12 -11l51 -640q0 -3 2 -4.5t4.5 0t3.5 4.5l296 640q5 11 18 11q11 0 5 -11l-317 -678q-5 -11 -16 -11q-12 0 -13 11l-51 640q0 3 -2 4t-4.5 0t-3.5 -4l-299 -640q-6 -11 -17 -11t-12 11l-55 678q-1 11 11 11q7 0 9 -1.5t3 -9.5l48 -640q0 -3 2 -4.5t4.5 0 t3.5 4.5l299 640q6 11 18 11zM548 780q-11 -9 -16 -3t6 15l130 114q10 9 14 10t9 -6t4 -10t-12 -12z" glyph-name="Wacute" horiz-adv-x="900" unicode="Ẃ"/><glyph d="M452 500q5 0 7 -2.5t3 -15.5l48 -450q0 -2 1.5 -3t3.5 -0.5t3 3.5l217 457q4 11 14 11q12 0 5 -14l-224 -468q-8 -18 -22 -18q-9 0 -11.5 3.5t-4.5 14.5l-46 440q-1 4 -3.5 3.5t-4.5 -3.5l-218 -440q-6 -12 -9.5 -15t-12.5 -3t-12 3.5t-4 14.5l-42 468q-1 14 11 14 q5 0 7 -2t3 -9l39 -457q0 -5 5 -4q2 1 3 4l222 450q6 12 9 15t9 3h4zM412 580q-11 -9 -16 -3t6 15l130 114q10 9 14 10t9 -6t4 -10t-12 -12z" glyph-name="wacute" horiz-adv-x="706" unicode="ẃ"/><glyph d="M586 700q11 0 12 -11l51 -640q0 -3 2 -4.5t4.5 0t3.5 4.5l296 640q5 11 18 11q11 0 5 -11l-317 -678q-5 -11 -16 -11q-12 0 -13 11l-51 640q0 3 -2 4t-4.5 0t-3.5 -4l-299 -640q-6 -11 -17 -11t-12 11l-55 678q-1 11 11 11q7 0 9 -1.5t3 -9.5l48 -640q0 -3 2 -4.5t4.5 0 t3.5 4.5l299 640q6 11 18 11zM645 798q2 10 10.5 17t18.5 7t15.5 -7.5t3.5 -16.5q-6 -24 -28 -24q-10 0 -16 7t-4 17zM515 798q2 10 10.5 17t18.5 7t15.5 -7t3.5 -17q-1 -10 -9.5 -17t-18.5 -7t-16 7t-4 17z" glyph-name="Wdieresis" horiz-adv-x="900" unicode="Ẅ"/><glyph d="M452 500q5 0 7 -2.5t3 -15.5l48 -450q0 -2 1.5 -3t3.5 -0.5t3 3.5l217 457q4 11 14 11q12 0 5 -14l-224 -468q-8 -18 -22 -18q-9 0 -11.5 3.5t-4.5 14.5l-46 440q-1 4 -3.5 3.5t-4.5 -3.5l-218 -440q-6 -12 -9.5 -15t-12.5 -3t-12 3.5t-4 14.5l-42 468q-1 14 11 14 q5 0 7 -2t3 -9l39 -457q0 -5 5 -4q2 1 3 4l222 450q6 12 9 15t9 3h4zM509 598q2 10 10.5 17t18.5 7t15.5 -7.5t3.5 -16.5q-6 -24 -28 -24q-10 0 -16 7t-4 17zM379 598q2 10 10.5 17t18.5 7t15.5 -7t3.5 -17q-1 -10 -9.5 -17t-18.5 -7t-16 7t-4 17z" glyph-name="wdieresis" horiz-adv-x="706" unicode="ẅ"/><glyph d="M349 374l246 315q9 11 20 11q13 0 4 -11l-271 -345l-64 -333q-2 -11 -13 -11t-9 11l64 333l-137 345q-4 11 9 11q7 0 9.5 -1.5t5.5 -9.5l124 -315q4 -10 12 0zM457 780l-93 108q-7 9 -7 12t7 10q9 6 12 5.5t9 -9.5l86 -114q7 -9 0 -15t-14 3z" glyph-name="Ygrave" horiz-adv-x="542" unicode="Ỳ"/><glyph d="M97 -231l114 207q9 17 7 31l-78 479q-3 14 10 14q5 0 7.5 -2t3.5 -9l73 -457q1 -4 3.5 -3.5t4.5 3.5l251 457q5 11 15 11q12 0 4 -14l-396 -720q-7 -11 -15 -11q-12 0 -4 14zM399 580l-93 108q-7 9 -7 12t7 10q9 6 12 5.5t9 -9.5l86 -114q7 -9 0 -15t-14 3z" glyph-name="ygrave" horiz-adv-x="464" unicode="ỳ"/><glyph d="M103 275q2 11 13 11h447q7 0 8.5 -2t0.5 -9q-2 -11 -13 -11h-447q-7 0 -8.5 2t-0.5 9z" glyph-name="endash" horiz-adv-x="569" unicode="–"/><glyph d="M103 275q2 11 13 11h577q7 0 8.5 -2t0.5 -9q-2 -11 -13 -11h-577q-7 0 -8.5 2t-0.5 9z" glyph-name="emdash" horiz-adv-x="699" unicode="—"/><glyph d="M242 613q-2 -12 -12 -19t-20 -6q-34 3 -16 54q14 42 50 78q8 8 12 4q3 -3 -2 -11q-11 -14 -16 -21t-13 -21t-7 -22.5t10 -11.5q17 -6 14 -24z" glyph-name="quoteleft" horiz-adv-x="190" unicode="‘"/><glyph d="M198 679q2 12 12.5 19t19.5 6q35 -4 16 -56q-15 -41 -50 -76q-8 -8 -12 -4q-3 3 2 11q11 14 16 21t13 21t7 22.5t-10 11.5q-17 6 -14 24z" glyph-name="quoteright" horiz-adv-x="190" unicode="’"/><glyph d="M71 21q2 12 12 19t19 6q35 -4 16 -56q-15 -41 -50 -76q-8 -8 -12 -4q-3 3 2 11q11 14 16 21t13 21t7 22.5t-10 11.5q-16 6 -13 24z" glyph-name="quotesinglbase" horiz-adv-x="190" unicode="‚"/><glyph d="M350 613q-2 -12 -12 -19t-20 -6q-34 3 -16 54q14 42 50 78q8 8 12 4q3 -3 -2 -11q-11 -14 -16 -21t-13 -21t-7 -22.5t10 -11.5q17 -6 14 -24zM242 613q-2 -12 -12 -19t-20 -6q-34 3 -16 54q14 42 50 78q8 8 12 4q3 -3 -2 -11q-11 -14 -16 -21t-13 -21t-7 -22.5t10 -11.5 q17 -6 14 -24z" glyph-name="quotedblleft" horiz-adv-x="298" unicode="“"/><glyph d="M198 679q3 12 13 19t19 6q35 -4 16 -56q-15 -41 -50 -76q-8 -8 -12 -4q-4 3 2 11q11 14 16 21t13 21t7 22.5t-10 11.5q-17 6 -14 24zM306 679q3 12 13 19t19 6q35 -4 16 -56q-15 -41 -50 -76q-8 -8 -12 -4q-4 3 2 11q11 14 16 21t13 21t7 22.5t-10 11.5q-17 6 -14 24z " glyph-name="quotedblright" horiz-adv-x="298" unicode="”"/><glyph d="M71 21q2 12 12 19t19 6q35 -4 16 -56q-15 -41 -50 -76q-8 -8 -12 -4q-3 3 2 11q11 14 16 21t13 21t7 22.5t-10 11.5q-16 6 -13 24zM179 21q2 12 12 19t19 6q35 -4 16 -56q-15 -41 -50 -76q-8 -8 -12 -4q-3 3 2 11q11 14 16 21t13 21t7 22.5t-10 11.5q-16 6 -13 24z" glyph-name="quotedblbase" horiz-adv-x="298" unicode="„"/><glyph d="M151 498q3 10 13 10h100q10 0 12 10l33 171q2 11 14 11q10 0 8 -11l-33 -171q-1 -7 0 -8.5t8 -1.5h100q12 0 9 -10t-13 -10h-100q-10 0 -12 -10l-147 -759q-2 -11 -13 -11q-7 0 -8.5 2t-0.5 9l147 759q1 7 0 8.5t-8 1.5h-100q-12 0 -9 10z" glyph-name="dagger" horiz-adv-x="373" unicode="†"/><glyph d="M136 367q4 25 25.5 43t47.5 18q25 0 39.5 -17.5t9.5 -43.5t-26.5 -43.5t-46.5 -17.5q-26 0 -40 18t-9 43z" glyph-name="bullet" horiz-adv-x="253" unicode="•"/><glyph d="M71 21q2 11 10.5 18t18.5 7q11 0 17 -7.5t4 -17.5q-2 -11 -11 -18t-19 -7q-11 0 -16.5 7.5t-3.5 17.5z" glyph-name="onedotenleader" horiz-adv-x="184" unicode="․"/><glyph d="M71 21q2 11 10.5 18t18.5 7q11 0 17 -7.5t4 -17.5q-2 -11 -11 -18t-19 -7q-11 0 -16.5 7.5t-3.5 17.5zM255 21q2 11 10.5 18t18.5 7q11 0 17 -7.5t4 -17.5q-2 -11 -11 -18t-19 -7q-11 0 -16.5 7.5t-3.5 17.5z" glyph-name="twodotenleader" horiz-adv-x="368" unicode="‥"/><glyph d="M71 21q2 11 10.5 18t18.5 7q11 0 17 -7.5t4 -17.5q-2 -11 -11 -18t-19 -7q-11 0 -16.5 7.5t-3.5 17.5zM255 21q2 11 10.5 18t18.5 7q11 0 17 -7.5t4 -17.5q-2 -11 -11 -18t-19 -7q-11 0 -16.5 7.5t-3.5 17.5zM439 21q2 11 10.5 18t18.5 7q11 0 17 -7.5t4 -17.5 q-2 -11 -11 -18t-19 -7q-11 0 -16.5 7.5t-3.5 17.5z" glyph-name="ellipsis" horiz-adv-x="552" unicode="…"/><glyph d="M238 498q-41 0 -65.5 30.5t-16.5 71.5q8 43 44.5 73.5t77.5 30.5q43 0 67.5 -30.5t16.5 -73.5q-8 -41 -44.5 -71.5t-79.5 -30.5zM177 600q-7 -34 12 -57.5t53 -23.5t62.5 23.5t35.5 57.5t-12.5 58t-53.5 24t-62 -24t-35 -58zM432 -4q-41 0 -65.5 30.5t-16.5 71.5 q8 43 44.5 73.5t77.5 30.5q43 0 67.5 -30.5t16.5 -73.5q-8 -41 -44.5 -71.5t-79.5 -30.5zM371 98q-7 -34 12 -57.5t53 -23.5t62.5 23.5t35.5 57.5q6 34 -13.5 58t-53.5 24t-62 -24t-34 -58zM144 19l403 662q8 13 11.5 16t12.5 3q4 0 5.5 -0.5t1.5 -2.5t-1.5 -5.5t-5.5 -10.5 l-403 -662q-8 -13 -11 -16t-12 -3q-5 0 -6.5 1t-0.5 5.5t6 12.5zM691 -4q-41 0 -65.5 30.5t-16.5 71.5q8 43 44.5 73.5t77.5 30.5q43 0 67.5 -30.5t16.5 -73.5q-8 -41 -44.5 -71.5t-79.5 -30.5zM630 98q-7 -34 12 -57.5t53 -23.5t62.5 23.5t35.5 57.5q6 34 -13.5 58 t-53.5 24t-62 -24t-34 -58z" glyph-name="perthousand" horiz-adv-x="836" unicode="‰"/><glyph d="M126 239q-9 11 4 22l183 149q7 5 11.5 3t2.5 -9q-2 -9 -14 -19l-159 -129q-7 -6 -2 -12l109 -129q8 -10 6 -19q-2 -7 -6.5 -9t-9.5 3z" glyph-name="guilsinglleft" horiz-adv-x="299" unicode="‹"/><glyph d="M265 239l-183 -149q-6 -5 -11 -3t-3 9q2 9 14 19l159 129q7 6 2 12l-109 129q-8 10 -6 19q2 7 6.5 9t9.5 -3l125 -149q9 -11 -4 -22z" glyph-name="guilsinglright" horiz-adv-x="299" unicode="›"/><glyph d="M91 21q2 11 10.5 18t18.5 7q11 0 17 -7.5t4 -17.5q-2 -11 -11 -18t-19 -7q-11 0 -16.5 7.5t-3.5 17.5zM142 157q-9 0 -5 20l93 503q2 12 5.5 16t12.5 4t11 -4.5t-1 -15.5l-103 -503q-4 -20 -13 -20zM240 21q2 11 10.5 18t18.5 7q11 0 17 -7.5t4 -17.5q-2 -11 -11 -18 t-19 -7q-11 0 -16.5 7.5t-3.5 17.5zM291 157q-9 0 -5 20l93 503q2 12 5.5 16t12.5 4t11 -4.5t-1 -15.5l-103 -503q-4 -20 -13 -20z" glyph-name="exclamdbl" horiz-adv-x="363" unicode="‼"/><glyph d="M105 220l274 657q6 15 8.5 18.5t8.5 3.5h2q10 0 2 -20l-273 -657q-6 -14 -9 -18t-9 -4h-2q-10 0 -2 20z" glyph-name="fraction" horiz-adv-x="293" unicode="⁄"/><glyph d="M381 575l-6 -34q-12 -62 -47 -94.5t-83 -32.5q-49 0 -70.5 32.5t-9.5 94.5l6 34q12 62 47 94.5t83 32.5q49 0 70.5 -32.5t9.5 -94.5zM248 432q85 0 107 109l6 34q22 109 -64 109q-84 0 -106 -109l-6 -34q-22 -109 63 -109z" glyph-name="zerosuperior" horiz-adv-x="330" unicode="⁰"/><glyph d="M283 662l-129 -148q-3 -4 1 -4h97q5 0 6 4l29 148q0 4 -4 0zM260 424q-1 -8 -10 -8h-3q-7 0 -6 8l12 64q1 4 -4 4h-116q-7 0 -6 8q1 10 6 15l156 179q5 6 12 6h5q7 0 6 -8l-35 -178q-1 -3 0 -3.5t5 -0.5h10q8 0 6 -10q-1 -8 -10 -8h-11q-4 0 -5 -4z" glyph-name="foursuperior" horiz-adv-x="256" unicode="⁴"/><glyph d="M233 603q36 0 56 -25t11 -73q-9 -43 -38.5 -67t-65.5 -24q-42 0 -58 25q-4 6 2 11q8 7 12 1q16 -19 47 -19q29 0 52 19.5t30 55.5q7 38 -8 58.5t-44 20.5h-46q-7 0 -6 8l19 98q1 8 10 8h110q7 0 6 -9q-1 -8 -10 -8h-89q-8 0 -10 -9l-13 -63q-1 -8 7 -8h26z" glyph-name="fivesuperior" horiz-adv-x="252" unicode="⁵"/><glyph d="M298 685q-39 0 -72.5 -28.5t-44.5 -88.5q26 33 68 35q35 1 52 -24.5t8 -73.5q-9 -44 -35.5 -67.5t-61.5 -23.5t-52.5 23.5t-9.5 67.5l13 70q12 61 50 94t88 33h2q9 0 6 -9q-3 -8 -9 -8h-2zM215 432q60 0 75 73q16 81 -45 81q-60 0 -76 -81q-7 -36 5.5 -54.5t40.5 -18.5z " glyph-name="sixsuperior" horiz-adv-x="263" unicode="⁶"/><glyph d="M141 424l151 254q3 5 -2 5h-120q-7 0 -6 9q1 8 10 8h136q7 0 6 -8l-1 -5q-2 -6 -4 -10l-149 -253q-4 -8 -11 -8h-5q-9 0 -5 8z" glyph-name="sevensuperior" horiz-adv-x="202" unicode="⁷"/><glyph d="M276 702q38 0 54 -21t10 -52q-8 -42 -44 -60q40 -20 29 -73q-7 -35 -34.5 -58.5t-68.5 -23.5q-44 0 -63.5 23.5t-12.5 58.5q11 53 57 73q-28 18 -20 60q6 31 30 52t63 21zM166 496q-6 -28 8.5 -46t49.5 -18q33 0 54 18t27 46q6 27 -8.5 45t-47.5 18q-35 0 -56 -18 t-27 -45zM203 629q-5 -24 7 -38.5t42 -14.5q57 0 68 53q4 24 -7.5 39.5t-39.5 15.5q-59 0 -70 -55z" glyph-name="eightsuperior" horiz-adv-x="279" unicode="⁸"/><glyph d="M161 431h20q39 0 72.5 28.5t44.5 88.5q-26 -33 -68 -35q-35 -1 -52 24.5t-8 73.5q9 44 35.5 67.5t61.5 23.5t52.5 -23.5t9.5 -67.5l-13 -70q-12 -61 -50 -94t-88 -33h-20q-9 0 -6 9q3 8 9 8zM263 684q-59 0 -74 -73q-16 -81 45 -81q60 0 76 81q7 36 -6 54.5t-41 18.5z " glyph-name="ninesuperior" horiz-adv-x="263" unicode="⁹"/><glyph d="M213 678l-46 -239q-10 -47 24 -50q11 -1 7 -13q-3 -9 -11 -8q-29 3 -39 19.5t-3 51.5l46 238q14 69 70 72q10 0 7 -9q-2 -8 -4 -10t-7 -2q-33 -2 -44 -50z" glyph-name="parenleftsuperior" horiz-adv-x="185" unicode="⁽"/><glyph d="M183 438l46 239q11 50 -25 50q-8 0 -6 12q1 9 10 9q56 0 42 -72l-46 -238q-12 -64 -70 -71q-6 -1 -7 1.5t0 8.5q1 7 3.5 8.5t7.5 2.5q35 4 45 50z" glyph-name="parenrightsuperior" horiz-adv-x="185" unicode="⁾"/><glyph d="M273 17l-7 -34q-12 -62 -46.5 -94.5t-82.5 -32.5t-70.5 32.5t-10.5 94.5l7 34q12 62 46.5 94.5t82.5 32.5t70.5 -32.5t10.5 -94.5zM140 -126q85 0 106 109l7 34q21 109 -64 109t-106 -109l-7 -34q-21 -109 64 -109z" glyph-name="zeroinferior" horiz-adv-x="330" unicode="₀"/><glyph d="M48 81l68 57q4 3 9 3h3q7 0 6 -8l-52 -268q-1 -8 -10 -8h-4q-7 0 -6 8l48 246l-51 -43q-7 -6 -13 2q-5 6 2 11z" glyph-name="oneinferior" horiz-adv-x="210" unicode="₁"/><glyph d="M149 144q29 0 46 -19t11 -48q-5 -22 -28.5 -45t-49.5 -39.5t-50 -42t-29 -53.5l-3 -13q-1 -6 0.5 -7.5t7.5 -1.5h107q7 0 6 -9q-1 -8 -10 -8h-127q-8 0 -7 8l7 35q5 28 29.5 55t50.5 44.5t49.5 38.5t27.5 38q5 22 -8.5 35.5t-35.5 13.5t-46 -19q-7 -5 -12 1q-4 6 2 11 q26 25 62 25z" glyph-name="twoinferior" horiz-adv-x="244" unicode="₂"/><glyph d="M175 -59q5 24 -4.5 41.5t-31.5 17.5q-8 0 -6 11q1 8 10 8q20 0 34 15t17 35q6 26 -9 41.5t-40 15.5q-26 0 -49 -20q-7 -6 -13 2q-4 5 2 11q26 25 64 25q33 0 52.5 -20t12.5 -55q-7 -37 -41 -59q31 -25 21 -69q-7 -40 -36 -62.5t-65 -22.5q-40 0 -61 28q-4 7 4 13 q7 6 12 0q18 -23 48 -23q28 0 50.5 18t28.5 49z" glyph-name="threeinferior" horiz-adv-x="258" unicode="₃"/><glyph d="M174 103l-129 -148q-3 -4 1 -4h97q5 0 6 4l29 148q0 4 -4 0zM151 -135q-1 -8 -10 -8h-3q-7 0 -6 8l12 64q1 4 -4 4h-116q-7 0 -6 8q2 11 6 15l156 179q5 6 12 6h5q7 0 6 -8l-35 -178q-1 -3 0.5 -3.5t4.5 -0.5h10q9 0 6 -10q-1 -8 -10 -8h-11q-4 0 -5 -4z" glyph-name="fourinferior" horiz-adv-x="254" unicode="₄"/><glyph d="M124 44q36 0 56 -25t11 -73q-9 -43 -38.5 -67t-65.5 -24q-42 0 -58 25q-4 6 2 11q8 7 12 1q16 -19 47 -19q29 0 52 19.5t30 55.5q7 38 -8 58.5t-44 20.5h-46q-7 0 -6 8l19 98q1 8 10 8h110q7 0 6 -9q-1 -8 -10 -8h-89q-8 0 -10 -9l-13 -63q-1 -8 7 -8h26z" glyph-name="fiveinferior" horiz-adv-x="252" unicode="₅"/><glyph d="M190 127q-39 0 -72.5 -28.5t-44.5 -88.5q26 33 68 35q35 1 52 -24.5t8 -73.5q-9 -44 -35.5 -67.5t-61.5 -23.5t-52.5 23.5t-9.5 67.5l13 70q12 61 50 94t88 33h2q9 0 6 -9q-3 -8 -9 -8h-2zM107 -126q60 0 75 73q16 81 -45 81q-60 0 -76 -81q-7 -36 5.5 -54.5t40.5 -18.5z " glyph-name="sixinferior" horiz-adv-x="264" unicode="₆"/><glyph d="M32 -135l151 254q3 5 -2 5h-120q-7 0 -6 9q1 8 10 8h136q7 0 6 -8l-1 -5q-2 -6 -4 -10l-149 -253q-4 -8 -11 -8h-5q-9 0 -5 8z" glyph-name="seveninferior" horiz-adv-x="212" unicode="₇"/><glyph d="M167 144q38 0 54 -21t10 -52q-8 -42 -44 -60q40 -20 29 -73q-7 -35 -34.5 -58.5t-68.5 -23.5q-44 0 -63.5 23.5t-12.5 58.5q11 53 57 73q-28 18 -20 60q6 31 30 52t63 21zM57 -62q-6 -28 8.5 -46t49.5 -18q33 0 54 18t27 46q6 27 -8.5 45t-47.5 18q-35 0 -56 -18t-27 -45 zM94 71q-5 -24 7 -38.5t42 -14.5q57 0 68 53q4 24 -7.5 39.5t-39.5 15.5q-59 0 -70 -55z" glyph-name="eightinferior" horiz-adv-x="279" unicode="₈"/><glyph d="M53 -127h20q39 0 72.5 28.5t44.5 88.5q-26 -33 -68 -35q-35 -1 -52 24.5t-8 73.5q9 44 35.5 67.5t61.5 23.5t52.5 -23.5t9.5 -67.5l-13 -70q-12 -61 -50 -94t-88 -33h-20q-9 0 -6 9q3 8 9 8zM155 126q-59 0 -74 -73q-16 -81 45 -81q60 0 76 81q7 36 -6 54.5t-41 18.5z " glyph-name="nineinferior" horiz-adv-x="264" unicode="₉"/><glyph d="M105 120l-46 -239q-10 -47 24 -50q11 -1 7 -13q-3 -9 -11 -8q-29 3 -39 19.5t-3 51.5l46 238q14 69 70 72q10 0 7 -9q-2 -8 -4 -10t-7 -2q-33 -2 -44 -50z" glyph-name="parenleftinferior" horiz-adv-x="185" unicode="₍"/><glyph d="M75 -119l46 239q11 50 -25 50q-8 0 -6 12q1 9 10 9q56 0 42 -72l-46 -238q-12 -64 -70 -71q-6 -1 -7 1.5t0 8.5q1 7 3.5 8.5t7.5 2.5q35 4 45 50z" glyph-name="parenrightinferior" horiz-adv-x="185" unicode="₎"/><glyph d="M134 481q2 10 13 10h54q10 0 12 10l36 188q2 11 14 11q7 0 8.5 -2t-0.5 -9l-36 -188q-1 -7 0 -8.5t8 -1.5h158q7 0 8.5 -2t0.5 -8q-2 -10 -13 -10h-158q-10 0 -12 -10l-12 -63q-1 -7 0 -8.5t8 -1.5h158q7 0 8.5 -2t0.5 -8q-2 -10 -13 -10h-158q-10 0 -12 -10l-64 -328 q-1 -7 0 -8.5t8 -1.5h265q12 0 9 -10q-1 -4 -2 -6t-3 -3t-7 -1h-286q-7 0 -8.5 2t-0.5 9l67 347q1 7 0 8.5t-8 1.5h-54q-7 0 -8.5 2t-0.5 8q2 10 13 10h54q10 0 12 10l12 63q1 7 0 8.5t-8 1.5h-54q-7 0 -8.5 2t-0.5 8z" glyph-name="lira" horiz-adv-x="458" unicode="₤"/><glyph d="M185 410q6 0 8 1.5t4 8.5q25 100 78.5 166.5t115.5 93t134 24.5q115 -3 167 -89q5 -8 -5 -16q-9 -7 -13 0q-49 82 -153 85q-101 3 -185.5 -61t-115.5 -203q-1 -7 0 -8.5t8 -1.5h210q12 0 9 -10t-13 -10h-211q-10 0 -12 -10l-11 -60q-1 -7 0 -8.5t8 -1.5h211q7 0 8.5 -2 t0.5 -8q-2 -10 -13 -10h-210q-11 0 -12 -10q-10 -72 2 -125.5t41.5 -83t68.5 -43.5t87 -12q105 3 185 85q7 7 13 0q8 -7 -1 -16q-86 -86 -201 -89q-112 -2 -173 66.5t-45 217.5q1 7 0 8.5t-8 1.5h-53q-7 0 -8.5 2t-0.5 8q2 10 13 10h53q10 0 12 10l11 60q1 7 0 8.5t-8 1.5 h-53q-12 0 -9 10t13 10h53z" glyph-name="Euro" horiz-adv-x="636" unicode="€"/><glyph d="M1105 537l-9 -47q-16 -80 -66.5 -123.5t-114.5 -43.5t-97.5 44t-17.5 123l9 47q15 79 65.5 123t114.5 44t97.5 -44t18.5 -123zM918 344q57 0 100 37.5t57 109.5l8 43q14 72 -14 110t-85 38q-56 0 -98.5 -38t-56.5 -110l-8 -43q-14 -72 13.5 -109.5t83.5 -37.5zM558 9 l-287 634q-1 4 -4.5 3t-4.5 -6l-122 -629q-2 -11 -13 -11q-7 0 -8.5 2t-0.5 9l131 678q2 11 14 11q7 0 11 -9l287 -634q1 -4 4.5 -3t4.5 6l122 629q2 11 14 11q7 0 8.5 -2t-0.5 -9l-131 -678q-2 -11 -13 -11q-7 0 -12 9zM746 211q2 11 13 11h274q7 0 8.5 -2t0.5 -9 q-2 -11 -14 -11h-274q-7 0 -8.5 2t0.5 9z" glyph-name="afii61352" horiz-adv-x="1068" unicode="№"/><glyph d="M480 416q-6 0 -7 6l-35 216q-2 4 -5 0l-60 -212q-3 -10 -9 -10h-3q-9 0 -6 10l74 266q3 8 10 8q6 0 7 -5l40 -246q2 -7 6 -1l136 247q3 5 9 5t6 -8l-30 -266q-2 -10 -10 -10h-3q-6 0 -5 10l24 212q-1 4 -5 0l-119 -216q-4 -6 -11 -6h-4zM184 691q1 9 9 9h164q6 0 5 -8 q-1 -9 -9 -9h-64q-9 0 -10 -7l-49 -252q-1 -8 -10 -8h-1q-8 0 -7 8l49 252q1 5 -0.5 6t-6.5 1h-65q-6 0 -5 8z" glyph-name="trademark" horiz-adv-x="586" unicode="™"/><glyph d="M224 20l274 658q6 14 9 18t9 4h2q10 0 2 -20l-274 -658q-12 -21 -17 -22h-2q-11 0 -3 20zM184 616l95 79q6 5 16 5q4 0 5.5 -0.5t2 -3t-0.5 -6.5l-74 -379q-2 -10 -12 -10q-7 0 -8.5 2t0.5 8l70 361l-83 -70q-9 -7 -14 0t3 14zM564 401q44 1 72.5 -27t18.5 -79 q-9 -50 -58 -82q46 -36 34 -97q-11 -56 -52.5 -88t-91.5 -30q-55 2 -83 34q-8 9 1 16q8 7 14 -2q23 -28 72 -29q44 -2 77 24.5t43 74.5q7 36 -9 61t-50 25q-10 0 -9 10q1 11 13 11q31 0 52 21t27 51q9 43 -13 65.5t-61 21.5q-42 -2 -71 -26q-11 -8 -16 -2q-5 7 5 16 q37 29 85 31z" glyph-name="onethird" horiz-adv-x="669" unicode="⅓"/><glyph d="M289 20l274 658q6 14 9 18t9 4h2q10 0 2 -20l-274 -658q-12 -21 -17 -22h-2q-11 0 -3 20zM136 301q-10 0 -9 11l10 53q8 39 41 76t68.5 60t68 53t38.5 57q8 34 -9.5 54t-51.5 20q-36 0 -70 -29q-10 -9 -15 -2q-6 7 5 16q41 34 85 34q41 0 63 -26t12 -67q-8 -32 -40.5 -64 t-67.5 -55t-67.5 -58.5t-40.5 -73.5l-5 -27q-2 -6 -1 -8.5t2.5 -3t8.5 -0.5h148q7 0 8.5 -2t0.5 -8q-2 -10 -13 -10h-169zM629 401q44 1 72.5 -27t18.5 -79q-9 -50 -58 -82q46 -36 34 -97q-11 -56 -52.5 -88t-91.5 -30q-55 2 -83 34q-8 9 1 16q8 7 14 -2q23 -28 72 -29 q44 -2 77 24.5t43 74.5q7 36 -9 61t-50 25q-12 0 -9 10q1 11 13 11q31 0 52 21t27 51q9 43 -13 65.5t-61 21.5q-42 -2 -71 -26q-11 -8 -16 -2q-5 7 5 16q37 29 85 31z" glyph-name="twothirds" horiz-adv-x="734" unicode="⅔"/><glyph d="M468 305q8 41 42.5 69.5t77.5 28.5q44 0 68 -28.5t16 -69.5q-6 -29 -27 -53t-50 -36q31 -12 46.5 -40.5t8.5 -64.5q-9 -47 -49.5 -80t-91.5 -33t-78 32.5t-18 80.5q7 36 32.5 64.5t61.5 40.5q-23 12 -34 36t-5 53zM431 111q-8 -39 16 -67t66 -28t76.5 28t42.5 67 t-16 67.5t-66 28.5t-76.5 -28.5t-42.5 -67.5zM485 305q-7 -35 12 -58t56 -23q38 0 66.5 23t35.5 58t-13.5 57.5t-57.5 22.5q-36 0 -64 -22.5t-35 -57.5zM224 20l274 658q6 14 9 18t9 4h2q10 0 2 -20l-274 -658q-12 -21 -17 -22h-2q-11 0 -3 20zM184 616l95 79q6 5 14 5 q10 0 8 -11l-73 -377q-1 -11 -11 -11t-9 11l70 360l-83 -70q-9 -7 -14 0q-6 7 3 14z" glyph-name="oneeighth" horiz-adv-x="696" unicode="⅛"/><glyph d="M117 219l3 17q21 108 83 165.5t147 57.5q60 0 96.5 -31t44.5 -88l10 56q13 82 4.5 137t-40 88.5t-70 48t-85.5 14.5q-12 0 -9 10t13 10q122 0 180 -80.5t29 -230.5l-34 -174q-21 -108 -82.5 -165.5t-146.5 -57.5q-86 0 -125 57.5t-18 165.5zM264 16q73 0 128 50t73 143 l7 37q18 93 -17.5 143t-108.5 50t-128.5 -50t-73.5 -143l-7 -37q-18 -93 18 -143t109 -50z" glyph-name="partialdiff" horiz-adv-x="522" unicode="∂"/><glyph d="M121 369q2 11 13 11h318q7 0 8.5 -2t0.5 -9q-2 -11 -13 -11h-318q-7 0 -8.5 2t-0.5 9z" glyph-name="minus" horiz-adv-x="440" unicode="−"/><glyph d="M263 487q34 0 88.5 -34t87.5 -33q50 2 93 59q6 9 14 4q8 -4 1 -14q-50 -68 -116 -68q-34 0 -88 34t-87 33q-50 -2 -93 -59q-7 -9 -15 -4q-7 5 0 14q50 68 115 68zM234 330q34 0 88.5 -34t87.5 -33q50 2 93 59q6 9 14 4q8 -4 1 -14q-50 -68 -116 -68q-34 0 -88 34t-87 33 q-50 -2 -93 -59q-7 -9 -15 -4q-7 5 0 14q50 68 115 68z" glyph-name="approxequal" horiz-adv-x="525" unicode="≈"/><glyph d="M165 -98q2 12 12.5 19t19.5 6q35 -4 16 -56q-15 -41 -50 -76q-8 -8 -12 -4q-3 3 2 11q11 14 16 21t13 21t7 22.5t-10 11.5q-17 6 -14 24zM79 54q67 -39 139 -39q64 0 108 33t50 86q4 34 -19.5 59t-58.5 41.5l-70 33t-58 43t-20 62.5q5 57 51 94t112 37q63 0 119 -33 q8 -5 3 -14t-15 -3q-54 31 -110 31q-59 1 -96.5 -31t-42.5 -77q-3 -32 20.5 -56t58.5 -40.5t70 -33.5t57.5 -45.5t18.5 -67.5q-8 -60 -57.5 -99t-123.5 -39q-82 0 -149 40q-8 5 -3 15q5 9 16 3z" glyph-name="scommaaccent" horiz-adv-x="438"/><glyph d="M392 0q-10 0 -8 11l9 46q-30 -27 -72.5 -44t-83.5 -17q-73 0 -114 47t-27 117q13 70 72 116.5t132 46.5q41 0 77 -17.5t55 -43.5l15 76q13 69 -22.5 108t-93.5 39q-69 0 -127 -50q-10 -8 -15 -2q-5 7 4 15q61 56 141 56q68 0 107.5 -46t25.5 -123l-63 -324 q-2 -11 -12 -11zM116 160q-12 -61 23 -103t102 -42q85 0 155 60l33 169q-46 60 -131 60q-67 0 -119 -41.5t-63 -102.5z" glyph-name="a.salt" horiz-adv-x="488"/><glyph d="M392 0q-10 0 -8 11l9 46q-30 -27 -72.5 -44t-83.5 -17q-73 0 -114 47t-27 117q13 70 72 116.5t132 46.5q41 0 77 -17.5t55 -43.5l15 76q13 69 -22.5 108t-93.5 39q-69 0 -127 -50q-10 -8 -15 -2q-5 7 4 15q61 56 141 56q68 0 107.5 -46t25.5 -123l-63 -324 q-2 -11 -12 -11zM116 160q-12 -61 23 -103t102 -42q85 0 155 60l33 169q-46 60 -131 60q-67 0 -119 -41.5t-63 -102.5zM314 580q-11 -9 -16 -3t6 15l130 114q10 9 14 10t9 -6t4 -10t-12 -12z" glyph-name="aacute.salt" horiz-adv-x="488"/><glyph d="M392 0q-10 0 -8 11l9 46q-30 -27 -72.5 -44t-83.5 -17q-73 0 -114 47t-27 117q13 70 72 116.5t132 46.5q41 0 77 -17.5t55 -43.5l15 76q13 69 -22.5 108t-93.5 39q-69 0 -127 -50q-10 -8 -15 -2q-5 7 4 15q61 56 141 56q68 0 107.5 -46t25.5 -123l-63 -324 q-2 -11 -12 -11zM116 160q-12 -61 23 -103t102 -42q85 0 155 60l33 169q-46 60 -131 60q-67 0 -119 -41.5t-63 -102.5zM364 574q-42 0 -67 27t-19 80q2 17 13 17q7 0 8.5 -2.5t-0.5 -14.5q-5 -39 13.5 -63t55.5 -24t65 24t38 63q3 12 5.5 14.5t10.5 2.5q10 0 5 -17 q-13 -53 -49 -80t-79 -27z" glyph-name="abreve.salt" horiz-adv-x="488"/><glyph d="M392 0q-10 0 -8 11l9 46q-30 -27 -72.5 -44t-83.5 -17q-73 0 -114 47t-27 117q13 70 72 116.5t132 46.5q41 0 77 -17.5t55 -43.5l15 76q13 69 -22.5 108t-93.5 39q-69 0 -127 -50q-10 -8 -15 -2q-5 7 4 15q61 56 141 56q68 0 107.5 -46t25.5 -123l-63 -324 q-2 -11 -12 -11zM116 160q-12 -61 23 -103t102 -42q85 0 155 60l33 169q-46 60 -131 60q-67 0 -119 -41.5t-63 -102.5zM381 677l-108 -94q-10 -9 -13 -9.5t-10 5.5q-4 7 -3 10t12 12l124 100q7 5 12 0l86 -100q7 -9 7 -12t-8 -10q-8 -6 -11 -5.5t-10 9.5l-70 94q-3 5 -8 0z " glyph-name="acircumflex.salt" horiz-adv-x="488"/><glyph d="M392 0q-10 0 -8 11l9 46q-30 -27 -72.5 -44t-83.5 -17q-73 0 -114 47t-27 117q13 70 72 116.5t132 46.5q41 0 77 -17.5t55 -43.5l15 76q13 69 -22.5 108t-93.5 39q-69 0 -127 -50q-10 -8 -15 -2q-5 7 4 15q61 56 141 56q68 0 107.5 -46t25.5 -123l-63 -324 q-2 -11 -12 -11zM116 160q-12 -61 23 -103t102 -42q85 0 155 60l33 169q-46 60 -131 60q-67 0 -119 -41.5t-63 -102.5zM410 598q2 10 10.5 17t18.5 7t15.5 -7.5t3.5 -16.5q-6 -24 -28 -24q-10 0 -16 7t-4 17zM280 598q2 10 10.5 17t18.5 7t15.5 -7t3.5 -17q-1 -10 -9.5 -17 t-18.5 -7t-16 7t-4 17z" glyph-name="adieresis.salt" horiz-adv-x="488"/><glyph d="M392 0q-10 0 -8 11l9 46q-30 -27 -72.5 -44t-83.5 -17q-73 0 -114 47t-27 117q13 70 72 116.5t132 46.5q41 0 77 -17.5t55 -43.5l15 76q13 69 -22.5 108t-93.5 39q-69 0 -127 -50q-10 -8 -15 -2q-5 7 4 15q61 56 141 56q68 0 107.5 -46t25.5 -123l-63 -324 q-2 -11 -12 -11zM116 160q-12 -61 23 -103t102 -42q85 0 155 60l33 169q-46 60 -131 60q-67 0 -119 -41.5t-63 -102.5zM421 580l-93 108q-7 9 -7 12t7 10q9 6 12 5.5t9 -9.5l86 -114q7 -9 0 -15t-14 3z" glyph-name="agrave.salt" horiz-adv-x="488"/><glyph d="M392 0q-10 0 -8 11l9 46q-30 -27 -72.5 -44t-83.5 -17q-73 0 -114 47t-27 117q13 70 72 116.5t132 46.5q41 0 77 -17.5t55 -43.5l15 76q13 69 -22.5 108t-93.5 39q-69 0 -127 -50q-10 -8 -15 -2q-5 7 4 15q61 56 141 56q68 0 107.5 -46t25.5 -123l-63 -324 q-2 -11 -12 -11zM116 160q-12 -61 23 -103t102 -42q85 0 155 60l33 169q-46 60 -131 60q-67 0 -119 -41.5t-63 -102.5zM264 578q-7 0 -8.5 2t-0.5 9q2 11 13 11h205q7 0 8.5 -2t0.5 -9q-2 -11 -13 -11h-205z" glyph-name="amacron.salt" horiz-adv-x="488"/><glyph d="M392 0q-27 -8 -45 -30t-21.5 -45t11 -43t45.5 -26q11 -2 7 -14q-4 -10 -18 -8q-36 6 -53.5 30t-14.5 53t24.5 56.5t56.5 39.5l9 44q-30 -27 -72.5 -44t-83.5 -17q-73 0 -114 47t-27 117q13 70 72 116.5t132 46.5q41 0 77 -17.5t55 -43.5l15 76q13 69 -22.5 108t-93.5 39 q-69 0 -127 -50q-10 -8 -15 -2q-5 7 4 15q61 56 141 56q68 0 107.5 -46t25.5 -123l-63 -324q-2 -11 -12 -11zM116 160q-12 -61 23 -103t102 -42q85 0 155 60l33 169q-46 60 -131 60q-67 0 -119 -41.5t-63 -102.5z" glyph-name="aogonek.salt" horiz-adv-x="488"/><glyph d="M392 0q-10 0 -8 11l9 46q-30 -27 -72.5 -44t-83.5 -17q-73 0 -114 47t-27 117q13 70 72 116.5t132 46.5q41 0 77 -17.5t55 -43.5l15 76q13 69 -22.5 108t-93.5 39q-69 0 -127 -50q-10 -8 -15 -2q-5 7 4 15q61 56 141 56q68 0 107.5 -46t25.5 -123l-63 -324 q-2 -11 -12 -11zM116 160q-12 -61 23 -103t102 -42q85 0 155 60l33 169q-46 60 -131 60q-67 0 -119 -41.5t-63 -102.5zM323 648q-5 -23 8.5 -39.5t36.5 -16.5t43 16.5t24 39.5q5 23 -8.5 39.5t-36.5 16.5t-43 -16.5t-24 -39.5zM305 648q6 31 31.5 52.5t56.5 21.5t48.5 -21.5 t11.5 -52.5t-32 -52.5t-57 -21.5t-48 21.5t-11 52.5z" glyph-name="aring.salt" horiz-adv-x="488"/><glyph d="M392 0q-10 0 -8 11l9 46q-30 -27 -72.5 -44t-83.5 -17q-73 0 -114 47t-27 117q13 70 72 116.5t132 46.5q41 0 77 -17.5t55 -43.5l15 76q13 69 -22.5 108t-93.5 39q-69 0 -127 -50q-10 -8 -15 -2q-5 7 4 15q61 56 141 56q68 0 107.5 -46t25.5 -123l-63 -324 q-2 -11 -12 -11zM116 160q-12 -61 23 -103t102 -42q85 0 155 60l33 169q-46 60 -131 60q-67 0 -119 -41.5t-63 -102.5zM424 574q-26 1 -57 27t-49 27q-33 2 -72 -44q-7 -9 -15 -4q-7 5 -1 14q44 56 91 54q23 -1 53.5 -27t52.5 -27q34 -1 72 44q8 10 16 4q6 -5 0 -14 q-43 -54 -91 -54z" glyph-name="atilde.salt" horiz-adv-x="488"/><glyph d="M400 0q-10 0 -8 11l8 41q-67 -53 -138 -56q-85 -3 -125 56t-19 167l12 62q21 108 83.5 167t146.5 56q69 -3 116 -57l9 42q2 11 12 11t8 -11l-93 -478q-2 -11 -12 -11zM152 292l-16 -84q-18 -94 19 -145t109 -48q76 3 140 60l68 350q-41 57 -116 60q-71 3 -128.5 -48 t-75.5 -145z" glyph-name="uni0430.salt"/><glyph d="M400 0q-10 0 -8 11l8 41q-67 -53 -138 -56q-86 -3 -125.5 56t-18.5 167l12 62q21 108 83.5 167t146.5 56q69 -3 116 -57l47 242q2 11 13 11q6 0 7.5 -2t-0.5 -9l-131 -678q-2 -11 -12 -11zM152 292l-16 -84q-18 -94 19 -145t109 -48q76 3 140 60l68 350q-41 57 -116 60 q-71 3 -128.5 -48t-75.5 -145z" glyph-name="d.salt"/><glyph d="M400 0q-10 0 -8 11l8 41q-67 -53 -138 -56q-86 -3 -125.5 56t-18.5 167l12 62q21 108 83.5 167t146.5 56q69 -3 116 -57l47 242q2 11 13 11q6 0 7.5 -2t-0.5 -9l-131 -678q-2 -11 -12 -11zM152 292l-16 -84q-18 -94 19 -145t109 -48q76 3 140 60l68 350q-41 57 -116 60 q-71 3 -128.5 -48t-75.5 -145zM655 729q2 12 12.5 19t19.5 6q35 -4 16 -56q-15 -41 -50 -76q-8 -8 -12 -4q-3 3 2 11q11 14 16 21t13 21t7 22.5t-10 11.5q-17 6 -14 24z" glyph-name="dcaron.salt" horiz-adv-x="588"/><glyph d="M506 601l17 88q2 11 13 11q6 0 7.5 -2t-0.5 -9l-17 -88q-1 -7 0 -8.5t8 -1.5h53q7 0 9 -2t1 -7q-3 -9 -13 -9h-53q-10 0 -12 -10l-108 -552q-2 -11 -12 -11t-8 11l9 41q-67 -53 -138 -56q-86 -3 -125.5 56t-18.5 167l12 62q21 108 83.5 167t146.5 56q69 -3 116 -57 l23 116q1 7 0 8.5t-8 1.5h-101q-12 0 -9 9t12 9h101q10 0 12 10zM152 292l-16 -84q-18 -94 19 -145t109 -48q76 3 140 60l68 350q-41 57 -116 60q-71 3 -128.5 -48t-75.5 -145z" glyph-name="dcroat.salt"/><glyph d="M139 320q15 77 79 130.5t140 53.5q53 0 91.5 -27.5t53.5 -73.5l17 86q2 11 12 11t8 -11l-35 -177q-17 -74 -80.5 -125t-137.5 -51q-56 0 -95 30q-35 -7 -59 -32t-30 -53q-6 -32 13 -58.5t60 -28.5h166q56 0 77.5 -28.5t13.5 -68.5q-11 -59 -72 -95.5t-145 -37.5 q-84 1 -131 37.5t-36 95.5q13 67 77 89q-26 14 -36.5 40t-5.5 55q6 32 30.5 60t60.5 40q-53 53 -36 139zM158 320q-13 -68 26 -116.5t107 -48.5t125.5 48.5t71.5 116.5q13 68 -26 116.5t-107 48.5t-126 -48.5t-71 -116.5zM220 -216q70 1 127 29.5t67 83.5q6 31 -10.5 54 t-64.5 23h-169q-46 -1 -71 -23.5t-31 -53.5q-10 -55 36 -83.5t116 -29.5z" glyph-name="g.salt" horiz-adv-x="518"/><glyph d="M139 320q15 77 79 130.5t140 53.5q53 0 91.5 -27.5t53.5 -73.5l17 86q2 11 12 11t8 -11l-35 -177q-17 -74 -80.5 -125t-137.5 -51q-56 0 -95 30q-35 -7 -59 -32t-30 -53q-6 -32 13 -58.5t60 -28.5h166q56 0 77.5 -28.5t13.5 -68.5q-11 -59 -72 -95.5t-145 -37.5 q-84 1 -131 37.5t-36 95.5q13 67 77 89q-26 14 -36.5 40t-5.5 55q6 32 30.5 60t60.5 40q-53 53 -36 139zM158 320q-13 -68 26 -116.5t107 -48.5t125.5 48.5t71.5 116.5q13 68 -26 116.5t-107 48.5t-126 -48.5t-71 -116.5zM220 -216q70 1 127 29.5t67 83.5q6 31 -10.5 54 t-64.5 23h-169q-46 -1 -71 -23.5t-31 -53.5q-10 -55 36 -83.5t116 -29.5zM373 574q-42 0 -67 27t-19 80q2 17 13 17q7 0 8.5 -2.5t-0.5 -14.5q-5 -39 13.5 -63t55.5 -24t65 24t38 63q3 12 5.5 14.5t10.5 2.5q10 0 5 -17q-13 -53 -49 -80t-79 -27z" glyph-name="gbreve.salt" horiz-adv-x="518"/><glyph d="M139 320q15 77 79 130.5t140 53.5q53 0 91.5 -27.5t53.5 -73.5l17 86q2 11 12 11t8 -11l-35 -177q-17 -74 -80.5 -125t-137.5 -51q-56 0 -95 30q-35 -7 -59 -32t-30 -53q-6 -32 13 -58.5t60 -28.5h166q56 0 77.5 -28.5t13.5 -68.5q-11 -59 -72 -95.5t-145 -37.5 q-84 1 -131 37.5t-36 95.5q13 67 77 89q-26 14 -36.5 40t-5.5 55q6 32 30.5 60t60.5 40q-53 53 -36 139zM158 320q-13 -68 26 -116.5t107 -48.5t125.5 48.5t71.5 116.5q13 68 -26 116.5t-107 48.5t-126 -48.5t-71 -116.5zM220 -216q70 1 127 29.5t67 83.5q6 31 -10.5 54 t-64.5 23h-169q-46 -1 -71 -23.5t-31 -53.5q-10 -55 36 -83.5t116 -29.5zM390 677l-108 -94q-10 -9 -13 -9.5t-10 5.5q-4 7 -3 10t12 12l124 100q7 5 12 0l86 -100q7 -9 7 -12t-8 -10q-8 -6 -11 -5.5t-10 9.5l-70 94q-3 5 -8 0z" glyph-name="gcircumflex.salt" horiz-adv-x="518"/><glyph d="M139 320q15 77 79 130.5t140 53.5q53 0 91.5 -27.5t53.5 -73.5l17 86q2 11 12 11t8 -11l-35 -177q-17 -74 -80.5 -125t-137.5 -51q-56 0 -95 30q-35 -7 -59 -32t-30 -53q-6 -32 13 -58.5t60 -28.5h166q56 0 77.5 -28.5t13.5 -68.5q-11 -59 -72 -95.5t-145 -37.5 q-84 1 -131 37.5t-36 95.5q13 67 77 89q-26 14 -36.5 40t-5.5 55q6 32 30.5 60t60.5 40q-53 53 -36 139zM158 320q-13 -68 26 -116.5t107 -48.5t125.5 48.5t71.5 116.5q13 68 -26 116.5t-107 48.5t-126 -48.5t-71 -116.5zM220 -216q70 1 127 29.5t67 83.5q6 31 -10.5 54 t-64.5 23h-169q-46 -1 -71 -23.5t-31 -53.5q-10 -55 36 -83.5t116 -29.5zM412 599q-2 -12 -12 -19t-20 -6q-34 3 -16 54q14 42 50 78q8 8 12 4q3 -3 -2 -11q-11 -14 -16 -21t-13 -21t-7 -22.5t10 -11.5q17 -6 14 -24z" glyph-name="gcommaaccent.salt" horiz-adv-x="518"/><glyph d="M139 320q15 77 79 130.5t140 53.5q53 0 91.5 -27.5t53.5 -73.5l17 86q2 11 12 11t8 -11l-35 -177q-17 -74 -80.5 -125t-137.5 -51q-56 0 -95 30q-35 -7 -59 -32t-30 -53q-6 -32 13 -58.5t60 -28.5h166q56 0 77.5 -28.5t13.5 -68.5q-11 -59 -72 -95.5t-145 -37.5 q-84 1 -131 37.5t-36 95.5q13 67 77 89q-26 14 -36.5 40t-5.5 55q6 32 30.5 60t60.5 40q-53 53 -36 139zM158 320q-13 -68 26 -116.5t107 -48.5t125.5 48.5t71.5 116.5q13 68 -26 116.5t-107 48.5t-126 -48.5t-71 -116.5zM220 -216q70 1 127 29.5t67 83.5q6 31 -10.5 54 t-64.5 23h-169q-46 -1 -71 -23.5t-31 -53.5q-10 -55 36 -83.5t116 -29.5zM354 598q2 10 10.5 17t18.5 7t15.5 -7t3.5 -17q-1 -10 -9.5 -17t-18.5 -7t-16 7t-4 17z" glyph-name="gdotaccent.salt" horiz-adv-x="518"/><glyph d="M106 0q-10 0 -8 11l131 678q2 11 13 11q6 0 7.5 -2t-0.5 -9l-131 -678q-2 -11 -12 -11z" glyph-name="l.salt" horiz-adv-x="212"/><glyph d="M106 0q-10 0 -8 11l131 678q2 11 13 11q6 0 7.5 -2t-0.5 -9l-131 -678q-2 -11 -12 -11zM204 780q-11 -9 -16 -3t6 15l130 114q10 9 14 10t9 -6t4 -10t-12 -12z" glyph-name="lacute.salt" horiz-adv-x="212"/><glyph d="M106 0q-10 0 -8 11l131 678q2 11 13 11q6 0 7.5 -2t-0.5 -9l-131 -678q-2 -11 -12 -11zM363 730q2 12 12.5 19t19.5 6q35 -4 16 -56q-15 -41 -50 -76q-8 -8 -12 -4q-3 3 2 11q11 14 16 21t13 21t7 22.5t-10 11.5q-17 6 -14 24z" glyph-name="lcaron.salt" horiz-adv-x="295"/><glyph d="M106 0q-10 0 -8 11l131 678q2 11 13 11q6 0 7.5 -2t-0.5 -9l-131 -678q-2 -11 -12 -11zM54 -96q2 12 12.5 19t19.5 6q35 -4 16 -56q-15 -41 -50 -76q-8 -8 -12 -4q-3 3 2 11q11 14 16 21t13 21t7 22.5t-10 11.5q-17 6 -14 24z" glyph-name="lcommaaccent.salt" horiz-adv-x="212"/><glyph d="M106 0q-10 0 -8 11l131 678q2 11 13 11q6 0 7.5 -2t-0.5 -9l-131 -678q-2 -11 -12 -11zM275 368q2 11 11 18t19 7q11 0 16.5 -7.5t3.5 -17.5q-2 -11 -11 -18t-19 -7q-11 0 -16.5 7.5t-3.5 17.5z" glyph-name="ldot.salt" horiz-adv-x="271"/><glyph d="M346 442l-107 -44l-75 -387q-2 -11 -12 -11t-8 11l73 378l-101 -41q-7 -3 -9 5t5 11l109 44l54 281q2 11 13 11q6 0 7.5 -2t-0.5 -9l-52 -272l100 41q7 3 9 -5t-6 -11z" glyph-name="lslash.salt" horiz-adv-x="304"/><glyph d="M218 7l-78 479q-3 14 10 14q5 0 7.5 -2t3.5 -9l73 -457q2 -10 8 0l251 457q5 11 15 11q12 0 4 -14l-357 -648q-57 -104 -144 -82q-8 2 -10 4.5t0 9.5q4 9 17 6q74 -18 123 72l70 128q9 17 7 31z" glyph-name="y.salt" horiz-adv-x="464"/><glyph d="M218 7l-78 479q-3 14 10 14q5 0 7.5 -2t3.5 -9l73 -457q2 -10 8 0l251 457q5 11 15 11q12 0 4 -14l-357 -648q-57 -104 -144 -82q-8 2 -10 4.5t0 9.5q4 9 17 6q74 -18 123 72l70 128q9 17 7 31zM292 580q-11 -9 -16 -3t6 15l130 114q10 9 14 10t9 -6t4 -10t-12 -12z" glyph-name="yacute.salt" horiz-adv-x="464"/><glyph d="M218 7l-78 479q-3 14 10 14q5 0 7.5 -2t3.5 -9l73 -457q2 -10 8 0l251 457q5 11 15 11q12 0 4 -14l-357 -648q-57 -104 -144 -82q-8 2 -10 4.5t0 9.5q4 9 17 6q74 -18 123 72l70 128q9 17 7 31zM359 677l-108 -94q-10 -9 -13 -9.5t-10 5.5q-4 7 -3 10t12 12l124 100 q7 5 12 0l86 -100q7 -9 7 -12t-8 -10q-8 -6 -11 -5.5t-10 9.5l-70 94q-3 5 -8 0z" glyph-name="ycircumflex.salt" horiz-adv-x="464"/><glyph d="M218 7l-78 479q-3 14 10 14q5 0 7.5 -2t3.5 -9l73 -457q2 -10 8 0l251 457q5 11 15 11q12 0 4 -14l-357 -648q-57 -104 -144 -82q-8 2 -10 4.5t0 9.5q4 9 17 6q74 -18 123 72l70 128q9 17 7 31zM388 598q2 10 10.5 17t18.5 7t15.5 -7.5t3.5 -16.5q-6 -24 -28 -24 q-10 0 -16 7t-4 17zM258 598q2 10 10.5 17t18.5 7t15.5 -7t3.5 -17q-1 -10 -9.5 -17t-18.5 -7t-16 7t-4 17z" glyph-name="ydieresis.salt" horiz-adv-x="464"/><glyph d="M218 7l-78 479q-3 14 10 14q5 0 7.5 -2t3.5 -9l73 -457q2 -10 8 0l251 457q5 11 15 11q12 0 4 -14l-357 -648q-57 -104 -144 -82q-8 2 -10 4.5t0 9.5q4 9 17 6q74 -18 123 72l70 128q9 17 7 31zM399 580l-93 108q-7 9 -7 12t7 10q9 6 12 5.5t9 -9.5l86 -114q7 -9 0 -15 t-14 3z" glyph-name="ygrave.salt" horiz-adv-x="464"/></font>
</defs>
</svg>
