<?xml version="1.0" standalone="no"?>
<!DOCTYPE svg PUBLIC "-//W3C//DTD SVG 1.1//EN" "http://www.w3.org/Graphics/SVG/1.1/DTD/svg11.dtd">
<svg xmlns="http://www.w3.org/2000/svg"><metadata>This SVG WebFont was generated by YouWorkForThem.
Copyright (c) 2014 by B\u0142 a\u017C ej Ostoja Lniski. All rights reserved.</metadata><defs><font horiz-adv-x="1036" id="ywftsvg"><font-face ascent="1434" bbox="-504.623 -598 2050 2563.08" cap-height="1434" descent="-614" font-family="" font-stretch="normal" font-weight="400" panose-1="0 0 0 0 0 0 0 0 0 0" underline-position="0" underline-thickness="0" unicode-range="U+0020-2248" units-per-em="2048" x-height="1024"/><missing-glyph d="M61 -598v2038h828v-2038h-828zM-469 2286q-18 -18 -30.5 -6t5.5 30l222 234q18 18 24 19t21 -11q12 -14 11 -20.5t-20 -24.5z" horiz-adv-x="950"/><glyph d="M61 -598v2038h828v-2038h-828zM-469 2286q-18 -18 -30.5 -6t5.5 30l222 234q18 18 24 19t21 -11q12 -14 11 -20.5t-20 -24.5z" glyph-name=".notdef" horiz-adv-x="950"/><glyph glyph-name="glyph1" horiz-adv-x="0"/><glyph glyph-name="glyph2" horiz-adv-x="681"/><glyph glyph-name="space" horiz-adv-x="411" unicode=" "/><glyph d="M178 43q0 23 15.5 37t36 14t36 -14t15.5 -37t-15.5 -37t-36 -14t-36 14t-15.5 37zM229.5 322q-18.5 0 -18.5 40l-10 1031q0 25 5 33t23.5 8t23.5 -8.5t5 -32.5l-10 -1031q0 -40 -18.5 -40z" glyph-name="exclam" horiz-adv-x="458" unicode="!"/><glyph d="M168 1497h4q33 0 29 -39l-21 -303q0 -6 -5 -9t-10 0t-5 9l-21 303q-4 39 29 39zM379 1497h4q33 0 29 -39l-21 -303q0 -6 -5 -9t-10 0t-5 9l-21 303q-4 39 29 39z" glyph-name="quotedbl" horiz-adv-x="550" unicode="&quot;"/><glyph d="M1407 588q23 0 23 -20.5t-23 -20.5h-416l-61 -508q-2 -27 -7 -33t-21 -6t-17.5 6t0.5 33l61 508h-319l-62 -508q-2 -27 -7 -33t-20 -6t-17.5 6t-0.5 33l62 508h-445q-23 0 -22.5 20.5t22.5 20.5h449l41 336h-434q-23 0 -23 20.5t23 20.5h440l51 430q2 27 7 33t21 6 t17.5 -6.5t-0.5 -32.5l-51 -430h319l52 430q2 27 7 33t20 6t17.5 -6.5t0.5 -32.5l-52 -430h420q23 0 23 -20.5t-23 -20.5h-426l-41 -336h412zM672 924l-41 -336h319l41 336h-319z" glyph-name="numbersign" horiz-adv-x="1599" unicode="#"/><glyph d="M537 35q162 0 264 97t102 238t-102.5 209t-178 106t-152.5 77t-182.5 112.5t-109.5 229.5q-4 127 83 222t255 112v116q0 14 4 18.5t18.5 4.5t18.5 -4t4 -19v-112h19q82 0 162.5 -22.5t119.5 -47.5l39 -22q18 -10 8 -30t-35 -5q-148 84 -312 84t-253.5 -89.5t-85.5 -195.5 t80 -184t182.5 -130t211 -104.5t178 -133.5t73.5 -189q0 -160 -110.5 -265.5t-276.5 -113.5v-115q0 -14 -4 -18t-18.5 -4t-18.5 4t-4 18v113q-221 8 -379 143q-20 17 -5 35t36 0q57 -53 154.5 -94t214.5 -41z" glyph-name="dollar" horiz-adv-x="1081" unicode="$"/><glyph d="M293 1020q-86 0 -148.5 62.5t-62.5 148.5t62.5 148.5t148.5 62.5t148.5 -62.5t62.5 -148.5t-62.5 -148.5t-148.5 -62.5zM125 1228.5q0 -69.5 48 -117.5t117.5 -48t119 48t49.5 117.5t-49.5 119t-119 49.5t-117.5 -49.5t-48 -119zM889 -8q-86 0 -148.5 62.5t-62.5 148.5 t62.5 148.5t148.5 62.5t148.5 -62.5t62.5 -148.5t-62.5 -148.5t-148.5 -62.5zM721 200.5q0 -69.5 48 -117.5t117.5 -48t119 48t49.5 117.5t-49.5 119t-119 49.5t-117.5 -49.5t-48 -119zM888 1434q16 0 18.5 -6.5t-7.5 -32.5l-561 -1356q-10 -27 -16.5 -33t-22.5 -6t-18 6 t8 33l561 1356q10 27 16 33t22 6z" glyph-name="percent" horiz-adv-x="1181" unicode="%"/><glyph d="M536 -8q-171 0 -282 104.5t-116 276.5t51.5 264t138.5 127q-76 31 -121 115.5t-38 234.5t103.5 237t231.5 91q178 6 307 -135q16 -18 2 -32.5t-31 1.5q-117 131 -276 125q-123 -4 -204 -84t-89 -217t50.5 -224.5t180.5 -91.5q20 0 20.5 -20.5t-20.5 -20.5 q-127 0 -197.5 -98t-64.5 -257t100.5 -257t252 -98t252 98t100.5 260v256q0 14 4 18.5t18 4.5h166q23 0 23 -20.5t-23 -20.5h-123q-14 0 -17 -3t-3 -18v-215q-6 -190 -115.5 -295.5t-280.5 -105.5z" glyph-name="ampersand" horiz-adv-x="1122" unicode="&amp;"/><glyph d="M170 1497h4q33 0 29 -39l-21 -303q0 -6 -5 -9t-10 0t-5 9l-21 303q-4 39 29 39z" glyph-name="quotesingle" horiz-adv-x="344" unicode="'"/><glyph d="M283 1333v-1241q0 -133 47 -187.5t143 -54.5h2q23 0 23 -20t-23 -20h-2q-236 0 -235 278v1249q0 279 235 279h2q23 0 23 -21t-23 -20h-2q-96 0 -143 -54.5t-47 -187.5z" glyph-name="parenleft" horiz-adv-x="612" unicode="("/><glyph d="M330 92v1241q0 133 -47 187.5t-144 54.5h-2q-23 0 -22 22q0 18 22 19h2q236 0 236 -279v-1249q0 -279 -236 -278h-2q-23 0 -22 18q0 23 22 22h2q96 0 143.5 54.5t47.5 187.5z" glyph-name="parenright" horiz-adv-x="612" unicode=")"/><glyph d="M125 1417q-23 0 -23 20.5t23 20.5h256l-182 182q-14 14 0 31t30 0l185 -186v260q0 23 20.5 22.5t20.5 -22.5v-260l184 186q16 16 30.5 0t0.5 -31l-185 -182h258q23 0 23 -20.5t-23 -20.5h-262l185 -184q16 -16 1.5 -30.5t-30.5 1.5l-182 180v-258q0 -23 -20.5 -22.5 t-20.5 22.5v258l-183 -180q-16 -16 -30.5 -1.5t2.5 30.5l182 184h-260z" glyph-name="asterisk" horiz-adv-x="868" unicode="*"/><glyph d="M471 797q0 -14 3 -17.5t18 -3.5h272q23 0 22.5 -20.5t-22.5 -20.5h-272q-14 0 -17.5 -3t-3.5 -17v-283q0 -23 -20.5 -22.5t-20.5 22.5v283q0 14 -3 17t-17 3h-273q-23 0 -22.5 20.5t22.5 20.5h273q14 0 17 3t3 18v282q0 23 20.5 23t20.5 -23v-282z" glyph-name="plus" horiz-adv-x="901" unicode="+"/><glyph d="M137 37q0 31 17.5 45t38.5 12q68 -12 56.5 -102t-75.5 -168q-12 -16 -22 -9t0 23q82 137 22 156q-37 12 -37 43z" glyph-name="comma" horiz-adv-x="389" unicode=","/><glyph d="M102 565.5q0 22.5 17 22.5h463q16 0 16 -22.5t-16 -22.5h-463q-17 0 -17 22.5z" glyph-name="hyphen" horiz-adv-x="700" unicode="-"/><glyph d="M137 43q0 23 15.5 37t36 14t36 -14t15.5 -37t-15.5 -37t-36 -14t-36 14t-15.5 37z" glyph-name="period" horiz-adv-x="376" unicode="."/><glyph d="M155 0q-15 0 -17.5 6t-0.5 33l164 1356q2 27 6.5 33t20.5 6t18 -6t0 -33l-164 -1356q-2 -27 -7 -33t-20 -6z" glyph-name="slash" horiz-adv-x="481" unicode="/"/><glyph d="M1167 784v-135q0 -330 -131 -493.5t-364.5 -163.5t-364.5 163.5t-131 493.5v135q0 330 131 494t364.5 164t364.5 -164t131 -494zM221 780v-127q0 -311 118 -465.5t333 -154.5t332.5 154.5t117.5 465.5v127q0 311 -117.5 466t-332.5 155t-333 -155t-118 -466z" glyph-name="zero" horiz-adv-x="1343" unicode="0"/><glyph d="M416 1434q14 0 18 -4.5t4 -18.5v-1388q0 -14 -4 -18.5t-18.5 -4.5t-18.5 4t-4 19v1349l-282 -287q-23 -23 -36 -9t-11 21t16 21l293 297q20 18 39 19h4z" glyph-name="one" horiz-adv-x="675" unicode="1"/><glyph d="M201 209v-148q0 -14 3 -17t17 -3h592q23 0 23 -20.5t-23 -20.5h-635q-14 0 -18 4t-4 19v194q0 117 61.5 223.5t149.5 186.5t238 207t157 286q4 119 -73 200t-210 81t-252 -125q-14 -18 -29 -3t1 34q123 135 273 135t244.5 -88t90.5 -234q-4 -173 -155.5 -302.5 t-239.5 -208.5t-149.5 -182t-61.5 -218z" glyph-name="two" horiz-adv-x="991" unicode="2"/><glyph d="M551 763.5q0 20.5 20 20.5q123 4 181.5 91.5t50.5 224.5t-89 217t-204 84q-160 6 -277 -125q-16 -16 -30.5 -2t2.5 33q129 141 307 135q135 -4 231.5 -91t103.5 -237t-38 -234.5t-121 -115.5q82 -35 138.5 -127.5t51.5 -264.5t-117 -278t-287 -101t-310 152q-16 18 -2 33 t31 -2q125 -137 285 -142t255 94t101 259t-65 258t-198 98q-20 0 -20 20.5z" glyph-name="three" horiz-adv-x="1054" unicode="3"/><glyph d="M109 412q-23 0 -23 24t16 49l627 926q13 23 29 23t20 -4.5t4 -18.5v-938q0 -14 3 -17t18 -3h74q23 0 22.5 -20.5t-22.5 -20.5h-74q-14 0 -17.5 -3t-3.5 -18v-368q0 -14 -4 -18.5t-18.5 -4.5t-18.5 4t-4 19v368q0 14 -3 17.5t-17 3.5h-608zM737 473v844q0 8 -6 10t-10 -6 l-574 -848q-14 -20 9 -20h561q14 0 17 3t3 17z" glyph-name="four" unicode="4"/><glyph d="M467 915q168 0 278.5 -107.5t116.5 -299.5v-109q-6 -193 -116.5 -300t-287.5 -107t-298 135q-14 16 0 30.5t30 -3.5q111 -121 271 -121t255 100t101 264v113q-6 164 -101 264t-251 100h-223q-14 0 -18.5 4.5t-4.5 18.5v514q0 14 4 18.5t19 4.5h532q23 0 23 -20.5 t-23 -20.5h-489q-14 0 -17.5 -3.5t-3.5 -17.5v-436q0 -14 3 -17.5t18 -3.5h182z" glyph-name="five" horiz-adv-x="1015" unicode="5"/><glyph d="M915 487v-38q0 -221 -103 -339t-277.5 -118t-277.5 117.5t-103 339.5v356q0 307 150.5 472t400.5 165q23 0 22.5 -20.5t-22.5 -20.5q-194 0 -306 -95.5t-156 -215t-44 -279.5v-111q39 117 126 180.5t210 63.5q174 0 277 -118t103 -339zM534.5 33q149.5 0 242.5 102.5 t93 292.5v80q0 190 -93 292.5t-242.5 102.5t-242.5 -102.5t-93 -292.5v-80q0 -190 93 -292.5t242.5 -102.5z" glyph-name="six" horiz-adv-x="1069" unicode="6"/><glyph d="M745 1393h-636q-23 0 -23 20.5t23 20.5h673q23 0 23 -21v-12q0 -25 -6 -41l-525 -1321q-13 -32 -19.5 -35.5t-19.5 -3.5t-14.5 6t8.5 33l531 1329q10 25 -15 25z" glyph-name="seven" horiz-adv-x="884" unicode="7"/><glyph d="M156 391q0 135 68.5 236.5t195.5 140.5q-106 39 -159.5 128t-53.5 215t91 228.5t273.5 102.5t273.5 -102.5t91 -228.5q0 -265 -215 -343q127 -39 196.5 -140.5t69.5 -236.5q0 -174 -109.5 -286.5t-306 -112.5t-306 112.5t-109.5 286.5zM572 745q-179 0 -275 -100 t-96 -253.5t96 -254t274.5 -100.5t274.5 100.5t96 252.5t-95.5 253.5t-274.5 101.5zM571.5 1397q-163.5 0 -241.5 -90t-78 -213t77 -213t241 -90t242.5 90t78.5 213t-78 213t-241.5 90z" glyph-name="eight" horiz-adv-x="1142" unicode="8"/><glyph d="M154 946v39q0 221 103 339t277.5 118t277.5 -118t103 -339v-356q0 -307 -150.5 -472t-399.5 -165h-99q-20 0 -20 20.5t20 20.5h99q195 0 306 95t155 215t44 280v110q-39 -117 -126 -180.5t-209 -63.5q-174 0 -277.5 118t-103.5 339zM534.5 1401q-149.5 0 -242.5 -102.5 t-93 -292.5v-80q0 -190 93 -293t242.5 -103t242.5 102.5t93 293.5v80q0 190 -93 292.5t-242.5 102.5z" glyph-name="nine" horiz-adv-x="1069" unicode="9"/><glyph d="M137 43q0 23 15.5 37t36 14t36 -14t15.5 -37t-15.5 -37t-36 -14t-36 14t-15.5 37zM137 661.5q0 22.5 15.5 37t36 14.5t36 -14.5t15.5 -37t-15.5 -37t-36 -14.5t-36 14.5t-15.5 37z" glyph-name="colon" horiz-adv-x="376" unicode=":"/><glyph d="M137 661.5q0 22.5 15.5 37t36 14.5t36 -14.5t15.5 -37t-15.5 -37t-36 -14.5t-36 14.5t-15.5 37zM137 37q0 31 17.5 45t38.5 12q68 -12 56.5 -102t-75.5 -168q-12 -16 -22 -9t0 23q82 137 22 156q-37 12 -37 43z" glyph-name="semicolon" horiz-adv-x="389" unicode=";"/><glyph d="M141 757.5q0 16.5 13 26.5l424 338q12 10 22 6t10 -18v-2q0 -25 -22 -41l-373 -297q-16 -12 0 -25l373 -296q23 -16 22 -41v-2q0 -14 -10 -18.5t-22 5.5l-424 338q-13 10 -13 26.5z" glyph-name="less" horiz-adv-x="712" unicode="&lt;"/><glyph d="M102 657.5q0 14.5 4.5 18.5t18.5 4h692q14 0 18.5 -4t4.5 -18.5t-4.5 -18.5t-18.5 -4h-692q-14 0 -18.5 4t-4.5 18.5zM102 854q0 14 4.5 18.5t18.5 4.5h692q14 0 18.5 -4.5t4.5 -18.5t-4.5 -18.5t-18.5 -4.5h-692q-14 0 -18.5 4.5t-4.5 18.5z" glyph-name="equal" horiz-adv-x="942" unicode="="/><glyph d="M571 757.5q0 -16.5 -12 -26.5l-424 -338q-12 -10 -22.5 -6t-10.5 19v2q0 25 23 41l373 296q16 12 0 25l-373 297q-23 16 -23 41v2q0 14 10.5 18.5t22.5 -6.5l424 -338q12 -10 12 -26.5z" glyph-name="greater" horiz-adv-x="712" unicode=">"/><glyph d="M375 430q0 208 75.5 298.5t153 179.5t80.5 210q4 121 -72.5 202t-208.5 81t-253 -125q-16 -16 -31 -2t2 33q123 135 273 135t244.5 -88t90.5 -234t-81 -229.5t-152.5 -175t-75.5 -285.5v-51q0 -14 -4 -18.5t-18.5 -4.5t-18.5 4.5t-4 18.5v51zM348 43q0 23 14.5 37t37 14 t37 -14t14.5 -37t-14.5 -37t-37 -14t-37 14t-14.5 37z" glyph-name="question" horiz-adv-x="864" unicode="?"/><glyph d="M721 575q0 221 104.5 342t278.5 115q141 -6 260 -117v86q0 23 20.5 23t20.5 -23v-966q0 -152 109.5 -172.5t238.5 96.5q221 203 221 541v8q0 365 -260 625t-624.5 260t-624.5 -260.5t-260 -625t260 -624.5t625 -260h4q23 0 22.5 -20.5t-22.5 -20.5h-4q-250 0 -464 124 t-338 338t-124 464t124 464t338 338t463.5 124t463.5 -124t338 -338t124 -464v-10q0 -317 -190 -525q-135 -145 -273 -152t-176 120q-10 31 -12 69v96q-118 -108 -276 -114t-262.5 114.5t-104.5 342.5v126zM762 598v-172q0 -193 96 -297t248 -98t258 123v716 q-106 117 -258 123t-248 -98t-96 -297z" glyph-name="at" horiz-adv-x="2193" unicode="@"/><glyph d="M624.5 1434q22.5 0 30.5 -23l484 -1388q8 -23 -17 -23t-32 23l-136 387q-6 18 -13 23t-28 5h-577q-20 0 -27.5 -5t-13.5 -23l-135 -387q-8 -23 -33 -23t-16 23l483 1388q8 23 30.5 23zM340 479h569q23 0 15 23l-287 831q-2 10 -12.5 10t-12.5 -10l-286 -831 q-8 -23 14 -23z" glyph-name="A" horiz-adv-x="1249" unicode="A"/><glyph d="M260 0q-14 0 -18 4t-4 19v1388q0 14 4 18.5t18 4.5h369q197 0 297 -99t100 -233q0 -273 -238 -344q143 -39 211 -144.5t68 -241.5t-104.5 -254t-325.5 -118h-377zM937.5 621q-84.5 110 -288.5 114h-346q-14 0 -17 -3t-3 -17v-654q0 -14 3 -17t17 -3h338q104 0 183 34 t138.5 114.5t59.5 201t-84.5 230.5zM283 797q0 -14 3 -17.5t17 -3.5h348q162 4 246 92t84 218t-88 218.5t-260 88.5h-330q-14 0 -17 -3.5t-3 -17.5v-575z" glyph-name="B" horiz-adv-x="1220" unicode="B"/><glyph d="M201 633q0 -307 143.5 -456.5t363.5 -143.5t353 174q12 14 28 -1t3 -32q-141 -176 -381 -182t-397.5 152.5t-157.5 484.5v176q0 326 157.5 484.5t397.5 152.5t381 -182q14 -16 -2 -32t-29 -1q-133 168 -352 174t-363.5 -143.5t-144.5 -456.5v-168z" glyph-name="C" horiz-adv-x="1226" unicode="C"/><glyph d="M1196 805v-176q0 -307 -153.5 -468t-413.5 -161h-369q-14 0 -18 4t-4 19v1388q0 14 4 18.5t18 4.5h369q260 0 413.5 -161t153.5 -468zM283 1372v-1311q0 -14 3 -17t17 -3h318q248 0 389 150.5t141 441.5v168q0 291 -141.5 441.5t-388.5 150.5h-318q-14 0 -17 -3.5 t-3 -17.5z" glyph-name="D" horiz-adv-x="1351" unicode="D"/><glyph d="M864 755.5q0 -20.5 -22 -20.5h-539q-14 0 -17 -3t-3 -17v-654q0 -14 3 -17t17 -3h641q23 0 23 -20.5t-23 -20.5h-684q-14 0 -18 4t-4 19v1388q0 14 4 18.5t18 4.5h684q23 0 23 -20.5t-23 -20.5h-641q-14 0 -17 -3.5t-3 -17.5v-575q0 -14 3 -17.5t17 -3.5h539 q22 0 22 -20.5z" glyph-name="E" horiz-adv-x="1114" unicode="E"/><glyph d="M864 755.5q0 -20.5 -22 -20.5h-539q-14 0 -17 -3t-3 -17v-692q0 -14 -4.5 -18.5t-18.5 -4.5t-18 4t-4 19v1388q0 14 4 18.5t18 4.5h684q23 0 23 -20.5t-23 -20.5h-641q-14 0 -17 -3.5t-3 -17.5v-575q0 -14 3 -17.5t17 -3.5h539q22 0 22 -20.5z" glyph-name="F" horiz-adv-x="1073" unicode="F"/><glyph d="M156 629v176q0 326 157.5 484.5t397.5 152.5t381 -182q14 -16 -2 -32t-29 -1q-133 168 -352 174t-363.5 -143.5t-144.5 -456.5v-168q0 -307 144 -456.5t370 -143.5q106 4 189 45t148.5 124.5t65.5 170.5v342q0 14 -3 17t-17 3h-314q-23 0 -22.5 20.5t22.5 20.5h357 q14 0 18 -4t4 -18v-385q0 -100 -73.5 -192.5t-165.5 -136.5t-209 -48q-244 -6 -401.5 152.5t-157.5 484.5z" glyph-name="G" horiz-adv-x="1318" unicode="G"/><glyph d="M1049 715q0 14 -3.5 17t-17.5 3h-725q-14 0 -17 -3t-3 -17v-692q0 -14 -4.5 -18.5t-18.5 -4.5t-18 4t-4 19v1388q0 14 4 18.5t18 4.5t18.5 -4.5t4.5 -18.5v-614q0 -14 3 -17.5t17 -3.5h725q14 0 17.5 3t3.5 18v614q0 14 4 18.5t18 4.5t18.5 -4.5t4.5 -18.5v-1388 q0 -14 -4.5 -18.5t-18.5 -4.5t-18 4t-4 19v692z" glyph-name="H" horiz-adv-x="1331" unicode="H"/><glyph d="M260 0q-14 0 -18 4t-4 19v1388q0 14 4 18.5t18 4.5t18.5 -4.5t4.5 -18.5v-1388q0 -14 -4.5 -18.5t-18.5 -4.5z" glyph-name="I" horiz-adv-x="520" unicode="I"/><glyph d="M338 33q133 0 221 78.5t88 220.5v1079q0 14 4 18.5t18.5 4.5t18.5 -4.5t4 -18.5v-1073q0 -158 -99 -252t-252 -94t-257 114q-14 18 0 32t33 -5q88 -100 221 -100z" glyph-name="J" horiz-adv-x="888" unicode="J"/><glyph d="M1053.5 8.5q0.5 -8.5 -19.5 -8.5t-39 23l-532 696q-12 18 -29 0l-129 -148q-23 -27 -22 -61v-487q0 -14 -4.5 -18.5t-18.5 -4.5t-18 4t-4 19v1388q0 14 4 18.5t18 4.5t18.5 -4.5t4.5 -18.5v-774q0 -12 8 -14t14 6l688 782q19 23 37 23t22.5 -7.5t-1.5 -15.5l-551 -627 q-12 -14 -12.5 -21t12.5 -24l549 -716q4 -6 4.5 -14.5z" glyph-name="K" horiz-adv-x="1140" unicode="K"/><glyph d="M260 0q-14 0 -18 4t-4 19v1388q0 14 4 18.5t18 4.5t18.5 -4.5t4.5 -18.5v-1350q0 -14 3 -17t17 -3h543q23 0 22.5 -20.5t-22.5 -20.5h-586z" glyph-name="L" horiz-adv-x="954" unicode="L"/><glyph d="M831.5 80q8.5 0 10.5 8l454 1323q8 23 30 23t24 -23l114 -1388q2 -23 -15 -23t-21.5 3t-6.5 20l-102 1261q-2 14 -11 12t-12 -10l-434 -1263q-6 -23 -30.5 -23t-30.5 23l-434 1263q-5 14 -13 10t-10 -12l-102 -1261q-2 -16 -6.5 -19.5t-21.5 -3.5t-15 23l114 1388 q1 23 23 23t31 -23l454 -1323q2 -8 10.5 -8z" glyph-name="M" horiz-adv-x="1662" unicode="M"/><glyph d="M283 1311v-1288q0 -14 -4.5 -18.5t-18.5 -4.5t-18 4t-4 19v1388q0 14 4 18.5t18 4.5t27 -19l839 -1298q4 -8 11.5 -6t7.5 12v1288q0 14 4 18.5t18.5 4.5t18.5 -4.5t4 -18.5v-1388q0 -14 -4 -18.5t-18.5 -4.5t-26.5 18l-840 1299q-4 8 -11 6t-7 -12z" glyph-name="N" horiz-adv-x="1427" unicode="N"/><glyph d="M1249 805v-176q0 -324 -152.5 -480.5t-394 -156.5t-394 156.5t-152.5 480.5v176q0 324 152.5 480.5t394 156.5t394 -156.5t152.5 -480.5zM201 801v-168q0 -303 138 -451.5t363.5 -148.5t363.5 148.5t138 451.5v168q0 303 -138 451.5t-363.5 148.5t-363.5 -148.5 t-138 -451.5z" glyph-name="O" horiz-adv-x="1404" unicode="O"/><glyph d="M1030 987q0 -201 -117.5 -323.5t-351.5 -122.5h-258q-14 0 -17 -3t-3 -18v-497q0 -14 -4.5 -18.5t-18.5 -4.5t-18 4t-4 19v1388q0 14 4 18.5t18 4.5h301q233 0 351 -123t118 -324zM985 987q0 178 -106.5 292t-317.5 114h-258q-14 0 -17 -3.5t-3 -17.5v-770q0 -14 3 -17 t17 -3h258q211 0 317.5 113.5t106.5 291.5z" glyph-name="P" horiz-adv-x="1163" unicode="P"/><glyph d="M1249 805v-176q0 -461 -313 -594l233 -381q15 -23 -11 -23t-40 23l-225 366q-84 -29 -191 -28q-242 0 -394 156.5t-152 480.5v176q0 324 152.5 480.5t394 156.5t394 -156.5t152.5 -480.5zM201 801v-168q0 -303 138 -451.5t363.5 -148.5t363.5 148.5t138 451.5v168 q0 303 -138 451.5t-363.5 148.5t-363.5 -148.5t-138 -451.5z" glyph-name="Q" horiz-adv-x="1404" unicode="Q"/><glyph d="M1071 0q-23 0 -37 23l-368 616h-363q-14 0 -17 -3t-3 -18v-595q0 -14 -4.5 -18.5t-18.5 -4.5t-18 4t-4 19v1388q0 14 4 18.5t18 4.5h363q233 0 346.5 -110t113.5 -279t-91 -274t-277 -128l370 -620q15 -23 -14 -23zM1038 1036.5q0 159.5 -103.5 258t-307.5 98.5h-324 q-14 0 -17 -3.5t-3 -17.5v-672q0 -14 3 -17t17 -3h324q205 0 308 98.5t103 258z" glyph-name="R" horiz-adv-x="1241" unicode="R"/><glyph d="M537 35q162 0 264 97t102 238t-102.5 209t-178 106t-152.5 77t-182.5 112.5t-109.5 221.5q-4 147 100.5 246.5t301.5 99.5q82 0 162.5 -22.5t119.5 -47.5l39 -22q18 -10 8 -30t-35 -5q-148 84 -312 84t-253.5 -89.5t-85.5 -195.5t80 -184t182.5 -130t211 -104.5 t178 -133.5t73.5 -189q0 -168 -118.5 -274.5t-294.5 -106.5q-232 0 -398 143q-20 17 -5 35t36 0q57 -53 154.5 -94t214.5 -41z" glyph-name="S" horiz-adv-x="1081" unicode="S"/><glyph d="M514 0q-14 0 -18 4t-4 19v1349q0 14 -3.5 17.5t-17.5 3.5h-362q-23 0 -23 20.5t23 20.5h811q23 0 22.5 -20.5t-22.5 -20.5h-363q-14 0 -17 -3.5t-3 -17.5v-1349q0 -14 -4.5 -18.5t-18.5 -4.5z" glyph-name="T" horiz-adv-x="1028" unicode="T"/><glyph d="M1102 1411q0 14 4 18.5t18.5 4.5t18.5 -4.5t4 -18.5v-893q0 -152 -45 -260t-119 -163.5t-150.5 -79t-160.5 -23.5t-161 23.5t-150.5 79t-118.5 164t-45 259.5v893q0 14 4 18.5t18 4.5t18.5 -4.5t4.5 -18.5v-901q0 -246 123.5 -362.5t306 -116.5t306.5 116.5t124 362.5 v901z" glyph-name="U" horiz-adv-x="1343" unicode="U"/><glyph d="M624.5 90q10.5 0 12.5 10l453 1311q8 23 28 23q27 0 19 -23l-484 -1388q-8 -23 -28.5 -23t-28.5 23l-483 1388q-9 23 15 23t32 -23l452 -1311q2 -10 12.5 -10z" glyph-name="V" horiz-adv-x="1249" unicode="V"/><glyph d="M921.5 1434q24.5 0 30.5 -23l359 -1311q5 -16 11.5 -11t8.5 11l352 1311q6 23 30 23t18 -23l-381 -1388q-6 -23 -30 -23t-30 23l-358 1310q-2 10 -10.5 10t-10.5 -10l-358 -1310q-6 -23 -30 -23t-29 23l-381 1388q-7 23 17 23t30 -23l352 -1311q5 -16 11.5 -11t8.5 11 l359 1311q6 23 30.5 23z" glyph-name="W" horiz-adv-x="1843" unicode="W"/><glyph d="M123 0q-29 0 -14 23l411 686q12 18 0 36l-389 666q-14 23 14 23q20 0 35 -23l363 -627q12 -20 24 0l363 627q14 23 35 23q29 0 14 -23l-389 -666q-12 -18 0 -36l411 -686q14 -23 -14 -23q-20 0 -35 23l-385 645q-12 20 -24 0l-385 -645q-14 -23 -35 -23z" glyph-name="X" horiz-adv-x="1110" unicode="X"/><glyph d="M983 1434q25 0 12 -23l-417 -706v-682q0 -14 -4.5 -18.5t-18.5 -4.5t-18.5 4t-4.5 19v682l-417 706q-11 23 13 23t36 -23l379 -645q12 -20 24 0l379 645q12 23 37 23z" glyph-name="Y" horiz-adv-x="1110" unicode="Y"/><glyph d="M160 41h714q23 0 23 -20.5t-23 -20.5h-749q-23 0 -23 24t11 42l757 1310q10 16 -6 17h-727q-23 0 -22.5 20.5t22.5 20.5h762q23 0 23 -25t-11 -41l-757 -1311q-10 -16 6 -16z" glyph-name="Z" horiz-adv-x="1024" unicode="Z"/><glyph d="M260 -408q-14 0 -18 4.5t-4 18.5v1997q0 14 4 18t18 4h307q23 0 23 -20.5t-23 -20.5h-264q-14 0 -17 -3t-3 -17v-1919q0 -14 3 -17.5t17 -3.5h264q23 0 23 -20.5t-23 -20.5h-307z" glyph-name="bracketleft" horiz-adv-x="704" unicode="["/><glyph d="M154 1434q16 0 21 -6.5t7 -32.5l164 -1356q2 -27 0 -33t-17 -6t-20.5 6t-7.5 33l-164 1356q-2 27 -0.5 33t17.5 6z" glyph-name="backslash" horiz-adv-x="481" unicode="\"/><glyph d="M467 -385q0 -14 -4 -18.5t-19 -4.5h-307q-23 0 -22.5 20.5t22.5 20.5h264q14 0 17.5 3.5t3.5 17.5v1919q0 14 -3 17t-18 3h-264q-23 0 -22.5 20.5t22.5 20.5h307q14 0 18.5 -4t4.5 -18v-1997z" glyph-name="bracketright" horiz-adv-x="704" unicode="]"/><glyph d="M156 760q-33 0 -13 35l355 612q16 27 32.5 27t32.5 -27l355 -612q20 -35 -13 -35q-16 0 -22 4t-17 22l-319 555q-6 10 -16.5 10t-16.5 -10l-319 -555q-10 -18 -16.5 -22t-22.5 -4z" glyph-name="asciicircum" horiz-adv-x="1058" unicode="^"/><glyph d="M102 -22.5q0 14.5 4.5 18.5t18.5 4h874q14 0 18.5 -4t4.5 -18.5t-4 -18.5t-19 -4h-874q-14 0 -18.5 4t-4.5 18.5z" glyph-name="underscore" horiz-adv-x="1124" unicode="_"/><glyph d="M287 1565l-234 221q-18 18 -19 24.5t11 20.5q14 12 20.5 11t24.5 -19l221 -234q18 -18 6 -30t-30 6z" glyph-name="grave" horiz-adv-x="348" unicode="`"/><glyph d="M802.5 0q-20.5 0 -20.5 23v94q-51 -55 -131 -90t-164 -35q-150 0 -252 96t-102 238t102.5 239t251.5 97q84 0 164 -35t131 -90v155q0 141 -89 221t-219 80t-228 -102q-16 -18 -30 -5t1 32q103 114 255 114t251.5 -94t99.5 -252v-663q0 -23 -20.5 -23zM174 328 q0 -125 89 -211t226 -86q174 0 293 123v346q-119 123 -293 123q-137 0 -226 -85t-89 -210z" glyph-name="a" horiz-adv-x="999" unicode="a"/><glyph d="M217.5 0q-20.5 0 -20.5 23v1388q0 23 20.5 23t20.5 -23v-496q119 111 260 117q174 6 278.5 -114.5t104.5 -342.5v-126q0 -221 -104.5 -342t-262.5 -115t-276 114v-83q0 -23 -20.5 -23zM840 598q0 193 -96 297t-248 98t-258 -123v-716q106 -117 258 -123t248 98t96 297 v172z" glyph-name="b" unicode="b"/><glyph d="M197 426q0 -190 93.5 -292.5t245.5 -102.5t263 121q16 20 30.5 5.5t-0.5 -30.5q-121 -135 -295 -135t-276 117.5t-102 339.5v126q0 221 102 339t276.5 118t294.5 -135q14 -16 0 -30.5t-30 5.5q-111 121 -263 121t-245.5 -102.5t-93.5 -292.5v-172z" glyph-name="c" horiz-adv-x="954" unicode="c"/><glyph d="M819.5 0q-20.5 0 -20.5 23v83q-117 -108 -275 -114t-263 114.5t-105 342.5v126q0 221 104.5 342t278.5 115q141 -6 260 -117v496q0 23 20.5 23t20.5 -23v-1388q0 -23 -20.5 -23zM197 598v-172q0 -193 96 -297t248 -98t258 123v716q-105 117 -257 123t-248.5 -98 t-96.5 -297z" glyph-name="d" unicode="d"/><glyph d="M156 449v126q0 213 95 335t263 122t263 -122t95 -335v-59q0 -14 -4 -18t-18 -4h-633q-14 0 -17 -3.5t-3 -17.5v-47q0 -190 93.5 -292.5t245.5 -102.5t263 121q16 20 30.5 5.5t-0.5 -30.5q-121 -135 -295 -135t-276 118t-102 339zM831 598q0 186 -89 290.5t-228 104.5 t-228 -104.5t-89 -290.5v-47q0 -14 3 -17.5t17 -3.5h594q14 0 17 3.5t3 17.5v47z" glyph-name="e" horiz-adv-x="1028" unicode="e"/><glyph d="M299 1208v-233q0 -14 3 -17.5t17 -3.5h207q23 0 23 -18t-23 -18h-207q-14 0 -17 -3.5t-3 -17.5v-874q0 -23 -20.5 -23t-20.5 23v874q0 14 -3 17.5t-17 3.5h-109q-23 0 -23 18t23 18h109q14 0 17 3.5t3 17.5v235q0 102 68 167t166 65t170 -84q12 -16 -0.5 -28.5t-28.5 3.5 q-66 70 -145 70t-134 -53.5t-55 -141.5z" glyph-name="f" horiz-adv-x="667" unicode="f"/><glyph d="M158 645q0 166 109.5 276.5t267.5 110.5q109 0 197.5 -56t137.5 -151v176q0 23 20.5 23t20.5 -23v-362q-6 -152 -115.5 -256t-260.5 -104q-113 0 -207 61q-68 -14 -108 -65.5t-40 -111.5t50.5 -115.5t134.5 -59.5h340q115 0 170 -58.5t55 -140.5q0 -121 -110.5 -195.5 t-282.5 -74.5t-283 74.5t-111 203.5t121 174q-57 29 -90 82t-33 115t39 120t107 83q-129 108 -129 274zM197 655.5q0 -139.5 99 -239t238.5 -99.5t238.5 99.5t99 239t-99 238.5t-238.5 99t-238.5 -99t-99 -238.5zM891 -211q0 63 -43 110.5t-141 47.5h-347q-94 -2 -136 -48 t-42 -110q0 -113 106 -171t249 -58t248.5 58t105.5 171z" glyph-name="g" horiz-adv-x="1060" unicode="g"/><glyph d="M506 993q-146 0 -268 -112v-858q0 -23 -20.5 -23t-20.5 23v1388q0 23 20.5 23t20.5 -23v-491q128 112 282 112t244 -91t92 -259v-659q0 -23 -20.5 -23t-20.5 23v653q-2 154 -82.5 235.5t-226.5 81.5z" glyph-name="h" horiz-adv-x="1032" unicode="h"/><glyph d="M217.5 0q-20.5 0 -20.5 23v978q0 23 20.5 23t20.5 -23v-978q0 -23 -20.5 -23zM168 1224.5q0 20.5 14.5 35t35 14.5t34.5 -14.5t14 -35t-14 -34.5t-34.5 -14t-35 14t-14.5 34.5z" glyph-name="i" horiz-adv-x="434" unicode="i"/><glyph d="M7 -469q79 0 134.5 53.5t55.5 141.5v1275q0 23 20.5 23t20.5 -23v-1277q0 -102 -68 -167t-166 -65t-170 84q-12 16 0 28.5t29 -3.5q65 -70 144 -70zM168 1224.5q0 20.5 14.5 35t35 14.5t34.5 -14.5t14 -35t-14 -34.5t-34.5 -14t-35 14t-14.5 34.5z" glyph-name="j" horiz-adv-x="434" unicode="j"/><glyph d="M217.5 0q-20.5 0 -20.5 23v1388q0 23 20.5 23t20.5 -23v-1003q0 -14 8 -12.5t10 5.5l477 600q18 23 41 23q29 0 8 -25l-313 -393q-8 -10 0 -24l336 -557q14 -25 -8 -25t-37 23l-320 528q-8 14 -20 0l-166 -209q-16 -23 -16 -70v-249q0 -23 -20.5 -23z" glyph-name="k" horiz-adv-x="901" unicode="k"/><glyph d="M465 0h-2q-121 0 -204 68.5t-83 210.5v1132q0 23 20.5 23t20.5 -23v-1130q0 -127 70.5 -184.5t175.5 -57.5h2q23 0 22 -21q1 -18 -22 -18z" glyph-name="l" horiz-adv-x="573" unicode="l"/><glyph d="M798.5 0q-20.5 0 -20.5 23v735q0 96 -28 135q-78 100 -234 100t-278 -112v-858q0 -23 -20.5 -23t-20.5 23v978q0 23 20.5 23t20.5 -23v-81q126 112 290 112t254 -112q127 112 282 112t245 -91t92 -259v-659q0 -23 -20.5 -23t-20.5 23v653q-2 154 -82 235.5t-218 81.5 t-261 -98q20 -45 20 -131v-741q0 -23 -20.5 -23z" glyph-name="m" horiz-adv-x="1576" unicode="m"/><glyph d="M506 993q-146 0 -268 -112v-858q0 -23 -20.5 -23t-20.5 23v978q0 23 20.5 23t20.5 -23v-81q128 112 282 112t244 -91t92 -259v-659q0 -23 -20.5 -23t-20.5 23v653q-2 154 -82.5 235.5t-226.5 81.5z" glyph-name="n" horiz-adv-x="1032" unicode="n"/><glyph d="M913 575v-126q0 -221 -102 -339t-276.5 -118t-276.5 117.5t-102 339.5v126q0 221 102 339t276.5 118t276.5 -118t102 -339zM534.5 31q149.5 0 243.5 102.5t94 292.5v172q0 190 -94 292.5t-243.5 102.5t-243.5 -102.5t-94 -292.5v-172q0 -190 94 -292.5t243.5 -102.5z" glyph-name="o" horiz-adv-x="1069" unicode="o"/><glyph d="M217.5 -502q-20.5 0 -20.5 23v1480q0 23 20.5 23t20.5 -23v-86q119 111 260 117q174 6 278.5 -114.5t104.5 -342.5v-126q0 -221 -104.5 -342t-262.5 -115t-276 114v-585q0 -23 -20.5 -23zM840 598q0 193 -96 297t-248 98t-258 -123v-716q106 -117 258 -123t248 98t96 297 v172z" glyph-name="p" unicode="p"/><glyph d="M819.5 -502q-20.5 0 -20.5 23v585q-117 -108 -275 -114t-263 114.5t-105 342.5v126q0 221 104.5 342t278.5 115q141 -6 260 -117v86q0 23 20.5 23t20.5 -23v-1480q0 -23 -20.5 -23zM197 598v-172q0 -193 96 -297t248 -98t258 123v716q-105 117 -257 123t-248.5 -98 t-96.5 -297z" glyph-name="q" unicode="q"/><glyph d="M217.5 0q-20.5 0 -20.5 23v978q0 23 20.5 23t20.5 -23v-81q135 113 286 112q113 0 195 -61q29 -23 15 -41t-44 4q-82 59 -167 59q-159 0 -285 -112v-858q0 -23 -20.5 -23z" glyph-name="r" horiz-adv-x="815" unicode="r"/><glyph d="M433 31q140 0 217 67.5t67 175.5q-11 125 -144 182.5t-211.5 91.5t-136 89t-65.5 127q-12 117 67.5 192.5t212.5 75.5t258 -67q20 -10 12 -28.5t-30 -6.5q-121 63 -240 64t-183 -64.5t-57 -144.5t64.5 -128t136 -82.5t157.5 -68.5t136.5 -93.5t63.5 -138.5 q10 -123 -76 -202.5t-246 -79.5t-313 82q-23 12 -12 30q7 17 30 7q152 -80 292 -80z" glyph-name="s" horiz-adv-x="897" unicode="s"/><glyph d="M299 965q0 -14 3 -17.5t17 -3.5h207q23 0 23 -18.5t-23 -18.5h-207q-14 0 -17 -3t-3 -17v-662q0 -88 55.5 -141t133.5 -53t145 69q16 16 28.5 4t0.5 -28q-72 -84 -170 -84t-166 64.5t-68 166.5v664q0 14 -3 17t-17 3h-109q-23 0 -23 18.5t23 18.5h109q14 0 17 3t3 18v256 q0 23 20.5 22.5t20.5 -22.5v-256z" glyph-name="t" horiz-adv-x="770" unicode="t"/><glyph d="M217 1001v-653q2 -154 82 -235.5t218 -81.5t261 98v872q0 23 20.5 23t20.5 -23v-978q0 -23 -20.5 -23t-20.5 23v65q-124 -96 -272 -96t-238 91t-92 259v659q0 23 20.5 23t20.5 -23z" glyph-name="u" horiz-adv-x="1015" unicode="u"/><glyph d="M842 1024q27 0 14 -29l-342 -958q-8 -23 -15 -30t-23.5 -7t-24 7t-15.5 30l-342 958q-12 29 15 29q18 0 26 -23l332 -935q8 -20 16 0l332 935q8 23 27 23z" glyph-name="v" horiz-adv-x="950" unicode="v"/><glyph d="M727 1024q12 0 16.5 -6t12.5 -31l276 -921q2 -8 8.5 -8.5t8.5 8.5l262 935q6 23 24 23q25 0 17 -29l-273 -958q-6 -23 -13 -30t-25.5 -7t-24.5 6t-15 31l-270 901q-2 8 -8 8t-8 -8l-271 -901q-8 -25 -14 -31t-24.5 -6t-25.5 7t-13 30l-273 958q-8 29 17 29q18 0 24 -23 l262 -935q2 -8 8.5 -8.5t8.5 8.5l276 921q8 25 12.5 31t16.5 6h8z" glyph-name="w" horiz-adv-x="1445" unicode="w"/><glyph d="M862 0q-20 0 -37 23l-331 460q-10 14 -21 0l-332 -460q-16 -23 -37 -23q-27 0 -4 29l353 487q8 12 0 23l-332 456q-23 29 4 29q20 0 37 -23l311 -430q10 -14 21 0l311 430q16 23 37 23q27 0 4 -29l-332 -456q-8 -10 0 -23l352 -487q23 -29 -4 -29z" glyph-name="x" horiz-adv-x="966" unicode="x"/><glyph d="M109 1024q18 0 26 -23l332 -935q8 -20 16 0l332 935q8 23 27 23q27 0 14 -29l-473 -1327q-76 -213 -262 -168q-20 4 -24.5 9.5t-2.5 19.5q4 18 33 12q158 -37 223 148l92 262q12 34 2 63l-350 981q-12 29 15 29z" glyph-name="y" horiz-adv-x="950" unicode="y"/><glyph d="M158 1024h624q23 0 23 -25t-12 -41l-627 -901q-12 -18 6 -18h590q23 0 22 -19v-2q0 -18 -22 -18h-627q-23 0 -23 25t13 41l627 901q12 18 -7 18h-587q-23 0 -23 19v2q0 18 23 18z" glyph-name="z" horiz-adv-x="919" unicode="z"/><glyph d="M330 977q0 -160 -90 -221q90 -61 90 -221v-660q0 -133 47 -187.5t143 -54.5h2q23 0 23 -20.5t-23 -20.5h-2q-236 0 -235 279v657q0 205 -142 205h-4q-25 0 -31 4t-6 18.5t6.5 18.5t30.5 4h4q141 0 142 205v455q0 279 235 278h2q23 0 23 -20.5t-23 -20.5h-2 q-96 0 -143 -54t-47 -187v-457z" glyph-name="braceleft" horiz-adv-x="659" unicode="{"/><glyph d="M260 -598q-14 0 -18 4t-4 19v2086q0 14 4 18.5t18 4.5t18.5 -4t4.5 -19v-2086q0 -14 -4.5 -18.5t-18.5 -4.5z" glyph-name="bar" horiz-adv-x="520" unicode="|"/><glyph d="M330 535q0 160 90 221q-90 61 -90 221v457q0 133 -47 187t-144 54h-2q-23 0 -22.5 20.5t22.5 20.5h2q236 0 236 -278v-455q0 -205 141 -205h4q25 0 31 -4t6 -18.5t-6 -18.5t-31 -4h-4q-141 0 -141 -205v-657q0 -279 -236 -279h-2q-23 0 -22.5 20.5t22.5 20.5h2 q96 0 143.5 54.5t47.5 187.5v660z" glyph-name="braceright" horiz-adv-x="659" unicode="}"/><glyph d="M348 840q70 0 195 -70t192 -68q102 4 166 121q9 18 27 8t8 -28q-76 -139 -209 -139q-70 0 -194.5 69.5t-192.5 67.5q-102 -4 -166 -121q-10 -18 -29 -8q-16 10 -6 28q76 140 209 140z" glyph-name="asciitilde" horiz-adv-x="1075" unicode="~"/><glyph d="M180 981q0 23 14.5 37t37 14t37 -14t14.5 -37t-14.5 -37t-37 -14t-37 14t-14.5 37zM231.5 702q18.5 0 18.5 -40l10 -1031q0 -25 -5 -33t-23.5 -8t-23.5 8.5t-5 32.5l10 1031q0 40 18.5 40z" glyph-name="exclamdown" horiz-adv-x="462" unicode="¡"/><glyph d="M197 426q0 -190 93.5 -292.5t245.5 -102.5t263 121q16 20 30.5 5.5t-0.5 -30.5q-117 -127 -276 -135v-113q0 -23 -20.5 -22.5t-20.5 22.5v113q-166 8 -261 126t-95 331v126q0 213 95 331t261 126v113q0 23 20.5 22.5t20.5 -22.5v-113q160 -8 276 -135q14 -16 0 -30.5 t-30 5.5q-111 121 -263 121t-245.5 -102.5t-93.5 -292.5v-172z" glyph-name="cent" horiz-adv-x="954" unicode="¢"/><glyph d="M84 716.5q0 20.5 22 20.5h111q14 0 17.5 3t3.5 18v192q0 207 65.5 312.5t198.5 132.5q31 6 39 3.5t10 -16.5t-3 -17t-24 -7q-131 -25 -186 -123t-55 -277v-200q0 -14 3 -17.5t17 -3.5h324q23 0 22.5 -20.5t-22.5 -20.5h-324q-14 0 -17 -3t-3 -17v-615q0 -14 3 -17t17 -3 h543q23 0 22.5 -20.5t-22.5 -20.5h-586q-14 0 -18 4t-4 19v653q0 14 -3.5 17t-17.5 3h-111q-22 0 -22 20.5z" glyph-name="sterling" horiz-adv-x="933" unicode="£"/><glyph d="M358 573.5q0 20.5 23 20.5h131q14 0 17 3t3 17v91l-417 706q-11 23 13 23t36 -23l379 -645q12 -20 24 0l379 645q12 23 37 23t12 -23l-417 -706v-91q0 -14 3 -17t17 -3h131q23 0 23 -20.5t-23 -20.5h-131q-14 0 -17 -3t-3 -18v-120q0 -14 3 -17.5t17 -3.5h131 q23 0 23 -20.5t-23 -20.5h-131q-14 0 -17 -3t-3 -17v-307q0 -14 -4.5 -18.5t-18.5 -4.5t-18.5 4t-4.5 19v307q0 14 -3 17t-17 3h-131q-23 0 -23 20.5t23 20.5h131q14 0 17 3t3 18v120q0 14 -3 17.5t-17 3.5h-131q-23 0 -23 20.5z" glyph-name="yen" horiz-adv-x="1110" unicode="¥"/><glyph d="M461 1442q133 0 258 -68q20 -10 12 -28.5t-31 -6.5q-122 63 -240 65t-182.5 -64t-57.5 -145t64.5 -128t136.5 -83t157.5 -68.5t136 -93t63.5 -138.5q10 -154 -112 -231q104 -74 113 -188t-77 -193.5t-246 -79.5t-313 82q-23 12 -13 29t32 8q152 -80 292 -80t217 67.5 t66 175.5q-11 125 -143.5 182.5t-211.5 91.5t-136.5 89t-65.5 127q-18 160 129 233q-119 74 -130 184t69 185.5t213 75.5zM248.5 894q-33.5 -54 -28.5 -116t50 -107.5t96.5 -70.5t133.5 -60.5t127 -62.5q121 68 110 207q-4 55 -47 102.5t-88 71t-130 61t-122 56.5 q-68 -27 -101.5 -81z" glyph-name="section" horiz-adv-x="907" unicode="§"/><glyph d="M354 1611.5q0 20.5 14.5 35t35 14.5t35 -14.5t14.5 -35t-14.5 -34.5t-35 -14t-35 14t-14.5 34.5zM88 1611.5q0 20.5 14.5 35t35 14.5t34.5 -14.5t14 -35t-14 -34.5t-34.5 -14t-35 14t-14.5 34.5z" glyph-name="dieresis" horiz-adv-x="538" unicode="¨"/><glyph d="M164 717q0 297 211 508t508 211t506.5 -211t209.5 -508t-209.5 -507t-506.5 -210t-508 210t-211 507zM551 633q0 -190 94 -292.5t246 -102.5t262 120q16 20 30.5 6t0.5 -30q-121 -135 -295 -135t-276.5 117.5t-102.5 338.5v127q0 221 102.5 339t276.5 118t295 -135 q14 -16 -0.5 -30.5t-30.5 5.5q-111 121 -262 121t-245.5 -102.5t-94.5 -292.5v-172zM205 716.5q0 -280.5 197.5 -478t478 -197.5t479.5 197.5t199 478t-199 479.5t-479.5 199t-478 -199t-197.5 -479.5z" glyph-name="copyright" horiz-adv-x="1763" unicode="©"/><glyph d="M483 1245q0 74 -44.5 115t-120.5 41t-128 -55q-14 -14 -25 -2t1 26q62 66 152 66t144 -53.5t54 -137.5v-373q0 -14 -2 -17t-14.5 -3t-14.5 3t-2 17v52q-74 -74 -162 -77t-149 49t-61 140t61 141.5t150 50.5t161 -79v96zM147 1036q0 -78 52.5 -120t132.5 -37t151 77v160 q-71 72 -151 77t-132.5 -37t-52.5 -120z" glyph-name="ordfeminine" horiz-adv-x="632" unicode="ª"/><glyph d="M510 826q0 -16 -21 -38l-274 -264q-12 -12 0 -24l274 -264q21 -20 21 -36t-10.5 -21t-20.5 5l-315 305q-23 23 0 46l315 305q10 10 20.5 6t10.5 -20zM870 826q0 -16 -20 -38l-275 -264q-12 -12 0 -24l275 -264q20 -20 20 -36t-10 -21t-20 5l-316 305q-23 23 0 46l316 305 q10 10 20 6t10 -20z" glyph-name="guillemotleft" horiz-adv-x="972" unicode="«"/><glyph d="M102 563.5q0 14.5 4.5 18.5t18.5 4h956q14 0 18.5 -4t4.5 -18.5t-4 -18.5t-19 -4h-956q-14 0 -18.5 4t-4.5 18.5z" glyph-name="uni00AD" horiz-adv-x="1206" unicode="­"/><glyph d="M164 717q0 297 211 508t508 211t506.5 -211t209.5 -508t-209.5 -507t-506.5 -210t-508 210t-211 507zM205 716.5q0 -280.5 197.5 -478t478 -197.5t479.5 197.5t199 478t-199 479.5t-479.5 199t-478 -199t-197.5 -479.5zM674 651v-362q0 -16 -4 -21.5t-18.5 -5.5t-18.5 5 t-4 22v903q0 16 5 20.5t21 4.5h232q313 0 313 -271q0 -231 -235 -264l233 -393q14 -27 -12 -27h-2q-23 0 -33 19l-236 395h-217q-16 0 -20 -4.5t-4 -20.5zM891 1174h-193q-16 0 -20 -4.5t-4 -20.5v-404q0 -18 4 -22t20 -4h193q264 0 264 227.5t-264 227.5z" glyph-name="registered" horiz-adv-x="1763" unicode="®"/><glyph d="M33 1593.5q0 14.5 4 18.5t18 4h420q14 0 18.5 -4t4.5 -18.5t-4.5 -18.5t-18.5 -4h-420q-14 0 -18 4t-4 18.5z" glyph-name="macron" horiz-adv-x="530" unicode="¯"/><glyph d="M313 1020q-86 0 -148.5 62.5t-62.5 148.5t62.5 148.5t148.5 62.5t148.5 -62.5t62.5 -148.5t-62.5 -148.5t-148.5 -62.5zM145 1228.5q0 -69.5 48.5 -117.5t118 -48t118.5 48t49 117.5t-49 119t-118.5 49.5t-118 -49.5t-48.5 -119z" glyph-name="degree" horiz-adv-x="626" unicode="°"/><glyph d="M244 1438q66 0 107.5 -39t41.5 -91t-40 -99.5t-86 -81t-85 -86t-39 -109.5v-27q0 -14 2 -16t15 -2h221q16 0 16 -17v-2q0 -16 -16 -16h-260q-18 0 -19 16v72q0 57 39 112.5t124 121t88 118.5t-29.5 81t-77.5 28t-88 -39q-10 -10 -25 2q-10 12 0 22q45 52 111 52z" glyph-name="uni00B2" horiz-adv-x="499" unicode="²"/><glyph d="M381 1015q0 56 -26.5 92t-71.5 36q-16 0 -17 16v6q0 16 17 17q41 0 63.5 30.5t22.5 77.5t-36 79t-88 32t-93 -41q-12 -12 -24 1q-13 13 -3 25q45 52 117 52t120 -41t48 -116t-62 -118q72 -49 72 -136t-51 -133t-129 -46t-129 57q-12 15 1 27t25 0q47 -47 107 -47t98.5 37 t38.5 93z" glyph-name="uni00B3" horiz-adv-x="524" unicode="³"/><glyph d="M68 1565q-18 -18 -30.5 -6t5.5 30l221 234q18 18 24.5 19t20.5 -11q12 -14 11 -20.5t-19 -24.5z" glyph-name="acute" horiz-adv-x="348" unicode="´"/><glyph d="M1528 1434q23 0 22.5 -20.5t-22.5 -20.5h-203q-14 0 -17 -3.5t-3 -17.5v-1945q0 -14 -4.5 -18.5t-18.5 -4.5t-18 4t-4 19v1945q0 14 -3.5 17.5t-17.5 3.5h-432q-14 0 -17.5 -3.5t-3.5 -17.5v-1945q0 -14 -4 -18.5t-18 -4.5t-18.5 4t-4.5 19v1079q0 51 -8 59t-59 8h-166 q-174 0 -300 125.5t-126 303.5t115.5 305t281.5 127h1049z" glyph-name="paragraph" horiz-adv-x="1644" unicode="¶"/><glyph d="M137 753.5q0 20.5 15.5 36t36 15.5t36 -15.5t15.5 -36t-15.5 -36t-36 -15.5t-36 15.5t-15.5 36z" glyph-name="periodcentered" horiz-adv-x="376" unicode="·"/><glyph d="M428 -300q0 -114 -102.5 -168t-196.5 11q-14 9 -4 27t25 8q76 -53 156.5 -9t80.5 138q0 63 -49 107.5t-116.5 40t-112.5 -69.5q-11 -14 -25 -10t-10 20l73 230l39 2l-51 -168q100 66 196.5 10.5t96.5 -169.5z" glyph-name="cedilla" horiz-adv-x="468" unicode="¸"/><glyph d="M209 1434q16 0 16 -17v-549q0 -16 -16 -16h-8q-16 0 -17 16v504l-86 -88q-12 -12 -26 2t-2 25l116 116q6 6 17 7h6z" glyph-name="uni00B9" horiz-adv-x="432" unicode="¹"/><glyph d="M545 1182v-70q0 -125 -60.5 -192.5t-161 -67.5t-161 67.5t-60.5 192.5v70q0 125 60.5 192.5t161 67.5t161 -67.5t60.5 -192.5zM324 889q86 0 133 56t47 167v70q0 111 -47 167t-133 56t-133.5 -56.5t-47.5 -166.5v-70q0 -111 47.5 -167t133.5 -56z" glyph-name="ordmasculine" horiz-adv-x="647" unicode="º"/><glyph d="M463 198q0 16 20 38l275 264q12 12 0 24l-275 264q-20 20 -20 36t10 21t21 -5l315 -305q23 -23 0 -46l-315 -305q-10 -10 -20.5 -6t-10.5 20zM102 198q0 16 21 38l274 264q12 12 0 24l-274 264q-21 20 -21 36t10.5 21t20.5 -5l316 -305q23 -23 0 -46l-316 -305 q-10 -10 -20.5 -6t-10.5 20z" glyph-name="guillemotright" horiz-adv-x="972" unicode="»"/><glyph d="M1149 215v-197q0 -18 -20.5 -18t-20.5 18v197q0 12 -10 12h-336q-23 0 -23 22.5t11 37.5l346 514q12 16 32 16t21 -18v-520q0 -12 12 -13h33q16 0 16 -16t-2 -19.5t-14 -3.5h-33q-12 0 -12 -12zM1098 266q10 0 10 13v458q0 4 -3 5t-5 -3l-312 -460q-8 -12 5 -13h305z M778 1434h4q23 0 13 -41l-299 -1348q-6 -29 -10.5 -37t-16.5 -8h-4q-22 0 -12 41l299 1348q6 29 10 37t16 8zM344 1413v-776q0 -12 -3 -16.5t-17.5 -4.5t-17.5 4.5t-3 16.5v739l-143 -143q-14 -15 -28 -1t1 30l162 161q10 10 31 11q18 0 18 -21z" glyph-name="onequarter" horiz-adv-x="1341" unicode="¼"/><glyph d="M778 1434h4q23 0 13 -41l-299 -1348q-6 -29 -10.5 -37t-16.5 -8h-4q-22 0 -12 41l299 1348q6 29 10 37t16 8zM344 1413v-776q0 -12 -3 -16.5t-17.5 -4.5t-17.5 4.5t-3 16.5v739l-143 -143q-14 -15 -28 -1t1 30l162 161q10 10 31 11q18 0 18 -21zM829 0q-23 0 -22 23v108 q0 124 85 201.5t170.5 149t87.5 147.5q3 76 -40 116.5t-114.5 40.5t-131.5 -59q-16 -18 -30.5 -4t4.5 33q72 70 158 70t141 -53t53 -123t-38 -121.5t-86 -94.5t-134 -120t-84 -193v-55q0 -18 3 -21.5t21 -3.5h304q23 0 22.5 -20.5t-22.5 -20.5h-347z" glyph-name="onehalf" horiz-adv-x="1329" unicode="½"/><glyph d="M958 1434h5q23 0 12 -41l-299 -1348q-6 -29 -10 -37t-17 -8h-4q-22 0 -12 41l299 1348q6 29 10 37t16 8zM551 1226q0 -103 -86 -169q109 -74 109 -194t-73 -185.5t-181 -61.5t-179 70q-18 18 -3.5 32.5t30.5 -3.5q54 -55 152 -59t155 50t57 140t-43 137t-112 51 q-23 0 -23 22t23 21q63 0 98 43t35 118t-54 121t-136 43t-132 -52q-16 -18 -30.5 -4t4.5 32q64 60 157 63t162.5 -54.5t69.5 -160.5zM1327 215v-197q0 -18 -20.5 -18t-20.5 18v197q0 12 -10 12h-336q-23 0 -22.5 22.5t10.5 37.5l346 514q12 16 33 16t20 -18v-520 q0 -12 12 -13h33q16 0 17 -18q0 -14 -2.5 -17.5t-14.5 -3.5h-33q-12 0 -12 -12zM1276 266q10 0 10 13v458q0 10 -8 2l-311 -460q-8 -12 4 -13h305z" glyph-name="threequarters" horiz-adv-x="1521" unicode="¾"/><glyph d="M489 592q0 -208 -75.5 -298.5t-153 -179.5t-80.5 -210q-4 -121 73 -202t209 -81t253 125q16 16 30.5 2t-2.5 -33q-123 -135 -273 -135t-244.5 88t-90.5 233t81 229.5t152.5 176t75.5 285.5v51q0 14 4.5 18.5t18.5 4.5t18 -4.5t4 -18.5v-51zM516 978.5 q0 -20.5 -14.5 -35.5t-37 -15t-36.5 15t-14 35.5t14 36t36.5 15.5t37 -15.5t14.5 -36z" glyph-name="questiondown" horiz-adv-x="864" unicode="¿"/><glyph d="M624.5 1434q22.5 0 30.5 -23l484 -1388q8 -23 -17 -23t-32 23l-136 387q-6 18 -13 23t-28 5h-577q-20 0 -27.5 -5t-13.5 -23l-135 -387q-8 -23 -33 -23t-16 23l483 1388q8 23 30.5 23zM340 479h569q23 0 15 23l-287 831q-2 10 -12.5 10t-12.5 -10l-286 -831 q-8 -23 14 -23zM739 1597l-233 222q-18 18 -19.5 24t11.5 21q14 12 20 11t25 -20l221 -233q18 -18 5.5 -30.5t-30.5 5.5z" glyph-name="Agrave" horiz-adv-x="1249" unicode="À"/><glyph d="M624.5 1434q22.5 0 30.5 -23l484 -1388q8 -23 -17 -23t-32 23l-136 387q-6 18 -13 23t-28 5h-577q-20 0 -27.5 -5t-13.5 -23l-135 -387q-8 -23 -33 -23t-16 23l483 1388q8 23 30.5 23zM340 479h569q23 0 15 23l-287 831q-2 10 -12.5 10t-12.5 -10l-286 -831 q-8 -23 14 -23zM522 1597q-18 -18 -30.5 -5.5t6.5 30.5l221 233q18 18 24.5 19.5t20.5 -10.5q12 -14 11 -20.5t-19 -24.5z" glyph-name="Aacute" horiz-adv-x="1249" unicode="Á"/><glyph d="M624.5 1434q22.5 0 30.5 -23l484 -1388q8 -23 -17 -23t-32 23l-136 387q-6 18 -13 23t-28 5h-577q-20 0 -27.5 -5t-13.5 -23l-135 -387q-8 -23 -33 -23t-16 23l483 1388q8 23 30.5 23zM340 479h569q23 0 15 23l-287 831q-2 10 -12.5 10t-12.5 -10l-286 -831 q-8 -23 14 -23zM618 1800l-184 -194q-18 -18 -24.5 -19.5t-20.5 10.5q-12 14 -11 20.5t19 24.5l215 205q12 12 25 0l215 -205q18 -18 19 -24t-11 -21q-14 -12 -20 -11t-25 20l-184 194q-7 6 -13 0z" glyph-name="Acircumflex" horiz-adv-x="1249" unicode="Â"/><glyph d="M624.5 1434q22.5 0 30.5 -23l484 -1388q8 -23 -17 -23t-32 23l-136 387q-6 18 -13 23t-28 5h-577q-20 0 -27.5 -5t-13.5 -23l-135 -387q-8 -23 -33 -23t-16 23l483 1388q8 23 30.5 23zM340 479h569q23 0 15 23l-287 831q-2 10 -12.5 10t-12.5 -10l-286 -831 q-8 -23 14 -23zM745 1585q-55 2 -129.5 55.5t-107.5 55.5t-60.5 -14.5t-40 -32t-27.5 -38.5t-34 -14q-16 10 -6 29q68 115 164 111q49 -2 120.5 -55.5t118.5 -55.5q70 -2 129 90q12 18 30 8t7 -28q-66 -111 -164 -111z" glyph-name="Atilde" horiz-adv-x="1249" unicode="Ã"/><glyph d="M624.5 1434q22.5 0 30.5 -23l484 -1388q8 -23 -17 -23t-32 23l-136 387q-6 18 -13 23t-28 5h-577q-20 0 -27.5 -5t-13.5 -23l-135 -387q-8 -23 -33 -23t-16 23l483 1388q8 23 30.5 23zM340 479h569q23 0 15 23l-287 831q-2 10 -12.5 10t-12.5 -10l-286 -831 q-8 -23 14 -23zM709 1634.5q0 20.5 14 34.5t34.5 14t35 -14t14.5 -34.5t-14.5 -35t-35 -14.5t-34.5 14.5t-14 35zM442 1634.5q0 20.5 14.5 34.5t35 14t35 -14t14.5 -34.5t-14.5 -35t-35 -14.5t-35 14.5t-14.5 35z" glyph-name="Adieresis" horiz-adv-x="1249" unicode="Ä"/><glyph d="M624.5 1434q22.5 0 30.5 -23l484 -1388q8 -23 -17 -23t-32 23l-136 387q-6 18 -13 23t-28 5h-577q-20 0 -27.5 -5t-13.5 -23l-135 -387q-8 -23 -33 -23t-16 23l483 1388q8 23 30.5 23zM340 479h569q23 0 15 23l-287 831q-2 10 -12.5 10t-12.5 -10l-286 -831 q-8 -23 14 -23zM510 1737q0 -47 34 -81t81 -34t80.5 34t33.5 81t-33.5 80.5t-80.5 33.5t-81 -33.5t-34 -80.5zM473 1736.5q0 63.5 44 107.5t107.5 44t107.5 -44t44 -107.5t-44 -107.5t-107.5 -44t-107.5 44t-44 107.5z" glyph-name="Aring" horiz-adv-x="1249" unicode="Å"/><glyph d="M625 418q0 14 -3.5 17t-17.5 3h-268q-20 0 -27.5 -5t-13.5 -23l-135 -387q-8 -23 -33 -23t-16 23l483 1388q8 23 31 23h706q23 0 23 -20.5t-23 -20.5h-641q-14 0 -17 -3.5t-3 -17.5v-575q0 -14 3 -17.5t17 -3.5h539q23 0 22.5 -20.5t-22.5 -20.5h-539q-14 0 -17 -3 t-3 -17v-654q0 -14 3 -17t17 -3h641q23 0 23 -20.5t-23 -20.5h-684q-14 0 -18 4t-4 19v395zM340 479h264q14 0 17.5 3t3.5 18v843q-8 0 -13 -10l-286 -831q-8 -23 14 -23z" glyph-name="AE" horiz-adv-x="1501" unicode="Æ"/><glyph d="M156 629v176q0 326 157.5 484.5t397.5 152.5t381 -182q14 -16 -2 -32t-29 -1q-133 168 -352 174t-363.5 -143.5t-144.5 -456.5v-168q0 -307 143.5 -456.5t363.5 -143.5t353 174q12 14 28 -1t3 -32q-141 -176 -377 -182q-33 0 -94 4l-41 -137q100 66 196 10.5t96 -169.5 t-102 -168t-197 11q-16 9 -5 27t26 8q76 -53 156.5 -9t80.5 138q0 63 -49 107.5t-116.5 40t-112.5 -69.5q-9 -14 -25 -10q-14 4 -10 20l66 205q-193 35 -310.5 191.5t-117.5 437.5z" glyph-name="Ccedilla" horiz-adv-x="1226" unicode="Ç"/><glyph d="M864 755.5q0 -20.5 -22 -20.5h-539q-14 0 -17 -3t-3 -17v-654q0 -14 3 -17t17 -3h641q23 0 23 -20.5t-23 -20.5h-684q-14 0 -18 4t-4 19v1388q0 14 4 18.5t18 4.5h684q23 0 23 -20.5t-23 -20.5h-641q-14 0 -17 -3.5t-3 -17.5v-575q0 -14 3 -17.5t17 -3.5h539 q22 0 22 -20.5zM690 1597l-233 222q-18 18 -19.5 24t11.5 21q14 12 20 11t25 -20l221 -233q18 -18 5.5 -30.5t-30.5 5.5z" glyph-name="Egrave" horiz-adv-x="1114" unicode="È"/><glyph d="M864 755.5q0 -20.5 -22 -20.5h-539q-14 0 -17 -3t-3 -17v-654q0 -14 3 -17t17 -3h641q23 0 23 -20.5t-23 -20.5h-684q-14 0 -18 4t-4 19v1388q0 14 4 18.5t18 4.5h684q23 0 23 -20.5t-23 -20.5h-641q-14 0 -17 -3.5t-3 -17.5v-575q0 -14 3 -17.5t17 -3.5h539 q22 0 22 -20.5zM512 1597q-18 -18 -30.5 -5.5t5.5 30.5l222 233q18 18 24 19.5t21 -10.5q12 -14 11 -20.5t-20 -24.5z" glyph-name="Eacute" horiz-adv-x="1114" unicode="É"/><glyph d="M864 755.5q0 -20.5 -22 -20.5h-539q-14 0 -17 -3t-3 -17v-654q0 -14 3 -17t17 -3h641q23 0 23 -20.5t-23 -20.5h-684q-14 0 -18 4t-4 19v1388q0 14 4 18.5t18 4.5h684q23 0 23 -20.5t-23 -20.5h-641q-14 0 -17 -3.5t-3 -17.5v-575q0 -14 3 -17.5t17 -3.5h539 q22 0 22 -20.5zM592 1800l-184 -194q-18 -18 -24.5 -19.5t-21.5 10.5q-12 14 -11 20.5t20 24.5l215 205q12 12 24 0l215 -205q18 -18 19.5 -24t-10.5 -21q-14 -12 -20.5 -11t-25.5 20l-184 194q-6 6 -12 0z" glyph-name="Ecircumflex" horiz-adv-x="1114" unicode="Ê"/><glyph d="M864 755.5q0 -20.5 -22 -20.5h-539q-14 0 -17 -3t-3 -17v-654q0 -14 3 -17t17 -3h641q23 0 23 -20.5t-23 -20.5h-684q-14 0 -18 4t-4 19v1388q0 14 4 18.5t18 4.5h684q23 0 23 -20.5t-23 -20.5h-641q-14 0 -17 -3.5t-3 -17.5v-575q0 -14 3 -17.5t17 -3.5h539 q22 0 22 -20.5zM682 1634.5q0 20.5 14.5 34.5t35 14t34.5 -14t14 -34.5t-14 -35t-34.5 -14.5t-35 14.5t-14.5 35zM416 1634.5q0 20.5 14 34.5t34.5 14t35 -14t14.5 -34.5t-14.5 -35t-35 -14.5t-34.5 14.5t-14 35z" glyph-name="Edieresis" horiz-adv-x="1114" unicode="Ë"/><glyph d="M260 0q-14 0 -18 4t-4 19v1388q0 14 4 18.5t18 4.5t18.5 -4.5t4.5 -18.5v-1388q0 -14 -4.5 -18.5t-18.5 -4.5zM373 1597l-234 222q-18 18 -19 24t11 21q14 12 20.5 11t24.5 -20l221 -233q18 -18 6 -30.5t-30 5.5z" glyph-name="Igrave" horiz-adv-x="520" unicode="Ì"/><glyph d="M260 0q-14 0 -18 4t-4 19v1388q0 14 4 18.5t18 4.5t18.5 -4.5t4.5 -18.5v-1388q0 -14 -4.5 -18.5t-18.5 -4.5zM152 1597q-18 -18 -30.5 -5.5t5.5 30.5l221 233q18 18 24.5 19.5t20.5 -10.5q12 -14 11 -20.5t-19 -24.5z" glyph-name="Iacute" horiz-adv-x="520" unicode="Í"/><glyph d="M260 0q-14 0 -18 4t-4 19v1388q0 14 4 18.5t18 4.5t18.5 -4.5t4.5 -18.5v-1388q0 -14 -4.5 -18.5t-18.5 -4.5zM254 1800l-184 -194q-18 -18 -24.5 -19.5t-20.5 10.5q-12 14 -11.5 20.5t19.5 24.5l215 205q12 12 24 0l215 -205q18 -18 19.5 -24t-10.5 -21 q-14 -12 -20.5 -11t-24.5 20l-185 194q-6 6 -12 0z" glyph-name="Icircumflex" horiz-adv-x="520" unicode="Î"/><glyph d="M260 0q-14 0 -18 4t-4 19v1388q0 14 4 18.5t18 4.5t18.5 -4.5t4.5 -18.5v-1388q0 -14 -4.5 -18.5t-18.5 -4.5zM344 1634.5q0 20.5 14.5 34.5t35 14t34.5 -14t14 -34.5t-14 -35t-34.5 -14.5t-35 14.5t-14.5 35zM78 1634.5q0 20.5 14 34.5t34.5 14t35 -14t14.5 -34.5 t-14.5 -35t-35 -14.5t-34.5 14.5t-14 35z" glyph-name="Idieresis" horiz-adv-x="520" unicode="Ï"/><glyph d="M86 974.5q0 20.5 23 20.5h108q14 0 17.5 3t3.5 18v395q0 14 4 18.5t18 4.5h369q260 0 413.5 -161t153.5 -468v-176q0 -307 -153.5 -468t-413.5 -161h-369q-14 0 -18 4t-4 19v911q0 14 -3.5 17t-17.5 3h-108q-23 0 -23 20.5zM283 1372v-356q0 -14 3 -17.5t17 -3.5h207 q23 0 22.5 -20.5t-22.5 -20.5h-207q-14 0 -17 -3t-3 -17v-873q0 -14 3 -17t17 -3h318q248 0 389 150.5t141 441.5v168q0 291 -141.5 441.5t-388.5 150.5h-318q-14 0 -17 -3.5t-3 -17.5z" glyph-name="Eth" horiz-adv-x="1351" unicode="Ð"/><glyph d="M283 1311v-1288q0 -14 -4.5 -18.5t-18.5 -4.5t-18 4t-4 19v1388q0 14 4 18.5t18 4.5t27 -19l839 -1298q4 -8 11.5 -6t7.5 12v1288q0 14 4 18.5t18.5 4.5t18.5 -4.5t4 -18.5v-1388q0 -14 -4 -18.5t-18.5 -4.5t-26.5 18l-840 1299q-4 8 -11 6t-7 -12zM836 1585 q-55 2 -130 55.5t-108 55.5t-60.5 -14.5t-40 -32t-27.5 -38.5t-34 -14q-16 10 -6 29q68 115 164 111q49 -2 120.5 -55.5t119.5 -55.5q70 -2 129 90q12 18 29 8t7 -28q-65 -111 -163 -111z" glyph-name="Ntilde" horiz-adv-x="1427" unicode="Ñ"/><glyph d="M1249 805v-176q0 -324 -152.5 -480.5t-394 -156.5t-394 156.5t-152.5 480.5v176q0 324 152.5 480.5t394 156.5t394 -156.5t152.5 -480.5zM201 801v-168q0 -303 138 -451.5t363.5 -148.5t363.5 148.5t138 451.5v168q0 303 -138 451.5t-363.5 148.5t-363.5 -148.5 t-138 -451.5zM815 1597l-233 222q-18 18 -19.5 24t10.5 21q14 12 20.5 11t24.5 -20l222 -233q18 -18 5.5 -30.5t-30.5 5.5z" glyph-name="Ograve" horiz-adv-x="1404" unicode="Ò"/><glyph d="M1249 805v-176q0 -324 -152.5 -480.5t-394 -156.5t-394 156.5t-152.5 480.5v176q0 324 152.5 480.5t394 156.5t394 -156.5t152.5 -480.5zM201 801v-168q0 -303 138 -451.5t363.5 -148.5t363.5 148.5t138 451.5v168q0 303 -138 451.5t-363.5 148.5t-363.5 -148.5 t-138 -451.5zM647 1597q-18 -18 -30.5 -5.5t6.5 30.5l221 233q18 18 24 19.5t21 -10.5q12 -14 11 -20.5t-19 -24.5z" glyph-name="Oacute" horiz-adv-x="1404" unicode="Ó"/><glyph d="M1249 805v-176q0 -324 -152.5 -480.5t-394 -156.5t-394 156.5t-152.5 480.5v176q0 324 152.5 480.5t394 156.5t394 -156.5t152.5 -480.5zM201 801v-168q0 -303 138 -451.5t363.5 -148.5t363.5 148.5t138 451.5v168q0 303 -138 451.5t-363.5 148.5t-363.5 -148.5 t-138 -451.5zM696 1800l-184 -194q-18 -18 -24.5 -19.5t-20.5 10.5q-12 14 -11 20.5t19 24.5l215 205q12 12 25 0l215 -205q18 -18 19 -24t-11 -21q-14 -12 -20.5 -11t-24.5 20l-184 194q-7 6 -13 0z" glyph-name="Ocircumflex" horiz-adv-x="1404" unicode="Ô"/><glyph d="M1249 805v-176q0 -324 -152.5 -480.5t-394 -156.5t-394 156.5t-152.5 480.5v176q0 324 152.5 480.5t394 156.5t394 -156.5t152.5 -480.5zM201 801v-168q0 -303 138 -451.5t363.5 -148.5t363.5 148.5t138 451.5v168q0 303 -138 451.5t-363.5 148.5t-363.5 -148.5 t-138 -451.5zM823 1585q-55 2 -128.5 55.5t-108.5 55.5q-70 4 -127 -90q-12 -18 -31 -9q-16 10 -6 29q66 115 162 111q47 -2 118.5 -55.5t118.5 -55.5q68 -2 127 90q12 18 30 8t7 -28q-66 -111 -162 -111z" glyph-name="Otilde" horiz-adv-x="1404" unicode="Õ"/><glyph d="M1249 805v-176q0 -324 -152.5 -480.5t-394 -156.5t-394 156.5t-152.5 480.5v176q0 324 152.5 480.5t394 156.5t394 -156.5t152.5 -480.5zM201 801v-168q0 -303 138 -451.5t363.5 -148.5t363.5 148.5t138 451.5v168q0 303 -138 451.5t-363.5 148.5t-363.5 -148.5 t-138 -451.5zM786 1634.5q0 20.5 14.5 34.5t35 14t35 -14t14.5 -34.5t-14.5 -35t-35 -14.5t-35 14.5t-14.5 35zM520 1634.5q0 20.5 14.5 34.5t35 14t34.5 -14t14 -34.5t-14 -35t-34.5 -14.5t-35 14.5t-14.5 35z" glyph-name="Odieresis" horiz-adv-x="1404" unicode="Ö"/><glyph d="M397 715q-10 10 -20 0l-213 -215q-20 -20 -36.5 -6t3.5 34l215 217q10 10 0 21l-215 215q-20 18 -4 34.5t37 -5.5l213 -213q10 -10 20 0l215 215q23 20 37.5 6t-4.5 -35l-217 -217q-10 -10 0 -21l215 -215q20 -18 4 -34.5t-37 6.5z" glyph-name="multiply" horiz-adv-x="776" unicode="×"/><glyph d="M156 805q0 324 152.5 480.5t378.5 156.5t364 -115l51 84q10 16 15 19.5t24 3.5q27 0 12 -23l-70 -113q166 -166 166 -493v-176q0 -324 -152.5 -480.5t-380.5 -156.5t-364 114l-51 -83q-10 -16 -16 -19.5t-23 -3.5q-26 0 -12 23l69 114q-164 168 -163 492v176zM1204 801 q0 301 -145 456l-682 -1114q125 -111 337 -111t351 149t139 452v168zM201 801v-168q0 -303 143 -457l682 1112q-127 113 -338 113t-349 -148.5t-138 -451.5z" glyph-name="Oslash" horiz-adv-x="1404" unicode="Ø"/><glyph d="M1102 1411q0 14 4 18.5t18.5 4.5t18.5 -4.5t4 -18.5v-893q0 -152 -45 -260t-119 -163.5t-150.5 -79t-160.5 -23.5t-161 23.5t-150.5 79t-118.5 164t-45 259.5v893q0 14 4 18.5t18 4.5t18.5 -4.5t4.5 -18.5v-901q0 -246 123.5 -362.5t306 -116.5t306.5 116.5t124 362.5 v901zM743 1597l-233 222q-18 18 -19.5 24t11.5 21q14 12 20 11t25 -20l221 -233q18 -18 5.5 -30.5t-30.5 5.5z" glyph-name="Ugrave" horiz-adv-x="1343" unicode="Ù"/><glyph d="M1102 1411q0 14 4 18.5t18.5 4.5t18.5 -4.5t4 -18.5v-893q0 -152 -45 -260t-119 -163.5t-150.5 -79t-160.5 -23.5t-161 23.5t-150.5 79t-118.5 164t-45 259.5v893q0 14 4 18.5t18 4.5t18.5 -4.5t4.5 -18.5v-901q0 -246 123.5 -362.5t306 -116.5t306.5 116.5t124 362.5 v901zM606 1597q-18 -18 -30.5 -5.5t6.5 30.5l221 233q18 18 24.5 19.5t20.5 -10.5q12 -14 11 -20.5t-19 -24.5z" glyph-name="Uacute" horiz-adv-x="1343" unicode="Ú"/><glyph d="M1102 1411q0 14 4 18.5t18.5 4.5t18.5 -4.5t4 -18.5v-893q0 -152 -45 -260t-119 -163.5t-150.5 -79t-160.5 -23.5t-161 23.5t-150.5 79t-118.5 164t-45 259.5v893q0 14 4 18.5t18 4.5t18.5 -4.5t4.5 -18.5v-901q0 -246 123.5 -362.5t306 -116.5t306.5 116.5t124 362.5 v901zM666 1800l-185 -194q-18 -18 -24 -19.5t-21 10.5q-12 14 -11 20.5t19 24.5l215 205q12 12 25 0l215 -205q18 -18 19.5 -24t-11.5 -21q-14 -12 -20 -11t-25 20l-184 194q-6 6 -12 0z" glyph-name="Ucircumflex" horiz-adv-x="1343" unicode="Û"/><glyph d="M1102 1411q0 14 4 18.5t18.5 4.5t18.5 -4.5t4 -18.5v-893q0 -152 -45 -260t-119 -163.5t-150.5 -79t-160.5 -23.5t-161 23.5t-150.5 79t-118.5 164t-45 259.5v893q0 14 4 18.5t18 4.5t18.5 -4.5t4.5 -18.5v-901q0 -246 123.5 -362.5t306 -116.5t306.5 116.5t124 362.5 v901zM756 1634.5q0 20.5 14 34.5t34.5 14t35 -14t14.5 -34.5t-14.5 -35t-35 -14.5t-34.5 14.5t-14 35zM489 1634.5q0 20.5 14.5 34.5t35 14t35 -14t14.5 -34.5t-14.5 -35t-35 -14.5t-35 14.5t-14.5 35z" glyph-name="Udieresis" horiz-adv-x="1343" unicode="Ü"/><glyph d="M983 1434q25 0 12 -23l-417 -706v-682q0 -14 -4.5 -18.5t-18.5 -4.5t-18.5 4t-4.5 19v682l-417 706q-11 23 13 23t36 -23l379 -645q12 -20 24 0l379 645q12 23 37 23zM489 1597q-18 -18 -30.5 -5.5t6.5 30.5l221 233q18 18 24.5 19.5t20.5 -10.5q12 -14 11 -20.5 t-19 -24.5z" glyph-name="Yacute" horiz-adv-x="1110" unicode="Ý"/><glyph d="M238 1411q0 14 4 18.5t18 4.5t18.5 -4.5t4.5 -18.5v-233q0 -14 3 -17.5t17 -3.5h258q233 0 351 -122t118 -320.5t-117.5 -320.5t-351.5 -122h-258q-14 0 -17 -3t-3 -17v-229q0 -14 -4.5 -18.5t-18.5 -4.5t-18 4t-4 19v1388zM561 313q211 0 317.5 112t106.5 290 t-106.5 289.5t-317.5 111.5h-258q-14 0 -17 -3t-3 -17v-762q0 -14 3 -17.5t17 -3.5h258z" glyph-name="Thorn" horiz-adv-x="1142" unicode="Þ"/><glyph d="M160 23v1075q0 219 166 305q137 71 286 15q201 -76 201 -290q0 -58 -27.5 -122t-89 -132.5t-61.5 -145.5t41 -128t91 -82t91 -85t41 -126q0 -193 -233 -276q-27 -10 -33 8q-11 21 18 31q94 35 150.5 88t56.5 146t-66.5 142.5t-132 104t-65.5 161.5q0 108 61.5 176 t89 125.5t27.5 119.5q0 164 -143.5 237.5t-285.5 -3.5t-142 -280v-1064q0 -23 -20.5 -23t-20.5 23z" glyph-name="germandbls" horiz-adv-x="1021" unicode="ß"/><glyph d="M802.5 0q-20.5 0 -20.5 23v94q-51 -55 -131 -90t-164 -35q-150 0 -252 96t-102 238t102.5 239t251.5 97q84 0 164 -35t131 -90v155q0 141 -89 221t-219 80t-228 -102q-16 -18 -30 -5t1 32q103 114 255 114t251.5 -94t99.5 -252v-663q0 -23 -20.5 -23zM174 328 q0 -125 89 -211t226 -86q174 0 293 123v346q-119 123 -293 123q-137 0 -226 -85t-89 -210zM633 1188l-234 221q-18 18 -19 24.5t11 20.5q14 12 20.5 11t24.5 -19l221 -234q18 -18 6 -30t-30 6z" glyph-name="agrave" horiz-adv-x="999" unicode="à"/><glyph d="M802.5 0q-20.5 0 -20.5 23v94q-51 -55 -131 -90t-164 -35q-150 0 -252 96t-102 238t102.5 239t251.5 97q84 0 164 -35t131 -90v155q0 141 -89 221t-219 80t-228 -102q-16 -18 -30 -5t1 32q103 114 255 114t251.5 -94t99.5 -252v-663q0 -23 -20.5 -23zM174 328 q0 -125 89 -211t226 -86q174 0 293 123v346q-119 123 -293 123q-137 0 -226 -85t-89 -210zM414 1188q-18 -18 -30.5 -6t5.5 30l221 234q18 18 24.5 19t20.5 -11q12 -14 11.5 -20.5t-19.5 -24.5z" glyph-name="aacute" horiz-adv-x="999" unicode="á"/><glyph d="M802.5 0q-20.5 0 -20.5 23v94q-51 -55 -131 -90t-164 -35q-150 0 -252 96t-102 238t102.5 239t251.5 97q84 0 164 -35t131 -90v155q0 141 -89 221t-219 80t-228 -102q-16 -18 -30 -5t1 32q103 114 255 114t251.5 -94t99.5 -252v-663q0 -23 -20.5 -23zM174 328 q0 -125 89 -211t226 -86q174 0 293 123v346q-119 123 -293 123q-137 0 -226 -85t-89 -210zM514 1389l-184 -195q-18 -18 -24.5 -19t-20.5 11q-12 14 -11.5 20t19.5 25l215 205q12 12 24 0l216 -205q18 -18 19 -24.5t-11 -20.5q-14 -12 -20.5 -11t-24.5 19l-185 195 q-6 6 -12 0z" glyph-name="acircumflex" horiz-adv-x="999" unicode="â"/><glyph d="M802.5 0q-20.5 0 -20.5 23v94q-51 -55 -131 -90t-164 -35q-150 0 -252 96t-102 238t102.5 239t251.5 97q84 0 164 -35t131 -90v155q0 141 -89 221t-219 80t-228 -102q-16 -18 -30 -5t1 32q103 114 255 114t251.5 -94t99.5 -252v-663q0 -23 -20.5 -23zM174 328 q0 -125 89 -211t226 -86q174 0 293 123v346q-119 123 -293 123q-137 0 -226 -85t-89 -210zM643 1176q-55 2 -130 55t-108 55t-60.5 -14.5t-39 -31t-27.5 -38.5t-34 -14q-16 10 -6 29q68 115 163 110q49 -2 121 -55t119 -55q70 -2 129 90q12 18 30 8t7 -29 q-66 -110 -164 -110z" glyph-name="atilde" horiz-adv-x="999" unicode="ã"/><glyph d="M802.5 0q-20.5 0 -20.5 23v94q-51 -55 -131 -90t-164 -35q-150 0 -252 96t-102 238t102.5 239t251.5 97q84 0 164 -35t131 -90v155q0 141 -89 221t-219 80t-228 -102q-16 -18 -30 -5t1 32q103 114 255 114t251.5 -94t99.5 -252v-663q0 -23 -20.5 -23zM174 328 q0 -125 89 -211t226 -86q174 0 293 123v346q-119 123 -293 123q-137 0 -226 -85t-89 -210zM604 1224.5q0 20.5 14.5 35t35 14.5t34.5 -14.5t14 -35t-14 -34.5t-34.5 -14t-35 14t-14.5 34.5zM338 1224.5q0 20.5 14.5 35t35 14.5t34.5 -14.5t14 -35t-14 -34.5t-34.5 -14 t-35 14t-14.5 34.5z" glyph-name="adieresis" horiz-adv-x="999" unicode="ä"/><glyph d="M802.5 0q-20.5 0 -20.5 23v94q-51 -55 -131 -90t-164 -35q-150 0 -252 96t-102 238t102.5 239t251.5 97q84 0 164 -35t131 -90v155q0 141 -89 221t-219 80t-228 -102q-16 -18 -30 -5t1 32q103 114 255 114t251.5 -94t99.5 -252v-663q0 -23 -20.5 -23zM174 328 q0 -125 89 -211t226 -86q174 0 293 123v346q-119 123 -293 123q-137 0 -226 -85t-89 -210zM369 1327.5q0 63.5 44 107.5t107.5 44t107.5 -44t44 -107.5t-44 -107.5t-107.5 -44t-107.5 44t-44 107.5zM406 1327q0 -47 33.5 -81t80.5 -34t81 34t34 81t-34 81t-81 34t-80.5 -34 t-33.5 -81z" glyph-name="aring" horiz-adv-x="999" unicode="å"/><glyph d="M474 993q-130 0 -228 -102q-16 -18 -30 -5t1 32q104 115 268 114q109 0 197 -60.5t123 -164.5q86 225 319 225q168 0 263.5 -122t95.5 -335v-59q0 -14 -4 -18t-19 -4h-637v-209q31 -125 117 -189.5t203 -64.5q156 0 266 121q16 20 30.5 5.5t0.5 -30.5 q-121 -135 -295 -135q-225 0 -322 184v-153q0 -23 -20.5 -23t-20.5 23v94q-51 -55 -131 -90t-164 -35q-150 0 -252 96t-102 238t102.5 239t251.5 97q84 0 164 -35t131 -90v155q0 141 -89 221t-219 80zM174 328q0 -125 89 -211t226 -86q174 0 293 123v346q-119 123 -293 123 q-137 0 -226 -85t-89 -210zM1138 993q-125 0 -204.5 -66.5t-110.5 -189.5v-207h598q14 0 17.5 3.5t3.5 17.5v47q0 186 -89.5 290.5t-214.5 104.5z" glyph-name="ae" horiz-adv-x="1640" unicode="æ"/><glyph d="M156 449v126q0 221 102 339t276.5 118t294.5 -135q14 -16 0 -30.5t-30 5.5q-111 121 -263 121t-245.5 -102.5t-93.5 -292.5v-172q0 -190 93.5 -292.5t245.5 -102.5t263 121q16 20 30.5 5.5t-0.5 -30.5q-121 -135 -294 -135q-35 0 -68 6l-41 -139q100 66 196.5 10.5 t96.5 -169.5t-102.5 -168t-196.5 11q-14 9 -4 27t24 8q76 -53 157 -9t81 138q0 63 -49 107.5t-117 40t-113 -69.5q-10 -14 -24.5 -10t-9.5 20l65 209q-129 31 -201.5 144.5t-72.5 300.5z" glyph-name="ccedilla" horiz-adv-x="954" unicode="ç"/><glyph d="M156 449v126q0 213 95 335t263 122t263 -122t95 -335v-59q0 -14 -4 -18t-18 -4h-633q-14 0 -17 -3.5t-3 -17.5v-47q0 -190 93.5 -292.5t245.5 -102.5t263 121q16 20 30.5 5.5t-0.5 -30.5q-121 -135 -295 -135t-276 118t-102 339zM811 530q14 0 17 3.5t3 17.5v47 q0 186 -89 290.5t-228 104.5t-228 -104.5t-89 -290.5v-47q0 -14 3 -17.5t17 -3.5h594zM627 1188l-234 221q-18 18 -19 24.5t11 20.5q14 12 20.5 11t24.5 -19l221 -234q18 -18 6 -30t-30 6z" glyph-name="egrave" horiz-adv-x="1028" unicode="è"/><glyph d="M156 449v126q0 213 95 335t263 122t263 -122t95 -335v-59q0 -14 -4 -18t-18 -4h-633q-14 0 -17 -3.5t-3 -17.5v-47q0 -190 93.5 -292.5t245.5 -102.5t263 121q16 20 30.5 5.5t-0.5 -30.5q-121 -135 -295 -135t-276 118t-102 339zM831 598q0 186 -89 290.5t-228 104.5 t-228 -104.5t-89 -290.5v-47q0 -14 3 -17.5t17 -3.5h594q14 0 17 3.5t3 17.5v47zM449 1188q-18 -18 -30.5 -6t5.5 30l221 234q18 18 24.5 19t20.5 -11q12 -14 11 -20.5t-19 -24.5z" glyph-name="eacute" horiz-adv-x="1028" unicode="é"/><glyph d="M156 449v126q0 213 95 335t263 122t263 -122t95 -335v-59q0 -14 -4 -18t-18 -4h-633q-14 0 -17 -3.5t-3 -17.5v-47q0 -190 93.5 -292.5t245.5 -102.5t263 121q16 20 30.5 5.5t-0.5 -30.5q-121 -135 -295 -135t-276 118t-102 339zM197 551q0 -14 3 -17.5t17 -3.5h594 q14 0 17 3.5t3 17.5v47q0 186 -89 290.5t-228 104.5t-228 -104.5t-89 -290.5v-47zM508 1389l-184 -195q-18 -18 -24.5 -19t-20.5 11q-12 14 -11.5 20t19.5 25l215 205q12 12 24 0l215 -205q18 -18 19.5 -24.5t-10.5 -20.5q-14 -12 -20.5 -11t-24.5 19l-185 195q-6 6 -12 0z " glyph-name="ecircumflex" horiz-adv-x="1028" unicode="ê"/><glyph d="M156 449v126q0 213 95 335t263 122t263 -122t95 -335v-59q0 -14 -4 -18t-18 -4h-633q-14 0 -17 -3.5t-3 -17.5v-47q0 -190 93.5 -292.5t245.5 -102.5t263 121q16 20 30.5 5.5t-0.5 -30.5q-121 -135 -295 -135t-276 118t-102 339zM197 551q0 -14 3 -17.5t17 -3.5h594 q14 0 17 3.5t3 17.5v47q0 186 -89 290.5t-228 104.5t-228 -104.5t-89 -290.5v-47zM332 1224.5q0 20.5 14 35t34.5 14.5t35 -14.5t14.5 -35t-14.5 -34.5t-35 -14t-34.5 14t-14 34.5zM598 1224.5q0 20.5 14.5 35t35 14.5t34.5 -14.5t14 -35t-14 -34.5t-34.5 -14t-35 14 t-14.5 34.5z" glyph-name="edieresis" horiz-adv-x="1028" unicode="ë"/><glyph d="M217.5 0q-20.5 0 -20.5 23v978q0 23 20.5 23t20.5 -23v-978q0 -23 -20.5 -23zM330 1188l-234 221q-18 18 -19 24.5t11 20.5q14 12 20.5 11t24.5 -19l221 -234q18 -18 6 -30t-30 6z" glyph-name="igrave" horiz-adv-x="434" unicode="ì"/><glyph d="M217.5 0q-20.5 0 -20.5 23v978q0 23 20.5 23t20.5 -23v-978q0 -23 -20.5 -23zM111 1188q-18 -18 -30.5 -6t5.5 30l221 234q18 18 24.5 19t20.5 -11q12 -14 11 -20.5t-19 -24.5z" glyph-name="iacute" horiz-adv-x="434" unicode="í"/><glyph d="M217.5 0q-20.5 0 -20.5 23v978q0 23 20.5 23t20.5 -23v-978q0 -23 -20.5 -23zM211 1389l-184 -195q-18 -18 -24.5 -19t-20.5 11q-12 14 -11.5 20t19.5 25l215 205q12 12 24 0l215 -205q18 -18 19.5 -24.5t-10.5 -20.5q-14 -12 -20.5 -11t-24.5 19l-185 195q-6 6 -12 0z " glyph-name="icircumflex" horiz-adv-x="434" unicode="î"/><glyph d="M217.5 0q-20.5 0 -20.5 23v978q0 23 20.5 23t20.5 -23v-978q0 -23 -20.5 -23zM301 1224.5q0 20.5 14.5 35t35 14.5t34.5 -14.5t14 -35t-14 -34.5t-34.5 -14t-35 14t-14.5 34.5zM35 1224.5q0 20.5 14 35t34.5 14.5t35 -14.5t14.5 -35t-14.5 -34.5t-35 -14t-34.5 14 t-14 34.5z" glyph-name="idieresis" horiz-adv-x="434" unicode="ï"/><glyph d="M365 1401q-23 0 -23 20.5t23 20.5q182 0 317 -94l88 69q16 12 31 -4q14 -18 -2 -31l-80 -63q197 -170 196 -514v-356q0 -221 -103 -339t-277.5 -118t-277.5 117.5t-103 339.5v38q0 221 103 339t278 118q123 0 209.5 -63.5t125.5 -180.5v111q0 326 -186 481l-217 -170 q-16 -12 -30.5 4.5t1.5 30.5l209 164q-125 80 -282 80zM534.5 33q149.5 0 242.5 102.5t93 292.5v80q0 190 -93 292.5t-242.5 102.5t-242.5 -102.5t-93 -292.5v-80q0 -190 93 -292.5t242.5 -102.5z" glyph-name="eth" horiz-adv-x="1069" unicode="ð"/><glyph d="M506 993q-146 0 -268 -112v-858q0 -23 -20.5 -23t-20.5 23v978q0 23 20.5 23t20.5 -23v-81q128 112 282 112t244 -91t92 -259v-659q0 -23 -20.5 -23t-20.5 23v653q-2 154 -82.5 235.5t-226.5 81.5zM629 1176q-53 2 -125 52t-105 52t-59.5 -13.5t-36.5 -29.5t-31 -43 q-10 -18 -28 -8q-16 10 -6 28q66 111 157 107q47 -2 117 -53t115 -54q70 -2 125 86q12 18 30 9q16 -10 6 -29q-63 -104 -159 -104z" glyph-name="ntilde" horiz-adv-x="1032" unicode="ñ"/><glyph d="M913 575v-126q0 -221 -102 -339t-276.5 -118t-276.5 117.5t-102 339.5v126q0 221 102 339t276.5 118t276.5 -118t102 -339zM534.5 31q149.5 0 243.5 102.5t94 292.5v172q0 190 -94 292.5t-243.5 102.5t-243.5 -102.5t-94 -292.5v-172q0 -190 94 -292.5t243.5 -102.5z M647 1188l-233 221q-18 18 -19.5 24.5t11.5 20.5q14 12 20 11t25 -19l221 -234q18 -18 5.5 -30t-30.5 6z" glyph-name="ograve" horiz-adv-x="1069" unicode="ò"/><glyph d="M913 575v-126q0 -221 -102 -339t-276.5 -118t-276.5 117.5t-102 339.5v126q0 221 102 339t276.5 118t276.5 -118t102 -339zM534.5 31q149.5 0 243.5 102.5t94 292.5v172q0 190 -94 292.5t-243.5 102.5t-243.5 -102.5t-94 -292.5v-172q0 -190 94 -292.5t243.5 -102.5z M469 1188q-18 -18 -30.5 -6t5.5 30l222 234q18 18 24 19t21 -11q12 -14 11 -20.5t-20 -24.5z" glyph-name="oacute" horiz-adv-x="1069" unicode="ó"/><glyph d="M913 575v-126q0 -221 -102 -339t-276.5 -118t-276.5 117.5t-102 339.5v126q0 221 102 339t276.5 118t276.5 -118t102 -339zM534.5 31q149.5 0 243.5 102.5t94 292.5v172q0 190 -94 292.5t-243.5 102.5t-243.5 -102.5t-94 -292.5v-172q0 -190 94 -292.5t243.5 -102.5z M528 1389l-184 -195q-18 -18 -24.5 -19t-20.5 11q-12 14 -11 20t19 25l215 205q12 12 25 0l215 -205q18 -18 19 -24.5t-11 -20.5q-14 -12 -20.5 -11t-24.5 19l-184 195q-7 6 -13 0z" glyph-name="ocircumflex" horiz-adv-x="1069" unicode="ô"/><glyph d="M913 575v-126q0 -221 -102 -339t-276.5 -118t-276.5 117.5t-102 339.5v126q0 221 102 339t276.5 118t276.5 -118t102 -339zM534.5 31q149.5 0 243.5 102.5t94 292.5v172q0 190 -94 292.5t-243.5 102.5t-243.5 -102.5t-94 -292.5v-172q0 -190 94 -292.5t243.5 -102.5z M649 1174q-53 2 -124.5 52t-104.5 52t-59.5 -13.5t-37 -29t-25.5 -37.5t-34 -14q-16 10 -6 28q66 111 158 107q47 -2 116.5 -53.5t114.5 -53.5q70 -2 125 86q12 18 31 9q16 -10 6 -29q-64 -104 -160 -104z" glyph-name="otilde" horiz-adv-x="1069" unicode="õ"/><glyph d="M913 575v-126q0 -221 -102 -339t-276.5 -118t-276.5 117.5t-102 339.5v126q0 221 102 339t276.5 118t276.5 -118t102 -339zM534.5 31q149.5 0 243.5 102.5t94 292.5v172q0 190 -94 292.5t-243.5 102.5t-243.5 -102.5t-94 -292.5v-172q0 -190 94 -292.5t243.5 -102.5z M618 1224.5q0 20.5 14.5 35t35 14.5t35 -14.5t14.5 -35t-14.5 -34.5t-35 -14t-35 14t-14.5 34.5zM352 1224.5q0 20.5 14.5 35t35 14.5t35 -14.5t14.5 -35t-14.5 -34.5t-35 -14t-35 14t-14.5 34.5z" glyph-name="odieresis" horiz-adv-x="1069" unicode="ö"/><glyph d="M399 446.5q0 20.5 15.5 36t36 15.5t36 -15.5t15.5 -36t-15.5 -36t-36 -15.5t-36 15.5t-15.5 36zM399 1064.5q0 20.5 15.5 36t36 15.5t36 -15.5t15.5 -36t-15.5 -35.5t-36 -15t-36 15t-15.5 35.5zM102 755.5q0 14.5 4.5 18.5t18.5 4h651q14 0 18.5 -4t4.5 -18.5t-4 -18.5 t-19 -4h-651q-14 0 -18.5 4t-4.5 18.5z" glyph-name="divide" horiz-adv-x="901" unicode="÷"/><glyph d="M913 575v-126q0 -221 -102 -339t-275 -118t-274 112l-65 -90q-16 -23 -37 -22q-27 0 -4 28l82 113q-82 117 -82 316v126q0 221 102 339t274 118t275 -112l65 90q16 23 37 22q27 1 4 -28l-84 -115q84 -119 84 -314zM531 31q154 0 247.5 102.5t93.5 292.5v172 q0 156 -67 256l-520 -717q92 -106 246 -106zM197 426q0 -156 65 -258l520 717q-92 109 -244 109t-246.5 -103t-94.5 -293v-172z" glyph-name="oslash" horiz-adv-x="1069" unicode="ø"/><glyph d="M217 1001v-653q2 -154 82 -235.5t218 -81.5t261 98v872q0 23 20.5 23t20.5 -23v-978q0 -23 -20.5 -23t-20.5 23v65q-124 -96 -272 -96t-238 91t-92 259v659q0 23 20.5 23t20.5 -23zM610 1188l-233 221q-18 18 -19.5 24.5t11.5 20.5q14 12 20 11t25 -19l221 -234 q18 -18 5.5 -30t-30.5 6z" glyph-name="ugrave" horiz-adv-x="1015" unicode="ù"/><glyph d="M217 1001v-653q2 -154 82 -235.5t218 -81.5t261 98v872q0 23 20.5 23t20.5 -23v-978q0 -23 -20.5 -23t-20.5 23v65q-124 -96 -272 -96t-238 91t-92 259v659q0 23 20.5 23t20.5 -23zM391 1188q-18 -18 -30.5 -6t6.5 30l221 234q18 18 24 19t21 -11q12 -14 11 -20.5 t-19 -24.5z" glyph-name="uacute" horiz-adv-x="1015" unicode="ú"/><glyph d="M217 1001v-653q2 -154 82 -235.5t218 -81.5t261 98v872q0 23 20.5 23t20.5 -23v-978q0 -23 -20.5 -23t-20.5 23v65q-124 -96 -272 -96t-238 91t-92 259v659q0 23 20.5 23t20.5 -23zM492 1389l-185 -195q-18 -18 -24.5 -19t-20.5 11q-12 14 -11 20t19 25l215 205 q12 12 25 0l215 -205q18 -18 19 -24.5t-11 -20.5q-14 -12 -20 -11t-25 19l-184 195q-6 6 -12 0z" glyph-name="ucircumflex" horiz-adv-x="1015" unicode="û"/><glyph d="M217 1001v-653q2 -154 82 -235.5t218 -81.5t261 98v872q0 23 20.5 23t20.5 -23v-978q0 -23 -20.5 -23t-20.5 23v65q-124 -96 -272 -96t-238 91t-92 259v659q0 23 20.5 23t20.5 -23zM315 1224.5q0 20.5 14.5 35t35 14.5t35 -14.5t14.5 -35t-14.5 -34.5t-35 -14t-35 14 t-14.5 34.5zM582 1224.5q0 20.5 14 35t34.5 14.5t35 -14.5t14.5 -35t-14.5 -34.5t-35 -14t-34.5 14t-14 34.5z" glyph-name="udieresis" horiz-adv-x="1015" unicode="ü"/><glyph d="M109 1024q18 0 26 -23l332 -935q8 -20 16 0l332 935q8 23 27 23q27 0 14 -29l-473 -1327q-76 -213 -262 -168q-20 4 -24.5 9.5t-2.5 19.5q4 18 33 12q158 -37 223 148l92 262q12 34 2 63l-350 981q-12 29 15 29zM369 1188q-18 -18 -30.5 -6t5.5 30l221 234q18 18 24.5 19 t20.5 -11q12 -14 11.5 -20.5t-19.5 -24.5z" glyph-name="yacute" horiz-adv-x="950" unicode="ý"/><glyph d="M217.5 -369q-20.5 0 -20.5 23v1757q0 23 20.5 23t20.5 -23v-496q119 111 260 117q174 6 278.5 -114.5t104.5 -342.5v-126q0 -221 -104.5 -342t-262.5 -115t-276 114v-452q0 -23 -20.5 -23zM840 598q0 193 -96 297t-248 98t-258 -123v-716q106 -117 258 -123t248 98 t96 297v172z" glyph-name="thorn" unicode="þ"/><glyph d="M109 1024q18 0 26 -23l332 -935q8 -20 16 0l332 935q8 23 27 23q27 0 14 -29l-473 -1327q-76 -213 -262 -168q-20 4 -24.5 9.5t-2.5 19.5q4 18 33 12q158 -37 223 148l92 262q12 34 2 63l-350 981q-12 29 15 29zM559 1224.5q0 20.5 14.5 35t35 14.5t34.5 -14.5t14 -35 t-14 -34.5t-34.5 -14t-35 14t-14.5 34.5zM293 1224.5q0 20.5 14.5 35t34.5 14.5t34.5 -14.5t14.5 -35t-14.5 -34.5t-34.5 -14t-34.5 14t-14.5 34.5z" glyph-name="ydieresis" horiz-adv-x="950" unicode="ÿ"/><glyph d="M624.5 1434q22.5 0 30.5 -23l484 -1388q8 -23 -17 -23t-32 23l-136 387q-6 18 -13 23t-28 5h-577q-20 0 -27.5 -5t-13.5 -23l-135 -387q-8 -23 -33 -23t-16 23l483 1388q8 23 30.5 23zM340 479h569q23 0 15 23l-287 831q-2 10 -12.5 10t-12.5 -10l-286 -831 q-8 -23 14 -23zM393 1616q0 14 4 18t19 4h420q14 0 18 -4t4 -18t-4 -18.5t-18 -4.5h-420q-14 0 -18.5 4.5t-4.5 18.5z" glyph-name="Amacron" horiz-adv-x="1249" unicode="Ā"/><glyph d="M802.5 0q-20.5 0 -20.5 23v94q-51 -55 -131 -90t-164 -35q-150 0 -252 96t-102 238t102.5 239t251.5 97q84 0 164 -35t131 -90v155q0 141 -89 221t-219 80t-228 -102q-16 -18 -30 -5t1 32q103 114 255 114t251.5 -94t99.5 -252v-663q0 -23 -20.5 -23zM174 328 q0 -125 89 -211t226 -86q174 0 293 123v346q-119 123 -293 123q-137 0 -226 -85t-89 -210zM289 1206.5q0 14.5 4 18.5t18 4h420q14 0 18.5 -4t4.5 -18.5t-4.5 -18.5t-18.5 -4h-420q-14 0 -18 4t-4 18.5z" glyph-name="amacron" horiz-adv-x="999" unicode="ā"/><glyph d="M624.5 1434q22.5 0 30.5 -23l484 -1388q8 -23 -17 -23t-32 23l-136 387q-6 18 -13 23t-28 5h-577q-20 0 -27.5 -5t-13.5 -23l-135 -387q-8 -23 -33 -23t-16 23l483 1388q8 23 30.5 23zM340 479h569q23 0 15 23l-287 831q-2 10 -12.5 10t-12.5 -10l-286 -831 q-8 -23 14 -23zM625 1585q-86 0 -148.5 55.5t-70.5 163.5q-2 35 16 35t21 -5t6 -30q4 -80 52 -129t123.5 -49t124 49t52.5 129q2 25 5 30t21 5t17 -35q-8 -109 -70.5 -164t-148.5 -55z" glyph-name="Abreve" horiz-adv-x="1249" unicode="Ă"/><glyph d="M802.5 0q-20.5 0 -20.5 23v94q-51 -55 -131 -90t-164 -35q-150 0 -252 96t-102 238t102.5 239t251.5 97q84 0 164 -35t131 -90v155q0 141 -89 221t-219 80t-228 -102q-16 -18 -30 -5t1 32q103 114 255 114t251.5 -94t99.5 -252v-663q0 -23 -20.5 -23zM174 328 q0 -125 89 -211t226 -86q174 0 293 123v346q-119 123 -293 123q-137 0 -226 -85t-89 -210zM520 1176q-86 0 -148.5 55t-70.5 164q-2 35 16 35t21.5 -5.5t5.5 -29.5q4 -80 52 -129t124 -49t124 49t52 129q2 25 5.5 30t21.5 5t16 -35q-8 -109 -70.5 -164t-148.5 -55z" glyph-name="abreve" horiz-adv-x="999" unicode="ă"/><glyph d="M624.5 1434q22.5 0 30.5 -23l484 -1388q6 -20 -6 -23q-70 -23 -96.5 -88.5t9 -128t123.5 -78.5q27 -5 22 -27t-34 -18q-98 14 -144 86t-23.5 153t102.5 117q-2 2 -2 7l-136 387q-6 18 -13 23t-28 5h-577q-20 0 -27.5 -5t-13.5 -23l-135 -387q-8 -23 -33 -23t-16 23 l483 1388q8 23 30.5 23zM340 479h569q23 0 15 23l-287 831q-2 10 -12.5 10t-12.5 -10l-286 -831q-8 -23 14 -23z" glyph-name="Aogonek" horiz-adv-x="1249" unicode="Ą"/><glyph d="M487 -8q-150 0 -252 96t-102 238t102.5 239t251.5 97q84 0 164 -35t131 -90v155q0 141 -89 221t-219 80t-228 -102q-16 -18 -30 -5t1 32q103 114 255 114t251.5 -94t99.5 -252v-663q0 -23 -20 -23q-70 -23 -96.5 -88.5t9.5 -128t124 -78.5q27 -4 20 -29q-4 -20 -33 -16 q-76 12 -122 61.5t-52 107.5t28 114.5t101 81.5v92q-51 -55 -131 -90t-164 -35zM174 328q0 -125 89 -211t226 -86q174 0 293 123v346q-119 123 -293 123q-137 0 -226 -85t-89 -210z" glyph-name="aogonek" horiz-adv-x="999" unicode="ą"/><glyph d="M201 633q0 -307 143.5 -456.5t363.5 -143.5t353 174q12 14 28 -1t3 -32q-141 -176 -381 -182t-397.5 152.5t-157.5 484.5v176q0 326 157.5 484.5t397.5 152.5t381 -182q14 -16 -2 -32t-29 -1q-133 168 -352 174t-363.5 -143.5t-144.5 -456.5v-168zM596 1597 q-18 -18 -30.5 -5.5t5.5 30.5l222 233q18 18 24 19.5t21 -10.5q12 -14 11 -20.5t-20 -24.5z" glyph-name="Cacute" horiz-adv-x="1226" unicode="Ć"/><glyph d="M197 426q0 -190 93.5 -292.5t245.5 -102.5t263 121q16 20 30.5 5.5t-0.5 -30.5q-121 -135 -295 -135t-276 117.5t-102 339.5v126q0 221 102 339t276.5 118t294.5 -135q14 -16 0 -30.5t-30 5.5q-111 121 -263 121t-245.5 -102.5t-93.5 -292.5v-172zM424 1188 q-18 -18 -30.5 -6t5.5 30l222 234q18 18 24 19t21 -11q12 -14 11 -20.5t-20 -24.5z" glyph-name="cacute" horiz-adv-x="954" unicode="ć"/><glyph d="M201 633q0 -307 143.5 -456.5t363.5 -143.5t353 174q12 14 28 -1t3 -32q-141 -176 -381 -182t-397.5 152.5t-157.5 484.5v176q0 326 157.5 484.5t397.5 152.5t381 -182q14 -16 -2 -32t-29 -1q-133 168 -352 174t-363.5 -143.5t-144.5 -456.5v-168zM676 1800l-184 -194 q-18 -18 -24.5 -19.5t-21.5 10.5q-12 14 -11 20.5t20 24.5l215 205q12 12 24 0l215 -205q18 -18 19.5 -24t-10.5 -21q-14 -12 -20.5 -11t-25.5 20l-184 194q-6 6 -12 0z" glyph-name="Ccircumflex" horiz-adv-x="1226" unicode="Ĉ"/><glyph d="M197 426q0 -190 93.5 -292.5t245.5 -102.5t263 121q16 20 30.5 5.5t-0.5 -30.5q-121 -135 -295 -135t-276 117.5t-102 339.5v126q0 221 102 339t276.5 118t294.5 -135q14 -16 0 -30.5t-30 5.5q-111 121 -263 121t-245.5 -102.5t-93.5 -292.5v-172zM494 1391l-185 -195 q-18 -18 -24 -19t-21 11q-12 14 -11 20t19 25l215 205q12 12 25 0l215 -205q18 -18 19.5 -24.5t-11.5 -20.5q-14 -12 -20 -11t-25 19l-184 195q-6 6 -12 0z" glyph-name="ccircumflex" horiz-adv-x="954" unicode="ĉ"/><glyph d="M201 633q0 -307 143.5 -456.5t363.5 -143.5t353 174q12 14 28 -1t3 -32q-141 -176 -381 -182t-397.5 152.5t-157.5 484.5v176q0 326 157.5 484.5t397.5 152.5t381 -182q14 -16 -2 -32t-29 -1q-133 168 -352 174t-363.5 -143.5t-144.5 -456.5v-168zM633 1634.5 q0 20.5 14.5 34.5t34.5 14t34.5 -14t14.5 -34.5t-14.5 -35t-34.5 -14.5t-34.5 14.5t-14.5 35z" glyph-name="Cdotaccent" horiz-adv-x="1226" unicode="Ċ"/><glyph d="M197 426q0 -190 93.5 -292.5t245.5 -102.5t263 121q16 20 30.5 5.5t-0.5 -30.5q-121 -135 -295 -135t-276 117.5t-102 339.5v126q0 221 102 339t276.5 118t294.5 -135q14 -16 0 -30.5t-30 5.5q-111 121 -263 121t-245.5 -102.5t-93.5 -292.5v-172zM451 1224.5 q0 20.5 14 35t34.5 14.5t35 -14.5t14.5 -35t-14.5 -34.5t-35 -14t-34.5 14t-14 34.5z" glyph-name="cdotaccent" horiz-adv-x="954" unicode="ċ"/><glyph d="M201 633q0 -307 143.5 -456.5t363.5 -143.5t353 174q12 14 28 -1t3 -32q-141 -176 -381 -182t-397.5 152.5t-157.5 484.5v176q0 326 157.5 484.5t397.5 152.5t381 -182q14 -16 -2 -32t-29 -1q-133 168 -352 174t-363.5 -143.5t-144.5 -456.5v-168zM492 1833l184 -195 q6 -6 12 0l184 195q18 18 24.5 19t21.5 -11q12 -14 11 -20t-20 -25l-215 -205q-12 -12 -24 0l-215 205q-18 18 -19.5 24.5t10.5 20.5q14 12 21 11t25 -19z" glyph-name="Ccaron" horiz-adv-x="1226" unicode="Č"/><glyph d="M197 426q0 -190 93.5 -292.5t245.5 -102.5t263 121q16 20 30.5 5.5t-0.5 -30.5q-121 -135 -295 -135t-276 117.5t-102 339.5v126q0 221 102 339t276.5 118t294.5 -135q14 -16 0 -30.5t-30 5.5q-111 121 -263 121t-245.5 -102.5t-93.5 -292.5v-172zM309 1425l185 -194 q6 -6 12 0l184 194q18 18 24.5 19.5t20.5 -10.5q12 -14 11 -20.5t-19 -24.5l-215 -205q-12 -12 -25 0l-215 205q-18 18 -19 24t11 21q14 12 20.5 10.5t24.5 -19.5z" glyph-name="ccaron" horiz-adv-x="954" unicode="č"/><glyph d="M1196 805v-176q0 -307 -153.5 -468t-413.5 -161h-369q-14 0 -18 4t-4 19v1388q0 14 4 18.5t18 4.5h369q260 0 413.5 -161t153.5 -468zM283 1372v-1311q0 -14 3 -17t17 -3h318q248 0 389 150.5t141 441.5v168q0 291 -141.5 441.5t-388.5 150.5h-318q-14 0 -17 -3.5 t-3 -17.5zM449 1833l184 -195q6 -6 12 0l184 195q18 18 24.5 19t20.5 -11q12 -14 11.5 -20t-19.5 -25l-215 -205q-12 -12 -24 0l-215 205q-18 18 -19.5 24.5t10.5 20.5q14 12 21 11t25 -19z" glyph-name="Dcaron" horiz-adv-x="1351" unicode="Ď"/><glyph d="M819.5 0q-20.5 0 -20.5 23v83q-117 -108 -275 -114t-263 114.5t-105 342.5v126q0 221 104.5 342t278.5 115q141 -6 260 -117v496q0 23 20.5 23t20.5 -23v-1388q0 -23 -20.5 -23zM197 598v-172q0 -193 96 -297t248 -98t258 123v716q-105 117 -257 123t-248.5 -98 t-96.5 -297zM1055 1487q0 31 17.5 45t37.5 12q68 -12 56.5 -102t-74.5 -168q-12 -16 -22 -9t-1 23q82 137 23 156q-37 12 -37 43z" glyph-name="dcaron" horiz-adv-x="1204" unicode="ď"/><glyph d="M86 974.5q0 20.5 23 20.5h108q14 0 17.5 3t3.5 18v395q0 14 4 18.5t18 4.5h369q260 0 413.5 -161t153.5 -468v-176q0 -307 -153.5 -468t-413.5 -161h-369q-14 0 -18 4t-4 19v911q0 14 -3.5 17t-17.5 3h-108q-23 0 -23 20.5zM283 1372v-356q0 -14 3 -17.5t17 -3.5h207 q23 0 22.5 -20.5t-22.5 -20.5h-207q-14 0 -17 -3t-3 -17v-873q0 -14 3 -17t17 -3h318q248 0 389 150.5t141 441.5v168q0 291 -141.5 441.5t-388.5 150.5h-318q-14 0 -17 -3.5t-3 -17.5z" glyph-name="Dcroat" horiz-adv-x="1351" unicode="Đ"/><glyph d="M799 1231v180q0 23 20.5 23t20.5 -23v-180q0 -14 3 -17.5t17 -3.5h109q23 0 22.5 -18t-22.5 -18h-109q-14 0 -17 -3.5t-3 -17.5v-1130q0 -23 -20.5 -23t-20.5 23v83q-117 -108 -275 -114t-263 114.5t-105 342.5v126q0 221 104.5 342t278.5 115q141 -6 260 -117v238 q0 14 -3 17.5t-18 3.5h-207q-23 0 -22.5 18t22.5 18h207q14 0 17.5 3.5t3.5 17.5zM197 598v-172q0 -193 96 -297t248 -98t258 123v716q-105 117 -257 123t-248.5 -98t-96.5 -297z" glyph-name="dcroat" unicode="đ"/><glyph d="M864 755.5q0 -20.5 -22 -20.5h-539q-14 0 -17 -3t-3 -17v-654q0 -14 3 -17t17 -3h641q23 0 23 -20.5t-23 -20.5h-684q-14 0 -18 4t-4 19v1388q0 14 4 18.5t18 4.5h684q23 0 23 -20.5t-23 -20.5h-641q-14 0 -17 -3.5t-3 -17.5v-575q0 -14 3 -17.5t17 -3.5h539 q22 0 22 -20.5zM367 1616q0 14 4 18t18 4h420q14 0 18 -4t4 -18t-4 -18.5t-18 -4.5h-420q-14 0 -18 4.5t-4 18.5z" glyph-name="Emacron" horiz-adv-x="1114" unicode="Ē"/><glyph d="M156 449v126q0 213 95 335t263 122t263 -122t95 -335v-59q0 -14 -4 -18t-18 -4h-633q-14 0 -17 -3.5t-3 -17.5v-47q0 -190 93.5 -292.5t245.5 -102.5t263 121q16 20 30.5 5.5t-0.5 -30.5q-121 -135 -295 -135t-276 118t-102 339zM831 598q0 186 -89 290.5t-228 104.5 t-228 -104.5t-89 -290.5v-47q0 -14 3 -17.5t17 -3.5h594q14 0 17 3.5t3 17.5v47zM283 1206.5q0 14.5 4 18.5t18 4h420q14 0 18.5 -4t4.5 -18.5t-4.5 -18.5t-18.5 -4h-420q-14 0 -18 4t-4 18.5z" glyph-name="emacron" horiz-adv-x="1028" unicode="ē"/><glyph d="M864 755.5q0 -20.5 -22 -20.5h-539q-14 0 -17 -3t-3 -17v-654q0 -14 3 -17t17 -3h641q23 0 23 -20.5t-23 -20.5h-684q-14 0 -18 4t-4 19v1388q0 14 4 18.5t18 4.5h684q23 0 23 -20.5t-23 -20.5h-641q-14 0 -17 -3.5t-3 -17.5v-575q0 -14 3 -17.5t17 -3.5h539 q22 0 22 -20.5zM598 1585q-86 0 -148.5 55.5t-70.5 163.5q-2 35 16 35t21.5 -5t5.5 -30q4 -80 52 -129t124 -49t124 49t52 129q2 25 5 30t21 5t17 -35q-8 -109 -70.5 -164t-148.5 -55z" glyph-name="Ebreve" horiz-adv-x="1114" unicode="Ĕ"/><glyph d="M156 449v126q0 213 95 335t263 122t263 -122t95 -335v-59q0 -14 -4 -18t-18 -4h-633q-14 0 -17 -3.5t-3 -17.5v-47q0 -190 93.5 -292.5t245.5 -102.5t263 121q16 20 30.5 5.5t-0.5 -30.5q-121 -135 -295 -135t-276 118t-102 339zM197 551q0 -14 3 -17.5t17 -3.5h594 q14 0 17 3.5t3 17.5v47q0 186 -89 290.5t-228 104.5t-228 -104.5t-89 -290.5v-47zM514 1176q-86 0 -148.5 55t-70.5 164q-2 35 16 35t21.5 -5.5t5.5 -29.5q4 -80 52 -129t124 -49t124 49t52 129q2 25 5 30t21 5t17 -35q-8 -109 -70.5 -164t-148.5 -55z" glyph-name="ebreve" horiz-adv-x="1028" unicode="ĕ"/><glyph d="M864 755.5q0 -20.5 -22 -20.5h-539q-14 0 -17 -3t-3 -17v-654q0 -14 3 -17t17 -3h641q23 0 23 -20.5t-23 -20.5h-684q-14 0 -18 4t-4 19v1388q0 14 4 18.5t18 4.5h684q23 0 23 -20.5t-23 -20.5h-641q-14 0 -17 -3.5t-3 -17.5v-575q0 -14 3 -17.5t17 -3.5h539 q22 0 22 -20.5zM549 1634.5q0 20.5 14.5 34.5t34.5 14t34.5 -14t14.5 -34.5t-14.5 -35t-34.5 -14.5t-34.5 14.5t-14.5 35z" glyph-name="Edotaccent" horiz-adv-x="1114" unicode="Ė"/><glyph d="M156 449v126q0 213 95 335t263 122t263 -122t95 -335v-59q0 -14 -4 -18t-18 -4h-633q-14 0 -17 -3.5t-3 -17.5v-47q0 -190 93.5 -292.5t245.5 -102.5t263 121q16 20 30.5 5.5t-0.5 -30.5q-121 -135 -295 -135t-276 118t-102 339zM811 530q14 0 17 3.5t3 17.5v47 q0 186 -89 290.5t-228 104.5t-228 -104.5t-89 -290.5v-47q0 -14 3 -17.5t17 -3.5h594zM465 1224.5q0 20.5 14.5 35t35 14.5t34.5 -14.5t14 -35t-14 -34.5t-34.5 -14t-35 14t-14.5 34.5z" glyph-name="edotaccent" horiz-adv-x="1028" unicode="ė"/><glyph d="M864 755.5q0 -20.5 -22 -20.5h-539q-14 0 -17 -3t-3 -17v-654q0 -14 3 -17t17 -3h641q23 0 23 -20.5t-23 -20.5h-41q-70 -23 -96.5 -88.5t9.5 -128t124 -78.5q27 -5 22 -27t-34 -18q-90 14 -137.5 78.5t-35 140.5t75.5 121h-571q-14 0 -18 4t-4 19v1388q0 14 4 18.5 t18 4.5h684q23 0 23 -20.5t-23 -20.5h-641q-14 0 -17 -3.5t-3 -17.5v-575q0 -14 3 -17.5t17 -3.5h539q22 0 22 -20.5z" glyph-name="Eogonek" horiz-adv-x="1114" unicode="Ę"/><glyph d="M156 449v126q0 213 95 335t263 122t263 -122t95 -335v-59q0 -14 -4 -18t-18 -4h-633q-14 0 -17 -3.5t-3 -17.5v-47q0 -190 93.5 -292.5t245.5 -102.5t263 121q16 20 30.5 5.5t-0.5 -30.5q-90 -100 -215 -127q-70 -23 -96 -88.5t9.5 -128t123.5 -78.5q27 -5 22 -27 t-34 -18q-88 14 -135 75.5t-39 135.5t67 121q-174 2 -275 119t-101 338zM197 551q0 -14 3 -17.5t17 -3.5h594q14 0 17 3.5t3 17.5v47q0 186 -89 290.5t-228 104.5t-228 -104.5t-89 -290.5v-47z" glyph-name="eogonek" horiz-adv-x="1028" unicode="ę"/><glyph d="M864 755.5q0 -20.5 -22 -20.5h-539q-14 0 -17 -3t-3 -17v-654q0 -14 3 -17t17 -3h641q23 0 23 -20.5t-23 -20.5h-684q-14 0 -18 4t-4 19v1388q0 14 4 18.5t18 4.5h684q23 0 23 -20.5t-23 -20.5h-641q-14 0 -17 -3.5t-3 -17.5v-575q0 -14 3 -17.5t17 -3.5h539 q22 0 22 -20.5zM408 1835l184 -195q6 -6 12 0l184 195q18 18 24.5 19t21.5 -11q12 -14 11 -20t-20 -25l-215 -205q-12 -12 -24 0l-215 205q-18 18 -19.5 24.5t10.5 20.5q14 12 21 11t25 -19z" glyph-name="Ecaron" horiz-adv-x="1114" unicode="Ě"/><glyph d="M156 449v126q0 213 95 335t263 122t263 -122t95 -335v-59q0 -14 -4 -18t-18 -4h-633q-14 0 -17 -3.5t-3 -17.5v-47q0 -190 93.5 -292.5t245.5 -102.5t263 121q16 20 30.5 5.5t-0.5 -30.5q-121 -135 -295 -135t-276 118t-102 339zM197 551q0 -14 3 -17.5t17 -3.5h594 q14 0 17 3.5t3 17.5v47q0 186 -89 290.5t-228 104.5t-228 -104.5t-89 -290.5v-47zM324 1423l184 -194q6 -6 12 0l185 194q18 18 24 19.5t21 -10.5q12 -14 11 -20.5t-20 -25.5l-215 -204q-12 -12 -24 0l-215 204q-18 18 -19.5 24.5t11.5 21.5q14 12 20.5 10.5t24.5 -19.5z " glyph-name="ecaron" horiz-adv-x="1028" unicode="ě"/><glyph d="M156 629v176q0 326 157.5 484.5t397.5 152.5t381 -182q14 -16 -2 -32t-29 -1q-133 168 -352 174t-363.5 -143.5t-144.5 -456.5v-168q0 -307 144 -456.5t370 -143.5q106 4 189 45t148.5 124.5t65.5 170.5v342q0 14 -3 17t-17 3h-314q-23 0 -22.5 20.5t22.5 20.5h357 q14 0 18 -4t4 -18v-385q0 -100 -73.5 -192.5t-165.5 -136.5t-209 -48q-244 -6 -401.5 152.5t-157.5 484.5zM682 1800l-184 -194q-18 -18 -24.5 -19.5t-20.5 10.5q-12 14 -11.5 20.5t19.5 24.5l215 205q12 12 24 0l215 -205q18 -18 19.5 -24t-10.5 -21q-14 -12 -20.5 -11 t-24.5 20l-185 194q-6 6 -12 0z" glyph-name="Gcircumflex" horiz-adv-x="1318" unicode="Ĝ"/><glyph d="M158 645q0 166 109.5 276.5t267.5 110.5q109 0 197.5 -56t137.5 -151v176q0 23 20.5 23t20.5 -23v-362q-6 -152 -115.5 -256t-260.5 -104q-113 0 -207 61q-68 -14 -108 -65.5t-40 -111.5t50.5 -115.5t134.5 -59.5h340q115 0 170 -58.5t55 -140.5q0 -121 -110.5 -195.5 t-282.5 -74.5t-283 74.5t-111 203.5t121 174q-57 29 -90 82t-33 115t39 120t107 83q-129 108 -129 274zM197 655.5q0 -139.5 99 -239t238.5 -99.5t238.5 99.5t99 239t-99 238.5t-238.5 99t-238.5 -99t-99 -238.5zM891 -211q0 63 -43 110.5t-141 47.5h-347q-94 -2 -136 -48 t-42 -110q0 -113 106 -171t249 -58t248.5 58t105.5 171zM532 1389l-184 -195q-18 -18 -24.5 -19t-20.5 11q-12 14 -11 20t19 25l215 205q12 12 25 0l215 -205q18 -18 19 -24.5t-11 -20.5q-14 -12 -20 -11t-25 19l-184 195q-7 6 -13 0z" glyph-name="gcircumflex" horiz-adv-x="1060" unicode="ĝ"/><glyph d="M156 629v176q0 326 157.5 484.5t397.5 152.5t381 -182q14 -16 -2 -32t-29 -1q-133 168 -352 174t-363.5 -143.5t-144.5 -456.5v-168q0 -307 144 -456.5t370 -143.5q106 4 189 45t148.5 124.5t65.5 170.5v342q0 14 -3 17t-17 3h-314q-23 0 -22.5 20.5t22.5 20.5h357 q14 0 18 -4t4 -18v-385q0 -100 -73.5 -192.5t-165.5 -136.5t-209 -48q-244 -6 -401.5 152.5t-157.5 484.5zM688 1585q-86 0 -148.5 55.5t-70.5 163.5q-2 35 16 35t21.5 -5t5.5 -30q4 -80 52 -129t124 -49t124 49t52 129q2 25 5 30t21 5t17 -35q-8 -109 -70.5 -164 t-148.5 -55z" glyph-name="Gbreve" horiz-adv-x="1318" unicode="Ğ"/><glyph d="M158 645q0 166 109.5 276.5t267.5 110.5q109 0 197.5 -56t137.5 -151v176q0 23 20.5 23t20.5 -23v-362q-6 -152 -115.5 -256t-260.5 -104q-113 0 -207 61q-68 -14 -108 -65.5t-40 -111.5t50.5 -115.5t134.5 -59.5h340q115 0 170 -58.5t55 -140.5q0 -121 -110.5 -195.5 t-282.5 -74.5t-283 74.5t-111 203.5t121 174q-57 29 -90 82t-33 115t39 120t107 83q-129 108 -129 274zM197 655.5q0 -139.5 99 -239t238.5 -99.5t238.5 99.5t99 239t-99 238.5t-238.5 99t-238.5 -99t-99 -238.5zM891 -211q0 63 -43 110.5t-141 47.5h-347q-94 -2 -136 -48 t-42 -110q0 -113 106 -171t249 -58t248.5 58t105.5 171zM539 1176q-86 0 -148.5 55t-71.5 164q-2 35 19 35q16 0 19 -5.5t5 -29.5q4 -80 52.5 -129t124 -49t124 49t52.5 129q2 25 5 30t21 5t17 -35q-8 -109 -70.5 -164t-148.5 -55z" glyph-name="gbreve" horiz-adv-x="1060" unicode="ğ"/><glyph d="M156 629v176q0 326 157.5 484.5t397.5 152.5t381 -182q14 -16 -2 -32t-29 -1q-133 168 -352 174t-363.5 -143.5t-144.5 -456.5v-168q0 -307 144 -456.5t370 -143.5q106 4 189 45t148.5 124.5t65.5 170.5v342q0 14 -3 17t-17 3h-314q-23 0 -22.5 20.5t22.5 20.5h357 q14 0 18 -4t4 -18v-385q0 -100 -73.5 -192.5t-165.5 -136.5t-209 -48q-244 -6 -401.5 152.5t-157.5 484.5zM639 1634.5q0 20.5 14.5 34.5t35 14t34.5 -14t14 -34.5t-14 -35t-34.5 -14.5t-35 14.5t-14.5 35z" glyph-name="Gdotaccent" horiz-adv-x="1318" unicode="Ġ"/><glyph d="M158 645q0 166 109.5 276.5t267.5 110.5q109 0 197.5 -56t137.5 -151v176q0 23 20.5 23t20.5 -23v-362q-6 -152 -115.5 -256t-260.5 -104q-113 0 -207 61q-68 -14 -108 -65.5t-40 -111.5t50.5 -115.5t134.5 -59.5h340q115 0 170 -58.5t55 -140.5q0 -121 -110.5 -195.5 t-282.5 -74.5t-283 74.5t-111 203.5t121 174q-57 29 -90 82t-33 115t39 120t107 83q-129 108 -129 274zM197 655.5q0 -139.5 99 -239t238.5 -99.5t238.5 99.5t99 239t-99 238.5t-238.5 99t-238.5 -99t-99 -238.5zM891 -211q0 63 -43 110.5t-141 47.5h-347q-94 -2 -136 -48 t-42 -110q0 -113 106 -171t249 -58t248.5 58t105.5 171zM489 1224.5q0 20.5 14.5 35t35 14.5t35 -14.5t14.5 -35t-14.5 -34.5t-35 -14t-35 14t-14.5 34.5z" glyph-name="gdotaccent" horiz-adv-x="1060" unicode="ġ"/><glyph d="M1163 369q0 -100 -73.5 -192.5t-166 -136.5t-208.5 -48q-244 -6 -401.5 152.5t-157.5 484.5v176q0 326 157.5 484.5t397.5 152.5t381 -182q14 -16 -2 -32t-29 -1q-133 168 -352 174t-363.5 -143.5t-144.5 -456.5v-168q0 -307 144 -456.5t370 -143.5q106 4 189 45 t148.5 124.5t65.5 170.5v342q0 14 -3 17t-17 3h-314q-23 0 -22.5 20.5t22.5 20.5h357q14 0 18 -4t4 -18v-385zM627 -201q0 31 17.5 45.5t37.5 12.5q68 -12 56.5 -102.5t-74.5 -168.5q-12 -16 -22 -9t-1 24q82 137 23 155q-37 12 -37 43z" glyph-name="Gcommaaccent" horiz-adv-x="1318" unicode="Ģ"/><glyph d="M158 645q0 166 109.5 276.5t267.5 110.5q109 0 197.5 -56t137.5 -151v176q0 23 20.5 23t20.5 -23v-362q-6 -152 -115.5 -256t-260.5 -104q-113 0 -207 61q-68 -14 -108 -65.5t-40 -111.5t50.5 -115.5t134.5 -59.5h340q115 0 170 -58.5t55 -140.5q0 -121 -110.5 -195.5 t-282.5 -74.5t-283 74.5t-111 203.5t121 174q-57 29 -90 82t-33 115t39 120t107 83q-129 108 -129 274zM197 655.5q0 -139.5 99 -239t238.5 -99.5t238.5 99.5t99 239t-99 238.5t-238.5 99t-238.5 -99t-99 -238.5zM891 -211q0 63 -43 110.5t-141 47.5h-347q-94 -2 -136 -48 t-42 -110q0 -113 106 -171t249 -58t248.5 58t105.5 171zM606 1233q0 -31 -17.5 -45t-37.5 -12q-68 12 -56.5 102t74.5 168q13 16 23 9t0 -23q-82 -137 -23 -156q37 -12 37 -43z" glyph-name="gcommaaccent" horiz-adv-x="1060" unicode="ģ"/><glyph d="M1049 715q0 14 -3.5 17t-17.5 3h-725q-14 0 -17 -3t-3 -17v-692q0 -14 -4.5 -18.5t-18.5 -4.5t-18 4t-4 19v1388q0 14 4 18.5t18 4.5t18.5 -4.5t4.5 -18.5v-614q0 -14 3 -17.5t17 -3.5h725q14 0 17.5 3t3.5 18v614q0 14 4 18.5t18 4.5t18.5 -4.5t4.5 -18.5v-1388 q0 -14 -4.5 -18.5t-18.5 -4.5t-18 4t-4 19v692zM659 1800l-184 -194q-18 -18 -24.5 -19.5t-20.5 10.5q-12 14 -11 20.5t19 24.5l215 205q12 12 25 0l215 -205q18 -18 19 -24t-11 -21q-14 -12 -20.5 -11t-24.5 20l-184 194q-7 6 -13 0z" glyph-name="Hcircumflex" horiz-adv-x="1331" unicode="Ĥ"/><glyph d="M506 993q-146 0 -268 -112v-858q0 -23 -20.5 -23t-20.5 23v1388q0 23 20.5 23t20.5 -23v-491q128 112 282 112t244 -91t92 -259v-659q0 -23 -20.5 -23t-20.5 23v653q-2 154 -82.5 235.5t-226.5 81.5zM211 1802l-184 -194q-18 -18 -24.5 -19.5t-20.5 10.5 q-12 14 -11.5 20.5t19.5 25.5l215 204q12 12 24 0l215 -204q18 -18 19.5 -24.5t-10.5 -21.5q-14 -12 -20.5 -11t-24.5 20l-185 194q-6 6 -12 0z" glyph-name="hcircumflex" horiz-adv-x="1032" unicode="ĥ"/><glyph d="M1249 1157.5q0 -20.5 -22 -20.5h-113q-14 0 -17 -3.5t-3 -17.5v-1093q0 -14 -4.5 -18.5t-18.5 -4.5t-18 4t-4 19v692q0 14 -3.5 17t-17.5 3h-725q-14 0 -17 -3t-3 -17v-692q0 -14 -4.5 -18.5t-18.5 -4.5t-18 4t-4 19v1093q0 14 -3.5 17.5t-17.5 3.5h-113 q-23 0 -22.5 20.5t22.5 20.5h113q14 0 17.5 3t3.5 17v213q0 14 4 18.5t18 4.5t18.5 -4.5t4.5 -18.5v-213q0 -14 3 -17t17 -3h725q14 0 17.5 3t3.5 17v213q0 14 4 18.5t18 4.5t18.5 -4.5t4.5 -18.5v-213q0 -14 3 -17t17 -3h113q22 0 22 -20.5zM1049 1116q0 14 -3.5 17.5 t-17.5 3.5h-725q-14 0 -17 -3.5t-3 -17.5v-319q0 -14 3 -17.5t17 -3.5h725q14 0 17.5 3t3.5 18v319z" glyph-name="Hbar" horiz-adv-x="1331" unicode="Ħ"/><glyph d="M238 23q0 -23 -20.5 -23t-20.5 23v1130q0 14 -3.5 17.5t-17.5 3.5h-108q-23 0 -23 18t23 18h108q14 0 17.5 3.5t3.5 17.5v180q0 23 20.5 23t20.5 -23v-180q0 -14 3 -17.5t17 -3.5h207q23 0 22.5 -18t-22.5 -18h-207q-14 0 -17 -3.5t-3 -17.5v-233q128 112 282 112 t244 -91t92 -259v-659q0 -23 -20.5 -23t-20.5 23v659q-2 150 -81.5 231.5t-229.5 78.5t-266 -109v-860z" glyph-name="hbar" horiz-adv-x="1032" unicode="ħ"/><glyph d="M260 0q-14 0 -18 4t-4 19v1388q0 14 4 18.5t18 4.5t18.5 -4.5t4.5 -18.5v-1388q0 -14 -4.5 -18.5t-18.5 -4.5zM381 1585q-55 2 -130 55.5t-108 55.5t-60.5 -14.5t-39 -32t-27.5 -38.5t-34 -14q-16 10 -7 29q68 115 164 111q49 -2 121 -55.5t119 -55.5q70 -2 129 90 q12 18 30 8t7 -28q-66 -111 -164 -111z" glyph-name="Itilde" horiz-adv-x="520" unicode="Ĩ"/><glyph d="M217.5 0q-20.5 0 -20.5 23v978q0 23 20.5 23t20.5 -23v-978q0 -23 -20.5 -23zM338 1176q-55 2 -130 55t-108 55t-60.5 -14.5t-39.5 -31t-28 -38.5t-33 -14q-16 10 -7 29q68 115 164 110q49 -2 121 -55t119 -55q70 -2 129 90q11 18 29 8t8 -29q-66 -110 -164 -110z" glyph-name="itilde" horiz-adv-x="434" unicode="ĩ"/><glyph d="M260 0q-14 0 -18 4t-4 19v1388q0 14 4 18.5t18 4.5t18.5 -4.5t4.5 -18.5v-1388q0 -14 -4.5 -18.5t-18.5 -4.5zM29 1616q0 14 4 18t18 4h420q14 0 18.5 -4t4.5 -18t-4.5 -18.5t-18.5 -4.5h-420q-14 0 -18 4.5t-4 18.5z" glyph-name="Imacron" horiz-adv-x="520" unicode="Ī"/><glyph d="M217.5 0q-20.5 0 -20.5 23v978q0 23 20.5 23t20.5 -23v-978q0 -23 -20.5 -23zM-14 1206.5q0 14.5 4 18.5t18 4h420q14 0 18.5 -4t4.5 -18.5t-4.5 -18.5t-18.5 -4h-420q-14 0 -18 4t-4 18.5z" glyph-name="imacron" horiz-adv-x="434" unicode="ī"/><glyph d="M260 0q-14 0 -18 4t-4 19v1388q0 14 4 18.5t18 4.5t18.5 -4.5t4.5 -18.5v-1388q0 -14 -4.5 -18.5t-18.5 -4.5zM260 1585q-86 0 -148.5 55.5t-70.5 163.5q-2 35 16 35t21.5 -5t5.5 -30q4 -80 52 -129t124 -49t124 49t52 129q2 25 5 30t21 5t17 -35q-8 -109 -70.5 -164 t-148.5 -55z" glyph-name="Ibreve" horiz-adv-x="520" unicode="Ĭ"/><glyph d="M217.5 0q-20.5 0 -20.5 23v978q0 23 20.5 23t20.5 -23v-978q0 -23 -20.5 -23zM217 1176q-86 0 -148.5 55t-70.5 164q-2 35 16 35t21.5 -5.5t5.5 -29.5q4 -80 52 -129t124 -49t124 49t52 129q2 25 5.5 30t21.5 5t16 -35q-8 -109 -70.5 -164t-148.5 -55z" glyph-name="ibreve" horiz-adv-x="434" unicode="ĭ"/><glyph d="M238 1411q0 14 4 18.5t18 4.5t18.5 -4.5t4.5 -18.5v-1388q0 -14 -4.5 -18.5t-18.5 -4.5q-70 -23 -96.5 -88.5t9.5 -128t124 -78.5q27 -4 20 -29q-4 -20 -32 -16q-100 16 -146.5 91t-17.5 158t117 116v1386z" glyph-name="Iogonek" horiz-adv-x="520" unicode="Į"/><glyph d="M197 1001q0 23 20.5 23t20.5 -23v-978q-1 -23 -21 -23q-70 -23 -96.5 -88.5t9.5 -128t124 -78.5q27 -4 20 -29q-4 -20 -32 -16q-76 12 -122 61.5t-52.5 107.5t27.5 114.5t102 81.5v976zM168 1224.5q0 20.5 14.5 35t35 14.5t34.5 -14.5t14 -35t-14 -34.5t-34.5 -14t-35 14 t-14.5 34.5z" glyph-name="iogonek" horiz-adv-x="434" unicode="į"/><glyph d="M260 0q-14 0 -18 4t-4 19v1388q0 14 4 18.5t18 4.5t18.5 -4.5t4.5 -18.5v-1388q0 -14 -4.5 -18.5t-18.5 -4.5zM211 1634.5q0 20.5 14.5 34.5t35 14t34.5 -14t14 -34.5t-14 -35t-34.5 -14.5t-35 14.5t-14.5 35z" glyph-name="Idotaccent" horiz-adv-x="520" unicode="İ"/><glyph d="M217.5 0q-20.5 0 -20.5 23v978q0 23 20.5 23t20.5 -23v-978q0 -23 -20.5 -23z" glyph-name="dotlessi" horiz-adv-x="434" unicode="ı"/><glyph d="M695 33q133 0 221 78.5t88 220.5v1079q0 14 4 18.5t18 4.5t18.5 -4.5t4.5 -18.5v-1073q0 -158 -99.5 -252t-251.5 -94t-258 114q-14 18 0 32t33 -5q89 -100 222 -100zM260 0q-14 0 -18 4t-4 19v1388q0 14 4 18.5t18 4.5t18.5 -4.5t4.5 -18.5v-1388q0 -14 -4.5 -18.5 t-18.5 -4.5z" glyph-name="IJ" horiz-adv-x="1245" unicode="Ĳ"/><glyph d="M255 -469q79 0 134 53.5t55 141.5v1275q0 23 20.5 23t20.5 -23v-1277q0 -102 -67.5 -167t-165.5 -65t-170 84q-12 16 0 28.5t29 -3.5q65 -70 144 -70zM217.5 0q-20.5 0 -20.5 23v978q0 23 20.5 23t20.5 -23v-978q0 -23 -20.5 -23zM168 1224.5q0 20.5 14.5 35t35 14.5 t34.5 -14.5t14 -35t-14 -34.5t-34.5 -14t-35 14t-14.5 34.5zM416 1224.5q0 20.5 14 35t34.5 14.5t35 -14.5t14.5 -35t-14.5 -34.5t-35 -14t-34.5 14t-14 34.5z" glyph-name="ij" horiz-adv-x="681" unicode="ĳ"/><glyph d="M338 33q133 0 221 78.5t88 220.5v1079q0 14 4 18.5t18.5 4.5t18.5 -4.5t4 -18.5v-1073q0 -158 -99 -252t-252 -94t-257 114q-14 18 0 32t33 -5q88 -100 221 -100zM664 1800l-185 -194q-18 -18 -24 -19.5t-21 10.5q-12 14 -11 20.5t19 24.5l215 205q12 12 25 0l215 -205 q18 -18 19.5 -24t-11.5 -21q-14 -12 -20 -11t-25 20l-184 194q-6 6 -12 0z" glyph-name="Jcircumflex" horiz-adv-x="888" unicode="Ĵ"/><glyph d="M197 1001q0 23 20.5 23t20.5 -23v-1277q0 -102 -68 -167t-166 -65t-170 84q-12 16 0 28.5t29 -3.5q67 -70 145 -70t133.5 53.5t55.5 141.5v1275zM211 1389l-184 -195q-18 -18 -24.5 -19t-20.5 11q-12 14 -11.5 20t19.5 25l215 205q12 12 24 0l215 -205q18 -18 19.5 -24.5 t-10.5 -20.5q-14 -12 -20.5 -11t-24.5 19l-185 195q-6 6 -12 0z" glyph-name="jcircumflex" horiz-adv-x="434" unicode="ĵ"/><glyph d="M1053.5 8.5q0.5 -8.5 -19.5 -8.5t-39 23l-532 696q-12 18 -29 0l-129 -148q-23 -27 -22 -61v-487q0 -14 -4.5 -18.5t-18.5 -4.5t-18 4t-4 19v1388q0 14 4 18.5t18 4.5t18.5 -4.5t4.5 -18.5v-774q0 -12 8 -14t14 6l688 782q19 23 37 23t22.5 -7.5t-1.5 -15.5l-551 -627 q-12 -14 -12.5 -21t12.5 -24l549 -716q4 -6 4.5 -14.5zM557 -199q0 31 17.5 45.5t37.5 12.5q68 -12 56.5 -102.5t-74.5 -168.5q-12 -16 -22 -9t-1 24q82 137 23 155q-37 12 -37 43z" glyph-name="Kcommaaccent" horiz-adv-x="1140" unicode="Ķ"/><glyph d="M217.5 0q-20.5 0 -20.5 23v1388q0 23 20.5 23t20.5 -23v-1003q0 -14 8 -12.5t10 5.5l477 600q18 23 41 23q29 0 8 -25l-313 -393q-8 -10 0 -24l336 -557q14 -25 -8 -25t-37 23l-320 528q-8 14 -20 0l-166 -209q-16 -23 -16 -70v-249q0 -23 -20.5 -23zM406 -201 q0 31 17 45.5t38 12.5q68 -12 56.5 -102.5t-75.5 -168.5q-12 -16 -22 -9t0 24q82 137 22 155q-36 12 -36 43z" glyph-name="kcommaaccent" horiz-adv-x="901" unicode="ķ"/><glyph d="M260 0q-14 0 -18 4t-4 19v1388q0 14 4 18.5t18 4.5t18.5 -4.5t4.5 -18.5v-1350q0 -14 3 -17t17 -3h543q23 0 22.5 -20.5t-22.5 -20.5h-586zM152 1597q-18 -18 -30.5 -5.5t5.5 30.5l221 233q18 18 24.5 19.5t20.5 -10.5q12 -14 11 -20.5t-19 -24.5z" glyph-name="Lacute" horiz-adv-x="954" unicode="Ĺ"/><glyph d="M465 0h-2q-121 0 -204 68.5t-83 210.5v1132q0 23 20.5 23t20.5 -23v-1130q0 -127 70.5 -184.5t175.5 -57.5h2q23 0 22 -21q1 -18 -22 -18zM88 1597q-18 -18 -30.5 -5.5t5.5 30.5l222 233q18 18 24 19.5t21 -10.5q12 -14 11 -20.5t-19 -24.5z" glyph-name="lacute" horiz-adv-x="573" unicode="ĺ"/><glyph d="M260 0q-14 0 -18 4t-4 19v1388q0 14 4 18.5t18 4.5t18.5 -4.5t4.5 -18.5v-1350q0 -14 3 -17t17 -3h543q23 0 22.5 -20.5t-22.5 -20.5h-586zM477 -201q0 31 17.5 45.5t37.5 12.5q68 -12 57 -102.5t-75 -168.5q-12 -16 -22 -9t0 24q82 137 22 155q-37 12 -37 43z" glyph-name="Lcommaaccent" horiz-adv-x="954" unicode="Ļ"/><glyph d="M465 0h-2q-121 0 -204 68.5t-83 210.5v1132q0 23 20.5 23t20.5 -23v-1130q0 -127 70.5 -184.5t175.5 -57.5h2q23 0 22 -21q1 -18 -22 -18zM289 -201q0 31 17.5 45.5t37.5 12.5q68 -12 56.5 -102.5t-74.5 -168.5q-12 -16 -22 -9t-1 24q82 137 23 155q-37 12 -37 43z" glyph-name="lcommaaccent" horiz-adv-x="573" unicode="ļ"/><glyph d="M260 0q-14 0 -18 4t-4 19v1388q0 14 4 18.5t18 4.5t18.5 -4.5t4.5 -18.5v-1350q0 -14 3 -17t17 -3h543q23 0 22.5 -20.5t-22.5 -20.5h-586zM70 1833l184 -195q6 -6 12 0l185 195q18 18 24 19t21 -11q12 -14 11 -20t-20 -25l-215 -205q-12 -12 -24 0l-215 205 q-18 18 -19.5 24.5t11.5 20.5q14 12 20.5 11t24.5 -19z" glyph-name="Lcaron" horiz-adv-x="954" unicode="Ľ"/><glyph d="M465 0h-2q-121 0 -204 68.5t-83 210.5v1132q0 23 20.5 23t20.5 -23v-1130q0 -127 70.5 -184.5t175.5 -57.5h2q23 0 22 -21q1 -18 -22 -18zM426 1489q0 31 17.5 45t37.5 12q68 -12 56.5 -102t-74.5 -168q-13 -16 -23 -9t0 23q82 137 23 156q-37 12 -37 43z" glyph-name="lcaron" horiz-adv-x="573" unicode="ľ"/><glyph d="M260 0q-14 0 -18 4t-4 19v1388q0 14 4 18.5t18 4.5t18.5 -4.5t4.5 -18.5v-1350q0 -14 3 -17t17 -3h543q23 0 22.5 -20.5t-22.5 -20.5h-586zM485 966.5q0 20.5 14.5 35t35 14.5t35 -14.5t14.5 -35t-14.5 -34.5t-35 -14t-35 14t-14.5 34.5z" glyph-name="Ldot" horiz-adv-x="954" unicode="Ŀ"/><glyph d="M465 0h-2q-121 0 -204 68.5t-83 210.5v1132q0 23 20.5 23t20.5 -23v-1130q0 -127 70.5 -184.5t175.5 -57.5h2q23 0 22 -21q1 -18 -22 -18zM395 753.5q0 20.5 15.5 36t36 15.5t36 -15.5t15.5 -36t-15.5 -36t-36 -15.5t-36 15.5t-15.5 36z" glyph-name="ldot" horiz-adv-x="573" unicode="ŀ"/><glyph d="M283 61q0 -14 3 -17t17 -3h543q23 0 22.5 -20.5t-22.5 -20.5h-586q-14 0 -18 4t-4 19v686l-179 -78q-14 -6 -20 10q-8 16 6 23l193 86v661q0 14 4 18.5t18 4.5t18.5 -4.5t4.5 -18.5v-641l301 133q14 5 21 -11t-7 -22l-315 -141v-668z" glyph-name="Lslash" horiz-adv-x="954" unicode="Ł"/><glyph d="M580 0h-2q-121 0 -204 68.5t-83 210.5v516l-180 -80q-13 -6 -21 10t6 23l195 86v577q0 23 20.5 23t20.5 -23v-559l229 102q13 6 21 -10t-7 -22l-243 -109v-532q0 -127 70.5 -184.5t175.5 -57.5h2q23 0 22 -21q1 -18 -22 -18z" glyph-name="lslash" horiz-adv-x="688" unicode="ł"/><glyph d="M283 1311v-1288q0 -14 -4.5 -18.5t-18.5 -4.5t-18 4t-4 19v1388q0 14 4 18.5t18 4.5t27 -19l839 -1298q4 -8 11.5 -6t7.5 12v1288q0 14 4 18.5t18.5 4.5t18.5 -4.5t4 -18.5v-1388q0 -14 -4 -18.5t-18.5 -4.5t-26.5 18l-840 1299q-4 8 -11 6t-7 -12zM645 1597 q-18 -18 -30.5 -5.5t6.5 30.5l221 233q18 18 24 19.5t21 -10.5q12 -14 11 -20.5t-19 -24.5z" glyph-name="Nacute" horiz-adv-x="1427" unicode="Ń"/><glyph d="M506 993q-146 0 -268 -112v-858q0 -23 -20.5 -23t-20.5 23v978q0 23 20.5 23t20.5 -23v-81q128 112 282 112t244 -91t92 -259v-659q0 -23 -20.5 -23t-20.5 23v653q-2 154 -82.5 235.5t-226.5 81.5zM461 1188q-18 -18 -30.5 -6t5.5 30l221 234q18 18 24.5 19t20.5 -11 q12 -14 11.5 -20.5t-19.5 -24.5z" glyph-name="nacute" horiz-adv-x="1032" unicode="ń"/><glyph d="M283 1311v-1288q0 -14 -4.5 -18.5t-18.5 -4.5t-18 4t-4 19v1388q0 14 4 18.5t18 4.5t27 -19l839 -1298q4 -8 11.5 -6t7.5 12v1288q0 14 4 18.5t18.5 4.5t18.5 -4.5t4 -18.5v-1388q0 -14 -4 -18.5t-18.5 -4.5t-26.5 18l-840 1299q-4 8 -11 6t-7 -12zM649 -199 q0 31 17.5 45.5t38.5 12.5q68 -12 56.5 -102.5t-75.5 -168.5q-12 -16 -22 -9t0 24q82 137 22 155q-37 12 -37 43z" glyph-name="Ncommaaccent" horiz-adv-x="1427" unicode="Ņ"/><glyph d="M506 993q-146 0 -268 -112v-858q0 -23 -20.5 -23t-20.5 23v978q0 23 20.5 23t20.5 -23v-81q128 112 282 112t244 -91t92 -259v-659q0 -23 -20.5 -23t-20.5 23v653q-2 154 -82.5 235.5t-226.5 81.5zM459 -201q0 31 17.5 45.5t37.5 12.5q68 -12 56.5 -102.5t-74.5 -168.5 q-12 -16 -22 -9t-1 24q82 137 23 155q-37 12 -37 43z" glyph-name="ncommaaccent" horiz-adv-x="1032" unicode="ņ"/><glyph d="M283 1311v-1288q0 -14 -4.5 -18.5t-18.5 -4.5t-18 4t-4 19v1388q0 14 4 18.5t18 4.5t27 -19l839 -1298q4 -8 11.5 -6t7.5 12v1288q0 14 4 18.5t18.5 4.5t18.5 -4.5t4 -18.5v-1388q0 -14 -4 -18.5t-18.5 -4.5t-26.5 18l-840 1299q-4 8 -11 6t-7 -12zM520 1833l185 -195 q6 -6 12 0l184 195q18 18 24.5 19t20.5 -11q12 -14 11 -20t-19 -25l-215 -205q-12 -12 -25 0l-215 205q-18 18 -19 24.5t11 20.5q14 12 20.5 11t24.5 -19z" glyph-name="Ncaron" horiz-adv-x="1427" unicode="Ň"/><glyph d="M506 993q-146 0 -268 -112v-858q0 -23 -20.5 -23t-20.5 23v978q0 23 20.5 23t20.5 -23v-81q128 112 282 112t244 -91t92 -259v-659q0 -23 -20.5 -23t-20.5 23v653q-2 154 -82.5 235.5t-226.5 81.5zM324 1423l184 -194q6 -6 12 0l185 194q18 18 24 19.5t21 -10.5 q12 -14 11 -20.5t-20 -25.5l-215 -204q-12 -12 -24 0l-215 204q-18 18 -19.5 24.5t11.5 21.5q14 12 20.5 10.5t24.5 -19.5z" glyph-name="ncaron" horiz-adv-x="1032" unicode="ň"/><glyph d="M527 993q-147 0 -269 -112v-858q0 -23 -20.5 -23t-20.5 23v978q0 23 20.5 23t20.5 -23v-81q127 112 282 112t244.5 -91t92.5 -259v-659q0 -23 -20.5 -23t-20.5 23v653q-2 154 -82 235.5t-227 81.5zM33 1487q0 31 17.5 45t37.5 12q68 -12 56.5 -102t-74.5 -168 q-12 -16 -22 -9t-1 23q82 137 23 156q-37 12 -37 43z" glyph-name="napostrophe" horiz-adv-x="1052" unicode="ŉ"/><glyph d="M1249 805v-176q0 -324 -152.5 -480.5t-394 -156.5t-394 156.5t-152.5 480.5v176q0 324 152.5 480.5t394 156.5t394 -156.5t152.5 -480.5zM201 801v-168q0 -303 138 -451.5t363.5 -148.5t363.5 148.5t138 451.5v168q0 303 -138 451.5t-363.5 148.5t-363.5 -148.5 t-138 -451.5zM471 1616q0 14 4 18t19 4h419q14 0 18.5 -4t4.5 -18t-4 -18.5t-19 -4.5h-419q-14 0 -18.5 4.5t-4.5 18.5z" glyph-name="Omacron" horiz-adv-x="1404" unicode="Ō"/><glyph d="M913 575v-126q0 -221 -102 -339t-276.5 -118t-276.5 117.5t-102 339.5v126q0 221 102 339t276.5 118t276.5 -118t102 -339zM534.5 31q149.5 0 243.5 102.5t94 292.5v172q0 190 -94 292.5t-243.5 102.5t-243.5 -102.5t-94 -292.5v-172q0 -190 94 -292.5t243.5 -102.5z M303 1206.5q0 14.5 4 18.5t19 4h419q14 0 18.5 -4t4.5 -18.5t-4 -18.5t-19 -4h-419q-14 0 -18.5 4t-4.5 18.5z" glyph-name="omacron" horiz-adv-x="1069" unicode="ō"/><glyph d="M1249 805v-176q0 -324 -152.5 -480.5t-394 -156.5t-394 156.5t-152.5 480.5v176q0 324 152.5 480.5t394 156.5t394 -156.5t152.5 -480.5zM201 801v-168q0 -303 138 -451.5t363.5 -148.5t363.5 148.5t138 451.5v168q0 303 -138 451.5t-363.5 148.5t-363.5 -148.5 t-138 -451.5zM702 1585q-86 0 -148 55.5t-71 163.5q-2 35 19 35q16 0 19 -5t5 -30q4 -80 52.5 -129t124 -49t123.5 49t53 129q2 25 5 30t21 5t17 -35q-8 -109 -71 -164t-149 -55z" glyph-name="Obreve" horiz-adv-x="1404" unicode="Ŏ"/><glyph d="M913 575v-126q0 -221 -102 -339t-276.5 -118t-276.5 117.5t-102 339.5v126q0 221 102 339t276.5 118t276.5 -118t102 -339zM534.5 31q149.5 0 243.5 102.5t94 292.5v172q0 190 -94 292.5t-243.5 102.5t-243.5 -102.5t-94 -292.5v-172q0 -190 94 -292.5t243.5 -102.5z M535 1176q-86 0 -148.5 55t-71.5 164q-2 35 19 35q16 0 19 -5.5t5 -29.5q4 -80 52.5 -129t124 -49t124 49t52.5 129q2 25 5 30t21 5t17 -35q-8 -109 -70.5 -164t-148.5 -55z" glyph-name="obreve" horiz-adv-x="1069" unicode="ŏ"/><glyph d="M1249 805v-176q0 -324 -152.5 -480.5t-394 -156.5t-394 156.5t-152.5 480.5v176q0 324 152.5 480.5t394 156.5t394 -156.5t152.5 -480.5zM201 801v-168q0 -303 138 -451.5t363.5 -148.5t363.5 148.5t138 451.5v168q0 303 -138 451.5t-363.5 148.5t-363.5 -148.5 t-138 -451.5zM477 1597q-18 -18 -30.5 -5.5t6.5 30.5l221 233q18 18 24.5 19.5t20.5 -10.5q12 -14 11 -20.5t-19 -24.5zM817 1597q-18 -18 -30.5 -5.5t6.5 30.5l221 233q18 18 24 19.5t21 -10.5q12 -14 11 -20.5t-19 -24.5z" glyph-name="Ohungarumlaut" horiz-adv-x="1404" unicode="Ő"/><glyph d="M913 575v-126q0 -221 -102 -339t-276.5 -118t-276.5 117.5t-102 339.5v126q0 221 102 339t276.5 118t276.5 -118t102 -339zM534.5 31q149.5 0 243.5 102.5t94 292.5v172q0 190 -94 292.5t-243.5 102.5t-243.5 -102.5t-94 -292.5v-172q0 -190 94 -292.5t243.5 -102.5z M307 1188q-18 -18 -30.5 -6t6.5 30l221 234q18 18 24.5 19t20.5 -11q12 -14 11 -20.5t-19 -24.5zM647 1188q-18 -18 -30.5 -6t6.5 30l221 234q18 18 24 19t21 -11q12 -14 11 -20.5t-19 -24.5z" glyph-name="ohungarumlaut" horiz-adv-x="1069" unicode="ő"/><glyph d="M1831 755.5q0 -20.5 -23 -20.5h-538q-14 0 -17.5 -3t-3.5 -17v-654q0 -14 3 -17t18 -3h641q23 0 22.5 -20.5t-22.5 -20.5h-684q-14 0 -18.5 4t-4.5 19v309q-61 -172 -194 -256t-308 -84q-242 0 -394 156.5t-152 480.5v176q0 324 152.5 480.5t393.5 156.5q174 0 307.5 -84 t194.5 -256v309q0 14 4 18.5t19 4.5h684q23 0 22.5 -20.5t-22.5 -20.5h-641q-14 0 -17.5 -3.5t-3.5 -17.5v-575q0 -14 3 -17.5t18 -3.5h538q23 0 23 -20.5zM698 1401q-222 0 -359.5 -148.5t-137.5 -451.5v-168q0 -303 138 -451.5t363.5 -148.5t363.5 148.5t138 451.5v198 q-8 287 -146 428.5t-360 141.5z" glyph-name="OE" horiz-adv-x="2080" unicode="Œ"/><glyph d="M535 1032q135 0 228 -72.5t130 -209.5q35 135 122 208.5t216 73.5q168 0 263 -122t95 -335v-59q0 -14 -4 -18t-18 -4h-633q-14 0 -17.5 -3.5t-3.5 -17.5v-47q0 -190 94.5 -292.5t246.5 -102.5t262 121q16 20 30.5 5.5t-0.5 -30.5q-121 -135 -295 -135q-135 0 -229 72.5 t-129 209.5q-37 -137 -130 -209.5t-228 -72.5q-174 0 -276.5 117.5t-102.5 339.5v126q0 221 102.5 339t276.5 118zM534.5 31q149.5 0 243.5 102.5t94 292.5v172q0 190 -94 292.5t-243.5 102.5t-243.5 -102.5t-94 -292.5v-172q0 -190 94 -292.5t243.5 -102.5zM1528 530 q14 0 17 3.5t3 17.5v47q0 186 -89 290.5t-228 104.5t-228.5 -104.5t-89.5 -290.5v-47q0 -14 3.5 -17.5t17.5 -3.5h594z" glyph-name="oe" horiz-adv-x="1744" unicode="œ"/><glyph d="M1071 0q-23 0 -37 23l-368 616h-363q-14 0 -17 -3t-3 -18v-595q0 -14 -4.5 -18.5t-18.5 -4.5t-18 4t-4 19v1388q0 14 4 18.5t18 4.5h363q233 0 346.5 -110t113.5 -279t-91 -274t-277 -128l370 -620q15 -23 -14 -23zM1038 1036.5q0 159.5 -103.5 258t-307.5 98.5h-324 q-14 0 -17 -3.5t-3 -17.5v-672q0 -14 3 -17t17 -3h324q205 0 308 98.5t103 258zM528 1597q-18 -18 -30.5 -5.5t6.5 30.5l221 233q18 18 24.5 19.5t20.5 -10.5q12 -14 11 -20.5t-19 -24.5z" glyph-name="Racute" horiz-adv-x="1241" unicode="Ŕ"/><glyph d="M217.5 0q-20.5 0 -20.5 23v978q0 23 20.5 23t20.5 -23v-81q135 113 286 112q113 0 195 -61q29 -23 15 -41t-44 4q-82 59 -167 59q-159 0 -285 -112v-858q0 -23 -20.5 -23zM109 1188q-18 -18 -30.5 -6t5.5 30l221 234q18 18 24.5 19t20.5 -11q12 -14 11 -20.5t-19 -24.5z " glyph-name="racute" horiz-adv-x="815" unicode="ŕ"/><glyph d="M1071 0q-23 0 -37 23l-368 616h-363q-14 0 -17 -3t-3 -18v-595q0 -14 -4.5 -18.5t-18.5 -4.5t-18 4t-4 19v1388q0 14 4 18.5t18 4.5h363q233 0 346.5 -110t113.5 -279t-91 -274t-277 -128l370 -620q15 -23 -14 -23zM1038 1036.5q0 159.5 -103.5 258t-307.5 98.5h-324 q-14 0 -17 -3.5t-3 -17.5v-672q0 -14 3 -17t17 -3h324q205 0 308 98.5t103 258zM565 -201q0 31 17.5 45.5t38.5 12.5q68 -12 56.5 -102.5t-75.5 -168.5q-12 -16 -22 -9t0 24q82 137 22 155q-37 12 -37 43z" glyph-name="Rcommaaccent" horiz-adv-x="1241" unicode="Ŗ"/><glyph d="M217.5 0q-20.5 0 -20.5 23v978q0 23 20.5 23t20.5 -23v-81q135 113 286 112q113 0 195 -61q29 -23 15 -41t-44 4q-82 59 -167 59q-159 0 -285 -112v-858q0 -23 -20.5 -23zM158 -201q0 31 17.5 45.5t37.5 12.5q68 -12 56.5 -102.5t-74.5 -168.5q-13 -16 -23 -9t0 24 q82 137 23 155q-37 12 -37 43z" glyph-name="rcommaaccent" horiz-adv-x="815" unicode="ŗ"/><glyph d="M1071 0q-23 0 -37 23l-368 616h-363q-14 0 -17 -3t-3 -18v-595q0 -14 -4.5 -18.5t-18.5 -4.5t-18 4t-4 19v1388q0 14 4 18.5t18 4.5h363q233 0 346.5 -110t113.5 -279t-91 -274t-277 -128l370 -620q15 -23 -14 -23zM1038 1036.5q0 159.5 -103.5 258t-307.5 98.5h-324 q-14 0 -17 -3.5t-3 -17.5v-672q0 -14 3 -17t17 -3h324q205 0 308 98.5t103 258zM408 1833l184 -195q6 -6 12 0l184 195q18 18 24.5 19t21.5 -11q12 -14 11 -20t-20 -25l-215 -205q-12 -12 -24 0l-215 205q-18 18 -19.5 24.5t10.5 20.5q14 12 21 11t25 -19z" glyph-name="Rcaron" horiz-adv-x="1241" unicode="Ř"/><glyph d="M217.5 0q-20.5 0 -20.5 23v978q0 23 20.5 23t20.5 -23v-81q135 113 286 112q113 0 195 -61q29 -23 15 -41t-44 4q-82 59 -167 59q-159 0 -285 -112v-858q0 -23 -20.5 -23zM27 1423l184 -194q6 -6 12 0l185 194q18 18 24 19.5t21 -10.5q12 -14 11 -20.5t-20 -25.5 l-215 -204q-12 -12 -24 0l-215 204q-18 18 -19.5 24.5t11.5 21.5q14 12 20.5 10.5t24.5 -19.5z" glyph-name="rcaron" horiz-adv-x="815" unicode="ř"/><glyph d="M537 35q162 0 264 97t102 238t-102.5 209t-178 106t-152.5 77t-182.5 112.5t-109.5 221.5q-4 147 100.5 246.5t301.5 99.5q82 0 162.5 -22.5t119.5 -47.5l39 -22q18 -10 8 -30t-35 -5q-148 84 -312 84t-253.5 -89.5t-85.5 -195.5t80 -184t182.5 -130t211 -104.5 t178 -133.5t73.5 -189q0 -168 -118.5 -274.5t-294.5 -106.5q-232 0 -398 143q-20 17 -5 35t36 0q57 -53 154.5 -94t214.5 -41zM492 1597q-18 -18 -30.5 -5.5t5.5 30.5l221 233q18 18 24.5 19.5t20.5 -10.5q12 -14 11 -20.5t-19 -24.5z" glyph-name="Sacute" horiz-adv-x="1081" unicode="Ś"/><glyph d="M433 31q140 0 217 67.5t67 175.5q-11 125 -144 182.5t-211.5 91.5t-136 89t-65.5 127q-12 117 67.5 192.5t212.5 75.5t258 -67q20 -10 12 -28.5t-30 -6.5q-121 63 -240 64t-183 -64.5t-57 -144.5t64.5 -128t136 -82.5t157.5 -68.5t136.5 -93.5t63.5 -138.5 q10 -123 -76 -202.5t-246 -79.5t-313 82q-23 12 -12 30q7 17 30 7q152 -80 292 -80zM360 1188q-18 -18 -30.5 -6t6.5 30l221 234q18 18 24.5 19t20.5 -11q12 -14 11 -20.5t-19 -24.5z" glyph-name="sacute" horiz-adv-x="897" unicode="ś"/><glyph d="M537 35q162 0 264 97t102 238t-102.5 209t-178 106t-152.5 77t-182.5 112.5t-109.5 221.5q-4 147 100.5 246.5t301.5 99.5q82 0 162.5 -22.5t119.5 -47.5l39 -22q18 -10 8 -30t-35 -5q-148 84 -312 84t-253.5 -89.5t-85.5 -195.5t80 -184t182.5 -130t211 -104.5 t178 -133.5t73.5 -189q0 -168 -118.5 -274.5t-294.5 -106.5q-232 0 -398 143q-20 17 -5 35t36 0q57 -53 154.5 -94t214.5 -41zM553 1800l-184 -194q-18 -18 -24.5 -19.5t-20.5 10.5q-12 14 -11.5 20.5t19.5 24.5l215 205q12 12 24 0l215 -205q18 -18 19.5 -24t-10.5 -21 q-14 -12 -20.5 -11t-24.5 20l-185 194q-6 6 -12 0z" glyph-name="Scircumflex" horiz-adv-x="1081" unicode="Ŝ"/><glyph d="M433 31q140 0 217 67.5t67 175.5q-11 125 -144 182.5t-211.5 91.5t-136 89t-65.5 127q-12 117 67.5 192.5t212.5 75.5t258 -67q20 -10 12 -28.5t-30 -6.5q-121 63 -240 64t-183 -64.5t-57 -144.5t64.5 -128t136 -82.5t157.5 -68.5t136.5 -93.5t63.5 -138.5 q10 -123 -76 -202.5t-246 -79.5t-313 82q-23 12 -12 30q7 17 30 7q152 -80 292 -80zM440 1391l-184 -195q-18 -18 -24.5 -19t-20.5 11q-12 14 -11 20t19 25l215 205q12 12 25 0l215 -205q18 -18 19 -24.5t-11 -20.5q-14 -12 -20.5 -11t-24.5 19l-184 195q-7 6 -13 0z" glyph-name="scircumflex" horiz-adv-x="897" unicode="ŝ"/><glyph d="M537 35q162 0 264 97t102 238t-102.5 209t-178 106t-152.5 77t-182.5 112.5t-109.5 221.5q-4 147 100.5 246.5t301.5 99.5q82 0 162.5 -22.5t119.5 -47.5l39 -22q18 -10 8 -30t-35 -5q-148 84 -312 84t-253.5 -89.5t-85.5 -195.5t80 -184t182.5 -130t211 -104.5 t178 -133.5t73.5 -189q0 -166 -116.5 -272.5t-292.5 -108.5l-41 -133q100 66 196.5 10.5t96.5 -169.5t-102.5 -168t-196.5 11q-16 9 -6 27t26 8q76 -53 157 -9t81 138q0 63 -49.5 107.5t-117 40t-112.5 -69.5q-9 -14 -25 -10q-14 4 -10 20l64 199q-215 10 -363 141 q-20 17 -5 35t36 0q57 -53 154.5 -94t214.5 -41z" glyph-name="Scedilla" horiz-adv-x="1081" unicode="Ş"/><glyph d="M639 -300q0 -114 -102.5 -168t-196.5 11q-16 9 -5 27t25 8q76 -53 157 -9t81 138q0 63 -49 107.5t-116.5 40t-113.5 -69.5q-8 -14 -24 -10q-14 4 -10 20l65 203q-119 16 -227 76q-23 12 -13 29t31 8q152 -80 292 -80t217 67.5t67 175.5q-11 125 -144 182.5t-211.5 91.5 t-136 89t-65.5 127q-12 117 67.5 192.5t212.5 75.5t258 -67q20 -10 12 -28.5t-30 -6.5q-121 63 -240 64t-183 -64.5t-57 -144.5t64.5 -128t136 -82.5t157.5 -68.5t136.5 -93.5t63.5 -138.5q10 -123 -76 -202.5t-240 -79.5l-55 2l-41 -135q100 66 196.5 10.5t96.5 -169.5z " glyph-name="scedilla" horiz-adv-x="897" unicode="ş"/><glyph d="M537 35q162 0 264 97t102 238t-102.5 209t-178 106t-152.5 77t-182.5 112.5t-109.5 221.5q-4 147 100.5 246.5t301.5 99.5q82 0 162.5 -22.5t119.5 -47.5l39 -22q18 -10 8 -30t-35 -5q-148 84 -312 84t-253.5 -89.5t-85.5 -195.5t80 -184t182.5 -130t211 -104.5 t178 -133.5t73.5 -189q0 -168 -118.5 -274.5t-294.5 -106.5q-232 0 -398 143q-20 17 -5 35t36 0q57 -53 154.5 -94t214.5 -41zM358 1833l185 -195q6 -6 12 0l184 195q18 18 24.5 19t20.5 -11q12 -14 11.5 -20t-19.5 -25l-215 -205q-12 -12 -24 0l-215 205q-18 18 -19.5 24.5 t10.5 20.5q14 12 20.5 11t24.5 -19z" glyph-name="Scaron" horiz-adv-x="1081" unicode="Š"/><glyph d="M433 31q140 0 217 67.5t67 175.5q-11 125 -144 182.5t-211.5 91.5t-136 89t-65.5 127q-12 117 67.5 192.5t212.5 75.5t258 -67q20 -10 12 -28.5t-30 -6.5q-121 63 -240 64t-183 -64.5t-57 -144.5t64.5 -128t136 -82.5t157.5 -68.5t136.5 -93.5t63.5 -138.5 q10 -123 -76 -202.5t-246 -79.5t-313 82q-23 12 -12 30q7 17 30 7q152 -80 292 -80zM256 1423l184 -194q6 -6 13 0l184 194q18 18 24.5 19.5t20.5 -10.5q12 -14 11 -20.5t-19 -25.5l-215 -204q-12 -12 -25 0l-215 204q-18 18 -19 24.5t11 21.5q14 12 20.5 10.5t24.5 -19.5z " glyph-name="scaron" horiz-adv-x="897" unicode="š"/><glyph d="M920 1434q23 0 22.5 -20.5t-22.5 -20.5h-363q-14 0 -17 -3.5t-3 -17.5v-1349q0 -18 -7 -21l-47 -154q100 66 196.5 11t96.5 -169t-102.5 -168t-196.5 11q-14 9 -4 27t25 8q76 -53 156.5 -9t80.5 138q0 63 -49 107t-116.5 40t-112.5 -69q-11 -15 -25 -11t-10 21l72 221 q-2 4 -2 17v1349q0 14 -3.5 17.5t-17.5 3.5h-362q-23 0 -23 20.5t23 20.5h811z" glyph-name="Tcommaaccent" horiz-adv-x="1028" unicode="Ţ"/><glyph d="M258 223v664q0 14 -3 17t-17 3h-109q-23 0 -23 18.5t23 18.5h109q14 0 17 3t3 18v256q0 23 20.5 22.5t20.5 -22.5v-256q0 -14 3 -17.5t17 -3.5h207q23 0 23 -18.5t-23 -18.5h-207q-14 0 -17 -3t-3 -17v-662q0 -88 55.5 -141t133.5 -53t145 69q16 16 28.5 4t0.5 -28 q-72 -84 -185 -84q-14 0 -35 4l-45 -148q100 66 196.5 11t96.5 -169t-102.5 -168t-196.5 11q-14 9 -4 27t25 8q76 -53 156.5 -9t80.5 138q0 63 -49 107t-116.5 40t-112.5 -69q-11 -17 -25 -12t-10 22l70 219q-63 23 -105.5 81t-42.5 138z" glyph-name="tcommaaccent" horiz-adv-x="770" unicode="ţ"/><glyph d="M514 0q-14 0 -18 4t-4 19v1349q0 14 -3.5 17.5t-17.5 3.5h-362q-23 0 -23 20.5t23 20.5h811q23 0 22.5 -20.5t-22.5 -20.5h-363q-14 0 -17 -3.5t-3 -17.5v-1349q0 -14 -4.5 -18.5t-18.5 -4.5zM324 1833l184 -195q6 -6 12 0l185 195q18 18 24 19t21 -11q12 -14 11 -20 t-20 -25l-215 -205q-12 -12 -24 0l-215 205q-18 18 -19.5 24.5t11.5 20.5q14 12 20.5 11t24.5 -19z" glyph-name="Tcaron" horiz-adv-x="1028" unicode="Ť"/><glyph d="M258 887q0 14 -3 17t-17 3h-109q-23 0 -23 18.5t23 18.5h109q14 0 17 3t3 18v256q0 23 20.5 22.5t20.5 -22.5v-256q0 -14 3 -17.5t17 -3.5h207q23 0 23 -18.5t-23 -18.5h-207q-14 0 -17 -3t-3 -17v-662q0 -88 55.5 -141t133.5 -53t145 69q16 16 28.5 4t0.5 -28 q-72 -84 -170 -84t-166 64.5t-68 166.5v664zM623 1489q0 31 17 45t38 12q68 -12 56.5 -102t-75.5 -168q-12 -16 -22 -9t0 23q82 137 22 156q-36 12 -36 43z" glyph-name="tcaron" horiz-adv-x="770" unicode="ť"/><glyph d="M242 974.5q0 20.5 22 20.5h207q14 0 17.5 3t3.5 18v356q0 14 -3.5 17.5t-17.5 3.5h-362q-23 0 -23 20.5t23 20.5h811q23 0 22.5 -20.5t-22.5 -20.5h-363q-14 0 -17 -3.5t-3 -17.5v-356q0 -14 3 -17.5t17 -3.5h207q23 0 22.5 -20.5t-22.5 -20.5h-207q-14 0 -17 -3t-3 -17 v-911q0 -14 -4.5 -18.5t-18.5 -4.5t-18 4t-4 19v911q0 14 -3.5 17t-17.5 3h-207q-22 0 -22 20.5z" glyph-name="Tbar" horiz-adv-x="1028" unicode="Ŧ"/><glyph d="M258 614q0 14 -3 17.5t-17 3.5h-109q-23 0 -23 18.5t23 18.5h109q14 0 17 3t3 17v195q0 14 -3 17t-17 3h-109q-23 0 -23 18.5t23 18.5h109q14 0 17 3t3 18v256q0 23 20.5 22.5t20.5 -22.5v-256q0 -14 3 -17.5t17 -3.5h207q23 0 23 -18.5t-23 -18.5h-207q-14 0 -17 -3 t-3 -17v-195q0 -14 3 -17t17 -3h207q23 0 23 -18.5t-23 -18.5h-207q-14 0 -17 -3t-3 -18v-389q0 -88 55.5 -141t133.5 -53t145 69q16 16 28.5 4t0.5 -28q-72 -84 -170 -84t-166 64.5t-68 166.5v391z" glyph-name="tbar" horiz-adv-x="770" unicode="ŧ"/><glyph d="M1102 1411q0 14 4 18.5t18.5 4.5t18.5 -4.5t4 -18.5v-893q0 -152 -45 -260t-119 -163.5t-150.5 -79t-160.5 -23.5t-161 23.5t-150.5 79t-118.5 164t-45 259.5v893q0 14 4 18.5t18 4.5t18.5 -4.5t4.5 -18.5v-901q0 -246 123.5 -362.5t306 -116.5t306.5 116.5t124 362.5 v901zM793 1585q-55 2 -130 55.5t-108 55.5t-60.5 -14.5t-40 -32t-27.5 -38.5t-34 -14q-16 10 -6 29q68 115 164 111q49 -2 120.5 -55.5t119.5 -55.5q70 -2 129 90q12 18 29 8t7 -28q-65 -111 -163 -111z" glyph-name="Utilde" horiz-adv-x="1343" unicode="Ũ"/><glyph d="M217 1001v-653q2 -154 82 -235.5t218 -81.5t261 98v872q0 23 20.5 23t20.5 -23v-978q0 -23 -20.5 -23t-20.5 23v65q-124 -96 -272 -96t-238 91t-92 259v659q0 23 20.5 23t20.5 -23zM614 1176q-53 2 -124.5 52t-104.5 52t-59.5 -13.5t-36.5 -29.5t-31 -43q-10 -18 -29 -8 q-16 10 -6 28q66 111 158 107q47 -2 116.5 -53t114.5 -54q70 -2 125 86q12 18 31 9q16 -10 6 -29q-64 -104 -160 -104z" glyph-name="utilde" horiz-adv-x="1015" unicode="ũ"/><glyph d="M1102 1411q0 14 4 18.5t18.5 4.5t18.5 -4.5t4 -18.5v-893q0 -152 -45 -260t-119 -163.5t-150.5 -79t-160.5 -23.5t-161 23.5t-150.5 79t-118.5 164t-45 259.5v893q0 14 4 18.5t18 4.5t18.5 -4.5t4.5 -18.5v-901q0 -246 123.5 -362.5t306 -116.5t306.5 116.5t124 362.5 v901zM440 1616q0 14 4.5 18t18.5 4h420q14 0 18 -4t4 -18t-4 -18.5t-18 -4.5h-420q-14 0 -18.5 4.5t-4.5 18.5z" glyph-name="Umacron" horiz-adv-x="1343" unicode="Ū"/><glyph d="M217 1001v-653q2 -154 82 -235.5t218 -81.5t261 98v872q0 23 20.5 23t20.5 -23v-978q0 -23 -20.5 -23t-20.5 23v65q-124 -96 -272 -96t-238 91t-92 259v659q0 23 20.5 23t20.5 -23zM266 1206.5q0 14.5 4 18.5t19 4h420q14 0 18 -4t4 -18.5t-4 -18.5t-18 -4h-420 q-14 0 -18.5 4t-4.5 18.5z" glyph-name="umacron" horiz-adv-x="1015" unicode="ū"/><glyph d="M1102 1411q0 14 4 18.5t18.5 4.5t18.5 -4.5t4 -18.5v-893q0 -152 -45 -260t-119 -163.5t-150.5 -79t-160.5 -23.5t-161 23.5t-150.5 79t-118.5 164t-45 259.5v893q0 14 4 18.5t18 4.5t18.5 -4.5t4.5 -18.5v-901q0 -246 123.5 -362.5t306 -116.5t306.5 116.5t124 362.5 v901zM672 1585q-86 0 -148.5 55.5t-70.5 163.5q-2 35 16 35t21.5 -5t5.5 -30q4 -80 52 -129t124 -49t124 49t52 129q2 25 5 30t21 5t17 -35q-8 -109 -70.5 -164t-148.5 -55z" glyph-name="Ubreve" horiz-adv-x="1343" unicode="Ŭ"/><glyph d="M217 1001v-653q2 -154 82 -235.5t218 -81.5t261 98v872q0 23 20.5 23t20.5 -23v-978q0 -23 -20.5 -23t-20.5 23v65q-124 -96 -272 -96t-238 91t-92 259v659q0 23 20.5 23t20.5 -23zM498 1176q-86 0 -148.5 55t-70.5 164q-2 35 16 35t21 -5.5t6 -29.5q4 -80 52 -129 t123.5 -49t124 49t52.5 129q2 25 5 30t21 5t17 -35q-8 -109 -70.5 -164t-148.5 -55z" glyph-name="ubreve" horiz-adv-x="1015" unicode="ŭ"/><glyph d="M1102 1411q0 14 4 18.5t18.5 4.5t18.5 -4.5t4 -18.5v-893q0 -152 -45 -260t-119 -163.5t-150.5 -79t-160.5 -23.5t-161 23.5t-150.5 79t-118.5 164t-45 259.5v893q0 14 4 18.5t18 4.5t18.5 -4.5t4.5 -18.5v-901q0 -246 123.5 -362.5t306 -116.5t306.5 116.5t124 362.5 v901zM557 1737q0 -47 34 -81t81 -34t80.5 34t33.5 81t-33.5 80.5t-80.5 33.5t-81 -33.5t-34 -80.5zM520 1736.5q0 63.5 44 107.5t107.5 44t107.5 -44t44 -107.5t-44 -107.5t-107.5 -44t-107.5 44t-44 107.5z" glyph-name="Uring" horiz-adv-x="1343" unicode="Ů"/><glyph d="M217 1001v-653q2 -154 82 -235.5t218 -81.5t261 98v872q0 23 20.5 23t20.5 -23v-978q0 -23 -20.5 -23t-20.5 23v65q-124 -96 -272 -96t-238 91t-92 259v659q0 23 20.5 23t20.5 -23zM346 1327.5q0 63.5 44 107.5t107.5 44t107.5 -44t44 -107.5t-44 -107.5t-107.5 -44 t-107.5 44t-44 107.5zM383 1327q0 -47 34 -81t81 -34t80.5 34t33.5 81t-33.5 81t-80.5 34t-81 -34t-34 -81z" glyph-name="uring" horiz-adv-x="1015" unicode="ů"/><glyph d="M1102 1411q0 14 4 18.5t18.5 4.5t18.5 -4.5t4 -18.5v-893q0 -152 -45 -260t-119 -163.5t-150.5 -79t-160.5 -23.5t-161 23.5t-150.5 79t-118.5 164t-45 259.5v893q0 14 4 18.5t18 4.5t18.5 -4.5t4.5 -18.5v-901q0 -246 123.5 -362.5t306 -116.5t306.5 116.5t124 362.5 v901zM436 1597q-18 -18 -30.5 -5.5t6.5 30.5l221 233q18 18 24.5 19.5t20.5 -10.5q12 -14 11 -20.5t-19 -24.5zM776 1597q-18 -18 -30.5 -5.5t6.5 30.5l221 233q18 18 24.5 19.5t20.5 -10.5q12 -14 11 -20.5t-19 -24.5z" glyph-name="Uhungarumlaut" horiz-adv-x="1343" unicode="Ű"/><glyph d="M217 1001v-653q2 -154 82 -235.5t218 -81.5t261 98v872q0 23 20.5 23t20.5 -23v-978q0 -23 -20.5 -23t-20.5 23v65q-124 -96 -272 -96t-238 91t-92 259v659q0 23 20.5 23t20.5 -23zM561 1188q-18 -18 -30.5 -6t6.5 30l221 234q18 18 24 19t21 -11q12 -14 11 -20.5 t-19 -24.5zM221 1188q-18 -18 -30.5 -6t6.5 30l221 234q18 18 24.5 19t20.5 -11q12 -14 11 -20.5t-19 -24.5z" glyph-name="uhungarumlaut" horiz-adv-x="1015" unicode="ű"/><glyph d="M1102 1411q0 14 4 18.5t18.5 4.5t18.5 -4.5t4 -18.5v-893q0 -133 -36 -234.5t-124.5 -186.5t-243.5 -101q-66 -27 -89 -90.5t14 -124t123 -76.5q27 -4 20 -29q-4 -20 -33 -16q-88 14 -135 75.5t-39 135.5t68 121q-176 0 -280.5 79t-149.5 187.5t-45 259.5v893 q0 14 4 18.5t18 4.5t18.5 -4.5t4.5 -18.5v-901q0 -246 123.5 -362.5t306 -116.5t306.5 116.5t124 362.5v901z" glyph-name="Uogonek" horiz-adv-x="1343" unicode="Ų"/><glyph d="M217 1001v-653q2 -154 82 -235.5t218 -81.5t261 98v872q0 23 20.5 23t20.5 -23v-978q0 -23 -20 -23q-70 -23 -96.5 -88.5t9.5 -128t124 -78.5q27 -4 20 -29q-4 -20 -33 -16q-76 12 -122 61.5t-52 107.5t28 114.5t101 81.5v63q-124 -96 -272 -96t-238 91t-92 259v659 q0 23 20.5 23t20.5 -23z" glyph-name="uogonek" horiz-adv-x="1015" unicode="ų"/><glyph d="M921.5 1434q24.5 0 30.5 -23l359 -1311q5 -16 11.5 -11t8.5 11l352 1311q6 23 30 23t18 -23l-381 -1388q-6 -23 -30 -23t-30 23l-358 1310q-2 10 -10.5 10t-10.5 -10l-358 -1310q-6 -23 -30 -23t-29 23l-381 1388q-7 23 17 23t30 -23l352 -1311q5 -16 11.5 -11t8.5 11 l359 1311q6 23 30.5 23zM915 1800l-184 -194q-18 -18 -24.5 -19.5t-20.5 10.5q-12 14 -11 20.5t19 24.5l215 205q12 12 25 0l215 -205q18 -18 19 -24t-11 -21q-14 -12 -20.5 -11t-24.5 20l-184 194q-7 6 -13 0z" glyph-name="Wcircumflex" horiz-adv-x="1843" unicode="Ŵ"/><glyph d="M727 1024q12 0 16.5 -6t12.5 -31l276 -921q2 -8 8.5 -8.5t8.5 8.5l262 935q6 23 24 23q25 0 17 -29l-273 -958q-6 -23 -13 -30t-25.5 -7t-24.5 6t-15 31l-270 901q-2 8 -8 8t-8 -8l-271 -901q-8 -25 -14 -31t-24.5 -6t-25.5 7t-13 30l-273 958q-8 29 17 29q18 0 24 -23 l262 -935q2 -8 8.5 -8.5t8.5 8.5l276 921q8 25 12.5 31t16.5 6h8zM717 1389l-185 -195q-18 -18 -24 -19t-21 11q-12 14 -11 20t20 25l215 205q12 12 24 0l215 -205q18 -18 19.5 -24.5t-11.5 -20.5q-14 -12 -20 -11t-25 19l-184 195q-6 6 -12 0z" glyph-name="wcircumflex" horiz-adv-x="1445" unicode="ŵ"/><glyph d="M983 1434q25 0 12 -23l-417 -706v-682q0 -14 -4.5 -18.5t-18.5 -4.5t-18.5 4t-4.5 19v682l-417 706q-11 23 13 23t36 -23l379 -645q12 -20 24 0l379 645q12 23 37 23zM549 1800l-184 -194q-18 -18 -24.5 -19.5t-21.5 10.5q-12 14 -11 20.5t20 24.5l215 205q12 12 24 0 l215 -205q18 -18 19.5 -24t-10.5 -21q-14 -12 -20.5 -11t-25.5 20l-184 194q-6 6 -12 0z" glyph-name="Ycircumflex" horiz-adv-x="1110" unicode="Ŷ"/><glyph d="M109 1024q18 0 26 -23l332 -935q8 -20 16 0l332 935q8 23 27 23q27 0 14 -29l-473 -1327q-76 -213 -262 -168q-20 4 -24.5 9.5t-2.5 19.5q4 18 33 12q158 -37 223 148l92 262q12 34 2 63l-350 981q-12 29 15 29zM469 1389l-184 -195q-18 -18 -24.5 -19t-20.5 11 q-12 14 -11.5 20t19.5 25l215 205q12 12 24 0l215 -205q18 -18 19.5 -24.5t-10.5 -20.5q-14 -12 -20.5 -11t-24.5 19l-185 195q-6 6 -12 0z" glyph-name="ycircumflex" horiz-adv-x="950" unicode="ŷ"/><glyph d="M983 1434q25 0 12 -23l-417 -706v-682q0 -14 -4.5 -18.5t-18.5 -4.5t-18.5 4t-4.5 19v682l-417 706q-11 23 13 23t36 -23l379 -645q12 -20 24 0l379 645q12 23 37 23zM639 1634.5q0 20.5 14.5 34.5t35 14t34.5 -14t14 -34.5t-14 -35t-34.5 -14.5t-35 14.5t-14.5 35z M373 1634.5q0 20.5 14 34.5t34.5 14t35 -14t14.5 -34.5t-14.5 -35t-35 -14.5t-34.5 14.5t-14 35z" glyph-name="Ydieresis" horiz-adv-x="1110" unicode="Ÿ"/><glyph d="M160 41h714q23 0 23 -20.5t-23 -20.5h-749q-23 0 -23 24t11 42l757 1310q10 16 -6 17h-727q-23 0 -22.5 20.5t22.5 20.5h762q23 0 23 -25t-11 -41l-757 -1311q-10 -16 6 -16zM446 1597q-18 -18 -30.5 -5.5t6.5 30.5l221 233q18 18 24.5 19.5t20.5 -10.5q12 -14 11 -20.5 t-19 -24.5z" glyph-name="Zacute" horiz-adv-x="1024" unicode="Ź"/><glyph d="M158 1024h624q23 0 23 -25t-12 -41l-627 -901q-12 -18 6 -18h590q23 0 22 -19v-2q0 -18 -22 -18h-627q-23 0 -23 25t13 41l627 901q12 18 -7 18h-587q-23 0 -23 19v2q0 18 23 18zM389 1188q-18 -18 -30.5 -6t6.5 30l221 234q18 18 24 19t21 -11q12 -14 11 -20.5 t-19 -24.5z" glyph-name="zacute" horiz-adv-x="919" unicode="ź"/><glyph d="M160 41h714q23 0 23 -20.5t-23 -20.5h-749q-23 0 -23 24t11 42l757 1310q10 16 -6 17h-727q-23 0 -22.5 20.5t22.5 20.5h762q23 0 23 -25t-11 -41l-757 -1311q-10 -16 6 -16zM463 1634.5q0 20.5 14.5 34.5t34.5 14t34.5 -14t14.5 -34.5t-14.5 -35t-34.5 -14.5t-34.5 14.5 t-14.5 35z" glyph-name="Zdotaccent" horiz-adv-x="1024" unicode="Ż"/><glyph d="M158 1024h624q23 0 23 -25t-12 -41l-627 -901q-12 -18 6 -18h590q23 0 22 -19v-2q0 -18 -22 -18h-627q-23 0 -23 25t13 41l627 901q12 18 -7 18h-587q-23 0 -23 19v2q0 18 23 18zM410 1224.5q0 20.5 14 35t34.5 14.5t35 -14.5t14.5 -35t-14.5 -34.5t-35 -14t-34.5 14 t-14 34.5z" glyph-name="zdotaccent" horiz-adv-x="919" unicode="ż"/><glyph d="M160 41h714q23 0 23 -20.5t-23 -20.5h-749q-23 0 -23 24t11 42l757 1310q10 16 -6 17h-727q-23 0 -22.5 20.5t22.5 20.5h762q23 0 23 -25t-11 -41l-757 -1311q-10 -16 6 -16zM322 1833l184 -195q6 -6 12 0l184 195q18 18 24.5 19t21.5 -11q12 -14 11 -20t-20 -25 l-215 -205q-12 -12 -24 0l-215 205q-18 18 -19.5 24.5t10.5 20.5q14 12 21 11t25 -19z" glyph-name="Zcaron" horiz-adv-x="1024" unicode="Ž"/><glyph d="M158 1024h624q23 0 23 -25t-12 -41l-627 -901q-12 -18 6 -18h590q23 0 22 -19v-2q0 -18 -22 -18h-627q-23 0 -23 25t13 41l627 901q12 18 -7 18h-587q-23 0 -23 19v2q0 18 23 18zM268 1423l185 -194q6 -6 12 0l184 194q18 18 24.5 19.5t20.5 -10.5q12 -14 11.5 -20.5 t-19.5 -25.5l-215 -204q-12 -12 -25 0l-215 204q-18 18 -19 24.5t11 21.5q14 12 20.5 10.5t24.5 -19.5z" glyph-name="zcaron" horiz-adv-x="919" unicode="ž"/><glyph d="M625 418q0 14 -3.5 17t-17.5 3h-268q-20 0 -27.5 -5t-13.5 -23l-135 -387q-8 -23 -33 -23t-16 23l483 1388q8 23 31 23h706q23 0 23 -20.5t-23 -20.5h-641q-14 0 -17 -3.5t-3 -17.5v-575q0 -14 3 -17.5t17 -3.5h539q23 0 22.5 -20.5t-22.5 -20.5h-539q-14 0 -17 -3 t-3 -17v-654q0 -14 3 -17t17 -3h641q23 0 23 -20.5t-23 -20.5h-684q-14 0 -18 4t-4 19v395zM340 479h264q14 0 17.5 3t3.5 18v843q-8 0 -13 -10l-286 -831q-8 -23 14 -23zM831 1597q-18 -18 -30.5 -5.5t6.5 30.5l221 233q18 18 24.5 19.5t20.5 -10.5q12 -14 11 -20.5 t-19 -24.5z" glyph-name="AEacute" horiz-adv-x="1501" unicode="Ǽ"/><glyph d="M474 993q-130 0 -228 -102q-16 -18 -30 -5t1 32q104 115 268 114q109 0 197 -60.5t123 -164.5q86 225 319 225q168 0 263.5 -122t95.5 -335v-59q0 -14 -4 -18t-19 -4h-637v-209q31 -125 117 -189.5t203 -64.5q156 0 266 121q16 20 30.5 5.5t0.5 -30.5 q-121 -135 -295 -135q-225 0 -322 184v-153q0 -23 -20.5 -23t-20.5 23v94q-51 -55 -131 -90t-164 -35q-150 0 -252 96t-102 238t102.5 239t251.5 97q84 0 164 -35t131 -90v155q0 141 -89 221t-219 80zM174 328q0 -125 89 -211t226 -86q174 0 293 123v346q-119 123 -293 123 q-137 0 -226 -85t-89 -210zM1138 993q-125 0 -204.5 -66.5t-110.5 -189.5v-207h598q14 0 17.5 3.5t3.5 17.5v47q0 186 -89.5 290.5t-214.5 104.5zM696 1188q-18 -18 -30.5 -6t6.5 30l221 234q18 18 24.5 19t20.5 -11q12 -14 11 -20.5t-19 -24.5z" glyph-name="aeacute" horiz-adv-x="1640" unicode="ǽ"/><glyph d="M537 35q162 0 264 97t102 238t-102.5 209t-178 106t-152.5 77t-182.5 112.5t-109.5 221.5q-4 147 100.5 246.5t301.5 99.5q82 0 162.5 -22.5t119.5 -47.5l39 -22q18 -10 8 -30t-35 -5q-148 84 -312 84t-253.5 -89.5t-85.5 -195.5t80 -184t182.5 -130t211 -104.5 t178 -133.5t73.5 -189q0 -168 -118.5 -274.5t-294.5 -106.5q-232 0 -398 143q-20 17 -5 35t36 0q57 -53 154.5 -94t214.5 -41zM487 -201q0 31 17.5 45.5t38.5 12.5q68 -12 56.5 -102.5t-75.5 -168.5q-12 -16 -22 -9t0 24q82 137 22 155q-37 12 -37 43z" glyph-name="Scommaaccent" horiz-adv-x="1081" unicode="Ș"/><glyph d="M433 31q140 0 217 67.5t67 175.5q-11 125 -144 182.5t-211.5 91.5t-136 89t-65.5 127q-12 117 67.5 192.5t212.5 75.5t258 -67q20 -10 12 -28.5t-30 -6.5q-121 63 -240 64t-183 -64.5t-57 -144.5t64.5 -128t136 -82.5t157.5 -68.5t136.5 -93.5t63.5 -138.5 q10 -123 -76 -202.5t-246 -79.5t-313 82q-23 12 -12 30q7 17 30 7q152 -80 292 -80zM375 -201q0 31 17.5 45.5t37.5 12.5q68 -12 56.5 -102.5t-74.5 -168.5q-12 -16 -22 -9t-1 24q82 137 23 155q-37 12 -37 43z" glyph-name="scommaaccent" horiz-adv-x="897" unicode="ș"/><glyph d="M514 0q-14 0 -18 4t-4 19v1349q0 14 -3.5 17.5t-17.5 3.5h-362q-23 0 -23 20.5t23 20.5h811q23 0 22.5 -20.5t-22.5 -20.5h-363q-14 0 -17 -3.5t-3 -17.5v-1349q0 -14 -4.5 -18.5t-18.5 -4.5zM449 -201q0 31 17 45.5t38 12.5q68 -12 56.5 -102.5t-75.5 -168.5 q-12 -16 -22 -9t0 24q82 137 22 155q-36 12 -36 43z" glyph-name="uni021A" horiz-adv-x="1028" unicode="Ț"/><glyph d="M299 965q0 -14 3 -17.5t17 -3.5h207q23 0 23 -18.5t-23 -18.5h-207q-14 0 -17 -3t-3 -17v-662q0 -88 55.5 -141t133.5 -53t145 69q16 16 28.5 4t0.5 -28q-72 -84 -170 -84t-166 64.5t-68 166.5v664q0 14 -3 17t-17 3h-109q-23 0 -23 18.5t23 18.5h109q14 0 17 3t3 18v256 q0 23 20.5 22.5t20.5 -22.5v-256zM381 -201q0 31 17.5 45.5t37.5 12.5q68 -12 56.5 -102.5t-74.5 -168.5q-12 -16 -22 -9t-1 24q82 137 23 155q-37 12 -37 43z" glyph-name="uni021B" horiz-adv-x="770" unicode="ț"/><glyph d="M197 1001q0 23 20.5 23t20.5 -23v-1277q0 -102 -68 -167t-166 -65t-170 84q-12 16 0 28.5t29 -3.5q67 -70 145 -70t133.5 53.5t55.5 141.5v1275z" glyph-name="uni0237" horiz-adv-x="434" unicode="ȷ"/><glyph d="M309 1761l-184 -194q-18 -18 -24.5 -19.5t-20.5 11.5q-12 14 -11 20t19 25l215 204q12 12 25 0l215 -204q18 -18 19 -24.5t-11 -20.5q-14 -12 -20.5 -11.5t-24.5 19.5l-184 194q-7 6 -13 0z" glyph-name="circumflex" horiz-adv-x="630" unicode="ˆ"/><glyph d="M125 1815l184 -195q6 -6 13 0l184 195q18 18 24.5 19t20.5 -11q12 -14 11 -20.5t-19 -24.5l-215 -205q-12 -12 -25 0l-215 205q-18 18 -19 24t11 21q14 12 20.5 11t24.5 -19z" glyph-name="caron" horiz-adv-x="630" unicode="ˇ"/><glyph d="M270 1548q-86 0 -148.5 55.5t-70.5 163.5q-2 35 19 35q16 0 19 -5t5 -30q4 -80 52.5 -129t124 -49t123.5 49.5t52 128.5q2 25 5.5 30t21.5 5t16 -35q-8 -109 -70.5 -164t-148.5 -55z" glyph-name="breve" horiz-adv-x="548" unicode="˘"/><glyph d="M96 1208.5q0 20.5 14.5 34.5t35 14t35 -14t14.5 -34.5t-14.5 -35t-35 -14.5t-35 14.5t-14.5 35z" glyph-name="dotaccent" horiz-adv-x="290" unicode="˙"/><glyph d="M131 1667q0 -47 34 -81t81 -34t80.5 34t33.5 81t-33.5 81t-80.5 34t-81 -34t-34 -81zM94 1667.5q0 63.5 44 107.5t107.5 44t107.5 -44t44 -107.5t-44 -107.5t-107.5 -44t-107.5 44t-44 107.5z" glyph-name="ring" horiz-adv-x="493" unicode="˚"/><glyph d="M164 31l6 -31q-70 -23 -96.5 -88.5t9.5 -128t124 -78.5q27 -4 20 -29q-4 -20 -32 -16q-78 12 -124 63.5t-50.5 112t32.5 118t111 77.5z" glyph-name="ogonek" horiz-adv-x="309" unicode="˛"/><glyph d="M463 1559q-55 2 -130 55t-108 55t-60.5 -14.5t-39 -31.5t-27.5 -39t-35 -13q-16 10 -6 28q68 115 164 111q49 -2 121 -55t119 -56q70 -2 129 91q12 18 30 8t7 -29q-66 -110 -164 -110z" glyph-name="tilde" horiz-adv-x="684" unicode="˜"/><glyph d="M78 1565q-18 -18 -30.5 -6t5.5 30l221 234q18 18 24.5 19t20.5 -11q12 -14 11.5 -20.5t-19.5 -24.5zM418 1565q-18 -18 -30.5 -6t5.5 30l221 234q18 18 24.5 19t20.5 -11q12 -14 11.5 -20.5t-19.5 -24.5z" glyph-name="hungarumlaut" horiz-adv-x="708" unicode="˝"/><glyph d="M864 755.5q0 -20.5 -22 -20.5h-539q-14 0 -17 -3t-3 -17v-654q0 -14 3 -17t17 -3h641q23 0 23 -20.5t-23 -20.5h-684q-14 0 -18 4t-4 19v1388q0 14 4 18.5t18 4.5h684q23 0 23 -20.5t-23 -20.5h-641q-14 0 -17 -3.5t-3 -17.5v-575q0 -14 3 -17.5t17 -3.5h539 q22 0 22 -20.5zM682 1634.5q0 20.5 14.5 34.5t35 14t34.5 -14t14 -34.5t-14 -35t-34.5 -14.5t-35 14.5t-14.5 35zM416 1634.5q0 20.5 14 34.5t34.5 14t35 -14t14.5 -34.5t-14.5 -35t-35 -14.5t-34.5 14.5t-14 35z" glyph-name="afii10023" horiz-adv-x="1114" unicode="Ё"/><glyph d="M702 1434q23 0 23 -20.5t-23 -20.5h-253q-14 0 -17.5 -3.5t-3.5 -17.5v-450q125 110 280 110t245.5 -92t93.5 -258v-340q0 -190 -59.5 -266t-162.5 -76q-23 0 -28.5 4t-4.5 16t7 17.5t7 5.5h19q176 0 176 268v363q-2 154 -80.5 235.5t-222.5 81.5t-270 -110v-858 q0 -14 -4 -18.5t-18.5 -4.5t-18.5 4t-4 19v1349q0 14 -3 17.5t-18 3.5h-253q-23 0 -23 20.5t23 20.5h593z" glyph-name="afii10051" horiz-adv-x="1204" unicode="Ђ"/><glyph d="M883 1434q23 0 22.5 -20.5t-22.5 -20.5h-580q-14 0 -17 -3.5t-3 -17.5v-1349q0 -14 -4.5 -18.5t-18.5 -4.5t-18 4t-4 19v1388q0 14 4 18.5t18 4.5h623zM479 1597q-18 -18 -30.5 -5.5t6.5 30.5l221 233q18 18 24.5 19.5t20.5 -10.5q12 -14 11 -20.5t-19 -24.5z" glyph-name="afii10052" horiz-adv-x="991" unicode="Ѓ"/><glyph d="M612 716.5q0 -20.5 -22 -20.5h-369q-14 0 -17 -3t-3 -17v-43q0 -307 143.5 -456.5t363.5 -143.5t353 174q12 14 28 -1t3 -32q-141 -176 -381 -182t-397.5 152.5t-157.5 484.5v176q0 326 157.5 484.5t397.5 152.5t381 -182q14 -16 -2 -32t-29 -1q-133 168 -352 174 t-363.5 -143.5t-144.5 -456.5v-43q0 -14 3 -17.5t17 -3.5h369q22 0 22 -20.5z" glyph-name="afii10053" horiz-adv-x="1226" unicode="Є"/><glyph d="M537 35q162 0 264 97t102 238t-102.5 209t-178 106t-152.5 77t-182.5 112.5t-109.5 221.5q-4 147 100.5 246.5t301.5 99.5q82 0 162.5 -22.5t119.5 -47.5l39 -22q18 -10 8 -30t-35 -5q-148 84 -312 84t-253.5 -89.5t-85.5 -195.5t80 -184t182.5 -130t211 -104.5 t178 -133.5t73.5 -189q0 -168 -118.5 -274.5t-294.5 -106.5q-232 0 -398 143q-20 17 -5 35t36 0q57 -53 154.5 -94t214.5 -41z" glyph-name="afii10054" horiz-adv-x="1081" unicode="Ѕ"/><glyph d="M260 0q-14 0 -18 4t-4 19v1388q0 14 4 18.5t18 4.5t18.5 -4.5t4.5 -18.5v-1388q0 -14 -4.5 -18.5t-18.5 -4.5z" glyph-name="afii10055" horiz-adv-x="520" unicode="І"/><glyph d="M260 0q-14 0 -18 4t-4 19v1388q0 14 4 18.5t18 4.5t18.5 -4.5t4.5 -18.5v-1388q0 -14 -4.5 -18.5t-18.5 -4.5zM346 1634.5q0 20.5 14.5 34.5t35 14t34.5 -14t14 -34.5t-14 -35t-34.5 -14.5t-35 14.5t-14.5 35zM80 1634.5q0 20.5 14.5 34.5t35 14t34.5 -14t14 -34.5 t-14 -35t-34.5 -14.5t-35 14.5t-14.5 35z" glyph-name="afii10056" horiz-adv-x="520" unicode="Ї"/><glyph d="M338 33q133 0 221 78.5t88 220.5v1079q0 14 4 18.5t18.5 4.5t18.5 -4.5t4 -18.5v-1073q0 -158 -99 -252t-252 -94t-257 114q-14 18 0 32t33 -5q88 -100 221 -100z" glyph-name="afii10057" horiz-adv-x="888" unicode="Ј"/><glyph d="M1104 1434q14 0 18 -4.5t4 -18.5v-580q0 -14 3.5 -17t17.5 -3h244q133 0 227 -37t140 -100.5t65.5 -129t19.5 -139t-19.5 -139t-65.5 -129t-140 -100.5t-227 -37h-287q-14 0 -18.5 4t-4.5 19v1349q0 14 -3 17.5t-17 3.5h-641q-14 0 -17.5 -3.5t-3.5 -17.5v-1079 q0 -143 -85 -218t-203 -75h-2q-23 0 -23 20.5t23 20.5h2q102 0 172.5 62.5t70.5 191.5v1116q0 14 4 18.5t19 4.5h727zM1380 41q247 0 332.5 112.5t85.5 252t-85.5 252t-332.5 112.5h-233q-14 0 -17.5 -3t-3.5 -17v-689q0 -14 3.5 -17t17.5 -3h233z" glyph-name="afii10058" horiz-adv-x="1974" unicode="Љ"/><glyph d="M1358 776q133 0 227 -37t140.5 -97t65.5 -121.5t19 -131.5t-19 -131t-65.5 -122.5t-140.5 -98.5t-227 -37h-287q-14 0 -18 4t-4 19v692q0 14 -3.5 17t-17.5 3h-725q-14 0 -17 -3t-3 -17v-692q0 -14 -4.5 -18.5t-18.5 -4.5t-18 4t-4 19v1388q0 14 4 18.5t18 4.5t18.5 -4.5 t4.5 -18.5v-614q0 -14 3 -17.5t17 -3.5h725q14 0 17.5 3t3.5 18v614q0 14 4 18.5t18 4.5t18.5 -4.5t4.5 -18.5v-614q0 -14 3 -17.5t17 -3.5h244zM1114 735q-14 0 -17 -3t-3 -17v-654q0 -14 3 -17t17 -3h234q327 0 372 141.5t45 239.5t-86 205.5t-331 107.5h-234z" glyph-name="afii10059" horiz-adv-x="1941" unicode="Њ"/><glyph d="M698 1434q23 0 23 -20.5t-23 -20.5h-252q-14 0 -17 -3.5t-3 -17.5v-450q125 110 280 110t245.5 -92t92.5 -258v-659q0 -14 -4 -18.5t-18 -4.5t-18.5 4t-4.5 19v651q-2 154 -80.5 235.5t-222.5 81.5t-270 -110v-858q0 -14 -4 -18.5t-18.5 -4.5t-18.5 4t-4 19v1349 q0 14 -3 17.5t-18 3.5h-251q-23 0 -23 20.5t23 20.5h589z" glyph-name="afii10060" horiz-adv-x="1198" unicode="Ћ"/><glyph d="M1053.5 8.5q0.5 -8.5 -19.5 -8.5t-39 23l-532 696q-12 18 -29 0l-129 -148q-23 -27 -22 -61v-487q0 -14 -4.5 -18.5t-18.5 -4.5t-18 4t-4 19v1388q0 14 4 18.5t18 4.5t18.5 -4.5t4.5 -18.5v-774q0 -12 8 -14t14 6l688 782q19 23 37 23t22.5 -7.5t-1.5 -15.5l-551 -627 q-12 -14 -12.5 -21t12.5 -24l549 -716q4 -6 4.5 -14.5zM532 1597q-18 -18 -30.5 -5.5t6.5 30.5l221 233q18 18 24.5 19.5t20.5 -10.5q12 -14 11 -20.5t-19 -24.5z" glyph-name="afii10061" horiz-adv-x="1140" unicode="Ќ"/><glyph d="M128 1434q24 0 32 -23l340 -969q4 -10 12 -10t12 10l340 969q8 23 33 23t16 -23l-440 -1245q-76 -215 -274 -164q-20 4 -24.5 10t0.5 24t34 9q86 -25 137 12t84 125l47 131q10 31 0 64l-366 1034q-7 23 17 23zM512 1585q-86 0 -148.5 55.5t-70.5 163.5q-2 35 16 35 t21.5 -5t5.5 -30q4 -80 52 -129t124 -49t124 49t52 129q2 25 5 30t21 5t17 -35q-8 -109 -70.5 -164t-148.5 -55z" glyph-name="afii10062" horiz-adv-x="1024" unicode="Ў"/><glyph d="M680 -20q0 14 -3 17t-18 3h-399q-14 0 -18 4t-4 19v1388q0 14 4 18.5t18 4.5t18.5 -4.5t4.5 -18.5v-1350q0 -14 3 -17t17 -3h791q14 0 17 3t3 17v1350q0 14 4 18.5t18.5 4.5t18.5 -4.5t4 -18.5v-1388q0 -14 -4 -18.5t-18 -4.5h-392q-14 0 -17 -3t-3 -17v-302 q0 -14 -4 -18t-18.5 -4t-18.5 4t-4 18v302z" glyph-name="afii10145" horiz-adv-x="1396" unicode="Џ"/><glyph d="M624.5 1434q22.5 0 30.5 -23l484 -1388q8 -23 -17 -23t-32 23l-136 387q-6 18 -13 23t-28 5h-577q-20 0 -27.5 -5t-13.5 -23l-135 -387q-8 -23 -33 -23t-16 23l483 1388q8 23 30.5 23zM340 479h569q23 0 15 23l-287 831q-2 10 -12.5 10t-12.5 -10l-286 -831 q-8 -23 14 -23z" glyph-name="afii10017" horiz-adv-x="1249" unicode="А"/><glyph d="M260 0q-14 0 -18 4t-4 19v1388q0 14 4 18.5t18 4.5h684q23 0 23 -20.5t-23 -20.5h-641q-14 0 -17 -3.5t-3 -17.5v-541q0 -14 3 -17t17 -3h313q133 0 227.5 -37t140.5 -100.5t65.5 -129t19.5 -139t-19.5 -139t-65.5 -129t-140 -100.5t-228 -37h-356zM606 41 q247 0 332.5 112.5t85.5 252t-85.5 252t-332.5 112.5h-303q-14 0 -17 -3t-3 -17v-689q0 -14 3 -17t17 -3h303z" glyph-name="afii10018" horiz-adv-x="1200" unicode="Б"/><glyph d="M260 0q-14 0 -18 4t-4 19v1388q0 14 4 18.5t18 4.5h369q197 0 297 -99t100 -233q0 -273 -238 -344q143 -39 211 -144.5t68 -241.5t-104.5 -254t-325.5 -118h-377zM937.5 621q-84.5 110 -288.5 114h-346q-14 0 -17 -3t-3 -17v-654q0 -14 3 -17t17 -3h338q104 0 183 34 t138.5 114.5t59.5 201t-84.5 230.5zM283 797q0 -14 3 -17.5t17 -3.5h348q162 4 246 92t84 218t-88 218.5t-260 88.5h-330q-14 0 -17 -3.5t-3 -17.5v-575z" glyph-name="afii10019" horiz-adv-x="1220" unicode="В"/><glyph d="M883 1434q23 0 22.5 -20.5t-22.5 -20.5h-580q-14 0 -17 -3.5t-3 -17.5v-1349q0 -14 -4.5 -18.5t-18.5 -4.5t-18 4t-4 19v1388q0 14 4 18.5t18 4.5h623z" glyph-name="afii10020" horiz-adv-x="991" unicode="Г"/><glyph d="M158 0q-14 0 -17.5 -3t-3.5 -17v-302q0 -14 -4 -18t-18.5 -4t-18.5 4t-4 18v340q0 14 4 18.5t19 4.5h219q180 631 180 1370q0 14 4 18.5t19 4.5h616q14 0 18.5 -4.5t4.5 -18.5v-1350q0 -14 3 -17t17 -3h219q14 0 18.5 -4t4.5 -19v-340q0 -14 -4 -18t-18.5 -4t-18.5 4 t-4 18v302q0 14 -3.5 17t-17.5 3h-1214zM1130 1372q0 14 -3 17.5t-17 3.5h-530q-14 0 -17.5 -3.5t-3.5 -17.5q0 -717 -180 -1331h731q14 0 17 3t3 17v1311z" glyph-name="afii10021" horiz-adv-x="1529" unicode="Д"/><glyph d="M864 755.5q0 -20.5 -22 -20.5h-539q-14 0 -17 -3t-3 -17v-654q0 -14 3 -17t17 -3h641q23 0 23 -20.5t-23 -20.5h-684q-14 0 -18 4t-4 19v1388q0 14 4 18.5t18 4.5h684q23 0 23 -20.5t-23 -20.5h-641q-14 0 -17 -3.5t-3 -17.5v-575q0 -14 3 -17.5t17 -3.5h539 q22 0 22 -20.5z" glyph-name="afii10022" horiz-adv-x="1114" unicode="Е"/><glyph d="M1704 8.5q0 -8.5 -19 -8.5t-38 23l-531 694q-12 18 -29 0l-131 -150q-23 -27 -22 -61v-483q0 -14 -4 -18.5t-18.5 -4.5t-18.5 4t-4 19v483q0 35 -23 61l-131 150q-16 18 -28 0l-531 -694q-18 -23 -34 -23q-34 0 -19 23l549 716q12 16 12 23.5t-12 21.5l-551 627 q-4 6 -3.5 14.5t20.5 8.5t40 -23l688 -782q6 -8 14.5 -6t8.5 14v774q0 14 4 18.5t18.5 4.5t18.5 -4.5t4 -18.5v-774q0 -12 8 -14t14 6l689 782q19 23 37 23t22 -7.5t-2 -15.5l-551 -627q-12 -14 -12 -21t12 -24l549 -716q4 -6 4 -14.5z" glyph-name="afii10024" horiz-adv-x="1822" unicode="Ж"/><glyph d="M530 763.5q0 20.5 21 20.5q123 4 181 91.5t50 224.5t-89 217t-204 84q-160 6 -276 -125q-16 -16 -30.5 -2t1.5 33q129 141 308 135q135 -4 231 -91t103 -237t-38 -234.5t-120 -115.5q82 -35 138 -127.5t51 -264.5t-116.5 -278t-286.5 -101t-311 152q-16 18 -1.5 33 t30.5 -2q125 -137 285 -142t255 94t101 259t-64.5 258t-197.5 98q-21 0 -21 20.5z" glyph-name="afii10025" horiz-adv-x="1013" unicode="З"/><glyph d="M260.5 0q-14.5 0 -18.5 4t-4 19v1388q0 14 4 18.5t18 4.5t18.5 -4.5t4.5 -18.5v-1288q0 -10 7 -12t11 6l840 1298q12 18 26.5 18.5t18.5 -4t4 -18.5v-1388q0 -14 -4 -18.5t-18.5 -4.5t-18.5 4t-4 19v1288q0 10 -7.5 12t-11.5 -6l-839 -1299q-12 -18 -26.5 -18z" glyph-name="afii10026" horiz-adv-x="1427" unicode="И"/><glyph d="M260.5 0q-14.5 0 -18.5 4t-4 19v1388q0 14 4 18.5t18 4.5t18.5 -4.5t4.5 -18.5v-1288q0 -10 7 -12t11 6l840 1298q12 18 26.5 18.5t18.5 -4t4 -18.5v-1388q0 -14 -4 -18.5t-18.5 -4.5t-18.5 4t-4 19v1288q0 10 -7.5 12t-11.5 -6l-839 -1299q-12 -18 -26.5 -18zM713 1585 q-86 0 -148.5 55.5t-70.5 163.5q-2 35 16 35t21.5 -5t5.5 -30q4 -80 52 -129t123.5 -49t124 49t52.5 129q2 25 5 30t21 5t17 -35q-8 -109 -70.5 -164t-148.5 -55z" glyph-name="afii10027" horiz-adv-x="1427" unicode="Й"/><glyph d="M1053.5 8.5q0.5 -8.5 -19.5 -8.5t-39 23l-532 696q-12 18 -29 0l-129 -148q-23 -27 -22 -61v-487q0 -14 -4.5 -18.5t-18.5 -4.5t-18 4t-4 19v1388q0 14 4 18.5t18 4.5t18.5 -4.5t4.5 -18.5v-774q0 -12 8 -14t14 6l688 782q19 23 37 23t22.5 -7.5t-1.5 -15.5l-551 -627 q-12 -14 -12.5 -21t12.5 -24l549 -716q4 -6 4.5 -14.5z" glyph-name="afii10028" horiz-adv-x="1140" unicode="К"/><glyph d="M1104 1434q14 0 18 -4.5t4 -18.5v-1388q0 -14 -4 -18.5t-18 -4.5t-18.5 4t-4.5 19v1349q0 14 -3 17.5t-17 3.5h-641q-14 0 -17.5 -3.5t-3.5 -17.5v-1079q0 -143 -85 -218t-203 -75h-2q-23 0 -23 20.5t23 20.5h2q102 0 172.5 62.5t70.5 191.5v1116q0 14 4 18.5t19 4.5h727 z" glyph-name="afii10029" horiz-adv-x="1363" unicode="Л"/><glyph d="M831.5 80q8.5 0 10.5 8l454 1323q8 23 31 23t25 -23l114 -1388q2 -23 -16 -23t-22.5 3t-6.5 20l-102 1261q-2 14 -11 12t-12 -10l-434 -1263q-6 -23 -30.5 -23t-30.5 23l-434 1263q-5 14 -13 10t-10 -12l-102 -1261q-2 -16 -6.5 -19.5t-22.5 -3.5t-16 23l114 1388 q3 23 25 23t31 -23l454 -1323q2 -8 10.5 -8z" glyph-name="afii10030" horiz-adv-x="1662" unicode="М"/><glyph d="M1049 715q0 14 -3.5 17t-17.5 3h-725q-14 0 -17 -3t-3 -17v-692q0 -14 -4.5 -18.5t-18.5 -4.5t-18 4t-4 19v1388q0 14 4 18.5t18 4.5t18.5 -4.5t4.5 -18.5v-614q0 -14 3 -17.5t17 -3.5h725q14 0 17.5 3t3.5 18v614q0 14 4 18.5t18 4.5t18.5 -4.5t4.5 -18.5v-1388 q0 -14 -4.5 -18.5t-18.5 -4.5t-18 4t-4 19v692z" glyph-name="afii10031" horiz-adv-x="1331" unicode="Н"/><glyph d="M1249 805v-176q0 -324 -152.5 -480.5t-394 -156.5t-394 156.5t-152.5 480.5v176q0 324 152.5 480.5t394 156.5t394 -156.5t152.5 -480.5zM201 801v-168q0 -303 138 -451.5t363.5 -148.5t363.5 148.5t138 451.5v168q0 303 -138 451.5t-363.5 148.5t-363.5 -148.5 t-138 -451.5z" glyph-name="afii10032" horiz-adv-x="1404" unicode="О"/><glyph d="M260 1434h877q14 0 18 -4.5t4 -18.5v-1388q0 -14 -4 -18.5t-18.5 -4.5t-18.5 4t-4 19v1349q0 14 -3 17.5t-17 3.5h-791q-14 0 -17 -3.5t-3 -17.5v-1349q0 -14 -4.5 -18.5t-18.5 -4.5t-18 4t-4 19v1388q0 14 4 18.5t18 4.5z" glyph-name="afii10033" horiz-adv-x="1396" unicode="П"/><glyph d="M1030 987q0 -201 -117.5 -323.5t-351.5 -122.5h-258q-14 0 -17 -3t-3 -18v-497q0 -14 -4.5 -18.5t-18.5 -4.5t-18 4t-4 19v1388q0 14 4 18.5t18 4.5h301q233 0 351 -123t118 -324zM985 987q0 178 -106.5 292t-317.5 114h-258q-14 0 -17 -3.5t-3 -17.5v-770q0 -14 3 -17 t17 -3h258q211 0 317.5 113.5t106.5 291.5z" glyph-name="afii10034" horiz-adv-x="1163" unicode="Р"/><glyph d="M201 633q0 -307 143.5 -456.5t363.5 -143.5t353 174q12 14 28 -1t3 -32q-141 -176 -381 -182t-397.5 152.5t-157.5 484.5v176q0 326 157.5 484.5t397.5 152.5t381 -182q14 -16 -2 -32t-29 -1q-133 168 -352 174t-363.5 -143.5t-144.5 -456.5v-168z" glyph-name="afii10035" horiz-adv-x="1226" unicode="С"/><glyph d="M514 0q-14 0 -18 4t-4 19v1349q0 14 -3.5 17.5t-17.5 3.5h-362q-23 0 -23 20.5t23 20.5h811q23 0 22.5 -20.5t-22.5 -20.5h-363q-14 0 -17 -3.5t-3 -17.5v-1349q0 -14 -4.5 -18.5t-18.5 -4.5z" glyph-name="afii10036" horiz-adv-x="1028" unicode="Т"/><glyph d="M128 1434q24 0 32 -23l340 -969q4 -10 12 -10t12 10l340 969q8 23 33 23t16 -23l-440 -1245q-76 -215 -274 -164q-20 4 -24.5 10t0.5 24t34 9q86 -25 137 12t84 125l47 131q10 31 0 64l-366 1034q-7 23 17 23z" glyph-name="afii10037" horiz-adv-x="1024" unicode="У"/><glyph d="M817 109q0 14 -3 17t-17 3h-95q-236 0 -391 145.5t-155 441.5t155.5 442.5t390.5 146.5h95q14 0 17 3t3 17v86q0 14 4 18.5t18.5 4.5t18.5 -4.5t4 -18.5v-86q0 -14 3 -17t18 -3h94q236 0 391.5 -146.5t155.5 -442.5t-156 -441.5t-391 -145.5h-94q-14 0 -17.5 -3t-3.5 -17 v-86q0 -14 -4 -18.5t-18.5 -4.5t-18.5 4t-4 19v86zM702 1264q-217 0 -359 -137.5t-142 -410t142 -409.5t359 -137h95q14 0 17 3t3 17v1053q0 14 -3 17.5t-17 3.5h-95zM977 1264h-94q-14 0 -17.5 -3.5t-3.5 -17.5v-1053q0 -14 3 -17t18 -3h94q217 0 359.5 137t142.5 409.5 t-142.5 410t-359.5 137.5z" glyph-name="afii10038" horiz-adv-x="1679" unicode="Ф"/><glyph d="M123 0q-29 0 -14 23l411 686q12 18 0 36l-389 666q-14 23 14 23q20 0 35 -23l363 -627q12 -20 24 0l363 627q14 23 35 23q29 0 14 -23l-389 -666q-12 -18 0 -36l411 -686q14 -23 -14 -23q-20 0 -35 23l-385 645q-12 20 -24 0l-385 -645q-14 -23 -35 -23z" glyph-name="afii10039" horiz-adv-x="1110" unicode="Х"/><glyph d="M283 61q0 -14 3 -17t17 -3h725q14 0 17.5 3t3.5 17v1350q0 14 4 18.5t18 4.5t18.5 -4.5t4.5 -18.5v-1350q0 -14 3 -17t17 -3h219q14 0 18.5 -4t4.5 -19v-340q0 -14 -4 -18t-18.5 -4t-18.5 4t-4 18v302q0 14 -3 17t-18 3h-1030q-14 0 -18 4t-4 19v1388q0 14 4 18.5t18 4.5 t18.5 -4.5t4.5 -18.5v-1350z" glyph-name="afii10040" horiz-adv-x="1447" unicode="Ц"/><glyph d="M975 23q0 -14 -4 -18.5t-18.5 -4.5t-18.5 4t-4 19v677q-237 -215 -400 -174t-228.5 81t-106.5 124t-41 199v481q0 14 4 18.5t18 4.5t18.5 -4.5t4.5 -18.5v-496q0 -182 116.5 -264t270.5 -73q186 10 344 163v670q0 14 4 18.5t18.5 4.5t18.5 -4.5t4 -18.5v-1388z" glyph-name="afii10041" horiz-adv-x="1210" unicode="Ч"/><glyph d="M868 41q14 0 17.5 3t3.5 17v1350q0 14 4 18.5t18.5 4.5t18.5 -4.5t4 -18.5v-1350q0 -14 3 -17t17 -3h566q14 0 17 3t3 17v1350q0 14 4 18.5t18.5 4.5t18.5 -4.5t4 -18.5v-1388q0 -14 -4 -18.5t-18 -4.5h-1303q-14 0 -18 4t-4 19v1388q0 14 4 18.5t18 4.5t18.5 -4.5 t4.5 -18.5v-1350q0 -14 3 -17t17 -3h565z" glyph-name="afii10042" horiz-adv-x="1822" unicode="Ш"/><glyph d="M911.5 1434q14.5 0 18.5 -4.5t4 -18.5v-1350q0 -14 3 -17t17 -3h566q14 0 17 3t3 17v1350q0 14 4 18.5t18.5 4.5t18.5 -4.5t4 -18.5v-1350q0 -14 3 -17t18 -3h219q14 0 18 -4t4 -19v-340q0 -14 -4 -18t-18.5 -4t-18.5 4t-4 18v302q0 14 -3 17t-17 3h-1522q-14 0 -18 4 t-4 19v1388q0 14 4 18.5t18 4.5t18.5 -4.5t4.5 -18.5v-1350q0 -14 3 -17t17 -3h565q14 0 17.5 3t3.5 17v1350q0 14 4 18.5t18.5 4.5z" glyph-name="afii10043" horiz-adv-x="1939" unicode="Щ"/><glyph d="M406 0q-14 0 -18.5 4t-4.5 19v1349q0 14 -3 17.5t-18 3.5h-253q-23 0 -23 20.5t23 20.5h297q14 0 18 -4.5t4 -18.5v-580q0 -14 3 -17t18 -3h313q133 0 227 -37t140.5 -100.5t65.5 -129t19 -139t-19 -139t-65.5 -129t-140.5 -100.5t-227 -37h-356zM752 41q247 0 332 111.5 t85 253t-85 253t-332 111.5h-303q-14 0 -17.5 -3t-3.5 -17v-689q0 -14 3 -17t18 -3h303z" glyph-name="afii10044" horiz-adv-x="1345" unicode="Ъ"/><glyph d="M1346 1411q0 14 4 18.5t18 4.5t18.5 -4.5t4.5 -18.5v-1388q0 -14 -4.5 -18.5t-18.5 -4.5t-18 4t-4 19v1388zM283 831q0 -14 3 -17t17 -3h313q133 0 227.5 -37t140.5 -100.5t65.5 -129t19.5 -139t-19.5 -139t-65.5 -129t-140 -100.5t-228 -37h-356q-14 0 -18 4t-4 19v1388 q0 14 4 18.5t18 4.5t18.5 -4.5t4.5 -18.5v-580zM606 41q247 0 332.5 112.5t85.5 252t-85.5 252t-332.5 112.5h-303q-14 0 -17 -3t-3 -17v-689q0 -14 3 -17t17 -3h303z" glyph-name="afii10045" horiz-adv-x="1628" unicode="Ы"/><glyph d="M283 831q0 -14 3 -17t17 -3h313q133 0 227.5 -37t140.5 -100.5t65.5 -129t19.5 -139t-19.5 -139t-65.5 -129t-140 -100.5t-228 -37h-356q-14 0 -18 4t-4 19v1388q0 14 4 18.5t18 4.5t18.5 -4.5t4.5 -18.5v-580zM606 41q247 0 332.5 112.5t85.5 252t-85.5 252 t-332.5 112.5h-303q-14 0 -17 -3t-3 -17v-689q0 -14 3 -17t17 -3h303z" glyph-name="afii10046" horiz-adv-x="1200" unicode="Ь"/><glyph d="M614 716.5q0 20.5 23 20.5h369q14 0 17 3t3 18v43q0 307 -144.5 456.5t-363.5 143.5t-352 -174q-12 -14 -28 1t-3 32q141 176 381 182t397.5 -153t157.5 -484v-176q0 -326 -157.5 -484.5t-397.5 -152.5t-381 182q-14 16 2 32t29 1q133 -168 352 -174t363.5 143.5 t144.5 456.5v43q0 14 -3 17t-17 3h-369q-23 0 -23 20.5z" glyph-name="afii10047" horiz-adv-x="1226" unicode="Э"/><glyph d="M657 676q0 14 -3 17t-17 3h-334q-14 0 -17 -3t-3 -17v-653q0 -14 -4.5 -18.5t-18.5 -4.5t-18 4t-4 19v1388q0 14 4 18.5t18 4.5t18.5 -4.5t4.5 -18.5v-653q0 -14 3 -17.5t17 -3.5h334q14 0 17 3t3 18v47q0 324 153 480.5t394.5 156.5t394 -157t152.5 -480v-176 q0 -324 -152.5 -480.5t-394 -156.5t-394.5 156.5t-153 480.5v47zM702 801v-168q0 -303 138.5 -451.5t364 -148.5t363.5 148.5t138 451.5v168q0 303 -138 451.5t-363.5 148.5t-364 -148.5t-138.5 -451.5z" glyph-name="afii10048" horiz-adv-x="1906" unicode="Ю"/><glyph d="M170 0q-29 0 -14 23l368 620q-184 23 -275 129t-91 274t113.5 278t346.5 110h363q14 0 18.5 -4.5t4.5 -18.5v-1388q0 -14 -4.5 -18.5t-18.5 -4.5t-18.5 4t-4.5 19v595q0 14 -3 17.5t-17 3.5h-365l-366 -616q-14 -23 -37 -23zM203 1036.5q0 -159.5 103.5 -258t307.5 -98.5 h324q14 0 17 3t3 17v672q0 14 -3 17.5t-17 3.5h-324q-205 0 -308 -98.5t-103 -258z" glyph-name="afii10049" horiz-adv-x="1241" unicode="Я"/><glyph d="M802.5 0q-20.5 0 -20.5 23v94q-51 -55 -131 -90t-164 -35q-150 0 -252 96t-102 238t102.5 239t251.5 97q84 0 164 -35t131 -90v155q0 141 -89 221t-219 80t-228 -102q-16 -18 -30 -5t1 32q103 114 255 114t251.5 -94t99.5 -252v-663q0 -23 -20.5 -23zM174 328 q0 -125 89 -211t226 -86q174 0 293 123v346q-119 123 -293 123q-137 0 -226 -85t-89 -210z" glyph-name="afii10065" horiz-adv-x="999" unicode="а"/><glyph d="M156 838q0 254 96 351t307 97q135 0 175 15.5t48 91.5q12 39 23 41q18 0 21 -10t-2 -42t-19 -60t-41.5 -51.5t-219.5 -23.5t-269.5 -95t-77.5 -314v-50q39 117 127 180.5t211 63.5q174 0 276 -117.5t102 -339.5v-126q0 -221 -102 -339t-276.5 -118t-276.5 117.5 t-102 339.5v389zM534.5 31q149.5 0 243.5 102.5t94 292.5v172q0 190 -94 292.5t-243.5 102.5t-243.5 -102.5t-94 -292.5v-172q0 -190 94 -292.5t243.5 -102.5z" glyph-name="afii10066" horiz-adv-x="1069" unicode="б"/><glyph d="M197 1004q0 20 22 20h227q156 0 230 -69.5t76 -184.5v-14q-4 -180 -166 -236q162 -51 166 -233v-33q-2 -115 -76 -184.5t-230 -69.5h-227q-23 0 -22 20v984zM258 39h186q137 0 202 60.5t65 160.5v21q0 100 -63.5 159.5t-201.5 61.5h-188q-14 0 -17 -3t-3 -18v-422 q0 -14 3 -17t17 -3zM258 985q-14 0 -17 -3t-3 -17v-404q0 -14 3 -17t17 -3h201q129 2 190.5 62.5t61.5 158.5v2q0 100 -64.5 160.5t-202.5 60.5h-186z" glyph-name="afii10067" horiz-adv-x="909" unicode="в"/><glyph d="M219 1024h490q23 0 22 -20q0 -18 -22 -19h-451q-14 0 -17 -3t-3 -17v-942q0 -23 -20.5 -23t-20.5 23v981q-1 20 22 20z" glyph-name="afii10068" horiz-adv-x="817" unicode="г"/><glyph d="M53 -225v241q0 23 21 23h110q53 135 80 212t59.5 287t32.5 466q0 20 23 20h463q23 0 22 -20v-945q0 -14 3 -17t18 -3h164q20 0 20 -23v-241q0 -23 -20.5 -23t-20.5 23v205q0 14 -3 17t-17 3h-893q-14 0 -17.5 -3t-3.5 -17v-205q0 -23 -20.5 -23t-20.5 23zM823 59v906 q0 14 -3 17t-17 3h-385q-14 0 -17.5 -3t-3.5 -100t-14 -245t-49.5 -282.5t-104.5 -315.5h574q14 0 17 3t3 17z" glyph-name="afii10069" horiz-adv-x="1163" unicode="д"/><glyph d="M156 449v126q0 213 95 335t263 122t263 -122t95 -335v-59q0 -14 -4 -18t-18 -4h-633q-14 0 -17 -3.5t-3 -17.5v-47q0 -190 93.5 -292.5t245.5 -102.5t263 121q16 20 30.5 5.5t-0.5 -30.5q-121 -135 -295 -135t-276 118t-102 339zM831 598q0 186 -89 290.5t-228 104.5 t-228 -104.5t-89 -290.5v-47q0 -14 3 -17.5t17 -3.5h594q14 0 17 3.5t3 17.5v47z" glyph-name="afii10070" horiz-adv-x="1028" unicode="е"/><glyph d="M684.5 1024q20.5 0 20.5 -23v-593q0 -14 8 -12.5t10 5.5l477 600q18 23 41 23q29 0 8 -25l-313 -393q-8 -10 0 -24l336 -557q14 -25 -8 -25t-37 23l-320 528q-8 14 -20 0l-166 -209q-16 -23 -16 -70v-249q0 -23 -20.5 -23t-20.5 23v249q0 47 -17 70l-166 209 q-12 14 -20 0l-320 -528q-14 -23 -37 -23t-8 25l336 557q8 14 0 24l-313 393q-21 25 5 25t44 -23l477 -600q6 -11 12.5 -5.5t6.5 12.5v593q0 23 20.5 23z" glyph-name="afii10072" horiz-adv-x="1368" unicode="ж"/><glyph d="M432 492q-23 0 -22 18q0 20 22 20q172 0 229.5 116t-20.5 231.5t-229 115.5t-262 -121q-16 -20 -31 -5.5t0 30.5q121 135 287 135q98 0 174.5 -44t108.5 -111.5t35 -140t-42 -135t-125 -89.5q80 -29 125 -91.5t42 -134t-35 -139t-108.5 -111.5t-174.5 -44 q-166 0 -287 135q-14 16 0 30.5t31 -5.5q110 -121 262 -121t229.5 115.5t20 230.5t-229.5 115z" glyph-name="afii10073" horiz-adv-x="882" unicode="з"/><glyph d="M217 0q-20 0 -20 23v978q0 23 20.5 23t20.5 -23v-901q0 -6 6 -8t10 4l575 893q16 25 23.5 30t21.5 5q20 0 21 -23v-978q0 -23 -20.5 -23t-20.5 23v901q0 6 -6 8t-10 -4l-576 -893q-16 -25 -23.5 -30t-21.5 -5z" glyph-name="afii10074" horiz-adv-x="1091" unicode="и"/><glyph d="M217 0q-20 0 -20 23v978q0 23 20.5 23t20.5 -23v-901q0 -6 6 -8t10 4l575 893q16 25 23.5 30t21.5 5q20 0 21 -23v-978q0 -23 -20.5 -23t-20.5 23v901q0 6 -6 8t-10 -4l-576 -893q-16 -25 -23.5 -30t-21.5 -5zM545 1176q-86 0 -148.5 55t-70.5 164q-2 35 16 35t21.5 -5.5 t5.5 -29.5q4 -80 52 -129t124 -49t124 49t52 129q2 25 5 30t21 5t17 -35q-8 -109 -70.5 -164t-148.5 -55z" glyph-name="afii10075" horiz-adv-x="1091" unicode="й"/><glyph d="M217.5 0q-20.5 0 -20.5 23v978q0 23 20.5 23t20.5 -23v-593q0 -14 8 -12.5t10 5.5l477 600q18 23 41 23q29 0 8 -25l-313 -393q-8 -10 0 -24l336 -557q14 -25 -8 -25t-37 23l-320 528q-8 14 -20 0l-166 -209q-16 -23 -16 -70v-249q0 -23 -20.5 -23z" glyph-name="afii10076" horiz-adv-x="901" unicode="к"/><glyph d="M98 0h-2q-23 0 -22 18q0 20 22 21h2q96 0 123 59.5t27 206.5v699q0 20 22 20h566q23 0 22 -20v-981q0 -23 -20.5 -23t-20.5 23v942q0 14 -3 17t-17 3h-488q-14 0 -17 -3t-3 -17v-672q0 -154 -39 -223.5t-152 -69.5z" glyph-name="afii10077" horiz-adv-x="1054" unicode="л"/><glyph d="M647 66q8 0 10 8l385 915q10 27 14.5 31t22.5 4t19 -23v-978q0 -23 -20.5 -23t-20.5 23v854q0 13 -7.5 9.5t-9.5 -7.5l-354 -844q-10 -25 -16 -30t-22.5 -5t-23 5t-16.5 30l-354 844q-6 12 -11 7t-5 -9v-854q0 -23 -20.5 -23t-20.5 23v978q0 23 18 23t22.5 -4t14.5 -31 l385 -915q2 -8 10 -8z" glyph-name="afii10078" horiz-adv-x="1294" unicode="м"/><glyph d="M872 485q0 14 -3 17.5t-17 3.5h-594q-14 0 -17 -3t-3 -18v-462q0 -23 -20.5 -23t-20.5 23v978q0 23 20.5 23t20.5 -23v-436q0 -14 3 -17t17 -3h594q14 0 17 3t3 17v436q0 23 20.5 23t20.5 -23v-978q0 -23 -20.5 -23t-20.5 23v462z" glyph-name="afii10079" horiz-adv-x="1110" unicode="н"/><glyph d="M913 575v-126q0 -221 -102 -339t-276.5 -118t-276.5 117.5t-102 339.5v126q0 221 102 339t276.5 118t276.5 -118t102 -339zM534.5 31q149.5 0 243.5 102.5t94 292.5v172q0 190 -94 292.5t-243.5 102.5t-243.5 -102.5t-94 -292.5v-172q0 -190 94 -292.5t243.5 -102.5z" glyph-name="afii10080" horiz-adv-x="1069" unicode="о"/><glyph d="M219 1024h672q23 0 22 -20v-981q0 -23 -20.5 -23t-20.5 23v942q0 14 -3 17t-17 3h-594q-14 0 -17 -3t-3 -17v-942q0 -23 -20.5 -23t-20.5 23v981q-1 20 22 20z" glyph-name="afii10081" horiz-adv-x="1110" unicode="п"/><glyph d="M217.5 -502q-20.5 0 -20.5 23v1480q0 23 20.5 23t20.5 -23v-86q119 111 260 117q174 6 278.5 -114.5t104.5 -342.5v-126q0 -221 -104.5 -342t-262.5 -115t-276 114v-585q0 -23 -20.5 -23zM840 598q0 193 -96 297t-248 98t-258 -123v-716q106 -117 258 -123t248 98t96 297 v172z" glyph-name="afii10082" unicode="р"/><glyph d="M197 426q0 -190 93.5 -292.5t245.5 -102.5t263 121q16 20 30.5 5.5t-0.5 -30.5q-121 -135 -295 -135t-276 117.5t-102 339.5v126q0 221 102 339t276.5 118t294.5 -135q14 -16 0 -30.5t-30 5.5q-111 121 -263 121t-245.5 -102.5t-93.5 -292.5v-172z" glyph-name="afii10083" horiz-adv-x="954" unicode="с"/><glyph d="M430 965q0 14 -3 17t-17 3h-301q-23 -1 -23 19t23 20h684q23 0 22 -20q0 -18 -22 -19h-301q-14 0 -17.5 -3t-3.5 -17v-942q0 -23 -20.5 -23t-20.5 23v942z" glyph-name="afii10084" horiz-adv-x="901" unicode="т"/><glyph d="M109 1024q18 0 26 -23l332 -935q8 -20 16 0l332 935q8 23 27 23q27 0 14 -29l-473 -1327q-76 -213 -262 -168q-20 4 -24.5 9.5t-2.5 19.5q4 18 33 12q158 -37 223 148l92 262q12 34 2 63l-350 981q-12 29 15 29z" glyph-name="afii10085" horiz-adv-x="950" unicode="у"/><glyph d="M535 0q-174 0 -276.5 118t-102.5 339v110q0 221 102 339t277 118h90q14 0 17 3t3 17v58q0 23 20.5 22.5t20.5 -22.5v-58q0 -14 3 -17t18 -3h106q168 -6 265.5 -124t97.5 -333v-110q0 -215 -96.5 -333t-262.5 -124h-110q-14 0 -17.5 -3t-3.5 -17v-58q0 -23 -20.5 -22.5 t-20.5 22.5v58q0 14 -3 17t-17 3h-90zM686 965v-906q0 -14 3 -17t18 -3h104q143 4 233.5 106.5t90.5 288.5v156q0 182 -88.5 284.5t-229.5 110.5h-110q-14 0 -17.5 -3t-3.5 -17zM625 39q14 0 17 3t3 17v906q0 14 -3 17t-17 3h-90q-150 0 -244 -102.5t-94 -292.5v-156 q0 -190 94 -292.5t244 -102.5h90z" glyph-name="afii10086" horiz-adv-x="1331" unicode="ф"/><glyph d="M858 0q-20 0 -37 23l-332 460q-10 14 -20 0l-332 -460q-16 -23 -37 -23q-27 0 -4 29l353 487q8 12 0 23l-332 456q-23 29 4 29q20 0 37 -23l311 -430q10 -14 20 0l312 430q16 23 37 23q27 0 4 -29l-332 -456q-8 -10 0 -23l352 -487q23 -29 -4 -29z" glyph-name="afii10087" horiz-adv-x="958" unicode="х"/><glyph d="M1118 -225q0 -23 -20.5 -23t-20.5 23v205q0 14 -3 17t-17 3h-836q-23 0 -22 20v981q0 23 20.5 23t20.5 -23v-942q0 -14 3 -17t17 -3h592q14 0 17 3t3 17v942q0 23 20.5 23t20.5 -23v-942q0 -14 3.5 -17t17.5 -3h164q20 0 20 -23v-241z" glyph-name="afii10088" horiz-adv-x="1212" unicode="ц"/><glyph d="M197 1001v-333q2 -154 81.5 -236t219.5 -82t258 96v555q0 23 20.5 23t20.5 -23v-978q0 -23 -20.5 -23t-20.5 23v385q-121 -96 -270 -96t-238.5 91t-91.5 259v339q0 23 20.5 23t20.5 -23z" glyph-name="afii10089" horiz-adv-x="993" unicode="ч"/><glyph d="M1272 0h-1053q-23 0 -22 20v981q0 23 20.5 23t20.5 -23v-942q0 -14 3 -17t17 -3h447q14 0 17 3t3 17v942q0 23 20.5 23t20.5 -23v-942q0 -14 3 -17t17 -3h447q14 0 17 3t3 17v942q0 23 20.5 23t20.5 -23v-981q1 -20 -22 -20z" glyph-name="afii10090" horiz-adv-x="1490" unicode="ш"/><glyph d="M258 39h447q14 0 17 3t3 17v942q0 23 20.5 23t20.5 -23v-942q0 -14 3 -17t17 -3h447q14 0 17 3t3 17v942q0 23 20.5 23t20.5 -23v-942q0 -14 3 -17t18 -3h164q20 0 20 -23v-241q0 -23 -20.5 -23t-20.5 23v205q0 14 -3 17t-17 3h-1219q-23 0 -22 20v981q0 23 20.5 23 t20.5 -23v-942q0 -14 3 -17t17 -3z" glyph-name="afii10091" horiz-adv-x="1593" unicode="щ"/><glyph d="M311 965q0 14 -3 17t-17 3h-189q-23 0 -22 19q0 20 22 20h228q23 0 22 -20v-326q0 -14 3 -17.5t18 -3.5h145q346 0 350 -327q0 -330 -350 -330h-184q-23 0 -23 20v945zM373 618q-14 0 -17.5 -3t-3.5 -17v-539q0 -14 3 -17t18 -3h143q311 0 311 291q-2 137 -73.5 212.5 t-237.5 75.5h-143z" glyph-name="afii10092" horiz-adv-x="1024" unicode="ъ"/><glyph d="M238 678q0 -14 3 -17.5t17 -3.5h145q346 0 351 -327q0 -330 -351 -330h-184q-23 0 -22 20v981q0 23 20.5 23t20.5 -23v-323zM258 618q-14 0 -17 -3t-3 -17v-539q0 -14 3 -17t17 -3h143q311 0 312 291q-2 137 -74 212.5t-238 75.5h-143zM1089.5 0q-20.5 0 -20.5 23v978 q0 23 20.5 23t20.5 -23v-978q0 -23 -20.5 -23z" glyph-name="afii10093" horiz-adv-x="1306" unicode="ы"/><glyph d="M238 678q0 -14 3 -17.5t17 -3.5h145q346 0 351 -327q0 -330 -351 -330h-184q-23 0 -22 20v981q0 23 20.5 23t20.5 -23v-323zM258 618q-14 0 -17 -3t-3 -17v-539q0 -14 3 -17t17 -3h143q311 0 312 291q-2 137 -74 212.5t-238 75.5h-143z" glyph-name="afii10094" horiz-adv-x="909" unicode="ь"/><glyph d="M758 551v47q0 190 -94 292.5t-246 102.5t-262 -121q-16 -20 -30.5 -5.5t-0.5 30.5q121 135 295 135t276.5 -117.5t102.5 -339.5v-126q0 -221 -102.5 -339t-276.5 -118t-295 135q-14 16 0 30.5t31 -5.5q111 -121 262 -121t245.5 102.5t94.5 292.5v47q0 14 -3 17.5t-18 3.5 h-270q-23 0 -23 18t23 18h270q14 0 17.5 3.5t3.5 17.5z" glyph-name="afii10095" horiz-adv-x="933" unicode="э"/><glyph d="M924 -8q-174 0 -276.5 117.5t-102.5 339.5v26q0 14 -3 17.5t-18 3.5h-266q-14 0 -17 -3.5t-3 -17.5v-452q0 -23 -20.5 -23t-20.5 23v978q0 23 20.5 23t20.5 -23v-446q0 -14 3 -17t17 -3h266q14 0 17.5 3t3.5 17v20q0 221 102.5 339t276.5 118t276.5 -117.5t102.5 -339.5 v-126q0 -221 -102.5 -339t-276.5 -118zM586 598v-172q0 -190 94 -292.5t243.5 -102.5t244 102.5t94.5 292.5v172q0 190 -94.5 292.5t-244 102.5t-243.5 -102.5t-94 -292.5z" glyph-name="afii10096" horiz-adv-x="1458" unicode="ю"/><glyph d="M713 23v323q0 14 -3 17.5t-18 3.5h-184q-92 0 -164 22l-143 -366q-7 -23 -29 -23t-12 29l147 377q-150 74 -149 288q0 330 350 330h223q23 0 23 -20v-981q0 -23 -20.5 -23t-20.5 23zM510 406h182q14 0 17.5 3t3.5 17v539q0 14 -3 17t-18 3h-182q-311 0 -311 -291 q2 -137 73.5 -212.5t237.5 -75.5z" glyph-name="afii10097" horiz-adv-x="948" unicode="я"/><glyph d="M156 449v126q0 213 95 335t263 122t263 -122t95 -335v-59q0 -14 -4 -18t-18 -4h-633q-14 0 -17 -3.5t-3 -17.5v-47q0 -190 93.5 -292.5t245.5 -102.5t263 121q16 20 30.5 5.5t-0.5 -30.5q-121 -135 -295 -135t-276 118t-102 339zM197 551q0 -14 3 -17.5t17 -3.5h594 q14 0 17 3.5t3 17.5v47q0 186 -89 290.5t-228 104.5t-228 -104.5t-89 -290.5v-47zM332 1224.5q0 20.5 14 35t34.5 14.5t35 -14.5t14.5 -35t-14.5 -34.5t-35 -14t-34.5 14t-14 34.5zM598 1224.5q0 20.5 14.5 35t35 14.5t34.5 -14.5t14 -35t-14 -34.5t-34.5 -14t-35 14 t-14.5 34.5z" glyph-name="afii10071" horiz-adv-x="1028" unicode="ё"/><glyph d="M336 1161q0 14 -3 17.5t-18 3.5h-213q-23 0 -22.5 18.5t22.5 18.5h213q14 0 17.5 3t3.5 17v172q0 23 20.5 23t20.5 -23v-172q0 -14 3 -17t17 -3h213q23 0 23 -18.5t-23 -18.5h-213q-14 0 -17 -3t-3 -18v-239q125 110 281 110t245.5 -91t91.5 -259v-696q0 -190 -58 -266 t-161 -76q-23 0 -29 4t-5 16t7.5 17.5t7.5 5.5h19q178 0 178 268v721q-2 154 -81 235.5t-225 81.5t-271 -110v-860q0 -23 -20.5 -23t-20.5 23v1138z" glyph-name="afii10099" horiz-adv-x="1150" unicode="ђ"/><glyph d="M217.5 0q-20.5 0 -20.5 23v978q0 23 20.5 23t20.5 -23v-81q135 113 286 112q113 0 195 -61q29 -23 15 -41t-44 4q-82 59 -167 59q-159 0 -285 -112v-858q0 -23 -20.5 -23zM111 1188q-18 -18 -30.5 -6t5.5 30l221 234q18 18 24.5 19t20.5 -11q12 -14 11 -20.5t-19 -24.5z " glyph-name="afii10100" horiz-adv-x="815" unicode="ѓ"/><glyph d="M197 598v-47q0 -14 3 -17.5t17 -3.5h270q23 0 23 -18t-23 -18h-270q-14 0 -17 -3.5t-3 -17.5v-47q0 -190 93.5 -292.5t245.5 -102.5t263 121q16 20 30.5 5.5t-0.5 -30.5q-121 -135 -295 -135t-276 117.5t-102 339.5v126q0 221 102 339t276.5 118t294.5 -135 q14 -16 0 -30.5t-30 5.5q-111 121 -263 121t-245.5 -102.5t-93.5 -292.5z" glyph-name="afii10101" horiz-adv-x="954" unicode="є"/><glyph d="M433 31q140 0 217 67.5t67 175.5q-11 125 -144 182.5t-211.5 91.5t-136 89t-65.5 127q-12 117 67.5 192.5t212.5 75.5t258 -67q20 -10 12 -28.5t-30 -6.5q-121 63 -240 64t-183 -64.5t-57 -144.5t64.5 -128t136 -82.5t157.5 -68.5t136.5 -93.5t63.5 -138.5 q10 -123 -76 -202.5t-246 -79.5t-313 82q-23 12 -12 30q7 17 30 7q152 -80 292 -80z" glyph-name="afii10102" horiz-adv-x="897" unicode="ѕ"/><glyph d="M217.5 0q-20.5 0 -20.5 23v978q0 23 20.5 23t20.5 -23v-978q0 -23 -20.5 -23zM168 1224.5q0 20.5 14.5 35t35 14.5t34.5 -14.5t14 -35t-14 -34.5t-34.5 -14t-35 14t-14.5 34.5z" glyph-name="afii10103" horiz-adv-x="434" unicode="і"/><glyph d="M217.5 0q-20.5 0 -20.5 23v978q0 23 20.5 23t20.5 -23v-978q0 -23 -20.5 -23zM301 1224.5q0 20.5 14.5 35t35 14.5t34.5 -14.5t14 -35t-14 -34.5t-34.5 -14t-35 14t-14.5 34.5zM35 1224.5q0 20.5 14 35t34.5 14.5t35 -14.5t14.5 -35t-14.5 -34.5t-35 -14t-34.5 14 t-14 34.5z" glyph-name="afii10104" horiz-adv-x="434" unicode="ї"/><glyph d="M7 -469q79 0 134.5 53.5t55.5 141.5v1275q0 23 20.5 23t20.5 -23v-1277q0 -102 -68 -167t-166 -65t-170 84q-12 16 0 28.5t29 -3.5q65 -70 144 -70zM168 1224.5q0 20.5 14.5 35t35 14.5t34.5 -14.5t14 -35t-14 -34.5t-34.5 -14t-35 14t-14.5 34.5z" glyph-name="afii10105" horiz-adv-x="434" unicode="ј"/><glyph d="M98 0h-2q-23 0 -22 18q0 20 22 21h2q96 0 123 59.5t27 206.5v699q0 20 22 20h566q23 0 22 -20v-326q0 -14 3 -17.5t18 -3.5h145q346 0 350 -327q0 -330 -350 -330h-184q-23 0 -23 20v945q0 14 -3 17t-17 3h-488q-14 0 -17 -3t-3 -17v-672q0 -154 -39 -223.5t-152 -69.5z M879 618q-14 0 -17.5 -3t-3.5 -17v-539q0 -14 3 -17t18 -3h143q311 0 311 291q-2 137 -73.5 212.5t-237.5 75.5h-143z" glyph-name="afii10106" horiz-adv-x="1529" unicode="љ"/><glyph d="M766 965q0 14 -3 17t-18 3h-487q-14 0 -17 -3t-3 -17v-942q0 -23 -20.5 -23t-20.5 23v981q0 20 22 20h565q23 0 23 -20v-326q0 -14 3 -17.5t17 -3.5h146q346 0 350 -327q0 -330 -350 -330h-185q-23 0 -22 20v945zM827 618q-14 0 -17 -3t-3 -17v-539q0 -14 3 -17t17 -3 h144q311 0 311 291q-2 137 -73.5 212.5t-237.5 75.5h-144z" glyph-name="afii10107" horiz-adv-x="1478" unicode="њ"/><glyph d="M377 1239q0 -14 3 -17t17 -3h213q23 0 23 -18.5t-23 -18.5h-213q-14 0 -17 -3t-3 -18v-239q125 110 281 110t245.5 -91t91.5 -259v-340q0 -190 -58 -266t-161 -76q-23 0 -29 4t-5 16t7.5 17.5t7.5 5.5h19q178 0 178 268v365q-2 154 -81 235.5t-225 81.5t-271 -110v-860 q0 -23 -20.5 -23t-20.5 23v1138q0 14 -3 17.5t-18 3.5h-213q-23 0 -22.5 18.5t22.5 18.5h213q14 0 17.5 3t3.5 17v172q0 23 20.5 23t20.5 -23v-172z" glyph-name="afii10108" horiz-adv-x="1150" unicode="ћ"/><glyph d="M217.5 0q-20.5 0 -20.5 23v978q0 23 20.5 23t20.5 -23v-593q0 -14 8 -12.5t10 5.5l477 600q18 23 41 23q29 0 8 -25l-313 -393q-8 -10 0 -24l336 -557q14 -25 -8 -25t-37 23l-320 528q-8 14 -20 0l-166 -209q-16 -23 -16 -70v-249q0 -23 -20.5 -23zM393 1188 q-18 -18 -30.5 -6t6.5 30l221 234q18 18 24.5 19t20.5 -11q12 -14 11 -20.5t-19 -24.5z" glyph-name="afii10109" horiz-adv-x="901" unicode="ќ"/><glyph d="M475 1176q-86 0 -148.5 55t-70.5 164q-2 35 16 35t21.5 -5.5t5.5 -29.5q4 -80 52 -129t124 -49t124 49t52 129q2 25 5.5 30t21.5 5t16 -35q-8 -109 -70.5 -164t-148.5 -55zM109 1024q18 0 26 -23l332 -935q8 -20 16 0l332 935q8 23 27 23q27 0 14 -29l-473 -1327 q-76 -213 -262 -168q-20 4 -24.5 9.5t-2.5 19.5q4 18 33 12q158 -37 223 148l92 262q12 34 2 63l-350 981q-12 29 15 29z" glyph-name="afii10110" horiz-adv-x="950" unicode="ў"/><glyph d="M535 -20q0 14 -3.5 17t-17.5 3h-295q-23 0 -22 20v658h41v-619q0 -14 3 -17t17 -3h594q14 0 17 3t3 17v942q0 23 20.5 23t20.5 -23v-981q0 -20 -22 -20h-295q-14 0 -17.5 -3t-3.5 -17v-205q0 -23 -20 -23t-20 23v205zM238 678h-41v323q0 23 20.5 23t20.5 -23v-323z" glyph-name="afii10193" horiz-adv-x="1110" unicode="џ"/><glyph d="M921.5 1434q24.5 0 30.5 -23l359 -1311q5 -16 11.5 -11t8.5 11l352 1311q6 23 30 23t18 -23l-381 -1388q-6 -23 -30 -23t-30 23l-358 1310q-2 10 -10.5 10t-10.5 -10l-358 -1310q-6 -23 -30 -23t-29 23l-381 1388q-7 23 17 23t30 -23l352 -1311q5 -16 11.5 -11t8.5 11 l359 1311q6 23 30.5 23zM1032 1597l-233 222q-18 18 -19.5 24t11.5 21q14 12 20 11t25 -20l221 -233q18 -18 5.5 -30.5t-30.5 5.5z" glyph-name="Wgrave" horiz-adv-x="1843" unicode="Ẁ"/><glyph d="M727 1024q12 0 16.5 -6t12.5 -31l276 -921q2 -8 8.5 -8.5t8.5 8.5l262 935q6 23 24 23q25 0 17 -29l-273 -958q-6 -23 -13 -30t-25.5 -7t-24.5 6t-15 31l-270 901q-2 8 -8 8t-8 -8l-271 -901q-8 -25 -14 -31t-24.5 -6t-25.5 7t-13 30l-273 958q-8 29 17 29q18 0 24 -23 l262 -935q2 -8 8.5 -8.5t8.5 8.5l276 921q8 25 12.5 31t16.5 6h8zM836 1188l-234 221q-18 18 -19 24.5t11 20.5q14 12 20.5 11t24.5 -19l221 -234q18 -18 6 -30t-30 6z" glyph-name="wgrave" horiz-adv-x="1445" unicode="ẁ"/><glyph d="M921.5 1434q24.5 0 30.5 -23l359 -1311q5 -16 11.5 -11t8.5 11l352 1311q6 23 30 23t18 -23l-381 -1388q-6 -23 -30 -23t-30 23l-358 1310q-2 10 -10.5 10t-10.5 -10l-358 -1310q-6 -23 -30 -23t-29 23l-381 1388q-7 23 17 23t30 -23l352 -1311q5 -16 11.5 -11t8.5 11 l359 1311q6 23 30.5 23zM813 1597q-18 -18 -30.5 -5.5t5.5 30.5l222 233q18 18 24 19.5t21 -10.5q12 -14 11 -20.5t-19 -24.5z" glyph-name="Wacute" horiz-adv-x="1843" unicode="Ẃ"/><glyph d="M727 1024q12 0 16.5 -6t12.5 -31l276 -921q2 -8 8.5 -8.5t8.5 8.5l262 935q6 23 24 23q25 0 17 -29l-273 -958q-6 -23 -13 -30t-25.5 -7t-24.5 6t-15 31l-270 901q-2 8 -8 8t-8 -8l-271 -901q-8 -25 -14 -31t-24.5 -6t-25.5 7t-13 30l-273 958q-8 29 17 29q18 0 24 -23 l262 -935q2 -8 8.5 -8.5t8.5 8.5l276 921q8 25 12.5 31t16.5 6h8zM614 1188q-18 -18 -30.5 -6t6.5 30l221 234q18 18 24.5 19t20.5 -11q12 -14 11 -20.5t-19 -24.5z" glyph-name="wacute" horiz-adv-x="1445" unicode="ẃ"/><glyph d="M921.5 1434q24.5 0 30.5 -23l359 -1311q5 -16 11.5 -11t8.5 11l352 1311q6 23 30 23t18 -23l-381 -1388q-6 -23 -30 -23t-30 23l-358 1310q-2 10 -10.5 10t-10.5 -10l-358 -1310q-6 -23 -30 -23t-29 23l-381 1388q-7 23 17 23t30 -23l352 -1311q5 -16 11.5 -11t8.5 11 l359 1311q6 23 30.5 23zM1006 1634.5q0 20.5 14 34.5t34.5 14t35 -14t14.5 -34.5t-14.5 -35t-35 -14.5t-34.5 14.5t-14 35zM739 1634.5q0 20.5 14.5 34.5t35 14t35 -14t14.5 -34.5t-14.5 -35t-35 -14.5t-35 14.5t-14.5 35z" glyph-name="Wdieresis" horiz-adv-x="1843" unicode="Ẅ"/><glyph d="M727 1024q12 0 16.5 -6t12.5 -31l276 -921q2 -8 8.5 -8.5t8.5 8.5l262 935q6 23 24 23q25 0 17 -29l-273 -958q-6 -23 -13 -30t-25.5 -7t-24.5 6t-15 31l-270 901q-2 8 -8 8t-8 -8l-271 -901q-8 -25 -14 -31t-24.5 -6t-25.5 7t-13 30l-273 958q-8 29 17 29q18 0 24 -23 l262 -935q2 -8 8.5 -8.5t8.5 8.5l276 921q8 25 12.5 31t16.5 6h8zM807 1224.5q0 20.5 14.5 35t35 14.5t34.5 -14.5t14 -35t-14 -34.5t-34.5 -14t-35 14t-14.5 34.5zM541 1224.5q0 20.5 14 35t34.5 14.5t35 -14.5t14.5 -35t-14.5 -34.5t-35 -14t-34.5 14t-14 34.5z" glyph-name="wdieresis" horiz-adv-x="1445" unicode="ẅ"/><glyph d="M983 1434q25 0 12 -23l-417 -706v-682q0 -14 -4.5 -18.5t-18.5 -4.5t-18.5 4t-4.5 19v682l-417 706q-11 23 13 23t36 -23l379 -645q12 -20 24 0l379 645q12 23 37 23zM627 1597l-234 222q-18 18 -19 24t11 21q14 12 20.5 11t24.5 -20l221 -233q18 -18 6 -30.5t-30 5.5z " glyph-name="Ygrave" horiz-adv-x="1110" unicode="Ỳ"/><glyph d="M109 1024q18 0 26 -23l332 -935q8 -20 16 0l332 935q8 23 27 23q27 0 14 -29l-473 -1327q-76 -213 -262 -168q-20 4 -24.5 9.5t-2.5 19.5q4 18 33 12q158 -37 223 148l92 262q12 34 2 63l-350 981q-12 29 15 29zM588 1188l-234 221q-18 18 -19 24.5t11 20.5 q14 12 20.5 11t24.5 -19l221 -234q18 -18 6 -30t-30 6z" glyph-name="ygrave" horiz-adv-x="950" unicode="ỳ"/><glyph d="M102 563.5q0 14.5 4.5 18.5t18.5 4h915q14 0 18.5 -4t4.5 -18.5t-4 -18.5t-19 -4h-915q-14 0 -18.5 4t-4.5 18.5z" glyph-name="endash" horiz-adv-x="1165" unicode="–"/><glyph d="M102 563.5q0 14.5 4.5 18.5t18.5 4h1182q14 0 18 -4t4 -18.5t-4 -18.5t-18 -4h-1182q-14 0 -18.5 4t-4.5 18.5z" glyph-name="emdash" horiz-adv-x="1431" unicode="—"/><glyph d="M252 1261q0 -31 -17.5 -45t-37.5 -12q-68 12 -56.5 102.5t74.5 168.5q13 16 23 9t0 -24q-82 -137 -23 -155q37 -13 37 -44z" glyph-name="quoteleft" horiz-adv-x="389" unicode="‘"/><glyph d="M137 1391q0 25 17.5 39t38.5 12q68 -12 56.5 -102.5t-75.5 -168.5q-12 -16 -22 -9t0 24q82 137 22 155q-37 13 -37 50z" glyph-name="quoteright" horiz-adv-x="389" unicode="’"/><glyph d="M137 37q0 31 17.5 45t38.5 12q68 -12 56.5 -102t-75.5 -168q-12 -16 -22 -9t0 23q82 137 22 156q-37 12 -37 43z" glyph-name="quotesinglbase" horiz-adv-x="389" unicode="‚"/><glyph d="M473 1261q0 -31 -17.5 -45t-37.5 -12q-68 12 -56.5 102.5t74.5 168.5q12 16 22 9t1 -24q-82 -137 -23 -155q37 -13 37 -44zM252 1261q0 -31 -17.5 -45t-37.5 -12q-68 12 -56.5 102.5t74.5 168.5q13 16 23 9t0 -24q-82 -137 -23 -155q37 -13 37 -44z" glyph-name="quotedblleft" horiz-adv-x="610" unicode="“"/><glyph d="M137 1391q0 25 17.5 39t38.5 12q68 -12 56.5 -102.5t-75.5 -168.5q-12 -16 -22 -9t0 24q82 137 22 155q-37 13 -37 50zM358 1391q0 25 17.5 39t38.5 12q68 -12 56.5 -102.5t-75.5 -168.5q-12 -16 -22 -9t0 24q82 137 22 155q-37 13 -37 50z" glyph-name="quotedblright" horiz-adv-x="610" unicode="”"/><glyph d="M137 37q0 31 17.5 45t38.5 12q68 -12 56.5 -102t-75.5 -168q-12 -16 -22 -9t0 23q82 137 22 156q-37 12 -37 43zM358 37q0 31 17.5 45t38.5 12q68 -12 56.5 -102t-75.5 -168q-12 -16 -22 -9t0 23q82 137 22 156q-37 12 -37 43z" glyph-name="quotedblbase" horiz-adv-x="610" unicode="„"/><glyph d="M113 1019.5q0 20.5 22 20.5h205q14 0 17 3.5t3 17.5v350q0 14 4.5 18.5t18.5 4.5t18.5 -4.5t4.5 -18.5v-350q0 -14 3 -17.5t17 -3.5h205q23 0 22.5 -20.5t-22.5 -20.5h-205q-14 0 -17 -3t-3 -17v-1554q0 -14 -4.5 -18.5t-18.5 -4.5t-18.5 4t-4.5 19v1554q0 14 -3 17 t-17 3h-205q-22 0 -22 20.5z" glyph-name="dagger" horiz-adv-x="763" unicode="†"/><glyph d="M133 751.5q0 51.5 36 88.5t89 37t89 -37t36 -88.5t-36 -88t-89 -36.5t-89 36.5t-36 88z" glyph-name="bullet" horiz-adv-x="518" unicode="•"/><glyph d="M137 43q0 23 15.5 37t36 14t36 -14t15.5 -37t-15.5 -37t-36 -14t-36 14t-15.5 37z" glyph-name="onedotenleader" horiz-adv-x="376" unicode="․"/><glyph d="M137 43q0 23 15.5 37t36 14t36 -14t15.5 -37t-15.5 -37t-36 -14t-36 14t-15.5 37zM514 43q0 23 15.5 37t36 14t35.5 -14t15 -37t-15 -37t-35.5 -14t-36 14t-15.5 37z" glyph-name="twodotenleader" horiz-adv-x="753" unicode="‥"/><glyph d="M137 43q0 23 15.5 37t36 14t36 -14t15.5 -37t-15.5 -37t-36 -14t-36 14t-15.5 37zM514 43q0 23 15.5 37t36 14t35.5 -14t15 -37t-15 -37t-35.5 -14t-36 14t-15.5 37zM891 43q0 23 15.5 37t36 14t35.5 -14t15 -37t-15 -37t-35.5 -14t-36 14t-15.5 37z" glyph-name="ellipsis" horiz-adv-x="1130" unicode="…"/><glyph d="M293 1020q-86 0 -148.5 62.5t-62.5 148.5t62.5 148.5t148.5 62.5t148.5 -62.5t62.5 -148.5t-62.5 -148.5t-148.5 -62.5zM125 1228.5q0 -69.5 48 -117.5t117.5 -48t119 48t49.5 117.5t-49.5 119t-119 49.5t-117.5 -49.5t-48 -119zM889 -8q-86 0 -148.5 62.5t-62.5 148.5 t62.5 148.5t148.5 62.5t148.5 -62.5t62.5 -148.5t-62.5 -148.5t-148.5 -62.5zM721 200.5q0 -69.5 48 -117.5t117.5 -48t119 48t49.5 117.5t-49.5 119t-119 49.5t-117.5 -49.5t-48 -119zM888 1434q16 0 18.5 -6.5t-7.5 -32.5l-561 -1356q-10 -27 -16.5 -33t-22.5 -6t-18 6 t8 33l561 1356q10 27 16 33t22 6zM1419 -8q-86 0 -148.5 62.5t-62.5 148.5t62.5 148.5t148.5 62.5t148.5 -62.5t62.5 -148.5t-62.5 -148.5t-148.5 -62.5zM1251 200.5q0 -69.5 48.5 -117.5t118 -48t118.5 48t49 117.5t-49 119t-118.5 49.5t-118 -49.5t-48.5 -119z" glyph-name="perthousand" horiz-adv-x="1712" unicode="‰"/><glyph d="M510 826q0 -16 -21 -38l-274 -264q-12 -12 0 -24l274 -264q21 -20 21 -36t-10.5 -21t-20.5 5l-315 305q-23 23 0 46l315 305q10 10 20.5 6t10.5 -20z" glyph-name="guilsinglleft" horiz-adv-x="612" unicode="‹"/><glyph d="M102 198q0 16 21 38l274 264q12 12 0 24l-274 264q-21 20 -21 36t10.5 21t20.5 -5l316 -305q23 -23 0 -46l-316 -305q-10 -10 -20.5 -6t-10.5 20z" glyph-name="guilsinglright" horiz-adv-x="612" unicode="›"/><glyph d="M178 43q0 23 15.5 37t36 14t36 -14t15.5 -37t-15.5 -37t-36 -14t-36 14t-15.5 37zM229.5 322q-18.5 0 -18.5 40l-10 1031q0 25 5 33t23.5 8t23.5 -8.5t5 -32.5l-10 -1031q0 -40 -18.5 -40zM483 43q0 23 14.5 37t37 14t37 -14t14.5 -37t-14.5 -37t-37 -14t-37 14t-14.5 37 zM534.5 322q-18.5 0 -18.5 40l-10 1031q0 25 5 33t23.5 8t23.5 -8.5t5 -32.5l-10 -1031q0 -40 -18.5 -40z" glyph-name="exclamdbl" horiz-adv-x="743" unicode="‼"/><glyph d="M455 1841h4q23 0 12 -41l-299 -1345q-6 -29 -10 -37t-17 -8h-4q-22 0 -12 41l299 1345q6 29 10 37t17 8z" glyph-name="fraction" horiz-adv-x="600" unicode="⁄"/><glyph d="M553 1178v-70q0 -127 -58.5 -193.5t-156.5 -66.5t-156.5 66.5t-58.5 193.5v70q0 127 58.5 193.5t156.5 66.5t156.5 -66.5t58.5 -193.5zM338 885q174 0 174 223v70q0 223 -174 223t-174 -223v-70q0 -223 174 -223z" glyph-name="uni2070" horiz-adv-x="675" unicode="⁰"/><glyph d="M317 1044q8 0 9 9v303q-1 12 -9 0l-204 -303q-6 -8 2 -9h202zM365 868q0 -16 -17 -16h-6q-16 0 -16 16v131q0 8 -9 9h-239q-16 0 -17 16v6q0 16 7 25l249 366q10 12 21 13h10q16 0 17 -17v-364q0 -8 8 -9h22q16 0 17 -16v-4q0 -16 -17 -16h-22q-8 0 -8 -9v-131z" glyph-name="uni2074" horiz-adv-x="524" unicode="⁴"/><glyph d="M238 1235q74 0 125 -49t51 -135v-17q0 -88 -52 -137t-130 -49t-123 51q-10 13 4 27q10 8 20 -2q39 -39 101 -39t101.5 40t39.5 113v6q0 74 -39 115t-98 41h-95q-16 0 -16 17v200q0 16 16 17h226q16 0 16 -17v-2q0 -16 -16 -16h-185q-16 0 -16 -19v-129q0 -16 16 -16h54z " glyph-name="uni2075" horiz-adv-x="516" unicode="⁵"/><glyph d="M338 1403q-80 0 -137.5 -58.5t-55.5 -181.5q41 68 119 71t123 -46t45 -137v-17q0 -90 -45 -138t-116.5 -48t-118 49t-46.5 137v144q0 125 66 192.5t166 67.5h4q16 0 16 -17v-2q0 -16 -16 -16h-4zM270 885q123 0 123 149v15q0 74 -32.5 112.5t-90 38.5t-91.5 -39t-34 -112 v-15q0 -74 34 -111.5t91 -37.5z" glyph-name="uni2076" horiz-adv-x="538" unicode="⁶"/><glyph d="M324 1399h-246q-16 0 -17 16v2q0 16 17 17h278q16 0 17 -17v-10q0 -8 -4 -21l-205 -518q-6 -16 -19 -16h-10q-20 0 -14 16l209 521q4 10 -6 10z" glyph-name="uni2077" horiz-adv-x="413" unicode="⁷"/><glyph d="M287 1438q78 0 118.5 -43t40.5 -118t-65 -112q88 -41 88 -149q0 -72 -47 -120t-131 -48h-10q-84 0 -131.5 48t-47.5 120q0 109 88 149q-66 37 -66 111t41.5 118t119.5 44h2zM143 1015q0 -56 36 -93t104 -37h6q68 0 103.5 36.5t35.5 92.5t-36 93.5t-103 37.5h-6 q-68 0 -104 -37t-36 -93zM166 1288q0 -49 29.5 -78.5t87.5 -29.5h6q57 0 87 29.5t30 78.5t-30 81t-87 32h-6q-57 0 -87 -32t-30 -81z" glyph-name="uni2078" horiz-adv-x="571" unicode="⁸"/><glyph d="M160 883h41q80 0 137 58t55 181q-41 -68 -119 -70t-123 46.5t-45 136.5v16q0 90 45.5 138.5t117 48.5t117.5 -49.5t46 -137.5v-143q0 -125 -65.5 -192.5t-165.5 -67.5h-41q-16 0 -17 16v2q1 17 17 17zM268 1401q-123 0 -123 -150v-14q0 -74 33 -113t90.5 -39t91 39 t33.5 113v14q0 74 -34 112t-91 38z" glyph-name="uni2079" horiz-adv-x="538" unicode="⁹"/><glyph d="M168 1389v-490q0 -98 70 -102q18 -2 18 -19v-8q0 -18 -18 -16q-115 6 -115 145v487q0 141 115 148q18 0 18 -18v-9q0 -16 -18 -16q-70 -4 -70 -102z" glyph-name="uni207D" horiz-adv-x="378" unicode="⁽"/><glyph d="M201 897v489q0 98 -72 103q-16 0 -16 16v8q0 18 16 19q115 -6 115 -148v-487q0 -139 -115 -145q-8 -2 -12 2t-4 14v8q0 16 16 19q72 4 72 102z" glyph-name="uni207E" horiz-adv-x="378" unicode="⁾"/><glyph d="M553 35v-70q0 -127 -58.5 -193.5t-156.5 -66.5t-156.5 66.5t-58.5 193.5v70q0 127 58.5 193.5t156.5 66.5t156.5 -66.5t58.5 -193.5zM338 -258q174 0 174 223v70q0 223 -174 223t-174 -223v-70q0 -223 174 -223z" glyph-name="uni2080" horiz-adv-x="675" unicode="₀"/><glyph d="M201 289h6q16 0 16 -17v-548q0 -16 -16 -17h-8q-16 0 -17 17v503l-86 -88q-12 -12 -28 4q-10 13 0 23l116 117q6 6 17 6z" glyph-name="uni2081" horiz-adv-x="430" unicode="₁"/><glyph d="M244 295q66 0 107.5 -39t41.5 -91t-40 -99.5t-86 -81t-85 -86t-39 -109.5v-27q0 -14 2 -16t15 -2h221q16 0 16 -16v-2q0 -16 -16 -17h-260q-18 0 -19 17v71q0 57 39 112.5t124 121t88 118.5q3 54 -29.5 81.5t-77.5 27.5t-88 -39q-10 -10 -25 2q-10 12 0 23q45 51 111 51z " glyph-name="uni2082" horiz-adv-x="499" unicode="₂"/><glyph d="M383 -128q0 56 -26.5 92t-71.5 36q-16 0 -17 16v7q0 16 17 16q41 0 63.5 30.5t22.5 77.5t-36 79t-88 32t-93 -41q-10 -13 -24 1q-13 13 -3 26q45 51 117 51t120 -41t48 -116t-62 -118q72 -49 72 -136t-50 -133t-129 -46t-130 57q-12 14 1 26t25 1q47 -47 107 -47t98.5 37 t38.5 93z" glyph-name="uni2083" horiz-adv-x="528" unicode="₃"/><glyph d="M113 -100h202q8 0 9 8v303q-1 12 -9 0l-204 -303q-6 -8 2 -8zM362 -276q0 -16 -16 -17h-6q-16 0 -16 17v131q0 8 -9 8h-239q-16 0 -17 16v6q0 16 7 25l249 366q8 12 21 13h10q16 0 16 -17v-364q0 -8 9 -8h22q16 0 17 -17v-4q0 -16 -17 -16h-22q-8 0 -9 -8v-131z" glyph-name="uni2084" horiz-adv-x="520" unicode="₄"/><glyph d="M238 90q74 0 125 -49t51 -135v-17q0 -88 -52 -137t-130 -49t-123 51q-10 13 2 25t22 0q39 -39 101 -39t101.5 40t39.5 114v6q0 74 -39 114.5t-98 40.5h-95q-16 0 -16 17v200q0 16 16 17h226q16 0 16 -17v-2q0 -16 -16 -16h-185q-16 0 -16 -18v-130q0 -16 16 -16h54z" glyph-name="uni2085" horiz-adv-x="516" unicode="₅"/><glyph d="M338 260q-80 0 -137.5 -58.5t-55.5 -181.5q41 68 119 71t123 -46t45 -137v-17q0 -90 -45 -138t-116.5 -48t-118 49t-46.5 137v144q0 125 66 192.5t166 67.5h4q16 0 16 -16v-3q0 -16 -16 -16h-4zM270 -258q123 0 123 149v15q0 76 -32.5 113.5t-90 37.5t-91.5 -38.5 t-34 -112.5v-15q0 -74 34 -111.5t91 -37.5z" glyph-name="uni2086" horiz-adv-x="540" unicode="₆"/><glyph d="M324 254h-246q-16 0 -17 16v2q0 16 17 17h278q16 0 17 -17v-10q0 -8 -4 -20l-205 -518q-6 -16 -19 -17h-10q-20 1 -14 17l209 520q4 10 -6 10z" glyph-name="uni2087" horiz-adv-x="434" unicode="₇"/><glyph d="M287 295q78 0 118.5 -43t40.5 -118t-65 -111q88 -41 88 -150q0 -72 -47 -120t-131 -48h-10q-84 0 -131.5 48t-47.5 120q0 109 88 150q-66 37 -66 111t41.5 117.5t119.5 43.5h2zM143 -128q0 -56 36 -93t104 -37h6q68 0 103.5 37t35.5 93t-36 93t-103 37h-6q-68 0 -104 -37 t-36 -93zM166 145.5q0 -49.5 29.5 -79t87.5 -29.5h6q57 0 87 29.5t30 79t-30 81t-87 31.5h-6q-57 0 -87 -31.5t-30 -81z" glyph-name="uni2088" horiz-adv-x="571" unicode="₈"/><glyph d="M160 -260h41q80 0 137 58.5t55 181.5q-41 -68 -119 -71t-123 46t-45 137v17q0 90 45.5 138t117 48t117.5 -49t46 -137v-144q0 -125 -65.5 -192.5t-165.5 -67.5h-41q-16 0 -17 16v3q1 16 17 16zM268 258q-123 0 -123 -149v-15q0 -76 33 -113.5t90.5 -37.5t91 38.5 t33.5 112.5v15q0 74 -34 111.5t-91 37.5z" glyph-name="uni2089" horiz-adv-x="540" unicode="₉"/><glyph d="M168 246v-490q0 -98 70 -102q18 -2 18 -19v-8q0 -18 -18 -16q-115 6 -115 145v488q0 141 115 147q18 0 18 -18v-8q0 -16 -18 -17q-70 -4 -70 -102z" glyph-name="uni208D" horiz-adv-x="378" unicode="₍"/><glyph d="M201 -244v490q0 98 -72 102q-16 0 -16 17v8q0 18 16 18q115 -6 115 -147v-488q0 -139 -115 -145q-16 -4 -16 16v8q0 16 16 19q72 4 72 102z" glyph-name="uni208E" horiz-adv-x="378" unicode="₎"/><glyph d="M84 985.5q0 20.5 22 20.5h111q14 0 17.5 3t3.5 17v385q0 14 4 18.5t18 4.5t18.5 -4.5t4.5 -18.5v-385q0 -14 3 -17t17 -3h324q23 0 22.5 -20.5t-22.5 -20.5h-324q-14 0 -17 -3.5t-3 -17.5v-129q0 -14 3 -17t17 -3h324q23 0 22.5 -20.5t-22.5 -20.5h-324q-14 0 -17 -3 t-3 -18v-672q0 -14 3 -17t17 -3h543q23 0 22.5 -20.5t-22.5 -20.5h-586q-14 0 -18 4t-4 19v710q0 14 -3.5 17.5t-17.5 3.5h-111q-23 0 -22.5 20.5t22.5 20.5h111q14 0 17.5 3t3.5 17v129q0 14 -3.5 17.5t-17.5 3.5h-111q-22 0 -22 20.5z" glyph-name="lira" horiz-adv-x="937" unicode="₤"/><glyph d="M217 840q14 0 16.5 3t4.5 17q16 303 172.5 444.5t389.5 136.5t374 -181q14 -16 -2 -32t-29 -1q-133 168 -343 174t-354.5 -125t-160.5 -416q-2 -14 2 -17t18 -3h430q23 0 23 -20.5t-23 -20.5h-432q-14 0 -17 -3t-3 -18v-123q0 -14 3 -17t17 -3h432q23 0 23 -20.5 t-23 -20.5h-430q-14 0 -18 -3t-2 -18q16 -285 160.5 -415.5t354.5 -124.5t343 174q12 14 28 -1t3 -32q-142 -176 -374 -181t-389 136t-173 444q-2 14 -4.5 17.5t-16.5 3.5h-108q-23 0 -23 20.5t23 20.5h108q14 0 17.5 3t3.5 17v123q0 14 -3.5 17.5t-17.5 3.5h-108 q-23 0 -23 20.5t23 20.5h108z" glyph-name="Euro" horiz-adv-x="1302" unicode="€"/><glyph d="M2050 1100v-96q0 -162 -86 -252t-217 -90t-217 90t-86 252v96q0 162 86 252t217 90t217 -90t86 -252zM1746 705q116 0 188.5 76.5t72.5 224.5v88q0 147 -72.5 225t-188.5 78t-187.5 -78t-71.5 -225v-88q0 -145 71.5 -223t187.5 -78zM283 1311v-1288q0 -14 -4.5 -18.5 t-18.5 -4.5t-18 4t-4 19v1388q0 14 4 18.5t18 4.5t27 -19l839 -1298q4 -8 11.5 -6t7.5 12v1288q0 14 4 18.5t18.5 4.5t18.5 -4.5t4 -18.5v-1388q0 -14 -4 -18.5t-18.5 -4.5t-26.5 18l-840 1299q-4 8 -11 6t-7 -12zM1444 432q0 14 4 18.5t18 4.5h562q14 0 18 -4.5t4 -18.5 t-4 -18t-18 -4h-562q-14 0 -18 4t-4 18z" glyph-name="afii61352" horiz-adv-x="2187" unicode="№"/><glyph d="M1042 1421v-4l45 -545q2 -20 -16 -20h-6q-14 0 -14 20l-37 435q0 6 -6 6q-2 -2 -4 -6l-158 -443q-4 -12 -19 -12h-8q-14 0 -18 12l-158 443q-2 8 -8 4q-2 0 -2 -4l-37 -435q0 -20 -14 -20h-7q-16 0 -16 16v4l45 545q0 16 17 17q12 0 16 -11l180 -505q2 -4 6 -4.5t6 4.5 l181 505q4 11 18 11t14 -13zM102 1417q0 16 15 17h336q14 0 14 -17v-2q0 -16 -14 -16h-134q-12 0 -14 -2t-2 -13v-516q0 -16 -16 -16h-2q-18 0 -19 16v516q0 10 -2 12.5t-12 2.5h-135q-14 0 -15 16v2z" glyph-name="trademark" horiz-adv-x="1200" unicode="™"/><glyph d="M778 1434h4q23 0 13 -41l-299 -1348q-6 -29 -10.5 -37t-16.5 -8h-4q-22 0 -12 41l299 1348q6 29 10 37t16 8zM344 1413v-776q0 -12 -3 -16.5t-17.5 -4.5t-17.5 4.5t-3 16.5v739l-143 -143q-14 -15 -28 -1t1 30l162 161q10 10 31 11q18 0 18 -21zM1225 604.5 q0 -104.5 -86 -168.5q109 -74 109 -194t-73 -185t-181 -61t-179 70q-18 18 -5 31t32 -3q55 -57 152 -60t154.5 51.5t57.5 140.5t-43 137t-112 51q-23 0 -23 22t23 21q63 0 98 43.5t35 117.5t-53.5 120t-136.5 43t-132 -52q-18 -16 -32 -3t6 32q63 59 156 62t163 -54 t70 -161.5z" glyph-name="onethird" horiz-adv-x="1370" unicode="⅓"/><glyph d="M911 1434h4q23 0 13 -41l-299 -1348q-6 -29 -10.5 -37t-16.5 -8h-4q-22 0 -12 41l299 1348q6 29 10 37t16 8zM160 616q-23 0 -23 23v109q0 125 85 201.5t170 147.5t88 147q3 77 -40 118t-114.5 41t-130.5 -60q-17 -16 -31 -3t4 32q72 70 159 70t141 -53t52 -123t-38 -121 t-86 -94t-134 -120t-84 -194v-55q0 -18 3 -21.5t22 -3.5h303q23 0 22.5 -20.5t-22.5 -20.5h-346zM1358 604.5q0 -104.5 -86 -168.5q108 -74 108 -194t-72 -185t-180 -61t-180 70q-18 18 -4 31t31 -3q57 -57 153 -60t153.5 51.5t57.5 140.5t-43 137t-112 51q-23 0 -23 22 t23 21q63 0 98 43.5t35 117.5t-53.5 120t-136.5 43t-132 -52q-16 -16 -30 -3t4 32q63 59 156 62t163 -54t70 -161.5z" glyph-name="twothirds" horiz-adv-x="1503" unicode="⅔"/><glyph d="M838 638q0 72 59 129.5t148 57.5t149.5 -57.5t60.5 -129.5q0 -141 -120 -196q68 -25 110.5 -83t42.5 -144t-69.5 -152.5t-174 -66.5t-173 66.5t-68.5 152.5t42 144.5t109 82.5q-116 55 -116 196zM840 227q0 -80 59 -137t145 -57t146.5 57t60.5 137t-60.5 138.5 t-146.5 58.5t-145 -58.5t-59 -138.5zM872 624.5q0 -71.5 48.5 -118.5t124 -47t126 47t50.5 118.5t-50.5 117.5t-125.5 46t-124 -46t-49 -117.5zM778 1434h4q23 0 13 -41l-299 -1348q-6 -29 -10.5 -37t-16.5 -8h-4q-22 0 -12 41l299 1348q6 29 10 37t16 8zM344 639 q0 -23 -18 -23q-23 0 -23 23v737l-143 -143q-14 -15 -28 -1t1 30l162 161q10 10 27 11q23 0 22 -23v-772z" glyph-name="oneeighth" horiz-adv-x="1425" unicode="⅛"/><glyph d="M154 449v34q0 221 103 339t278 118q123 0 209.5 -63.5t125.5 -180.5v115q0 160 -44 279.5t-156 215t-305 95.5q-23 0 -23 20.5t23 20.5q250 0 400 -165t150 -472v-356q0 -221 -103 -339t-277.5 -118t-277.5 118t-103 339zM534.5 33q149.5 0 242.5 102.5t93 292.5v76 q0 190 -93 292.5t-242.5 102.5t-242.5 -102.5t-93 -292.5v-76q0 -190 93 -292.5t242.5 -102.5z" glyph-name="partialdiff" horiz-adv-x="1069" unicode="∂"/><glyph d="M102 755.5q0 14.5 4.5 18.5t18.5 4h651q14 0 18.5 -4t4.5 -18.5t-4 -18.5t-19 -4h-651q-14 0 -18.5 4t-4.5 18.5z" glyph-name="minus" horiz-adv-x="901" unicode="−"/><glyph d="M348 997q70 0 195 -69.5t192 -67.5q102 4 166 121q9 18 27 8t8 -28q-76 -139 -209 -140q-70 0 -194.5 70t-192.5 67q-102 -4 -166 -120q-10 -18 -29 -9q-16 10 -6 29q76 139 209 139zM348 676q70 0 195 -69.5t192 -67.5q102 4 166 120q10 18 29 9q16 -10 6 -29 q-76 -139 -209 -139q-70 0 -194.5 69.5t-192.5 67.5q-102 -4 -166 -121q-10 -18 -29 -8q-16 10 -6 29q76 139 209 139z" glyph-name="approxequal" horiz-adv-x="1075" unicode="≈"/><glyph d="M379 -207q0 31 17.5 45.5t37.5 11.5q68 -12 56.5 -102t-74.5 -168q-12 -16 -22 -9t-1 23q82 137 23 156q-37 12 -37 43zM433 31q140 0 217 67.5t67 175.5q-11 125 -144 182.5t-211.5 91.5t-136 89t-65.5 127q-12 117 67.5 192.5t212.5 75.5t258 -67q20 -10 12 -28.5 t-30 -6.5q-121 63 -240 64t-183 -64.5t-57 -144.5t64.5 -128t136 -82.5t157.5 -68.5t136.5 -93.5t63.5 -138.5q10 -123 -76 -202.5t-246 -79.5t-313 82q-23 12 -12 30q7 17 30 7q152 -80 292 -80z" glyph-name="glyph476" horiz-adv-x="897"/><glyph d="M819.5 0q-20.5 0 -20.5 23v83q-117 -108 -275 -114t-263 114.5t-105 342.5v126q0 221 104.5 342t278.5 115q141 -6 260 -117v86q0 23 20.5 23t20.5 -23v-978q0 -23 -20.5 -23zM197 598v-172q0 -193 96 -297t248 -98t258 123v716q-105 117 -257 123t-248.5 -98t-96.5 -297 z" glyph-name="a.aalt"/><glyph d="M819.5 0q-20.5 0 -20.5 23v83q-117 -108 -275 -114t-263 114.5t-105 342.5v126q0 221 104.5 342t278.5 115q141 -6 260 -117v86q0 23 20.5 23t20.5 -23v-978q0 -23 -20.5 -23zM197 598v-172q0 -193 96 -297t248 -98t258 123v716q-105 117 -257 123t-248.5 -98t-96.5 -297 zM399 1188q-18 -18 -30.5 -6t6.5 30l221 234q18 18 24.5 19t20.5 -11q12 -14 11 -20.5t-19 -24.5z" glyph-name="aacute.aalt"/><glyph d="M819.5 0q-20.5 0 -20.5 23v83q-117 -108 -275 -114t-263 114.5t-105 342.5v126q0 221 104.5 342t278.5 115q141 -6 260 -117v86q0 23 20.5 23t20.5 -23v-978q0 -23 -20.5 -23zM197 598v-172q0 -193 96 -297t248 -98t258 123v716q-105 117 -257 123t-248.5 -98t-96.5 -297 zM506 1176q-86 0 -148.5 55t-70.5 164q-2 35 16 35t21.5 -5.5t5.5 -29.5q4 -80 52 -129t124 -49t124 49t52 129q2 25 5 30t21 5t17 -35q-8 -109 -70.5 -164t-148.5 -55z" glyph-name="abreve.aalt"/><glyph d="M819.5 0q-20.5 0 -20.5 23v83q-117 -108 -275 -114t-263 114.5t-105 342.5v126q0 221 104.5 342t278.5 115q141 -6 260 -117v86q0 23 20.5 23t20.5 -23v-978q0 -23 -20.5 -23zM197 598v-172q0 -193 96 -297t248 -98t258 123v716q-105 117 -257 123t-248.5 -98t-96.5 -297 zM500 1391l-185 -195q-18 -18 -24 -19t-21 11q-12 14 -11 20t20 25l215 205q12 12 24 0l215 -205q18 -18 19.5 -24.5t-11.5 -20.5q-14 -12 -20 -11t-25 19l-184 195q-6 6 -12 0z" glyph-name="acircumflex.aalt"/><glyph d="M819.5 0q-20.5 0 -20.5 23v83q-117 -108 -275 -114t-263 114.5t-105 342.5v126q0 221 104.5 342t278.5 115q141 -6 260 -117v86q0 23 20.5 23t20.5 -23v-978q0 -23 -20.5 -23zM197 598v-172q0 -193 96 -297t248 -98t258 123v716q-105 117 -257 123t-248.5 -98t-96.5 -297 zM324 1224.5q0 20.5 14 35t34.5 14.5t35 -14.5t14.5 -35t-14.5 -34.5t-35 -14t-34.5 14t-14 34.5zM590 1224.5q0 20.5 14 35t34.5 14.5t35 -14.5t14.5 -35t-14.5 -34.5t-35 -14t-34.5 14t-14 34.5z" glyph-name="adieresis.aalt"/><glyph d="M819.5 0q-20.5 0 -20.5 23v83q-117 -108 -275 -114t-263 114.5t-105 342.5v126q0 221 104.5 342t278.5 115q141 -6 260 -117v86q0 23 20.5 23t20.5 -23v-978q0 -23 -20.5 -23zM197 598v-172q0 -193 96 -297t248 -98t258 123v716q-105 117 -257 123t-248.5 -98t-96.5 -297 zM612 1188l-233 221q-18 18 -19.5 24.5t11.5 20.5q14 12 20 11t25 -19l221 -234q18 -18 5.5 -30t-30.5 6z" glyph-name="agrave.aalt"/><glyph d="M819.5 0q-20.5 0 -20.5 23v83q-117 -108 -275 -114t-263 114.5t-105 342.5v126q0 221 104.5 342t278.5 115q141 -6 260 -117v86q0 23 20.5 23t20.5 -23v-978q0 -23 -20.5 -23zM197 598v-172q0 -193 96 -297t248 -98t258 123v716q-105 117 -257 123t-248.5 -98t-96.5 -297 zM285 1206.5q0 14.5 4 18.5t18 4h420q14 0 18.5 -4t4.5 -18.5t-4.5 -18.5t-18.5 -4h-420q-14 0 -18 4t-4 18.5z" glyph-name="amacron.aalt"/><glyph d="M840 23q0 -18 -9 -21v-2q-70 -23 -96 -88.5t9.5 -128t123.5 -78.5q27 -5 22 -27t-34 -18q-98 16 -144 90t-21.5 155t108.5 115v86q-117 -108 -275 -114t-263 114.5t-105 342.5v126q0 221 104.5 342t278.5 115q141 -6 260 -117v86q0 23 20.5 23t20.5 -23v-978zM197 598 v-172q0 -193 96 -297t248 -98t258 123v716q-105 117 -257 123t-248.5 -98t-96.5 -297z" glyph-name="aogonek.aalt"/><glyph d="M819.5 0q-20.5 0 -20.5 23v83q-117 -108 -275 -114t-263 114.5t-105 342.5v126q0 221 104.5 342t278.5 115q141 -6 260 -117v86q0 23 20.5 23t20.5 -23v-978q0 -23 -20.5 -23zM197 598v-172q0 -193 96 -297t248 -98t258 123v716q-105 117 -257 123t-248.5 -98t-96.5 -297 zM354 1327.5q0 63.5 44 107.5t107.5 44t107.5 -44t44 -107.5t-44 -107.5t-107.5 -44t-107.5 44t-44 107.5zM391 1327q0 -47 34 -81t81 -34t81 34t34 81t-34 81t-81 34t-81 -34t-34 -81z" glyph-name="aring.aalt"/><glyph d="M819.5 0q-20.5 0 -20.5 23v83q-117 -108 -275 -114t-263 114.5t-105 342.5v126q0 221 104.5 342t278.5 115q141 -6 260 -117v86q0 23 20.5 23t20.5 -23v-978q0 -23 -20.5 -23zM197 598v-172q0 -193 96 -297t248 -98t258 123v716q-105 117 -257 123t-248.5 -98t-96.5 -297 zM641 1176q-55 2 -130 55t-108 55t-60.5 -14.5t-39 -31t-27.5 -38.5t-34 -14q-16 10 -6 29q68 115 163 110q49 -2 121 -55t119 -55q70 -2 129 90q12 18 30 8t7 -29q-66 -110 -164 -110z" glyph-name="atilde.aalt"/><glyph d="M802.5 0q-20.5 0 -20.5 23v94q-51 -55 -131 -90t-164 -35q-150 0 -252 96t-102 238t102.5 239t251.5 97q84 0 164 -35t131 -90v155q0 141 -89 221t-219 80t-228 -102q-16 -18 -30 -5t1 32q103 114 255 114t251.5 -94t99.5 -252v-663q0 -23 -20.5 -23zM174 328 q0 -125 89 -211t226 -86q174 0 293 123v346q-119 123 -293 123q-137 0 -226 -85t-89 -210z" glyph-name="afii10065.aalt" horiz-adv-x="999"/><glyph d="M819.5 0q-20.5 0 -20.5 23v83q-117 -108 -275 -114t-263 114.5t-105 342.5v126q0 221 104.5 342t278.5 115q141 -6 260 -117v496q0 23 20.5 23t20.5 -23v-1388q0 -23 -20.5 -23zM197 598v-172q0 -193 96 -297t248 -98t258 123v716q-105 117 -257 123t-248.5 -98 t-96.5 -297z" glyph-name="d.aalt"/><glyph d="M819.5 0q-20.5 0 -20.5 23v83q-117 -108 -275 -114t-263 114.5t-105 342.5v126q0 221 104.5 342t278.5 115q141 -6 260 -117v496q0 23 20.5 23t20.5 -23v-1388q0 -23 -20.5 -23zM197 598v-172q0 -193 96 -297t248 -98t258 123v716q-105 117 -257 123t-248.5 -98 t-96.5 -297zM1055 1487q0 31 17.5 45t37.5 12q68 -12 56.5 -102t-74.5 -168q-12 -16 -22 -9t-1 23q82 137 23 156q-37 12 -37 43z" glyph-name="dcaron.aalt" horiz-adv-x="1204"/><glyph d="M799 1231v180q0 23 20.5 23t20.5 -23v-180q0 -14 3 -17.5t17 -3.5h109q23 0 22.5 -18t-22.5 -18h-109q-14 0 -17 -3.5t-3 -17.5v-1124q0 -23 -20.5 -23t-20.5 23v77q-117 -108 -275 -114t-263 114.5t-105 342.5v126q0 221 104.5 342t278.5 115q141 -6 260 -117v238 q0 14 -3 17.5t-18 3.5h-207q-23 0 -22.5 18t22.5 18h207q14 0 17.5 3.5t3.5 17.5zM197 598v-172q0 -193 96 -297t248 -98t258 123v716q-105 117 -257 123t-248.5 -98t-96.5 -297z" glyph-name="dcroat.aalt"/><glyph d="M156 446v127q0 221 104.5 342t278.5 115q141 -6 260 -117v86q0 23 20.5 23t20.5 -23v-1161q0 -160 -93.5 -253t-232.5 -93q-92 0 -161.5 40t-106.5 99q-14 25 2 35t28 -10q33 -53 95.5 -89t142.5 -36q117 0 201 79t84 222v272q-117 -108 -275 -114t-263 114.5t-105 341.5 zM197 596v-172q0 -193 96.5 -297t248.5 -98t257 123v716q-105 117 -257 123t-248.5 -98.5t-96.5 -296.5z" glyph-name="g.aalt"/><glyph d="M156 446v127q0 221 104.5 342t278.5 115q141 -6 260 -117v86q0 23 20.5 23t20.5 -23v-1161q0 -160 -93.5 -253t-232.5 -93q-92 0 -161.5 40t-106.5 99q-14 25 2 35t28 -10q33 -53 95.5 -89t142.5 -36q117 0 201 79t84 222v272q-117 -108 -275 -114t-263 114.5t-105 341.5 zM197 596v-172q0 -193 96.5 -297t248.5 -98t257 123v716q-105 117 -257 123t-248.5 -98.5t-96.5 -296.5zM524 1176q-86 0 -148.5 55t-70.5 164q-2 35 19 35q16 0 19 -5.5t5 -29.5q4 -80 52.5 -129t124 -49t123.5 49t52 129q2 25 5.5 30t21.5 5t16 -35q-8 -109 -70.5 -164 t-148.5 -55z" glyph-name="gbreve.aalt"/><glyph d="M156 446v127q0 221 104.5 342t278.5 115q141 -6 260 -117v86q0 23 20.5 23t20.5 -23v-1161q0 -160 -93.5 -253t-232.5 -93q-92 0 -161.5 40t-106.5 99q-14 25 2 35t28 -10q33 -53 95.5 -89t142.5 -36q117 0 201 79t84 222v272q-117 -108 -275 -114t-263 114.5t-105 341.5 zM197 596v-172q0 -193 96.5 -297t248.5 -98t257 123v716q-105 117 -257 123t-248.5 -98.5t-96.5 -296.5zM518 1389l-184 -195q-18 -18 -24.5 -19t-20.5 11q-12 14 -11 20t19 25l215 205q12 12 25 0l215 -205q18 -18 19 -24.5t-11 -20.5q-14 -12 -20.5 -11t-24.5 19l-185 195 q-6 6 -12 0z" glyph-name="gcircumflex.aalt"/><glyph d="M156 446v127q0 221 104.5 342t278.5 115q141 -6 260 -117v86q0 23 20.5 23t20.5 -23v-1161q0 -160 -93.5 -253t-232.5 -93q-92 0 -161.5 40t-106.5 99q-14 25 2 35t28 -10q33 -53 95.5 -89t142.5 -36q117 0 201 79t84 222v272q-117 -108 -275 -114t-263 114.5t-105 341.5 zM197 596v-172q0 -193 96.5 -297t248.5 -98t257 123v716q-105 117 -257 123t-248.5 -98.5t-96.5 -296.5zM592 1233q0 -31 -17.5 -45t-37.5 -12q-68 12 -56.5 102t74.5 168q13 16 23 9t0 -23q-82 -137 -23 -156q37 -12 37 -43z" glyph-name="gcommaaccent.aalt"/><glyph d="M819.5 1022q20.5 0 20.5 -23v-1161q0 -160 -93.5 -253t-232.5 -93q-92 0 -161.5 40t-106.5 99q-14 25 2 35t28 -10q33 -53 95.5 -89t142.5 -36q117 0 201 79t84 222v272q-117 -108 -275 -114t-263 114.5t-105 341.5v127q0 221 104.5 342t278.5 115q141 -6 260 -117v86 q0 23 20.5 23zM197 596v-172q0 -193 96.5 -297t248.5 -98t257 123v716q-105 117 -257 123t-248.5 -98.5t-96.5 -296.5zM475 1224.5q0 20.5 14.5 35t35 14.5t34.5 -14.5t14 -35t-14 -34.5t-34.5 -14t-35 14t-14.5 34.5z" glyph-name="gdotaccent.aalt"/><glyph d="M217.5 0q-20.5 0 -20.5 23v1388q0 23 20.5 23t20.5 -23v-1388q0 -23 -20.5 -23z" glyph-name="l.aalt" horiz-adv-x="434"/><glyph d="M217.5 0q-20.5 0 -20.5 23v1388q0 23 20.5 23t20.5 -23v-1388q0 -23 -20.5 -23zM109 1597q-18 -18 -30.5 -5.5t5.5 30.5l221 233q18 18 24.5 19.5t20.5 -10.5q12 -14 11 -20.5t-19 -24.5z" glyph-name="lacute.aalt" horiz-adv-x="434"/><glyph d="M217.5 0q-20.5 0 -20.5 23v1388q0 23 20.5 23t20.5 -23v-1388q0 -23 -20.5 -23zM457 1489q0 31 17.5 45t37.5 12q68 -12 56.5 -102t-74.5 -168q-12 -16 -22 -9t-1 23q82 137 23 156q-37 12 -37 43z" glyph-name="lcaron.aalt" horiz-adv-x="604"/><glyph d="M217.5 0q-20.5 0 -20.5 23v1388q0 23 20.5 23t20.5 -23v-1388q0 -23 -20.5 -23zM150 -203q0 31 17 45.5t38 12.5q68 -12 56.5 -102.5t-75.5 -168.5q-12 -16 -22 -9t0 24q82 137 22 155q-36 12 -36 43z" glyph-name="lcommaaccent.aalt" horiz-adv-x="434"/><glyph d="M217.5 0q-20.5 0 -20.5 23v1388q0 23 20.5 23t20.5 -23v-1388q0 -23 -20.5 -23zM418 753.5q0 20.5 14 36t37 15.5t37 -15.5t14 -36t-14 -36t-37 -15.5t-37 15.5t-14 36z" glyph-name="ldot.aalt" horiz-adv-x="555"/><glyph d="M332 23q0 -23 -20.5 -23t-20.5 23v774l-191 -84q-14 -6 -20 10q-8 16 6 22l205 91v575q0 23 20.5 23t20.5 -23v-557l188 84q14 6 22 -10t-7 -23l-203 -90v-792z" glyph-name="lslash.aalt" horiz-adv-x="622"/><glyph d="M109 1024q18 0 26 -23l332 -935q8 -20 16 0l332 935q8 23 27 23q27 0 14 -29l-524 -1474q-8 -23 -27 -23q-26 0 -14 29l151 424q12 35 2 63l-350 981q-12 29 15 29z" glyph-name="y.aalt" horiz-adv-x="950"/><glyph d="M109 1024q18 0 26 -23l332 -935q2 -8 8 -9l8 9l332 935q8 23 27 23q27 0 14 -29l-524 -1474q-8 -23 -27 -23q-26 0 -14 29l151 424q12 35 2 63l-350 981q-12 29 15 29zM369 1188q-18 -18 -30.5 -6t5.5 30l221 234q18 18 24.5 19t20.5 -11q12 -14 11.5 -20.5t-19.5 -24.5z " glyph-name="yacute.aalt" horiz-adv-x="950"/><glyph d="M109 1024q18 0 26 -23l332 -935q2 -8 8 -9l8 9l332 935q8 23 27 23q27 0 14 -29l-524 -1474q-8 -23 -27 -23q-26 0 -14 29l151 424q12 35 2 63l-350 981q-12 29 15 29zM469 1389l-184 -195q-18 -18 -24.5 -19t-20.5 11q-12 14 -11.5 20t19.5 25l215 205q12 12 24 0 l215 -205q18 -18 19.5 -24.5t-10.5 -20.5q-14 -12 -20.5 -11t-24.5 19l-185 195q-6 6 -12 0z" glyph-name="ycircumflex.aalt" horiz-adv-x="950"/><glyph d="M109 1024q18 0 26 -23l332 -935q2 -8 8 -9l8 9l332 935q8 23 27 23q27 0 14 -29l-524 -1474q-8 -23 -27 -23q-26 0 -14 29l151 424q12 35 2 63l-350 981q-12 29 15 29zM559 1224.5q0 20.5 14.5 35t35 14.5t34.5 -14.5t14 -35t-14 -34.5t-34.5 -14t-35 14t-14.5 34.5z M293 1224.5q0 20.5 14.5 35t34.5 14.5t34.5 -14.5t14.5 -35t-14.5 -34.5t-34.5 -14t-34.5 14t-14.5 34.5z" glyph-name="ydieresis.aalt" horiz-adv-x="950"/><glyph d="M109 1024q18 0 26 -23l332 -935q2 -8 8 -9l8 9l332 935q8 23 27 23q27 0 14 -29l-524 -1474q-8 -23 -27 -23q-26 0 -14 29l151 424q12 35 2 63l-350 981q-12 29 15 29zM588 1188l-234 221q-18 18 -19 24.5t11 20.5q14 12 20.5 11t24.5 -19l221 -234q18 -18 6 -30t-30 6z " glyph-name="ygrave.aalt" horiz-adv-x="950"/></font>
</defs>
</svg>
