<?xml version="1.0" encoding="utf-8"?>
<!-- Generator: Adobe Illustrator 16.0.4, SVG Export Plug-In . SVG Version: 6.00 Build 0)  -->
<!DOCTYPE svg PUBLIC "-//W3C//DTD SVG 1.1//EN" "http://www.w3.org/Graphics/SVG/1.1/DTD/svg11.dtd">
<svg version="1.1" id="nav-icon" xmlns="http://www.w3.org/2000/svg" xmlns:xlink="http://www.w3.org/1999/xlink" x="0px" y="0px"
	 width="13px" height="13px" viewBox="19 0 13 13" enable-background="new 19 0 13 13" xml:space="preserve">
<g>
	<path fill="#FFFFFF" d="M26.172,9.932l-0.329,0.457l0.049-0.561c0.091-1.031,0.136-2.02,0.136-2.934V1h-1.055v5.895
		c0,0.948,0.045,1.936,0.136,2.933l0.051,0.563l-0.331-0.459c-0.84-1.167-2.207-2.389-4.068-3.632l-0.684,0.829
		c1.237,0.764,2.287,1.531,3.118,2.283c0.824,0.749,1.6,1.62,2.305,2.588c0.7-0.962,1.476-1.833,2.307-2.588
		c0.822-0.747,1.871-1.514,3.118-2.283L30.24,6.3C28.379,7.543,27.012,8.765,26.172,9.932z"/>
</g>
</svg>
