<?xml version="1.0" encoding="utf-8"?>
<!-- Generator: Adobe Illustrator 16.0.4, SVG Export Plug-In . SVG Version: 6.00 Build 0)  -->
<!DOCTYPE svg PUBLIC "-//W3C//DTD SVG 1.1//EN" "http://www.w3.org/Graphics/SVG/1.1/DTD/svg11.dtd">
<svg version="1.1" xmlns="http://www.w3.org/2000/svg" xmlns:xlink="http://www.w3.org/1999/xlink" x="0px" y="0px"
	 width="566.93px" height="481.89px" viewBox="0 0 566.93 481.89" enable-background="new 0 0 566.93 481.89" xml:space="preserve">
<g id="Plan_Etage_1">
	<g>
		<polygon fill="#4D4D4D" points="317.089,248.406 317.077,252.481 315.066,251.32 315.078,247.244 		"/>
	</g>
	<g>
		<polygon fill="#8B8B8A" points="400.579,247.55 400.567,251.626 396.114,254.213 396.126,250.138 		"/>
	</g>
	<g>
		<polygon fill="#8B8B8A" points="520.47,316.77 520.458,320.845 478.111,345.454 478.123,341.379 		"/>
	</g>
	<g>
		<polygon fill="#4D4D4D" points="478.123,341.379 478.111,345.454 476.101,344.293 476.112,340.217 		"/>
	</g>
	<g>
		<polygon fill="#8B8B8A" points="184.372,373.195 184.36,377.271 179.907,379.859 179.919,375.783 		"/>
	</g>
	<g>
		<polygon fill="#4D4D4D" points="179.919,375.783 179.907,379.859 136.754,354.944 136.766,350.869 		"/>
	</g>
	<g>
		<polygon fill="#4D4D4D" points="261.109,417.5 261.098,421.576 184.36,377.271 184.372,373.195 		"/>
	</g>
	<g>
		<polygon fill="#8B8B8A" points="476.112,340.217 476.101,344.293 340.135,423.309 340.146,419.232 		"/>
	</g>
	<g>
		<polygon fill="#4D4D4D" points="299.811,445.002 299.799,449.078 256.646,424.164 256.656,420.088 		"/>
	</g>
	<g>
		<polygon fill="#8B8B8A" points="342.157,420.393 342.146,424.469 299.799,449.078 299.811,445.002 		"/>
	</g>
	<g>
		<polygon fill="#BDBDBD" points="520.47,316.77 478.123,341.379 476.112,340.217 340.146,419.232 342.157,420.393 299.811,445.002 
			256.656,420.088 261.109,417.5 184.372,373.195 179.919,375.783 136.766,350.869 179.112,326.26 181.123,327.42 317.089,248.406 
			315.078,247.244 357.425,222.635 400.579,247.55 396.126,250.138 472.863,294.441 477.315,291.854 		"/>
	</g>
	<g>
		<g>
			<polygon fill="#C7C7C7" points="366.084,338.596 335.923,356.123 307.006,339.429 313.001,335.945 339.905,351.479 
				358.079,340.918 331.174,325.384 337.168,321.9 			"/>
		</g>
		<g>
			<polygon fill="#C7C7C7" points="454.469,309.746 450.473,312.068 450.521,320.775 454.544,323.098 450.548,325.42 
				438.985,318.745 400.305,341.223 380.718,330.092 373.087,334.525 371.076,333.364 378.706,328.93 363.217,319.987 
				367.214,317.665 400.126,336.667 439.238,313.938 436.454,312.331 440.45,310.008 443.234,311.615 450.446,307.424 			"/>
		</g>
		<g>
			<polygon fill="#C7C7C7" points="383.433,351.029 379.436,353.352 375.414,351.029 379.41,348.707 			"/>
		</g>
		<g>
			<polygon fill="#C7C7C7" points="362.569,363.152 358.573,365.475 354.551,363.152 358.547,360.83 			"/>
		</g>
		<g>
			<polygon fill="#C7C7C7" points="328.704,360.318 320.921,364.842 340.355,376.062 303.02,397.76 314.582,404.436 
				310.586,406.758 306.563,404.436 291.532,404.436 287.536,406.758 283.514,404.436 290.726,400.244 287.942,398.637 
				291.938,396.314 294.722,397.922 332.337,376.062 299.424,357.06 303.421,354.737 318.909,363.68 326.692,359.157 			"/>
		</g>
		<g>
			<polygon fill="#C7C7C7" points="373.71,263.12 366.497,267.312 369.281,268.918 365.285,271.24 362.501,269.634 323.39,292.363 
				356.487,311.473 352.491,313.795 319.393,294.686 259.597,329.436 292.694,348.545 288.698,350.867 255.6,331.758 
				217.985,353.617 220.769,355.225 216.772,357.547 213.989,355.939 206.776,360.131 202.754,357.809 206.751,355.486 
				206.701,346.779 202.679,344.457 206.675,342.135 218.237,348.811 354.203,269.796 342.641,263.12 346.637,260.798 
				350.659,263.12 365.69,263.12 369.688,260.797 			"/>
		</g>
		<g>
			<path fill="#C7C7C7" d="M478.117,341.337l-2.012-1.161L340.14,419.19l2.012,1.161l-42.348,24.609l-43.153-24.914l4.452-2.588
				l-76.736-44.305l-4.453,2.588l-43.154-24.915l42.348-24.609l2.011,1.161l135.966-79.015l-2.011-1.161l42.347-24.609
				l43.154,24.914l-4.453,2.588l76.736,44.305l4.453-2.588l43.154,24.916L478.117,341.337z M485.582,332.34l19.372-11.259
				l-0.049-8.706l-20.029-11.564h-15.031l-3.996,2.322l-4.022-2.322l7.034-4.088l-76.736-44.304l-7.035,4.088l-4.022-2.323
				l3.997-2.322l-0.049-8.706l-20.029-11.563h-15.031l-19.373,11.258l0.05,8.707l4.022,2.322l-3.996,2.322l-9.552-5.515
				L185.14,329.701l9.552,5.515l-3.996,2.322l-4.022-2.322h-15.031l-19.372,11.257l0.049,8.708l20.028,11.563h15.031l3.996-2.322
				l4.023,2.322l-7.035,4.088l76.737,44.305l7.034-4.089l4.022,2.322l-3.996,2.322l0.049,8.707l20.029,11.563h15.032l19.371-11.258
				l-0.049-8.707l-4.022-2.322l3.996-2.322l9.552,5.515l135.965-79.015l-9.551-5.514l3.996-2.322l4.022,2.322H485.582"/>
		</g>
	</g>
</g>
<g id="raume_flach_unten">
	<a id="gf_sektion5-1" xlink:href="winckelmann-und-die-moderne/" >
		<g>
			<polygon fill="#D07172" points="326.593,415.998 326.642,424.705 307.271,435.963 292.237,435.963 272.209,424.4 272.16,415.693 
				291.532,404.436 306.564,404.436 			"/>
		</g>
	</a>
	<a id="gf_sektion5-2" xlink:href="kunst/" >
		<g>
			<polygon fill="#D07172" points="332.337,376.062 294.722,397.922 291.938,396.314 287.942,398.637 290.726,400.244 
				265.1,415.137 188.362,370.832 213.989,355.939 216.772,357.547 220.769,355.225 217.985,353.617 255.601,331.758 			"/>
		</g>
	</a>
	<a id="gf_sektion6-1" xlink:href="die-schoenheit-der-unbezeichnung-winckelmanns-androgyne-aesthetik/" >
		<g>
			<polygon fill="#C4759C" points="206.701,346.779 206.751,355.486 187.378,366.744 172.347,366.744 152.318,355.181 
				152.27,346.475 171.642,335.216 186.673,335.216 			"/>
		</g>
	</a>
	<a id="gf_sektion6-2" xlink:href="anthropologie-der-mensch-zwischen-kunst-und-natur/" >
		<g>
			<polygon fill="#A6628C" points="354.204,269.796 218.237,348.811 185.14,329.701 321.105,250.688 			"/>
		</g>
	</a>
	<a id="gf_sektion6-3" xlink:href="was-ist-schoen/" >
		<g>
			<polygon fill="#92547A" points="385.015,243.155 385.063,251.862 365.69,263.12 350.659,263.12 330.631,251.557 330.582,242.85 
				349.954,231.592 364.985,231.592 			"/>
		</g>
	</a>
	<a id="gf_sektion8" xlink:href="epilog/" >
		<g>
			<polygon fill="#8AB7CE" points="504.905,312.375 504.954,321.082 485.582,332.34 470.551,332.34 450.522,320.775 
				450.473,312.068 469.845,300.811 484.876,300.811 			"/>
		</g>
	</a>
	<a id="gf_sektion7" xlink:href="politik-kunst-macht-gesellschaft/" >
		<g>
			<polygon fill="#929FB9" points="468.861,296.723 443.234,311.615 440.451,310.008 436.454,312.33 439.238,313.938 
				400.127,336.667 323.39,292.363 362.501,269.634 365.285,271.24 369.281,268.918 366.497,267.312 392.124,252.419 			"/>
		</g>
	</a>
</g>
<g id="sektion62">
	<a xlink:href="was-ist-schoen/" >
		<g enable-background="new    ">
			<g>
				<polygon fill="#652043" points="330.722,210.782 330.606,251.541 330.557,242.834 330.672,202.076 				"/>
			</g>
			<g>
				<polygon fill="#4F1337" points="385.153,211.088 385.038,251.846 365.666,263.104 365.781,222.346 				"/>
			</g>
			<g>
				<polygon fill="#92547A" points="385.104,202.381 385.153,211.088 365.781,222.346 350.75,222.346 330.722,210.782 
					330.672,202.076 350.038,190.814 365.076,190.818 				"/>
			</g>
			<g>
				<polygon fill="#642049" points="365.781,222.346 365.666,263.104 350.634,263.104 350.75,222.346 				"/>
			</g>
			<g>
				<polygon fill="#772959" points="350.75,222.346 350.634,263.104 330.606,251.541 330.722,210.782 				"/>
			</g>
		</g>
	</a>
</g>
<g id="sektion61">
	<a xlink:href="anthropologie-der-mensch-zwischen-kunst-und-natur/" >
		<g enable-background="new    ">
			<g>
				<polygon fill="#A6628C" points="354.294,229.021 218.328,308.036 185.23,288.928 321.196,209.912 				"/>
			</g>
			<g>
				<polygon fill="#6F2A54" points="354.294,229.021 354.179,269.779 218.213,348.795 218.328,308.036 				"/>
			</g>
			<g>
				<polygon fill="#903B6F" points="218.328,308.036 218.213,348.795 185.114,329.686 185.23,288.928 				"/>
			</g>
		</g>
	</a>
</g>
<g id="sektion60">
	<a xlink:href="die-schoenheit-der-unbezeichnung-winckelmanns-androgyne-aesthetik/" >
		<g enable-background="new    ">
			<g>
				<polygon fill="#652043" points="152.408,314.406 152.293,355.164 152.244,346.457 152.359,305.699 				"/>
			</g>
			<g>
				<polygon fill="#8B3E64" points="206.841,314.712 206.726,355.471 187.353,366.729 187.469,325.97 				"/>
			</g>
			<g>
				<polygon fill="#C4759C" points="206.792,306.006 206.841,314.712 187.469,325.97 172.438,325.97 152.408,314.406 
					152.359,305.699 171.726,294.438 186.763,294.441 				"/>
			</g>
			<g>
				<polygon fill="#A14975" points="187.469,325.97 187.353,366.729 172.322,366.729 172.438,325.97 				"/>
			</g>
			<g>
				<polygon fill="#B55383" points="172.438,325.97 172.322,366.729 152.293,355.164 152.408,314.406 				"/>
			</g>
		</g>
	</a>
</g>
<g id="sektion70">
	<a xlink:href="politik-kunst-macht-gesellschaft/" >
		<g>
			<g enable-background="new    ">
				<g>
					<polygon fill="#5F6E88" points="369.302,228.238 369.187,268.996 366.403,267.389 366.519,226.631 					"/>
				</g>
				<g>
					<polygon fill="#5F6E88" points="468.888,256.039 468.772,296.797 443.14,311.693 443.256,270.936 					"/>
				</g>
				<g>
					<polygon fill="#7687A7" points="443.256,270.936 443.14,311.693 440.356,310.086 440.472,269.328 					"/>
				</g>
				<g>
					<polygon fill="#4F5C73" points="440.472,269.328 440.356,310.086 436.36,312.408 436.476,271.65 					"/>
				</g>
				<g>
					<polygon fill="#5F6E88" points="439.259,273.258 439.144,314.016 400.032,336.745 400.147,295.987 					"/>
				</g>
				<g>
					<polygon fill="#7687A7" points="400.147,295.987 400.032,336.745 323.295,292.441 323.41,251.684 					"/>
				</g>
				<g>
					<polygon fill="#929FB9" points="468.888,256.039 443.256,270.936 440.472,269.328 436.476,271.65 439.259,273.258 
						400.147,295.987 323.41,251.684 362.522,228.953 365.306,230.561 369.302,228.238 366.519,226.631 392.151,211.734 					"/>
				</g>
			</g>
		</g>
	</a>
</g>
<g id="sektion80">
	<a xlink:href="epilog/" >
		<g>
			<g enable-background="new    ">
				<g>
					<polygon fill="#416A7D" points="450.598,280.053 450.481,320.811 450.433,312.104 450.549,271.346 					"/>
				</g>
				<g>
					<polygon fill="#477286" points="505.023,280.361 504.907,321.12 485.542,332.374 485.657,291.615 					"/>
				</g>
				<g>
					<polygon fill="#8AB7CE" points="504.981,271.651 505.023,280.361 485.657,291.615 470.626,291.615 450.598,280.053 
						450.549,271.346 469.914,260.092 484.952,260.088 					"/>
				</g>
				<g>
					<polygon fill="#5889A1" points="485.657,291.615 485.542,332.374 470.511,332.374 470.626,291.615 					"/>
				</g>
				<g>
					<polygon fill="#6CA5C2" points="470.626,291.615 470.511,332.374 450.481,320.811 450.598,280.053 					"/>
				</g>
			</g>
		</g>
	</a>
</g>
<g id="treppen_unten">
	<g>
		<g enable-background="new    ">
			<g>
				<polygon fill="#838383" points="262.167,267.07 262.162,268.779 258.694,266.778 258.7,265.068 				"/>
			</g>
			<g>
				<polygon fill="#BDBDBD" points="262.167,267.07 276.263,258.879 276.258,260.588 262.162,268.779 				"/>
			</g>
			<g>
				<polygon fill="#D3D3D3" points="258.7,265.068 272.796,256.877 276.263,258.879 262.167,267.07 				"/>
			</g>
		</g>
		<g enable-background="new    ">
			<g>
				<polygon fill="#838383" points="267.112,275.1 267.108,276.809 263.642,274.807 263.646,273.098 				"/>
			</g>
			<g>
				<polygon fill="#BDBDBD" points="267.112,275.1 281.209,266.908 281.204,268.617 267.108,276.809 				"/>
			</g>
			<g>
				<polygon fill="#D3D3D3" points="263.646,273.098 277.742,264.906 281.209,266.908 267.112,275.1 				"/>
			</g>
		</g>
		<g enable-background="new    ">
			<g>
				<polygon fill="#838383" points="272.065,283.125 272.061,284.834 268.594,282.832 268.599,281.123 				"/>
			</g>
			<g>
				<polygon fill="#BDBDBD" points="272.065,283.125 286.161,274.934 286.156,276.643 272.061,284.834 				"/>
			</g>
			<g>
				<polygon fill="#D3D3D3" points="268.599,281.123 282.694,272.932 286.161,274.934 272.065,283.125 				"/>
			</g>
		</g>
		<g enable-background="new    ">
			<g>
				<polygon fill="#838383" points="277.019,291.158 277.013,292.867 273.546,290.865 273.552,289.156 				"/>
			</g>
			<g>
				<polygon fill="#BDBDBD" points="277.019,291.158 291.114,282.966 291.109,284.676 277.013,292.867 				"/>
			</g>
			<g>
				<polygon fill="#D3D3D3" points="273.552,289.156 287.647,280.965 291.114,282.966 277.019,291.158 				"/>
			</g>
		</g>
		<g enable-background="new    ">
			<g>
				<polygon fill="#838383" points="281.965,299.18 281.96,300.889 278.492,298.887 278.497,297.178 				"/>
			</g>
			<g>
				<polygon fill="#BDBDBD" points="281.965,299.18 296.061,290.988 296.056,292.697 281.96,300.889 				"/>
			</g>
			<g>
				<polygon fill="#D3D3D3" points="278.497,297.178 292.593,288.986 296.061,290.988 281.965,299.18 				"/>
			</g>
		</g>
		<g enable-background="new    ">
			<g>
				<polygon fill="#838383" points="286.917,307.212 286.912,308.922 283.445,306.92 283.45,305.211 				"/>
			</g>
			<g>
				<polygon fill="#BDBDBD" points="286.917,307.212 301.013,299.021 301.008,300.729 286.912,308.922 				"/>
			</g>
			<g>
				<polygon fill="#D3D3D3" points="283.45,305.211 297.546,297.02 301.013,299.021 286.917,307.212 				"/>
			</g>
		</g>
		<g enable-background="new    ">
			<g>
				<polygon fill="#838383" points="291.87,315.237 291.865,316.947 288.392,314.941 288.396,313.232 				"/>
			</g>
			<g>
				<polygon fill="#BDBDBD" points="291.87,315.237 305.966,307.045 305.961,308.755 291.865,316.947 				"/>
			</g>
			<g>
				<polygon fill="#D3D3D3" points="288.396,313.232 302.492,305.04 305.966,307.045 291.87,315.237 				"/>
			</g>
		</g>
		<g enable-background="new    ">
			<g>
				<polygon fill="#838383" points="296.815,323.268 296.811,324.977 293.344,322.975 293.349,321.266 				"/>
			</g>
			<g>
				<polygon fill="#BDBDBD" points="296.815,323.268 310.911,315.074 310.907,316.784 296.811,324.977 				"/>
			</g>
			<g>
				<polygon fill="#D3D3D3" points="293.349,321.266 307.444,313.073 310.911,315.074 296.815,323.268 				"/>
			</g>
		</g>
		<g enable-background="new    ">
			<g>
				<polygon fill="#838383" points="301.769,331.291 301.764,333.001 298.297,331 298.302,329.29 				"/>
			</g>
			<g>
				<polygon fill="#BDBDBD" points="301.769,331.291 315.864,323.1 315.859,324.81 301.764,333.001 				"/>
			</g>
			<g>
				<polygon fill="#D3D3D3" points="298.302,329.29 312.397,321.098 315.864,323.1 301.769,331.291 				"/>
			</g>
		</g>
		<g enable-background="new    ">
			<g>
				<polygon fill="#838383" points="306.715,339.32 306.71,341.03 303.243,339.029 303.248,337.318 				"/>
			</g>
			<g>
				<polygon fill="#BDBDBD" points="306.715,339.32 320.811,331.129 320.806,332.838 306.71,341.03 				"/>
			</g>
			<g>
				<polygon fill="#D3D3D3" points="303.248,337.318 317.344,329.127 320.811,331.129 306.715,339.32 				"/>
			</g>
		</g>
		<g enable-background="new    ">
			<g>
				<polygon fill="#838383" points="311.667,347.346 311.663,349.056 308.196,347.055 308.2,345.345 				"/>
			</g>
			<g>
				<polygon fill="#BDBDBD" points="311.667,347.346 325.763,339.154 325.759,340.864 311.663,349.056 				"/>
			</g>
			<g>
				<polygon fill="#D3D3D3" points="308.2,345.345 322.296,337.152 325.763,339.154 311.667,347.346 				"/>
			</g>
		</g>
		<g enable-background="new    ">
			<g>
				<polygon fill="#838383" points="316.62,355.379 316.615,357.088 313.148,355.087 313.153,353.377 				"/>
			</g>
			<g>
				<polygon fill="#BDBDBD" points="316.62,355.379 330.716,347.188 330.711,348.896 316.615,357.088 				"/>
			</g>
			<g>
				<polygon fill="#D3D3D3" points="313.153,353.377 327.249,345.186 330.716,347.188 316.62,355.379 				"/>
			</g>
		</g>
		<g enable-background="new    ">
			<g>
				<polygon fill="#838383" points="321.566,363.4 321.562,365.11 318.095,363.108 318.1,361.398 				"/>
			</g>
			<g>
				<polygon fill="#BDBDBD" points="321.566,363.4 335.662,355.209 335.657,356.918 321.562,365.11 				"/>
			</g>
			<g>
				<polygon fill="#D3D3D3" points="318.1,361.398 332.195,353.207 335.662,355.209 321.566,363.4 				"/>
			</g>
		</g>
	</g>
	<g>
		<g enable-background="new    ">
			<g>
				<polygon fill="#838383" points="307.854,240.7 307.849,242.41 304.382,240.408 304.388,238.699 				"/>
			</g>
			<g>
				<polygon fill="#BDBDBD" points="307.854,240.7 321.95,232.508 321.944,234.219 307.849,242.41 				"/>
			</g>
			<g>
				<polygon fill="#D3D3D3" points="304.388,238.699 318.483,230.507 321.95,232.508 307.854,240.7 				"/>
			</g>
		</g>
		<g enable-background="new    ">
			<g>
				<polygon fill="#838383" points="312.807,248.726 312.802,250.436 309.335,248.434 309.34,246.725 				"/>
			</g>
			<g>
				<polygon fill="#BDBDBD" points="312.807,248.726 326.902,240.534 326.897,242.243 312.802,250.436 				"/>
			</g>
			<g>
				<polygon fill="#D3D3D3" points="309.34,246.725 323.436,238.532 326.902,240.534 312.807,248.726 				"/>
			</g>
		</g>
		<g enable-background="new    ">
			<g>
				<polygon fill="#838383" points="317.759,256.758 317.755,258.468 314.281,256.463 314.286,254.753 				"/>
			</g>
			<g>
				<polygon fill="#BDBDBD" points="317.759,256.758 331.855,248.566 331.851,250.275 317.755,258.468 				"/>
			</g>
			<g>
				<polygon fill="#D3D3D3" points="314.286,254.753 328.382,246.562 331.855,248.566 317.759,256.758 				"/>
			</g>
		</g>
		<g enable-background="new    ">
			<g>
				<polygon fill="#838383" points="322.706,264.78 322.7,266.489 319.233,264.488 319.238,262.779 				"/>
			</g>
			<g>
				<polygon fill="#BDBDBD" points="322.706,264.78 336.802,256.588 336.796,258.298 322.7,266.489 				"/>
			</g>
			<g>
				<polygon fill="#D3D3D3" points="319.238,262.779 333.335,254.587 336.802,256.588 322.706,264.78 				"/>
			</g>
		</g>
		<g enable-background="new    ">
			<g>
				<polygon fill="#838383" points="327.658,272.812 327.653,274.521 324.187,272.521 324.191,270.811 				"/>
			</g>
			<g>
				<polygon fill="#BDBDBD" points="327.658,272.812 341.754,264.621 341.749,266.33 327.653,274.521 				"/>
			</g>
			<g>
				<polygon fill="#D3D3D3" points="324.191,270.811 338.287,262.62 341.754,264.621 327.658,272.812 				"/>
			</g>
		</g>
		<g enable-background="new    ">
			<g>
				<polygon fill="#838383" points="332.61,280.838 332.605,282.547 329.133,280.542 329.138,278.833 				"/>
			</g>
			<g>
				<polygon fill="#BDBDBD" points="332.61,280.838 346.706,272.646 346.702,274.355 332.605,282.547 				"/>
			</g>
			<g>
				<polygon fill="#D3D3D3" points="329.138,278.833 343.233,270.641 346.706,272.646 332.61,280.838 				"/>
			</g>
		</g>
		<g enable-background="new    ">
			<g>
				<polygon fill="#838383" points="337.557,288.867 337.552,290.576 334.085,288.574 334.09,286.865 				"/>
			</g>
			<g>
				<polygon fill="#BDBDBD" points="337.557,288.867 351.653,280.676 351.648,282.385 337.552,290.576 				"/>
			</g>
			<g>
				<polygon fill="#D3D3D3" points="334.09,286.865 348.187,278.674 351.653,280.676 337.557,288.867 				"/>
			</g>
		</g>
		<g enable-background="new    ">
			<g>
				<polygon fill="#838383" points="342.51,296.893 342.505,298.602 339.038,296.601 339.043,294.891 				"/>
			</g>
			<g>
				<polygon fill="#BDBDBD" points="342.51,296.893 356.605,288.701 356.601,290.41 342.505,298.602 				"/>
			</g>
			<g>
				<polygon fill="#D3D3D3" points="339.043,294.891 353.139,286.699 356.605,288.701 342.51,296.893 				"/>
			</g>
		</g>
		<g enable-background="new    ">
			<g>
				<polygon fill="#838383" points="347.456,304.922 347.451,306.631 343.984,304.629 343.989,302.92 				"/>
			</g>
			<g>
				<polygon fill="#BDBDBD" points="347.456,304.922 361.552,296.73 361.547,298.439 347.451,306.631 				"/>
			</g>
			<g>
				<polygon fill="#D3D3D3" points="343.989,302.92 358.085,294.729 361.552,296.73 347.456,304.922 				"/>
			</g>
		</g>
		<g enable-background="new    ">
			<g>
				<polygon fill="#838383" points="352.408,312.947 352.403,314.656 348.937,312.654 348.941,310.945 				"/>
			</g>
			<g>
				<polygon fill="#BDBDBD" points="352.408,312.947 366.505,304.756 366.499,306.465 352.403,314.656 				"/>
			</g>
			<g>
				<polygon fill="#D3D3D3" points="348.941,310.945 363.038,302.754 366.505,304.756 352.408,312.947 				"/>
			</g>
		</g>
		<g enable-background="new    ">
			<g>
				<polygon fill="#838383" points="357.361,320.98 357.356,322.689 353.89,320.688 353.894,318.979 				"/>
			</g>
			<g>
				<polygon fill="#BDBDBD" points="357.361,320.98 371.457,312.788 371.452,314.498 357.356,322.689 				"/>
			</g>
			<g>
				<polygon fill="#D3D3D3" points="353.894,318.979 367.99,310.786 371.457,312.788 357.361,320.98 				"/>
			</g>
		</g>
		<g enable-background="new    ">
			<g>
				<polygon fill="#838383" points="362.308,329.002 362.303,330.711 358.836,328.709 358.841,327 				"/>
			</g>
			<g>
				<polygon fill="#BDBDBD" points="362.308,329.002 376.403,320.81 376.398,322.52 362.303,330.711 				"/>
			</g>
			<g>
				<polygon fill="#D3D3D3" points="358.841,327 372.937,318.809 376.403,320.81 362.308,329.002 				"/>
			</g>
		</g>
		<g enable-background="new    ">
			<g>
				<polygon fill="#838383" points="367.26,337.034 367.255,338.744 363.788,336.742 363.793,335.033 				"/>
			</g>
			<g>
				<polygon fill="#BDBDBD" points="367.26,337.034 381.356,328.842 381.351,330.552 367.255,338.744 				"/>
			</g>
			<g>
				<polygon fill="#D3D3D3" points="363.793,335.033 377.89,326.841 381.356,328.842 367.26,337.034 				"/>
			</g>
		</g>
	</g>
</g>
<g id="sektion51">
	<a xlink:href="kunst/" >
		<g enable-background="new    ">
			<g>
				<polygon fill="#C44D4F" points="220.617,314.579 220.501,355.337 217.718,353.73 217.833,312.972 				"/>
			</g>
			<g>
				<polygon fill="#A94342" points="332.179,335.413 332.063,376.171 294.448,398.03 294.563,357.272 				"/>
			</g>
			<g>
				<polygon fill="#C44D4F" points="294.563,357.272 294.448,398.03 291.665,396.424 291.78,355.665 				"/>
			</g>
			<g>
				<polygon fill="#8C3734" points="291.78,355.665 291.665,396.424 287.668,398.746 287.784,357.988 				"/>
			</g>
			<g>
				<polygon fill="#A94342" points="290.567,359.595 290.452,400.354 264.825,415.245 264.941,374.486 				"/>
			</g>
			<g>
				<polygon fill="#C44D4F" points="264.941,374.486 264.825,415.245 188.095,370.945 188.21,330.187 				"/>
			</g>
			<g>
				<polygon fill="#D07172" points="332.179,335.413 294.563,357.272 291.78,355.665 287.784,357.988 290.567,359.595 
					264.941,374.486 188.21,330.187 213.837,315.294 216.62,316.901 220.617,314.579 217.833,312.972 255.448,291.112 				"/>
			</g>
		</g>
	</a>
</g>
<g id="sektion50">
	<a xlink:href="winckelmann-und-die-moderne/" >
		<g enable-background="new    ">
			<g>
				<polygon fill="#7C2F2B" points="272.051,383.75 271.936,424.509 271.887,415.802 272.002,375.044 				"/>
			</g>
			<g>
				<polygon fill="#8C3734" points="326.483,384.057 326.368,424.814 307.002,436.076 307.118,395.318 				"/>
			</g>
			<g>
				<polygon fill="#D07172" points="326.435,375.35 326.483,384.057 307.118,395.318 292.079,395.314 272.051,383.75 
					272.002,375.044 291.374,363.786 306.405,363.785 				"/>
			</g>
			<g>
				<polygon fill="#A94342" points="307.118,395.318 307.002,436.076 291.964,436.072 292.079,395.314 				"/>
			</g>
			<g>
				<polygon fill="#C44D4F" points="292.079,395.314 291.964,436.072 271.936,424.509 272.051,383.75 				"/>
			</g>
		</g>
	</a>
</g>
<g id="Plan_Etage_2">
	<g>
		<polygon fill="#4D4D4D" points="226.796,90.375 226.784,94.45 224.773,93.289 224.785,89.213 		"/>
	</g>
	<g>
		<polygon fill="#8B8B8A" points="310.292,89.522 310.28,93.599 305.827,96.186 305.839,92.11 		"/>
	</g>
	<g>
		<polygon fill="#8B8B8A" points="430.184,158.742 430.172,162.817 387.825,187.427 387.836,183.352 		"/>
	</g>
	<g>
		<polygon fill="#4D4D4D" points="387.836,183.352 387.825,187.427 385.808,186.262 385.819,182.186 		"/>
	</g>
	<g>
		<polygon fill="#8B8B8A" points="94.085,215.168 94.073,219.244 89.621,221.832 89.633,217.756 		"/>
	</g>
	<g>
		<polygon fill="#4D4D4D" points="89.633,217.756 89.621,221.832 46.46,196.913 46.472,192.838 		"/>
	</g>
	<g>
		<polygon fill="#4D4D4D" points="170.816,259.469 170.805,263.545 94.073,219.244 94.085,215.168 		"/>
	</g>
	<g>
		<polygon fill="#8B8B8A" points="385.819,182.186 385.808,186.262 249.848,265.28 249.859,261.205 		"/>
	</g>
	<g>
		<polygon fill="#4D4D4D" points="209.518,286.971 209.506,291.047 166.352,266.133 166.363,262.057 		"/>
	</g>
	<g>
		<polygon fill="#8B8B8A" points="251.864,262.361 251.853,266.438 209.506,291.047 209.518,286.971 		"/>
	</g>
	<g>
		<polygon fill="#A6A6A6" points="430.184,158.742 387.836,183.352 385.819,182.186 249.859,261.205 251.864,262.361 
			209.518,286.971 166.363,262.057 170.816,259.469 94.085,215.168 89.633,217.756 46.472,192.838 88.819,168.229 90.83,169.389 
			226.796,90.375 224.785,89.213 267.132,64.604 310.292,89.522 305.839,92.11 382.569,136.411 387.022,133.823 		"/>
	</g>
	<g>
		<polygon fill="#B3B3B2" points="276.374,202.795 212.727,239.782 224.289,246.458 220.293,248.78 216.271,246.458 
			201.232,246.462 197.242,248.781 193.22,246.458 200.433,242.268 167.252,223.109 171.248,220.787 204.429,239.944 
			242.037,218.089 239.324,216.522 243.32,214.199 246.034,215.768 272.352,200.473 		"/>
	</g>
	<g>
		<polygon fill="#B3B3B2" points="364.176,151.77 360.18,154.092 360.229,162.799 364.251,165.121 360.255,167.443 348.692,160.768 
			285.038,197.76 281.017,195.438 305.837,181.013 303.124,179.445 307.12,177.123 309.833,178.69 348.945,155.961 315.765,136.804 
			319.76,134.481 352.941,153.639 360.153,149.447 		"/>
	</g>
	<g enable-background="new    ">
		<g>
			<polygon fill="#B3B3B2" points="275.791,180.626 245.636,198.15 216.713,181.451 222.707,177.969 249.618,193.506 
				267.785,182.948 240.874,167.41 246.868,163.928 			"/>
		</g>
		<g>
			<polygon fill="#B3B3B2" points="283.423,105.146 276.21,109.338 309.392,128.495 305.396,130.817 272.215,111.66 233.103,134.39 
				298.213,171.981 294.217,174.304 229.106,136.712 169.303,171.466 234.414,209.059 230.417,211.38 165.307,173.789 
				127.698,195.645 160.88,214.801 156.883,217.123 123.702,197.967 116.489,202.158 112.468,199.836 116.457,197.518 
				116.415,188.807 112.393,186.484 116.389,184.162 127.951,190.838 263.917,111.822 252.354,105.146 256.351,102.824 
				260.372,105.146 275.404,105.146 279.4,102.824 			"/>
		</g>
	</g>
	<g>
		<path fill="#B3B3B2" d="M430.177,158.754l-42.347,24.609l-2.017-1.164l-135.96,79.018l2.005,1.158l-42.348,24.609l-43.153-24.915
			l4.452-2.587l-76.73-44.301l-4.452,2.587L46.466,192.85l42.348-24.609l2.011,1.162L226.79,90.387l-2.012-1.16l42.348-24.609
			l43.16,24.918l-4.453,2.588l76.731,44.301l4.452-2.588L430.177,158.754z M395.295,174.365l19.372-11.258l-0.055-8.71
			l-20.029-11.563h-15.031l-3.996,2.322l-4.022-2.322l7.034-4.088l-76.73-44.301l-7.034,4.088l-4.022-2.322l3.996-2.322
			l-0.049-8.707l-20.035-11.566h-15.031l-19.373,11.258l0.05,8.707l4.021,2.321l-3.995,2.323l-9.552-5.516L94.847,171.725
			l9.551,5.514l-3.996,2.322l-4.021-2.322l-15.038,0.004l-19.366,11.254l0.049,8.707l20.035,11.567l15.031,0.001l3.996-2.323
			l4.023,2.323l-7.035,4.088l76.731,44.3l7.034-4.088l4.021,2.322l-3.995,2.322l0.049,8.706l20.035,11.568h15.031l19.365-11.254
			l-0.048-8.715l-4.017-2.318l3.996-2.322l9.552,5.514l135.966-79.014l-9.552-5.516l3.996-2.322l4.022,2.322H395.295"/>
	</g>
</g>
<g id="raume_flach_oben">
	<a id="gf_sektion4-1" xlink:href="winckelmanns-europaeisches-netzwerk/" >
		<g>
			<polygon fill="#8AB6B9" points="378.568,138.746 352.941,153.639 276.211,109.338 301.837,94.445 			"/>
		</g>
	</a>
	<a id="gf_sektion4-2" xlink:href="image-konstruktion/" >
		<g>
			<polygon fill="#8AB6B9" points="348.945,155.961 309.833,178.69 233.103,134.391 272.215,111.66 			"/>
		</g>
	</a>
	<a id="gf_sektion3" xlink:href="die-griechische-schoenheit-zwischen-norm-und-geschichte/" >
		<g>
			<polygon fill="#95A28F" points="116.415,188.807 116.464,197.514 97.092,208.771 82.06,208.771 62.031,197.207 61.982,188.5 
				81.349,177.238 96.38,177.239 			"/>
			<polygon fill="#95A28F" points="294.728,85.182 294.776,93.889 275.404,105.146 260.373,105.146 240.344,93.584 240.295,84.877 
				259.661,73.615 274.692,73.615 			"/>
			<polygon fill="#95A28F" points="263.917,111.822 127.951,190.838 94.853,171.729 230.819,92.713 			"/>
		</g>
	</a>
	<a id="gf_sektion2" xlink:href="zugaenge-zur-antike/" >
		<g>
			<g id="gf_sektion2-2">
				<polygon fill="#78979D" points="242.044,218.085 204.429,239.945 127.698,195.645 165.313,173.785 				"/>
			</g>
			<g id="gf_sektion2-1">
				<polygon fill="#78979D" points="200.433,242.268 181.841,253.071 174.807,257.16 98.076,212.859 123.702,197.967 				"/>
			</g>
		</g>
	</a>
	<a id="gf_sektion1" xlink:href="prolog/" >
		<g>
			<polygon fill="#8AB7CE" points="381.797,179.881 245.831,258.895 212.727,239.782 348.692,160.768 			"/>
			<polygon fill="#8AB7CE" points="236.306,258.025 236.354,266.732 216.983,277.99 201.951,277.99 181.916,266.423 
				181.867,257.716 201.239,246.458 216.271,246.458 			"/>
		</g>
	</a>
</g>
<g id="sektion30">
	<a xlink:href="die-griechische-schoenheit-zwischen-norm-und-geschichte/" >
		<g enable-background="new    ">
			<g>
				<polygon fill="#4C5948" points="240.315,52.776 240.199,93.534 240.15,84.828 240.266,44.069 				"/>
			</g>
			<g>
				<polygon fill="#505E4C" points="294.747,53.082 294.632,93.84 275.26,105.098 275.375,64.34 				"/>
			</g>
			<g>
				<polygon fill="#95A28F" points="294.698,44.375 294.747,53.082 275.375,64.34 260.344,64.34 240.315,52.776 240.266,44.069 
					259.638,32.812 274.669,32.812 				"/>
			</g>
			<g>
				<polygon fill="#606F5B" points="275.375,64.34 275.26,105.098 260.228,105.098 260.344,64.34 				"/>
			</g>
			<g>
				<polygon fill="#7A8B74" points="260.344,64.34 260.228,105.098 240.199,93.534 240.315,52.776 				"/>
			</g>
		</g>
	</a>
	<a xlink:href="die-griechische-schoenheit-zwischen-norm-und-geschichte/" >
		<g enable-background="new    ">
			<g>
				<polygon fill="#95A28F" points="263.888,71.016 127.922,150.03 94.823,130.921 230.79,51.906 				"/>
			</g>
			<g>
				<polygon fill="#505E4C" points="263.888,71.016 263.772,111.773 127.807,190.789 127.922,150.03 				"/>
			</g>
			<g>
				<polygon fill="#677661" points="127.922,150.03 127.807,190.789 94.708,171.68 94.823,130.921 				"/>
			</g>
		</g>
	</a>
	<a xlink:href="die-griechische-schoenheit-zwischen-norm-und-geschichte/" >
		<g enable-background="new    ">
			<g>
				<polygon fill="#4C5948" points="62.002,156.4 61.887,197.158 61.838,188.451 61.953,147.693 				"/>
			</g>
			<g>
				<polygon fill="#505E4C" points="116.435,156.706 116.319,197.465 96.953,208.727 97.069,167.968 				"/>
			</g>
			<g>
				<polygon fill="#95A28F" points="116.386,147.999 116.435,156.706 97.069,167.968 82.031,167.964 62.002,156.4 61.953,147.693 
					81.325,136.436 96.356,136.436 				"/>
			</g>
			<g>
				<polygon fill="#677661" points="97.069,167.968 96.953,208.727 81.915,208.722 82.031,167.964 				"/>
			</g>
			<g>
				<polygon fill="#7A8B74" points="82.031,167.964 81.915,208.722 61.887,197.158 62.002,156.4 				"/>
			</g>
		</g>
	</a>
</g>
<g id="sektion40">
	<a xlink:href="winckelmanns-europaeisches-netzwerk/" >
		<g enable-background="new    ">
			<g>
				<polygon fill="#8AB6B9" points="378.557,98.104 352.924,113 276.193,68.699 301.826,53.803 				"/>
			</g>
			<g>
				<polygon fill="#4E797C" points="378.557,98.104 378.441,138.861 352.809,153.758 352.924,113 				"/>
			</g>
			<g>
				<polygon fill="#6DA4A8" points="352.924,113 352.809,153.758 276.078,109.457 276.193,68.699 				"/>
			</g>
		</g>
	</a>
</g>
<g id="sektion41">
	<a xlink:href="image-konstruktion/" >
		<g enable-background="new    ">
			<g>
				<polygon fill="#8AB6B9" points="348.928,115.322 309.822,138.048 233.092,93.748 272.197,71.021 				"/>
			</g>
			<g>
				<polygon fill="#4E797C" points="348.928,115.322 348.812,156.08 309.707,178.807 309.822,138.048 				"/>
			</g>
			<g>
				<polygon fill="#6DA4A8" points="309.822,138.048 309.707,178.807 232.976,134.506 233.092,93.748 				"/>
			</g>
		</g>
	</a>
</g>
<g id="sektion20">
	<a xlink:href="zugaenge-zur-antike/" >
		<g enable-background="new    ">
			<g>
				<polygon fill="#78979D" points="241.918,177.304 204.303,199.163 127.565,154.859 165.181,132.999 				"/>
			</g>
			<g>
				<polygon fill="#46686E" points="241.918,177.304 241.802,218.062 204.187,239.921 204.303,199.163 				"/>
			</g>
			<g>
				<polygon fill="#577D85" points="204.303,199.163 204.187,239.921 127.45,195.617 127.565,154.859 				"/>
			</g>
		</g>
	</a>
	<a xlink:href="zugaenge-zur-antike/" >
		<g enable-background="new    ">
			<g>
				<polygon fill="#78979D" points="200.307,201.485 174.68,216.378 97.942,172.074 123.569,157.182 				"/>
			</g>
			<g>
				<polygon fill="#46686E" points="200.307,201.485 200.19,242.243 174.564,257.136 174.68,216.378 				"/>
			</g>
			<g>
				<polygon fill="#577D85" points="174.68,216.378 174.564,257.136 97.827,212.832 97.942,172.074 				"/>
			</g>
		</g>
	</a>
</g>
<g id="sektion10">
	<a xlink:href="prolog/" >
		<g enable-background="new    ">
			<g>
				<polygon fill="#8AB7CE" points="381.851,139.15 245.885,218.166 212.786,199.057 348.752,120.041 				"/>
			</g>
			<g>
				<polygon fill="#477286" points="381.851,139.15 381.735,179.909 245.769,258.924 245.885,218.166 				"/>
			</g>
			<g>
				<polygon fill="#5889A1" points="245.885,218.166 245.769,258.924 212.671,239.814 212.786,199.057 				"/>
			</g>
		</g>
	</a>
</g>
<g id="sektion15">
	<a xlink:href="winckelmann-und-sein-jahrhundert/" >
		<g enable-background="new    ">
			<g>
				<polygon fill="#416A7D" points="181.976,225.697 181.86,266.455 181.812,257.748 181.927,216.99 				"/>
			</g>
			<g>
				<polygon fill="#477286" points="236.408,226.002 236.293,266.76 216.921,278.018 217.036,237.26 				"/>
			</g>
			<g>
				<polygon fill="#8AB7CE" points="236.359,217.295 236.408,226.002 217.036,237.26 202.005,237.26 181.976,225.697 
					181.927,216.99 201.299,205.732 216.331,205.732 				"/>
			</g>
			<g>
				<polygon fill="#5889A1" points="217.036,237.26 216.921,278.018 201.89,278.018 202.005,237.26 				"/>
			</g>
			<g>
				<polygon fill="#6CA5C2" points="202.005,237.26 201.89,278.018 181.86,266.455 181.976,225.697 				"/>
			</g>
		</g>
	</a>
</g>
</svg>
