<?xml version="1.0" encoding="utf-8"?>
<!-- Generator: Adobe Illustrator 16.0.4, SVG Export Plug-In . SVG Version: 6.00 Build 0)  -->
<!DOCTYPE svg PUBLIC "-//W3C//DTD SVG 1.1//EN" "http://www.w3.org/Graphics/SVG/1.1/DTD/svg11.dtd">
<svg version="1.1" id="Ebene_2" xmlns="http://www.w3.org/2000/svg" xmlns:xlink="http://www.w3.org/1999/xlink" x="0px" y="0px"
	 viewBox="0 0 94.472 74.805" enable-background="new 0 0 94.472 74.805" xml:space="preserve">
<g>
	<path id="contour" fill="#999999" d="M93.217,0H1.255C0.562,0,0,0.562,0,1.255v54.696c0,0.693,0.562,1.255,1.255,1.255h57.148
		c0.9,0,1.709,0.669,1.63,1.631l-1.799,15.767c0,0.184,0.227,0.271,0.35,0.135l16.784-14.979c1.421-1.497,3.903-2.553,6.216-2.553
		h11.633c0.693,0,1.255-0.562,1.255-1.255V1.255C94.472,0.562,93.91,0,93.217,0z"/>
	<path fill="#FFFFFF" d="M75.473,34.036c-0.716,0.205-1.392,0.492-2.047,0.859c-0.634,0.389-1.187,0.819-1.657,1.289
		c-0.471,0.471-0.839,1.004-1.104,1.556c-0.267,0.573-0.409,1.146-0.409,1.719c0,0.349,0.061,0.655,0.204,0.921
		s0.307,0.389,0.512,0.389c0.204,0,0.368-0.041,0.512-0.123c0.143-0.081,0.286-0.163,0.43-0.266
		c0.143-0.102,0.307-0.184,0.491-0.266c0.184-0.082,0.43-0.123,0.736-0.123c0.635,0,1.187,0.246,1.637,0.758
		c0.471,0.511,0.696,1.166,0.696,1.943c0,0.818-0.307,1.514-0.941,2.066s-1.392,0.84-2.312,0.84c-0.594,0-1.146-0.123-1.637-0.389
		c-0.512-0.267-0.962-0.615-1.351-1.086c-0.389-0.449-0.696-0.981-0.921-1.574c-0.226-0.594-0.327-1.249-0.327-1.945
		c0-1.084,0.204-2.086,0.593-3.008c0.409-0.921,0.941-1.719,1.638-2.394c0.675-0.675,1.473-1.228,2.394-1.637
		s1.862-0.635,2.865-0.696V34.036z"/>
	<path fill="#FFFFFF" d="M84.967,34.036c-0.716,0.205-1.391,0.492-2.046,0.859c-0.634,0.389-1.187,0.819-1.657,1.289
		c-0.471,0.471-0.839,1.004-1.105,1.556c-0.266,0.573-0.409,1.146-0.409,1.719c0,0.349,0.062,0.655,0.205,0.921
		c0.143,0.266,0.307,0.389,0.512,0.389c0.204,0,0.368-0.041,0.512-0.123c0.143-0.081,0.286-0.163,0.43-0.266
		c0.143-0.102,0.307-0.184,0.49-0.266c0.185-0.082,0.43-0.123,0.737-0.123c0.634,0,1.187,0.246,1.637,0.758
		c0.471,0.511,0.695,1.166,0.695,1.943c0,0.818-0.307,1.514-0.94,2.066c-0.635,0.553-1.392,0.84-2.312,0.84
		c-0.594,0-1.146-0.123-1.638-0.389c-0.511-0.267-0.961-0.615-1.35-1.086c-0.39-0.449-0.696-0.981-0.921-1.574
		c-0.226-0.594-0.328-1.249-0.328-1.945c0-1.084,0.205-2.086,0.594-3.008c0.409-0.921,0.941-1.719,1.637-2.394
		c0.676-0.675,1.474-1.228,2.395-1.637s1.862-0.635,2.864-0.696V34.036z"/>
	<path fill="#FFFFFF" d="M18.999,21.952c0.717-0.205,1.392-0.491,2.047-0.86c0.634-0.389,1.187-0.818,1.657-1.289
		s0.839-1.003,1.105-1.555c0.266-0.573,0.409-1.146,0.409-1.719c0-0.348-0.062-0.655-0.205-0.921
		c-0.143-0.266-0.307-0.389-0.512-0.389c-0.204,0-0.368,0.041-0.511,0.123c-0.144,0.082-0.287,0.164-0.431,0.266
		c-0.143,0.103-0.307,0.184-0.49,0.266c-0.185,0.082-0.431,0.123-0.737,0.123c-0.634,0-1.187-0.246-1.637-0.757
		c-0.471-0.512-0.696-1.167-0.696-1.945c0-0.818,0.308-1.514,0.941-2.066c0.635-0.553,1.392-0.839,2.312-0.839
		c0.594,0,1.146,0.123,1.638,0.389c0.511,0.266,0.961,0.614,1.35,1.084c0.39,0.45,0.696,0.982,0.921,1.576
		c0.226,0.593,0.328,1.248,0.328,1.943c0,1.084-0.205,2.087-0.594,3.008c-0.409,0.921-0.941,1.719-1.637,2.395
		c-0.676,0.675-1.474,1.228-2.395,1.637c-0.921,0.41-1.862,0.635-2.865,0.695V21.952z"/>
	<path fill="#FFFFFF" d="M9.505,21.952c0.716-0.205,1.392-0.491,2.046-0.86c0.635-0.389,1.188-0.818,1.657-1.289
		c0.471-0.471,0.84-1.003,1.105-1.555c0.266-0.573,0.409-1.146,0.409-1.719c0-0.348-0.062-0.655-0.205-0.921
		c-0.143-0.266-0.307-0.389-0.511-0.389c-0.205,0-0.369,0.041-0.512,0.123c-0.144,0.082-0.287,0.164-0.43,0.266
		c-0.144,0.103-0.308,0.184-0.491,0.266c-0.185,0.082-0.43,0.123-0.736,0.123c-0.635,0-1.188-0.246-1.638-0.757
		c-0.471-0.512-0.695-1.167-0.695-1.945c0-0.818,0.307-1.514,0.941-2.066c0.634-0.553,1.392-0.839,2.312-0.839
		c0.594,0,1.146,0.123,1.638,0.389c0.512,0.266,0.962,0.614,1.351,1.084c0.389,0.45,0.695,0.982,0.921,1.576
		c0.225,0.593,0.327,1.248,0.327,1.943c0,1.084-0.205,2.087-0.594,3.008c-0.409,0.921-0.941,1.719-1.637,2.395
		c-0.676,0.675-1.474,1.228-2.395,1.637c-0.921,0.41-1.861,0.635-2.864,0.695V21.952z"/>
	<path fill="#FFFFFF" d="M16.223,26.846v2.296c0,0.417,0.339,0.757,0.756,0.757H77.41c0.418,0,0.757-0.34,0.757-0.757v-2.296
		c0-0.418-0.339-0.756-0.757-0.756H16.979C16.562,26.09,16.223,26.428,16.223,26.846z"/>
	<path fill="#FFFFFF" d="M16.264,36.18v2.299c0,0.416,0.338,0.755,0.755,0.755h46.13c0.417,0,0.755-0.339,0.755-0.755V36.18
		c0-0.418-0.338-0.756-0.755-0.756h-46.13C16.602,35.424,16.264,35.762,16.264,36.18z"/>
	<path fill="#FFFFFF" d="M30.389,17.516v2.285c0,0.42,0.342,0.762,0.762,0.762h46.117c0.421,0,0.762-0.341,0.762-0.762v-2.285
		c0-0.421-0.341-0.762-0.762-0.762H31.15C30.73,16.754,30.389,17.095,30.389,17.516z"/>
</g>
</svg>
