<?xml version="1.0" encoding="utf-8"?>
<!-- Generator: Adobe Illustrator 16.0.4, SVG Export Plug-In . SVG Version: 6.00 Build 0)  -->
<!DOCTYPE svg PUBLIC "-//W3C//DTD SVG 1.1//EN" "http://www.w3.org/Graphics/SVG/1.1/DTD/svg11.dtd">
<svg version="1.1" id="nav-icon" xmlns="http://www.w3.org/2000/svg" xmlns:xlink="http://www.w3.org/1999/xlink" x="0px" y="0px"
	 width="13px" height="13px" viewBox="59 0 13 13" enable-background="new 59 0 13 13" xml:space="preserve">
<g>
	<path fill="#FFFFFF" d="M66.995,1.875c0.701,0,1.359,0.273,1.855,0.769c0.495,0.496,0.769,1.155,0.769,1.856
		s-0.273,1.36-0.77,1.857c-0.495,0.496-1.153,0.769-1.854,0.769s-1.361-0.273-1.856-0.769c-0.496-0.496-0.77-1.155-0.77-1.856
		s0.273-1.36,0.769-1.856C65.634,2.148,66.294,1.875,66.995,1.875 M66.995,1C66.1,1,65.203,1.342,64.52,2.025
		c-1.367,1.367-1.367,3.583,0,4.95C65.203,7.658,66.1,8,66.995,8s1.791-0.342,2.474-1.025c1.367-1.367,1.367-3.583,0-4.95
		C68.786,1.342,67.891,1,66.995,1L66.995,1z"/>
</g>
<line stroke="#FFFFFF" stroke-miterlimit="10" x1="64.549" y1="6.947" x2="60.506" y2="10.988"/>
</svg>
