<?xml version="1.0" encoding="utf-8"?>
<!-- Generator: Adobe Illustrator 16.0.4, SVG Export Plug-In . SVG Version: 6.00 Build 0)  -->
<!DOCTYPE svg PUBLIC "-//W3C//DTD SVG 1.1//EN" "http://www.w3.org/Graphics/SVG/1.1/DTD/svg11.dtd">
<svg version="1.1" id="Ebene_1" xmlns="http://www.w3.org/2000/svg" xmlns:xlink="http://www.w3.org/1999/xlink" x="0px" y="0px"
	 width="12.249px" height="15px" viewBox="2.042 2.5 12.249 15" enable-background="new 2.042 2.5 12.249 15" xml:space="preserve">
<path fill="#CCCCCC" d="M8.91,2.5c-2.966,0-5.379,2.413-5.379,5.379c0,1.461,0.587,2.787,1.536,3.758l-3.025,4.602L3.96,17.5
	l3.026-4.603c0.599,0.229,1.246,0.361,1.924,0.361c2.968,0,5.381-2.413,5.381-5.38C14.291,4.913,11.877,2.5,8.91,2.5z M8.91,10.964
	c-1.7,0-3.083-1.384-3.083-3.084S7.21,4.796,8.91,4.796c1.701,0,3.084,1.383,3.084,3.083C11.995,9.579,10.611,10.964,8.91,10.964z"
	/>
</svg>
